<svg xmlns="http://www.w3.org/2000/svg" xmlns:xlink="http://www.w3.org/1999/xlink" viewBox="0 0 16375.7 9185.1"><defs><style>.a{fill:none;}.b,.c{fill:#3a3a3a;}.b{opacity:0.75;isolation:isolate;}.d{opacity:0.42;}.e{stroke:#000;stroke-miterlimit:10;fill:url(#a);}</style><pattern id="a" width="130" height="130" patternTransform="translate(-768 103215.813)" patternUnits="userSpaceOnUse" viewBox="0 0 130 130"><rect class="a" width="130" height="130"/><rect class="a" width="130" height="130"/><rect class="a" width="130" height="130"/><rect class="a" width="130" height="130"/><rect class="a" width="130" height="130"/><rect class="a" width="130" height="130"/><rect class="a" width="130" height="130"/><rect class="a" width="130" height="130"/><rect class="a" width="130" height="130"/><rect class="b" y="27.4" width="130" height="130"/><polygon class="c" points="0 27.4 0 38.6 118.8 157.4 130 157.4 130 146.2 11.2 27.4 0 27.4"/><polygon class="c" points="53.7 27.4 130 103.7 130 81.2 76.2 27.4 53.7 27.4"/><polygon class="c" points="0 103.6 53.8 157.4 76.3 157.4 0 81.1 0 103.6"/><polygon class="c" points="0 157.4 11.3 157.4 0 146.1 0 157.4"/><polygon class="c" points="130 27.4 118.7 27.4 130 38.7 130 27.4"/><rect class="b" y="-102.6" width="130" height="130"/><polygon class="c" points="0 -102.6 0 -91.4 118.8 27.4 130 27.4 130 16.2 11.2 -102.6 0 -102.6"/><polygon class="c" points="0 -26.4 53.8 27.4 76.3 27.4 0 -48.9 0 -26.4"/><polygon class="c" points="0 27.4 11.3 27.4 0 16.1 0 27.4"/></pattern></defs><title>area</title><g class="d"><path class="e" d="M.5.5V9184.6H16375.2V.5ZM15571.4,3868.4l-8.7,29.5-82.3,218-42.7,91.8,1.6,268.3-3.9,66.4,5.1,386.4-73,375.2-26.6,1428.8-471.4,565.3-587.4,5.7-826.2,481.7-8.4,367.1-916.5-1.9-549.6,84.2-1260.5,14.7-454,37.4-625.4,185.7-249.3-74.9-321.7-282.4-56.4-26.5-426.1-405-30.9-49.8-333-654.2-290,381.5-1615.7-5.2-.2-766.8-396.6-8-243.3-82.8-204,113.5-331-100.5L4822.8,6646l-117.3,22.5-201.3-108.8-11.4-38.5-111.6,43.3-73.5-146.1-120.8,57.1-21-52-21.7-83.8-2.9-93.9,2.6-43.9,5.1-39.5,13.1-67.6,23.4-66.2-135.2-76.7-85.6-63.4-55.7-45.3-93.5-99.3-58.3-69.2-43.4-68.8L3628,5444l-103-.3-154.5-307-745.7,94.8-24.1,58.1,56.1,51.5,4.1,260.4L2621.7,5853s-156.4-36.4-156.8-36.1-16.3-36.6-16.3-36.6l-55.7-28.4-84.5-137.3L2207,5537.3l-181,10.8L1863.4,5477l-24.6-147.4-3.9-58.9-42.9-40.2-370.1-815.1-76.3-101.3-147.3-247.7-121.4-173.9-94.6-188.1L879.5,3305.5l-7.8-134.7,28.5-100.4L878,3030.7l-10.4-74.5L969,2921.5l222.8-4.2,155.9,20.3,160.8-5.7,207.3-41.4,223.4,140.2,190.2,21.3,161.3,159.9,163.7,381.2,28.5,223.1,27.6,104.5-6,344.8,19,38.1-4,421.4,26.4,294.4,43.6,55.4,42.8,19.1,711.6-47.1-95-319.8H3034.7l-.1-363.3,57.1-.6-.2-1119.8-469.4-581.1L861.5,1847.8l10.6-911.4L1597.4,852l531.1-94.2,492.8.7,298.3,308,500.9,97.5-.5,111.2-48.6,31.2-24.1,53.2,135.9,62.8,25.1-56.9,215.9,99.6,8.9,47.8,242.2,110.5,27.4-16.9,71.8.4.3,65,46,19.4,147.8.9,2.2,42.5-8.4,19.5,172.8,82.5,24.9-17.4,65.7,34.5.1,28.5,103.9,33.8,62-39.9,68.7-25.7-2.6-25.6,82.3-5.1,54.7,19.7,81.9,51.2-16.1,31.1,37.8,66.2,204.2.5.9,202.1,473.5,209.8,520.6.4.2-148.9,828.2-.1-.5,149,2578.2-.3.3-40.3,794.5.3,555.3-219.5,74.6.3.7-203.9,434.5-.1.5,192,157,1.1,779.5,347.2,437.1,235.2,320.5,43.8-1.2,128.5,465.8,130.7,35.5-52.8,60.2-14.9,129.6,95,354.6,126.9,320.7,243.7,64.2,1.7,13.3,16.9v6.5l13.6,17.7,283.7,49.5,164.2-131,509.7,148.2Z"/></g></svg>