<svg xmlns="http://www.w3.org/2000/svg" viewBox="0 0 16376.2 9185.124"><defs><style>.a{fill:#534e4a;}.b{fill:#485448;}.c{fill:#45464b;}.d{opacity:0.5;}.e{fill:#4c4845;}.f{fill:#3f3c3b;}.g{fill:none;stroke:#3f3c3b;stroke-miterlimit:10;stroke-width:0.25px;}</style></defs><title>back</title><rect class="a" width="16376.2" height="9185.124"/><polygon class="b" points="1882.4 5303.6 1880.9 5313.5 1901.1 5367.1 1906.4 5396.2 1909.2 5433.7 1912.5 5443.7 1979.7 5472.4 2016.4 5515.5 2023.3 5527.9 2038 5527.1 2049.3 5518.5 2147.3 5416.9 2186.4 5380.5 2216.7 5367.1 2266.8 5317.6 2272 5300 2267.9 5277.1 2260.9 5268.3 1882.4 5303.6"/><polygon class="b" points="1029 2993.4 983.4 3071.4 951.8 3154.7 942.5 3252.2 946.6 3331.3 974.6 3411.7 985.7 3531.2 1016.8 3667.5 1054.1 3751.6 1112.9 3771.3 1154.7 3801.9 1154.7 3848.5 1141.4 3864.1 1085.4 3828.8 1065 3816.3 1055.8 3828.4 1096.4 3888 1274.5 4144.1 1390.7 4300.6 1579 4603.5 1651 4798.6 1806.9 5159.5 1839.4 5215 2261.5 5169.8 2256.9 5080.2 2274 5016.3 2272 4994.5 2259.1 4985.4 2258.6 4980 2270 4971.5 2269.4 4962.5 2248.4 4954.4 2237.6 4935.9 2214.9 4914.4 2232.4 4897.7 2241.8 4876.8 2248.8 4866.3 2236.8 4861 2221.7 4880.3 2202.9 4887.4 2187.1 4874.1 2181.9 4829.6 2168.5 4780.3 2138.7 4735.2 2112.9 4635.9 2078.1 4536.4 2066.6 4482.2 2075.7 4460.9 2070.8 4441.4 2054 4430.5 2058.4 4413.9 2088.9 4403.2 2106.6 4399.1 2115.9 4390.1 2103.4 4378.1 2091 4379 2078.5 4362.9 2067.7 4345.1 2041.1 4280.2 2044.8 4253.6 2066.2 4223.4 2119.1 4246.9 2130.8 4213 2107.2 4164.6 2130.8 4139.5 2182.9 4158.9 2203 4177.9 2190 4207.3 2205.4 4250.3 2226.3 4352.2 2189.1 4500.3 2175.2 4497.5 2168.6 4520.3 2224.1 4542.4 2209.9 4570.1 2208.5 4591.2 2272.4 4690 2282.4 4733 2317.8 4775.7 2321.5 4817.2 2324.3 4826.1 2320.6 4830.7 2320.7 4842.3 2302.1 4851.2 2308.9 4894 2287.4 4933.5 2283.9 4947.3 2295.1 4962.9 2303.6 4981.8 2303.2 5060.4 2295.4 5069.1 2297 5101.5 2300.4 5101.8 2302.9 5129 2321.8 5161.7 2510.9 5143.3 2533.3 5127.5 2540.4 5112.9 2537.9 5105.2 2534.8 5105 2527.4 5082.7 2505.1 5055.9 2504.5 4917.1 2491.7 4729.1 2489.4 4590.6 2481.1 4522.2 2450.6 4511.2 2418.9 4508.4 2389.7 4458.4 2385.5 4413.8 2418.8 4313.3 2454.2 4286.3 2447.1 4133 2451.2 3998.8 2429.4 3738.1 2409.2 3614.7 2348.2 3489.5 2166.4 3191.3 2115.2 3122.4 1862.7 3085.9 1764.4 3026.6 1674.7 2996.6 1579 3001.4 1467.8 3019.4 1322.2 3025 1186.9 2990.1 1099.3 2979 1029 2993.4"/><polygon class="b" points="928.1 1787.9 901 1852.9 1258.7 2012.6 1349 2051.4 1853 2213.5 1860.2 2212.3 1866.3 2217.8 1869.7 2214.9 1875.9 2215.6 1873.7 2225.7 1882.8 2227.7 1884.7 2222.2 1888.1 2226.5 2148.6 2346.5 2144.7 2089.8 1795.3 2087.7 1680.9 2072.5 1296.9 1953.6 928.1 1787.9"/><polygon class="b" points="2357.2 842.1 2357.2 856.6 2398.3 855.1 2397.3 843.8 2357.2 842.1"/><polygon class="b" points="2412 869.4 2411.5 951.6 2357.2 952.1 2357.2 957.5 2373.8 957.5 2373.8 984.5 2348.9 986.2 2348.9 1011.1 2353.9 1011.1 2353.4 1050.3 2334 1050.3 2334 1012.4 2322.8 1011.9 2322.8 974 2302.5 973.7 2302.1 998.1 2308.1 998.6 2307.4 1043.6 2302.1 1043.2 2302.1 1074 2357.1 1077.1 2357.1 1097 2393.9 1097 2394 1047.4 2374.9 1046.7 2375.1 991.3 2391 991.6 2391.4 960.6 2411.3 960.7 2411.1 1008.2 2414.2 1008.3 2414.2 1092.5 2462.5 1092.2 2459.8 1066.9 2459.6 996.7 2457.8 933.8 2455.3 931.9 2458 896.7 2476.1 896.4 2476.1 889.5 2457.1 889.2 2456.2 869.4 2412 869.4"/><polygon class="b" points="2528.4 885.9 2528.4 905 2576 905.5 2576 886.3 2528.4 885.9"/><polygon class="b" points="2515 922 2515 931.8 2512.2 934.6 2506.7 934.6 2506.7 975.6 2516.4 975.6 2516.4 951.4 2525.2 951.6 2525.2 922 2515 922"/><polygon class="b" points="2500.2 997.2 2499.7 1035.1 2462.5 1035.1 2477.5 1038.4 2477.4 1067.2 2507.7 1067.2 2507.7 1092 2539.3 1092.5 2537 995.2 2506.7 995.2 2506.7 997.2 2500.2 997.2"/><polygon class="b" points="2356 1114 2356 1117.6 2343.5 1117.6 2343.5 1173.3 2391.4 1172.7 2392.8 1114.5 2356 1114"/><polygon class="b" points="3591.4 1196.7 3348.5 1660.1 3268.4 1678.7 3076.1 2000.3 3657.8 1994.9 3657.8 1711.7 3420.5 1701.9 3509.6 1499.9 3648.2 1555.9 3664.2 1484.8 3664.2 1230.2 3591.4 1196.7"/><polygon class="b" points="3019.2 2120 2950.4 2255 2888.3 2356.3 2873.8 2426.1 2871.2 2519.6 2898.5 2563.8 3114.6 2760.2 3126.9 2792.7 3139.3 2882.2 3121.4 3041 3096.3 3061.6 3092.8 3097.7 3128.9 3162.8 3250.9 3323.6 3252 3493 3277 3493 3285.6 3421.9 3279.1 3327.2 3263.7 3231.8 3236.4 3238.1 3203.7 3078.1 3218.6 3072.7 3159.2 2837.3 3075.7 2532.2 3092.8 2284.2 3094.2 2265.3 3100.1 2229.9 3140.9 2116.1 3019.2 2120"/><polygon class="b" points="2674.2 2628.4 2725.1 2668.6 2769.4 2713.5 2855.7 2637.3 2812.5 2600.9 2774.3 2526.7 2759.8 2573.1 2739.4 2599.8 2712 2620.7 2674.2 2628.4"/><polygon class="b" points="3196.8 2118.7 3144.9 2300.4 3139.5 2341.6 3134.4 2486.1 3160.4 2537.2 3246.7 2603.2 3265.5 2610.6 3323.2 2611.2 3337 2599.8 3344.3 2576.5 3349.8 2120 3196.8 2118.7"/><polygon class="b" points="3409.7 2127.9 3404.7 2154.2 3401.6 2601.6 3418.7 2622 3461.5 2618.7 3510 2625.8 3552.9 2637.9 3586.7 2585.3 3556 2505.4 3545.1 2392.6 3526.8 2291.9 3541.3 2106.6 3441 2114.6 3409.7 2127.9"/><polygon class="b" points="3590.2 2104.3 3570.8 2252.4 3572.6 2312.5 3607.1 2457.8 3649.6 2550 3664.8 2572.4 3654.9 2106.6 3590.2 2104.3"/><polygon class="b" points="4765 1978.8 4739.9 1994.2 4723.4 2011.5 4710.4 2038.5 4706.2 2077.1 4716.4 2109.5 4733.6 2136 4769.3 2154.3 4809.2 2158.1 4847.1 2142.9 4867.1 2120.1 4880.3 2086.3 4879.3 2051.7 4868.2 2016.1 4840.1 1986.4 4795.7 1974.4 4765 1978.8"/><path class="b" d="M4936.5,2040.1l-14.5-42.7-27.9-38.7-27-22.9-38.4-16.9-46.4-3.4-50.2,15.9-26.8,20.2-31.2,30.1-17.9,38.6-6.8,40.9,6.1,50.1,22.2,44.5,22.7,27.5,29.4,20.5,36.6,11.9,53.5.9,33.5-12.6,34.4-18.1,23.8-24.6,16.1-32.2,12.2-46.8Zm-37.1,66.7-18.3,35.1-22.3,19.7-19.1,10.6-25.9,11.3h-43.7l-26.3-12.2-24-18.5-21.6-25.8-8.9-21.1-6.8-38.3,2.6-34.9,13-30,25.6-28.4,32.4-18.4,31.8-5.9,31.2,3.7,35.3,14.9,16,15.1,19.7,23.2,13.1,35.7,1.6,36.3Z"/><polygon class="b" points="3944.5 3106.5 4042.2 3178.7 4040.1 3115.6 4003.3 3086.4 3971.2 3088.2 3944.5 3106.5"/><polygon class="b" points="3914.4 3191.7 3918.4 3254.8 3937.6 3307.2 3959 3327.8 4010.1 3327.8 4037.4 3309.5 4051.5 3289.5 3914.4 3191.7"/><polygon class="b" points="3684.8 3725.3 3693.6 3968.6 3722 3968.6 3732.1 3926.8 3749.8 3903.3 3926.3 3752.4 3926.3 3737.7 3902.6 3713 3704.9 3713 3684.8 3725.3"/><polygon class="b" points="3774.8 3949.1 3774.8 4149.9 3784.7 4149.9 3888 3887.9 3866.8 3859.6 3774.8 3949.1"/><polygon class="b" points="4060.8 3773.2 3923 3981 3874.7 4076.9 3859.4 4125.7 3855.4 4151.9 3864.8 4178.3 3884 4202.7 4068.5 3776.8 4060.8 3773.2"/><polygon class="b" points="4106.7 3954.4 4054.8 4116 4392.6 4137.9 4195 4097.6 4146.1 4062.6 4119 4015 4106.7 3954.4"/><polygon class="b" points="4052.5 4160.9 4016.2 4247.9 4171.9 4189.9 4242.7 4171.6 4328.5 4163.6 4052.5 4160.9"/><polygon class="b" points="3985.2 4297.3 3959.5 4394.7 3951.4 4424.5 3954.1 4461.6 3964.6 4501.7 4002.4 4591.6 3987.7 4472.1 3999.5 4403.6 4029.7 4342.7 4051.6 4316.6 4128.1 4251.9 4125.8 4241.7 4049.4 4280.1 3985.2 4297.3"/><polygon class="b" points="3922.7 4498.8 3945.6 4616.6 3956.1 4711.1 4016.8 4706.6 3927.3 4498.8 3922.7 4498.8"/><polygon class="b" points="3783 4616.9 3752.9 4747.3 3722.3 4820.5 3666.2 4905 3769.6 4815.2 3814.7 4765.4 3818.3 4754.4 3798 4650.8 3788.5 4616.9 3783 4616.9"/><polygon class="b" points="3697.9 4925.7 3701.3 4933.6 3725.2 4916.1 3732.6 4912.6 3738.8 4917.5 3796.8 5011.8 3817.2 5053.4 3821.6 5071.9 3817.2 5077.2 3777.7 5098.5 3781.9 5109.6 3840.1 5107 3887.2 5102.5 3935.7 5088.4 3968.6 5067 3934.9 4992.9 3904.2 4937.9 3848.4 4812.6 3822 4832.3 3815.4 4821.7 3697.9 4925.7"/><polygon class="b" points="3981 5104.4 3891.1 5150.4 4026.5 5190.6 3981 5104.4"/><polygon class="b" points="3661.5 5131.7 4112.9 5383.1 4045.3 5230.5 3661.5 5131.7"/><polygon class="b" points="3568 5131.7 3614.9 5229.7 3645.6 5272.1 3676.5 5294.5 3714 5305.8 3808.2 5321.9 3892.8 5366.5 4065.3 5503.7 4098.8 5522.9 4137.6 5534.1 4154.5 5530.4 4166.2 5518.9 4165 5494.7 4137.8 5431.8 4112.9 5409.6 3626.1 5146.5 3609.8 5139.6 3568 5131.7"/><polygon class="b" points="3717.1 5363.1 3716.4 5406.9 3723.3 5450.9 3732.1 5479.2 3773.6 5560.7 3821.3 5615.8 3852.8 5659.3 3864.6 5688.7 3903.4 5732.2 3936.2 5765.7 4007.9 5825.9 4025 5803.3 4026.3 5785.8 4013.7 5771.4 3997.6 5740.9 3994.9 5695.5 4011.8 5660.1 4015.6 5642.3 4031.9 5594.5 4044 5594.5 4061 5620.4 4070.1 5625.7 4103.4 5621.9 4139.5 5635.4 4154 5645.9 4165.3 5661.7 4164.4 5681.6 4154.3 5707.8 4158.3 5718.6 4182 5706.9 4211.5 5701.6 4230.4 5702.9 4238.8 5716.7 4258 5745.3 4241.5 5780.5 4230.6 5789.6 4208 5793.5 4180.3 5780.3 4167.8 5794.8 4171.7 5822.6 4165.4 5831.9 4148.5 5828.7 4136.6 5812.5 4132 5802.9 4126.1 5798.2 4113.5 5802.3 4096.5 5812.4 4065.8 5810.1 4049.1 5858.6 4131.1 5901.6 4254.5 5959 4298.8 5826.9 4305.9 5776.2 4301.6 5737.9 4291.1 5710.8 4275.2 5688.3 4251.8 5667.2 4056.2 5560.6 3887.2 5420.8 3811.7 5380.5 3717.1 5363.1"/><polygon class="b" points="3966.5 4764.5 4049.7 4966.3 4065.4 4921.7 4071.9 4875.9 4069.4 4833.5 4056.3 4781.9 4037.7 4758.5 3966.5 4764.5"/><polygon class="b" points="4117.9 4836.9 4114 4945.6 4097.3 4984.3 4086.9 5005.2 4076.2 5023.1 4151.9 5213.8 4192.6 5230 4194.4 5149.5 4177.9 5076 4164 5004.6 4117.9 4836.9"/><polygon class="b" points="4137.3 4786.1 4202.4 4979.6 4215.4 5062.3 4218.2 5139.7 4246 5035.6 4248.1 5013.1 4245.5 4978 4219.7 4887 4207.5 4861.3 4171.9 4817.6 4137.3 4786.1"/><polygon class="b" points="4203.6 5520 4238.5 5588.8 4297.9 5617.5 4334.2 5654 4347.1 5681.2 4333.3 5603.5 4287.4 5525.3 4251.3 5489.2 4228.8 5514.8 4215.9 5520 4203.6 5520"/><polygon class="b" points="4299.1 5969.7 4392.7 6005.8 4438.1 6010 4496.5 6010 4567.4 5989.8 4604.4 5954.9 4614.1 5937.3 4629 5895 4621.1 5848.9 4601.6 5808 4570.7 5780.9 4526.4 5764.8 4476 5768.8 4416 5784.6 4362.1 5824 4326.7 5887.4 4299.1 5969.7"/><polygon class="b" points="4352.7 6048.7 4352.7 6053.9 4396.5 6086.4 4423.6 6110.3 4444.8 6133.1 4463.1 6170.4 4470.6 6141.6 4483.3 6104.8 4519.7 6045.8 4481.7 6055.7 4426.3 6057.1 4391.6 6055.5 4352.7 6048.7"/><polygon class="b" points="4271.8 6054.1 4245.3 6136.8 4235 6213.3 4241.5 6324.7 4269.1 6421.3 4281.8 6446.2 4336.8 6421.1 4415.6 6366.1 4437.8 6334.7 4452.6 6285.2 4450.2 6227.5 4425.5 6165.2 4396.3 6121.6 4357 6090.9 4271.8 6054.1"/><polygon class="b" points="4228.8 5274 4229.3 5339.5 4281.9 5470.7 4324.7 5522 4361.8 5590.9 4375.5 5770.3 4419.9 5741 4480.6 5723.1 4537 5723.3 4593.8 5738 4647.4 5795.7 4664.7 5862.6 4654.4 5933 4735.8 5904.9 4735.2 5397.7 4615.6 5382 4550.6 5372.5 4390.4 5330.6 4359.5 5322 4228.8 5274"/><polygon class="b" points="4827.5 5406.3 4814.8 5906.1 4826.6 5906.1 4871.6 5916.8 4911 5930.7 5222.2 5404.5 4827.5 5406.3"/><polygon class="b" points="4501.4 6311.6 4485.5 6347.9 4469.3 6374.9 4434.4 6421.9 4498.8 6425.7 4578.9 6453.4 4536.1 6399.4 4522.1 6370.7 4501.4 6311.6"/><polygon class="b" points="4533.7 6228.9 4533.7 6269 4542.6 6310.8 4581.4 6396.8 4609.4 6431.9 4641.7 6459.3 4688.2 6470.6 4729 6496.7 4773.6 6502.6 4816.2 6499 4853 6476.2 4894.9 6476.5 4956.4 6430.1 4979.3 6406.1 4992 6388.7 4992 6314.3 4863 6316.4 4862.2 6365.7 4691 6370.6 4689.6 6129.3 4860.6 6130.1 4862.2 6183.2 4988.6 6184.6 4988 6095.6 4957.4 6053 4928.7 6029.1 4874.2 5998.6 4829.5 5984.7 4781.8 5982.4 4728.7 5987.2 4674.5 6008 4627.5 6039.7 4590 6072.8 4560.4 6121.9 4538.6 6175.3 4533.7 6228.9"/><polygon class="b" points="4170.2 4774.3 4214.2 4836 4257.6 4913.6 4271.2 4997.8 4262.9 5091.2 4235.3 5176.9 4230.4 5237.9 4380.4 5286.9 4661.7 5344.8 4734.6 5351.6 4739.2 5343.9 4652 5309.2 4537.4 5206.6 4296.4 4908.1 4275.3 4871.7 4229.2 4819.2 4175.5 4770.9 4170.2 4774.3"/><polygon class="b" points="4240.4 4799.3 4410.4 5008.1 4452.9 5047.3 4501.9 5120.8 4550.2 5173.3 4546.4 5076.8 4531.2 5051.8 4519.3 5044.1 4471.1 4968.4 4483.9 4948.3 4494.7 4948.3 4494.2 4855 4387.7 4856.5 4346.2 4845.5 4300.7 4802.2 4286.6 4784.2 4253.6 4785.4 4240.4 4799.3"/><polygon class="b" points="4560.6 5195.6 4634.5 5269.6 4651.3 5277 4710.3 5280.7 4724.6 5277.6 4730 5271.1 4733.3 5262.8 4729.6 5190.9 4676.2 5191.3 4671.6 5224.9 4659.1 5229 4634.9 5226.2 4616.9 5216.6 4560.6 5195.6"/><polygon class="b" points="4253.7 4252.2 4602.8 4254.4 4658.1 4234.1 4723.1 4226 4450 4218.4 4338 4230.9 4253.7 4252.2"/><polygon class="b" points="4602.6 4298.1 4600.8 4350.3 4622 4352 4620.3 4437.8 4592.7 4437.8 4592.1 4477.2 4507.8 4478.2 4505 4538.8 4478.7 4543.3 4479.1 4572.5 4496 4570.5 4496.8 4583.2 4593.1 4583.2 4594 4653.4 4529.5 4659.1 4531.5 4678.7 4592 4680.1 4594.1 4737.5 4538.3 4751.5 4533.5 4813.4 4741.9 4796.6 4744.5 4275.4 4673 4271.2 4602.6 4298.1"/><polygon class="b" points="5643.3 2498.5 5640.9 2621.8 5884.5 2620.6 5884.5 2602 5643.3 2498.5"/><polygon class="b" points="5767.7 2469 5994.5 2572.8 5999.3 2476.6 5767.7 2469"/><polygon class="b" points="6400.2 2852.8 6403.5 2978.8 6606.1 2978.8 6605.7 2950.7 6400.2 2852.8"/><polygon class="b" points="6573.5 2830.3 6573.2 2839.9 6770.8 2930.9 6767.2 2831.4 6573.5 2830.3"/><polygon class="b" points="5312.2 3040.6 5309.6 3195.6 5359.1 3198.8 5359.5 3233 5377.6 3237.8 5377.1 3261 5411.2 3268 5412.3 3279.7 5517.2 3279.4 5503.2 3235.9 5537.6 3243.3 5537.2 3204.9 5568.5 3202.8 5569.6 3154.1 5434.6 3151.5 5435 3108.8 5385.5 3107.1 5387 3040.6 5312.2 3040.6"/><polygon class="b" points="5733.7 3060.9 5731.6 3159.4 5748.1 3161 5747.2 3190.1 5760 3191.5 5760.9 3204.6 5816.3 3204.6 5818.3 3228.5 5828.8 3228.5 5828.8 3193.3 5851.3 3193.3 5853 3136.4 5827.4 3133.6 5829.4 3105 5852 3107.5 5832.4 3049.9 5776.9 3048.3 5775.8 3061 5733.7 3060.9"/><polygon class="b" points="4838.8 4213.8 4838.4 4256.6 4944.4 4255.6 4946.4 4284.9 5068.4 4291.6 5052.2 4275.7 5039.8 4269.4 4913.4 4218.6 4838.8 4213.8"/><polygon class="b" points="4970.3 4198.1 4972.4 4205.5 5087.1 4250.2 5128.4 4280.7 5254.3 4291.1 5356.8 4295.3 5377.3 4288 5389.4 4275.2 5407.6 4248.1 5249.3 4137.3 5231.9 4136.2 5215.8 4155.5 5128.4 4134.9 5124.6 4199.2 4970.3 4198.1"/><polygon class="b" points="5408.9 4144.3 5577.5 4259.9 5582.9 4141.9 5408.9 4144.3"/><polygon class="b" points="5772.4 4141.9 5643.2 4144 5640.7 4208.9 5642.6 4209.7 5644.8 4226.5 5640.7 4228.1 5640.1 4242.5 5642.2 4242.5 5643.5 4264.8 5743.9 4268.7 5784.1 4272.1 5784.1 4285.9 5798.2 4285.9 5798.2 4277.6 5831.3 4277.5 5831.3 4285.9 5847.7 4285.9 5847.7 4296.9 5880.8 4299.7 5917.5 4300.5 5917.5 4309 5835.9 4309 5835.8 4297.9 5768.9 4297.3 5769 4283 5661.2 4276.6 5639.5 4273.4 5639 4306.3 5962.2 4521.1 5991.6 4481.5 5998.4 4453 5999.7 4324.9 5980.1 4307.9 5994.8 4188.7 5977.7 4189.6 5978.2 4141 5814.2 4141.7 5772.1 4161.2 5692.8 4168.2 5645.9 4170.3 5645.8 4160.5 5772.5 4158.9 5772.4 4141.9"/><polygon class="b" points="5638 4441.6 5641.6 4704.2 5859.2 4705.6 5859.2 4677.1 5922.1 4676.9 5922.1 4705.6 5978.5 4707.3 5984.3 4870.6 6039.1 4860.4 6134.9 4831.2 6157.9 4812.5 5653.3 4425.5 5638 4441.6"/><polygon class="b" points="6062.9 4163.6 6062.9 4270.2 6332.8 4270.6 6332.8 4164.4 6062.9 4163.6"/><polygon class="b" points="6429.3 4181.3 6424.1 4268 6724.4 4264.4 6722.4 4180 6429.3 4181.3"/><polygon class="b" points="4984.6 5976.3 5026.3 6016.3 5053.4 6062 5115.6 6066.5 5116.5 6175.4 5223.9 6178.5 5226.2 6161 6765 6128.6 6765 6117.7 6925.3 6116.8 6927 6317.7 6771.2 6321.6 6770.6 6309.7 5225.1 6329.4 5225 6302.6 5113.8 6301.8 5111.4 6390.4 5068.8 6391.6 5044.1 6445.8 5009.2 6489.5 4953.1 6536.1 4895.1 6564 4825.5 6579.5 4755.2 6584 4705.3 6572.5 4655 6554.4 4515.1 6478.5 4459.9 6479 4368 6493.8 4315.1 6513.5 4325.9 6535.8 4465.8 6719 4520.2 6774.1 4746.3 7047.9 5690.1 8047.3 5887.2 8237.8 6785.9 9107 6865.5 9146.5 6921.8 9144.2 6976.1 9128 7047.1 9077.8 7065.9 9018.2 7067.6 8961.6 7038.4 8841.7 6930.6 8587.6 6886.9 8346.9 6839 8243.1 6760 8145.7 6592.1 8049.7 6412.8 7976.3 6283.6 7882.7 6146.4 7734.7 6086.1 7607 6086.6 7488.6 6115 7363.6 6195.8 7281.7 6332.5 7174.1 6484.9 7121.6 6841 7129.3 6913.5 7112.4 6940.3 7086.5 6977.7 7030.4 7013.3 7017.9 7019.2 7004.2 6824.3 7012.6 6821 6943.2 6940.7 6946.4 6940.6 6918.2 6923.5 6907.7 6911.2 6880.7 6922.1 6840.2 6933.2 6808.9 6866 6675 6982.1 6546 7103.4 6490.4 7191.1 6436.6 7273 6371.4 7267.8 5404.6 6370.5 5397 5332.4 5403.3 4984.6 5976.3"/><polygon class="b" points="6929.2 6639.3 6972 6664.4 6942.1 6719.4 6945 6726.9 7036.5 6678 7132.4 6643.2 7158.3 6628.2 7192.1 6597.3 7220.4 6565.9 7243.3 6527 7261 6491.3 7260.3 6451.6 7250.7 6451 7241.8 6455.7 7181.4 6504.6 7123.9 6539.9 7048 6571.1 6929.2 6639.3"/><polygon class="b" points="7319 6407.4 7304.5 6468.1 7289 6507.3 7300.2 6502.7 7317 6499.3 7333.3 6501.2 7350 6508.5 7331.6 6464.1 7319 6407.4"/><polygon class="b" points="7217.4 6626.4 7255.7 6581.5 7272.3 6554.5 7292.4 6538.9 7307.1 6533.4 7322.6 6534.3 7344.9 6538.4 7359.4 6550.6 7398.8 6605.3 7415.9 6624.5 7391.3 6623.2 7341.2 6620 7273.5 6618.8 7217.4 6626.4"/><polygon class="b" points="4827.1 5123.8 4828.9 5290.6 4922.2 5290.6 4923.6 5205 4917.2 5203.8 4916.7 5181.9 4877.9 5180.4 4878.6 5123.8 4827.1 5123.8"/><polygon class="b" points="4959.3 5205.7 4960.1 5290.6 5054.1 5290.6 5054.1 5120.9 5037.9 5122.7 5038.1 5149.5 5004.4 5150.7 5002.8 5183 4964.9 5183 4965 5205.1 4959.3 5205.7"/><polygon class="b" points="5134 5025 5135.4 5295.5 5562.9 5303.6 5558.5 5166.9 5525.2 5145.6 5508.1 5156.9 5492.6 5136.7 5471.7 5135.5 5468.2 5164.3 5213.6 5166.5 5213.3 5104.4 5230.1 5100.3 5231.2 5027.3 5134 5025"/><polygon class="b" points="5650.4 4954.2 5650.2 5287 5990.6 5280.5 5991.3 5039.4 5871.2 5036.4 5869.6 5081 5898 5082.7 5904 5063.8 5973.7 5064.3 5972.2 5163.7 5867.6 5162 5866.5 5207.7 5766.6 5210.7 5766.4 5154 5660.5 5153.2 5661.6 5059.2 5721.6 5056.6 5721.5 5075.7 5767.1 5077.4 5769.3 5015 5720.1 5013.6 5717.6 5025.8 5666.9 5028.3 5665.5 4954.2 5650.4 4954.2"/><polygon class="b" points="6061.2 5164.6 6062.8 5278 6328.3 5279.1 6329 5161.1 6061.2 5164.6"/><polygon class="b" points="6406.5 4978.9 6406.5 5302 6749.3 5305.1 6753.6 5221.1 6746.2 5209.9 6666.3 5154.2 6664.1 5251.1 6473.4 5250.5 6472.8 5135.5 6617 5136.1 6616.4 5115.9 6406.5 4978.9"/><polygon class="b" points="6490.5 4933.7 6737.2 5112.2 6750.7 5100.3 6748.3 4939.1 6490.5 4933.7"/><polygon class="b" points="6828.4 4595.7 6828.4 4687.3 7003.3 4687.6 7001.9 4708.7 7129.4 4709.6 7129.4 4680.4 7285.3 4680.6 7286 4608.1 7271.7 4608 7244.7 4598 7228.4 4578.9 7220.9 4559.8 7091.4 4559.8 7091.2 4482.5 6907.9 4482.5 6906.6 4596 6828.4 4595.7"/><polygon class="b" points="6983.2 4924.8 6986.1 5036.9 7196 5045.5 7197.5 5018.3 7207.8 4998.4 7228.8 4983.4 7291.8 4980.3 7293.4 4925.7 6983.2 4924.8"/><polygon class="b" points="6853.3 5190.3 7003.3 5305.1 7244.7 5308.9 7244.7 5302.4 7209.2 5287.5 7194.8 5266.9 7190.4 5242.3 7007.3 5240.1 7005.4 5226 6970.9 5228 6973.8 5071.9 6901.5 5073.5 6902.3 5192.3 6853.3 5190.3"/><polygon class="b" points="7238.5 5223.7 7237.3 5249.7 7247 5266.6 7254 5271.2 7290.5 5271.5 7289.5 5012.8 7259.8 5012.1 7249.3 5014.9 7240.5 5024.9 7237.8 5035.5 7237.3 5062.7 7247.5 5062.9 7245.8 5221 7238.5 5223.7"/><polygon class="b" points="7370.9 3320.6 7369.6 3956 7645.5 3957.9 7647.1 3323.6 7370.9 3320.6"/><polygon class="b" points="7372.5 4041.8 7371.6 4268.9 7647.7 4269.5 7646.4 4102.2 7635.4 4056.2 7624 4041.8 7372.5 4041.8"/><polygon class="b" points="7366 4353.4 7360.6 5303.7 7374.3 5303.5 7420.1 5277.8 7464.9 5241.2 7500.4 5208 7535.3 5158 7562.2 5108.1 7582.5 5041.3 7583.7 4981.6 7538 4871.8 7523.1 4775.1 7533.9 4686.6 7559.6 4600 7604.6 4524.4 7659.5 4460.1 7732.3 4410.3 7802.3 4373 7807.6 4360.3 7726.1 4348.8 7366 4353.4"/><polygon class="b" points="7452.3 5304.5 7991.5 5310.1 7989 5217.8 7877.6 5197.4 7806 5170.5 7742.6 5136 7680.6 5093.1 7633.3 5042.1 7620.6 5044.8 7600.3 5119 7551.5 5208.8 7533.3 5235.9 7492.1 5277 7452.3 5304.5"/><polygon class="b" points="7577.4 4787.3 7587.6 4858.3 7616.5 4933.8 7666.9 5007.6 7724.4 5065.1 7785 5104 7853.5 5134.9 7934.3 5155.7 7996 5162.2 8059.9 5161.2 8127.4 5149.4 8197.3 5126.9 8254.5 5103.7 8314.5 5064.7 8366.7 5010.8 8399.8 4964.3 8431.1 4901.3 8450.4 4839.4 8454.7 4773.6 8447.8 4699.2 8429.7 4644.7 8394.5 4572.5 8347 4514.6 8292.6 4471.2 8232.9 4432.5 8167.9 4408.5 8113.7 4396.6 8045.2 4388.5 7957 4388.5 7878.9 4403.2 7821.2 4424 7795.2 4436.9 7733.9 4472.8 7687.3 4513.8 7639.8 4575.5 7606.1 4634.6 7582.6 4708.3 7577.4 4787.3"/><polygon class="b" points="8055.2 5219.2 8053.7 5308.4 8572 5307.8 8521.1 5257.5 8478.9 5195.4 8443.5 5116.8 8415.9 5032 8337.7 5106.1 8255 5160.3 8156.5 5196.9 8055.2 5219.2"/><polygon class="b" points="8448.7 4981.6 8479.4 5083 8513.9 5170.2 8544 5218.8 8576.8 5256.7 8612.2 5286.5 8653.1 5308.4 8673.4 5308.4 8672.8 4334.2 8653.9 4331.2 8597.1 4388.5 8560.1 4439 8536.1 4473.5 8505.5 4541.4 8483.3 4622.7 8503.5 4717.3 8507.4 4801.8 8485.9 4894.3 8448.7 4981.6"/><polygon class="b" points="8179 4376.8 8246.7 4382.3 8308.3 4415.3 8357.3 4451.5 8416.8 4512.2 8454 4561 8487.5 4483.9 8507.6 4448.4 8540.9 4396.4 8572 4357.9 8611.2 4322.4 8456.3 4324.6 8362.4 4338.5 8287.3 4364.9 8179 4376.8"/><polygon class="b" points="7717.3 4012.7 7719.4 4260.6 7896.2 4310.2 7983.7 4328.6 8071.6 4331.2 8164.8 4321.1 8262.9 4300.4 8347.3 4268.5 8356.3 4009.5 8087 4006.8 8022.2 4016.3 7969.9 4011.9 7753 4008.9 7717.3 4012.7"/><polygon class="b" points="7721.1 3972.6 7769.1 3970.7 7812.8 3957.9 7838.9 3940.1 7853 3910.2 7860.3 3873.9 7861.1 3843.9 7862.3 3811.2 7878.2 3764.8 7902.4 3726.9 7930.9 3702.2 7979.6 3676.8 7975.1 3630.4 7886.9 3630.4 7886.3 3730.7 7842.6 3731.9 7839.4 3783.9 7807.4 3788.2 7805.5 3849.5 7741 3851.9 7739 3627.6 7823.1 3618.7 7918.8 3569.3 7918.6 3512 7864.6 3480.7 7838.5 3449.9 7805.7 3375.6 7803.5 3317.3 7704.5 3317.3 7721.1 3972.6"/><polygon class="b" points="7873.9 3933.9 7842.4 3967.1 7894.1 3970.5 7873.9 3933.9"/><polygon class="b" points="8135.6 3968.1 8164.1 3935.1 8202.3 3968.6 8167 3970.5 8135.6 3968.1"/><polygon class="b" points="7881.9 3830.5 7881.9 3868.8 7890.4 3909.4 7910.5 3944.4 7950.8 3971.9 7973.2 3975.5 8057.6 3975.5 8101 3968 8125.1 3952.2 8141.3 3927.3 8151.1 3903.6 8153.5 3856.1 8155.3 3832.2 8148.7 3797.3 8116.8 3750.7 8101.9 3734.1 8067 3711.3 8039.5 3705.4 8006.1 3705.4 8005.9 3728.7 7945.8 3726.8 7918.1 3755.4 7897.2 3789 7881.9 3830.5"/><polygon class="b" points="7845.1 3319.7 7846.7 3394.1 7854.6 3415.3 7884.1 3452.4 7947.1 3492.2 7974.1 3501 8016.2 3505.8 8046.9 3505.8 8075.1 3499.7 8089.2 3494.4 8133.1 3470.7 8144.9 3460.9 8172.8 3431.1 8181.4 3419.7 8194 3393 8199 3374.2 8200.3 3320.9 7845.1 3319.7"/><polygon class="b" points="8117.5 3536.8 8116.7 3590.9 8182.6 3590.9 8182.6 3569.9 8277.9 3569.3 8296.6 3569.1 8296.6 3669.3 8210.4 3669.3 8209.7 3633.3 8183.5 3633.3 8181.1 3708.9 8109.8 3708.9 8163.1 3775.7 8179.7 3843.9 8183.5 3908.4 8199.5 3938.7 8227.5 3958.8 8258.8 3972.6 8358 3975.5 8354.8 3322.8 8283.6 3322.8 8247.2 3318.3 8244.3 3367.4 8237.9 3406.7 8222.3 3446.9 8196.8 3482.6 8165.5 3508.2 8117.5 3536.8"/><polygon class="b" points="7716.8 2832.8 7716 3199.6 8364.3 3214.8 8369.2 2835.7 7716.8 2832.8"/><polygon class="b" points="8393.4 3321.8 8395.5 3957.2 8660.5 3961.3 8663.3 3318.3 8393.4 3321.8"/><polygon class="b" points="8405 4212.1 8426.3 4241.5 8452.8 4240.3 8521.3 4175.5 8523.3 4101 8603 4101 8603 4179.7 8530.8 4182.3 8480.8 4236.8 8660.7 4236.2 8655.5 4044.9 8407.8 4043.1 8405 4212.1"/><polygon class="b" points="8779 4051.2 8769.7 4070.8 8761 4071.8 8761 4210.6 8771 4211.6 8777.6 4220.3 8777.1 4228.9 9036.8 4225.3 9053.9 4211.4 9061.5 4210.4 9040.8 4130.9 8839.6 4052.4 8779 4051.2"/><polygon class="b" points="8804.5 4102.3 8804.5 4185.6 8905.7 4185.6 8905.7 4103.5 8804.5 4102.3"/><polygon class="b" points="9298.1 4139.2 9299 4217.3 9613.2 4213.1 9605.7 4145.8 9298.1 4139.2"/><path class="b" d="M8848.1,6334.2l33.5-117.6-75.1-6.5-39.9,18.7-61.5-3,.7-14.3-17.8-4.2-11.7-16.1-.3-24.8,8.1-14.9,17.4-5.9-.9-21.2,64.8,3.2,38.8,17.6,72.3.2-30.4-146.7L8758,5845.8l-51.3-139.4L8687,5553.9l-5.1-159.3-639.9-5.7-674.8,17.2-6.6,965.8,5,90.8,17.4,42.2,39.2,55.5,34.4,42.4,37.6,23.5,109.5,39.4,33.8-110.1,18.1-27.2,34-25.2,56.8-5,76.1,28.7,50.3,36.1,35.4,40.3,23.1,49.6-7.3,29.3,257.4,59.3,46.4,5,218.6-2.4,213.8-76.9,24.2-77.5L8746,6482l51.3-77.5,12.3-34.3-65.3,2.8-1-52.2,53-2.8Zm-425.9-120.9-11.9,27.4-21.8,22.6-23.3,13.1-34.2,6.9-33.7-4.5-24.1-13.1-30-25-9.1-25-6.5-33,2.6-27.7,10.4-29.1,15.8-19.6,23-16.7,45.6-16.7,27.2,4.5,25.1,9.5,15.8,12.5,15.5,17.5,11.9,25,6.5,26.2,1.8,19.6Z"/><polygon class="b" points="7475 6681.8 7568.8 6737.5 7630.6 6764.1 7676.7 6780.2 7690.1 6801 7710.3 6817.5 7721.1 6847.8 7721.1 6887.1 7710.3 6912 7688 6922.8 7688.3 6946 8013.2 6945 8219.3 6926.5 8219.3 6910.7 8124.2 6882.6 7698 6755.6 7497.7 6681.3 7475 6681.8"/><polygon class="b" points="8228 6971.7 8093 6986.6 8053.1 7023.3 7681.4 7007.6 7673.2 7026.4 7686.3 7058.8 7714.2 7092.9 7791.6 7132.2 7863.4 7210.3 7918.3 7292 7985 7501 8021.9 7557.7 8079.2 7605.3 8136.5 7613.6 8176.2 7610.3 8176.6 7602.9 8161 7593.8 8149.5 7571.4 8152.9 7543.4 8170.7 7526.2 8197.8 7523.8 8221 7540.5 8229.4 7570 8219.9 7596.4 8224.6 7610.2 8266.4 7606.9 8323.7 7609.5 8371.7 7618.4 8435.2 7645 8520 7647.3 8577.2 7606.1 8679.2 7574.2 8682.3 6739.7 8661.4 6740.9 8584.9 6763.1 8399.5 6812.1 8174.7 6812.1 7947.7 6748.1 7839.3 6747.6 8226 6873.6 8333.5 6888.8 8354.3 6948.7 8228.6 6913.7 8228 6971.7"/><polygon class="b" points="8887.6 6432.9 8830.9 6513.2 8796.5 6555.5 8762.7 6606.5 8750.2 6651.8 8754.7 6657.8 8842.4 6653.5 8876.5 6659.3 8916.9 6670.7 9000.1 6701.5 9061.3 6719.7 9056.7 6494.8 8887.6 6432.9"/><polygon class="b" points="8901.2 5992.5 8920 6040.5 8930.8 6089.9 8936.8 6181.5 8933.8 6232.1 8927.9 6277.9 8917.8 6316.8 8910.8 6355.1 9065 6415.3 9069.4 5922.6 8901.2 5992.5"/><polygon class="b" points="8768 5413 8770.3 5506.9 8766 5571.2 8776 5681.7 8798.4 5755.5 8848.3 5838.1 8866.5 5872.8 8887.4 5912.1 8899.5 5928.4 9055.3 5871.4 9059.7 5415.3 8768 5413"/><polygon class="b" points="9165.9 5414.5 9164.3 5845.2 9973.7 5832.6 9973.7 5414.5 9677.7 5428.8 9649.7 5489.3 9861.5 5489.6 9857 5746 9276.9 5745.5 9273.6 5496.3 9475.8 5498.9 9454.9 5416.9 9165.9 5414.5"/><polygon class="b" points="9160.2 5921.4 9167.4 6411.4 9996 6410.5 9993.5 5902.8 9160.2 5921.4"/><polygon class="b" points="10116.4 5425.4 10116.3 5830.9 10972.8 5816.8 10974 5425.4 10116.4 5425.4"/><path class="b" d="M11031.9,5401.5l6.2,418.1,411.1-2.8,3.6-410.6Zm298.5,236.7-15.2,26.3-22.7,15.2-31.8,7-32.8-6.4-25.1-14.3-13.5-24.1-3.5-32.3,4.8-31.4,13.6-25.4,22-16.7,33.9-8.5,34.6,8.9,22.9,17.2,12.2,26.5,3.2,30.2Z"/><polygon class="b" points="11078.9 4887.9 11068.1 4897.4 11064.2 4907.5 11070.9 5288.3 11440.8 5296.9 11437.4 5025.3 11092.7 4890 11078.9 4887.9"/><polygon class="b" points="11354.4 4737.9 11353.9 4842.8 11462.5 4882.2 11463.8 4736.4 11354.4 4737.9"/><polygon class="b" points="11544.9 4849.7 11542.5 4922.3 11632.1 4947.9 11630 4820.8 11544.9 4849.7"/><polygon class="b" points="12017.8 4531.2 12016.5 4570.2 12134.3 4530.2 12017.8 4531.2"/><polygon class="b" points="12023.7 5224.2 12028.3 5314.3 12143.9 5315.8 12197 5295.3 12197 5287.5 12023.7 5224.2"/><polygon class="b" points="11559 5412.5 11559.5 5468.6 11656.1 5470.1 11656.1 5436.4 11841.8 5437.9 11840.5 5502.7 11900 5502.2 11903.7 5450.6 12047.6 5444.8 12049.1 5496.2 12107.2 5493.6 12109.3 5436.4 12287.1 5435.7 12288.6 5474.3 12341.3 5474.6 12338.1 5692.7 12348.8 5695.7 12348.5 5783.5 12506.8 5785.8 12493.7 5409.8 12311.7 5343.7 12172.9 5413.9 11559 5412.5"/><polygon class="b" points="9162.1 6485.5 9162.1 6727.2 9244.1 6727.2 9248.8 6570 9494.7 6564.4 9495.5 6544.6 9526.3 6542.6 9523.3 6508.7 9505.9 6508.7 9480.9 6498.4 9475.3 6482.1 9162.1 6485.5"/><polygon class="b" points="9629.9 6505 9633.1 6541.1 9699.5 6541.1 9700.3 6558.5 9909.3 6562.2 9917.3 6720.5 9974.3 6718.4 9970.5 6474.6 9680.1 6478.8 9665.9 6498.9 9648.7 6503.8 9629.9 6505"/><polygon class="b" points="10080 5902.8 10082.8 6409.7 10163.4 6401.9 10224.3 6385.3 10361.5 6314.5 10457.6 6275.5 10524.7 6264.6 10633.4 6272.4 10712 6292.9 10813.1 6343.6 10817.3 6235.3 10968.3 6232.5 10965.2 5882.8 10080 5902.8"/><polygon class="b" points="11038.3 5882 11038.4 6203.2 11079.7 6202 11077.6 6316.8 10968.3 6318.6 10969.5 6373.2 10997.9 6375 11441.1 6373.1 11447.7 5887.5 11038.3 5882"/><polygon class="b" points="11563.1 5878 11560.7 6368.8 12490.5 6357.6 12487.9 5863.8 11563.1 5878"/><polygon class="b" points="12586 5860 12582.1 6363.5 13055.6 6356.7 13053.2 5851.9 12586 5860"/><polygon class="b" points="9543.1 7795.8 9519.7 7810.3 9503.2 7829.2 9494.2 7849.2 9489.9 7876.8 9498.4 7908.4 9511.4 7929.8 9524.3 7940.6 9542.8 7948.7 9565.6 7952.8 9597.4 7952.3 9619.6 7943.7 9639.7 7931.2 9653.1 7909.2 9660.4 7885.7 9660.7 7856.6 9648.5 7828.9 9636.9 7817.1 9625.7 7807.9 9602.5 7791.7 9578.1 7789.4 9543.1 7795.8"/><polygon class="b" points="9154.2 8147.1 9141.6 8195.4 9039.4 8336.8 9156.4 8356.7 9189.4 8338.8 9257.8 8354.5 9267.1 8345 9288.3 8334 9455.5 8397.1 9523.5 8431.4 9617.3 8487.5 9644.9 8418.1 9728.5 8451.8 9711.9 8520.3 9730.9 8520.3 9776.3 8481.2 9803.2 8450.5 9830.3 8431.6 9921.8 8393.1 9838.8 8400.3 9744 8398.7 9679.4 8386.8 9662.8 8388.4 9621.9 8381.3 9589.5 8371.9 9531.8 8342.4 9417.5 8297.2 9330.3 8264.4 9271.1 8228 9154.2 8147.1"/><polygon class="b" points="10094.9 6840.6 10087.4 6900.1 10147.1 6934.1 10139.2 6973.2 10090.6 6945.9 10240.3 7214.3 10278.3 7275.5 10295.7 7276.6 10219.2 7020.5 10239.9 7019.6 10236.4 6875.6 10342.9 6874.7 10342.9 6839.6 10094.9 6840.6"/><polygon class="b" points="10598.3 6836 10598.3 6879.8 10857.6 6877.4 10861.1 7020.2 10918.2 7020.2 10918.2 6847.7 10819.9 6847.8 10820.1 6833.2 10598.3 6836"/><polygon class="b" points="10095.2 6465.7 10092.4 6723.6 10318.8 6723.5 10318.1 6696.7 10121.6 6695.2 10121.2 6534.4 10124.7 6534.4 10124.9 6531.5 10163 6531 10162.6 6517 10166 6516.9 10166 6513 10185.8 6513.1 10185.2 6503.8 10162.7 6495.1 10173.1 6465.7 10095.2 6465.7"/><polygon class="b" points="10260.4 6418.8 10262.3 6503.9 10277.5 6506.5 10277.5 6522.1 10335.6 6523.1 10336.3 6718.8 10514.1 6719.6 10514.1 6682.5 10490.4 6681.7 10486.4 6523.9 10427.9 6513.8 10374.7 6495.4 10326 6453.8 10302.9 6444.9 10302.7 6428.3 10260.4 6418.8"/><polygon class="b" points="10505 6530.3 10504.4 6648.7 10554.1 6648.2 10555.4 6531.1 10505 6530.3"/><path class="b" d="M10344.9,6370.8s-18.9,9.1-18.8,9.4,0,58.9,0,58.9l15.3,7.7,11.9,9.8,18.1,18.7,16,6.6,20.5,6.8,23.5,6.2,40.9,6.3,36.1-2.4,1.4-58.3-159.6,5Z"/><polygon class="b" points="10451.4 6375.2 10486.8 6376.1 10487.1 6345.3 10494.3 6338.3 10572.5 6339.7 10571.3 6374.3 10610.1 6374 10610.1 6363.8 10638.3 6364.1 10639.9 6374 10670.2 6372.8 10670.8 6359.2 10677.7 6350.5 10659.4 6343.8 10616.2 6333.4 10565.5 6329.7 10503.7 6328.9 10451.8 6333.3 10451.4 6375.2"/><polygon class="b" points="10549.2 6500.1 10592.9 6498.4 10656.7 6488.2 10693.3 6474.3 10723.4 6459 10722 6454.4 10668.2 6453.5 10668.4 6436.9 10629.2 6436.9 10628.9 6448.7 10609.8 6449.3 10609.6 6456 10563.7 6455.7 10562.4 6438.1 10548.4 6436.9 10549.2 6500.1"/><path class="b" d="M10727.8,6492l-13-4.8-17.6,13.4-28.3,11.6-37.1,7.5-60.2,4.5-1,159.4-25.3-.6v37.3l185.8.4Zm-154.3,79.4h60l.1-8h30.3l.1,8,54.1.3v13.9l-7.4-5.7-33,.1-12.4,5.6-9.7-14.2-13.4.4-9.8,13.8-14.5-5.9h-44.3Zm145.1,43.4-54.9-.6-.3,17.5,32.2.7,1.1,63.7h-94.5l-.5-64.3,31.7.3-.3-17.8-59.9-.7v-8.3l44.2.2,14.8-5.5,9.7,10.3v21.2l13.5-.1v-20.8l10.5-10.6,11.1,5.2,33.1.3,8.6-5.5-.1,14.8Z"/><polygon class="b" points="11108 6462.8 11108.6 6704.6 11225.1 6704.6 11225.1 6692.6 11186.3 6677.5 11146.7 6624.9 11152.4 6553 11160.7 6532.1 11175.5 6507.9 11193.6 6492.5 11205.2 6462.3 11108 6462.8"/><polygon class="b" points="11303.7 6461.1 11303.7 6479.9 11327 6498 11345.3 6517.5 11358.1 6542.2 11365 6566.9 11364.3 6597.2 11356.6 6627.1 11348.6 6649 11331 6670.4 11310.7 6683.2 11279.7 6688.1 11281.5 6708.2 11392 6705.7 11391.5 6461.1 11303.7 6461.1"/><polygon class="b" points="11038.1 7192.4 11040.5 7310.2 11110.8 7298.3 11191.6 7290.8 11286.6 7290 11349.2 7294.6 11419.7 7312 11458 7319.9 11451.8 7202 11038.1 7192.4"/><polygon class="b" points="11563.5 6450.2 11562.3 6716.1 11707.5 6715.1 11707.5 6451.2 11563.5 6450.2"/><polygon class="b" points="11562.3 6945.4 11562.3 7101.2 11577 7086.1 11597.7 7066 11620.9 7051 11657.7 7034.4 11695.3 7019.4 11730.7 7013.8 11804.6 7017.2 11831.2 7010.8 11859 6998.4 11934.7 6963.2 11934.7 6944.8 11562.3 6945.4"/><polygon class="b" points="11651.4 7165.2 11660.1 7179 11723.7 7191.8 11824.1 7191.8 11822.4 7102.7 11651.4 7165.2"/><polygon class="b" points="12021.8 6836.5 12021.8 6935.3 12095.1 6907.4 12149.1 6845.9 12142.8 6832.1 12021.8 6836.5"/><polygon class="b" points="12585 6430.4 12581.3 6499.8 12595.5 6499.8 12597.4 6486.5 12613.3 6472.6 12799.3 6470.8 12804.9 6481.9 12927.2 6488.8 12948.5 6498.3 12964.3 6519.1 12973.7 6562.3 12982.1 6582.3 13021.1 6565.7 13029.9 6559.6 13039.2 6541.3 13043.3 6451.9 13040.9 6440.7 13036.4 6432.3 13025.8 6430.7 12585 6430.4"/><polygon class="b" points="13056 6642.3 12933.8 6689.4 12875.1 6735.4 13058.3 6733.1 13056 6642.3"/><path class="b" d="M13147.2,6610.8v132.1l349.6-6.4,2.9-116.6-16.9-18.1,1.4-47,16.9-19.6s25.2-1.6,25.4-2.2,0-18.4,0-18.4l263.1,5.9-2.4-65-38.3-10.7-19.5-9.9-14.8-11.7-13.8-14.5Z"/><polygon class="b" points="13524.3 6831.9 13512.9 6849.8 13639.6 6981.8 13768.9 7106.4 13781.9 7094.7 13784.6 6853.7 13761.2 6830.7 13524.3 6831.9"/><polygon class="b" points="13526.5 7042.6 13525.5 7212.5 13709.8 7214.5 13526.5 7042.6"/><polygon class="b" points="12477.8 4981.9 12477 5162 12619.8 5155.9 12616.5 4981.9 12477.8 4981.9"/><polygon class="b" points="12251.7 3443 12250.7 3668.3 12363.5 3670.4 12367.4 3441.4 12251.7 3443"/><polygon class="b" points="12244.1 3736.5 12241.4 4052.7 12847.3 4054.4 12849.2 3735.7 12244.1 3736.5"/><polygon class="b" points="12247.1 4128.7 12245.3 4436.9 12412.5 4437.9 12416.5 4260 12296.6 4258 12294.9 4128.7 12247.1 4128.7"/><polygon class="b" points="12790.5 4119.9 12790.5 4270.4 12673.7 4269.5 12674.5 4442.6 12834.1 4442.6 12835.4 4119.9 12790.5 4119.9"/><polygon class="b" points="12683.6 5282 12691.2 5323.1 12758 5331.4 12758 5368.9 12802 5385.9 12919.4 5332.8 12919.4 5283.2 12683.6 5282"/><polygon class="b" points="12941.5 5432.1 13057.7 5471 13055 5407.3 13007.1 5407.3 12941.5 5432.1"/><polygon class="b" points="13134.3 5211.2 13134.3 5303.1 13447.2 5303.1 13449 5214.2 13134.3 5211.2"/><polygon class="b" points="13115.9 5404 13164.1 5503.3 13187.7 5519.7 13685.2 5699.9 13724.8 5699.9 13742.2 5691.3 13753 5672.9 13751.5 5646.4 13742.9 5647 13743.5 5629.7 13751.5 5629.1 13751.2 5572.6 13760.5 5571.7 13760.5 5523 13752 5522.4 13752.3 5494.1 13760.5 5493.8 13760.5 5438.5 13753 5438.2 13754.8 5405.8 13126.3 5397.1 13115.9 5404"/><polygon class="b" points="13146 5641 13145.9 6511.2 13322.6 6457.5 13313.6 6421.6 13294.8 6347.2 13272.9 6198 13267.8 6084.5 13270.7 6037.8 13280.5 5930.2 13310.5 5814.6 13353.8 5696.4 13259.4 5667.8 13146 5641"/><polygon class="b" points="13657.4 5843 13634.1 5927.7 13619.6 5931.9 13598.7 5946.9 13589.3 5958.6 13584 5976.7 13608.2 5981.4 13607.1 6195 13585 6195 13586.3 6207.9 13595.2 6226.7 13606.3 6240.4 13620.7 6246.9 13638.4 6249.9 13659.3 6305.2 13692.3 6294.9 13694.8 6269.7 13717.3 6231.1 13717.3 6194.4 13711.9 6159.4 13709 6120.7 13708.2 6003.4 13713.7 5975.9 13716.3 5941.1 13710 5905.1 13690.5 5855.5 13657.4 5843"/><polygon class="b" points="13774.3 5234.7 13696.6 5308.8 13779.5 5312.4 13774.3 5234.7"/><polygon class="b" points="13498.2 4539.8 13499.2 4585.6 13548.6 4584.6 13550.3 4842.4 13396 4839.8 13424.3 4876.9 13418.1 4882.2 13394.8 4881.3 13391.7 4926.5 13437.9 4936.2 13439.7 4931.2 13446 4933.8 13445.9 4936.2 13450.5 4936.2 13459.2 4896.1 13473.7 4881.8 13505.4 4871.3 13786.5 4877.1 13784.5 4851.7 13658.6 4804.9 13671.7 4764.7 13649.3 4754.1 13649.6 4543 13498.2 4539.8"/><polygon class="b" points="13869.6 5009.6 13956.3 4933.2 13949.5 4930.6 13889.8 4933 13872.2 4939.2 13863 4944.5 13863 4959 13869.6 5009.6"/><polygon class="b" points="13866.2 5155.6 13867.8 5308.6 14261.8 5313.8 14271.5 5295 14176.1 4947.4 14081.7 4944.9 13866.2 5155.6"/><polygon class="b" points="15553.4 3908.4 15455.4 3984.5 15437.5 4007.1 15427.8 4034.1 15426.1 4060.1 15431.8 4079.9 15459 4105.2 15828.9 4295.7 15824.8 4148 15556.8 4021 15587 3955.2 15587.6 3919.3 15553.4 3908.4"/><path class="b" d="M15384.2,3961.2l-9.6-17.9-21.1-18.2-18.6-7.7-153.7-44.6-153.4-45.4-29.2-3.4-16.8,2.4-20.5,10.4-13.6,15.6-10.7,22.1-2.3,21.8,5.3,32.7,13.8,28.7,25,39.6,33.4,37.7,32.2,25.9,42.6,25,29.4,10.3,27.3,5.5,26.5,1.7,69.4-3.7,31.2-7.4,39.1-15.5,39.2-22.6,16.8-15.3,15-23.8,6.5-16.7Zm-218.2,37.2-4.7,15.8-11.5,8h-14.4l-7.5-5.6-4.5-7-1.7-10v-4.8l3.5-12.3,4.6-10.7,17.7,4.8,22.2,6.9Z"/><polygon class="b" points="14603.8 3743.8 14602.5 4001.6 14797.2 3908.9 14800 3884.3 14771.1 3847.2 14603.8 3743.8"/><polygon class="b" points="14601.9 4110.7 14600.5 4266.7 14849.3 4031.8 14837.6 3999.7 14601.9 4110.7"/><polygon class="b" points="14629 4413.5 14673.1 4466.1 14975.1 4470.2 15038.2 4203.9 15009.2 4189.6 14987.2 4177.5 14959.3 4158.7 14931.5 4131.7 14629 4413.5"/><polygon class="b" points="15124.3 4233.4 15053.3 4451.4 15068.6 4468.5 15247.9 4468.5 15266.3 4450 15267.2 4242.4 15251 4228.6 15201.3 4235 15166.6 4236.9 15124.3 4233.4"/><polygon class="b" points="14165.1 4543.9 14198.1 4661.2 14208.1 4670.3 14323.3 4561.2 14315.8 4546.1 14165.1 4543.9"/><polygon class="b" points="14473.4 4565.8 14235.8 4788 14248.8 4828.6 14470.8 4822.2 14473.4 4565.8"/><polygon class="b" points="14636.7 4553.1 14639.9 4822.8 14866.1 4839.7 14956.3 4547.1 14636.7 4553.1"/><polygon class="b" points="15039.8 4562 14956.3 4811 14975 4829.6 15241.7 4822.5 15268.9 4798.8 15269.6 4568.6 15248.6 4547.3 15056.3 4549.6 15039.8 4562"/><polygon class="b" points="14269.9 4912.6 14372.5 5311.8 14749 5322.8 14867.7 4901.7 14678 4865.9 14674.7 4978.5 14638.1 4982.9 14634.5 5013.2 14485.5 5017.1 14488.2 4979.4 14440.1 4979.8 14443.1 4886.4 14269.9 4912.6"/><polygon class="b" points="13773.9 5778.6 13755.5 5791.4 13747.5 5816.8 13757.9 5841.2 13773.9 5850.9 13790.5 5851.9 13796.7 5849.6 13809.8 5837.7 13816.2 5822.4 13818.3 5811.3 13810.4 5792 13804 5784.7 13788.4 5777 13773.9 5778.6"/><polygon class="b" points="13775.5 6301.9 13757.5 6312.4 13749.6 6332.6 13754.4 6354.2 13759.9 6360.6 13767.7 6366.7 13781.5 6372.3 13799.5 6367.7 13809.7 6361 13815 6351.3 13818.3 6343.3 13816.9 6327.7 13812.1 6316.4 13804.8 6307.8 13796.5 6303.7 13775.5 6301.9"/><polygon class="b" points="13857.7 6531.5 13856.1 6713.6 13865 6733.3 13878.8 6741.8 14181.5 6750.2 14180 6732.8 14167.5 6717.7 14037.8 6674.7 13972.4 6643.8 13931.3 6610.3 13902 6564.2 13897.4 6556.9 13892.1 6550.9 13877.1 6538.3 13857.7 6531.5"/><polygon class="b" points="14210.7 6718 14256.8 6751.8 14335.8 6751.1 14334 6725.4 14247 6724.8 14210.7 6718"/><polygon class="b" points="14368.5 6749.3 14536 6747.3 14557.1 6679.4 14503.6 6699.7 14410 6724.5 14378.9 6728.2 14368.5 6749.3"/><polygon class="b" points="14694.7 6607.8 14663.9 6621.6 14630.8 6648.4 14604 6677.8 14591.4 6694.8 14580.1 6725.1 14577.2 6736.1 14586.2 6745.6 14731.1 6744.6 14742 6731.5 14709.9 6614.9 14694.7 6607.8"/><polygon class="b" points="14761.8 6462.3 14752.5 6512.3 14757.2 6562.2 14874.5 6560.5 14878.1 6552.7 14849.8 6524.3 14817.4 6484.7 14809.6 6462.3 14761.8 6462.3"/><polygon class="b" points="14764.8 6593.8 14766.4 6625.9 14788.7 6710 14805.1 6736 15219.3 6736 15228.6 6714.3 15202 6692.3 15136.1 6648.5 15066.5 6617.4 14999.3 6602.3 14930.4 6595.6 14860.7 6585.2 14792.8 6585.2 14764.8 6593.8"/><polygon class="b" points="15257.9 6535 15167.8 6578.8 15021.3 6576.4 15024.3 6580.5 15138.9 6620.1 15185.5 6647.9 15241.3 6692.2 15259.2 6673.6 15257.9 6535"/><polygon class="b" points="14825.3 6402.2 14853.2 6453.4 14892.1 6497.1 14936.6 6531.6 14979.1 6547.1 15031.7 6555.7 15110.9 6557.2 15166.9 6555.7 15215.6 6537.3 15237.1 6512.3 15239.4 6464.4 15210.7 6386.2 15184.8 6337.1 15145.9 6279.4 15097.5 6238.9 15038.7 6209.8 14976 6198.9 14920.7 6214.8 14883.4 6237.9 14834.6 6329.5 14825.3 6402.2"/><polygon class="b" points="15031.1 6139.7 15030 6163.5 15058.9 6169.6 15115.9 6198.9 15171.5 6240.4 15194.9 6221.8 15214.5 6203.1 15231.4 6174.2 15238.1 6143.6 15031.1 6139.7"/><polygon class="b" points="15259.2 6155.5 15246.7 6195.6 15227.9 6227.3 15202.7 6251.7 15183.7 6265.4 15231.7 6333 15247.9 6364.5 15271.4 6355.4 15271.4 6156.9 15259.2 6155.5"/><polygon class="b" points="13861.3 5406.9 13862.5 5598.1 13876.1 5614 13895.1 5583.4 13936.8 5541.6 13993.2 5500.5 14052.1 5476.6 14137 5451.2 14173.5 5420 14176.6 5411.9 14179.2 5397.1 13861.3 5406.9"/><polygon class="b" points="14211.9 5434.4 14345.5 5425 14345.5 5400.7 14230.8 5404 14211.9 5434.4"/><polygon class="b" points="14387 5405.4 14404.9 5426.5 14471.3 5441.7 14544.8 5469.2 14560.3 5469.7 14534.7 5400.8 14400.8 5400 14387 5405.4"/><polygon class="b" points="14580 5414.5 14582.8 5429.9 14611 5490.4 14629.8 5512.1 14659.9 5533.6 14692.8 5534.3 14706 5496.6 14717.9 5450.6 14712.6 5422 14697.1 5411.2 14580 5414.5"/><polygon class="b" points="14769.6 5546.9 14783.2 5560.6 14948.6 5562.2 15023.5 5542.9 15091.9 5520.8 15155.5 5492.7 15227.8 5436.3 15213 5412 14804.5 5415.7 14775.3 5486.4 14769.6 5546.9"/><polygon class="b" points="15243.6 5462.3 15227.8 5482.9 15162.1 5526.1 15106.2 5547.7 15008.5 5564.6 15007.4 5575.5 15210.8 5579.9 15265.5 5601.9 15267.8 5475.8 15243.6 5462.3"/><polygon class="b" points="14762.5 5587.7 14764.8 5651.7 14781.8 5692.1 14878.1 5597.5 14874.4 5587.7 14762.5 5587.7"/><polygon class="b" points="14830.6 5896.2 14874 5900.9 14876.2 5921.5 14927.1 5918 14927.1 5935.8 14979.6 5949.5 15012.8 5947.4 15061.7 5929.1 15117.8 5895.2 15153 5855.6 15181 5818.5 15209 5766.1 15234.2 5705.7 15241.9 5673.3 15241 5649.7 15232.5 5629.6 15218.8 5613.5 15197.2 5601.9 15172.7 5595.7 15131.7 5589.7 15003.3 5589.7 14947 5593.6 14888.1 5619.3 14833.5 5674.5 14828.4 5711.8 14830.6 5896.2"/><polygon class="b" points="15016.4 5993.1 15016.9 6013.1 15239.7 6009.7 15222.2 5963.9 15212.2 5947.6 15189.7 5920.4 15169.1 5904.3 15136.5 5932.8 15103.4 5956.8 15016.4 5993.1"/><polygon class="b" points="15186.3 5884.9 15218.9 5913.2 15235.7 5934.2 15258 5995.9 15266.3 5996.9 15267.5 5794 15250.7 5785.1 15220.5 5838.6 15186.3 5884.9"/><polygon class="b" points="14704.9 5699.4 14701.3 5600.3 14629.1 5539.6 14553 5499.8 14455.1 5469.7 14333.7 5453.1 14233.5 5461.9 14124.1 5487.3 14000.3 5546.2 13922.4 5616.9 13872.7 5698.6 13861.3 5740.9 13879.8 5784.7 13887.9 5818.2 13880.5 5855.9 13861.3 5879.7 13834.9 5899.1 13796.7 5911.6 13777.7 5971.9 13769.3 6068.9 13771.3 6121 13789.5 6221 13837.3 6230.7 13878.7 6249.5 13895.9 6283.8 13902 6314.8 13898.7 6368.2 13889.7 6394 13881.4 6407.7 13860.4 6417.8 13884.6 6487.1 13894 6499.8 13955 6552.7 14014 6589 14088.2 6626.8 14233.1 6655.2 14278.7 6692.4 14380.4 6693.3 14466.2 6675.2 14574.8 6635.7 14625.8 6599.7 14669.6 6574.9 14692.6 6545.3 14715.9 6499.4 14723.9 6459.5 14697.5 6450.6 14653.8 6450.8 14653.6 6459.9 14426.7 6457.8 14426.6 6474.1 14368.6 6477.6 14367.9 6422.5 14389.7 6420.9 14390.6 6254.8 14358.3 6252.9 14357.5 6188 14275.7 6182.7 14271.9 6225 14203.8 6226.1 14205 6191.6 14191.6 6154.4 14184.8 6115 14184.4 6059.8 14190 6009.4 14204.8 5970.3 14204.5 5938.4 14273.5 5940.4 14267.4 5973.9 14356.8 5972.9 14359.9 5907.4 14385.9 5907 14387.9 5743.4 14365.7 5742.8 14366.9 5684.6 14421.1 5685 14424.3 5704.1 14704.9 5699.4"/><polygon class="b" points="15343.1 5751 15379.5 5754.7 15389.2 5724.8 15411.8 5715.4 15438.7 5715.4 15463.8 5728.8 15469 5753.9 15517.2 5755.4 15520.3 5668.4 15806.2 5672.6 15810.7 5981.2 15515.3 5981.9 15515.2 5887.8 15467 5888.2 15457.5 5920.9 15435.5 5932.4 15395.9 5931.3 15380 5906.2 15340.4 5908 15344.1 6044 15843.2 6037.1 15846.7 5452.8 15834.3 5442 15705.1 5439.1 15692.9 5456 15678.1 5501.2 15650.7 5543.5 15345.6 5717.8 15343.1 5751"/><polygon class="b" points="15341.9 6117.5 15341.9 6160.3 15358.5 6163.9 15399 6186.3 15415.8 6217.6 15425.1 6266.6 15425.1 6608.3 15392.6 6673.7 15339.5 6685.8 15338.3 6731.6 15828.3 6715.1 15833.8 6124.4 15341.9 6117.5"/><polygon class="b" points="12038 2479.1 12034.7 2546.9 12174.6 2546.9 12174.6 2537.6 12038 2479.1"/><polygon class="b" points="12258.7 2478.1 12259.7 2484.2 12423 2559.2 12425.1 2550.8 12386.3 2533 12386.6 2480 12258.7 2478.1"/><polygon class="b" points="10069.1 2560.8 10069.1 2475.7 10238.1 2475.7 10238.1 2484.7 10069.1 2560.8"/><polygon class="b" points="10338.7 2550.2 10336.6 2573.6 10499.6 2573.6 10494 2475.2 10338.7 2550.2"/><polygon class="b" points="11054.5 2157.1 11466.7 2159.1 11463.9 1969.7 11339.1 1967.6 11338.4 1996 11380.7 1999.1 11378.7 2100.6 11324.1 2101.8 11323.5 2141.5 11196.9 2141.5 11197.2 2101.7 11145.2 2100 11145 1998.7 11179.7 1999.2 11179.1 1965.3 11045.8 1967.1 11054.5 2157.1"/><polygon class="b" points="2229.1 5458.1 2215.3 5531.9 2222.2 5540.6 2301.9 5587.2 2317.3 5611 2380.1 5713.1 2394 5732.2 2448 5780.5 2461.6 5798.4 2468.9 5805.1 2563.7 5814.7 2572.7 5825.4 2580.9 5831.3 2602 5836.1 2609.8 5829.5 2617.7 5808.9 2625.8 5761.7 2636.9 5675.8 2641.2 5504.5 2640.2 5474 2635.9 5372.3 2627.7 5340.5 2611.3 5315.1 2580.4 5288.4 2558.9 5277.1 2536.2 5271.7 2499.8 5276.7 2404.5 5307.6 2373.1 5331 2315.2 5364.1 2261.2 5429.8 2229.1 5458.1"/><polygon class="b" points="14244.2 7289.5 14180.8 7525.7 14938.4 7537.2 14870.3 7295 14244.2 7289.5"/><polygon class="b" points="13475.7 6046.5 13476.5 6045.6 13477.3 6046.5 13475.7 6046.5"/><polygon class="b" points="13474.7 6041.3 13472.7 6043.6 13474.7 6043.6 13474.7 6041.3"/><polygon class="b" points="13472.7 6044.1 13474.7 6046.4 13474.7 6044.1 13472.7 6044.1"/><polygon class="b" points="13475.2 6046.4 13475.2 6041.3 13477.4 6043.9 13475.2 6046.4"/><polygon class="b" points="10743 2554.333 10967.667 2554.333 10967.667 2432.667 10940.667 2432.667 10940.667 2401.75 10967.667 2401.75 10967.667 2272.667 10951.667 2272.667 10743 2371.333 10743 2554.333"/><path class="c" d="M7052.4,9112.6l-67.1,49.1-54.4,14.6-87.8-2.1-58.8-24.4-513.3-473-784.8-740.6-825.9-846.8-224.6-240.7-203-267.7-67.5-159-19.9-82.4-2.9-116.3,8-69.6,5.4-29.2,33.1-96.1-137.8-78.2-116.5-86.6-119.1-120.2L3736,5636.9l-35.7-60.4-71-133.9-97.1-3.3.8-22.3-13.5-10.7-8-34.5,2.6-31.8,10.9-32.7-90.1-176.4-62.9,6.9L2617.3,5216l-17.6-23.8,25.1-6.9-3.9-18.1,18.4-1.5-3.4-12.8,21.5-19.9,69.4-12.2,673.9-78.5-127.4-390.6-138.6,13.9-.3-50.5,37-3.6v-19l-78.2,5.6-3.4-67.5,85.7-9.5-1.3-34.2H3134l-1-35.7-12.4,1.5-1.3-22.6,111.6-5.9-2.6-66h-11.9l-1.8-40.7-10.1-.9-1-69.9h21.8v-21.4l-49.2-1.5.3-39.9,29.5,1.8v-22h-28.5l1.3-42.8-24.4-.6,1-41.9,70.4,2.7.8-75.7-10.9-.7,1.4-25.7-116.4-1-.5-28.9,127.6-.1,1.8-109.8-10.1-.3.4,20.8-58.8.3-.8-63.1,58.7-.1-.1,7.1,10.9-.1,3.8-206.7-16.4-.1,2.9-101.1-28.1-.3-1.9,66.2-18.5,1.3,2.2-99.9,51.3,2.1,12-1.6,3.5-140.8-129-156.5-34.1-60.2-3.6-24.7.5-26.3,24.3-22.8,9.1-68.6,3.4-85.8-3.6-48-5.8-46.4-98.6-106.2-64.1-47.3-54-57.6-5.7-5.1-28.5-43.7-7.8-39.1,3.2-46.7,12.8-47.1,24.7-69.2,117.6-205.8,113.6-211.2,127.8-182,15.5-50.3,75.2-50.3L3435,1468.1l85.9-163.8,134.7-302.8,128.6-237.4,45.5-172.9,95.8-210,81.6-133.5L4101.8,147l98-37.6,353.4,5.4,128.1-32.3L4737.5,44,4761.2.8h-50l-7.8,13.4-53.5,39.3-115.5,14-135.4.8-222.6-21L4060.6,83.6,3955.7,189.3,3812.9,448.6l-59.8,133.9-37,133.4-87,232.8-35.8,77.5-85.1,186.7-86,168.2-42.2,74.4-65.8,112-26.3,50.1-15.5,14.9-40.8,13.1-90.1-40.2-1.7,28.1,5.3.3,22.9,11.3,14.1,27.4-.4,49.8-66.2,125.4-114.2,167.9-165.6,268-35.1,79.6-17.5,81.3-.5,61,4.3,22.9,32.5,59.6,23,26.5,92.7,77.8,115.1,123.9,6.9,8.8-24.9,19.8,5.9,8.9,9.2-6.7,13.2,18-7.4,43-28,23.3-13.9,4.2-21.5-1.9-14.1-6.4-22.3,18.4-8.3-10.3,84.9-73.6-7.4-10.3-90.2,73.3-38.5-44.8-37.9,31.1,29.3,37.2-13.6,11.2-207.4-257,12.2-11,70.3,85.2,33.5-30-23.3-29.1-48.8-42.7-84.7-62.4-175.6-82.3-27.3.6-1,13.7-8.4.4v-14.1l-10.2,3.9-9.2.1-.1-9.7-5.3-2.2-.9,8.8-10-.9,2.3-9.8-20.6-6.5-2.7,3.3-7.5-3.9,3.1-4.2-6.7-4.6-6.4,10.9-14.5-2.7-5.6-5.6,9.3-11.3-40.4-37.2-121.2-61-45.8-26.2-64.8-20.7L2027,2325l-11.8-7.4-3.5,1.8-5.6-7.6-12-7.1-9.6,14.4-6.6-7.6,9.7-12.8-10.1-4.3-5.8,6.4-5.8-4.9,3.6-4.5-22-.9-43.4-15.3-11.9-15.6-4.3-32.9-3.4-4.3-1.9,5.5-9.1-1.9,2.2-10.1-6.2-.7-3.4,3-6.1-5.5-35,5.5-92.1-1.1-87.6-21.4-30.8-.6.3-6.9-8,.4-10.6-4.8-5.7-2.7-358.8-90.7-224.2-106.5L934.7,1910l-118.1-17.6L618,1803.1,0,1598.8v963.1L30.6,2577l309.8,167.8,93.2,89.2,83.9,147.5,45.2,1.6,25,29.3,35.3,79.8,20.2,81.5-11.6,120.4,36.3,197.3,136.2,435.3,186.3,474.9,39.9,117.8-16.9,34.3,81.8,91,101.4,261.4,30,178.9-6.4,102.1,25,88.6,573.4-54.7-337.4-717.7-282.1-440.4-69.4-98-37.5-71.4-46.2-66.9,7.8-7.5,5.7-15.5,6.2-6.7,22.4,12.1,17.6,15.9-5-8.3-13.1-35.1-37.8-11.5-17.4-28.2-18.7-46.4-53.3-220.9,1.7-58.5-28-87.7-3.4-68.5,2.9-99.3,28.5-115.4,43.9-77.5,41.8-17.4,204.6,17,74.2,21.8,111.4,1.8,27.8-8.3,166.1-25,83.4,5.4,71.7,18.2,130.7,73.4,43.3,14.1,131.7,7.7,33.7,15.1,70.8,85.9,93.9,155.9,114.5,208.4,43.5,145.4,20.2,234.2,31.1,195.9,10.9,147.3,80.9-1.8,2.4,30.1-80,7.1,4.3,84.9,12.9.8.4-15.1,23.1-.4-.5-14.3,21.1-.6,3.3,54-44.7,4-4.3-13.9-86,6.1-13.8,22.6,1.4,43.8,13.6,14.9,89.1-1.8-.3,41,17.6.4v-29.7l32.1.6.9,73.6-58.4,1,2.6,42.5,30.9.6,1.6,70.8-41.6,1-3.4,97,4.1,105.5-4.5,136.4,5.9,25.6,30.6,18.4,12.3,31.3-18.1,39.5-7.6,5.6-5.2,6.1,5.9,15.9,28.8,5.6,10,27.2-46.4,31.5-163.9,18-7.4,10.7-6.9,3.6-9.9-1.6-5.5-3.8-1.6-5.7-72.2,8.5,11.7,62.7-12.6,17.6-78.4,43.6-40.6,35.7L2031.9,5537h-18.8l-21.9-37.3-32.5-25.6-57.5-28.4-9-70.6-34.7-71.6-586.7,62.7,69.8,270.7,22.1,164,37.8,40.3,41.8,21.4,29.7,127.9-3.6,15.1-27.6,33.3-22.1,77.3,36.1,323.9,30.7,121.6,190.6,339.7,322.4,651.8,60.1,121.5,497.3,1009.9,133.3,236.8,85.8,78.9,168,61.1,374.3-16.5,168.2,41.8,107.7,97.8H3918l-276.4-229.3-58.5-28.4-278,38.7-239.3,40.3-169.9-15.9-93.4-58.7-66.8-89.6-23.3-31.9-146.8-272.5-149.8-379.1L1766.7,6917l-201-321.4-58.2-158.5-4.1-33.1-7.9-23.6-6.7-31.3,4.1-36.1-9.2-54.5,1.9-125.3,20-22.2,5.7-11.9,5.3-20.2,17.3-22,14-9.2,142.8,11.7,200.3,42.8,262.3,96.4,125.9,113.8,120.5,154.3,121.6,166.8,98.1,180.6,165.9,344.2,134.9,311.1,468.1,572.8,839.3,847.7,314.9,294.7H7138.7ZM2651.1,5594.5l-20.4,192.3-14.5,54.7-19.7,2.4-25.6-15.1-60.1-15.9-44.2-1.6-25.9-33.7-53.9-45.6-83.6-134.5-73.2-47.6-14.5-3.2L2212,5536l19.7-89.6,87.4-96,81.9-55.1,20-8.7,70.8-19.4,37.3-7.5h36.6l19,8.7,46.6,47.2,19.3,30.9,3.1,68.6Z"/><polygon class="c" points="1 1331.8 571.8 1427 913.2 1505.6 960 1509.3 960 1538.7 904.5 1538.7 562.5 1466.7 1 1363 1 1331.8"/><polygon class="c" points="967.8 1509.7 1833.6 1507 2142.4 1511.8 2331.9 1517.8 2349.6 1531.7 2425.2 1535.3 2428.5 1523.4 2540.2 1533.7 2547.7 1551.1 2649.6 1560.1 2680.1 1551.1 2800.2 1562.5 2799.3 1580.8 2893.6 1588.4 2921.9 1578.1 2985.6 1581.9 3004.7 1598.4 3133.5 1606.7 3132.4 1633.2 3003.4 1625.3 2985.9 1634.1 2931.4 1635.4 2931.6 1616.4 2756.3 1611.7 2669.4 1594.5 2555.6 1577.1 2387.4 1556.6 2336.9 1552 2329.6 1559.4 1803.5 1545.9 1803.3 1535.3 1471.9 1533.4 1238.5 1532.6 1150.7 1538.6 967.8 1539.3 967.8 1509.7"/><polygon class="c" points="2265.3 5135.5 2264.3 5159.3 2267.7 5169.8 2321.8 5163.6 2314.7 5160.5 2312.8 5155.3 2304.9 5149.9 2305.2 5142.6 2296.4 5131.3 2265.3 5135.5"/><polygon class="c" points="2258.9 5073.6 2260.7 5115.4 2295 5109.5 2293 5068.3 2300.4 5060.5 2298.5 4983.2 2293 4966.9 2279.7 4953.2 2278.4 4943.3 2307.1 4894.5 2297.1 4850.5 2317.8 4841.8 2318.9 4831.3 2315.1 4834.8 2304.2 4836.6 2297.8 4833.7 2291.6 4834.5 2288.9 4823.8 2293.5 4822.5 2299.7 4816.7 2308.6 4812.6 2318.9 4815.7 2312 4776 2279.7 4736.3 2268.2 4692 2201.3 4584.9 2203.8 4564.3 2196.3 4559.4 2197.8 4535 2163 4520.8 2172.7 4493.8 2186.9 4495.2 2201.2 4431.9 2143.3 4402.6 2142.5 4386.5 2122.3 4377.1 2099.4 4345.1 2080.7 4360.4 2085.4 4368 2092.2 4374.3 2104.2 4375.4 2118.1 4389.3 2108.4 4402.9 2059.3 4415.8 2061.1 4432.1 2071.2 4440.6 2077.3 4460 2068.6 4483.4 2109.1 4618.2 2118.4 4636.5 2133.2 4709.1 2146.4 4740.9 2173.5 4788 2183.4 4826.6 2190.3 4873.7 2202.9 4885.7 2222.9 4878.3 2236.5 4859.9 2250 4865.9 2242.8 4877.2 2258 4900.1 2260.1 4912 2255.1 4916 2249 4911.9 2247.1 4900.7 2242.5 4893.8 2236.1 4892.9 2234.4 4899.5 2216.5 4913.9 2238.4 4935.2 2248.3 4953.8 2259 4955.1 2261.2 4952.4 2269.7 4960.2 2270.4 4972 2261.3 4980.7 2260.4 4985.4 2273.1 4993.5 2274.9 5018.7 2258.9 5073.6"/><polygon class="c" points="1097.9 3785.2 1109.4 3817.5 1121.2 3835 1141.1 3846.6 1141.9 3830.5 1135.5 3811.9 1109.3 3788.8 1104.5 3785.7 1097.9 3784.7 1097.9 3785.2"/><polygon class="c" points="2070.1 4342.7 2089.8 4329 2080.8 4314.1 2060.3 4266.7 2070.3 4229.6 2067.3 4227.4 2045.5 4253 2043.8 4280.7 2064.8 4327.2 2070.1 4342.7"/><polygon class="c" points="2088.8 4237.8 2079.7 4265 2099.7 4308.5 2141.7 4278.3 2110.7 4251.5 2088.8 4237.8"/><polygon class="c" points="2106 4317.4 2134.2 4368.3 2163.1 4375.5 2153.5 4303.6 2146.9 4293.9 2132.6 4300.7 2106 4317.4"/><polygon class="c" points="2128.9 4143.5 2109.6 4164.4 2129.7 4207 2132.9 4215.7 2127.2 4231.6 2135.5 4236.8 2143.3 4248.2 2153.7 4240.2 2165.3 4254.2 2174.8 4271.3 2166 4278 2172.9 4289.4 2181.8 4373.8 2202.3 4397.1 2210.9 4401.6 2216.9 4346.2 2213.1 4317.8 2206.1 4306.8 2199.6 4289.6 2201.7 4279 2200.9 4263.6 2191.5 4253 2193 4229.3 2179.8 4218.3 2192.6 4178.6 2196.3 4175.7 2176.2 4159.3 2164.1 4174.2 2157 4178 2150.8 4176.8 2142.6 4161.5 2143.4 4147.5 2128.9 4143.5"/><polygon class="c" points="2487.5 4342.2 2487.5 4357.5 2450.3 4357.5 2450.3 4389.8 2483.2 4389.1 2483.5 4380.3 2495.7 4380 2493.3 4342.2 2487.5 4342.2"/><polygon class="c" points="7171.7 9170.3 7207.3 9120.7 7263.9 9089 7431.4 9062.8 7532.6 9058.8 7605.1 9025.9 7676.6 8947.4 7721.5 8653.9 7782.3 8551.6 7988.4 8478.2 8261.2 8535.7 8318.9 8557.9 8420.8 8571 8487.1 8544.5 8542 8502.4 8591 8440.9 8652.1 8387.8 8716.7 8357.6 8794.4 8346.2 8859.3 8366.8 8989.5 8483 9093.5 8742 9183.6 8960.1 9408.7 9184.6 10462.3 9184.6 10170.5 8901 10114.9 8934.7 10052.8 8934.7 9981.3 8906.5 9959.2 8875.2 9936.7 8863.3 9935.7 8786.8 9981.6 8704.7 9935.3 8633.3 9879.1 8589.3 9700.5 8530.6 9688.1 8571.8 9616.3 8550.8 9627.3 8505.6 9510.9 8439.7 9280.6 8352.1 9270.3 8371.5 9199.1 8355.3 9151.5 8376.7 8979.1 8337.8 8934.6 8311.6 8805.8 8215.7 8794.7 8120.1 8771.3 8053.5 8756.4 8011.4 8698 7904.3 8599.6 7770.3 8512.6 7696.1 8415.9 7645.8 8371.7 7618.4 8270.2 7608.5 8136.5 7613.6 8079.2 7605.3 8021.9 7557.7 7985 7501 7918.3 7292 7863.4 7210.3 7791.6 7132.2 7714.2 7092.9 7686.3 7058.8 7667.3 7011.6 7629.3 7002.5 7083 6998.1 7042.9 7007.6 7035.3 7020.3 6995.3 7045.3 6965.6 7112.3 6924.8 7140.5 6844 7160.7 6479 7165.9 6353.6 7205.5 6232.8 7288.4 6149.2 7388.4 6117.1 7501.4 6124 7607.7 6174.8 7721.1 6309.1 7868.6 6435.1 7951.1 6619.9 8022.9 6726.3 8086.8 6790.1 8128 6880.3 8222.4 6922 8348.9 6955.9 8578.6 7075.4 8840.7 7097.5 8997 7093.3 9059.6 7073.6 9085 7171.7 9170.3"/><polygon class="c" points="7000.1 6783.5 6960.7 6788.9 6934.3 6809.1 6922.9 6839.5 6922.9 6882.3 6933.3 6902.5 6955.5 6921 7082.5 6947.1 7606.6 6942.4 7688 6922.8 7710.3 6912 7721.1 6887.1 7721.1 6847.8 7710.3 6817.5 7668.8 6783.5 7564.7 6745.5 7470.4 6684.2 7353.9 6674.1 7289.6 6674.1 7204.2 6683 7000.1 6783.5"/><polygon class="c" points="5239.9 6179.1 5239.9 6312.4 6784.1 6298.1 6784.1 6308.2 6909.8 6304.9 6909.8 6294.3 6917.7 6294.5 6917.7 6140.9 6908.4 6140.9 6908.5 6128.6 6781.8 6130 6781.6 6140.3 5239.9 6179.1"/><polygon class="c" points="6506.9 5614 6505.1 5649.4 6469.4 5647.3 6368.4 5613.4 6340.7 5611.9 6328.5 5621.4 6324.6 5639.6 6327.7 5659.5 6344 5675.8 6383.4 5695.2 6407.5 5698.5 6401 5791.8 6344.8 5817.7 6306.5 5854 6272.8 5894.5 6237.8 5907 6171 5899.5 6136.8 5872.8 6110.4 5841.8 6099.5 5812.7 6094.6 5775.5 6102.9 5735.3 6119.2 5709.8 6176.2 5666.6 6204.7 5632.4 6246.4 5571.7 6282.4 5549.7 6314.8 5540.8 6352.6 5543.5 6376.4 5554.5 6395.8 5567.3 6443.2 5592.3 6487 5610.7 6506.9 5614"/><polygon class="c" points="6518.3 5613.1 6517.3 5648.9 6547.3 5647.7 6583.6 5636.1 6596.4 5640.7 6607.2 5657.8 6604.5 5670.9 6592 5683.6 6568.8 5693.4 6542.8 5695.5 6489.7 5695.5 6428.1 5700.1 6425.6 5788.9 6442.3 5790.4 6503 5816.8 6604.5 5872.5 6713.9 5892.5 6808.7 5884.5 6876.1 5858.6 6952.6 5788.3 6969 5719.4 6955.8 5643.3 6926.2 5589.7 6866.7 5547.3 6803 5527.1 6759.7 5520.1 6705.8 5522.2 6656.1 5537.7 6623.4 5560.3 6579.1 5596.1 6550.5 5609.5 6518.3 5613.1"/><polygon class="c" points="11241.7 6568.2 11253.3 6566.9 11262.3 6570.5 11268.6 6577.9 11267.8 6590.8 11260.7 6600.8 11250.8 6604.5 11239.1 6600.7 11233.3 6590.8 11232.6 6579.1 11241.7 6568.2"/><rect class="c" x="13574" y="7120.9" width="20.7" height="17.8"/><polygon class="c" points="13689.9 6896.8 13706.7 6896.8 13719.8 6905.4 13726.8 6916.9 13726.1 6931.4 13719.1 6945.7 13707.6 6954.8 13688.3 6954.8 13675.3 6947.8 13670.2 6937.8 13667.2 6924.9 13672.1 6911.2 13679.9 6902.7 13689.9 6896.8"/><polygon class="c" points="13409.6 5757.7 13377.1 5848.6 13360.5 5918 13347.9 6002.8 13342.8 6090.7 13344 6167.6 13352.8 6249.5 13368.5 6344.5 13385.1 6405.8 13634.2 6309.8 13623.3 6272.1 13591.2 6256.1 13572.6 6233.1 13562.7 6201.9 13560.7 6166 13579 6165 13579.5 6083 13499.2 6097 13453.3 6147.6 13450.2 6202.9 13445.7 6219.8 13440.5 6230.1 13434.3 6238 13427.5 6237.8 13421.2 6230.5 13418.2 6218.6 13414.9 6200.7 13416.5 6148 13417.5 6142.4 13379.9 6096.4 13387.7 6074.6 13424.8 6068.5 13426.5 5997.3 13456.5 5999.7 13456.4 6060.3 13490.2 6060.3 13498 6073 13498 6096.2 13509.2 6054.4 13578.6 6057.8 13579.3 6013 13561 6012.6 13562.4 5975.1 13575 5938.8 13595.5 5919.2 13620.2 5906.7 13636.1 5840.8 13409.6 5757.7"/><polygon class="c" points="14558.4 4846.6 14591 4860.2 14599.8 4891.5 14590 4922.4 14560.5 4935.2 14528.6 4920.9 14515.7 4889.4 14527.8 4860.5 14558.4 4846.6"/><polygon class="c" points="14529.6 4567.5 14521.1 4573.2 14519.8 4716.9 14529.6 4725.2 14591.5 4725.2 14601.6 4716.3 14601.6 4575 14592.6 4567 14529.6 4567.5"/><polygon class="c" points="15126.7 3989.1 15136.8 3994.7 15143.2 3994.7 15140.9 4002.2 15143.2 4007.6 15149.6 3995.5 15155.9 3995.4 15166 3998.4 15161.4 4014.1 15149.8 4022.2 15135.5 4022.2 15128 4016.5 15123.4 4009.5 15121.7 3999.6 15126.7 3989.1"/><polygon class="c" points="8020.3 4036 8033.8 4040.5 8044.9 4046.7 8053.2 4057.4 8059.7 4072.6 8059.7 4094.3 8051.1 4111.3 8040 4121.4 8020.3 4126.4 8000.9 4123.8 7988.7 4117.5 7978.4 4106.8 7974.5 4089.8 7975.8 4067.2 7984.6 4050.3 7995.4 4041.7 8008.6 4036 8020.3 4036"/><polygon class="c" points="7756 3792.4 7756 3836.9 7779.4 3836.9 7779.4 3797.2 7783.6 3792.4 7756 3792.4"/><polygon class="c" points="8018.1 3419.8 8027.6 3423.7 8031.4 3433.5 8030.6 3441.6 8023.5 3446.3 8013 3446.3 8006.8 3443 8005.4 3434.6 8008.5 3423.7 8018.1 3419.8"/><polygon class="c" points="2788.7 2756.3 2824.9 2795.7 2788.7 2828.9 2754.3 2785.6 2788.7 2756.3"/><polygon class="c" points="2806.1 2848.7 2842 2816.2 2877.1 2859 2839.1 2891.1 2806.1 2848.7"/><rect class="c" x="3189.9" y="3472.3" width="31.3" height="15.9"/><polygon class="c" points="9174.8 4143.2 9172.1 4192.8 9219.6 4215.5 9220 4143.8 9174.8 4143.2"/><polygon class="c" points="7163.3 4177.5 7103.7 4200.3 7102.7 4205.5 7114.2 4212 7146.6 4210.7 7154 4211.5 7164.9 4211.6 7173.2 4205.6 7175.2 4199.1 7173.7 4180.8 7170.1 4177.9 7163.3 4177.5"/><g class="d"><polygon class="e" points="9708.425 2640.325 9756.618 2640.325 9760.763 2649.76 9774.772 2643.605 9771.19 2635.453 9794.601 2603.774 9820.073 2585.201 9825.925 2585.225 9825.925 2486.325 9993.743 2486.325 10007.005 2501.582 10006.975 2584.7 9994.696 2603.031 9708.425 2730.508 9708.425 2640.325"/><path class="e" d="M9993.686,2486.45l13.164,15.143v83.031l-12.218,18.277L9708.55,2730.315V2640.45h47.987l4.061,9.246.1.229.229-.1,13.78-6.054.229-.1-.1-.229-3.5-7.972,23.344-31.589,25.4-18.529h5.968v-98.9h167.636m.114-.25h-168v98.9H9820l-25.5,18.6-23.453,31.736,3.561,8.1-13.78,6.054-4.127-9.4h-48.4v90.5l286.5-127.6,12.3-18.4v-83.2l-13.3-15.3Z"/><polygon class="e" points="9708.425 2640.325 9756.618 2640.325 9760.763 2649.76 9774.772 2643.605 9771.19 2635.453 9794.601 2603.774 9820.073 2585.201 9825.925 2585.225 9825.925 2486.325 9993.743 2486.325 10007.005 2501.582 10006.975 2584.7 9994.696 2603.031 9708.425 2730.508 9708.425 2640.325"/><path class="f" d="M9993.686,2486.45l13.164,15.143v83.031l-12.218,18.277L9708.55,2730.315V2640.45h47.987l4.061,9.246.1.229.229-.1,13.78-6.054.229-.1-.1-.229-3.5-7.972,23.344-31.589,25.4-18.529h5.968v-98.9h167.636m.114-.25h-168v98.9H9820l-25.5,18.6-23.453,31.736,3.561,8.1-13.78,6.054-4.127-9.4h-48.4v90.5l286.5-127.6,12.3-18.4v-83.2l-13.3-15.3Z"/><path class="f" d="M9993.629,2486.575l13.126,15.1-.03,82.949-12.2,18.208-285.854,127.291v-89.548h47.78l4.079,9.285.1.229.229-.1,14.01-6.154.229-.1-.1-.229-3.524-8.02,23.3-31.531,25.375-18.5,5.769.024h.251v-98.9h167.454m.114-.25H9825.925v98.9l-5.852-.024-25.473,18.573-23.41,31.678,3.582,8.153-14.01,6.154-4.145-9.435h-48.193v90.183L9994.7,2603.031l12.278-18.331.03-83.118-13.262-15.257Z"/><path class="g" d="M9993.686,2486.45l13.164,15.143v83.031l-12.218,18.277L9708.55,2730.315V2640.45h47.987l4.061,9.246.1.229.229-.1,13.78-6.054.229-.1-.1-.229-3.5-7.972,23.344-31.589,25.4-18.529h5.968v-98.9h167.636m.114-.25h-168v98.9H9820l-25.5,18.6-23.453,31.736,3.561,8.1-13.78,6.054-4.127-9.4h-48.4v90.5l286.5-127.6,12.3-18.4v-83.2l-13.3-15.3Z"/></g></svg>