<svg xmlns="http://www.w3.org/2000/svg" viewBox="0 0 5481.196 1973.333"><defs><style>.a{opacity:0.25;}.b{fill:#184654;}.c{fill:#351912;}.d{fill:#22591a;}.e{fill:none;stroke:#351912;stroke-miterlimit:10;stroke-width:0.25px;}</style></defs><title>overground</title><g class="a"><polygon class="b" points="5438.583 1973.083 5438.583 1959.667 5449.967 1959.667 5449.967 1958.275 5448.68 1958.275 5448.68 1948.25 5473.834 1948.25 5480.721 1958.275 5454.792 1958.275 5454.792 1959.667 5462.875 1959.667 5462.875 1973.083 5438.583 1973.083"/><path class="b" d="M13012.061,3945.5l6.714,9.775h-25.816v1.642h8.083v13.167H12977v-13.167h11.384v-1.642h-1.288V3945.5h24.964m.131-.25h-25.346v10.275h1.288v1.142h-11.384v13.667h24.541v-13.667h-8.083v-1.142h26.041l-7.058-10.275Z" transform="translate(-7538.292 -1997.125)"/><path class="b" d="M8053.125,3634.438v-3.156h-1.917v3.156h-15.771v-26.875h5.76v-2h-45.083v2h5.76v26.875H7986.1v-3.156h-2.26v3.156h-44.719v-44.75h27.781v-1.712h-27.781v-23.413h44.719v23.413h-9v1.712h9v5h2.26v-2.937h11.99v-48.625h16.6v-1.75h-16.51v-16.937h41.146v16.938h-16.7v1.75h28.573v2.188h1.917v-2.187h46.125v91.313Zm-1.917-7.406h1.917v-24.406h-1.917v2.938h-5.761v2h5.761Zm-67.365,0h2.26v-19.469h5.761v-2H7986.1v-2.937h-2.26Zm67.365-32.344h1.917v-45.125h-1.917v2.188H8039.24v2.792h11.969v30.708h-8.771v-21.937h-3.2v28.438h11.969Z" transform="translate(-7538.292 -1997.125)"/><path class="b" d="M8039.208,3524.563v16.688h-16.7v2h28.573v2.188h2.167v-2.187h45.875v91.063H8053.25v-3.156h-2.167v3.156h-15.521v-26.625h5.76v-2.25H7995.99v2.25h5.76v26.625h-15.521v-3.156h-2.51v3.156H7939.25v-44.5h27.781v-1.962H7939.25v-23.163h44.469v23.163h-9v1.962h9v5h2.51v-2.937h11.99V3543.25h16.6v-2h-16.51v-16.687h40.9m11.875,27.063h-11.969v3.042h11.969v30.458h-8.521v-21.937h-3.448v28.688h11.969v2.938h2.167v-45.375h-2.167v2.188m0,53.813h-5.761v2.25h5.761v19.469h2.167V3602.5h-2.167v2.938m-67.365,21.719h2.51v-19.469h5.761v-2.25h-5.761V3602.5h-2.51v24.656m55.74-102.844h-41.4V3541.5h16.51v1.5h-16.6v48.625h-11.99v2.938h-2.01v-5h-9V3588.1h9v-23.663H7939V3588.1h27.781v1.462H7939v45h44.969v-3.156h2.01v3.156H8002v-27.125h-5.76v-1.75h44.833v1.75h-5.76v27.125h16.021v-3.156H8053v3.156h46.375V3543H8053v2.188h-1.667V3543H8022.76v-1.5h16.7v-17.187Zm-.094,30.1v-2.542h11.969v-2.187H8053v44.875h-1.667v-2.937h-11.969v-28.187h2.948v21.938h9.021v-30.958Zm6.208,53.021v-1.75h5.761v-2.937H8053v24.156h-1.667v-19.469Zm-61.6,19.469V3602.75h2.01v2.938h5.761v1.75h-5.761v19.469Z" transform="translate(-7538.292 -1997.125)"/><polygon class="b" points="0.25 766.833 0.25 708.917 15.688 708.917 15.688 724.354 9.193 724.354 9.193 715.411 6.744 715.411 6.744 724.604 9 724.604 9 753.078 13.917 758.047 42.583 758.083 51.7 749.061 48.081 732.349 33.045 717.702 28.724 717.667 28.724 716.416 17.333 716.416 17.333 709.922 28.724 709.922 28.724 708.917 38.875 708.917 57.313 726.789 62.019 739.046 62.5 752.713 52.364 764.377 38.781 766.833 0.25 766.833"/><path class="b" d="M7577.065,2706.167l18.413,17.8,4.7,12.212.485,13.568-10.045,11.609-13.535,2.48h-38.417v-57.667h15.188v15.188h-6.244v-8.943h-2.7v9.443h2.256v28.452l.073.073,4.881,4.881.073.073h28.784l.073-.073,8.979-8.938.1-.1-.029-.134-3.6-16.646-.016-.074-.054-.052-15-14.583-.073-.071h-4.211v-1.25H7555.75v-6.244h11.391v-1.005h9.925m.1-.25h-10.276v1.005H7555.5v6.744h11.391v1.25h4.359l15,14.583,3.6,16.646-8.979,8.938H7552.3l-4.881-4.881v-28.6h6.688v-15.687h-15.687v58.167h38.667l13.667-2.5,10.167-11.75-.49-13.708-4.735-12.3-18.525-17.907Zm-32.006,15.688v-8.943h2.2v8.943Z" transform="translate(-7538.292 -1997.125)"/><rect class="b" x="336.833" y="726.9" width="16.35" height="14.6"/><path class="b" d="M7891.35,2724.15v14.35h-16.1v-14.35h16.1m.25-.25H7875v14.85h16.6V2723.9Z" transform="translate(-7538.292 -1997.125)"/><polygon class="b" points="675.083 741.65 675.083 738.875 673.271 738.875 673.271 741.65 652.021 741.65 652.021 736.688 649.883 736.688 649.883 741.65 633.833 741.65 633.833 725 649.883 725 649.883 729.962 652.021 729.962 652.021 725 655.521 725 655.521 723.337 652.021 723.337 652.021 712.063 673.271 712.063 673.271 727.775 675.083 727.775 675.083 725 688.958 725 688.958 741.65 675.083 741.65"/><path class="b" d="M8211.438,2709.313v15.712h2.063v-2.775h13.625v16.4H8213.5v-2.775h-2.062v2.775h-21v-4.962h-2.388v4.962h-15.8v-16.4h15.8v4.962h2.388v-4.962h3.5v-1.913h-3.5v-11.025h21m.25-.25h-21.5v11.525h3.5V2722h-3.5v4.962H8188.3V2722H8172v16.9h16.3v-4.962h1.888v4.962h21.5v-2.775h1.563v2.775h14.125V2722H8213.25v2.775h-1.562v-15.712Z" transform="translate(-7538.292 -1997.125)"/><polygon class="b" points="1650.167 636.35 1650.167 609.8 1653.479 609.8 1653.479 608.538 1638.146 608.538 1638.146 579.184 1640.087 579.184 1640.087 577.75 1638.146 577.75 1638.146 540.25 1664.833 540.25 1664.833 553.771 1666.313 553.771 1666.313 532.25 1689.021 532.25 1689.021 509.462 1782.146 509.462 1782.146 522.875 1786.146 522.875 1786.146 521.5 1783.75 521.5 1783.75 509.462 1801.708 509.462 1801.708 521.5 1792.083 521.5 1792.083 522.875 1801.708 522.875 1801.708 536 1768.146 536 1768.146 553.771 1769.583 553.771 1769.583 537.25 1801.708 537.25 1801.708 580.75 1769.583 580.75 1769.583 564.229 1768.146 564.229 1768.146 582 1801.708 582 1801.708 608.538 1689.021 608.538 1689.021 585.75 1666.313 585.75 1666.313 564.229 1664.833 564.229 1664.833 577.75 1650 577.75 1650 579.184 1651.722 579.184 1651.722 594.962 1664.833 594.962 1664.833 608.538 1657.708 608.538 1657.708 609.8 1669.083 609.8 1669.083 636.35 1650.167 636.35"/><path class="b" d="M9339.875,2506.712V2518.5h-9.625v1.625h9.625V2533h-33.562v18.021H9308V2534.5h31.875v43.25H9308v-16.521h-1.687v18.021h33.563v26.288H9227.438V2582.75h-22.708v-21.521H9203v13.521h-14.833v1.684h1.722v15.778H9203v13.326h-7.125v1.512h11.375v26.3h-18.667v-26.3h3.313v-1.512h-15.333v-29.1h1.941v-1.684h-1.941V2537.5H9203v13.521h1.729V2529.5h22.708v-22.788h92.875v13.413h4.25V2518.5h-2.4v-11.788h17.708m.25-.25h-18.208v12.288h2.4v1.125h-3.75v-13.413h-93.375v22.788h-22.708v21.521h-1.229V2537.25h-26.937V2575h1.941v1.184h-1.941v29.6h15.333v1.012h-3.312v26.8H9207.5v-26.8h-11.375v-1.012h7.125v-13.826h-13.111v-15.778h-1.722V2575h14.833v-13.521h1.229V2583h22.708v22.788h112.938V2579h-33.562v-17.521h1.188V2578h32.375v-43.75H9307.75v16.521h-1.187V2533.25h33.563v-13.375H9330.5v-1.125h9.625v-12.288Z" transform="translate(-7538.292 -1997.125)"/><polygon class="b" points="2171.917 679.469 2184.677 679.469 2184.677 661 2183.021 661 2183.021 677.583 2171.917 677.583 2171.917 644.75 2217.043 644.75 2221.781 655.533 2223.657 654.709 2222.701 652.534 2236.251 646.581 2245.037 666.579 2231.486 672.532 2227.534 663.537 2225.658 664.361 2234.151 683.694 2204.686 696.638 2211.692 712.586 2171.917 730.059 2171.917 679.469"/><path class="b" d="M9755.254,2642l4.654,10.594.1.229.229-.1,1.646-.723.229-.1-.1-.229-.855-1.946,13.323-5.853,8.685,19.768-13.323,5.853-3.852-8.766-.1-.229-.229.1-1.646.724-.229.1.1.229,8.393,19.1-29.236,12.843-.229.1.1.229,6.905,15.719-39.486,17.345v-50.273h12.761V2658h-1.906v16.583h-10.854V2642h44.921m.163-.25h-45.334v33.083h11.354V2658.25h1.406v18.219h-12.761v50.906l40.065-17.6-7.006-15.948,29.465-12.944-8.493-19.333,1.646-.724,3.952,9,13.78-6.054-8.886-20.226-13.78,6.054.956,2.175-1.646.723-4.72-10.744Z" transform="translate(-7538.292 -1997.125)"/><path class="b" d="M11222.125,2084.875V2076h-15.75v-8.327h-9.93v1.608h1.333V2076h-9.41v-50.284h18.007v-28.341h15.5v12.15h80.894v21.85h18.169V2076h-9.41v-6.718h1.334v-1.608h-10.093V2076h-15.588v8.875Zm-.25-16.952h65.556v-47.361h-14.9v1.594h1.279v5.5h-38.187v-5.5h1.441v-1.594h-15.191Z" transform="translate(-7538.292 -1997.125)"/><path class="b" d="M11221.75,1997.5v12.15h80.894v21.85h18.169v44.375h-9.16v-6.468h1.334v-1.858h-10.343v8.327h-15.588v8.875h-64.806v-8.875h-15.75v-8.327h-10.18v1.858h1.333v6.468h-9.16v-50.034h18.007V1997.5h15.25m50.658,24.781h1.279v5.255h-37.937v-5.255h1.441v-1.844h-15.441v47.611h65.806v-47.611h-15.147v1.844M11222,1997.25h-15.75v28.341h-18.007v50.534h9.66v-6.968h-1.333V2067.8h9.68v8.327H11222V2085h65.306v-8.875h15.588V2067.8h9.843v1.358h-1.334v6.968h9.66V2031.25h-18.169V2009.4H11222v-12.15Zm50.658,24.781v-1.344h14.647V2067.8H11222v-47.111h14.941v1.344h-1.441v5.755h38.438v-5.755Z" transform="translate(-7538.292 -1997.125)"/><rect class="b" x="3840.433" y="389.3" width="88.551" height="32.117"/><path class="b" d="M11467.15,2386.55v31.867h-88.3V2386.55h88.3m.25-.25h-88.8v32.367h88.8V2386.3Z" transform="translate(-7538.292 -1997.125)"/><polygon class="b" points="4320.093 463.197 4322.254 458.485 4320.454 457.659 4318.304 462.347 4292.875 450.687 4293.994 448.245 4291.969 447.317 4290.849 449.759 4275.827 442.871 4274.885 444.923 4276.66 445.737 4269.701 460.916 4242.891 448.623 4249.85 433.444 4266.239 440.958 4267.18 438.906 4265.419 438.099 4271.623 424.569 4297.052 436.229 4295.933 438.67 4297.958 439.599 4311.534 409.99 4330.413 418.646 4331.466 416.35 4344.995 422.553 4343.942 424.85 4358.115 431.349 4351.913 444.878 4330.76 435.18 4322.358 453.505 4324.159 454.33 4331.753 437.767 4351.104 446.64 4339.445 472.07 4320.093 463.197"/><path class="b" d="M11849.887,2407.281l18.652,8.552.227.1.1-.227.949-2.07,13.3,6.1-.948,2.07-.1.227.227.1,13.946,6.394-6.1,13.3-20.925-9.595-.227-.1-.1.227-8.3,18.1-.1.227.227.1,1.573.721.227.1.1-.227,7.49-16.336,19.124,8.768-11.555,25.2-19.125-8.769,2.057-4.485.1-.227-.227-.1-1.573-.722-.227-.1-.1.227-2.045,4.46-25.2-11.556,1.015-2.214.1-.227-.227-.1-1.8-.824-.227-.1-.1.227-1.016,2.214-14.8-6.784-.227-.1-.1.227-.837,1.825-.1.227.227.1,1.547.71-6.855,14.951-26.583-12.188,6.855-14.952,16.161,7.411.227.1.1-.227.837-1.826.1-.227-.227-.1-1.533-.7,6.1-13.3,25.2,11.556-1.015,2.214-.1.227.227.1,1.8.824.227.1.1-.227,13.472-29.381m-.123-.331-13.576,29.608-1.8-.824,1.119-2.441-25.657-11.764-6.308,13.757,1.761.807-.837,1.826-16.389-7.515-7.063,15.406,27.037,12.4,7.063-15.406-1.774-.814.837-1.825,15.022,6.888,1.12-2.441,1.8.824-1.119,2.441,25.657,11.764,2.149-4.687,1.573.722-2.161,4.712,19.579,8.977,11.764-25.657-19.578-8.977-7.595,16.563-1.573-.721,8.3-18.1,21.152,9.7,6.307-13.757-14.173-6.5,1.053-2.3-13.756-6.308-1.054,2.3-18.879-8.656Z" transform="translate(-7538.292 -1997.125)"/><polygon class="b" points="4891.142 790.375 4891.142 761.187 4947.375 786.923 4947.375 790.375 4891.142 790.375"/><path class="b" d="M12429.559,2758.507l55.983,25.622v3.246h-55.983v-28.868m-.25-.389v29.508h56.483v-3.657l-56.483-25.851Z" transform="translate(-7538.292 -1997.125)"/><rect class="b" x="4772.034" y="829.5" width="18.8" height="29.85"/><path class="b" d="M12329,2826.75v29.6h-18.55v-29.6H12329m.25-.25h-19.05v30.1h19.05v-30.1Z" transform="translate(-7538.292 -1997.125)"/><polygon class="b" points="5021.526 835.619 5025.737 826.418 5027.98 827.445 5028.533 826.238 5026.29 825.211 5055.833 760.66 5075.514 769.668 5062.561 797.969 5063.923 798.592 5064.349 797.662 5077.427 803.647 5076.776 805.072 5078.275 805.758 5079.555 802.962 5075.212 800.975 5076.005 799.242 5074.54 798.572 5073.747 800.304 5064.977 796.291 5076.876 770.292 5080.664 772.025 5083.806 765.121 5091.229 773.874 5081.599 794.796 5077.191 792.779 5075.914 795.568 5077.379 796.239 5077.938 795.02 5082.28 797.007 5092.448 774.792 5104.724 782.631 5118.88 786.855 5131.079 786.861 5112.708 826.998 5102.15 822.166 5101.667 823.219 5112.226 828.051 5108.804 835.529 5094.042 828.772 5097.464 821.295 5098.665 821.844 5099.147 820.791 5076.202 810.289 5076.901 808.762 5075.402 808.076 5067.417 825.505 5060.733 822.445 5068.012 806.541 5061.625 803.617 5062.097 802.583 5060.735 801.959 5045.97 834.219 5031.942 827.799 5031.389 829.005 5045.417 835.426 5041.207 844.627 5021.526 835.619"/><path class="b" d="M12594.186,2757.951l19.455,8.9-12.849,28.073-.1.227.228.1,1.135.52.228.1.1-.227.322-.7,12.851,5.882-.547,1.2-.1.227.227.1,1.271.582.227.1.1-.227,1.176-2.568.1-.227-.228-.1-4.115-1.883.689-1.506.1-.227-.228-.1-1.238-.566-.228-.1-.1.227-.688,1.505-8.542-3.91,11.8-25.771,3.56,1.629.228.1.1-.228,3.009-6.611,7.244,8.542-9.544,20.737-4.182-1.914-.227-.1-.1.227-1.173,2.562-.1.227.228.1,1.238.567.227.1.1-.227.455-.992,4.115,1.883.227.1.1-.227,10.056-21.97,12.155,7.761.03.019.034.01,14.125,4.21.035.01h12l-18.237,39.846-10.332-4.728-.228-.1-.1.227-.378.826-.1.227.228.1,10.331,4.729-3.318,7.25-14.535-6.652,3.318-7.25.973.445.228.1.1-.227.378-.826.1-.227-.228-.1-22.718-10.4.6-1.3.1-.227-.228-.1-1.271-.582-.227-.1-.1.227-7.88,17.2-6.458-2.956,7.175-15.677.1-.227-.228-.1-6.161-2.82.369-.807.1-.227-.227-.1-1.135-.52-.227-.1-.1.227-14.66,32.032-13.8-6.316-.227-.1-.1.227-.448.979-.1.227.228.1,13.8,6.316-4.107,8.974-19.454-8.9,4.107-8.974,2.016.923.228.1.1-.227.448-.979.1-.227-.228-.1-2.016-.923,29.439-64.324m-.123-.331-29.647,64.778,2.243,1.027-.448.979-2.243-1.027-4.315,9.428,19.908,9.112,4.315-9.428-14.028-6.42.448-.979,14.028,6.42,14.765-32.26,1.135.52-.473,1.034,6.388,2.924-7.279,15.9,6.912,3.164,7.984-17.429,1.271.582-.7,1.527,22.945,10.5-.378.826-1.2-.549-3.526,7.7,14.989,6.86,3.526-7.7-10.559-4.833.378-.826,10.559,4.833,18.5-40.428h-12.356l-14.125-4.21-12.4-7.916-10.176,22.231-4.342-1.987-.559,1.219-1.238-.567,1.173-2.562,4.408,2.018,9.715-21.108-7.6-8.964-3.172,6.97-3.787-1.733-12,26.226,9,4.118.793-1.732,1.238.566-.793,1.733,4.343,1.987-1.176,2.568-1.271-.582.651-1.424-13.306-6.09-.426.931-1.135-.52,12.953-28.3-19.909-9.112Z" transform="translate(-7538.292 -1997.125)"/><polygon class="b" points="4571.833 893.95 4571.833 864.65 4533.683 864.65 4533.683 853.45 4571.833 853.45 4571.833 832.8 4589.784 832.8 4589.784 858.906 4591.333 858.906 4591.333 840.854 4606.677 840.885 4606.677 852.972 4608.234 852.935 4608.234 846.125 4626.683 846.125 4626.683 826.375 4643.774 826.375 4643.774 857.531 4626.433 857.531 4626.433 858.656 4608.234 858.656 4608.234 857.216 4606.677 857.253 4606.677 864.406 4591.333 864.375 4591.333 863.188 4589.784 863.188 4589.784 893.95 4571.833 893.95"/><path class="b" d="M12181.94,2823.625v30.906H12164.6v1.125h-17.949v-1.443l-.256.006-1.307.031-.244.006v7.15l-15.094-.03v-1.188h-1.8v30.763h-17.7v-29.3h-38.15V2850.7h38.15v-20.65h17.7v26.106h1.8V2838.1l15.094.03v12.09l.256-.006,1.307-.031.244-.006v-6.807h18.449v-19.75h16.841m.25-.25h-17.341v19.75H12146.4v6.813l-1.307.031v-12.083l-15.594-.031v18.052h-1.3V2829.8H12110v20.65h-38.15v11.45H12110v29.3h18.2v-30.763h1.3v1.188l15.594.031V2854.5l1.307-.031v1.438h18.449v-1.125h17.341v-31.406Z" transform="translate(-7538.292 -1997.125)"/><path class="b" d="M0,0" transform="translate(-7538.292 -1997.125)"/><path class="b" d="M0,0" transform="translate(-7538.292 -1997.125)"/><path class="b" d="M0,9185.124" transform="translate(-7538.292 -1997.125)"/><path class="b" d="M0,9185.124" transform="translate(-7538.292 -1997.125)"/><path class="b" d="M16376.2,9185.124" transform="translate(-7538.292 -1997.125)"/><path class="b" d="M16376.2,9185.124" transform="translate(-7538.292 -1997.125)"/><path class="b" d="M16376.2,0" transform="translate(-7538.292 -1997.125)"/><path class="b" d="M16376.2,0" transform="translate(-7538.292 -1997.125)"/><path class="b" d="M0,0" transform="translate(-7538.292 -1997.125)"/><path class="b" d="M0,0" transform="translate(-7538.292 -1997.125)"/><path class="b" d="M0,9185.124" transform="translate(-7538.292 -1997.125)"/><path class="b" d="M0,9185.124" transform="translate(-7538.292 -1997.125)"/><path class="b" d="M16376.2,9185.124" transform="translate(-7538.292 -1997.125)"/><path class="b" d="M16376.2,9185.124" transform="translate(-7538.292 -1997.125)"/><path class="b" d="M16376.2,0" transform="translate(-7538.292 -1997.125)"/><path class="b" d="M16376.2,0" transform="translate(-7538.292 -1997.125)"/><path class="b" d="M0,0" transform="translate(-7538.292 -1997.125)"/><path class="b" d="M0,0" transform="translate(-7538.292 -1997.125)"/><path class="b" d="M0,9185.124" transform="translate(-7538.292 -1997.125)"/><path class="b" d="M0,9185.124" transform="translate(-7538.292 -1997.125)"/><path class="b" d="M16376.2,9185.124" transform="translate(-7538.292 -1997.125)"/><path class="b" d="M16376.2,9185.124" transform="translate(-7538.292 -1997.125)"/><path class="b" d="M16376.2,0" transform="translate(-7538.292 -1997.125)"/><path class="b" d="M16376.2,0" transform="translate(-7538.292 -1997.125)"/><g class="a"><polygon class="b" points="5438.583 1973.083 5438.583 1959.667 5449.967 1959.667 5449.967 1958.275 5448.68 1958.275 5448.68 1948.25 5473.834 1948.25 5480.721 1958.275 5454.792 1958.275 5454.792 1959.667 5462.875 1959.667 5462.875 1973.083 5438.583 1973.083"/><path class="c" d="M13012.061,3945.5l6.714,9.775h-25.816v1.642h8.083v13.167H12977v-13.167h11.384v-1.642h-1.288V3945.5h24.964m.131-.25h-25.346v10.275h1.288v1.142h-11.384v13.667h24.541v-13.667h-8.083v-1.142h26.041l-7.058-10.275Z" transform="translate(-7538.292 -1997.125)"/></g><g class="a"><path class="b" d="M8053.125,3634.438v-3.156h-1.917v3.156h-15.771v-26.875h5.76v-2h-45.083v2h5.76v26.875H7986.1v-3.156h-2.26v3.156h-44.719v-44.75h27.781v-1.712h-27.781v-23.413h44.719v23.413h-9v1.712h9v5h2.26v-2.937h11.99v-48.625h16.6v-1.75h-16.51v-16.937h41.146v16.938h-16.7v1.75h28.573v2.188h1.917v-2.187h46.125v91.313Zm-1.917-7.406h1.917v-24.406h-1.917v2.938h-5.761v2h5.761Zm-67.365,0h2.26v-19.469h5.761v-2H7986.1v-2.937h-2.26Zm67.365-32.344h1.917v-45.125h-1.917v2.188H8039.24v2.792h11.969v30.708h-8.771v-21.937h-3.2v28.438h11.969Z" transform="translate(-7538.292 -1997.125)"/><path class="c" d="M8039.208,3524.563v16.688h-16.7v2h28.573v2.188h2.167v-2.187h45.875v91.063H8053.25v-3.156h-2.167v3.156h-15.521v-26.625h5.76v-2.25H7995.99v2.25h5.76v26.625h-15.521v-3.156h-2.51v3.156H7939.25v-44.5h27.781v-1.962H7939.25v-23.163h44.469v23.163h-9v1.962h9v5h2.51v-2.937h11.99V3543.25h16.6v-2h-16.51v-16.687h40.9m11.875,27.063h-11.969v3.042h11.969v30.458h-8.521v-21.937h-3.448v28.688h11.969v2.938h2.167v-45.375h-2.167v2.188m0,53.813h-5.761v2.25h5.761v19.469h2.167V3602.5h-2.167v2.938m-67.365,21.719h2.51v-19.469h5.761v-2.25h-5.761V3602.5h-2.51v24.656m55.74-102.844h-41.4V3541.5h16.51v1.5h-16.6v48.625h-11.99v2.938h-2.01v-5h-9V3588.1h9v-23.663H7939V3588.1h27.781v1.462H7939v45h44.969v-3.156h2.01v3.156H8002v-27.125h-5.76v-1.75h44.833v1.75h-5.76v27.125h16.021v-3.156H8053v3.156h46.375V3543H8053v2.188h-1.667V3543H8022.76v-1.5h16.7v-17.187Zm-.094,30.1v-2.542h11.969v-2.187H8053v44.875h-1.667v-2.937h-11.969v-28.187h2.948v21.938h9.021v-30.958Zm6.208,53.021v-1.75h5.761v-2.937H8053v24.156h-1.667v-19.469Zm-61.6,19.469V3602.75h2.01v2.938h5.761v1.75h-5.761v19.469Z" transform="translate(-7538.292 -1997.125)"/></g><g class="a"><polygon class="b" points="0.25 766.833 0.25 708.917 15.688 708.917 15.688 724.354 9.193 724.354 9.193 715.411 6.744 715.411 6.744 724.604 9 724.604 9 753.078 13.917 758.047 42.583 758.083 51.7 749.061 48.081 732.349 33.045 717.702 28.724 717.667 28.724 716.416 17.333 716.416 17.333 709.922 28.724 709.922 28.724 708.917 38.875 708.917 57.313 726.789 62.019 739.046 62.5 752.713 52.364 764.377 38.781 766.833 0.25 766.833"/><path class="c" d="M7577.065,2706.167l18.413,17.8,4.7,12.212.485,13.568-10.045,11.609-13.535,2.48h-38.417v-57.667h15.188v15.188h-6.244v-8.943h-2.7v9.443h2.256v28.452l.073.073,4.881,4.881.073.073h28.784l.073-.073,8.979-8.938.1-.1-.029-.134-3.6-16.646-.016-.074-.054-.052-15-14.583-.073-.071h-4.211v-1.25H7555.75v-6.244h11.391v-1.005h9.925m.1-.25h-10.276v1.005H7555.5v6.744h11.391v1.25h4.359l15,14.583,3.6,16.646-8.979,8.938H7552.3l-4.881-4.881v-28.6h6.688v-15.687h-15.687v58.167h38.667l13.667-2.5,10.167-11.75-.49-13.708-4.735-12.3-18.525-17.907Zm-32.006,15.688v-8.943h2.2v8.943Z" transform="translate(-7538.292 -1997.125)"/></g><g class="a"><rect class="b" x="336.833" y="726.9" width="16.35" height="14.6"/><path class="c" d="M7891.35,2724.15v14.35h-16.1v-14.35h16.1m.25-.25H7875v14.85h16.6V2723.9Z" transform="translate(-7538.292 -1997.125)"/></g><g class="a"><polygon class="b" points="675.083 741.65 675.083 738.875 673.271 738.875 673.271 741.65 652.021 741.65 652.021 736.688 649.883 736.688 649.883 741.65 633.833 741.65 633.833 725 649.883 725 649.883 729.962 652.021 729.962 652.021 725 655.521 725 655.521 723.337 652.021 723.337 652.021 712.063 673.271 712.063 673.271 727.775 675.083 727.775 675.083 725 688.958 725 688.958 741.65 675.083 741.65"/><path class="c" d="M8211.438,2709.313v15.712h2.063v-2.775h13.625v16.4H8213.5v-2.775h-2.062v2.775h-21v-4.962h-2.388v4.962h-15.8v-16.4h15.8v4.962h2.388v-4.962h3.5v-1.913h-3.5v-11.025h21m.25-.25h-21.5v11.525h3.5V2722h-3.5v4.962H8188.3V2722H8172v16.9h16.3v-4.962h1.888v4.962h21.5v-2.775h1.563v2.775h14.125V2722H8213.25v2.775h-1.562v-15.712Z" transform="translate(-7538.292 -1997.125)"/></g><g class="a"><polygon class="b" points="1650.167 636.35 1650.167 609.8 1653.479 609.8 1653.479 608.538 1638.146 608.538 1638.146 579.184 1640.087 579.184 1640.087 577.75 1638.146 577.75 1638.146 540.25 1664.833 540.25 1664.833 553.771 1666.313 553.771 1666.313 532.25 1689.021 532.25 1689.021 509.462 1782.146 509.462 1782.146 522.875 1786.146 522.875 1786.146 521.5 1783.75 521.5 1783.75 509.462 1801.708 509.462 1801.708 521.5 1792.083 521.5 1792.083 522.875 1801.708 522.875 1801.708 536 1768.146 536 1768.146 553.771 1769.583 553.771 1769.583 537.25 1801.708 537.25 1801.708 580.75 1769.583 580.75 1769.583 564.229 1768.146 564.229 1768.146 582 1801.708 582 1801.708 608.538 1689.021 608.538 1689.021 585.75 1666.313 585.75 1666.313 564.229 1664.833 564.229 1664.833 577.75 1650 577.75 1650 579.184 1651.722 579.184 1651.722 594.962 1664.833 594.962 1664.833 608.538 1657.708 608.538 1657.708 609.8 1669.083 609.8 1669.083 636.35 1650.167 636.35"/><path class="c" d="M9339.875,2506.712V2518.5h-9.625v1.625h9.625V2533h-33.562v18.021H9308V2534.5h31.875v43.25H9308v-16.521h-1.687v18.021h33.563v26.288H9227.438V2582.75h-22.708v-21.521H9203v13.521h-14.833v1.684h1.722v15.778H9203v13.326h-7.125v1.512h11.375v26.3h-18.667v-26.3h3.313v-1.512h-15.333v-29.1h1.941v-1.684h-1.941V2537.5H9203v13.521h1.729V2529.5h22.708v-22.788h92.875v13.413h4.25V2518.5h-2.4v-11.788h17.708m.25-.25h-18.208v12.288h2.4v1.125h-3.75v-13.413h-93.375v22.788h-22.708v21.521h-1.229V2537.25h-26.937V2575h1.941v1.184h-1.941v29.6h15.333v1.012h-3.312v26.8H9207.5v-26.8h-11.375v-1.012h7.125v-13.826h-13.111v-15.778h-1.722V2575h14.833v-13.521h1.229V2583h22.708v22.788h112.938V2579h-33.562v-17.521h1.188V2578h32.375v-43.75H9307.75v16.521h-1.187V2533.25h33.563v-13.375H9330.5v-1.125h9.625v-12.288Z" transform="translate(-7538.292 -1997.125)"/></g><g class="a"><polygon class="b" points="2171.917 679.469 2184.677 679.469 2184.677 661 2183.021 661 2183.021 677.583 2171.917 677.583 2171.917 644.75 2217.043 644.75 2221.781 655.533 2223.657 654.709 2222.701 652.534 2236.251 646.581 2245.037 666.579 2231.486 672.532 2227.534 663.537 2225.658 664.361 2234.151 683.694 2204.686 696.638 2211.692 712.586 2171.917 730.059 2171.917 679.469"/><path class="c" d="M9755.254,2642l4.654,10.594.1.229.229-.1,1.646-.723.229-.1-.1-.229-.855-1.946,13.323-5.853,8.685,19.768-13.323,5.853-3.852-8.766-.1-.229-.229.1-1.646.724-.229.1.1.229,8.393,19.1-29.236,12.843-.229.1.1.229,6.905,15.719-39.486,17.345v-50.273h12.761V2658h-1.906v16.583h-10.854V2642h44.921m.163-.25h-45.334v33.083h11.354V2658.25h1.406v18.219h-12.761v50.906l40.065-17.6-7.006-15.948,29.465-12.944-8.493-19.333,1.646-.724,3.952,9,13.78-6.054-8.886-20.226-13.78,6.054.956,2.175-1.646.723-4.72-10.744Z" transform="translate(-7538.292 -1997.125)"/></g><g class="a"><path class="b" d="M11222.125,2084.875V2076h-15.75v-8.327h-9.93v1.608h1.333V2076h-9.41v-50.284h18.007v-28.341h15.5v12.15h80.894v21.85h18.169V2076h-9.41v-6.718h1.334v-1.608h-10.093V2076h-15.588v8.875Zm-.25-16.952h65.556v-47.361h-14.9v1.594h1.279v5.5h-38.187v-5.5h1.441v-1.594h-15.191Z" transform="translate(-7538.292 -1997.125)"/><path class="c" d="M11221.75,1997.5v12.15h80.894v21.85h18.169v44.375h-9.16v-6.468h1.334v-1.858h-10.343v8.327h-15.588v8.875h-64.806v-8.875h-15.75v-8.327h-10.18v1.858h1.333v6.468h-9.16v-50.034h18.007V1997.5h15.25m50.658,24.781h1.279v5.255h-37.937v-5.255h1.441v-1.844h-15.441v47.611h65.806v-47.611h-15.147v1.844M11222,1997.25h-15.75v28.341h-18.007v50.534h9.66v-6.968h-1.333V2067.8h9.68v8.327H11222V2085h65.306v-8.875h15.588V2067.8h9.843v1.358h-1.334v6.968h9.66V2031.25h-18.169V2009.4H11222v-12.15Zm50.658,24.781v-1.344h14.647V2067.8H11222v-47.111h14.941v1.344h-1.441v5.755h38.438v-5.755Z" transform="translate(-7538.292 -1997.125)"/></g><g class="a"><rect class="b" x="3840.433" y="389.3" width="88.551" height="32.117"/><path class="c" d="M11467.15,2386.55v31.867h-88.3V2386.55h88.3m.25-.25h-88.8v32.367h88.8V2386.3Z" transform="translate(-7538.292 -1997.125)"/></g><g class="a"><polygon class="b" points="4320.093 463.197 4322.254 458.485 4320.454 457.659 4318.304 462.347 4292.875 450.687 4293.994 448.245 4291.969 447.317 4290.849 449.759 4275.827 442.871 4274.885 444.923 4276.66 445.737 4269.701 460.916 4242.891 448.623 4249.85 433.444 4266.239 440.958 4267.18 438.906 4265.419 438.099 4271.623 424.569 4297.052 436.229 4295.933 438.67 4297.958 439.599 4311.534 409.99 4330.413 418.646 4331.466 416.35 4344.995 422.553 4343.942 424.85 4358.115 431.349 4351.913 444.878 4330.76 435.18 4322.358 453.505 4324.159 454.33 4331.753 437.767 4351.104 446.64 4339.445 472.07 4320.093 463.197"/><path class="c" d="M11849.887,2407.281l18.652,8.552.227.1.1-.227.949-2.07,13.3,6.1-.948,2.07-.1.227.227.1,13.946,6.394-6.1,13.3-20.925-9.595-.227-.1-.1.227-8.3,18.1-.1.227.227.1,1.573.721.227.1.1-.227,7.49-16.336,19.124,8.768-11.555,25.2-19.125-8.769,2.057-4.485.1-.227-.227-.1-1.573-.722-.227-.1-.1.227-2.045,4.46-25.2-11.556,1.015-2.214.1-.227-.227-.1-1.8-.824-.227-.1-.1.227-1.016,2.214-14.8-6.784-.227-.1-.1.227-.837,1.825-.1.227.227.1,1.547.71-6.855,14.951-26.583-12.188,6.855-14.952,16.161,7.411.227.1.1-.227.837-1.826.1-.227-.227-.1-1.533-.7,6.1-13.3,25.2,11.556-1.015,2.214-.1.227.227.1,1.8.824.227.1.1-.227,13.472-29.381m-.123-.331-13.576,29.608-1.8-.824,1.119-2.441-25.657-11.764-6.308,13.757,1.761.807-.837,1.826-16.389-7.515-7.063,15.406,27.037,12.4,7.063-15.406-1.774-.814.837-1.825,15.022,6.888,1.12-2.441,1.8.824-1.119,2.441,25.657,11.764,2.149-4.687,1.573.722-2.161,4.712,19.579,8.977,11.764-25.657-19.578-8.977-7.595,16.563-1.573-.721,8.3-18.1,21.152,9.7,6.307-13.757-14.173-6.5,1.053-2.3-13.756-6.308-1.054,2.3-18.879-8.656Z" transform="translate(-7538.292 -1997.125)"/></g><g class="a"><polygon class="b" points="4891.142 790.375 4891.142 761.187 4947.375 786.923 4947.375 790.375 4891.142 790.375"/><path class="c" d="M12429.559,2758.507l55.983,25.622v3.246h-55.983v-28.868m-.25-.389v29.508h56.483v-3.657l-56.483-25.851Z" transform="translate(-7538.292 -1997.125)"/></g><g class="a"><rect class="b" x="4772.034" y="829.5" width="18.8" height="29.85"/><path class="c" d="M12329,2826.75v29.6h-18.55v-29.6H12329m.25-.25h-19.05v30.1h19.05v-30.1Z" transform="translate(-7538.292 -1997.125)"/></g><g class="a"><polygon class="b" points="5021.526 835.619 5025.737 826.418 5027.98 827.445 5028.533 826.238 5026.29 825.211 5055.833 760.66 5075.514 769.668 5062.561 797.969 5063.923 798.592 5064.349 797.662 5077.427 803.647 5076.776 805.072 5078.275 805.758 5079.555 802.962 5075.212 800.975 5076.005 799.242 5074.54 798.572 5073.747 800.304 5064.977 796.291 5076.876 770.292 5080.664 772.025 5083.806 765.121 5091.229 773.874 5081.599 794.796 5077.191 792.779 5075.914 795.568 5077.379 796.239 5077.938 795.02 5082.28 797.007 5092.448 774.792 5104.724 782.631 5118.88 786.855 5131.079 786.861 5112.708 826.998 5102.15 822.166 5101.667 823.219 5112.226 828.051 5108.804 835.529 5094.042 828.772 5097.464 821.295 5098.665 821.844 5099.147 820.791 5076.202 810.289 5076.901 808.762 5075.402 808.076 5067.417 825.505 5060.733 822.445 5068.012 806.541 5061.625 803.617 5062.097 802.583 5060.735 801.959 5045.97 834.219 5031.942 827.799 5031.389 829.005 5045.417 835.426 5041.207 844.627 5021.526 835.619"/><path class="c" d="M12594.186,2757.951l19.455,8.9-12.849,28.073-.1.227.228.1,1.135.52.228.1.1-.227.322-.7,12.851,5.882-.547,1.2-.1.227.227.1,1.271.582.227.1.1-.227,1.176-2.568.1-.227-.228-.1-4.115-1.883.689-1.506.1-.227-.228-.1-1.238-.566-.228-.1-.1.227-.688,1.505-8.542-3.91,11.8-25.771,3.56,1.629.228.1.1-.228,3.009-6.611,7.244,8.542-9.544,20.737-4.182-1.914-.227-.1-.1.227-1.173,2.562-.1.227.228.1,1.238.567.227.1.1-.227.455-.992,4.115,1.883.227.1.1-.227,10.056-21.97,12.155,7.761.03.019.034.01,14.125,4.21.035.01h12l-18.237,39.846-10.332-4.728-.228-.1-.1.227-.378.826-.1.227.228.1,10.331,4.729-3.318,7.25-14.535-6.652,3.318-7.25.973.445.228.1.1-.227.378-.826.1-.227-.228-.1-22.718-10.4.6-1.3.1-.227-.228-.1-1.271-.582-.227-.1-.1.227-7.88,17.2-6.458-2.956,7.175-15.677.1-.227-.228-.1-6.161-2.82.369-.807.1-.227-.227-.1-1.135-.52-.227-.1-.1.227-14.66,32.032-13.8-6.316-.227-.1-.1.227-.448.979-.1.227.228.1,13.8,6.316-4.107,8.974-19.454-8.9,4.107-8.974,2.016.923.228.1.1-.227.448-.979.1-.227-.228-.1-2.016-.923,29.439-64.324m-.123-.331-29.647,64.778,2.243,1.027-.448.979-2.243-1.027-4.315,9.428,19.908,9.112,4.315-9.428-14.028-6.42.448-.979,14.028,6.42,14.765-32.26,1.135.52-.473,1.034,6.388,2.924-7.279,15.9,6.912,3.164,7.984-17.429,1.271.582-.7,1.527,22.945,10.5-.378.826-1.2-.549-3.526,7.7,14.989,6.86,3.526-7.7-10.559-4.833.378-.826,10.559,4.833,18.5-40.428h-12.356l-14.125-4.21-12.4-7.916-10.176,22.231-4.342-1.987-.559,1.219-1.238-.567,1.173-2.562,4.408,2.018,9.715-21.108-7.6-8.964-3.172,6.97-3.787-1.733-12,26.226,9,4.118.793-1.732,1.238.566-.793,1.733,4.343,1.987-1.176,2.568-1.271-.582.651-1.424-13.306-6.09-.426.931-1.135-.52,12.953-28.3-19.909-9.112Z" transform="translate(-7538.292 -1997.125)"/></g><g class="a"><polygon class="b" points="4571.833 893.95 4571.833 864.65 4533.683 864.65 4533.683 853.45 4571.833 853.45 4571.833 832.8 4589.784 832.8 4589.784 858.906 4591.333 858.906 4591.333 840.854 4606.677 840.885 4606.677 852.972 4608.234 852.935 4608.234 846.125 4626.683 846.125 4626.683 826.375 4643.774 826.375 4643.774 857.531 4626.433 857.531 4626.433 858.656 4608.234 858.656 4608.234 857.216 4606.677 857.253 4606.677 864.406 4591.333 864.375 4591.333 863.188 4589.784 863.188 4589.784 893.95 4571.833 893.95"/><path class="c" d="M12181.94,2823.625v30.906H12164.6v1.125h-17.949v-1.443l-.256.006-1.307.031-.244.006v7.15l-15.094-.03v-1.188h-1.8v30.763h-17.7v-29.3h-38.15V2850.7h38.15v-20.65h17.7v26.106h1.8V2838.1l15.094.03v12.09l.256-.006,1.307-.031.244-.006v-6.807h18.449v-19.75h16.841m.25-.25h-17.341v19.75H12146.4v6.813l-1.307.031v-12.083l-15.594-.031v18.052h-1.3V2829.8H12110v20.65h-38.15v11.45H12110v29.3h18.2v-30.763h1.3v1.188l15.594.031V2854.5l1.307-.031v1.438h18.449v-1.125h17.341v-31.406Z" transform="translate(-7538.292 -1997.125)"/></g><g class="a"><path class="d" d="M0,0" transform="translate(-7538.292 -1997.125)"/><path class="d" d="M0,0" transform="translate(-7538.292 -1997.125)"/><path class="d" d="M0,9185.124" transform="translate(-7538.292 -1997.125)"/><path class="d" d="M0,9185.124" transform="translate(-7538.292 -1997.125)"/><path class="d" d="M16376.2,9185.124" transform="translate(-7538.292 -1997.125)"/><path class="d" d="M16376.2,9185.124" transform="translate(-7538.292 -1997.125)"/><path class="d" d="M16376.2,0" transform="translate(-7538.292 -1997.125)"/><path class="d" d="M16376.2,0" transform="translate(-7538.292 -1997.125)"/><path class="e" d="M0,0" transform="translate(-7538.292 -1997.125)"/><path class="e" d="M0,0" transform="translate(-7538.292 -1997.125)"/><path class="e" d="M0,9185.124" transform="translate(-7538.292 -1997.125)"/><path class="e" d="M0,9185.124" transform="translate(-7538.292 -1997.125)"/><path class="e" d="M16376.2,9185.124" transform="translate(-7538.292 -1997.125)"/><path class="e" d="M16376.2,9185.124" transform="translate(-7538.292 -1997.125)"/><path class="e" d="M16376.2,0" transform="translate(-7538.292 -1997.125)"/><path class="e" d="M16376.2,0" transform="translate(-7538.292 -1997.125)"/></g><g class="a"><path class="c" d="M13011.995,3945.625l6.543,9.525h-25.7v1.892h8.084v12.917h-23.792v-12.917h11.384v-1.892h-1.287v-9.525h24.773m.131-.25h-25.154V3955.4h1.287v1.392h-11.384v13.417h24.292v-13.417h-8.084V3955.4h25.93l-6.887-10.025Z" transform="translate(-7538.292 -1997.125)"/><path class="e" d="M13012.061,3945.5l6.714,9.775h-25.816v1.642h8.083v13.167H12977v-13.167h11.384v-1.642h-1.288V3945.5h24.964m.131-.25h-25.346v10.275h1.288v1.142h-11.384v13.667h24.541v-13.667h-8.083v-1.142h26.041l-7.058-10.275Z" transform="translate(-7538.292 -1997.125)"/></g><g class="a"><path class="c" d="M8039.083,3524.688v16.438h-16.7v2.25h28.573v2.188h2.417v-2.187H8099v90.813h-45.625v-3.156h-2.417v3.156h-15.271v-26.375h5.76v-2.5h-45.583v2.5h5.76v26.375h-15.271v-3.156h-2.76v3.156h-44.219v-44.25h27.781v-2.212h-27.781v-22.913h44.219v22.913h-9v2.212h9v5h2.76V3592h11.99v-48.625h16.6v-2.25h-16.51v-16.437h40.646m11.875,26.813H8038.99v3.292h11.969V3585h-8.271v-21.937h-3.7V3592h11.969v2.938h2.417v-45.625h-2.417v2.188m0,53.813H8045.2v2.5h5.761v19.469h2.417v-24.906h-2.417v2.938m-67.365,21.969h2.76v-19.469h5.761v-2.5h-5.761v-2.937h-2.76v24.906m55.74-102.844h-41.146v16.938h16.51v1.75h-16.6v48.625H7986.1v2.938h-2.26v-5h-9v-1.712h9v-23.413h-44.719v23.413h27.781v1.712h-27.781v44.75h44.719v-3.156h2.26v3.156h15.771v-26.875h-5.76v-2H8041.2v2h-5.76v26.875h15.771v-3.156h1.917v3.156h46.125v-91.312h-46.125v2.188h-1.917v-2.187h-28.573v-1.75h16.7v-16.937Zm-.094,30.1v-2.792h11.969v-2.187h1.917v45.125h-1.917v-2.937H8039.24v-28.437h3.2v21.938h8.771v-30.708Zm6.208,53.021v-2h5.761v-2.937h1.917v24.406h-1.917v-19.469Zm-61.6,19.469v-24.406h2.26v2.938h5.761v2H7986.1v19.469Z" transform="translate(-7538.292 -1997.125)"/><path class="e" d="M8039.208,3524.563v16.688h-16.7v2h28.573v2.188h2.167v-2.187h45.875v91.063H8053.25v-3.156h-2.167v3.156h-15.521v-26.625h5.76v-2.25H7995.99v2.25h5.76v26.625h-15.521v-3.156h-2.51v3.156H7939.25v-44.5h27.781v-1.962H7939.25v-23.163h44.469v23.163h-9v1.962h9v5h2.51v-2.937h11.99V3543.25h16.6v-2h-16.51v-16.687h40.9m11.875,27.063h-11.969v3.042h11.969v30.458h-8.521v-21.937h-3.448v28.688h11.969v2.938h2.167v-45.375h-2.167v2.188m0,53.813h-5.761v2.25h5.761v19.469h2.167V3602.5h-2.167v2.938m-67.365,21.719h2.51v-19.469h5.761v-2.25h-5.761V3602.5h-2.51v24.656m55.74-102.844h-41.4V3541.5h16.51v1.5h-16.6v48.625h-11.99v2.938h-2.01v-5h-9V3588.1h9v-23.663H7939V3588.1h27.781v1.462H7939v45h44.969v-3.156h2.01v3.156H8002v-27.125h-5.76v-1.75h44.833v1.75h-5.76v27.125h16.021v-3.156H8053v3.156h46.375V3543H8053v2.188h-1.667V3543H8022.76v-1.5h16.7v-17.187Zm-.094,30.1v-2.542h11.969v-2.187H8053v44.875h-1.667v-2.937h-11.969v-28.187h2.948v21.938h9.021v-30.958Zm6.208,53.021v-1.75h5.761v-2.937H8053v24.156h-1.667v-19.469Zm-61.6,19.469V3602.75h2.01v2.938h5.761v1.75h-5.761v19.469Z" transform="translate(-7538.292 -1997.125)"/></g><g class="a"><path class="c" d="M7577.065,2706.292l18.326,17.763,4.671,12.167.477,13.527-10.014,11.523-13.452,2.437h-38.281v-57.417h14.938v14.938h-5.994v-8.943h-2.949v9.693h2.256v28.326l.072.073,4.917,4.969.073.074h.1l28.666.037h.1l.073-.072,9.116-9.022.1-.1-.029-.134-3.619-16.712-.016-.074-.054-.053-15.035-14.647-.072-.07h-.1l-4.073-.032v-1.253h-11.391V2707.3h11.391v-1.005h9.8m.1-.25h-10.151v1.005h-11.391v6.494h11.391v1.251l4.321.034,15.035,14.647,3.619,16.712-9.116,9.022-28.666-.037-4.917-4.969v-28.474h-2.256v-9.193h2.449v8.943h6.494v-15.437h-15.437v57.917h38.531l13.583-2.457,10.136-11.664-.481-13.667-4.706-12.257-18.438-17.872Z" transform="translate(-7538.292 -1997.125)"/><path class="e" d="M7577.065,2706.167l18.413,17.8,4.7,12.212.485,13.568-10.045,11.609-13.535,2.48h-38.417v-57.667h15.188v15.188h-6.244v-8.943h-2.7v9.443h2.256v28.452l.073.073,4.881,4.881.073.073h28.784l.073-.073,8.979-8.938.1-.1-.029-.134-3.6-16.646-.016-.074-.054-.052-15-14.583-.073-.071h-4.211v-1.25H7555.75v-6.244h11.391v-1.005h9.925m.1-.25h-10.276v1.005H7555.5v6.744h11.391v1.25h4.359l15,14.583,3.6,16.646-8.979,8.938H7552.3l-4.881-4.881v-28.6h6.688v-15.687h-15.687v58.167h38.667l13.667-2.5,10.167-11.75-.49-13.708-4.735-12.3-18.525-17.907Zm-32.006,15.688v-8.943h2.2v8.943Z" transform="translate(-7538.292 -1997.125)"/></g><g class="a"><path class="c" d="M7891.225,2724.275v14.1h-15.85v-14.1h15.85m.25-.25h-16.35v14.6h16.35v-14.6Z" transform="translate(-7538.292 -1997.125)"/><path class="e" d="M7891.35,2724.15v14.35h-16.1v-14.35h16.1m.25-.25H7875v14.85h16.6V2723.9Z" transform="translate(-7538.292 -1997.125)"/></g><g class="a"><path class="c" d="M8211.313,2709.438v15.712h2.313v-2.775H8227v16.15h-13.375v-2.775h-2.312v2.775h-20.75v-4.962h-2.638v4.962h-15.55v-16.15h15.55v4.962h2.638v-4.962h3.5v-2.163h-3.5v-10.775h20.75m.25-.25h-21.25v11.275h3.5v1.663h-3.5v4.962h-2.138v-4.962h-16.05v16.65h16.05v-4.962h2.138v4.962h21.25V2736h1.813v2.775h13.875v-16.65h-13.875v2.775h-1.812v-15.712Z" transform="translate(-7538.292 -1997.125)"/><path class="e" d="M8211.438,2709.313v15.712h2.063v-2.775h13.625v16.4H8213.5v-2.775h-2.062v2.775h-21v-4.962h-2.388v4.962h-15.8v-16.4h15.8v4.962h2.388v-4.962h3.5v-1.913h-3.5v-11.025h21m.25-.25h-21.5v11.525h3.5V2722h-3.5v4.962H8188.3V2722H8172v16.9h16.3v-4.962h1.888v4.962h21.5v-2.775h1.563v2.775h14.125V2722H8213.25v2.775h-1.562v-15.712Z" transform="translate(-7538.292 -1997.125)"/></g><g class="a"><path class="c" d="M9339.75,2506.837v11.538h-9.625v1.875h9.625v12.625h-33.562v18.271h1.938v-16.521h31.625v43h-31.625V2561.1h-1.937v18.271h33.563v26.038H9227.563v-22.788h-22.708V2561.1h-1.979v13.521h-14.833v1.934h1.722v15.778h13.111v13.076h-7.125v1.762h11.375v26.05h-18.417v-26.05h3.313v-1.762h-15.333v-28.854h1.941v-1.934h-1.941v-37h26.188v13.521h1.979v-21.521h22.708v-22.788h92.625v13.413h4.5v-1.875h-2.4v-11.538h17.458m.25-.25h-17.958v12.038h2.4V2520h-4v-13.413h-93.125v22.788H9204.6V2550.9h-1.479v-13.521h-26.687v37.5h1.941v1.434h-1.941v29.354h15.333v1.262h-3.312v26.55h18.917v-26.55H9196v-1.262h7.125v-13.576h-13.111v-15.778h-1.722v-1.434h14.833v-13.521h1.479v21.521h22.708v22.788H9340v-26.538h-33.562v-17.771h1.438v16.521H9340v-43.5h-32.125V2550.9h-1.437v-17.771H9340V2520h-9.625v-1.375H9340v-12.038Z" transform="translate(-7538.292 -1997.125)"/><path class="e" d="M9339.875,2506.712V2518.5h-9.625v1.625h9.625V2533h-33.562v18.021H9308V2534.5h31.875v43.25H9308v-16.521h-1.687v18.021h33.563v26.288H9227.438V2582.75h-22.708v-21.521H9203v13.521h-14.833v1.684h1.722v15.778H9203v13.326h-7.125v1.512h11.375v26.3h-18.667v-26.3h3.313v-1.512h-15.333v-29.1h1.941v-1.684h-1.941V2537.5H9203v13.521h1.729V2529.5h22.708v-22.788h92.875v13.413h4.25V2518.5h-2.4v-11.788h17.708m.25-.25h-18.208v12.288h2.4v1.125h-3.75v-13.413h-93.375v22.788h-22.708v21.521h-1.229V2537.25h-26.937V2575h1.941v1.184h-1.941v29.6h15.333v1.012h-3.312v26.8H9207.5v-26.8h-11.375v-1.012h7.125v-13.826h-13.111v-15.778h-1.722V2575h14.833v-13.521h1.229V2583h22.708v22.788h112.938V2579h-33.562v-17.521h1.188V2578h32.375v-43.75H9307.75v16.521h-1.187V2533.25h33.563v-13.375H9330.5v-1.125h9.625v-12.288Z" transform="translate(-7538.292 -1997.125)"/></g><g class="a"><path class="c" d="M9755.172,2642.125l4.672,10.634.1.229.229-.1,1.876-.824.229-.1-.1-.229-.855-1.946,13.093-5.752,8.584,19.54-13.093,5.752-3.852-8.766-.1-.229-.229.1-1.876.824-.229.1.1.229,8.393,19.1-29.236,12.843-.229.1.1.229,6.905,15.719-39.2,17.218v-49.957h12.761v-18.969h-2.156v16.583h-10.6v-32.333h44.714m.163-.25h-45.127v32.833h11.1v-16.583h1.656v18.469h-12.761v50.59l39.775-17.473-7.006-15.948,29.465-12.944-8.493-19.333,1.876-.824,3.952,9,13.551-5.953-8.785-20-13.551,5.953.956,2.175-1.876.824-4.737-10.783Z" transform="translate(-7538.292 -1997.125)"/><path class="e" d="M9755.254,2642l4.654,10.594.1.229.229-.1,1.646-.723.229-.1-.1-.229-.855-1.946,13.323-5.853,8.685,19.768-13.323,5.853-3.852-8.766-.1-.229-.229.1-1.646.724-.229.1.1.229,8.393,19.1-29.236,12.843-.229.1.1.229,6.905,15.719-39.486,17.345v-50.273h12.761V2658h-1.906v16.583h-10.854V2642h44.921m.163-.25h-45.334v33.083h11.354V2658.25h1.406v18.219h-12.761v50.906l40.065-17.6-7.006-15.948,29.465-12.944-8.493-19.333,1.646-.724,3.952,9,13.78-6.054-8.886-20.226-13.78,6.054.956,2.175-1.646.723-4.72-10.744Z" transform="translate(-7538.292 -1997.125)"/></g><g class="a"><path class="c" d="M11221.625,1997.625v12.15h80.894v21.85h18.169v44.125h-8.91v-6.218h1.334v-2.108h-10.593v8.327h-15.588v8.875h-64.556v-8.875h-15.75v-8.327h-10.43v2.108h1.333v6.218h-8.91v-49.784h18.007v-28.341h15m50.658,24.781h1.279v5h-37.687v-5h1.441v-2.094h-15.691v47.861h66.056v-47.861h-15.4v2.094m-50.408-25.031h-15.5v28.341h-18.007V2076h9.41v-6.718h-1.333v-1.608h9.93V2076h15.75v8.875h65.056V2076h15.588v-8.327h10.093v1.608h-1.334V2076h9.41v-44.625h-18.169v-21.85h-80.894v-12.15Zm50.658,24.781v-1.594h14.9v47.361h-65.556v-47.361h15.191v1.594h-1.441v5.5h38.188v-5.5Z" transform="translate(-7538.292 -1997.125)"/><path class="e" d="M11221.75,1997.5v12.15h80.894v21.85h18.169v44.375h-9.16v-6.468h1.334v-1.858h-10.343v8.327h-15.588v8.875h-64.806v-8.875h-15.75v-8.327h-10.18v1.858h1.333v6.468h-9.16v-50.034h18.007V1997.5h15.25m50.658,24.781h1.279v5.255h-37.937v-5.255h1.441v-1.844h-15.441v47.611h65.806v-47.611h-15.147v1.844M11222,1997.25h-15.75v28.341h-18.007v50.534h9.66v-6.968h-1.333V2067.8h9.68v8.327H11222V2085h65.306v-8.875h15.588V2067.8h9.843v1.358h-1.334v6.968h9.66V2031.25h-18.169V2009.4H11222v-12.15Zm50.658,24.781v-1.344h14.647V2067.8H11222v-47.111h14.941v1.344h-1.441v5.755h38.438v-5.755Z" transform="translate(-7538.292 -1997.125)"/></g><g class="a"><path class="c" d="M11467.025,2386.675v31.617h-88.051v-31.617h88.051m.25-.25h-88.551v32.117h88.551v-32.117Z" transform="translate(-7538.292 -1997.125)"/><path class="e" d="M11467.15,2386.55v31.867h-88.3V2386.55h88.3m.25-.25h-88.8v32.367h88.8V2386.3Z" transform="translate(-7538.292 -1997.125)"/></g><g class="a"><path class="c" d="M11849.948,2407.447,11868.6,2416l.227.1.1-.227.949-2.07,13.074,6-.949,2.07-.1.227.227.1,13.946,6.394-5.994,13.075-20.925-9.595-.227-.1-.1.227-8.4,18.325-.1.227.227.1,1.8.825.227.1.1-.227,7.49-16.336,18.9,8.664-11.451,24.976-18.9-8.665,2.057-4.485.1-.227-.227-.1-1.8-.826-.227-.1-.1.227-2.045,4.46-24.975-11.452,1.015-2.214.1-.227-.227-.1-2.024-.928-.227-.1-.1.227-1.016,2.214-14.8-6.784-.227-.1-.1.227-.941,2.052-.1.227.227.1,1.547.71-6.75,14.724-26.355-12.084,6.75-14.725,16.161,7.411.227.1.1-.227.941-2.053.1-.227-.227-.1-1.533-.7,5.995-13.075,24.975,11.452-1.015,2.214-.1.227.227.1,2.024.928.227.1.1-.227,13.472-29.381m-.123-.331-13.576,29.608-2.024-.928,1.119-2.441-25.43-11.66-6.2,13.53,1.761.807-.941,2.053-16.389-7.515-6.959,15.179,26.81,12.292,6.959-15.179-1.774-.814.941-2.052,15.022,6.888,1.12-2.441,2.024.928-1.119,2.441,25.43,11.66,2.149-4.687,1.8.826-2.161,4.712,19.352,8.873,11.659-25.43-19.351-8.873-7.595,16.563-1.8-.825,8.4-18.325,21.152,9.7,6.2-13.53-14.173-6.5,1.053-2.3-13.528-6.2-1.054,2.3-18.879-8.656Z" transform="translate(-7538.292 -1997.125)"/><path class="e" d="M11849.887,2407.281l18.652,8.552.227.1.1-.227.949-2.07,13.3,6.1-.948,2.07-.1.227.227.1,13.946,6.394-6.1,13.3-20.925-9.595-.227-.1-.1.227-8.3,18.1-.1.227.227.1,1.573.721.227.1.1-.227,7.49-16.336,19.124,8.768-11.555,25.2-19.125-8.769,2.057-4.485.1-.227-.227-.1-1.573-.722-.227-.1-.1.227-2.045,4.46-25.2-11.556,1.015-2.214.1-.227-.227-.1-1.8-.824-.227-.1-.1.227-1.016,2.214-14.8-6.784-.227-.1-.1.227-.837,1.825-.1.227.227.1,1.547.71-6.855,14.951-26.583-12.188,6.855-14.952,16.161,7.411.227.1.1-.227.837-1.826.1-.227-.227-.1-1.533-.7,6.1-13.3,25.2,11.556-1.015,2.214-.1.227.227.1,1.8.824.227.1.1-.227,13.472-29.381m-.123-.331-13.576,29.608-1.8-.824,1.119-2.441-25.657-11.764-6.308,13.757,1.761.807-.837,1.826-16.389-7.515-7.063,15.406,27.037,12.4,7.063-15.406-1.774-.814.837-1.825,15.022,6.888,1.12-2.441,1.8.824-1.119,2.441,25.657,11.764,2.149-4.687,1.573.722-2.161,4.712,19.579,8.977,11.764-25.657-19.578-8.977-7.595,16.563-1.573-.721,8.3-18.1,21.152,9.7,6.307-13.757-14.173-6.5,1.053-2.3-13.756-6.308-1.054,2.3-18.879-8.656Z" transform="translate(-7538.292 -1997.125)"/></g><g class="a"><path class="c" d="M12429.684,2758.7l55.733,25.507v3.041h-55.733V2758.7m-.25-.389V2787.5h56.233v-3.452l-56.233-25.736Z" transform="translate(-7538.292 -1997.125)"/><path class="e" d="M12429.559,2758.507l55.983,25.622v3.246h-55.983v-28.868m-.25-.389v29.508h56.483v-3.657l-56.483-25.851Z" transform="translate(-7538.292 -1997.125)"/></g><g class="a"><path class="c" d="M12328.875,2826.875v29.35h-18.3v-29.35h18.3m.25-.25h-18.8v29.85h18.8v-29.85Z" transform="translate(-7538.292 -1997.125)"/><path class="e" d="M12329,2826.75v29.6h-18.55v-29.6H12329m.25-.25h-19.05v30.1h19.05v-30.1Z" transform="translate(-7538.292 -1997.125)"/></g><g class="a"><path class="c" d="M12594.247,2758.117l19.227,8.8-12.849,28.073-.1.227.228.1,1.362.624.228.1.1-.227.322-.7,12.624,5.778-.548,1.2-.1.227.228.1,1.5.686.227.1.1-.227,1.28-2.8.1-.227-.228-.1-4.115-1.883.689-1.506.1-.227-.228-.1-1.466-.67-.228-.1-.1.227-.688,1.505-8.315-3.806,11.691-25.544,3.56,1.63.228.1.1-.228,2.979-6.546,7.064,8.331-9.458,20.551-4.182-1.914-.227-.1-.1.227-1.277,2.789-.1.227.228.1,1.466.671.227.1.1-.227.455-.992,4.115,1.883.227.1.1-.227,10.048-21.953,12.034,7.684.03.019.034.01,14.156,4.224.035.01h.037l11.809.005-18.1,39.556-10.332-4.728-.227-.1-.1.227-.482,1.053-.1.227.228.1,10.331,4.729-3.213,7.023-14.307-6.548,3.214-7.023.973.445.227.1.1-.227.482-1.053.1-.227-.228-.1-22.718-10.4.6-1.3.1-.227-.228-.1-1.5-.686-.227-.1-.1.227-7.88,17.2-6.23-2.852,7.175-15.677.1-.227-.228-.1-6.161-2.82.369-.807.1-.227-.227-.1-1.362-.624-.227-.1-.1.227-14.66,32.032-13.8-6.316-.227-.1-.1.227-.553,1.207-.1.227.228.1,13.8,6.316-4,8.746-19.226-8.8,4-8.746,2.016.923.227.1.1-.227.553-1.207.1-.227-.228-.1-2.016-.923,29.334-64.1m-.123-.331-29.543,64.551,2.243,1.027-.553,1.207-2.243-1.027-4.211,9.2,19.681,9.008,4.211-9.2-14.028-6.42.553-1.207,14.028,6.42,14.765-32.26,1.362.624-.473,1.034,6.388,2.924-7.279,15.9,6.685,3.06,7.984-17.429,1.5.686-.7,1.527,22.945,10.5-.482,1.053-1.2-.549-3.422,7.478,14.762,6.756,3.422-7.478-10.559-4.833.482-1.053,10.559,4.833,18.37-40.137-12.2-.005-14.156-4.224-12.276-7.839-10.168,22.214-4.342-1.987-.559,1.219-1.466-.671,1.277-2.789,4.408,2.018,9.63-20.922-7.423-8.753-3.143,6.9-3.787-1.734-11.9,26,8.77,4.014.793-1.732,1.466.67-.793,1.733,4.343,1.987-1.28,2.8-1.5-.686.651-1.424-13.078-5.986-.426.931-1.362-.624,12.953-28.3-19.682-9.008Z" transform="translate(-7538.292 -1997.125)"/><path class="e" d="M12594.186,2757.951l19.455,8.9-12.849,28.073-.1.227.228.1,1.135.52.228.1.1-.227.322-.7,12.851,5.882-.547,1.2-.1.227.227.1,1.271.582.227.1.1-.227,1.176-2.568.1-.227-.228-.1-4.115-1.883.689-1.506.1-.227-.228-.1-1.238-.566-.228-.1-.1.227-.688,1.505-8.542-3.91,11.8-25.771,3.56,1.629.228.1.1-.228,3.009-6.611,7.244,8.542-9.544,20.737-4.182-1.914-.227-.1-.1.227-1.173,2.562-.1.227.228.1,1.238.567.227.1.1-.227.455-.992,4.115,1.883.227.1.1-.227,10.056-21.97,12.155,7.761.03.019.034.01,14.125,4.21.035.01h12l-18.237,39.846-10.332-4.728-.228-.1-.1.227-.378.826-.1.227.228.1,10.331,4.729-3.318,7.25-14.535-6.652,3.318-7.25.973.445.228.1.1-.227.378-.826.1-.227-.228-.1-22.718-10.4.6-1.3.1-.227-.228-.1-1.271-.582-.227-.1-.1.227-7.88,17.2-6.458-2.956,7.175-15.677.1-.227-.228-.1-6.161-2.82.369-.807.1-.227-.227-.1-1.135-.52-.227-.1-.1.227-14.66,32.032-13.8-6.316-.227-.1-.1.227-.448.979-.1.227.228.1,13.8,6.316-4.107,8.974-19.454-8.9,4.107-8.974,2.016.923.228.1.1-.227.448-.979.1-.227-.228-.1-2.016-.923,29.439-64.324m-.123-.331-29.647,64.778,2.243,1.027-.448.979-2.243-1.027-4.315,9.428,19.908,9.112,4.315-9.428-14.028-6.42.448-.979,14.028,6.42,14.765-32.26,1.135.52-.473,1.034,6.388,2.924-7.279,15.9,6.912,3.164,7.984-17.429,1.271.582-.7,1.527,22.945,10.5-.378.826-1.2-.549-3.526,7.7,14.989,6.86,3.526-7.7-10.559-4.833.378-.826,10.559,4.833,18.5-40.428h-12.356l-14.125-4.21-12.4-7.916-10.176,22.231-4.342-1.987-.559,1.219-1.238-.567,1.173-2.562,4.408,2.018,9.715-21.108-7.6-8.964-3.172,6.97-3.787-1.733-12,26.226,9,4.118.793-1.732,1.238.566-.793,1.733,4.343,1.987-1.176,2.568-1.271-.582.651-1.424-13.306-6.09-.426.931-1.135-.52,12.953-28.3-19.909-9.112Z" transform="translate(-7538.292 -1997.125)"/></g><g class="a"><path class="c" d="M12181.815,2823.75v30.656h-17.341v1.125h-17.7v-1.446l-.256.006-1.557.037-.244.006v7.146l-14.844-.029v-1.188h-2.05v30.763h-17.45v-29.3h-38.15v-10.7h38.15v-20.65h17.45v26.106h2.05V2838.23l14.844.029v12.093l.256-.006,1.557-.037.244-.006v-6.8h18.449v-19.75h16.591m.25-.25h-17.091v19.75h-18.449v6.81l-1.557.037V2838.01l-15.344-.03v18.052h-1.55v-26.106h-17.95v20.65h-38.15v11.2h38.15v29.3h17.95v-30.763h1.55v1.188l15.344.03v-7.153l1.557-.037v1.44h18.2v-1.125h17.341V2823.5Z" transform="translate(-7538.292 -1997.125)"/><path class="e" d="M12181.94,2823.625v30.906H12164.6v1.125h-17.949v-1.443l-.256.006-1.307.031-.244.006v7.15l-15.094-.03v-1.188h-1.8v30.763h-17.7v-29.3h-38.15V2850.7h38.15v-20.65h17.7v26.106h1.8V2838.1l15.094.03v12.09l.256-.006,1.307-.031.244-.006v-6.807h18.449v-19.75h16.841m.25-.25h-17.341v19.75H12146.4v6.813l-1.307.031v-12.083l-15.594-.031v18.052h-1.3V2829.8H12110v20.65h-38.15v11.45H12110v29.3h18.2v-30.763h1.3v1.188l15.594.031V2854.5l1.307-.031v1.438h18.449v-1.125h17.341v-31.406Z" transform="translate(-7538.292 -1997.125)"/></g><g class="a"><path class="e" d="M0,0" transform="translate(-7538.292 -1997.125)"/><path class="e" d="M0,0" transform="translate(-7538.292 -1997.125)"/><path class="e" d="M0,9185.124" transform="translate(-7538.292 -1997.125)"/><path class="e" d="M0,9185.124" transform="translate(-7538.292 -1997.125)"/><path class="e" d="M16376.2,9185.124" transform="translate(-7538.292 -1997.125)"/><path class="e" d="M16376.2,9185.124" transform="translate(-7538.292 -1997.125)"/><path class="e" d="M16376.2,0" transform="translate(-7538.292 -1997.125)"/><path class="e" d="M16376.2,0" transform="translate(-7538.292 -1997.125)"/><path class="e" d="M0,0" transform="translate(-7538.292 -1997.125)"/><path class="e" d="M0,0" transform="translate(-7538.292 -1997.125)"/><path class="e" d="M0,9185.124" transform="translate(-7538.292 -1997.125)"/><path class="e" d="M0,9185.124" transform="translate(-7538.292 -1997.125)"/><path class="e" d="M16376.2,9185.124" transform="translate(-7538.292 -1997.125)"/><path class="e" d="M16376.2,9185.124" transform="translate(-7538.292 -1997.125)"/><path class="e" d="M16376.2,0" transform="translate(-7538.292 -1997.125)"/><path class="e" d="M16376.2,0" transform="translate(-7538.292 -1997.125)"/><path class="e" d="M0,0" transform="translate(-7538.292 -1997.125)"/><path class="e" d="M0,0" transform="translate(-7538.292 -1997.125)"/><path class="e" d="M0,9185.124" transform="translate(-7538.292 -1997.125)"/><path class="e" d="M0,9185.124" transform="translate(-7538.292 -1997.125)"/><path class="e" d="M16376.2,9185.124" transform="translate(-7538.292 -1997.125)"/><path class="e" d="M16376.2,9185.124" transform="translate(-7538.292 -1997.125)"/><path class="e" d="M16376.2,0" transform="translate(-7538.292 -1997.125)"/><path class="e" d="M16376.2,0" transform="translate(-7538.292 -1997.125)"/></g></g></svg>