<svg xmlns="http://www.w3.org/2000/svg" viewBox="0 0 6478.052 6015.145"><defs><style>.a{fill:#474747;}.b,.e{fill:none;}.c{opacity:0.25;}.d{fill:#22591a;}.e{stroke:#351912;}.e,.h{stroke-miterlimit:10;stroke-width:0.25px;}.f,.h{opacity:0.5;}.g,.h{fill:#4c4845;}.h{stroke:#3f3c3b;}.i{fill:#3f3c3b;}</style></defs><title>paths</title><path class="a" d="M7872.4,5123.3l40.6,12.9,61.7,14.2,39.7.9.351,26.45,11,.5-.15-27.15,28-1.4,78.1-15.9,45.6-14,32.9-14.3,62-36.8,17.5-9.6,33.7-28,30.2-31.3,38.2-57.1,4.8-10.3,12.3,11.2,1.7,22,8.3-16.9-.7-7-1.1-4.8-15.5-13.5,23.7-56.5,12.8-78.7v-38.1l-7.1-52.5-7.4-28.9-6.5-15.8,19.8-7.7-.8-3.6-3.6-5.5-19.8,7.1-21.7-39.7-41-54.5-23.3-22.5-73.9-56.4-23.4-14.8-39.9-17.1,4.8-14.2,4.5-6.2-9.9-3.3-4.4,7.5-4.8,12.3-47.7-14.7-45.7-9.6-50.6-3.4V4387l-10.2,2-.7,17.7-46.8-1.9-57.3,6.8-53.1,16.8-62.4,25.5-11.934-19.766-9.1,5.2L7796,4459.1l-76.5,52.8-7.8-11.3-10.035-4.566-9.5,7.8,13.035,5.266,7.4,9.2-25.6,26.3-26,33-27.4,47.2-26.2-8.5-1.1,9.8,22.3,9.2-13.9,36.3-11,38.9-6.7,38.2-.7,46,6.8,50.7,15.5,45.1,19.6,41.6-21.842,12.4,7.442,8.1,19.1-10.9,23.8,36.8,38.5,41.3,37.4,30.7,38.3,26.9,40.2,23.8,41,17.7-1.006,31.078,9.894,3.736Zm53.5,5.6-52.8-17.4,5.8-126.3-17.8-106-2-46.3,45.4,42.9,42.2,25.6,21.9,236.9Zm4.2-643.1,7.5,44.5-26.8,7.2-3.8,4.5-11.2,25.7-37,23.7-9.9-33.2-1-32,30.7-21.1Zm-50.7,4.3,34.3-13.9,9.7-.9,1.1,1.9-43.4,16Zm145.7,36.6-14.7,12.3-27.7-16.8-14.9-51.8,15.4-10.1h27.7v8.5Zm19.4-1,9.6,8.1,24.2,13.6-3.9,9.4-19.6-10.5-15.4-16.2Zm-6.7-51h23.6l.6,15.1,7.5,17.6-14.1,14.4-6.9-6C8048.5,4515.7,8038,4475.3,8037.8,4474.7Zm10.3,79,28.2,16.4s24,2,24.3,1.9,35.9-7.6,35.9-7.6l11.9,36-13.3,4.2-13.9,11.1-19,29.2-104.7,8.1-3.5,3.2-25.7,68.5-16.9,12.2-17-23.9-1.3-34,7-30.3,55.5-36.8,34.9-55.6,3.7-16Zm36.1,6.4,3.5-9.2h2.3l2.4,10.1Zm16.4-9.5,25.9-6.1,5.3,9.4-28.8,7.2Zm188.5,94.4-2.9-17-4.3-6.2,18.4-7.4,29.4-1.4,18.5-13.4,22.7,72.4-16.8,35.2-18.6,19.6-31.3-1.9-25.1-9.5,10.2-43.2Zm-336.7,183.7,3.3-81.5,21.7-16.1,24.7-67.3,95.5-6.9-7.1,28,.9,43.8-6.9,71.6-13.8,30.2Zm116.6,12.8v68.3l-15.5-11.5-63.4-1.3-36.6-3.5-40.5-25.3-43.8-40.2,75.3,10.9Zm23.4-32.1,85.8,43-18.8,96.9-12.3,22.7-29.5,9.5-38.2-61.5-.1-82.7Zm76.8,141.2,19.1-96.5,118.8,1.3,16.4,2.7,15.6.8v17.8l-4.5,21.1-20.4,30.3-14.5,13.8-72.7,62.4-18.9-27.7-5.3-2.6-43.4-2.9Zm160.7-102.4,2-45.8-9.8-.5-2.7,44.7-9.3-1,4.4-62.7,70.5-9.6-.7,74.9Zm32.8-82.6-.7-20.3,20-9.4,3.1,26.7Zm-6.2-28.6-11.1-6.1,15.8-16.9,12.8-25,5.9,35.8Zm-53.2-1.4,31.9,2.3,17.1,7.9.6,20.9-43.9,6-4.6,4.9-4.1,66.3H8185.7l-90.6-45,6.2-68.8,172.3-5.3Zm-52.1-20.7.8-8,2.8-8.3,14.8,10.2.2,5.3Zm20.3-17.2-15.1-10.4v-34.7l5.8-16.9,9.3-8.7,4.9,5.2,2,10.4.7,30.3Zm-18.2-67.4-6.7,20.3v40.2l-4.5,16.9-1,7.7-139.3,4.2-1.2-34.5,8.7-32.2,19.9-30.2,10.8-8.8,80.1-21.1,43.5,27.9Zm-37.7-46.8-57,13.8-13-37.8,35.8-32.9,21.8,13.7,13.6,16.1Zm-74.2-34.6-4.9-9.5,27.7-23,8,5.2Zm-208.1,72.6,45.6-28.7,32.3-41.3,7.5,5.3-30,48-50.4,32.2Zm86-76.7,3.7-3.1-.2,4.6Zm-47.8-21.2-6.7,10.9-9.5,1.4-7.1-4.6-8.3-49.3,18.5-7.4Zm-28.7,16.1,10.1,6.6,16.1-2.3,4.3-3.6,6.3-8.2,22.4,14.1-28.1,37.6-47.7,30.3-33.9,5.9-20.8-3.6-9-15.5,40.8-26.1,13-28Zm-82.9,77.2,3.7,7.3,4,2.9,27.3,4,28.8-5.4,4.5,14.6-56.7-4-12.4-11.6Zm68.8,33.5-4.9,23.9-15.7-4.8,2.6-19.1Zm-6,35,1.9,30.2,1.1,3.8,20,27.3-4.1,81.4-82.6-11.3,11.1-99.3,23.4-18.5,10.5-19.4Zm34.7,219.1,93.7,3.5,19.5,16,37.5,61.6-31.8,20.5-67.4,3.8-39.8,7.4Zm61.3,236.1-39.5-1.3-9.5-111,39.3-7.8,70.3-4,27.1-16.8-18.7,62.5Zm186.4-44.3-31.1,13.4-41.9,13.8-76.2,14.8-23.1,1,64.1-71.5,22.3-76.3,31.6-10,50.1,3.6,55.8,80.9Zm177.8-158.5-37.1,56-30.5,31.1-32.8,26.3-16.8,9.2-33-47.7,65.3-55.5,24-21.7,22.4-34.7,4.6-24.5V4859l34.5,1-1.5,35.4,7.6,29.2Zm13.1-29.2-4.1-16,2.5-30.7,18.9,7.8Zm-32.5-324.7,20.8,27.3,29.7,59.4,7,30.3,7.4,49.8-.1,37.5-12.1,70.7-21.5-8,1.4-85.3-4.6-37.9-9.8-57-24.6-79.1Zm-81.2-78.8,38.5,30.3,24.3,23.1,11.9,16.3-9.4,12.9-20.7,15-28.7,1.7-25.1,9.6-47.1-28.9.8-27.3,17.9-8.2,32.2-35.7Zm-8.7-6.2-4.3,8-30.2,33.9-10.3,4.7,4.8-35.5,17.7-28.5Zm-87.4-50.7,41.3,17.4,14.6,10-17.6,31.2-5.8,36.5-9.7-11.4-21.4-13.5-17.7-10.7Zm-84.8-23.9,27.5,5.5,47.8,15.6-17.1,61.6-32.8,26.7-32,7.5s-9.6-1.5-9.9-1.5-20.6-12.2-20.6-12.2l11.1-11.9,7.1,6.1,14.3,4.6,15,1.6,15.2-5.6,14.8-16.8,5.7-20.5-4.2-21.9-13.3-19-17.7-6.5-13.4,1Zm9.5,24.3,13.2,4.2,10.1,13.6,2.8,19.4-4.7,15.9-11.9,12.3-10.6,3.6-10.7-1.1-12.3-3.8-7.5-8.1-7.8-16.8v-16.7l8.5-12.6,14-9.2Zm-75.4-30.6,44.5,1.9,10.6,2.7-2.8,18.8-13.9,8.9-9.8,14.6-29-2.3C8035.2,4462.6,8035.5,4418.4,8035.5,4418Zm-8.3,56,11.3,42.8-4.6,3.8-11.8-46.6Zm-6-10.9v-3.8h3.6v3.8Zm-149.3-25.4,50.2-15.1,56.5-7,46.5,1.6-.7,31.7-42.3.3-21.5,14.4-25.4,9.5-8.1-7.4-14.4.4-38.1,14.5-25.6-33.3Zm-33,13.3,29.2,37.9,3.2,9-27.2,18.3-33.3-53.6Zm23.9,657.4s-38.3-16.9-38.4-17.6-40.1-23.5-40.1-23.5l-34.9-24.2-37.1-31.7-36.9-39.5-26.9-41.9-20.5-43.5-14.3-44.5-6.9-49.3.8-43.1,6.3-37.5,10.3-34.5,16.7-43.8,29.8-51.4,25.6-33,28.6-29,76.7-52.8,36.3,58,1.2,34.6,11.8,40.9-1.6,25.5,3.5,5.1,16,14.7,32.3,2.8-3.4,21.2-12.1,22.4-23,17.7-1.6,4.7-13,106,2.9,57,18.2,108.6Z" transform="translate(-7338.399 -2092.755)"/><polygon class="a" points="1107.901 3137.395 1153.425 3111.5 1147.433 3103.561 1104.201 3127.095 1040.901 3136.095 1042.601 3146.695 1107.901 3137.395"/><path class="a" d="M8594.2,4407.2l19.7-20.2,19.1-18.5,26.6-23.3,33.3-33.7v-6.2l-7.9-.3-32.3,32.6-27.3,24-29.7,29.1-31.9,40.2-26.7,43.3-17.5,37.9-13.8,40.4h-7l-4.4,10.3,8.3.5-18.5,61.8-13.3,1.9-3.2,8.7.5,2.1,15.6-1.3,13.4,46.3,7.4,66-2.5,78.5-5.6,36.4-12,45.4-26.4,56.1-8.5-7.6-4.6,9.5,9.7,9.1-1.6,13.3,10.5,45.5-8.5,1.3,3.6,10h7l16.5,48.5-5.2,5.9,4,11.9,5.5-6,20.5,45.9,11.5,20.8,27.1,40.6,25.9,29.3,67.4,60.9-.3,20.5,9.7,11,1.6-32.7-1.8-4-69.8-62.9-23.5-26.7-26.2-38.7-12.2-21.8-21.7-51.1,14.7-19.7,18-18.8,24.8-.8,3.4-2.3,22.1-19.7,2.8-4.3,2.3-33.5-3.9-33.1-1.9-3.9-7.5-7.4,44.6-6.2,34.3,9.1,29.4,5.2,13.8,1V4953l-13.2-1.1-30.9-5.5-33.1-9.3-56.8,7.6-26.4,8-19.5,17.2-17.5,3.3-26.5-4.1,25-53.1,2-6.2,11.6-41.6,6.1-39.9,2.6-80.4-7.9-67.9-13.4-49.8,19.4-65.9,42.3,3.4-.6,18.4,5.1,6.4,42.7,3.9,5.8-5,1.8-17.1,26,3.1,32.3-.3,24,14v-12l-22-12.3h-34.6l-23.7-3.4,1.4-17.3-4.5-5.6-18.6-2.3-4.9-21.2-16.1-24.7-22.1-15.5,18.2-30.5Zm-90,661.2-14,17.6-13.9-41.1,23.8.6,16.5,9.7Zm26.8-19.7.9-12.4,9.5,11.7Zm4.6-86.7,20.9-5.6,12.2,11.6,4.1,31.7-3,30.6-17.5,15.3-20.3-24.3-10.4-23.9-2.5-20.5Zm-41.3,22.3,14.7-2.9,2.6,18.2,11,25.3-2,20.8-19.7-10.3-27.5-.5-9.5-46.5.3-8.7Zm108.6-433.9-4.4,35.2-33-2.5,1.7-36.8Zm-40.5-50.6,13.8,20.7,3,16.3-15.4-2-6.6,5.1-.8,17.3-40.4-3.7,13-38.8,13.4-28.5Z" transform="translate(-7338.399 -2092.755)"/><path class="a" d="M7515.6,5336.2H7527l15.7-43.4,50-72.5,18,31.5,43.5,46.2,13.3,38.4h22.9l28.2-69.7,20.9-24.5,20.8-11.6,42-3.2,29.1-11.5,21.2-15.8,8.7-13.1,1-3.4-2.6-.2-6.1-2.9-7.9,13.1-17.7,13.3-27.1,10.3-43.1,3.4-24.1,13.1-15.6,17.1-4.9-34.7-5.1-4.9-69.6-1.8-.3-4.7,11.9-17.8,46.7-.7,47.4-15.5,3.8-6.2-4.4-20.2,8.1-12.3-3.6-1.7-4.7-3.8-8.4,12.1-27.2,6.7-9.5-14.8-3-2.7-21.5-7.7-40.1-76.4,9.1-6.5-6.4-7.1-17.2,7.7-1.2,9,6.4.3,40.9,78.6,3.2,3.5,21.3,7.3,5.9,8.7-52.4-.4-3.8,1.4-33.4,38.6-16.2,21.5-24.8,5.7-11.6-8.6-2.1,4.2-3.3,4.1,10.9,8.4.6,30.5-26.1,38.2Zm188.5-114.9,4.3,36.4-39-.5-2.2-36.6Zm-35.1,46.3,38.8.5-27.7,66.6h-2.4l-13.7-39.9Zm-11.8-46.8,2.6,40.2-4.2,23.8-36.6-39-7.5-13.4,23.6-12.9Zm-12-65.3,62,.2,27-6.1,3,12.4-41,13.8-48.9.5-3.7,2.6-11.8,17.1-13.8-9.4Zm-33.6,39.5,16.7,10.8.2,5.2-21.7,12.1-7.3-12Zm-29.9,23.8-11.8,17.3-.3-14.5Z" transform="translate(-7338.399 -2092.755)"/><path class="a" d="M7407.1,5157l4.5,1.8,27.3-3.1,4.1-2.8,12.1-14.4,22.8,15.3-13.7,23.9-15.9,19.7,7,7.2,17.1-20.2,13.9-24.7,23.7,17,13.1,14.3.3-.4,4.5-9.1-9.4-10.3,31.2-58.5,21.7-61.8,6.7-75.3-4.6-6.3-29-3.8-64.7-23.7,20-97.2.1-28-3.7-38.7-23.7-72.5-.5-15.7,2.7-.3,1.7,9.6,5.5,5,29.8-.9,5-6-1.1-34.1-2.8-4.1-4-3.3,8-30.9,52.1-11.5,6,2.3,4.7-10-10-3.1-56.1,12.4-47.4,2.7.2-32,55.1-53.4,2.1-4.1,5-41,5.8,2.7,18.1-.8,56.3-9,26.9.3,16.9,9.8,5.1,1.4.6-.7,8.5-6.9-10.2-3.4-19.3-10.5-28.6-.9-55.9,9.7-18.6.1-5.5-3-77.3-81.3-32.7-44.2,223.6-2.7,48.6,10.3,64.7,35.3,11.7,12.2,3.4,5.9,3.5-2.2,5.5-2.7-4.5-6.7-11.1-12.4-3.3-20.4.9-13.3,6.9-20.9-2.4-.8-8.3-.5-5.2,15.7-61.1.4-48.1-10.7-222.7,2.2,8.9-10.1-14.4.1-10.9,11.5-.9,7.5,39.2,52.4,76.6,80.7-5.3,44.5-55.1,52.5-2.8,4.8-.1,34.3-38.3-.8-76.8,1.8v11l70.9-1.5-.5,51.7-16.3.3-5.2,5-.1,43.4,5.3,5.5,10.2.3-.9,12.6-34.8,12-29.2,1.5v11.2l30.1-2,13.7-3.8,6,20.3-2.7,15.2-6.7,7.9-13,10.5-20.7,2.1h-6.8V4832l7.2.3,23.1-2.9,16.5-12.6,19.1,5,4,9.2,3.6,4.5,11.7,3.6,5-.6,10.5-4.6,3.1-2.9,3.8-9.2,42.1.9.1,20.2-20.1,95.6-43.8-10.8-53.6-4-33.1,1.8v11.4l33.3-2.2,52.2,3.8,47.5,11.8,70.9,25.5,24,3.1-6,69.5-20.8,59.5-30.1,56.6-20-14.5,20-71.8,25.5-59.2-1.6-5.7-15.2-13.7-6.5.2-38.8,35-22.7-29.7-38.8-18.8-7.1,2.8-10.8,30.9,3.1,41.1-9,16.5-.3,4.6,4.2,23.5-7.1,14.6-46.8-2.1v11.2l47.2,1.7Zm343.7-798.6-.7,7.9,2.3,13.8-39.7-21.7Zm-265.2,334.8-1.9-10.3-5.2-4h-7.4l-2.2-31.2,32-1.7-2.5,11,2.7,5.8,4.8,3.9,1,25.9Zm20.7-67.2-2.7,9.5-36,1.4-1-9Zm-84.3,1.3,34.2,1.2,2.4,17.8,3.4,53.2-25-.8-.8-14.1-5.9-5.2h-8.7Zm-22.1,96-.3-32.6,26.5-.4,1.3,14.9-.5,18.1Zm35.5,101.6-8.5,3.5-8-2.2-3.8-8.6,3.9-9.5,7.7-2.8,8.2,3,3.8,8.2Zm11.8-13.7-3.5-8.8-3.3-3.3-10.4-3.8-5.4-.7-11.2,4.4-2.9,3.2-4.1,9.2-11.8-3,2.1-4.6,3.1-14.5-.1-5.7-6.2-20.9,17-6.9,3.2-4.6,1.9-17h15.8l5-5.5.6-18.2,26.6.5,22.7,69.1,2.7,32.2Zm34.5,332.7-23-15.3-4.8-23,32.4-44.4,14,15.3Zm33.9-133.5,9,7.8-20,47.3-14.2-16.2-9.2-7Zm-102.5-12.2,31.2,15.1,20.9,28.3-15.6,11.5-42.6,2.4-2.5-33.4Zm-7.6,68.8,47.2-3.6,19.9-14.2,6.3,4.8-33.2,44.3-43.8,2-3.5-19.9Zm-4.6,44.4,43.3-1.7,4.4,20.7-12.3,14.9-22.9,2.8-18.8-22.8Z" transform="translate(-7338.399 -2092.755)"/><path class="a" d="M8301.8,4346.05l-24.2,2.5-8.6-46.7,57.2-17.1,3-2.2,14-21,.9-3.1-3-191.5,10.2-59.4-10.8-1.9-9.3,53.8-10.3,24.5-26.6,64.8-27.3,53.4-35.4,45.2-10.5,9.7-44-50.7-.9-42.2-3.1-4.8-11.9-5.7-3.4-.4-20.1,3.9-4.4,4.5-3.4,20.8.7,3.6,7.4,12.8,2.6,2.3,27.8,11.8,44.7,51.5-18.7,17.3-45.6,27.2-52.9,8.8-55.3,2.1h-.2l-2.2-56.6,3.2-75.4-12.4-46.8,27.8-13.1,3.3-3.3,12.7-31.6,1.3-36.5-5.1-22.5-2.9-24.8-10.1,1,2.1,24.8,5.4,23.3-1.1,32.8-10.5,28.3-29,12.4-32.5-9.5-14.1-19.3-2.1-33.8,10.1-22.5.7-35.1-10.5-.4-1,33.6-10,21.7,1.4,38.5,19.3,25.8,34.4,11.4,13,48.1-3.7,71.2,2.3,56.9-48.3-6.4-67.8-18.8-50.3-22.3-38.7-28.4-35.8-36.8-31.7-37.1-22.9-45.8-14.3-54.4-1-61.6-11,.2.9,59.4-.8.2.8,3.1,3.2,204.2-99.8,1.5-.2-5.1-1.3-3.3-87.2-98.3-15.2-4.7-1-65.9,10-.2,4.9-5.1-.1-30.3-5.5-5.5-10.7-.4-.2-43-10.8.3.5,42.8-10.4.3-5,5.5-.5,30.5,5.4,5.4,11.6.1,1.2,64.6-53.2-.7-20.5-17.3-9.7-12,1.3-14.4-1.4-5.8-25.8-27.3-5-2.7-42.1-.5v11l40.8,1,23.1,24.6-1.4,14,1.8,5,10.1,14,25.7,21.3,56.4.8v90.5l-52.1,1.3-4.2,2.3-7.7,10.4-1.3,4.8.3,10.7,10.3-.1-.2-10.6,5.2-7.5,55.9-.6,73.1,1,12.7,8.9,3.1,7.7,10.6-.1-1.7-5.9,5.5-.2.2-.2,110.3-1.7,52.2,10.4-8.3,23.6,10.4,3.6,8.8-25.1,32,6.4,6-2.9,17.9-35.6,20.2,14.8,1.1.6,51.2,22.7.8.3,68.5,19,.7.2,49.7,6.6-3.4,25.2,10.5.8,3-24.7h.8l56.1-2.1.7-.1,54.3-9,1.9-.7,46.9-28,.9-.7,19-17.5,27.7,31.9,5.7,1.7,4.6-1.4,8.6,46.3-21.2,6.1-25.4,14.9-13.9,12.3,12.2,3.6,9.5-9,18.8-11,22.2-6.9-.8,26.4,8.3,17.9,57.2,40.7,35.7,31.2-3,4.5,7.6,6.4,4.2-5.6,33.4,9,35.7,35.7,17.8,19.8,4.5-10.6-12.7-13.8,29-44.8,16.6-19.7,1.1-8.5-18.7-19.8,10.1-12v-7l-29.3-28.7,29.8-33,2.1-4.6.3-18,51.2-2.4,61.8,2.1,3.5-3.4,9.8-15.6-9.4,8.5-65.7-1.8-55.9,2.7-32.3,2.5-96.5,19.3-40.3,7.5Zm-155.3-154.3-5.5-9.6,2.5-15.1,14.5-2.8,7.3,3.5.7,32.3Zm-655.7-103.8v-20.3h21.6l.2,19.8Zm111.8,188.4h-.1l-7.3-1.2-14.7-9.6-71.3-1.2.4-88.8,8.3,3,84.7,93.7Zm209.1,15.9-88-17.5-2.5-160.3,3.1,11.7.4,1.1,23.5,47,.7,1.1,32.3,37.7,36.5,37.5.6.6,10.3,7.6Zm442.3,2.6-25.6-29.5,11-10.2.6-.7,36-46,.6-.9,27.6-54,.2-.4,26.1-63.4,2.6,167.1-11.9,17.9Zm195.8,220.9-33.2-33-31.1-9,26.1-30.4,29.7,26.2,7.1-.1,10-9,16.7,16.2Zm-39.5-89.4-25-29.3,18.6-24.6,19.3-15.4,27.8,26.3Zm82.9,27.6-11.9,14.4-15.9-15.7,12.7-14.4Zm-8.8-38.5-31.7,35.4-8.5,6.8-26.4-22.4,41.2-45.6Zm-17.8-86,21.3-2-.7,16.5-28.7,31.5-30.7-29.9h-7.6l-19.5,16.1-18-15.4Zm-96.9,19.8,23.4,20.4-19.2,24.4.1,7.1,29.2,34.5-27.4,33.3-32.1-26.6-58.9-43.5-5.9-11.6.9-27.9,25.9-2.5,21.4-.4Z" transform="translate(-7338.399 -2092.755)"/><path class="a" d="M8693.8,4264.35l-91.7-90.1-.2-62.9,90.8-88v-5.5H8684l-56.8,54.2-123.2,4-41.6-42-34.5-16.1h-27.8l57.1,24.9,69.1,69.3-1.1,63.4-60.7,57.9-26.9,40.4,12.2-.1,24.3-35.3,58.6-55.2,62.6-.6,91.2,89.9h7.4Zm-101.7-92.1h-56l.9-56.7,55.1-.6Zm-58.6-67.4-18.3-18.5,100.6-3-20.3,20.7Z" transform="translate(-7338.399 -2092.755)"/><polygon class="a" points="43.901 1779.495 137.601 1781.195 141.701 1876.195 148.501 1889.995 160.201 1889.995 152.101 1874.794 147.901 1775.395 143.001 1771.095 48.201 1768.895 46.101 1730.495 40.301 1724.294 4.001 1724.294 4.001 1734.794 35.401 1734.794 38.401 1774.294 43.901 1779.495"/><polygon class="a" points="191.101 1879.595 192.801 1875.395 193.301 1823.995 200.401 1780.195 296.301 1777.095 301.101 1771.794 302.001 1723.895 325.401 1722.695 325.601 1711.995 297.101 1713.095 291.901 1718.495 291.001 1766.495 196.101 1769.495 191.101 1774.695 183.101 1822.695 181.901 1874.395 169.601 1889.995 182.801 1889.495 191.101 1879.595"/><path class="a" d="M7385.4,3453.25v-40.3h93.2l4.9-4.7v-27.5l48.2.7,1.1,25.3,4.6,5.3,90.5,1.1,2.7,42.4,5.5,5.9,32.1,1.6.1-10.8-27-1.6-3-43-5.6-6-89.6-.1-1.7-65.4-4.8-6.4h-23.4l.2-51.5-10.2-.3-.7,51.5-23.4-.2-5.6,5.3-.5,67.6-92.3.1-5.1,5.7-.7,40.7-33.3-.5v11.2l38,.2Zm98.7-113.1,47.3.5v29.2h-47.5Z" transform="translate(-7338.399 -2092.755)"/><path class="a" d="M8529.8,3341.15l-.3,18.4-45.6,1.7-6.7-8.3-11.1-6.4-6.2-.1-12,8.8-4,4.5-.8,8.2-52.2,1.9v10.2l54.4-1.6,6.3,6.9,9.8,4.9h5.6l11.2-5.3,3.3-3.5,3.6-9.8,44.3-1.6.3,11.1,5.1,5.6,37.5-.4,5.2-5.5.3-9,30.3.5,6.1,8.9,10.4,4.9,6.1.5,9.7-5.1,3.2-4,3.6-9.1.4-6.2-4.1-11.1-3.8-4-8.8-3.8-6.5-.4-10.3,4.3-3.5,4.1-3,9.2-29.7.3v-18.8l-5-5.7-14.4-.9-.8-12.7-.5-46.9-10.7.4,1.1,49.2.8,9.6-13.6.6Zm-56.9,35-8.3,3.8-6.7-2.6-5-5.9,1.2-8.6,9.5-6.5,7.3,3.6,5.4,7.4Zm146.8-20.1,7.7-2.9,7.2,3.5,3.2,7.5-2.7,7.8-7,3.5-7-2.6-4.1-7.1Zm-52.4-9.6-.1,29h-26.8l-.2-29.3Z" transform="translate(-7338.399 -2092.755)"/><path class="a" d="M7995.6,2824.9l-5.4,5.4v32.9l-83.6,7.1-56.4,17.5-52.7,36.5-13.3-15.1,14.9-8.3,2.8-7.2-17.6-47.1-4.3-3-41.1-1.1-23.4-22.7h-11.2v4.1l26,24.8-10.5,40.7,1.8,6.1,33.7,27.5,6.1-.1,12.9-8.9,14.7,17.2-35.2,42.1-14,46.4-34.7.3v10.8l34.5.2,9.4,38.4,1.4,3.6,36.1,44.6-8.4,9.3-14-8.8-5.5-.2-38.6,18.8-3.3,6.7,11.5,46.5-22.2,35.8v19.5l30.4-48.9,43.5,3.6,5.7-3.6,15.8-38.4-.8-5.8-15-17.4,8.8-9.7,44.9,32.7,56.7,19.5,93.2,5.7V3209l3.5,5.2,22.3,6.1-.4,23.7h10.1l.9-23.2,25.1-4.8,4.1-5.8.4-26.4,83.9-8.5,53.8-14.9,52.6-37.8,8.2,10.9-13.1,11.5-2.2,6.6,14.6,42.3,5.4,4,41-1.2,40.7,45.7,5.1-.2.2-10.2-37.4-42,15.8-39.8-2.3-7.2-36.1-25.9h-5.8l-16.8,9.9-9.1-12.1,41.5-48.6,1.9-4.1,4-34,43.2.3-.1-10.8-43.3-.7-9-47.3-33.6-42.1,7-11.3,11.8,8.2,6.4.5,37.8-22.6,2.4-5.7-6-42.5,25.4-26.8v-7.7h-8.3l-24.8,26.2-44.8-3.8-5.4,2.5-19.5,42.1.7,6.9,16.1,15.9-6.9,10.7-50.9-35.5-63.1-16.5-81.1-5.5-.5-31.9-5.2-5.7-23.5-.4v-4.9h-10.2l.1,4.8Zm-237,87.2-27.7-22.5,9.4-36.7,36,1.2,14.2,38.8-15.8,8.4Zm32.5,243.8-13,32.8-39.9-3.5-10-41,33.3-16.1,14.1,9.4Zm62.8-258.5,53.7-16.2,82.7-7.6-.8,47.5-3.6,69.1-89.4,2-52.5-22.5-39.4-38Zm-9.3,130.7v-4.8l-12.2-28,10.4-14.1,51.6,21.8,91-1.6-.5,46.9-91.1.9-53.4,21-8.6-13.3Zm-23.1,24.5-19.5,7-14.1-8.3-6.7-26,6.2-26.7,18.2-8.3,16.8,7.9,12,27.8Zm-58.3-73.9,33.5-39.4,37.9,36-9.8,12.4-15.8-7-5.4-.7-23.3,10.5-2.7,3.5-5.7,25.7h-21Zm-3.9,87.4-8.9-35.4h21.2l6.5,25.3,3.1,3.5,17.7,11.1,5,.1,19.8-7,8.2,12.3-37.2,33.3Zm230.4,106.1-92.4-5.7-54.4-19-40.4-30.7,38.9-35.4,54.1-21.8,89.9-.5,5.3,71.1Zm274.8-34.6,17.3-10,30.8,22-14.4,36.2-36.7.5-12.4-35.6Zm22.1-77.6-40,47.1-31.4-29.8,11.4-14.8,16.7,5.9,6.1-.8,19.8-11.9,2.6-4.6,5.5-23.1h13.3Zm-78.9-55.4-.6,34.5,11.5,17.1-12.2,15.3-48-23-100.4-1.8-.1-44.8,79.1,1,73.2-27.9,9.1,14.7Zm21.5-10.3,16.1-5.1,15.9,8.8,6.6,24.7-6.1,24.8-16.9,10-16.1-5.5-10.6-15-.6-29.2Zm21.6-105.7,17.2-35.7,39.3,3.4,5.4,38.2-32.3,19.4-14.2-9.8Zm.4,47.1,31.2,38.4,7.8,42.8h-13l-6.7-23.7-2.7-3.9-21.6-11.1-18.3,5.2-8.9-14.5Zm-196.4-62.2,78.1,4.9,61.9,16.3,48.9,34.5-34.2,34.6-73,28.3-78.6-1.4-3.1-65.9Zm-.2,256.9,3.2-72.9,97.9,1.4,49.9,24,33.1,31.1-50.6,36.9-49.7,12.8-83.8,8.4Zm-53.9-257.1,43.1.2v41.3l-43.9-.4Zm43.8,332.5-23.4,4.5-21.7-4.7.6-22.5,44.5.5Zm-.3-33.6h-43.9l.9-37.1h43.4Zm.4-48-44-.8-4.6-64.6,50.9-1.1Zm3.1-77.5-52.3,1.1.8-46.5h51.1Zm-.5-56.1-51.1-.5,3.4-64.6h44.9Zm-3-155v26.9h-43.5v-27.3Z" transform="translate(-7338.399 -2092.755)"/><polygon class="a" points="509.801 500.395 510.801 549.695 516.201 555.294 524.701 555.294 524.401 692.995 534.201 693.095 534.501 554.395 666.701 552.695 666.701 542.294 520.701 543.895 520.301 365.895 509.701 365.895 509.901 488.895 414.301 488.695 371.501 365.895 360.701 365.895 407.401 499.995 509.801 500.395"/><polygon class="a" points="2562.101 817.495 2572.601 817.495 2572.601 710.195 2540.501 629.695 2531.201 633.794 2562.101 711.095 2562.101 817.495"/><polygon class="a" points="3178.701 671.794 3178.701 660.595 3089.801 663.495 2964.201 662.294 2964.201 672.195 3094.901 673.895 3178.701 671.794"/><path class="a" d="M8726.8,4262.55v5.6l11.3-1.4,67.1-71.7,141.5-3.4,60.8,2.1,11.2.9,67.8,70.1h6.3v-8.5l-66.3-68.4-1-71.2,56.9-11.7-20.5-7-41,8.3-42.1-.9-54.2-20.3-38.4-.9.4-46.5-10.3-3.5-1.4,49.4-69.4,3-37.1-29.6-35.4-39-7.3-.1v7.9l36.6,39.5,36.3,28.8v95.9Zm256.2-146.2,32.2,1,.1,66.2-6.3-.4v-20.1l-5.2-5.9h-21.3Zm-.5,51.6h16.4v14.6h-16.4Zm-53.4-70.2,43.3,17-.6,24.3-38,2-6.3-12.4Zm-48.9-3,38.8.9-1.7,28.9-72,4.8-2.2-32.2Zm38.8,40.4,7.7,14.4,5.5,2.9,39.5-2.4.1,32.1-26.1-1.1-132.2,2.6,29.6-42.8Zm-86.7-37.6,2.3,36.4-26.6,38.6-1.1-75Z" transform="translate(-7338.399 -2092.755)"/><path class="a" d="M9146.7,4109.5l-20.3.2,46.1,26.9,73.4.7v86.1l2.5,39.7,10.7-.1-2.2-35.8,134,.9v34.1l10.3-.1V4228l157.9-2.6-.3,35.7,10.3.1.4-35.8,40.3-.3,33.3,48.7,6.3,1.6v-11.1l-32.8-47.5-5-2.3h-59.2l-.8-76.8,11.2-.2,72.5-33-25.3.3-49.4,21.8-19.2.6-141.2-1.5.3-18.8-10.5.1v19.1l-146.4-.2-.2-17.4-10,.1-.6,17.5-58.7-.1Zm391.6,28h3l.3,56.1-4.3-10.7Zm-138.2-.3,128.1-.5-1.2,40.2-127.1.7Zm128.2,51,11.5,26.9-138.5,1.4-1.5-28Zm-271.7-51.3h132.7l.2,41.4-43.4,4.8-43.8-7.7-45.7-2.9Zm-.4,46.6,40.1,2.1,50.5,8.9,42.7-5.2,1.2,27.3-134.5-.9Z" transform="translate(-7338.399 -2092.755)"/><path class="a" d="M10005,5037.65l-106.6.4-71-24.2v-7.1l7.5-4.9,4.2-8.7-.2-7.1-2.5-5.6-5.3-4.6,4.3-4.4,28.9,24.1,6.2-7.7-32.8-28.2-27.6-1.2-39.2,24.4-3.2,4.8-.4,24.3-57.8-2.5-68.3,3.8-31.7,22.7-415.5,2.1-69.8-18.5v10.7l69.9,18.8,292.2-.5,1.4,267.5-9.4,24.9h11l9.7-24.8-1.7-267.3,115.9-2.3,23.4-17.9-2.1,39-.3,252.9,7.9,20.8h11.4l-9.3-23.7.8-253.4,2.2-41.3,60.7-2.5,65.1,2.4,47.7-.2,77.1,25.7,106.9-.3Zm-227.4-25.5v-21.4l32.5-20,3.7,3.8-5.1,4.3-3.8,9.5v5.1l5.4,9.1,6,4.2.1,5.8Zm44.6-14.6-4.8-2.5-2.3-4.5,3-5.6,3.7-2.7,5.6,3.2,2.2,5.2-2.8,4.8Z" transform="translate(-7338.399 -2092.755)"/><polygon class="a" points="2671.901 2712.895 2543.001 2713.695 2543.001 2723.294 2671.801 2724.095 2671.901 2712.895"/><polygon class="a" points="2530.801 2010.895 2531.401 2052.595 2536.801 2058.395 2567.001 2058.395 2565.801 2165.595 2538.101 2265.695 2547.601 2269.095 2575.901 2166.294 2577.501 2053.294 2572.501 2047.595 2541.601 2047.695 2541.701 2010.895 2530.801 2010.895"/><polygon class="a" points="2346.801 1076.895 2681.301 1076.695 2681.301 1065.794 2525.101 1065.794 2524.401 986.395 2542.801 967.595 2545.401 962.294 2547.301 850.995 2536.801 851.095 2535.201 960.995 2517.201 978.895 2514.001 983.395 2514.001 1065.395 2346.801 1066.495 2346.801 1076.895"/><path class="a" d="M12437.4,3730.25l.1-10.917h-10.3l2.4,127.317-2.4,60,2.4,34.8-1.8,75.4.6,53.5,9.2-.1v-6.5l43.5.3v5.9l9.7-.1v-5.6l47.8,1.2v4.1l10.7-.1v-4.2l47.2-.3v4.2h10.7v-4.4l41.3,1.8v2.3h10.5l3.2-122.9,2.5-42.6-3.2-36.4-.1-82.5-2-65.216h-10.8l-.2,12.317-40.8-1.7.1-10.616h-10l-.4,10.017-46,.9.2-10.916h-10.4l-.3,10.716-50.6-.6-.5-10.017h-10.5l.2,10.317Zm.2,176.3,2.6-55.5,19.9-36.2,7.1,6.2-6.4,20.5-6.4,31.7-.8,30.9,3.1,28.1,10.5,38.3-8.2,9.1-18.7-40Zm1-109.4,13.4,10.6-12.5,23Zm144.9,64.6,31.6-30.6,11,44.9,1.1,23.9-2.1,32.4-11,32.6-29-30.4,6.5-22.7.2-25.3Zm-5.5-9.6-7.5-10.4v-69.5l16.6,9,16.5,23.8,7.8,15.1Zm-12,54.5.6-14.3,14.8.4v13.9Zm13.5,9.9-4.7,17.2-15.2,21.3h-8.1v-38.1Zm-6.5-54,6.5,19.2-27.1.1v-32l10.3-1Zm-16.9,30.6v13.1l-17.5.4v-13.5Zm-39.1,40.7-3.3-17.3,27.9.8v38.1h-11.7Zm4.9,28.3-.3,61.3-19.3-10.8-14.6-19.3-8.2-20.1,31.3-29.3Zm-9.7-56.5.6-13.4,14.5.5v12.9Zm29.4-23.8-27.4-.5,5.5-20,10.9-11.5h11.5Zm-27.6-29.7-34.3-34.1,24.4-37.5,17.9-8.3,1.8,70.2Zm-5.2,9.7-6.3,23.2-.5,26.4,4.5,22.4-31.2,28.4-8.7-31.7-3.2-27,.5-29,5.4-25.9,6-19.9Zm-56.9,126.9-13.2,13,1-39.5Zm-13.8,64.3v-36.9l19-18.3,11.5,18.3,12.8,15.3.1,21.6Zm49.1-30.8-11.4-13.8-11.6-17.6,7.5-8.9,7.2,15.9,13.9,18.3Zm51.7,32.4-47.5-1.6.8-21,8.2-9.4,38.6,21.6Zm5.5-19.1-12.9-6.9.5-62h24.5l2,61.8Zm5,18.4v-9.7l40.6-18.8,6,5.7.5,22.9Zm38.1-39.4-18.6,9.7-1.9-62.2,13.1-18.2,30.3,32.2Zm61.7,41-42.3-1.6-.5-23.8,15.9-18.6,9.3-13.7,17.6,14.5Zm.6-56.6-12.7-10.2,14.3-19.6Zm2.1-47.7-37.5,54.5-13.4,15.8-3.4-3.5,23.3-40.4,14.5-44.6,2.2-30.3-1.3-29.2-12.5-51.6,4.5-6.3,23,50.8,3.2,41.5Zm-.6-111.2-15.3-32.9,14.6-10.6Zm-44.1-99.5,42.1,2.2,1.2,41.1-19.5,14.2-24.9-34.5Zm-6.7,32.8,22.3,32.1-4.2,5.6-8.3-14.6-13.9-19Zm-49-32.2,45-.6-.6,22.5-6.4,6.9-38-17.4Zm8.7,26.7v70.6l-12.9,1.6-13.1-1.7-2.1-69.8,14.7-6.1Zm-18.9-26.7v11.9l-39.4,17.7-8.7-8.2-2.6-21.9Zm-47.6,36.2-21.9,33.7-6.2-5.5,10.6-18.5,12.5-14.4Zm-10.7-14.3-13.4,16.3-12.2,19.9-19.5-16.1-.1-42.6h42.3Z" transform="translate(-7338.399 -2092.755)"/><polygon class="a" points="2598.402 3722.945 2603.302 3716.945 2607.203 3354.345 2601.802 3348.445 2322.902 3346.945 2306.703 3376.545 2294.902 3394.045 2285.703 3401.245 2273.703 3424.045 2282.402 3429.445 2322.302 3358.045 2524.802 3361.045 2524.703 3421.145 2505.802 3421.245 2505.502 3431.145 2529.902 3432.045 2535.203 3426.545 2535.902 3360.645 2596.402 3359.645 2593.402 3712.145 2538.802 3712.145 2539.302 3669.245 2534.002 3663.445 2511.102 3663.245 2510.703 3673.445 2528.402 3674.145 2527.602 3711.445 2230.802 3714.245 2229.302 3640.045 2219.102 3639.845 2220.502 3714.445 1923.802 3711.045 1923.602 3652.945 1945.203 3653.045 1945.102 3642.045 1918.203 3641.645 1912.902 3647.345 1913.002 3710.945 1859.502 3711.045 1859.203 3359.645 1893.602 3358.045 1894.703 3402.245 1899.502 3408.645 1932.002 3410.745 1932.102 3399.545 1905.203 3398.145 1905.102 3358.045 2129.902 3359.245 2172.102 3432.045 2181.002 3426.345 2158.703 3389.345 2136.902 3353.945 2136.502 3351.745 2132.902 3348.745 1899.602 3346.945 1853.502 3349.345 1849.102 3355.045 1848.703 3716.045 1854.302 3722.545 1919.502 3721.745 2221.402 3724.845 2223.502 3767.245 2233.802 3767.045 2231.203 3724.945 2534.302 3722.645 2598.402 3722.945"/><path class="a" d="M11061.507,5429.4l4.4,11.1,20.5,18.4,27.9,14.6,31.3,9.2,17.2,31v18.9l-6,15.4-7.7-4.4-55.2,1-5.3,5.3-.7,49.5,1.3,66.6,5.2,5.4h61.1l5.3,11.1,2.9,26.3-7.2,31.3-.9,16.1-32.5,22.5-31.4,31.9-32.2,25.3,16.8-.4,24.7-19.7,27.8-27.6,32.5-23.1,52.6,22.3,38.3,10.3,34.6-4.9,48.2-22,33.9-7.1,70.8,35.6,35.2,29.4,13.1.2v-3.1l-37.6-30.7,6.6-9.1,1.4-4.6-2-173.4,1.7-141.4-8.8-19.8,41.2-55.4.2-13.7h-3.1l-47.3,63.7-39.2,19.6-30.7,10.9-38,8-45.3,6.6-55.8-2.1-40.6-4.1-39-6.9-35-10.6-24.6-12.3-16.5-14.1-7.7-15.7-32.2-43.7h-12.1Zm91.2,231.3-54.2.7V5555.3l48.2-.9,6,3.8-3.4,11.3v76.6Zm17.9,19.7-7.1-17-4.1-18.8.5-30.2h29.8l5,23.5,16.2,23.9,26.6,17.2,16.7,2.7-.5,47.8-42.6,5.1-44.6,16.1v-9l7.1-32Zm28.8-71.7,4.8-22.8,13.5-21.8,20.8-14.3,21.5-6.4,20,3.9,22.7,16.4,14.5,20.8,7.2,25.9-9.2,25.3-12.4,17.3-20.5,13.6-22.3,5.4-19.3-3-23.4-16.1-13.7-19.4Zm131.7,152.3-46.6,21-31.5,4.9-30.9-7.9-28.1-10.7-19-8.8,37.5-13.4,47.3-6.2,36.2,3.2,36.8,7.8,16.1,6Zm35.7-60.2-7.2,20.5,3.8,29.1-28.5-10-35.8-7.5-34.6-3.1v-48.4l21.4-5.4,24-15.3,15.4-22.5,8.4-22.9h42.9l8.2,22,2.4,18.4-1.6,19Zm75,89-67.1-35.4-4.6-32.2,6.3-18.2,18.9-25.6,1.7-24-3.1-19.4s-6.6-20.7-6.8-20.7l59.1-.5,1.7,166.7Zm-41.4-317.6,40.3-18.9,7.2,14.7-1.8,135.5h-61.9l-5.2-20.4-.9-23.7,11.2-30.7-.5-22.9-10.3-25.2Zm-211.4,18.3,40.5,4.2,58.8,2.4,39.5-5.3,41-8.3,10.1,24.2.5,19-11.3,32.2.9,26.3,4.9,18.3-40,.9-7.8-24.5-17.3-24.4-25.7-18.3-23.1-4.3-25.4,7.6-24.1,16-15.8,25.7-4.4,21.9h-30.2l-.1-33.7,13.2-36.2v-23.3l-14.1-25.9Z" transform="translate(-7338.399 -2092.755)"/><path class="a" d="M13046.5,6209.85l-18.7-5-.4-179.7,15.8-8.8,42.5-1.4-.1-10.4-44.3,1-19.2,10.9-66,3.3-250.9.9H12590l-1.2-17.9-5.1-5.4h-29.9l.1,10.2,24.9.6-1.5,207.8-21.6-.1-.1,10.5,26.3.7,5.4-6-.1-6.8,370.2.5,65.3-.1,22.2,5.3,42.8,2.3-.2-11.1Zm-459-6.7,2.1-171.5,110.4-.6,2.4,173.4Zm123.2-172.1h239.6l.7,74.5-239.9.6Zm2.3,173.8-1.8-87.5,239.8-.7.6,87.5Zm304.5-1.4-55.3.8-1.4-174.2,57-2.4Z" transform="translate(-7338.399 -2092.755)"/><path class="a" d="M12477,6095.95l45.5-.8-.1-10.9-46.1.9-.6-21.8-5.4-17.2-12-13.8-17.8-6.4-62.5-1-141.7-.5-5-23.3-11.4-15.1-23.5-8.5-87.4-1.6-16.9,8.7-2.3,3.1-10.3,26.4-1.6,4.9-6,89.1-66.6-2.3,1.1-103.3-.1-148.7-10.1.2-.3,143.6-158.6,2.3-134.2-2.5-182.2,1.9v10.7h30l-.6,201.8H11521v10.4l34.6.3,146.3,1.1,133.1-1.8,159.6,2.5-.8,161.7,10.5-.2.9-269,66.1,2.5,5.9,110.1,2.5,4.7,26.4,18,96-.6,21-10.2,13.3-19.2.3-26.9,142.6-.6,54.5,1.1,23.3-4.7,14.5-19.2,5.4-24.6v-15.2l45.8,2.5v-10.1l-45.6-3.1Zm-780.5,117.1-135.6-1.3.5-202.1,136.9-1.1Zm132.6-1.6-122.4,2,1.3-204.4,124,1.3Zm165.8,2-155.3-2.7,2.6-200.5,153.7-1.3Zm231.6,5.7-10,14.4-16.2,7.9h-92l-21.2-14.2-5.5-113.1,6.2-93.6,10.2-26.9,12.5-7.3,84.8,1.7,18,6.8,8.4,10.8,4.9,24.5Zm146.4-34.8h-136l.3-149.2,135.7,1Zm89.2-17.5-10.5,14.9-18.4,3.4-50-1.3-.2-148h55.7l13.5,5,9.1,10.1,4.2,14,1.5,79.9Z" transform="translate(-7338.399 -2092.755)"/><polygon class="a" points="1891.601 4454.495 1901.801 4421.095 1901.801 4374.794 1891.601 4374.895 1891.601 4420.095 1882.601 4450.395 1876.701 4454.294 1882.201 4463.095 1889.101 4458.695 1891.601 4454.495"/><path class="a" d="M9812.8,6522.05l16.2,7.8,31.2,7.4,34.9,10.8,48.8-3.9.5,15.1,10,.1v-14.8l25.2-.8,5.5-5.6.5-28.5-4.9-5.9-19.9-.4-3.6-5.7-5.7-2.5-8.6,2.5-4.4,3.9-2,6.8-33.2,28.5-6.9,1-33.6-10.4-29.1-6.5-14-6.6-8.8-12.2-3.2-12.3-1.8-29.9-10.2.1,1.9,30.2,3.7,14.9Zm141.5.2,3.2-1.7,2.8-2.8,1.7-3.7h13.6l-.6,19.2-20.7.3Zm-6.7-15,3.3-.6,2.4,3-3.3,4-3.4-.3-.7-2.7Zm-8.8,12.5,2.6,2.4,2.6,1.5.3,10.1-23.7,1.6Z" transform="translate(-7338.399 -2092.755)"/><path class="a" d="M10747.4,6575.349l-.2-82.2-17.1-24.7-5.7-2.3-64,26.9-99,13.7-26.6-2.1-1.8-40.7-.4-122.9-.9-20.4.6-15.3-3.2-.2-7,1-.9,15.4,1.7,19.8v122.7l1.8,41.1-28.1,2.3-46.8-4.4-42.7-13.3-45-22.4-6,1.5-24.5,35.6-9.7,23.5-4.5,23.4,5,6.5h22.3v-4.3l6-5.9-21.9-.5,2.5-13.1,65.6-1.1-1.1,19.7v5.4l2.6.5,16.6,25.5-.3,23.2h-30.9l-.2-36.4h-5.2v47.5h41l5.3-5.8.8-24.4,65.5.8.5,86.5,5.4,5,27.6.7.4,81h10v-81.1l26.9-.9,5.2-5.6,1.3-80h66.9l2.9,6.8,10.3,7.3,5.5-.1,9.1-5.7,5-7,59.8.2v4l5,5.5,3.7.4,1,155.5h10.7l-1.7-155.8,5.5-.2,5-5.2v-18.6l-5-6.2Zm-338-74.1,33.7,10.2-4.5,10.2h-30.7Zm-11.8,20.6-62.4,1.1,5.9-14.7,21.2-29.9,36.4,18.5Zm94,55.5h-68.2l-17.4-25.6,1.4-19.3,33.6.2,4.9-3.4,7.2-15.7,39.3,3.7Zm65,92.4h-54.8l.5-152.4,28.3-2.2,26,1.7,1.4,71.4Zm99.9-75.2-5.7,3.1-4.5-1.8-2.2-6.2,2.4-4.8,4.7-2.5,4.9,1.9,3.1,5.7Zm80.5-19.7-4.3.5-4.6,5v4l-60.4-.4-4.4-6.7-7-3.6-9-.5-7.7,4.2-3.6,6.7h-67.6l-1.4-67.7,96-13,61.4-25.7,12.6,18.6Zm9.7,20.3h-8.8v-9.9h8.8Z" transform="translate(-7338.399 -2092.755)"/><path class="a" d="M11050.3,6585.5l-.1,5.4h16.3v5.4h20.3l4.8-5.3,1.9-58-2.7-4.1-11.8-8.8,4.3-11.4-.2-5.3-6-9.6-7.4-6.1-1.2-54-10.6.1,1.8,53.1-11.4,7.9-10.4-1.7-5,1.7-8.7,10.3-1.2,4.4,1.8,15.6,2.4,4.3,13.1,7.9h4.8l16.3-7.7,10.5-2.5,11.2,8.9-1.7,49.5Zm-7.2-58.2-8.7-5.2-1.3-11.5,5.9-6.4,5.7,1,2.7,10.6,4.7,7.3Zm25.8-9.7-6.9,1.5-5.2-7.1-2.2-8.9,9.6-6.3,5.8,4.2,3.2,6.2Z" transform="translate(-7338.399 -2092.755)"/><path class="a" d="M11094.6,6443.4l-8.2-9.9-14.9.1,14.2,15.1-1.6,19.4,5.1,5.9,24.6.3-4.7,6.4.1,217.4,6.1,6,75.6-1.3,29.8-14.2,24.9,7.1v67.8h10.3v-67.3l29.4-7.1,23.9,14.2,78.6-.3,4.9-6.6V6480.1l-5.5-6.1-76.8-.8-31.5,11.5-20-4.4,3.8-48.5-10.6.1-3.8,48.2-24.2,2.8-31-8.5h-65l-.1-5.2-4.5-4.6-28.5-.8,1.2-15.5Zm216.7,40.7,71.2.6-.2,207.5-71.3.7-14.9-9.6,16.9-11.7,20.5-20.7,14.2-23.8,6.7-30.4v-25.6l-10-28.1-18.2-27.2-22.2-19.2-10.6-5.9Zm-85.8,9.6,27.5-3.7,21.9,4.6,23.8,11.7,18.6,17.9,16.2,23.2,9.1,22.7.9,25.1-6.6,25-13.2,25-15.4,18.3-25.1,15.4-32,8.2-28.9-8.7-22.7-15.1-15.9-14.3-14.5-22.5-6.9-18.8-2.1-17.8,1.5-30.7,7.9-21.3,13.6-18.6,19.8-15.4Zm-33.4-8.9,17.2,4.8-12.3,5.9-20.3,15.8-15.8,22.1-8.3,25.3-1.8,32.5,1.8,19.4,7.7,19.3,14.2,24.6,18.4,17,16.8,10.8-20,10.5-70.1.9-.3-208.5Z" transform="translate(-7338.399 -2092.755)"/><path class="a" d="M12468.2,6605.75l-.5,5.5-14.6-.4-.3-56.5-5.1-5.9-8.7-.1-.8-33.3-5.1-5.2-95.3-1.2.5-66,26.8-2.9,4.5-5.7-.2-20.2-10.1.2v15.1l-26.4,3.4-4.8,5.5-1.1,75.3-9.4,41.9v57.1l9,78.3,1.7,35-9.5,36.3h10.9l9.4-37.3-1.5-33.3,9.2-.9-.5,21.3,5.4,6.1,54.6-.1.5,44.2h9.9v-49.2l-5-5.5-54.8-.1.9-21,15.3-16.6,42.6.8,5.6-5.4v-22.9l27.3-1,5-5.2v-14l19,.5,5.2-5.5v-4.9l44.7-.7v-10.6l-49.3.2Zm-118,72.8-13.7,1.7-4.3-33.1,22.4.5,10,15.6Zm65.7-47.3-5.6,5.9v22.4l-36.3-1-12.5-19.2-4.3-2.4-26.3-.6-3.2-25.5v-54.5l8.6-36.5,91.8.5.2,33.3,5.7,5,8.3.4,1,71.5Z" transform="translate(-7338.399 -2092.755)"/><path class="a" d="M10039.1,7516.75v10.2l124.9-.6,48.3,1.2,5-5.5.8-147.1-4.4-5.7-43.7-1.2v-74.7l-5-5.5-126.5-1.1v10.8l121.6,1-1.4,217.1Zm130.5-138.1,38.2.5-.8,137.3-38-1Z" transform="translate(-7338.399 -2092.755)"/><polygon class="a" points="2880.001 5571.895 2868.901 5576.195 2860.701 5556.995 2854.701 5553.895 2701.101 5608.395 2701.101 5619.595 2853.601 5565.595 2860.901 5583.595 2866.901 5586.895 2878.501 5583.095 2879.301 5584.294 2888.801 5580.895 2886.701 5575.395 2880.001 5571.895"/><polygon class="a" points="3896.5 5001.445 3750.401 4999.645 3747.8 4830.544 3896.401 4829.044 3896.401 4820.445 3744 4821.544 3735.401 4813.645 3713.701 4813.745 3713.701 4818.445 3717.101 4820.544 3728.3 4821.544 3737.201 4827.245 3740 5004.245 3744.101 5008.345 3896.5 5008.845 3896.5 5001.445"/><polygon class="a" points="4090.602 4916.745 4090.102 4826.245 4105.801 4813.345 4090.501 4813.345 4083.902 4818.845 3929.001 4820.044 3929.001 4828.445 4079.902 4828.445 4082.001 5002.845 3929.801 5001.445 3929.801 5008.945 4091.702 5009.945 4092.801 5006.645 4092.801 4993.245 4117.902 4994.345 4117.402 5010.044 4128.001 5010.145 4128.301 4989.745 4123.202 4983.745 4092.602 4982.745 4091.001 4927.645 4120.602 4926.745 4147.202 4927.544 4147.202 4917.245 4120.602 4915.544 4090.602 4916.745"/><polygon class="a" points="4473.601 5083.495 4496.301 5089.595 4502.701 5084.095 4500.601 5052.495 4501.101 4996.195 4512.901 4962.794 4500.401 4967.294 4490.801 4995.294 4490.701 5044.195 4472.001 5040.495 4453.301 5021.294 4449.801 5009.095 4460.401 4981.794 4447.201 4986.595 4439.401 5007.195 4439.301 5010.995 4443.601 5025.794 4467.701 5049.895 4490.401 5055.095 4491.801 5077.395 4475.301 5073.395 4450.701 5073.195 4424.001 5063.995 4394.301 5060.294 4366.201 5063.995 4306.701 5084.995 4274.301 5087.395 4260.801 5056.995 4251.101 5060.695 4266.401 5094.294 4271.701 5097.794 4309.101 5095.195 4367.901 5074.595 4393.701 5070.695 4421.001 5074.195 4448.801 5083.695 4473.601 5083.495"/><path class="a" d="M11406.9,8095.9l-31.7-36,61.4-30.267-.8-1.1-2.8-8.5-62.3,30.167-10.1-51.2,13.1-1.7,56.4-17.166-.8-9.9-56.7,16.366-12.8,1.6-.5-20-.6-35.6,2.6-52.8,49.3,1.833,1.4-9.8-49.5-3.333,9.9-48.8,44.366,32.933.7-3.2,3.6-6.5L11376.6,7809.5l33.3-44.6,32.4,52.733,2.9-2.2,5.7-2.5-36.1-59.633-17.1-23,27.8-27.4,2.6-4.5,2-20.8-3.7-5.7-3.5-.9v.9l-3.8,9.5-1.5,14.7-26.1,25-10.151-14.05-9.8,3.4,10.852,16.351-41.3,17.7-5.127-26.2-5.8,1.1-4.8.1,5.327,27.4-41.3.2,5.072-28.176h-1.9l-9-1.8-5.272,28.776s-20.2-5.6-20.1-5.6-20-15.7-20-15.7l8.9-15.676-6-1.1-4.1-2.4-6.8,12.576-26.8-20.1-.5-23.8,7.447.2-.8-9.1v-1.5H11197.3l-4.7,4.9v30.5l2.6,5.5,53,41.3-22.5,24.1v7.5l15,18.1-10.2,10.7-31.9,9.3-3.7,10.9v15l34.8,83.6,2.9,3.4,15.2,5.4h14.7l-.3,25.9,3,4.9,12.8,6.2,70.6,2.4.9,22,12.3,64.5,42.1,48.1h7.3l41.4-60.934-7.6-5.3Zm-169-176.8-32.9-80.2v-15.1l23.7-5.7,12.6,102.2Zm110.3,16.1.3,27.2-70.5-2.1-5.4-3.6.3-28.5-5.5-5.6-15.3.6-13.6-110.3,13.1-13.4v-7.1l-15.3-18.1,21.3-23.4,22.4,6.6,58.1-.6,50.4-21.3,15.3,20.3-39.5,53.2-13,64.1Z" transform="translate(-7338.399 -2092.755)"/><polygon class="a" points="1136.001 939.794 1136.001 856.695 1184.401 856.695 1184.401 1000.495 1189.901 1005.995 1207.901 1005.995 1207.901 1151.995 1218.801 1151.995 1218.801 1005.995 1360.901 1005.995 1360.901 994.995 1195.301 994.995 1195.301 725.995 1184.401 725.995 1184.401 845.794 1136.001 845.794 1136.001 725.995 1125.001 725.995 1125.001 934.294 1035.901 934.294 1035.901 945.294 1130.501 945.294 1136.001 939.794"/><polygon class="a" points="1100.701 1318.995 1098.701 1319.395 1078.701 1327.495 1075.201 1332.595 1075.201 1353.294 1086.201 1353.294 1086.201 1336.294 1101.801 1329.995 1324.201 1329.995 1325.801 1329.794 1364.501 1318.294 1361.301 1307.695 1323.401 1318.995 1100.701 1318.995"/><polygon class="a" points="1291.901 1379.794 1128.601 1379.794 1123.101 1385.294 1123.101 1404.995 1045.601 1404.995 1045.601 1415.995 1128.601 1415.995 1134.101 1410.495 1134.101 1390.794 1152.801 1390.794 1152.801 1426.695 1163.801 1426.695 1163.801 1390.794 1286.401 1390.794 1286.401 1410.495 1291.901 1415.995 1356.501 1415.995 1356.501 1404.995 1297.401 1404.995 1297.401 1385.294 1291.901 1379.794"/><polygon class="a" points="1362.701 1723.095 1341.901 1723.095 1336.401 1728.595 1336.401 1752.195 1084.801 1752.195 1084.801 1728.595 1079.301 1723.095 1043.601 1723.095 1043.601 1734.095 1073.801 1734.095 1073.801 1757.695 1079.301 1763.195 1341.901 1763.195 1347.401 1757.695 1347.401 1734.095 1362.701 1734.095 1362.701 1723.095"/><polygon class="a" points="1764.301 526.195 1630.401 526.195 1630.401 367.895 1619.401 367.895 1619.401 526.195 1539.801 526.195 1539.801 367.895 1528.801 367.895 1528.801 526.195 1387.301 526.195 1387.301 537.195 1764.301 537.195 1764.301 526.195"/><polygon class="a" points="2189.101 552.395 2189.101 690.794 2189.901 693.595 2222.101 747.595 2231.601 741.895 2200.101 689.195 2200.101 549.995 2198.401 545.995 2193.101 540.995 2206.101 530.294 2317.901 530.294 2317.901 519.294 2204.101 519.294 2200.601 520.595 2185.101 533.495 2178.901 527.695 2175.101 526.195 1786.601 526.195 1786.601 537.195 2172.901 537.195 2189.101 552.395"/><polygon class="a" points="2776.101 762.495 2776.101 750.794 2811.101 750.794 2813.601 750.095 2859.201 726.495 2930.501 726.495 2930.501 715.495 2857.901 715.495 2855.301 716.095 2809.801 739.794 2770.601 739.794 2765.101 745.294 2765.101 756.995 2715.601 756.995 2715.601 767.995 2770.601 767.995 2776.101 762.495"/><polygon class="a" points="3246.001 710.995 3251.501 716.495 3330.401 716.495 3335.901 710.995 3335.901 684.294 3463.101 684.294 3463.101 778.495 3449.401 778.495 3449.401 771.995 3443.901 766.495 3419.401 766.495 3413.901 771.995 3413.901 817.695 3424.901 817.695 3424.901 777.495 3438.401 777.495 3438.401 783.995 3443.901 789.495 3468.601 789.495 3474.101 783.995 3474.101 684.294 3568.401 684.294 3573.901 678.794 3573.901 659.995 3610.901 659.995 3610.901 678.794 3616.401 684.294 3662.001 684.294 3662.001 673.294 3621.901 673.294 3621.901 654.495 3616.401 648.995 3568.401 648.995 3562.901 654.495 3562.901 673.294 3474.101 673.294 3474.101 601.794 3468.601 596.294 3414.401 596.294 3414.401 569.794 3438.701 569.794 3444.201 564.294 3444.201 517.195 3433.201 517.195 3433.201 558.794 3408.901 558.794 3403.401 564.294 3403.401 601.794 3408.901 607.294 3463.101 607.294 3463.101 673.294 3330.401 673.294 3324.901 678.794 3324.901 705.495 3257.001 705.495 3257.001 689.495 3251.501 683.995 3211.301 683.995 3211.301 694.995 3246.001 694.995 3246.001 710.995"/><path class="a" d="M10734.9,2551.75l1.3,5.1,9.3,9.9v13.8h11v-13.3l5.9-4.6,1.2-1.4,36.1-56.1,70.7-62.8-7.3-8.2-41.4,36.8-23.9-4.7-70.5-133.4-9.7,5.1,46.8,88.5Zm76.5-71.5-10.9,9.7-.5-11.9Zm-22.6-7.4,1.1,27.5-35,54.4-3.3,2.6-5.3-5.6,25.9-110.3Z" transform="translate(-7338.399 -2092.755)"/><polygon class="a" points="4065.101 254.794 4059.601 249.294 3926.301 249.294 3926.301 130.495 3915.301 130.495 3915.301 358.495 3686.901 358.495 3686.901 369.495 3915.301 369.495 3915.301 486.995 3926.301 486.995 3926.301 260.294 4054.101 260.294 4054.101 309.728 4059.601 315.228 4160.901 315.228 4160.901 304.228 4065.101 304.228 4065.101 254.794"/><polygon class="a" points="3752.401 616.595 3731.401 616.595 3725.901 622.095 3725.901 641.794 3690.801 641.995 3690.901 652.995 3731.401 652.794 3736.901 647.294 3736.901 627.595 3746.901 627.595 3746.901 638.294 3752.401 643.794 3761.901 643.794 3761.901 652.995 3767.401 658.495 3783.401 658.495 3788.901 652.995 3788.901 643.294 3838.101 643.294 3843.601 637.794 3843.601 613.294 3909.401 613.294 3909.401 602.294 3838.101 602.294 3832.601 607.794 3832.601 632.294 3783.401 632.294 3777.901 637.794 3777.901 647.495 3772.901 647.495 3772.901 638.294 3767.401 632.794 3757.901 632.794 3757.901 622.095 3752.401 616.595"/><polygon class="a" points="3932.601 711.294 4040.601 711.294 4040.601 827.495 4051.601 827.495 4051.601 711.294 4159.601 711.294 4159.601 700.294 3932.601 700.294 3932.601 711.294"/><polygon class="a" points="4031.393 1062.995 3932.601 1062.995 3932.601 1073.995 4025.893 1073.995 4025.893 1154.294 4031.393 1159.794 4049.901 1159.794 4055.401 1154.294 4055.401 1109.294 4152.601 1109.294 4152.601 1098.294 4049.901 1098.294 4044.401 1103.794 4044.401 1148.794 4036.893 1148.794 4036.893 1068.495 4031.393 1062.995"/><rect class="a" x="3689.101" y="941.995" width="221.5" height="11"/><polygon class="a" points="3768.601 939.995 3768.601 862.995 3763.101 857.495 3735.101 857.495 3729.601 862.995 3729.601 902.794 3691.901 902.794 3691.901 913.794 3735.101 913.794 3740.601 908.294 3740.601 868.495 3757.601 868.495 3757.601 939.995 3768.601 939.995"/><rect class="a" x="3487.101" y="850.495" width="11" height="215"/><polygon class="a" points="3076.401 1014.495 3076.401 847.995 3065.401 847.995 3065.401 1008.995 2957.401 1008.995 2957.401 1019.995 3070.901 1019.995 3076.401 1014.495"/><path class="a" d="M10519.5,3205.25v-11h-79.7l-5.5,5.5v85.2l5.5,5.5h8.8v97.6h11v-97.6h9.8l5.5-5.5v-8.5h46.5l-.1-11h-46.5v-60.2Zm-55.7,74.2h-18.5v-17.5h18.5Zm0-28.5h-18.5v-7.2h18.5Zm0-18.2h-18.5v-13h18.5Zm0-24h-18.5v-3.5h18.5Z" transform="translate(-7338.399 -2092.755)"/><polygon class="a" points="2065.801 1178.395 2071.301 1183.895 2075.801 1183.895 2085.101 1261.294 2085.101 1294.995 2096.101 1294.995 2096.101 1260.294 2086.101 1177.695 2080.601 1172.895 2076.801 1172.895 2076.801 1123.095 2095.101 1126.395 2097.101 1115.595 2076.801 1111.895 2076.801 1080.095 2183.401 1080.095 2183.401 1172.895 2174.901 1172.895 2174.101 1173.595 2150.701 1168.895 2148.501 1179.695 2169.401 1183.895 2169.401 1216.895 2161.801 1218.995 2157.901 1223.794 2150.501 1296.395 2161.401 1297.595 2168.401 1228.595 2176.401 1226.294 2180.401 1220.995 2180.401 1183.895 2188.901 1183.895 2194.401 1178.395 2194.401 1080.095 2325.901 1080.095 2325.901 1069.095 1975.001 1069.095 1914.401 917.995 1904.201 921.995 1963.101 1069.095 1786.601 1069.095 1786.601 1080.095 2065.801 1080.095 2065.801 1178.395"/><polygon class="a" points="1503.501 958.095 1529.501 914.294 1530.301 911.495 1530.301 862.695 1556.901 862.695 1562.401 857.195 1562.401 724.294 1551.401 724.294 1551.401 851.695 1524.801 851.695 1519.301 857.195 1519.301 909.995 1495.601 949.794 1384.801 949.794 1384.801 960.794 1498.801 960.794 1503.501 958.095"/><polygon class="a" points="1385.601 1224.195 1385.601 1235.195 1585.101 1235.195 1585.101 1295.195 1596.101 1295.195 1596.101 1229.695 1590.601 1224.195 1546.101 1224.195 1546.101 1195.695 1545.701 1193.495 1510.201 1112.595 1500.101 1116.995 1535.101 1196.794 1535.101 1224.195 1385.601 1224.195"/><polygon class="a" points="1597.401 1316.995 1586.401 1316.995 1586.401 1429.294 1550.901 1429.294 1545.401 1434.794 1545.401 1474.495 1513.901 1474.495 1508.401 1479.995 1508.401 1600.995 1519.401 1600.995 1519.401 1485.495 1550.901 1485.495 1556.401 1479.995 1556.401 1440.294 1765.601 1440.294 1765.601 1429.294 1597.401 1429.294 1597.401 1316.995"/><polygon class="a" points="2242.901 1449.995 2242.901 1441.495 2320.401 1441.495 2320.401 1430.495 2237.401 1430.495 2231.901 1435.995 2231.901 1444.495 2161.401 1444.495 2161.401 1455.495 2237.401 1455.495 2242.901 1449.995"/><rect class="a" x="2088.601" y="1462.794" width="11" height="135.8"/><polygon class="a" points="1919.401 1484.794 1919.401 1465.395 1968.901 1465.395 1968.901 1465.794 1974.401 1471.294 2035.401 1471.294 2037.701 1470.695 2056.701 1461.995 2052.001 1451.995 2034.101 1460.294 1979.901 1460.294 1979.901 1459.895 1974.401 1454.395 1936.601 1454.395 1936.601 1323.995 1925.601 1323.995 1925.601 1454.395 1913.901 1454.395 1908.401 1459.895 1908.401 1479.294 1784.601 1479.294 1784.601 1490.294 1913.901 1490.294 1919.401 1484.794"/><polygon class="a" points="2548.101 1599.794 2548.101 1444.794 2685.601 1444.794 2685.601 1433.794 2534.301 1433.794 2534.301 1322.495 2523.301 1322.495 2523.301 1439.294 2528.801 1444.794 2537.101 1444.794 2537.101 1599.794 2548.101 1599.794"/><polygon class="a" points="2860.401 1506.495 2860.401 1451.995 2854.901 1446.495 2780.101 1446.495 2780.101 1402.995 2935.101 1402.995 2935.101 1391.995 2774.601 1391.995 2769.101 1397.495 2769.101 1451.995 2774.601 1457.495 2849.401 1457.495 2849.401 1500.995 2708.401 1500.995 2708.401 1511.995 2854.901 1511.995 2860.401 1506.495"/><polygon class="a" points="3009.901 1371.495 3009.901 1322.495 2998.901 1322.495 2998.901 1365.995 2954.601 1365.995 2954.601 1376.995 3004.401 1376.995 3009.901 1371.495"/><path class="a" d="M11245.4,3368.85v31.8h-9.9l-5.5,5.5v25.4l5.5,5.5h9.9v4.9H11231l-5.5,5.5v25.8l.4,1.9,6.6,17.6v30.4h-73.2l-5.5,5.5v12.3h-47.3v-14.4l-5.5-5.5h-18l-5.5,5.5v14.4h-3v-26.4l-5.5-5.5h-40.8v11h35.3v52.8h-35.3v11h40.8l5.5-5.5v-26.4h3v14.4l5.5,5.5h18l5.5-5.5v-14.4h47.3v12.3l5.5,5.5h73.2v97.6h-13.6l-3.9,9.4,30.3,30.3v27.6h11.3v-27.6l30.3-30.3-3.9-9.4h-13.6v-97.6h74.5l5.5-5.5v-35.5l-5.6-5.6h-74.5v-30.4l6.6-17.6.4-1.9v-25.8l-5.5-5.5h-14.4v-4.9h9.9l5.5-5.5v-25.4l-5.5-5.5h-9.9v-31.8Zm-149.9,191.9h-7v-28.8h7Zm69.3-2.1v-24.5h67.7v24.5Zm104.8,119.6-18.8,18.8-18.8-18.8h5.9l1-1v1Zm-11.3-108.6v97.6h-14.8v-97.6Zm-14.8-11v-24.5h14.8v24.5Zm25.8-24.5h69v24.5h-69Zm-4-81.1v19.2l-6.6,17.6-.4,1.9v31.4h-14.8v-31.4l-.4-1.9-6.6-17.6v-19.2Zm-4.6-41.3v14.4h-19.8v-14.4Z" transform="translate(-7338.399 -2092.755)"/><polygon class="a" points="4008.401 1871.395 4033.601 1871.395 4033.601 1924.495 4039.101 1929.995 4053.601 1929.995 4053.601 1984.495 4064.601 1984.495 4064.601 1924.495 4059.101 1918.995 4044.601 1918.995 4044.601 1865.895 4039.101 1860.395 4013.901 1860.395 4013.901 1828.495 4010.301 1824.895 4010.301 1807.595 4018.201 1799.595 4019.901 1795.794 4019.901 1743.495 4025.901 1743.495 4031.401 1737.995 4031.401 1724.294 4025.901 1718.794 4011.901 1718.794 4011.901 1709.794 4057.901 1709.794 4063.401 1704.294 4063.401 1667.294 4052.401 1667.294 4052.401 1698.794 4006.401 1698.794 4000.901 1704.294 4000.901 1724.294 4006.401 1729.794 4020.401 1729.794 4020.401 1732.495 4014.401 1732.495 4008.901 1737.995 4008.901 1793.495 4000.901 1801.395 3999.301 1805.294 3999.301 1822.995 3992.201 1822.995 3992.201 1813.895 3986.701 1808.395 3966.401 1808.395 3960.901 1813.895 3960.901 1820.995 3928.901 1820.995 3928.901 1831.995 3966.401 1831.995 3971.901 1826.495 3971.901 1819.395 3981.201 1819.395 3981.201 1828.495 3986.701 1833.995 4002.901 1833.995 4002.901 1865.895 4008.401 1871.395"/><polygon class="a" points="3686.101 1848.995 3733.401 1848.995 3733.401 1855.995 3738.901 1861.495 3772.401 1861.495 3777.901 1855.995 3777.901 1843.495 3772.401 1837.995 3756.901 1837.995 3756.901 1822.294 3905.101 1822.294 3905.101 1811.294 3751.401 1811.294 3745.901 1816.794 3745.901 1843.495 3751.401 1848.995 3766.901 1848.995 3766.901 1850.495 3744.401 1850.495 3744.401 1843.495 3738.901 1837.995 3686.101 1837.995 3686.101 1848.995"/><polygon class="a" points="2988.901 1852.495 2994.401 1857.995 3060.401 1857.995 3065.901 1852.495 3065.901 1844.995 3069.401 1844.995 3069.401 1845.495 3074.901 1850.995 3100.601 1850.995 3100.601 1865.495 3106.101 1870.995 3147.901 1870.995 3153.401 1865.495 3153.401 1850.995 3182.101 1850.995 3182.101 1839.995 3147.901 1839.995 3142.401 1845.495 3142.401 1859.995 3111.601 1859.995 3111.601 1845.495 3106.101 1839.995 3080.401 1839.995 3080.401 1622.495 3069.401 1622.495 3069.401 1833.995 3060.401 1833.995 3054.901 1839.495 3054.901 1846.995 2999.901 1846.995 2999.901 1839.495 2994.401 1833.995 2954.601 1833.995 2954.601 1844.995 2988.901 1844.995 2988.901 1852.495"/><polygon class="a" points="2752.901 1836.995 2706.101 1836.995 2706.101 1847.995 2747.401 1847.995 2747.401 1857.995 2752.901 1863.495 2879.401 1863.495 2884.901 1857.995 2884.901 1831.794 2930.401 1831.794 2930.401 1820.794 2879.401 1820.794 2873.901 1826.294 2873.901 1852.495 2758.401 1852.495 2758.401 1842.495 2752.901 1836.995"/><path class="a" d="M9710.7,3909.65l5.5,5.5H10022v-11H9780.5v-25.4h75.1l5.5-5.5v-26.3h112.1l16.9,16.9,3.9,1.6h59.6l5.5-5.5v-50.4c0-29.3-21.3-50.5-50.6-50.5h-64.4v-43.8h-11v66.8l5.5,5.5h47.9v29h-4.3v-12.5l-5.5-5.5H9811l-5.5,5.5v63.8H9775l-5.5,5.5v30.8h-47.8v-12.8l-5.5-5.5h-40v11h34.5Zm105.8-100.1h154.8v12.5l5.5,5.5h15.3l5.5-5.5v-40l-5.5-5.5h-47.9v-6.5h64.4c23.3,0,39.6,16.3,39.6,39.6l-.1,44.9h-51.8l-16.9-16.9-3.9-1.6H9855.6l-5.5,5.5v26.3h-33.6Z" transform="translate(-7338.399 -2092.755)"/><polygon class="a" points="1942.601 1821.294 1948.101 1815.794 1948.101 1799.495 2019.101 1799.495 2024.601 1793.995 2024.601 1622.495 2013.601 1622.495 2013.601 1788.495 1942.601 1788.495 1937.101 1793.995 1937.101 1810.294 1915.201 1810.294 1898.801 1790.495 1890.401 1797.495 1908.401 1819.294 1912.601 1821.294 1918.901 1821.294 1918.901 1877.895 1924.401 1883.395 1948.401 1883.395 1948.401 1987.495 1959.401 1987.495 1959.401 1877.895 1953.901 1872.395 1929.901 1872.395 1929.901 1821.294 1942.601 1821.294"/><polygon class="a" points="3004.001 2207.895 3034.601 2187.794 3058.901 2187.794 3064.401 2182.294 3064.401 2176.794 3069.401 2176.794 3069.401 2193.294 3074.901 2198.794 3104.301 2198.794 3109.801 2193.294 3109.801 2176.794 3116.401 2176.794 3116.401 2193.294 3121.901 2198.794 3182.301 2198.794 3182.301 2187.794 3127.401 2187.794 3127.401 2171.294 3121.901 2165.794 3104.301 2165.794 3098.801 2171.294 3098.801 2187.794 3080.401 2187.794 3080.401 2171.294 3074.901 2165.794 3058.901 2165.794 3053.401 2171.294 3053.401 2176.794 3032.901 2176.794 3029.901 2177.695 2999.301 2197.794 2948.301 2197.794 2948.301 2208.794 3000.901 2208.794 3004.001 2207.895"/><path class="a" d="M10713.1,4307.75l5.5,5.5h16l5.5-5.5v-5.2h85.3l5.5-5.5v-8.5h172.2v-11h-166.9v-123.5l-5.5-5.5h-53v-51.5h-11v51.5h-53l-5.5,5.5v123.5h-164.8v11h169.7Zm6.1-148.2h106v118.2l-5.3,5.3v8.5h-85.4l-5.5,5.5v5.2h-5v-19.2l-4.8-4.8Z" transform="translate(-7338.399 -2092.755)"/><polygon class="a" points="3906.901 2112.794 3906.901 2101.794 3816.101 2101.794 3816.101 2094.695 3810.601 2089.195 3794.901 2089.195 3789.401 2094.695 3789.401 2101.794 3721.601 2101.794 3721.601 2112.794 3794.901 2112.794 3800.401 2107.294 3800.401 2100.195 3805.101 2100.195 3805.101 2107.294 3808.801 2110.995 3808.801 2132.294 3814.301 2137.794 3876.601 2137.794 3876.601 2126.794 3819.801 2126.794 3819.801 2112.794 3906.901 2112.794"/><polygon class="a" points="3980.601 2118.294 3980.601 2107.294 3975.101 2101.794 3944.601 2101.794 3939.101 2107.294 3939.101 2147.495 3927.901 2147.495 3927.901 2158.495 3944.601 2158.495 3950.101 2152.995 3950.101 2112.794 3969.601 2112.794 3969.601 2118.294 3980.601 2118.294"/><path class="a" d="M11409.7,4331.951l5.5-5.5v-14.5l-1.8-3.8-2.3-2.3,1.9-1.9,1.6-3.9v-5.2l-1.6-3.9-8-8-3.9-1.6h-12.3v-34.8h18.8l5.4-6.7-5.9-26.7v-11.9l-3.4-5.1-18.3-7.8h-4.2l-5.7,2.4v-22.8l-1.6-3.9-15.4-15.4v-48.2h-11v50.5l1.6,3.9,15.4,15.4v25.1l-1.6.7-3.4,5.1v11.9l-5.9,26.7,5.4,6.7h18.8v34.8h-12.3l-3.9,1.6-8,8-1.6,3.9v5.2l1.6,3.9,1.9,1.9-2.3,2.3-1.6,3.9v14.5l5.5,5.5h19.8v9.6l1.1,3.2,9.6,13.2v18h11v-19.8l-1.1-3.2-9.6-13.2v-7.8Zm-44-96.4,4.5-20.6.1-1.2v-8.9l12.8-5.4,12.8,5.4v8.9l.1,1.2,4.5,20.6Zm1.9,56.7h31.1l4.8,4.8v.7l-1.4,1.4h-37.8l-1.4-1.4-.1-.7Zm-5.2,28.8v-6.7l4.1-4.1h33.4l4.1,4.1v6.7Z" transform="translate(-7338.399 -2092.755)"/><polygon class="a" points="2924.401 2671.495 2924.401 2792.794 2795.601 2792.794 2791.601 2794.495 2763.001 2825.195 2732.801 2839.794 2698.101 2839.794 2698.101 2850.794 2734.101 2850.794 2736.501 2850.195 2768.701 2834.695 2770.401 2833.495 2798.001 2803.794 2926.101 2803.794 2925.901 2803.995 2939.601 2817.695 2943.501 2819.294 3027.101 2819.294 3032.601 2813.794 3032.601 2758.794 3042.901 2758.794 3042.901 2772.495 3048.401 2777.995 3072.101 2777.995 3072.101 2908.495 3056.601 2908.495 3051.101 2913.995 3051.101 2946.794 2985.601 2946.794 2980.101 2952.294 2980.101 3027.495 2977.201 3030.395 2885.101 3030.395 2879.601 3035.895 2879.601 3062.995 2853.901 3062.995 2853.901 3057.095 2842.901 3057.095 2842.901 3068.495 2848.401 3073.995 2885.101 3073.995 2890.601 3068.495 2890.601 3041.395 2979.501 3041.395 2983.401 3039.794 2989.501 3033.595 2991.101 3029.794 2991.101 2957.794 3056.601 2957.794 3062.101 2952.294 3062.101 2919.495 3077.601 2919.495 3083.101 2913.995 3083.101 2847.794 3103.601 2847.794 3103.601 2881.794 3109.101 2887.294 3178.401 2887.294 3178.401 2876.294 3114.601 2876.294 3114.601 2842.294 3109.101 2836.794 3083.101 2836.794 3083.101 2772.495 3077.601 2766.995 3053.901 2766.995 3053.901 2758.794 3066.601 2758.794 3072.101 2753.294 3072.101 2729.995 3066.601 2724.495 3025.401 2724.495 3025.401 2735.495 3061.101 2735.495 3061.101 2747.794 3027.101 2747.794 3021.601 2753.294 3021.601 2808.294 2945.701 2808.294 2935.401 2797.995 2935.401 2671.495 2924.401 2671.495"/><path class="a" d="M11263,6111.25h-.5l-13.9,1.4.5-108.9-5.5-5.5-125,1-5.4,5.8,5.7,107.5-23.6,3.7-76.7-3.2-.4-23.8v-.4l-7.5-82.8-4.5-140.8-11,.4,4.3,135.7-143.7,10.6-3.1,1.2-20.8,17.1-43.9-2.4-1.3.1-29,5.5-26.5,7.6-2,1.1-57.8,48.6-72-54-36.4-37.9-20.7-54.5-.5-66-11,.1.5,67,.4,1.9,18.9,49.6-211.4,14.5-260.9-5.5-34.6-18.9-3.3-78.9-.8-2.6-16.5-27-9.4,5.7,11.5,18.9-417.1,10.6-5.3-27.9-10.8,2.1,5,26-448.5,5-27.9-25.2-7.4,8.2,27.7,25,2,319.4-3,81.9.1,1.3,2.9,13.9v61.9l-32.8,28.4,7.2,8.3,31.2-27,.1,2,449.6-11.5-1.3,30.6,11,.5,1.3-31.2,420.3,1.2-17.7,20.7,8.4,7.2,25.5-29.8,1.3-3.6v-154.8l34.1,2.6h.4l78-.5,1.3-.2,45.1-11.3,117.9,11.7-53.4,61.6-.6,6.3,14.7,25.5-1.4,18.3,11,.8,1.5-20-.7-3.1-13.6-23.6,55.9-64.5.2-2,47-13.1,140.4-2.5-.2.2-1.5,3.8v31.5l1.5,3.8,9,9.5,7.5.5,11.5-9.5,2-4.2v-32.5l-1.5-3.5,102.4-1.8,27.6,10.8,147.5,89.7-2,30.5,11,.7,1.9-28.5,28.2,2.1h.9l26.5-2.5,2.1-.6,5.5-3,2.9-5.1-1.7-37.3,6.9.7,9.2,22.5,4.9,3.4,29.6.8-1.4,90.1,11,.2,1.8-115.1,114.7-1,.5,78.7-20.4,38.8,9.7,5.1,21-40,.6-2.6-.5-80.1,32.5-.3v3l5.4,5.5,20,.5,5.6-5.7-.8-23.7,23.9-.4,1.4,86.4,5.2,5.4,75.9,4.2.4,40.9,11-.1-.4-40.7,65.2-3.8,5.2-5.5v-6h44.5l5.5-5.7-1.5-52.5-5.5-5.3h-10.7l-.6-20.8,12.9-.2,5.4-5.5v-25l-5.6-5.5-126.2.9-8.8-34.2-4.5-70.7,14.4-1.4,230.8-2-.1-11Zm-1665.8-186.4-.3,58.5-66.1,2.8-3.2-8.7-2.9-3.1-14.4-6.6-1.6-41.9Zm-166.1,98.3,2.5-2.7,5-11.6,45.9.9,13.8,4.9-2.5,54.7-78.8,1.8-3.7-38.7Zm-.6-37.2,5.1-8.2.1-.5,46.5,6.8-1.6,14.7-42.5-.8Zm-13.1,96.2,179.1-4.1v160.9l-174.9,5.2-5.6-85.4Zm89.4-13.1,2.5-53.6,10.1-1.7,3.4-2,10-12.5.4-2.2,63.7-2.7-.4,72.6Zm11.4-85.9,4.2,11.4-6.8,8.5-11.1,2-13-4.6,2.2-19.4,10.4-4.3Zm-20.6-57.3,1.7,41-12.9,5.3-.9,1.2-50.9-7.4-1.3-5.9-1.6-2.8-19.4-18.4-3.1-12Zm-92.3,21.4,17.7,16.8,2.1,9.6-5.8,9.1v5.9l9.5,15-4.6,10.6-19.3,10.1-.2.4-86.2-4.4-29.3-22.5-2-17.8,25.2-29.7,69.3,3.4,2.4-.4,14.5-6.1Zm-187.7,62.6,3,24,.7,2.1,8.5,14.6,3.5,21.1-80.8,1.9-.4-68.9Zm-65.7-16.2-.1-13.8,52,.8-.6,17Zm137.7,47.5-23.7-4.3h-2.1l-26.1,5.7-6.4-11.1-2.7-21.7,52.3-4.4,30.5,23.4.9,5.2Zm26.1,3.2,2.6,5-.3,1-3.7,23.2-61.6-2.3h-.3l-8,.2-3.1-18.4,23.8-5.2,23.9,4.3,2.6-.2Zm-36.5-71.9-22.7-3-5.2-23.2,39.8,12.2Zm-27.2,7.5,24.5,3.2,1.3,11.4-42,3.6Zm-31.8,19.1-6-.5.6-18,22.3-.5Zm32.3,83.2,61.1,2.3,1.4,70.3,5.1,5.4,85.4,6.2,5.1,77.7-257.1-3.3-1-156.2Zm73-8.7,3.3-20.5,11-20.6,62.8,3.2,3.4,35.8Zm80.9,8.9-1.3,73-79.2-5.8-1.3-65Zm-81.8-44.9-.8-1.5-.7-4.4,4.6.2Zm68.7-110.5-4.5,11.1,1.5.6-9.3,3.9-66.7-3.2-3.1-11.5Zm-93.5,1,4.1,15.3-5,5.9-50.4-15.5-1.2-5.1Zm-54.7,40.8-26.1.6.3-.6v-5.4l-6.2-11.1,26.5-8.1Zm-9-40,1.1,4.8-32.5,10-32.5-6.8-5.1-7.2Zm-82.2.9,10.6,15.2,3.4,2.2,33.5,7,6.8,12.1-1.9,3.4-54.5-.9-.2-39Zm-.6,322.1,257.5,3.4-1.3,37.4,6.1,5.7,25.5-3-1.3-10.9-19.1,2.3,1.1-31.4,174.7-5.2v69.8l-445.7-.5Zm-2.3,78.5,445.5.4v6.8l-444-.2Zm2.5,75.4v-57.5l443.2.2,1.2,45.9Zm454.7-481.2,421-10.7,3,70.3-38.4-.4-.3-5.3-5.5-5.2H9635l-5.5,5.5v3.2l-21.6.9Zm29.9,65.2,2.4-2.5v-3h342.3l.4,8H9640.5v-2.5Zm-30.2,4.1,21.6-.9v4.8l5.5,5.5h354l5.5-5.8-.1-2.7,38.3.4,2.6,61.7-427.7,9.9Zm427.6,401.6-426.6-1.2-1.2-45.7,427.8.2Zm0-57.7-428-.2v-6.8l428,.5Zm0-48h-37v11h37v19.5l-428-.5v-70l428-3.9Zm0-55-428,3.9v-161l428-9.9Zm1202.5-225.5-.5,104.5-35.1,3.5-72.7-5.1-5.4-101.9Zm-138.1,117.4,24.8-3.9,72.3,5.1.5,45.9-103.3.3-1.6-19.8Zm-11.5.3-6.7,25.4-.2,1.9,1.6,19.9-38,.1-25.8-16.1-.6-34.1Zm-237.5-98.3-.2,17.7-9.2-10Zm-174.1,71.7,58.3-49.1,24.6-7.1,28.1-5.3,43.1,2.3,19.3,21-4.8,38.9-18.8,8.7-12.9-11.6-1.3-.8-22.5-11-3.7-.4-40.5,9.5-2.2,1.1-79.5,65.6-29.1-17Zm163.1,15.4-13.3,31.4-2.1,3.1,4.7-29.6Zm-21.4,1.6-8.5,54.1-3.6,5.2-.1,1.8-45.5,1.3-83.6-14.4,72.2-59.5,37.3-8.8,20.1,9.8Zm-170.7,48-36.3,4.7,15.7-16.8Zm-84.4-150.1,22.7,23.6-23,10Zm31.4,31.8,68.6,51.5-66.6,71.2-31.4,26.1-2.3-135Zm-180-30,137.6-9.4-.4,49.6.9,51.6-96.6-14h-1.9l-41.3,8.2Zm-69.7,4.7,58.8-4-1.8,86.1-47.7-3.1-17.4-8.7,11.6-28.3.4-2.6Zm-3,85.2-7.9,5.4.7-9Zm-8.1-84.8,3.5,34.5-107.8-3.7-5.6-33.1Zm-105.1,41.7,106.2,3.6-9,22-72.7,5.6-30.2-13.9Zm95.1,36.9-1.2,17.3-25.6,1.2-2.3.7-34.9,18.9-1.8-33Zm-74.7,44.9-15.6,16.4-55.8-26.3-.4-18.1,39.5-27.1,30.1,13.8Zm-36.3-126.1,6.4,38.3-5.4,16.5-20.7-19.2-24.7-36.5Zm-132-2.7,74,1.6,29.4,43.4.8.9,22.5,20.8-37.1,25.4-38.3-5-32.1-37.9-2.7-1.7-24.6-7.1Zm85.9,117.5-40.1,4.2,6.7-23.2,33.1,4.3Zm-123.1-134.6,26.5,14.4-8.4,41.8-15.7.6Zm2.7,67.8,15.6-.6,8.9,39,.6,40.1-25.1-3.6Zm.1,167.6v-81.686l25.2,3.686,1.2,80Zm35.4-130-.1-1.1-7.9-34.9,19,5.5,30.5,36-8.5,29.5-32.4,5.5Zm2,132.5-1.2-80.9,30.6-5.3,4.1,42.3,1.8,3.5,26,23.6,5.9,16.4Zm118.6-11.6-40.1,10-7.3-20.2-1.5-2.2-25.4-23.1-4-40.8,47.3-5,58.7,27.7,6.1,27.6Zm16.8,1.2,19.6-15.2,3.9,17.5Zm21.6-56.8,17.4-18.2,40.6-22,24.5-1.2,11,59.1-37,30.3-50.2-19.5Zm13.4,60.2-4.2-18.8,45.9,17.9,10.4,6.1Zm77.4,7.2-23.7-13.8,33-27.1,30,17.2,4.5,11.5Zm84-14.7-29.1.5-3.1-7.9h37.5Zm-38.8-18.4h0l-31.5-18-11.4-61,20.5-13.9,52.6,3.4,1.4-.1,41.4-8.2v68.5l-21,29.3Zm166,60.4-5.5,4.6-4-4.2v-27.1l5.1-5.3,4.4,4.4Zm-8-44.1-105.5,1.9,30.5-42.5,1-3.2v-70.6l92.1,13.3,1.4,84.4.2.3Zm17.6-.4,10.3-8.5,14.4,8.1Zm104.4-1.6-2-.9-.3.8-56.8,1,.3-.5-26.3-14.8,27.2-22.6.1.7,65.2-8.4,95.2,16.4,1.1.1,49.1-1.4,13.8,26.6Zm30.8,12-.8-.4-3.2-1.2,143.3-2.6,3.1,90.8Zm206.6,90.8-24.9,2.4-28-2.1-3.2-94.3,26.3,4.8.9.1,26.3.4,4.1,87.9Zm61.6-18.8-25.8-.7-7.9-19.1,10.2-12,24-.4Zm.8-43.2-26.9.4-4.1,1.9-12.1,14.3-8.9-.9-2.1-43.4,54.7-12Zm3.6-51.7-64,14.1-30.4-.5-29.9-5.4-18.7-36.2,2.8-4.1h.3l.1-.5,15.5-22.7.5-1,19-45,.4-1.5,5.5-44.5-1.2-.1,1.2-.5.5-38,138-10.2,7,77.5,1.4,77.7Zm176.1,77.2v-17.7l8.2-.1.6,18.1Zm55.5,62.7-.5-24.4,5.1-.1.8,24.8Zm190.3-11.4-44.3.1-5.5,5.5v6.3l-64,3.7-60.1-3.3-.8-25.6,23.4-.5v16.4l5.6,5.5,58-1,5.4-5.7-.5-16.8,82.4.4Zm-140.3-3v-38.4h45.7l1.2,37.6Zm20.9-94.1,119.6-1.2v14l-119.9,2.1Zm101.2,24.3.9,26.1,5.5,5.3h10.7l.4,15.5-82.5-.4-.6-20.7-5.5-5.3h-56.5l-5.5,5.5v22.1l-39.7.8-.8-45.9Zm-112.5-9.1-102.1,1.7v-15.7l102.4-1Zm-.8-26.3-107,1.1-5.4,5.5v21.4l-7.6.1-5.3,5.7v14.5l-158,1.4,1-62.4,49.1-41.9,1.4-3,21.6,13.5,2.9.8,159.5-.5,5.5-5.5-.5-51.5,29.9-3,4.5,70.8.2,1Z" transform="translate(-7338.399 -2092.755)"/><polygon class="a" points="3289.101 2910.294 3289.101 2898.995 3579.101 2898.995 3579.101 2910.294 3584.601 2915.794 3667.601 2915.794 3667.601 2904.794 3590.101 2904.794 3590.101 2893.495 3584.601 2887.995 3283.601 2887.995 3278.101 2893.495 3278.101 2904.794 3198.101 2904.794 3198.101 2915.794 3283.601 2915.794 3289.101 2910.294"/><polygon class="a" points="1876.601 4706.745 1878.402 4710.814 1911.402 4740.814 1915.297 4742.241 1971.297 4740.241 1972.56 4740.047 2071.142 4712.931 2163.448 4728.295 2164.351 4728.37 2590.476 4728.37 2594.365 4726.758 2623.879 4697.245 2672.601 4697.245 2672.601 4686.245 2621.601 4686.245 2617.712 4687.856 2588.198 4717.37 2164.805 4717.37 2071.754 4701.881 2069.392 4702.004 1970.262 4729.271 1917.143 4731.168 1887.601 4704.312 1887.601 4658.745 1876.601 4658.745 1876.601 4706.745"/><polygon class="a" points="5375.185 3597.995 5211.505 3562.867 5209.197 3573.623 5373.447 3608.873 5374.601 3608.995 5457.851 3608.995 5463.351 3603.495 5463.351 3496.8 5485.108 3503.701 5486.775 3503.958 5528.231 3503.93 5533.108 3500.965 5580.982 3408.78 5571.22 3403.709 5524.884 3492.932 5487.621 3492.958 5374.264 3457.002 5372.601 3456.745 5353.601 3456.745 5348.101 3462.245 5348.101 3475.245 5210.351 3475.245 5210.351 3486.245 5353.601 3486.245 5359.101 3480.745 5359.101 3467.745 5371.75 3467.745 5452.351 3493.311 5452.351 3597.995 5375.185 3597.995"/><polygon class="a" points="6006.601 4211.995 5974.693 4211.995 5964.601 4081.283 5964.601 3885.575 5998.895 3724.989 6052.254 3581.917 6041.948 3578.073 5988.448 3721.523 5988.222 3722.296 5953.722 3883.846 5953.601 3884.995 5953.601 3888.995 5777.501 3888.995 5777.501 3899.995 5953.601 3899.995 5953.601 4081.495 5953.618 4081.917 5964.118 4217.917 5969.601 4222.995 6002.474 4222.995 6047.32 4377.032 6057.882 4373.958 6011.882 4215.958 6006.601 4211.995"/><path class="a" d="M13677.375,5987.25l-.391-2.037-7.375-18.5-2.933-3.014-18.83-8.114-4.392.017-16.17,7.114-2.31,1.907-11.75,17-.976,3.127v72.675l-7.508,24.461.156,3.668,7.352,18.262v73.935l.407,2.077,7.75,19,2.14,2.563,16.5,10.5,4.8.54,21-7.5,3.083-2.747,8.875-18,.567-2.433V6094.3H13730v-11h-52.625Zm-11,193.218-7.323,14.852-16.368,5.847-12.753-8.115-6.681-16.379v-37.454l43.125-.431Zm0-52.682-43.125.431V6102.75l-.4-2.054-7.022-17.444,7.179-23.388.242-1.614v-18h43.125Zm0-98.536h-43.125v-42.784l9.89-14.309,12.553-5.522,14.541,6.266,6.142,15.405Z" transform="translate(-7338.399 -2092.755)"/><polygon class="a" points="2967.18 5572.006 2958.21 5566.546 2952.905 5566.319 2916.155 5584.569 2921.047 5594.42 2955.082 5577.519 2963.992 5582.943 2969.201 5583.217 3014.701 5561.717 3010.001 5551.772 2967.18 5572.006"/><polygon class="a" points="2688.828 4807.734 2677.875 4808.755 2681.26 4845.028 2670.015 4876.014 2672.373 4902.728 2683.33 4901.761 2681.187 4877.475 2692.442 4846.461 2688.828 4807.734"/><polygon class="a" points="3688.351 1388.995 3715.101 1388.995 3720.601 1383.495 3720.601 1222.495 3763.101 1222.495 3768.601 1216.995 3768.601 954.995 3757.601 954.995 3757.601 1211.495 3715.101 1211.495 3709.601 1216.995 3709.601 1377.995 3688.351 1377.995 3688.351 1388.995"/><rect class="a" x="3101.36" y="5514.245" width="11" height="13.833"/><path class="a" d="M10438,7022.917h-163.5v21H10438Zm-1.125,17.708H10275.5V7026h161.375Z" transform="translate(-7338.399 -2092.755)"/><rect class="a" x="2887.476" y="4922.495" width="35.625" height="11"/><rect class="a" x="2890.414" y="4946.495" width="32.688" height="10.167"/><path class="a" d="M10450,7016.417l-5.5-5.5h-171v-117h82.833l5.5-5.5V6823.25H10494l3.889-1.611,21.667-21.667-7.777-7.777-20.057,20.056H10097.9v-19h-11v140.5h11v-110.5h252.933v59.667H10268l-5.5,5.5V7027.25h-39.351v11h39.351v11.306H10450v-11.139h25v51.333h-23.75v11H10475V7316.5h-24.75V7083.417h8.175l5.5-5.5v-21.834l-5.5-5.5-203.149-.035-5.5,5.5v26.083l5.5,5.5h7.483l45.789,193.688.029-.007,2.311,10.528,5.368,4.3h122.994v49.608h-32.75v-7.8l-5.5-5.5h-58.5V7314.5l13.98-15.623.662-1.734h-13.872l-7.479,8.358h-23.855l-38.795-102.038-10.281,3.909,1.178,3.1-22.413,15.418,6.234,9.063,20.2-13.9,34.941,91.9,5.141,3.546h23.357v146.75l5.5,5.5h62.5l2.694-.705,22.25-12.5,2.806-4.795V7401.5h8l5.5-5.5v-31.75l-5.5-5.5h-28.75v-2h68.5v192.863h.009v45.054h-50.417v-11.584h15.167v10.25h11v-15.75l-5.5-5.5h-26.167l-5.5,5.5v22.584l5.5,5.5h61.417l5.5-5.5v-53.5H10486V7501.25h31.167v-11H10486v-150.8h31.167v-11H10486V7038.417h31.167v-11H10450Zm-11,28.5h-165.5v-23H10439Zm-22.75,402.614-18.189,10.219H10342.5v-114.3h53V7396l5.5,5.5h15.25Zm13.5-77.781v20.75h-23.25v-20.75Zm-168.975-308.2h14.583v15.083h-1.842v-14.366h-11v14.366h-1.741Zm178.475,223.581h-17.5v.013h-101.086l-.3-1.351h26.52v.351h11v-5.851l-5.5-5.5h-34.429l-.1.069-43.789-185.229h6.8l5.5-5.5v-20.583l166.566.035v10.834h-2.675v-9.834h-11Zm35.75,60.621h-24.75V7327.5H10475Z" transform="translate(-7338.399 -2092.755)"/><polygon class="a" points="3262.522 5481.931 3262.414 5483.016 3262.414 5526.432 3273.414 5526.432 3273.414 5483.564 3274.855 5476.406 3262.798 5480.558 3262.522 5481.931"/><polygon class="a" points="3421.601 4986.495 3427.101 4980.995 3427.101 4970.887 3416.101 4970.887 3416.101 4975.495 3357.601 4975.495 3357.601 4970.887 3346.601 4970.887 3346.601 4980.995 3352.101 4986.495 3421.601 4986.495"/><polygon class="a" points="3556.601 4988.661 3556.601 5006.745 3567.351 5006.745 3567.351 4983.909 3562.891 4988.368 3562.598 4988.661 3556.601 4988.661"/><polygon class="a" points="3309.268 4955.62 3346.601 4955.62 3346.601 4957.887 3357.601 4957.887 3357.601 4950.12 3352.101 4944.62 3303.768 4944.62 3298.268 4950.12 3298.268 4957.887 3309.268 4957.887 3309.268 4955.62"/><polygon class="a" points="3561.851 4904.745 3556.351 4910.245 3556.351 4927.995 3520.851 4927.995 3520.851 4936.828 3567.351 4936.828 3567.351 4915.745 3606.226 4915.745 3606.226 4904.745 3561.851 4904.745"/><polygon class="a" points="3309.268 5001.162 3309.268 4970.887 3298.268 4970.887 3298.268 4995.662 3292.227 4995.662 3292.202 5006.662 3303.768 5006.662 3309.268 5001.162"/><polygon class="a" points="3567.351 4962.64 3567.351 4949.828 3556.351 4949.828 3556.351 4957.887 3562.598 4957.887 3567.351 4962.64"/><path class="a" d="M10858.25,7030.583V7006l-5.5-5.5H10849V6890.125l-5.5-5.5h-137V6790.25h-11v99.875l5.5,5.5h67.375v87.125h-6.875l-5.5,5.5v23.375h-7.275l-5.5,5.5v24.25l5.5,5.5h5.775v3.768h11v-3.768h60l5.5-5.509-.01-9.616h15.26v-11h-15.271l0-3.625-5.5-5.5H10767V6993.75h6.875l5.5-5.5v-92.625H10838V7006l5.5,5.5h3.75v24.583l5.5,5.5H10883v9.042h11v-9.042h12.85v239.3h-11.994l-.006,18.125h-.85v-218.6h6.583l5.5-5.5v-17.774l-5.5-5.5H10612l-5.5,5.5v18.274l5.5,5.5h6.647l-.018,7.5v.547l-.5,215.523,0,0-4.616,22.593h-28.028l.015-227.666h32.108l.025-11H10585.5l0-51.167h16.883l9.576,4.057,4.441,9.4h12.681l-.224-.786-8.472-15.9-2.528-2.165-12.212-5.173-2.146-.436H10542v11h32.5v290H10542v11h32.5v153H10539v11h35.5l-.033,71.5,7.291,5.2,19.668-6.773,12.057-4.151,98.132-33.795,2.816-2.2,6.811-10.447.565-4.872-2.167-6-6.987-3.324L10610,7543.258l-3.577,4.107-2.25,11.175,12.057-4.152.358-1.78,92.332-32.261-2.671,4.1L10616,7555.524l-12.057,4.152-18.476,6.362.014-227.956h27.02v26.667l5.5,5.5h48.045l8.316,21.794,10.277-3.922-9.611-25.188,7-49.559h230.158l5.5-5.5V7041.583h25.941v-11Zm-38.275-7.958.017,13.25h-65.767v-13.25Zm-201.3,47.292h-1.173v-7.274h277.583v6.774H10894v-5.792h-11V7299h-253.863l.547-235.294-11-.025Zm288.177,235.01-6.086,6.086-229.5-.013-6.8,48.25H10623.5v-26.111l4.728-23.139h256.622v.013h15.5l5.5-5.5v-12.625h1Z" transform="translate(-7338.399 -2092.755)"/><polygon class="a" points="4293.36 5419.418 4227.389 5395.62 4177.851 5395.62 4177.851 5384.62 4228.351 5384.62 4230.217 5384.946 4291.832 5407.173 4303.272 5373.715 4313.68 5377.274 4300.43 5416.024 4293.36 5419.418"/><path class="a" d="M12439,7388.25l-5.5,5.5V7406h-24.258l-14.875-22.988-4.617-2.512H12321V7273h-11v29h-85.75v-29h-11v85.5h-11.35l-9.93-29.979-3.737-3.566-20.983-5.875V7275.5h-11v45.933l-10.417,14.04-1.083,3.277v38.119l-37.359,4.165-4.891,5.466v26.75l5.5,5.5h36.75v30.75l5.5,5.5H12181l5.5-5.5v-27l-5.545-5.5-25.205.205v-30.494l29.109-3.245,3.324-1.622,12.061-12.344h18.506l5.5-5.5v-51H12310v73l.278,1.727,10,30.25,5.222,3.773h13.75v6.271l5.5,5.5h17.57l1.68,2.146v10.082h-69.5l-5.5,5.5v30.289l1.611,3.889,6,6,3.889,1.611h42.5v5.852l4.024,5.3,29.25,8.148,1.476.2h.5v96.711l-17.287,36.076-166.848-62.291,11.772-30.822-3.829-7.3-12.25-3-2.617,10.684,6.2,1.518-11.526,30.178,3.214,7.115,176.75,65.987,6.884-2.775,20-41.737.54-2.377v-97.961h4l5.5-5.5v-33.5l-5.5-5.5H12375v-34.268l-1.169-3.39-4.5-5.75-4.331-2.11h-14.75v-6.271l-5.5-5.5h-15.275l-6.363-19.25h63.646l14.875,22.988,4.617,2.512H12439l5.5-5.5v-12.25h84.75v-11Zm-263.5,39.795V7444h-19.75v-15.795Zm-30.75-20.295h-31.25v-16.329l31.25-3.484Zm36.938-35-25.938,2.892v-35.075l8.162-11,18.537,5.19,9.206,27.794ZM12300,7479.261V7456.75h64v14l-17.147,11.287h-44.074Zm87.75-.222v22.5h-9.248l-24.5-6.826v-4.21l17.274-11.37-.062-.094Z" transform="translate(-7338.399 -2092.755)"/><path class="a" d="M12526.667,7106.583H12491v-39.166l-5.5-5.5h-147.333v-146.5h-11v146.5H12184.1V7011.75l-.177-1.384-8.582-33.014-10.646,2.768,8.405,32.333v49.464h-138.5l-5.5,5.5v50.133h-37.767v11h37.767v53.9l5.5,5.5h125.9v59.133h11V7187.95h170.667v22.313l-24.915,33.539,8.83,6.56,26-35,1.085-3.279V7187.95H12485.5l5.5-5.5v-64.867h35.667ZM12040.1,7176.95V7072.917h167.067v44.633H12166l-5.5,5.5v53.9Zm131.4,0v-48.4h41.167l5.5-5.5v-50.133h94.666v50.133l5.5,5.5h23.834v48.4Zm308.5,0h-126.833v-53.9l-5.5-5.5h-23.834v-44.633H12480Z" transform="translate(-7338.399 -2092.755)"/><path class="a" d="M12132.5,6828.35l-5.5,5.5v17.122l-5.778,5.778h-19.065l.341-10.657-4.126-5.5-16.833-4.334-1.508-.172-53.5,1.334-5.363,5.5v13.833h-31.5v11h37v26.667l5.5,5.5h28.2l6.4,12.034,6.342,31.872,10.789-2.146-6.5-32.667-.539-1.51-4.033-7.583h18.511l3.889-1.611,41.167-41.167,1.611-3.889v-13.9h43.167v-11Zm-63.167,60.567h-31.666V6867.75h31.666Zm1.667-32.167h-38.833v-8.469l27.833-.694,11-.274,8.538-.213,11.823,3.044-.211,6.605Zm30.525,19.7-11.37,11.37-1.1,1.1h-8.722V6867.75h29.889Z" transform="translate(-7338.399 -2092.755)"/><path class="a" d="M11694.072,7042.79l-6.072-14.479V6917.917l-5.5-5.5h-6.833V6794.75h-11v123.167l5.5,5.5H11677v30.666h-24.167l-5.5,5.5v26.834h-17.666l-5.5,5.5v13h-64v-34.5l-1.724-4-7.276-6.872v-29.3l-5.5-5.5h-34v11h28.5v26.167l1.724,4,7.276,6.872v134.378l-38.421,39.061,7.842,7.713,39.8-40.458,67.287-55.277,53.853-21.662,4.4,10.5Zm-73.292,5.524-1.438.853-59.175,48.614v-81.864h69.5l5.5-5.5v-13h17.666l5.5-5.5v-26.834H11677V7025.7Z" transform="translate(-7338.399 -2092.755)"/><polygon class="a" points="4585.164 5358.434 4625.756 5374.384 4629.78 5364.146 4587.946 5347.708 4585.377 5347.356 4555.044 5350.44 4550.726 5353.365 4548.388 5357.84 4508.635 5338.111 4501.833 5339.681 4480.803 5366.98 4456.485 5377.115 4454.319 5378.741 4443.465 5392.21 4452.03 5399.113 4462.007 5386.731 4486.384 5376.572 4488.625 5374.851 4507.791 5349.972 4548.323 5370.088 4548.375 5369.983 4548.427 5370.139 4576.695 5383.432 4583.6 5421.56 4575.902 5443.868 4586.3 5447.456 4594.467 5423.789 4594.68 5421.014 4587.013 5378.681 4583.942 5374.684 4558.298 5362.625 4559.104 5361.083 4585.164 5358.434"/><path class="a" d="M13773.566,6851.888c18.6-22.861,39.949-48.5,42.885-50.985a4.816,4.816,0,0,1-2.215.94l-1.807-10.851c-2.577.429-3.271.544-26.095,28.036-9.762,11.758-19.432,23.621-21.062,25.624l-42.3,39.45-61.41,5.353-46.18-26.157-2.711-.715h-34.088l-38.2-18.254,4.37-24.271.087-.975v-22.666h-11v22.175l-4.759,26.431-23.229,26.792.52,7.729,7.11,6.264-30.507,23.592,6.729,8.7,35.777-27.667.271-8.478-8.015-7.06,17.9-20.644,37.885,18.1,18.151,29.105,1.979,1.889,44.058,24.673,33.328,41.823,3.752,2.045,35.379,3.553,18.578,45.387-22.524,19.348-.475.46-31.467,34.4,8.117,7.424,31.243-34.156,24.924-21.409,22.292-13.313h52.482v-11h-54l-2.82.778L13738,7014.417l-17.811-43.512,30.232-45.792.068-5.954-18.085-28.818,40.645-37.9Zm-186.321,21.7h23.973l41.272,23.378-12.922,19.5-39.315-22.017Zm124,90.912-33.053-3.319-30.061-37.724,15.323-23.12,59.01-5.144,16.83,26.819Z" transform="translate(-7338.399 -2092.755)"/><polygon class="a" points="5347.101 5457.995 5347.101 5365.467 5385.948 5365.467 5391.448 5359.967 5391.448 5326.662 5385.948 5321.162 5366.101 5321.162 5366.101 5173.662 5355.101 5173.662 5355.101 5326.662 5360.601 5332.162 5380.448 5332.162 5380.448 5354.467 5341.601 5354.467 5336.101 5359.967 5336.101 5457.995 5213.601 5457.995 5213.601 5468.995 5748.934 5468.995 5748.934 5457.995 5347.101 5457.995"/><path class="a" d="M12876.861,7005.45h-29.5v-88.033l-5.5-5.5H12820.6v-118.5h-11v118.5h-21.265l-5.5,5.5v88.033h-29.5l-5.5,5.5v94.467l5.5,5.5h56.265v80.333h11v-80.333h56.264l5.5-5.5V7010.95Zm-83.028-82.533h42.528v82.533h-42.528Zm77.528,177h-112.528V7016.45h112.528Z" transform="translate(-7338.399 -2092.755)"/><path class="a" d="M11458.757,2144.357l-.394-.379-41.75-36.375-1.175-.783-23.75-11.75-2.438-.57h-67.75l-5.5,5.5v35.25h-115.5v-33.5l-4.817-5.458-28-3.5-.927-.037-33.75,1.5-2.8.916-72.5,48.25-1.439,1.4-35.45,50,8.973,6.362,34.86-49.167,16.133-10.736,7.873,11.991,4.6,2.481h28l4.3-2.074,9.652-12.122,12.306-3.516,3.748-3.679,3.875-12.659,8.412-4.965,2.457-3.1,2.979-9.591,20.518,2.565v34.145l5.5,5.5h59.5v60.5h11v-60.5h56l5.5-5.5V2105.5h60.964l15.024,7.433-7.01,5.842L11394,2123v10.952l-6.919,13.839,2.009,7.126,17,10.6,5.529.169,22.559-12.215,16.24-1.826.513.447,44.362,47.175,8.014-7.535Zm-311.053-31.044-2.463,3.126-3.626,11.843-11.126,3.179-2.792,1.862-9.1,11.426h-22.38l-6.282-9.567,45.087-30.006,22.4-1-1.292,4.161Zm284.182,29.346-2,.629-20.686,11.2-10.037-6.258,5.261-10.522.581-2.459v-9.674l7.921-6.6,26.244,22.866Z" transform="translate(-7338.399 -2092.755)"/><polygon class="b" points="3281.789 1841.307 3281.851 1841.305 3281.851 1834.995 3281.789 1841.307"/><polygon class="a" points="3338.49 1783.855 3334.601 1782.245 3307.768 1782.245 3307.768 1793.245 3332.323 1793.245 3332.934 1793.856 3332.934 1808.984 3339.654 1811.756 3343.226 1817.093 3343.226 1830.203 3343.934 1829.495 3343.934 1804.855 3345.212 1806.134 3349.101 1807.745 3356.105 1807.745 3356.113 1796.745 3351.379 1796.745 3338.49 1783.855"/><polygon class="a" points="3438.101 1624.745 3438.101 1796.745 3368.101 1796.745 3368.101 1807.745 3372.501 1807.745 3372.501 1983.245 3383.501 1983.245 3383.501 1807.745 3443.601 1807.745 3449.101 1802.245 3449.101 1624.745 3438.101 1624.745"/><polygon class="a" points="3295.768 1792.336 3295.775 1782.245 3211.351 1782.245 3211.351 1793.245 3294.617 1793.245 3295.768 1792.336"/><rect class="a" x="3293.351" y="1823.995" width="37.875" height="11"/><path class="a" d="M10738.375,3874.25l5.5-5.5v-23.5l-3.283-5.034-81.75-36-2.217-.466h-27.25l-5.5,5.5v19.625l3.922,5.269,18.142,5.433-10.606,19.551-.665,2.623v23.583l-11.289,8.908-20.959,4.2-4.419,5.393v18.417l5.5,5.5h16.25v-11H10609v-8.409l11.25-2.254V3995l5.5,5.5h66.813l5.5-5.5v-77.159l6.326-6.327,1.611-3.889v-29.334l2.693-4.041ZM10631.25,3989.5v-87.458l3.657-2.886,35.218,14.525V3939l5.5,5.5h11.438v45Zm74.5-126.25-4.576,2.449-5.25,7.875-.924,3.051v28.722l-6.326,6.327-1.611,3.889V3933.5h-5.937V3910l-3.4-5.084-33.547-13.836,1.492-3.079v-24.854l13.167-24.273-3.256-7.891-20.7-6.2V3814.75h20.593l77.407,34.087v14.413Z" transform="translate(-7338.399 -2092.755)"/><polygon class="a" points="3513.901 1409.995 3509.901 1413.995 3509.901 1318.794 3498.901 1318.794 3498.901 1421.794 3500.401 1425.595 3508.401 1433.794 3508.401 1454.695 3432.401 1454.695 3432.401 1322.495 3421.401 1322.495 3421.401 1459.495 3423.401 1463.794 3423.601 1463.895 3423.601 1472.294 3391.301 1472.294 3379.301 1465.495 3376.601 1464.794 3355.601 1464.794 3352.501 1465.695 3340.901 1473.794 3205.401 1473.794 3205.401 1484.794 3342.601 1484.794 3345.701 1483.794 3357.301 1475.794 3375.201 1475.794 3387.101 1482.495 3389.901 1483.294 3423.601 1483.294 3423.601 1490.315 3425.212 1494.204 3429.268 1498.26 3429.268 1523.482 3421.56 1523.482 3416.06 1528.982 3416.06 1600.648 3427.06 1600.648 3427.06 1534.482 3434.768 1534.482 3440.268 1528.982 3440.268 1495.982 3438.657 1492.093 3434.601 1488.037 3434.601 1465.695 3513.901 1465.695 3519.401 1460.195 3519.401 1420.995 3667.101 1420.995 3667.101 1409.995 3513.901 1409.995"/><polygon class="a" points="4601.593 403.391 4494.076 396.516 4493.593 396.495 4437.236 396.495 4360.001 363.195 4425.326 224.64 4415.376 219.949 4348.205 362.423 4321.858 384.339 4299.351 354.58 4299.351 336.437 4293.851 330.937 4180.351 330.937 4180.351 341.937 4288.351 341.937 4288.351 356.245 4289.275 359.295 4315.018 393.91 4315.018 494.245 4326.018 494.245 4326.018 394.983 4353.363 372.313 4433.923 407.045 4436.101 407.495 4488.843 407.495 4488.843 492.161 4499.843 492.161 4499.843 408.067 4600.868 414.37 4636.851 414.391 4636.851 403.391 4601.593 403.391"/><polygon class="a" points="4632.601 625.794 4632.601 614.794 4529.601 614.794 4524.101 620.294 4524.101 666.695 4404.851 666.695 4404.851 510.745 4393.851 510.745 4393.851 666.695 4306.352 666.695 4306.352 515.12 4295.352 515.12 4295.352 664.462 4288.406 662.049 4286.601 661.745 4268.101 661.745 4268.101 641.745 4262.601 636.245 4247.101 636.245 4241.601 641.745 4241.601 646.745 4177.101 646.745 4177.101 657.745 4247.101 657.745 4252.601 652.245 4252.601 647.245 4257.101 647.245 4257.101 667.245 4262.601 672.745 4285.673 672.745 4299.047 677.39 4300.852 677.695 4393.851 677.695 4393.851 828.995 4404.851 828.995 4404.851 677.695 4470.601 677.695 4470.601 830.745 4481.601 830.745 4481.601 677.695 4544.101 677.695 4546.383 677.199 4558.883 671.499 4554.319 661.49 4542.906 666.695 4535.101 666.695 4535.101 625.794 4632.601 625.794"/><polygon class="a" points="5102.91 831.495 5091.91 831.495 5091.91 752.995 5097.41 747.495 5102.66 747.495 5102.66 713.495 5113.66 713.495 5113.66 752.995 5108.16 758.495 5102.91 758.495 5102.91 831.495"/><polygon class="a" points="4791.101 1037.995 4785.601 1043.495 4785.601 1058.245 4768.845 1058.245 4769.634 852.495 4758.134 852.395 4758.535 1080.395 4657.734 1079.195 4657.734 1090.395 4758.535 1090.995 4757.535 1211.395 4657.734 1211.695 4657.734 1222.595 4757.435 1223.195 4757.435 1295.745 4767.935 1295.745 4768.803 1069.245 4791.101 1069.245 4796.601 1063.745 4796.601 1048.995 4866.851 1048.995 4866.851 1037.995 4791.101 1037.995"/><rect class="a" x="5543.601" y="1131.995" width="201.75" height="11"/><polygon class="a" points="5632.934 1003.745 5621.934 1003.745 5621.934 980.745 5627.434 975.245 5640.434 975.245 5640.434 972.87 5633.809 972.87 5628.309 967.37 5628.309 861.12 5639.309 861.12 5639.309 961.87 5645.934 961.87 5651.434 967.37 5651.434 980.745 5645.934 986.245 5632.934 986.245 5632.934 1003.745"/><polygon class="a" points="5059.351 954.87 5026.601 954.87 5026.601 953.245 5021.101 947.745 5014.966 947.745 4986.726 932.807 4986.726 896.87 4975.726 896.87 4975.726 936.12 4978.655 940.981 5011.03 958.106 5013.601 958.745 5015.601 958.745 5015.601 984.216 5012.712 987.105 5011.101 990.995 5011.101 1012.466 5005.7 1017.868 5004.088 1021.757 5004.088 1061.37 5015.088 1061.37 5015.088 1024.036 5020.49 1018.634 5022.101 1014.745 5022.101 993.273 5024.99 990.384 5026.601 986.495 5026.601 965.87 5059.351 965.87 5059.351 954.87"/><polygon class="a" points="4865.601 1464.411 4699.101 1464.411 4693.601 1458.911 4693.601 1435.911 4657.734 1435.911 4657.734 1424.911 4699.101 1424.911 4704.601 1430.411 4704.601 1453.411 4865.601 1453.411 4865.601 1464.411"/><polygon class="a" points="5109.123 1361.469 5096.39 1368.745 5034.551 1368.745 5034.809 1367.999 5046.856 1359.698 5072.268 1350.911 5096.104 1348.722 5095.098 1337.768 5070.598 1340.018 5069.303 1340.296 5042.553 1349.546 5041.23 1350.216 5027.08 1359.966 5025.002 1362.699 5012.653 1398.449 5008.212 1419.393 5003.335 1443.237 4980.68 1423.819 4980.19 1423.444 4945.94 1400.194 4945.352 1399.846 4916.852 1385.296 4888.738 1373.427 4884.464 1383.563 4912.029 1395.184 4940.045 1409.487 4973.756 1432.372 5001.703 1456.326 5004.754 1477.467 4999.417 1499.047 4987.787 1521.596 4968.822 1542.721 4943.298 1562.897 4914.198 1578.927 4913.546 1579.348 4889.596 1597.348 4896.206 1606.141 4919.845 1588.375 4949.004 1572.312 4949.762 1571.81 4976.012 1551.06 4976.694 1550.419 4996.444 1528.419 4997.239 1527.266 5009.489 1503.516 5009.94 1502.315 5015.69 1479.065 5015.794 1476.959 5012.431 1453.659 5018.984 1421.625 5023.163 1401.713 5030.751 1379.745 5097.851 1379.745 5100.58 1379.02 5114.58 1371.02 5109.123 1361.469"/><polygon class="a" points="5420.965 1395.17 5400.63 1373.259 5398.043 1355.454 5396.113 1352.011 5369.768 1330.161 5369.768 1317.245 5358.768 1317.245 5358.768 1332.745 5360.757 1336.978 5387.462 1359.128 5388.507 1366.319 5372.814 1358.786 5370.121 1358.253 5316.753 1361.298 5307.577 1353.815 5300.625 1362.341 5311.458 1371.174 5315.248 1372.402 5369.333 1369.316 5392.114 1380.251 5412.903 1402.652 5420.965 1395.17"/><path class="a" d="M13047.25,3586.75V3558H13084v-11h-203v11h85.25v28.75H12881v11h206.25v-11Zm-11,0h-59V3558h59Z" transform="translate(-7338.399 -2092.755)"/><polygon class="a" points="5661.768 1799.745 5538.268 1799.745 5538.268 1788.745 5656.268 1788.745 5656.268 1775.911 5661.768 1770.411 5705.434 1770.411 5705.434 1763.578 5710.934 1758.078 5744.601 1758.078 5744.601 1769.078 5716.434 1769.078 5716.434 1775.911 5710.934 1781.411 5667.268 1781.411 5667.268 1794.245 5661.768 1799.745"/><polygon class="a" points="4771.601 1761.078 4654.268 1761.078 4654.268 1750.078 4766.101 1750.078 4766.101 1708.911 4771.601 1703.411 4867.268 1703.411 4867.268 1714.411 4777.101 1714.411 4777.101 1755.578 4771.601 1761.078"/><polygon class="a" points="4582.934 1820.395 4582.425 1820.418 4482.013 1829.745 4462.101 1829.745 4462.101 1623.911 4451.101 1623.911 4451.101 1801.154 4316.601 1801.154 4311.101 1806.654 4311.101 1980.245 4322.101 1980.245 4322.101 1812.154 4451.101 1812.154 4451.101 1982.245 4462.101 1982.245 4462.101 1840.745 4482.268 1840.745 4482.777 1840.721 4583.189 1831.395 4636.268 1831.395 4636.268 1820.395 4582.934 1820.395"/><polygon class="a" points="4406.477 2404.995 4395.477 2404.995 4395.477 2219.683 4390.094 2186.115 4390.025 2185.245 4390.025 2004.995 4401.025 2004.995 4401.025 2184.807 4406.408 2218.374 4406.477 2219.245 4406.477 2404.995"/><path class="a" d="M11673.334,4234.777l7.334-7.333v-7.778l-5.943-5.943V4169.5l-5.5-5.5h-22.392v-21.167h22.392l5.5-5.5v-37.5h-11v32h-22.392l-5.5,5.5V4169.5l5.5,5.5h22.392v41l1.611,3.889,3.665,3.665-1.834,1.833h-9.667l-5.5,5.5v6.178l-9.509,4.874-2.769,3.346-3.667,12.5-.009,3.067,4.167,14.5,2.377,3.149,8.949,5.577,4.566,10.12-4.857,9.874.075,5,4.686,8.848-4.758,9.645-.05,4.763,4.867,10.406-3.717,7.333-1.93-.626-3.284-.035-13.833,4.167-3.137,2.447-5.066,8.486h-8.936v-8.841l-5.5-5.5h-12.746l-5.5,5.5v135.667h11V4361.167h1.746v8.841l5.5,5.5h14.2l5.3,10.342,3.347,2.769,12.5,3.667,3.066.008,14.5-4.167,3.149-2.377,7.166-11.5.021-5.784-7.666-12.5-2.99-2.355-.314-.1,4.149-8.188.077-4.817-4.883-10.44,4.833-9.8-.072-5.007-4.687-8.852,4.763-9.68.077-4.69-3.832-8.491,9.009-5.525,2.355-2.99,4.167-12.833.035-3.285-4.167-13.833-2.447-3.136-9.307-5.556h6.433Zm-14.825,143.362-10.935,3.142-8.7-2.552-4.366-8.518,4.012-6.719,10.143-3.055,9.268,3.009,4.828,7.873Zm9.4-117.7-3.009,9.267-7.872,4.828-6.821-4.25-3.142-10.934,2.552-8.7,8.518-4.366,6.719,4.011Z" transform="translate(-7338.399 -2092.755)"/><polygon class="a" points="4802.851 2189.745 4797.351 2195.245 4797.351 2287.745 4695.101 2287.745 4695.101 2242.37 4689.601 2236.87 4652.601 2236.87 4652.601 2247.87 4684.101 2247.87 4684.101 2293.245 4689.601 2298.745 4782.226 2298.745 4782.226 2397.245 4793.226 2397.245 4793.226 2298.745 4802.851 2298.745 4808.351 2293.245 4808.351 2200.745 4862.476 2200.745 4862.476 2189.745 4802.851 2189.745"/><path class="a" d="M12861.355,4487.416l-33-62-1.673-1.9-57.963-41.134,1.754-3.944.108-4.208-3.685-9.588,13.39-11.872,20.7-12.691,22.788-6.578h32.722v-11H12823l-1.525.216-24.25,7-1.35.6-21.75,13.333-.773.574-15.382,13.638-5.084-2.261-4.208-.108-7.715,2.965-14.227-12.764-14.37-17.538-10.147-14.139-9.4-18.682-8.608-24.08H12856.5v-11H12795v-63.5h61.5v-11h-57.362l34.821-48.544,1.031-3.206v-6.654l24.066-23.073-7.613-7.94-25.76,24.7-1.693,3.97v7.231l-28.99,40.416v-74.313h-11V4260.25h-109.349l-9.05-31.754-6.1-69.238v-64.507h-11v59.083H12584V4143.25l-5.5-5.5h-29.333V4095.7h-11v42.046h-37.917l-5.5,5.5v10.583h-55.931l.014-59.083h-11v64.379l-2.909,39.105-8.893,18.74-.514,1.915-2.285,28.276h-115.065V4098.333h-11v148.833h-61.834v11h85.5v24.071h-87.166v11h35.632l41.767,54.076-3.5,7.867-.108,4.208,2.876,7.483-24.434,23.951-.486.544-17.75,22.75-1.1,2.518-3.038,19.072-34.282,46.269,8.838,6.549,34.042-45.945,31.882-10.471c12.456-2.2,32.536-5.674,34.584-5.872a2.838,2.838,0,0,1-.349.014c1.217,0,17.023-1.929,46.987-5.735l34.935,1.473v66.679h11v-66.421H12451V4490h11v-67.753l59.5,0V4490h11v-71h20.75v71h11v-67h58.25v67h11v-67h31.5v67.75h11v-68.534l28.922-4.466h23.924l21.884,1.229,23.41,3.137,31.442,11.949,19.911,9.385,26.151,49.133ZM12750.5,4366.572l6.463,2.875,2.537,6.6-2.874,6.462-6.6,2.538-6.462-2.875-2.537-6.6,2.874-6.463Zm-57.466-46.5,10.5,14.631,14.965,18.279.581.608,14.066,12.62-3.1,6.97-.108,4.208,2.487,6.473-8.084,4.676-21.438,8.576-26.9,2.989V4280.969l6.571,18.383,10.016,19.99Zm-282.5-39.533-6.862,1.031-6.452-23.407h15.122Zm-94.2,12.695,5.5-5.5v-29.571h63.978l8.1,29.372-1.557,4.428-63.8,49.249-8.146-3.623-4.208-.108-6.809,2.616-36.194-46.862Zm-7.79,64.331,2.874-6.463,6.6-2.537,6.463,2.875,2.537,6.6-2.874,6.462-6.6,2.537-6.463-2.875Zm-16.831,63.775-.761.191-25.352,8.326,1.608-10.1,16.653-21.344,24.082-23.607,7.211,3.207,4.208.108,7.6-2.92,37.22,35.615c-15.883,2-34.433,4.311-36.177,4.431C12327.025,4415.313,12322.74,4415.872,12291.712,4421.344Zm36.5-6.093h0Zm50.666-5.592-44.03-42.133,3.153-7.091.108-4.208-2.516-6.545,64.772-50,1.827-2.53,1.569-4.465,6.409-.963v119.256ZM12527,4408l-3.25,3.25h-30v-21.49h43.625V4408Zm21.375,0v-18.24H12591V4412h-28.25l-4-4Zm53.625,4v-27.74l-5.5-5.5h-108.25l-5.5,5.5v26.99h-61.583V4285.555l5.234-64.774,8.9-18.756.517-1.95,2.621-35.241h61.811l5.5-5.5V4148.75H12573v10.583l5.5,5.5h70.449l5.741,65.149.189,1.024,10.12,35.51V4412Zm175.454-.391-1.224-.31-24.25-3.25-22.672-1.29-20.878-.007,20.362-8.145.711-.346,10.063-5.822,8.063,3.586,4.208.108,10.856-4.172.222-.211,43.53,30.892Z" transform="translate(-7338.399 -2092.755)"/><path class="a" d="M13036.976,4302.5l-13.2-14.166-4.023-1.75h-47.084l-3.889,1.611-14.306,14.305h-20.722v-98.75l-5.5-5.5h-4.75v-12.107l10.1-42.624.148-1.269V4099h-11v42.607l-10.1,42.624-.148,1.269v18.25l5.5,5.5h4.75v93.25h-41.5v11h41.5v144.75H12917l-4.09,1.822-35.75,39.75,8.18,7.355,34.11-37.928h8.8l5.5-5.5V4313.5h20.722l14.306,14.305,3.889,1.611h47.084l4.023-1.75,13.2-14.166h48.274v-11Zm-19.618,15.916h-42.413L12964.528,4308l10.416-10.416h42.413l9.707,10.416Z" transform="translate(-7338.399 -2092.755)"/><polygon class="a" points="4424.07 2597.209 4404.07 2539.375 4403.768 2537.578 4403.768 2498.578 4359.768 2498.578 4354.268 2493.078 4354.268 2425.911 4365.268 2425.911 4365.268 2487.578 4409.268 2487.578 4414.768 2493.078 4414.768 2536.654 4434.466 2593.614 4424.07 2597.209"/><path class="a" d="M8273.938,3616.35v-26.142l-5.5-5.5h-76.312l-5.5,5.5v10.385h-73.458v-1.344l-5.5-5.5h-18l-3.889,1.611-7.389,7.389h-26.222v-36.333l-5.5-5.5H8024.1v-21.4l44.436-8.031-1.956-10.824-48.015,8.677-51.822-8.689-1.819,10.849,48.176,8.078v26.845l5.5,5.5h22.567v30.833H8005.8v-63.9l-11-1.845v65.74h-64.706l-5.5,5.5v8.175L7837,3616.5l-5.5,5.5v77.75l5.5,5.5h17.984l.71,3-8.826,13.786,9.264,5.931,10.083-15.75.72-4.233-2.1-8.875v-15.37l2.521-14.112h54.057l10.072,33.46,10.533-3.171-11.25-37.375-5.267-3.915h-40.125v-31.239h44.719l5.5-5.536v-8.1H8013.1v59.667h11V3613.75h56.567l3.889-1.611,7.389-7.389h10.222v86.888l-9.722,9.723,7.778,7.778,11.333-11.333,1.611-3.889V3630.25h70.042l1.7-.27,8.087-2.63h88.753v-11Zm-416.687,47.289-3.331,18.644-.086.967v11H7842.5v-53.583h14.75Zm17.125-5.014h-6.125v-23.458l-5.5-5.5H7842.5l.031-2.281h31.875Zm312.25-40.77-4.289,1.395h-69.17v-7.656h73.458Zm76.313-1.505h-65.312v-20.642h65.313Z" transform="translate(-7338.399 -2092.755)"/><rect class="a" x="1220.695" y="607.12" width="11" height="88.5"/><polygon class="a" points="2424.934 545.453 2341.768 545.453 2341.768 534.453 2422.232 534.453 2447.081 502.259 2448.178 501.187 2475.434 481.168 2475.434 368.286 2486.434 368.286 2486.434 483.953 2484.19 488.386 2455.314 509.594 2429.288 543.313 2424.934 545.453"/><polygon class="a" points="4864.601 719.911 4776.934 719.911 4776.934 646.66 4795.659 628.544 4864.018 628.544 4864.018 617.544 4793.434 617.544 4789.61 619.091 4770.369 637.707 4755.351 630.458 4755.351 620.245 4768.684 620.245 4774.184 614.745 4774.184 602.245 4772.522 598.305 4766.998 592.924 4766.998 576.661 4766.5 574.374 4760.101 560.38 4760.101 516.161 4749.101 516.161 4749.101 561.578 4749.599 563.865 4755.998 577.859 4755.998 595.245 4757.66 599.185 4763.184 604.565 4763.184 609.245 4657.184 609.245 4657.184 620.245 4744.351 620.245 4744.351 633.911 4747.46 638.864 4765.934 647.781 4765.934 722.161 4655.601 722.161 4655.601 733.161 4771.434 733.161 4773.684 730.911 4864.601 730.911 4864.601 719.911"/><g class="c"><path class="d" d="M0,0" transform="translate(-7338.399 -2092.755)"/><path class="d" d="M0,0" transform="translate(-7338.399 -2092.755)"/><path class="d" d="M0,9185.124" transform="translate(-7338.399 -2092.755)"/><path class="d" d="M0,9185.124" transform="translate(-7338.399 -2092.755)"/><path class="d" d="M16376.2,9185.124" transform="translate(-7338.399 -2092.755)"/><path class="d" d="M16376.2,9185.124" transform="translate(-7338.399 -2092.755)"/><path class="d" d="M16376.2,0" transform="translate(-7338.399 -2092.755)"/><path class="d" d="M16376.2,0" transform="translate(-7338.399 -2092.755)"/><path class="e" d="M0,0" transform="translate(-7338.399 -2092.755)"/><path class="e" d="M0,0" transform="translate(-7338.399 -2092.755)"/><path class="e" d="M0,9185.124" transform="translate(-7338.399 -2092.755)"/><path class="e" d="M0,9185.124" transform="translate(-7338.399 -2092.755)"/><path class="e" d="M16376.2,9185.124" transform="translate(-7338.399 -2092.755)"/><path class="e" d="M16376.2,9185.124" transform="translate(-7338.399 -2092.755)"/><path class="e" d="M16376.2,0" transform="translate(-7338.399 -2092.755)"/><path class="e" d="M16376.2,0" transform="translate(-7338.399 -2092.755)"/></g><g class="f"><polygon class="g" points="4905.826 696.27 4905.826 535.47 4975.774 535.47 4975.178 580.57 4957.226 580.57 4957.226 630.169 4969.976 630.169 4969.976 626.37 4980.143 626.37 4980.143 617.59 4993.809 617.59 4993.809 613.87 5019.143 613.87 5019.143 617.59 5032.809 617.59 5032.809 626.37 5042.976 626.37 5042.976 630.169 5055.601 630.169 5055.681 630.277 5055.807 630.386 5077.996 581.904 5210.678 642.629 5188.142 691.87 5148.976 691.87 5148.976 696.27 4905.826 696.27"/><polygon class="h" points="5149.101 691.995 5188.222 691.995 5210.844 642.568 5077.934 581.738 5055.762 630.183 5055.601 630.044 5043.101 630.044 5043.101 626.245 5032.934 626.245 5032.934 617.465 5019.268 617.465 5019.268 613.745 4993.684 613.745 4993.684 617.465 4980.018 617.465 4980.018 626.245 4969.851 626.245 4969.851 630.044 4957.351 630.044 4957.351 580.695 4975.301 580.695 4975.901 535.345 4905.701 535.345 4905.701 696.395 5149.101 696.395 5149.101 691.995"/><path class="i" d="M12314.046,2628.35l-.593,44.85H12295.5v49.85h13v-3.8h10.167v-8.779h13.666v-3.72h25.084v3.72h13.666v8.779h10.167v3.8h12.657l.091.078.252.216.138-.3,22.068-48.217,132.456,60.622-22.451,49.053h-39.21v4.4h-242.9V2628.35h69.7m.253-.25h-70.2v161.05h243.4v-4.4h39.121l22.622-49.427-132.91-60.83-22.172,48.444-.161-.138h-12.5V2719h-10.167v-8.779h-13.666v-3.72h-25.584v3.72h-13.666V2719h-10.167v3.8h-12.5v-49.35h17.95l.6-45.35Z" transform="translate(-7338.399 -2092.755)"/></g></svg>