<svg xmlns="http://www.w3.org/2000/svg" viewBox="0 0 14775.8 7578.4"><defs><style>.a{opacity:0.25;}.b{fill:#22591a;}.c{fill:none;stroke:#351912;}.c,.g{stroke-miterlimit:10;stroke-width:0.25px;}.d{fill:#3f3f3f;}.e,.g{opacity:0.5;}.f,.g{fill:#4c4845;}.g{stroke:#3f3c3b;}.h{fill:#3f3c3b;}</style></defs><title>roads</title><g class="a"><path class="b" d="M0,0" transform="translate(-950.6 -798.2)"/><path class="b" d="M0,0" transform="translate(-950.6 -798.2)"/><path class="b" d="M0,9185.124" transform="translate(-950.6 -798.2)"/><path class="b" d="M0,9185.124" transform="translate(-950.6 -798.2)"/><path class="b" d="M16376.2,9185.124" transform="translate(-950.6 -798.2)"/><path class="b" d="M16376.2,9185.124" transform="translate(-950.6 -798.2)"/><path class="b" d="M16376.2,0" transform="translate(-950.6 -798.2)"/><path class="b" d="M16376.2,0" transform="translate(-950.6 -798.2)"/><path class="c" d="M0,0" transform="translate(-950.6 -798.2)"/><path class="c" d="M0,0" transform="translate(-950.6 -798.2)"/><path class="c" d="M0,9185.124" transform="translate(-950.6 -798.2)"/><path class="c" d="M0,9185.124" transform="translate(-950.6 -798.2)"/><path class="c" d="M16376.2,9185.124" transform="translate(-950.6 -798.2)"/><path class="c" d="M16376.2,9185.124" transform="translate(-950.6 -798.2)"/><path class="c" d="M16376.2,0" transform="translate(-950.6 -798.2)"/><path class="c" d="M16376.2,0" transform="translate(-950.6 -798.2)"/></g><polygon class="d" points="9329.2 6468.3 9325.1 6460.7 9287.9 6413 9178.9 6227.1 9146.2 6155.6 9117.2 6170.4 9150.7 6243.1 9261 6431.4 9289.5 6506.4 9307.5 6586.7 9314.1 6756.5 9366.7 6756.5 9360 6564.8 9329.2 6468.3"/><polygon class="d" points="10064.1 6853.501 10034.402 6853.501 10034.899 7005.799 10065.053 7005.799 10064.1 6853.501"/><polygon class="d" points="9201.7 6185.2 9235.7 6188.6 9301.1 6416.5 9333.7 6407.1 9265.2 6168.1 9250.6 6155.9 9209.6 6151.8 9151.8 6110 9131.8 6137.6 9193.4 6182.1 9201.7 6185.2"/><polygon class="d" points="9561 6852.179 9561.199 6818.24 9561.199 6818.001 9463.799 6818.2 9408.5 6828.7 9391.599 6835 9398.199 6867 9415.899 6860.5 9469.199 6851.799 9469.298 6852.199 9470.298 6851.699 9560.992 6852.392 9561 6852.179"/><path class="d" d="M15356.6,4144.8h23.4l21.3,3.4,17,3.7,19.9,7.1,18,9.8,254.3,145.4,15.9-33.3-267.9-149-21.9-8.5-20.6-5.9-16.3-3.7-20.3-2.5,12-18.3,10.4-20.7,7.2-24.7,10.1-23.2,14-26.9,8.1-8.6,18.1-13.1,16.8-9,19.2-7,14.4-7.8,15-11.3,14.5-17.3,11.1-21.9,19-63.6,22.3-130.9-29.9-6.7-23.7,126.9-17,59.7-8,16.6-8.9,11.5-9.5,7.8-11.3,6.2-16.5,6-16.3,8-14.9,8.8-14.4,11.6-5.9,6.3-5.9-21.2-7.8-17.5-10.2-15.6-12.6-13.5-13.9-10.4-27.6-11.3-279.6-80.8-28.2-6.5-25.6-3.4-15.8,1.9-27.3,10.6-15.7,10.1-32.2,26.2-15.1,9.7,15.7-154.2,57.4-242.3-30.8-7.6-57.2,239.3-52.9,76-27.7,24.8-47.3-30.3-179.6-100.9v-.9l4.2-323.4h-35.1l-2.1,305.8-627.5-334.5,89.7-73.4,196.4,1.9v-33.1l-211.5-2.5-110.9-3.8-19.3-3.7-4.8-2.6-9.1-54.1-2.6-78.9-34.5-2.9.1,4.3-35.3,155.4-54-190.9-31.2,9.5,49.8,181.5-255.9-132.8-32.1-15.6L13162,2928.6l-3-1.1-13.3,32.4,303.6,135.7-3.6,594.5-284.9-1.1.4,33.8,285,1.2,1,354-306.3-4.8.9,33.8,305.6,4.6,2.6,377-104.1-.5-40.9.5-156,2.7.4,33.4,129.8-1.6-6.2,7-23.8,43.1-2.2,7.1-13.7,99.5,31.6,5.2,14.4-96.7,19.3-37.5,32.7-27.5,116.5-.3-25.9,208.9-8,116.9,32.7,3.1,7.8-118.3,26.2-210.9,324.8.5-.5,299.8-131.5-47.4-11,30.9,142.5,52v21.7l-87-14.1-65.6-27.9-72.5-13.2-64.2-.9-38.3,7.9-8.2,3.4-16.2,11.9,19.9,27.6,13.4-10.7,31.1-6.4,61.5,1,71.2,14-2,.3-124.7.8-16.6,2.4-14.4,6.2-13.8,11.5-10.6,13.7-6.5,14-3.8,12.6-.3,12.6-2.6,391h-25.4l-319.8,4.6-32.3,1-59.7,3.4-56.2,13.1-9.2-52.7-.5-46.4-16.6-17.1-274.7,1-16.4,17.1v56.5l-3.5,8.7-32.8,31.7-609.3-224.9-6.1-78.4,6.6-419.6v-1.1l.4-.2,35.8-16.5,165.5-62.7,9.1-8,13.1-29.8,405.5.6,143-1,95.8,18h213.8l-1.9,332.9-761.4-4.6-.7,34.6,761.7,5.1-1.2,410.2,32.4-.8,2.7-1454.9,1-889.3-.1-12.8,3.5-2.4,14.9-15,4.8-10.6,2.2-27.8-9.2-16.4-146.2-73.6h81.6v-33.7h-153.8l-5.5.9-42.3,14.8-8.1-4.6L12233,2501l.3-49.8-16.1-17.7-128.3.8-126.1-57.4-384.9-175.8-13.4-4.1-52.6-8.9-546.3,2.8-556.1,252.5-7.4-12.5-13.7-8.6h-77.8l-25.9,6.7-624.4,2.7-49.7-2.7-3989.1,3.1-505.2-236.9,2.3-108.4,1.7-35.1,1.2-19.9-16.4-18.4H4998.6l-38-21.2-.2-1-5.7-11.5-12.3-20.5-15.4-19.6-16.4-16.6-15.5-12.7-13.6-8.5-16.6-8.1-21.2-7.5-21.1-3.8-20.9-1.8h-19l-19.7,2.6-21.8,5.2-20.2,8.1-18.8,9.9-16.4,12.1-13.5,13.1-15.8,5.1-21.8,2.4h-36.9l-99.5-33.3-9.4-.7-1.6,1.6-759.1-347.9-559-263.6-.3-73.6,156.5-.7v-33.8l-156.5.9.5-52.2h-32.6l-.7,52.8-179,13.8-44.2-6.5-2.3-88-32.2-2.2,2.2,88.4-219.9,3.2-1.4-239.6,16.4-.1V923.7h-17.2l-.2-16.8h-32.8l2.9,289.6-274,4.2-.5-119.4h-31.6l-.5,119.4-141,2.8-2.6-405.3h-34.4l3.6,406.3-346.2,5.2L1797.8,969l-2.4-60.1-33.1,2.5,1.2,26.6L1223,952.4l-32.4,1.1-172.3,3.3-33-.1-34.7-.2v33.1h35.5l4.8,240.9,3,32.5,4.7,74.2,3.8,135.2h32.5l-1.8-69.3-1.9-68.1-3.8-72.5,143.1-3.1v217.9h33.2l-.6-218,565.5-14.6,4.5,340.4-517.5,3.8-15.9,16.5,3.3,248.2-208-99.2-1.9-192.8h-31.3l-.9,182.2-1,21.9,9.2,17.8,272.5,128.1L1270,1931l114.7,50,138.4,43.3,9.9-25.7,188.1,50.1,73.7,1.9,96-.3-1.3,28.3,270.9,4.4v287.3h33.7l-1.7-287.3,21.9-.4-.2-26.7,428-6.9,1.8,262.8,33.3.2-2.6-263.6,255.3.7-21.8,23.8,14.2,36.6,61.9,69.7,42.7,46.1,32.3,21.8,35.9,17.4,2.1,46.3-8.6,77.1-3.4,80.1,8.1,73.9,7.7,32,140.2,497.4,50.4,238.4,7.6,126.1L3277.8,3694l-5.2,99.6-1,682.1,4.5,41.6,4.8,38.1,10,46.4,16.9,51.6,12.1,33.7,164.2,353.2-28.7,27.5-72.6,17.1-663.6,64.3,6,33.4,664.5-64.7,74.8-18.3,51.4,9.9.3.6,96.7,218.1,60.5,144.6,67.1,131.2,90.6,127,131.1,129.8,106.7,71.3,110.3,62.8,55.7,23.9-14,35.5-14.6,42.3-8,31.6-5.5,28.7-6.1,46.2-1.5,40.4,2,45.9,6.1,46.4,7.3,34,9.8,34.5,11.9,34.1,3.8,9.4,28.4-13.4-4.3-10.1-11.7-36.9-10.8-43.6-6.6-39.4-3.4-39.4-.3-37.8,3-40.3,8.3-49.5,14.4-51.2,21-54.1,62,26.3,65.9,50.5,22.5,22.8L4427,6149l13.5,24.9,7.8,17.3,24.9,79-8.8,33.1-13.5,32.1-9.1,17-15,22.2-18,18.9-12.8,10-35.3,21.8-33.5,17.8-18.9,9,14.3,30.3,73.3-19.4,32.8-5.1h46l38.6,7,105.2,39.1,104.3,46.5,25,7.1,15.6,3.3,3.1,68.3,32.3-5.4-2.9-62.6,35.5-4.5,31.3-7,30.2-9.7,33.8-13.4,31.6-18.6,24,16.7,16.1,23.5L5027,6532l-21.7-31.4-22.6-16.2,48.4-52.7,37.7-67.8,2.3-6.8,11.1-115.4v-10.3l-46.6-162.3-4.1-7.9-76.1-81.5,356.1-612.2,298.4.5,1695.9.9-1,1010.7-109,60.4,16.4,28.4,74.6-42.1L7272,6468l-16.6,47.9,23.8,22.9,75.9-4.2,22.5-25.4-39.9-122.8.8-1017,1266.6,1.3,40,.2,46.4,2.4,2.3,155.6,16.3,166.6,50.3,122.5,79.3,161.2,26.4,86.6,10.6,84.2-2.8,101.1-23.3,108-23,57.4-29.8,48.8-52.8,69.9-28.2,41-20.1,43.5-7,25-2.4,21.4h-.2l-.5,6.3-.1.6-2.1,24.8-29.2,1.9-3.6.7-61.2,18.3-139.7,38.2-94.3,12.6-128.2,5.8-61.5-5.9-62.8-19.5L7979.7,6717l-5.6,32.1,121.6,32.3,64,19.8,67.9,7.4,132.3-6.5,95.6-12.8,134.9-36.1,34-10.2-63.4,44.7-66,48.6-44.8,27.1-57.1,26.3-41.3,13.5-58.9,11.8,6.9,31.3,60-12.9,42-12.9,60.3-25.3,50.5-31.1,68.1-48.6,69.5-49.1,23-2.9,8.2,36.2v21.9l-.5,752.4-4.2,62.5,6.2,4.8,3.4,68.5,15.6,76.2,24.6,26.7,29,28,41.2,33.9,68.8,50.3,156.6,105.7,29.7,25.6-2,8.3,24,5.5,80.5,52.7,83,53.7L9258,8188l39.4,21.9L9509,8311.8l183.5,51.8,105.2,13,109-1.2V8342l-105.8,1-102.3-12.9-42.9-11.6,67.6-1.8,76.7-7.1,179.5-24.1,56.7,20.2,26.9-17.8-6.2-145.5-15.5-374.8,58-15.5,163.5-57-6.8-32.9-163.6,57.3-51.9,12.9-1.792-636.089-5.976-112.073-32.033,3.136,5.979,108.875.722,164.651-168.5,1.5-171.5-.6-380,.6-146.9-3-3.3-385.5v-1.2l-2.1-26.9,16.2-30.2,2-8v-10.2l-6-13-12.7-10.8-6.8-214.4,31.5-.8,14.6,3.9,15.3,8.2,3.2,124.7,2.7,8.7,8.7,14.9,2.6,18.1-.2,17.8h31.9V6738l-1.6-15.5-3.2-16.9-9.1-16.4-.9-130.4-9.5-14.9-28.4-12.9-24.4-5.9h-34.3l-1.8-56,347.2-3.9,1.2,17.2,9.8,14.5,38.3,16,53.2,6.2,58.4-7.9,38-17,10.5-15.3-.2-17.1,308.4-4.3v101H9931v34h58.8v23.8H9927v34h62.8v23.8H9927v34h62.8v25.5l1.8,7.7,13.9,27.4v134.9h34V6797h472.4l2.1.4-.7,535.2-1.7,161.8,1.2,121.8-.2,34.4,1.2,64.5h32.5l-1.3-64.3-1.3-34.6-.5-120.6,2.9-164-.3-534.4,198.2-2.3,195.849,2.073V7283.53l-6.618,10.92-4.431,4.3h-91.451v32h40.147l-127.885,53.629-3.777-10.345-21.308-9.229-74.956,31.979-8.547,20.735,10.25,25.25,21.013,8.736,240.25-100.75,25.588-17,14.042-26.583,3.183-19.443V7183.014h19.363v.021l304.187,2.265,206.5.9v186.2l-27.8-11-26.2-8.9-29.7-7.1-70.5-12.1-47.7-1.8-62.5,2-27.7,3.2-43.6,6.8-32.7,6.5-34.6,8.5-44.1,12.8-6.8,3.7-5.3,4.1-5.8,7.8-2.8,5.6-1.9,5.225v219.569h-31.9v-1h30.9V7371.827h.013l-.363-20.327v-47l-1.971-7.693-40.529-73.906v-38.886h-15.5v52.7l26,71.885v42.9l1.452,265.8-439.1-1.1.016.436,1.273,33.935.009.226,404.6.3.9,130.9h32.6l-.7-131.3h32.3l.735,131.467h32.264l.1-130.067,158.2,1-.3,12.1,1.7,19.5,8.6,12.7,22.8,13,52.5,10.3,37.9-.6,42.4-7.8,25.7-9,7.7-5.2,12.8-16,4.1-10.2v-17.6h.7l63.3-.7v1.3l-1.5,152.3-29.1,3-6.5,1.2-5.7,2.5-16.8,12.7-12.1,21.6-5.5,23.4-3.4,23.7,1.1,59.1,17.4-.283v-50.5l.033.153V7897.5l2.4-18.7,3.8-17.1,8.967-20.783,13.083-11.5,31.018-3.317V7841l2.383,194.374L11468,8035l-12.375-8.625-7.125-12.775-3.2-45-.2-63.6-19.3-.375V7954.1l-.1,17.8,4.1,48.6,3.4,10,10.5,13.8,8.3,5.8,12.8,3.4,22,.5.2,37.3,31.4-.1-1.9-260,2.5-178.2,442-1.6.9,158.4h34l-.7-159,149,1.1,8.3-32.8-158.1-60.6,1.7-69.3,198.2,73,10.9-31-208.3-77.2-.1-178.6h525.6v318.8l33.5.5.5-318.9v-.5l352.449-1.4,140.649-1.1h32l0,1.2-32.062-.2-140.59,1.1v21.438l173.565-.263L13081.3,7561.9h34.4V7272.3h344.7l17-17.2-2.2-232.5,11.9-20.2,21-25.1,65.5,64.9,8.7,4.6,28.5,5.5,208.8,196.6,28.7-12.6-5.3-440h.1l-.2-33.2-3.6-77.9-.7-207.8.1-70.9,10.7-9.2,11.9-15.8,8.2-18,3.9-17.8v-18.4l-2.8-15.3-4.9-12.6-6.7-11.6-8.3-10.6-10.8-10.7-11.3-6.7-10.4-5.5-11.1-3.7-13.2-2.1-13.2-.3-16.7-75.1-3.9-32.9-3.4-44.3.1-42.2,2.7-35.8,6.3-55.3,7.5-40.9,5-18.9,13.1-.7,12.6-2.7,12.7-5.4,12.9-7.7,13.4-12.2,10.5-14.6,7-15.8,4.2-16.2,1-14.7-2.6-16.5-4.7-14.1-6.6-14.3-9.5-11.7-11.4-9.5-16.3-9.9-18.7-4.3-10.3.1-11.5,1-13.3,3.7-11.8,5.4-12.4,8.6-10.5,9.2-7.2,10.2-601-224.8-6.3-20.8-1.8-148.5,320.3-4.7,355.8,2.7,18.4-1.8,27-2.5,227.1-9.1,284.2-.8,255.8,4.7,156.5,21.4,30-14,15.5-30.8,124.5-451.8,372.9,2.9-.9,219.2-.3,13.3h33.3l.3-14.2,1.3-217.9,180.1,2.3.9-33.9-181-3.8-3.1-334.5,257.2,1,.3-33.4-257.7-1.5-.4-340.4,4.3-2.3Zm-2471.4,356.6-.7-399.1,195,1,1.6,397.7Zm59.9-1121-59.2-1.3.3-254.1h193.6l.1,260.5Zm134.8,38.7.1,267h-193.7V3412.9l52.5.9Zm-.2-328.1-193.7.4.7-114.3-1.6-22.2,105.5,1.3h89l.1,12.2ZM12886,3720.1l194-.2v138.2l-.2,210.6-194.7-.6Zm24.2-909.1,193.6,97.5-.8,10.3-7.3,7.4-201-101.3-4.3-7Zm-26.5,100.9.7-54.4,128.9,65H12990l-38.7-.8h-68.4Zm-30.2,774.3-96.3,1.5.5-32.8,96.4,2.6Zm-95.2-65.3.4-27.1,15.8-15.5,1.4-63.2h14.2l-1,106.5Zm63.6,1.4,1-106.7h30l1.2,107.2Zm32.2-243.6-136.2,1.7.5-42-16.3-16.9-150.7-1.1V3193l-16.6-16.6h-110.4V2948.1l77.8,3.3,349.9.4,2,29.1Zm-453.2-.4.3-23.9,284.5.3v25.5Zm229.842,35.54-2.987,10.8-10.959,13.084-26.449,5.527h-91.764l-29.57-4.023-13.348-15.834-2.2-11.339ZM12843.1,2819.4l8.3,4.7,1.2,20.1-1.2,73.5v.7l-349.6-.7-84.4-3.4-183.4-1.4h-.6V2810.2l309.4.2,14.3-10.3,44.233-93.934Zm-610.1-281,83.9,38.5-84.1.7Zm158,72.1,180.233,81.967L12531.9,2776.9l-298.1-.6-1.1-164.3v-.3ZM12231.6,3151l1.2-204.6,70.5.4v44.9h32l.6-44.8,56.1.5v240.9l19.223,21H12519.2v111.2l-133.7.7-16.1,16.6-.2,40.5-72.5.9-65.2,3.1.4-197.4,156.6-.1V3151Zm-.3,265.7,67.9-4.2,69.6-1.3,52.008.524,4.235,21.844,3.474,7.267,20,23.727,10.076,5.542,36.75,5,2.157.146h94.5l3.272-.338,33.5-7,8.994-5.389,16.75-20,3.154-6.007,6.18-22.343,52.35.527,137.3-1.2v68.7l-93-.7-16.5,16.7-1.2,64.2-15.9,14.8-2.5,111-493.1.1Zm.1,304.9,503.5.2,118.4-1.5-.9,347.9-203-1.1-419,2.6Zm-1.1,382.5,418.7-3.8,202.9,2.1.7,396-76.8-14.3-546.6-.4Zm-31.7-416.6v.5l-198.8-1-.7-268,152.5-.5,47.1-.5Zm0-303.4-199.7.9-.2-439.3,201.6,1.1Zm1.7-917-.5,19-41.3-19Zm0,56.8v53.9l-200-.9v-.7l-1.4-145.5Zm-202,387.9,1.8-301.5,200.2,1.4v301.2l-202-.5Zm1,809,199.1,1.4-.7,347-199.5-.6Zm-1.5,382.1,200,.4-1.4,382.6-14.8,1.5-183.8-1.5Zm187.4,417.4-2,6.5-158.3,59.6-26.9,12.1-.2-78.6ZM1023,1229.9l-4.9-239.6,171.7-3.5h.7l4.8,240Zm205.2-4.5-4.8-239.8L1764,971.8l3.6,238.9Zm156,686.7-108.7-43.5-3.8-246.1,228.4-.7.3,261.8,2.8,68.2Zm342.5,104.7-190.1-52.9-3.3-81.5-1.2-260.6,240-3.9.6,214.1-211.1.9v33h211.8l2.4,153.9Zm74.3-772.4,346.4-5.4,10.2,523.1-353-.1Zm236.6,780.1-76.8-4.6-152.4,1.3-3.3-225.4,352.8.3,1.1,224.2Zm153.3-5.1-10.3-780.6,208.5-5.1,14.1,784.4Zm245-1.3-13.6-784.4,205.6-3.3,12.8,787.3Zm237.4-1-12.4-786,219.3-3.5,15.7,788.4ZM5138.5,4033.9l5.7,45.1v8.8l-3.8,11.9-333.2-.6-1.5-264.1,233.6,167.5,15,8.6,12.7,2.1,13-4.2,12.4-7.4ZM5390,3902.5l-11.2,6.2-6.9,8.1-3.6,11.5-.8,173.7-20.6-.2,4.2-27.5-1.1-53.9-32.3.6.9,53.7-4.2,27.1-20.3.3-155.4-108.5-.7-.5,25.2-41.2,32.9-.4,60.7-31.5-14.3-29.7-53,27.8-78-3.1V3795l14.5,5.5,45.6,1v-33.2l-37.5-.8-22.6-7.2-.9-47.7,324.2,1.9,2.1,186.8Zm47,32.5-2,166.2-34.6.4.7-166.1Zm-71.6,319-1.1-10.5-2.1-8.3-1.8-5.8-4.3-7.7,61.5,6.7-17.8,30.8-10.5,13.3-14.7,12.7-13.2,8.1,2.3-11.6,2-11.2Zm2.1,73.4,18-9.6,14.5-10.3,12.9-12,11.7-14.6,21.2-36.1,145,100.7-1.3,107.2-51,4.8-14.8,17.1,1.1,71,14.7,16.7,50,3.7v.9l3.6,327.3-790.5-.5v-1l3-550.6,81.8-.3,140-1.2,45,.3,17.4,2.7h67.9l80.5,1.4,47.5-1,38.9-2.5,16.8-3.5,12.1-4.2Zm125.1-90.4,99.5,10.5-.6,57.7Zm96.8,250.1v45.1l-32.9-2.4v-40.2ZM5076.7,5334l-279,1.4,1.3-18.1,3.6-390.1,271.7-.1ZM4805.6,3115.5v-.1l.3-97.7,127.2-1.2-4.3,219.7,32.1,2.1,5.7-221.3,115.3.6-2,184.1-1.5,64.2,2.1,109.3-275.5,1.5-.6-227.5,124.6-.7v-33Zm.6-131.9.8-321.7,277.9,2.9-3.1,318.6Zm-1.3,427.2,78-.5-.4,54.4,32.2-.2.9-54.1,165.6.1-2.9,267.5v.6l-167.7-1.8-1.6-60.2h-31.9l1.1,60.5h-54.3l-19.5,6.9Zm494,804.5,20.3,15.1,8.6,8.4,3,4.4,2.1,7,.5,12.9-3,18.6-2.3,5.5-6.6,5.7-44.5,17.4h-.4l-102.2-22.9-74.2-24.7-134.6-64.2,159.7.3,36.5,4.2,31.2.1Zm-61.3-81.4,46.2,1.2,38,25.7-52.1-4.9-14.1-10.7Zm-63.1-33.9,2-6.1.9-9.5-.8-9.4-2.3-14.9,56.2,39.6Zm11.9,46.4-62.8-6.8-181.7-3.6-134.7-2v-1.8l343.2,1.7Zm-307.7,51.4,216.6,98.4,38.4,14.2h-40.2l-19.9-2.8H4805l1.6-110.9Zm-46.6-463.7-19-16.2.1-1.4,17.2-6.7,247,2.3v200.1Zm65.2,83.8-23.9,30.6-67.6-49-1.3-54.5Zm228.9,132-14.7,23.6v-24.7ZM4987.6,2044.8l6.9,1.9,93,1.2v5.9l-2.1,33v4.2l-75.2,11.7-11.3-16L4983,2053l-3.8-13.4Zm53.9,87.4,43.9-6.5-1.8,36.3Zm.5,44.4-30.7-6.3-44.7-2,35.2-25.8Zm-81.1-60.5,5.7-18.9,12.9,20.3-24.4,17.1Zm45.5,87.3,77.2,16.7,1.9,409.9-278-2.2,2.9-372.8,21.4-3.8,23.2-6.7,19.5-8.8,18.8-11.3,17.9-13.2,14.1-10.7Zm-355.6-118.1,3.8-33.8,6.5-27,4.7-14.3,26.8-52.1,12.3-11.9,16.9-10.7,25-13.1,21.1-6.5,18.5-2.4,21.9.4,23.3,3.8,15.9,5.1,16.6,8.1,17.9,12.9,15.4,13.5,12.8,14.9,12.3,17.8,8.3,17.3,6.1,16.7,1,29.1-3.1,33.5-2.3,12.4-25.7,73.4-32.3,24.8-19,10.5-29.9,10.3-29.7,3.2-36.1-3.8-32.3-12.3-23-15.3-15.9-14.3-15.9-21-10-17.8-10.2-23.2-2.4-21Zm-18.6-83-5.3,13.8-3.3,18.7-10.4-17.1,7.9-6.4Zm-38.3-29.4,19.7.3-13.7,12.7-8,4-23.8-22.9Zm-52.3,14.5,17.2,15.9-19,7.1-19.3,2.8h-19.1v-54.6Zm-40.4,97.2.2-33.6v-4h20.3l14.3-1.4,20.2-4.8,26.7-9.8,11.8,20.4,15.3,33.7,3.8,10.3-37.6-6.7-75,.1Zm-.9,372,1-333.9,72.8-.5,50.5,8.6,3.4,10.9,11.3,21.6,14.2,20.7,11.1,13.5,9.9,9.5-174.2,251.4Zm-.1,60.2,187-268.2,13.5-21.7,12.4,8.2,20.5,9.2,19.3,5.9,24.7,3.7-4.4,729-275.8.3v-1.3h-.1ZM4376.8,4256.6v-.5l-20.2-5.8h-48.4l-15.5,17.3v25.3h-58.1l-7.5,2.1-44.7,24.1,15.7,29.3,39.5-21.3,71.2-.7,16.1-17.1.4-25.4h26.2l6.5,2.2v67.4l17,16.9,214.8,1.6,16.4-16.5,1.2-68.8,59.4-18,48.4-2.1-1,245.7-5.9,130.3-74.9-2.3v-85.4l-15.6-17-87.2-.5-1.3-75.7h-32l1,93.5,16.5,16.1,86.1-.5.6,86.3,16.2,17.4,88.7,1.9-4.2,60.1-15.7,26.9-14.5,11.2-34.4,2.3-1.6-98-32.4.5,1.6,97.5-26.6-1.2.5-18.8-32.2-1.6-1.2,34.7,14.5,17.3,62.1,5.1,57.2-4.8,8.3-3.3,8.9-6.7,11.2-11.8,23.1-32.9,3.4-9.1,5.7-80.5,7.3-151.5,1-246.3,25.3-.6-3.1,552.7-233.4,2.3,1.2-63.5-31.8-2.2-2.1,65.7-117.8-1.6-35.6-16.8-29.4-40-6.3-71.8-1-119.7-16.4-16.7-38.7,1.2-.6-93.4,40.9-1-.6-33.3-162.9,4-16.1,16.8.8,131.8,17,16.5,113.7-7.4,30.9-1.2.4,86.1-32.9,1.6-17.1-4.3-13-2.1-36.1-2.2-43.5.7.4,33,39.6-.6,37.8,2.4,29.6,6.5,36.7-.7,4,43-57.6-.6-82.4-41.2-13.5,29.4,2.6,1.3-11,1.3-10.4-2.8-23.4-51.9-31.2-88.9-16.6-86.7,1.3-80,16.6-48.8,22.9-46.6,28.2-30.3,61.9-40.6,109.4-41.9,179.6-29.9,309.9,4.3v33.5l-110.6,5.6-72.4,20.7Zm197.1,33.9v47.1l-183-1-.3-46.5ZM4652,5813.9l-3.8-7.9-39.6-51-56.3-33.8-66.6-5.4-69.4,26.3-35.7,24.8-16.3,16.5,2.6-11.3,9.8-101.3-7.3-48.2-23-55.7-56.3-81.7-35.7-78.3-20.6-67.4-8.3-61.7L4480,5353l137.3,29.1,121,5.8,25-9.5v552.1l-31.2,2.4-26.5,5.7-26.3,8.5-24.9,12.2-19.4,10.3,8.8-20.7,18-64.8,1.3-11.5ZM3857.2,4721l.9,7.1,7.4,17.5-10.4,3.6-10-24.8-15.5-65.4-13.3-85.1-10-38.2,16.1-200.2,4.7-20.4,8.5-20.8,7.9-17.7,10.9-19.2,11.9-14.7,18.1,18-20.5,67.6-14.2,98.8-6.2,102.9Zm-29.4,47.5-15.3,10.6-126.1,108.2,8-15.8,8.8-5.4,6.2-8.9,21.2-39.9,22.8-54.7,16.8-56.5,19.7-89.8,8.2,52.8,16.2,64.2Zm-28-473.4,8.6-80.9,17.9-57.7,1.8,8.9,3.5,15.9,6.7,15.7,9,16.3-7.8,10.3-10,13.7-10,17.7-10,19.6Zm123.4-429.7-6-13.1-6.9-10.1-11.3-12.7,47.7-42.1,21.1-20.9,21.7-29.7,11.9-26.1,5-16.7,10.4-9.8,7-10.1,7.8-20.5,14-63.1,3.9-51.5-4.4-50.3-.3-16.2-1.5-34.5.6-16.2,1.4-11.7,6.5-15.8,22.7,70.6,10,46.7,2.3,80.8-16.4,91.9-202.9,316,11.1-23.1,41.8-68.8,4.3-9.7,1.7-8.7v-9.3ZM3393.6,2682.5l-.7-10.9-1.9-8.9,105.6-.6,34.7,12.9,13.5,7.1,11.1,14,74.2,90.9,131.5,159.1,49,49.5,40.8,64.1-14.9.2L3392,2732.8l2.4-23ZM3382,2428.7l.8-11.7,6.1-15.7,11.3-12.6v-3.4l10.2-5.4,14.1-2.2,50.3,101.7,182.9,288.2-24.4-30.8-50.8-59.8-14.4-18.4-17.1-11.5-17.9-7.9-35.1-10.8H3385.9l.9-134.8Zm157-98.9,4.9,33.3,6.2,23.1,7.3,22.4,5.6,22.3-13.1-20.4-10.2-15.3-13.3-14.7-14.9-11.7-15.9-10.3-19.7-9.7-14.2-5.5-21-4.1-5.1-8.9L3410,2300l-10-9.1-8.1-4.4-5.4-174.8v-29.6l171,.1-11.9,92.8-7.6,74.5-1.3,57.6Zm21.1-281.1-105.4-.2-.3-86.8h-33.1v87l-28.2-.7,8.9-29.9-7.9-127.9-9.1-39.6,22,3.4,53.4,31.5,63.8,82.8,36.1,67.7Zm-170.9,305.8-7.3,6.2.1-11.6Zm396.5,537.4-120.2-168.7-162-259.6-42.2-85.8,16.6,8.4,23.7,16.7,10.4,9.8,20.3,30.6,6.5,13.7,4,10.4,58,138.9,29.7,45.1,16.7,16.4,139.7,212,115.6,156.3,14.4,22.1-25.8,1.7Zm132.4,269,.2-.5L4022.7,3328l-21.2,7.4-20.7.3-25.1-6.2-14.8-13.7-10.4-23.8-13.5-33.9-6-47.3-.5-28Zm-6.3-68.8,5.6-.4-.8.7-2.3,3.6Zm22.4,32.8,13.5-17.5,39.7,62.1-.9-.6-44.6-32Zm94.8,243.4-4.5,9.3-5.6,11.2-12.4-20.5Zm-34-152.4,41.1,29.7,22.7,35.5-12.2,22Zm-18.3-125.2,5.4-2.4,17.9,9.2,19.2,13.4,14,18.4,7.5,17.9,3.9,19.6,12.4,48.8.1,2ZM3707.8,2374l1.9-243.1,309.4-5.1-.4,497v.4l-100.5,4.5-187.4.8-5.3-2.3-6.5-4.8-11.1-26.6-1.7-37.3,1.6-149.1,153.6.1v-33.4ZM4019,2091.7l-309.3,5h-16.1l-16.4,16.3-2.9,445.8.9,43.6,14.7,35.5,12.1,12.7,10.3,6.9,17.1,4.8,19.9.9,167.7-1.9,101.8-4.2-.4,314.4-7.8,39.3-12.2,17.8-23.1,25.3-21.5,1.8-23.3-37-106.2-142.9-149.2-224.7-2.9-21.1-6.9-23-1.6-4.7-18.6-40.9-39.5-105.7-10.6-29.6-8.7-32-5.6-16.7-5.6-22.8-3.2-17.3-2.6-30.5.6-54.6,11.2-97.1,9.2-72.8,429,.9ZM3890.6,3140.4l-5.6,17.9-16.4-31.7-2.3-3.7Zm2.9,189,6.6-23.9,8.3,18.1,8,13.7,7.5,7.7-14,7.9-22.4,16.3-18.5,16.5,14.3-29.7Zm-9.7,88.2,19.3-18.3,24.5-18.4,28.3-14.8,14.8,11.6,9.6,10.4,8,13.4,3.9,7.7,6.5,21.7,14.5,54.7,3.4,43.7-2.3,37.2-3.1,26.8-15,62.2-13.7,16.1-78.9,6.8-214.8,2.7,8.8-26.6,7.1-13.5,86-122.3,7.6-2.8,10.5-6.5Zm84.1,289.1-4.8,12.4-11,13.9-2.4-10.4-3.5-7.8-3-6.1Zm182-679.2,2.6-11.5,134.4,1.8v40.6l-15.4,19-28.4,7.9,8.2,31.8,33.7-8.3,8.8-6.1,21.2-27.1,4.7-12.5,5.8,15.6,6.6,7.7,34.1,20.2,16.3-28.9-28.5-17.5-4.4-10.6.1-32.3,114.4-1v361.2l-62.7.2-27.7,1.9-32.3,5.7-8.9,3.6-8,5.8-8.6,10.1-52.1-38,15.8-21.7,31.7-51.1,3.8-10.8-.8-52,32.3-.1V3198h-48.9l-15.9,17.1.6,63.9-45.7,69.3-139-99-25.4-111Zm-66.7,19.4,26.4-18.9-16,22.7Zm312.9-385.1,8.8-.4,61.4,1.6-1.6,320.3-296.1-1Zm-176.2,190.4-77.9-60.8-8.5-2.8-81.7-2.7V2657.6l161.6,12.5,57.1-6.2,83.4-.1Zm200.7-224.5,46.9-65.4v2.2l-1.2,63.9ZM4090.3,4763.5l29.2,74,28.6,90.8,32.5,114.8,12.3,116.2.9,74.8-61.8-16.5-74.9-175.3,9.7-13.5,17.6-30.3,14.3-40.7,9-34.5,5.9-47.6v-46Zm182.3,206.4-6.2-31.1-10.7-40.5-13.6-34.9-31.8-43.8,20.2,18.2,117.8,147.7,44.2,48.8,151.8,182.2,50.9,52.2,68,53.9,25.4,10.9,35.4,10.1,16.9,1.8,4.5,3.8-11.9,5.4-110.9-5.8L4490,5320.4l-263.3-78.1.4-25.6,17.4-73.2,28.6-114.5.9-19.4Zm-60.3-91.4,10.9,21.6,9.5,30.5,8.1,43.4,1.4,35.7-1.7,17.5-10.4,39.9-9.8,40.1-.1-1-7.3-69.2-35.6-124-40.8-121,29.5,27Zm-10.8,466.2L4212,5381l-29.2-49.6-33.3-74,43.7,11.5-.2,12.3ZM4091,5206.5l-12.1-2.8-51.7-129.4,6.1-4.2Zm-9.8-330.6-5,40.9-9.8,34.5-10.2,29.9-14.3,23.8-69.2-163.6-29.5-87.1,49.7-7.5,60.1,9.3,29.2,80.1Zm-88.8-162.7-57.3,7.5-14.3-71.4-7.1-59.9-1.6-72.6,3.1-62.1,2.8-18,2.9,33.3,9.9,46.8,15,39.1,19.8,44.3,39.6,71.5,32,43.6,1.6,4.6ZM3881.6,4591l4.3,43.7,5.2,33.3,5.4,29.3,7.4,33.5-7.9,3.3-6.5-15L3876,4528.4l6.1-97.5,13.4-95.1,18.3-59.1,12.7,5.6-9.5,24.9-6.9,9.1-4.1,8.8-6.1,20.8-4.3,25.9-3.5,15.3-4.4,31.7-5.1,40.6-1.8,33.8-.9,27.8Zm7-373.6,12.8-11.7-6.1,18ZM4116.9,3508l-.3-2.6-10.1-47.2-27.1-85.6,27.8-2.4,27.3,72,8.2,45.3,5.4,99.8-7.1,106.6-103,290-53,140-21.5,7,158.3-398.7,6.8-81.2Zm71.3,16.7,9.3,128.7V3705l-5.9,42.8-23.6,86.3-9.3,40.9-5.7,46,11.7,48.2,20.7,38.3,44.9,36.9,33.5,13.3-19.3-1.7-67.7-25.7-33.4-57.3-3.2-50.9,16.1-81.6,21.9-93.1-4.8-48.2,7-110.4-5.6-103.2-8.8-51.8-24.5-65.4,32.2-2.2,21.1-2.7-16.9,18.8-3.6,12.5Zm-59.6-189.5-2.9-7.9-18.7-30.4,50,35.7Zm-159.1,828.9-31.2,87.4-15.6-6.9,24.4-72Zm52.7,187.5-4.5,6.4-24.1,61.1-1.7,7.3-1,88.8,15.6,89.7-9.2-14.9-19.6-41.8-16-42.4-8.4-38.4-3.8-48.2.5-83.7-1.1-20.2,9.3-23.6,8.5,2.5h19.8l23.8-5.1,38.7-13.3,182.9-70-71.2,29.3-68.6,43.9Zm-18.2-95-17.5,3.4-16.2-.6,38.7-107.1,13.3-2.5,18.1,2.5,31.1,6.7,206.4,5.6-39.1,4.6Zm70.2-131.4-28.1-6.4-23.1-3,99.5-270.5-14.9,75.3,3.1,57.7.8,18.4,2.6,12.8,4.1,11,13.5,25.6,20.5,26.8,17.5,15.6,17.8,11.2,25.4,10.4,21.9,5.5,97.5,16.8Zm224.2-90.4-52.1-19-35.1-28.8-16.8-31.3-7.1-28.6-1-19,3.3-24.4,9.5-41.1,25.6-88.8,5.6-59.1-1.4-60.3-7.4-107.1-14.2-128.4,15.1-19.2,224.4,157.9-16.7,42.4-2.4,94.4-1.2,10.7-3.6,29.7v34.7l2.7,133-2.7,165.1v26.2l-1.5,5.4-5.8-1.2-7.2-19-13.3-9.7Zm144.8,79.8,275,15.3,56.1,1.4v2.4l-236.6.2-119.4-21.7Zm18.3-115.5-5.4.3V3773.7l10.8,1.2ZM4343,3424.5l5.2-6.5,28.8-5.4,13.6-1.3,73.5-.1v61.9l-1.9,13.3-5,19.6Zm-264.8-110.7,15.5,23.8-30-.6,7.3-10.4Zm-186.7,709,199.2-308.4-.9,11.2-168.9,423.5L3906,4157l-20.6,17.3-17.1,17.1-6.4-13.9-6.2-23,2.6-31.9Zm-20.1,755.5,6.2-1.2,56.8,148.7-27.8-54.5-23-48.2-17.1-41.3Zm36.5-13.2,3.9-1.4,12.3,38.5,28.2,74.2,67.2,160.9-4.8,4Zm85,334.6,25.8,42.2,20.2,50.6-.6-.2-157.1-44,97.6-39.1Zm61.5,131.6.9.3,60.2,144.5-5-3.4-428.6-235.4,78.2,12.1Zm40.7,11.5,13.3,3.6,38,85.4,20.8,39.6,35.8,54.9,22.1,26.9-.4,12.8-1.8,8.3-2.8,7.1-4.3,4.4-9.6,2.2-5.8-1.7-3.8-2.8Zm87.9,309.6,4.9-6.4,23.9,48.3-54.8-27,10.2-4.4,9.9-5.4Zm27.9-31.7,6.7-1.3,7.5-2.4,9-4.1,7-5.7,6.1-8.7,4.8-9.5,65.9,93.3,20.5,49.5,5.8,40-3.5,28.9-7.6-18.2-7.9-14-12.8-16.5-8-6.4-29-16.4Zm547.8-258.1-17.3,12.1-15.9,5.4-14.5,2.4-45.4,3-40.2-33.1-51.3-51.6-163.3-196.9-159.5-192.8-34.7-31.3,8.9,3.1,72.1,1.2,28.4,39.3,7.6,6.5,42.7,19.6,8.9,1.9,64.8,2.1h161.4l1,105.3h32.1l-.6-105.9,126.6-1.6-4.1,402.8Zm-532.1-707.4-73.9,5.4v-97.4l73.3-1.3Zm493.5-458.9-228-13,8.3-396.2,35.5-41.6,236.6,165.4,2.3,287.5v.5Zm-177.8-496.6,108.7,79-91.7-60.6Zm145.4,70.3,36.7,25.7,6.7,9.9-2.7,12.1-9.7,5.9-11.3-2-10.7-8,14.6-24.4Zm50,75.7,16.3-7,6.7-12.3,3.7-16.2,8.6,3.3v58.9Zm-240.4-729.1,275.9.9-.7,358.7H4496.6Zm-4.6,482.2,1.9-11.4,1.2-16.1,1.4-37v-23.9l104-.3-.6,71.8,32.3.9.7-72.2,138.6.4v271.5l-23.9-6.2L4509,3520.7l-14.1.4-8.4,2Zm17.2,124.9-36,43.4-10.1,6.5-4.3-2.7,2.8-85.4,4.7-9.5,5.2,10.1ZM4053.6,1742.4l415,191.9v79l-416.6-1.4Zm-1.6,303.5,416.6,1.3v41.6l-416.8,2.5Zm-.3,79.6h.1l416.8-2.8-1.2,383.6v1.5l-88.8,122.3-110.7.1-56.5,6.2-159.7-12Zm.1,695.4,73.9,1.3,74.1,58.7-71.9,101.3h-63.5l-9.2-5.3-3.6-5.7Zm-12.7,205.6,5.2-18.4,6.1,4.1,8,2.4,9.2,1.6-21.9,13.9-10.7,4.7Zm-3.3,44.3,37.6,9.2-16.9,23.8-29-29.1Zm-14.4-1344-1.2,284.7-300.2-3.1-5.2-3-3.6-7.4-2.1-10.1-.3-289.1,166.2-3.3,47.5-15.7Zm-143.7-67.5.1.1-7.9,3.4-160.7,1.7-1-77.3Zm-189.3,366.5,11.4,8.9,10.9,5.7,6.7,1.5,302.3,3.3.1,4.3-427-1,.4-18.6-4.7-95.8-37.4-133.7,4.9-57.7,34.2-43.2h86.4v291.2l2.9,17Zm-552.8-803v57.5l-111.9-48.8Zm-206.8,792.5-15.5-785.1,41.7,5.4L3207.5,1350l-3.3,5.3-20.7,11.3-15,16.1-11.2,21.6-13,38.5-10,31.2,30.8,8.1,10.3-31.1,12.4-34.9,6.6-12.5,9.2-10.5,20.2-11.7,16.7-16.1,435,204.1,1.2,95.7-251,1-.5,32.8,121.6.7-18.3,25.2-4,10.6-5.5,64.8v6.4l36.9,129.4,1.3,24.2-6.3-12.3-66-84.9-4-3.9-61-36.8-47.5-7.3-10.1-1.7L3269,1709.6l-37.2,7.3-13.7,134.2-.3,1.3-14.4,18.5L2958,2015.2Zm207.6-22,66.1-68.8-.5,2.3-24.7,89.3H3019.6l7-5.4,107.9-61.1-24.8,24.9Zm46.5,117.1,128.8.4,41.9,1,5.4,151.7-1.1,6.8-7.7-3.5-111.9-13.7-83.3-7.3-9.8-3.1Zm117.9-251,12.6-2.4,9.7,8.5,7.6,13.2,9.2,51.2,5.2,53.8-7.3,16.5-8.6,11.6-17.6,4.2H3210.3l34.3-130.6Zm-47.5-30.4.4-2.9,9.5-73.5,61.6,68-7.8,1.7-20.3-4.9-29.4,4.7Zm105.8,836.9,1.6,9.2,1,27.7-.9,8.1-63.1-44.5.7-.1Zm-266.6-438.4-17.2-8.6-28.4-19.3-77-84.6-3.3-5.4,29.3.1v6l63.3,14,33.3,86.7Zm-5.3-117.4,63,.2-.4,1.3-26.9,92Zm30.5,355.7,3.1-94.8,6.2-53.1,9.2-42.5,15.4,3.6,86.3,7.4,103.1,12.5,12.8,6.4-.1.7-4.8,47.8v76.9l5.1,62.5v139l-86.7.3-11.4,3.3h-1.5l-128.5-90.6Zm42.1,195.9-17.9-66.1.2.6,54.3,39.6-8.4,1.8-12.6,7.6-9.4,9.5Zm112.9,402.9L3174.3,2712l11.8-30.3,6.3-7.9,5.8-4,48.3,1.5,116,81.8,16.8,43.4,6.2,7.9,456.1,340.7,38.1,78.8-5.2,46.3-12.6,51.6-11.2,28.6-17.1,29-56.6,85.3-6.1,10.5-4.1,14.7-1.4,8.1-87.9,123.7-8.1,16.5-17,43.5-57-.4-9.5-1.5-43-.7-17.9-7.4-19.3-3.4-32.6-2.8-11.5-3-12.3-8-23.7-26.9-10.6-14.7-6.5-6.8-7.4-4.9-31.5-76-38.8-99.7-9-124.5Zm168.9,1801.9-91.4-191-23.3-65.4-15.3-63.1-8.3-72.9,1.6-679.4,4.1-96.4,18-193.5,46.4,114.6,9.2,9.2,6.7,4.5,35,41.6,9.9,9.5,19.4,10.4,19.6,4.3,21.2,1.8,21,2.5,19,7.7,6.5,1.2,46,1.3,60.4,2.1-.9,15.5.9,68h32.8l-.9-56.3,1.1-27.2,221-3.4,13.3,12.8,5,9.1,2.1,6.8,1,12.5-1,12.9-56.9,49.4-87.2,68.2-44.9,59.1-3.3,6.4-11,36.1-86.9-2.2-16.4,16.4,1.8,310.7,16.2,17.1,79.5,3.3-27.2,162.5h-60.8v33.5h58.7l.1,69.2-21.2,135.9-27.2,55.6-62.8,34.9-63.7,19.8-66,25.4Zm270.9-767.9,1.4,107.3-66-.3-1.3-108Zm-65.6-34.9.4-46,66.1,1.5-.9,45Zm67.7,176.5.9,55.9-66.3-2.2-.3-54.3Zm-205.9,776.5-52.3-116.6,128.3-47.4,70.1-39.6,6.5-6.7,31.2-65.6,15.4-87,7.4-58.9-.5-83.4,32.8-195.9-3.2-234.6,2-76.4,12.8-41.7,40.8-54,73.5-57.8,12.4,13.2,6.7,10.7,1.2,14.5-31.1,49.4-15.2,27.2-24.3,57.3-6.7,25-1.9,15.5.6,14.7-38,127.9-57.9,495.1-49.8,149.1-20.6,32.7-19.5,25.4-21.2,23.4-20.2,20.4-24.7,21.6-27.6,22-14.3,11.3Zm15,33.3,116.8-80.9,198.6-168.2,48.4,106.9,69.4,132.5,18.6,30.5-11.3,7.3-98.6,39.5-101-1-227.8-36.3Zm32.2,72.2,58.3,15.7,479.6,263,48.9,39.4,25.1,58.7v12.8l-3.5,9.7-7,8.8-17.7,7L4115,5545l-221.3-169.4-81.9-38.5-105.3-19.8-73.2-19.8Zm690.4,865.6-55.7-24.3-109-61.6-98.9-66.3-131.1-129.1-84.2-119-66.8-130.3-48.4-119.3,47.7,11.9,102.9,19.8,78.1,37.7,198.6,151.9L4104,5578l80.6,39.3,98.4,53.3,7.3,5.6,8.6,11.2,4.4,8.2,8.1,18.4,6.4,22.3,2.2,24,.2,22.7-6,27.7-12.3,38Zm29.8,12.5,55.4-137.4,67.1-68.6,32.2-22.3,60.1-23.3,50.8,4.8,47.3,28.1,32,42.8,10.4,49.2-17.9,65.3-31.2,67.1-31.6,9.8-29.6,9.1-30.2,6.2-32.6,4.5-30.3.7-91.8-8.9Zm191.5,155.1-9.5-17.3-10-15.4-12-15.4-13.1-13.9-16.1-14.8-15-12.3,27.7,3.4,40.1-1.2,37.8-5,42.4-8.9-9.5,12.9-13.8,22.4-11.2,21.8-7.8,20-8.2,24.8-7.4,35.3-7.1-19.9Zm537.5-73,43.3,158-10.2,109.7-34.7,62.1-57,62.4-21.1,14.7-33,15.5-34.2,11.7-35.6,7.7-38.7,3.8-33.3-3-32.5-10.9-109.3-48.6-88.9-32.5-43.2-6.9-26.3-1.6-27.4-.2,24.2-24,18-25,19.3-37.3,13.3-36.9,7.8-32.1,6.4-50.6,4.8-36.3,12.1-42.8,18.3-36.9,24-35.3,19.5-22,20.7-18.6,19.2-14.7,36.1-23.8,38.7-15.5,37.3-7.9,37.8-2,42.5,3.8,48.2,13.3,26.4,5.5,26.9,10.5Zm-77.9-121.8-32.8-10.5-16.8-3.3-34.6-10.3-23.6-3.9-23.8-2.2.8-561,475.5-1.8ZM5108.6,5334l-1.6-332.7,106.5-.8-.5-32.5H5107.1l.3-40.9h486.1l-.2,48.8h-13.6l-10.8-9.5-9.6-4.5-69.7-2.2-1.5,33.8,62.3,1.3-4,5.1-29.4,20.8-5.8,6.7-13.5,29-1.6,7.9.4,38.5,3.1,9.5,23.8,31.8,9.4,6.4,22,9.2,5.4.7,32.6,1.5V5334Zm433.6-219-13.5-18.9-.4-27.5,9.6-22.2,3.9-2.8Zm33.4,13-1.6-109.9,7-8.5,11.8.4.8,118.5v.7Zm18.5-937.1L5391,4169.2l-47.5-32.7,251.7-1.2Zm3.8-139.9-1.4,49-128.5,1.2.2-387,131.1.7Zm1.4-370.4-487.8-1.7v-.8l2.4-267.6v-.4l486.3,2.6Zm1.8-302.4v.9l-488.2-3-2.6-109.5,2.7-65.7.9-183.2,488.2-1Zm1.7-395.2-488.8.1,3.5-319.1,277-.4.8,145.9,16.3,16.7h45.1v-33.1l-29-.3-1.1-129.6,176.2.9Zm-484.5-353.4-.9-395.3,484.3,225.9,1.2,169.8ZM8503.6,2508v-46.4l194,1.5v165.7H8563.4l-16.2,16.2v58.7h32.4v-42.5h118v123.7H8384.7l117.6-268.6ZM8039,2458.9l431.5,2.7.7,46.4L8350,2784.9l-312.6,2.1Zm293.8,1837.2-103.1,22.8-83.9,34.5-25.9,6.4-88.6-4.6-79.3,3-180.4-59.5-66.5-4.8-5.7-255.8-4.1-22.6,8.6-3.4,14.3-.4,34.4-4.2,108.1-5.4,50.1-10.3,64.7,19.8,85-1.4,47.5-11.9,56.5,4.8,82.7.6,108.8,9.7-6.9,170.9,15,102Zm53.8,18.5,46.1-9.2,193.9-.7-11.9,18.9-56.3,55.5-50.2,69-45.4,105.5-16.4,43.6-72.2-108.5-58.4-49.6-65.7-41.1-72.7-21.7,60.9-25.6,103.2-22.7ZM8040.8,3243.7l-334.4,1.4-1.8-425.4h638.5l2.4,422.2-129.5,4.4Zm156.4,35.3v97.6l-19,45.6-36.3,40.7-52.1,33.3-17.3,5.4-54.9,3.2-56.8-3.2-18.6-6.1-39.5-29.1-32.8-32.3-24.5-49.2-2.4-105.4,177.2-2.1Zm-492.1.3,105.1.6,3.5,109.4,1.9,7.7,25.9,54.1,3.8,5,36.6,36.5,45.2,32.1,29.4,7.3h122.6l30.2-9.1,52.3-33.1,43.3-48.6,24-59.5.9-102.9,119.1-2.8,8.6,42,1.7,55.9-5.2,141.2-45.334.8-9.8,2.6-16.1,7.5-6,12.1-2.6,8.7v156.5l2.9,7.9,4.5,9.1,6.4,7.7,6.2,3.2,9.3,1.7H8354.9l2.2,246.3-105-8.9-48-33.7-21.8-33,1.3-54.3-14.1-67.1-3.8-7.7-39.8-54.4-40-31.8-40.3-15.3-27.5-4.3-29.7,4.6-58,29-6,4-48,60.8-22.5,72.4,4,68.1-21,25.1-37.3,26.6-44.7,14.3-32.3,4.8h-19.7l-8.6,1.8,6.7-604.4Zm649.1,267.5v151.4l-47.035,1.1V3550.2l2.1-3.4Zm-194.8,405.9,7-12.8,13.5,19.6,4.7,4.5,7.7,5.3H8169l-22.5-1.6Zm-26.3-19.8-31,33-44.7,10.9-77.7,1.8-56.6-19-19.1-22.9-13.1-27.4-4.1-66.3,19.2-59.9,40.9-51.6,50.8-25.6,21-3.1,19.9,3,34.5,13.1,30.3,25.9,35.2,47.6,13.2,62-1.2,50.1Zm-249.6,30.4-24.5,5.4-14.9.4,13.3-9.5,13.7-15.9,7.1,12.8Zm122.6-1504.4-1.5,328.1-305.4-2.1-115.2-262-10.9-28.9-3.1-14-.2-21.1ZM7342.5,3762.6l322.2-.6-3.3,221.9v2.2l-18.4,1.8-67.2-9.3-67.3,2.4H7342.4l.2-215.2Zm145.2,251.9,87.2-2.4,67.2,9.1,21.4-1.2,3.1,25.8,6.6,246.7-330.5,2.4-.7-279ZM7348,2784.1l1.8-322.6,187.3-2.5v17.3l3.6,21.4,3.6,10.7,5.7,19L7662.9,2785l-162.1,3.1-152.8-3.6Zm.2,33.2,145.4,4.2,178.4-1.8v425.4H7510.9l-132.5-4.5-34.3-11.4Zm-4.6,446.2,28.5,9.6,137.3,5.4,162.6.8-2.6,95.2-4.7,348.6v4.3H7341.6l-.2-427.9Zm-531.8-604.6,131.4.2v-32.9l-131.1-1.6.9-163.2h503.1l-1.3,321.1v.7l-276.5-1.6-226.5.7Zm220.7,155.7,282.4,2.5-1.667,179.4h-74.912l5.37-32.924-12.815-18.3-35.65-6.75-17.5,9.006-2.4,5.2-93.888-45.155-21.176,7.127-15.359,30,7.409,21.759,63.775,30.118-5.864,14.1-37.517-18.1-21.546,7.85-35.057,77.979L6811.9,2983.7V2816.6h-.1Zm187,213.9h93.436l-1.735,186.8-266.069-123.416,28.471-63.331,37.945,18.307,21.727-8.268,11.777-28.327,17.367,8.2,21.355-7.753,17.763-38.422,8.062,1.526-5.889,36.105Zm91.7,224-2.6,46.4v81.2l-181.6,2.6-315.2-.6v-1l-.9-359.7ZM6810.9,3416v-1.2l310.7,1,187-2.5v.7l-.5,266.5-497.2.4-1.4-98.4Zm0,298.9,145.7.2v103.5h32.1l.6-103.8,69,.1v61.3h32.4l.1-60.5,217.2-1.5,2.6,203.7v3.1l-76.1,26.7L7191.8,3828l-16.3-11.1-75.5,3.8-107,31.9,8.2,32.3,100.2-30.9,62.9-3.3,40.1,109.8-64,33.9-299.3,108.8-33,4.5Zm499.8,241.7-1,24.1-65.1-1.4Zm-505.3,215.3,1.6-28.1v-1.2l42-6.9,299.5-108.5,27.3-13.3,134.2,1.3-.3,279.6-192.6,1-70.3-2.5-241.4-1.2Zm-2.1,154.9.1-1.3,232.2.9,58.2,2.4-.4,39.1,16.3,17,45.6.8.5-32.8-29.5-1,.4-22.5,182.8.5.3,25.3h-37.2l-6.9,1-14.7,6.5-6.4,4.4-8.6,9.9-4.7,8.7-6.4,17.7-1,9.7-1.4,147.7,4.1,8.3,8.1,12.9,5,6,6,6.7,13.6,6.5,14.9,6.3,6.4,1.4,27.5.5v19.3l-504.8,1.2Zm506.4,62.8-1.6,186.6-25.1-.9-19.2-8.9-9.3-13.9,1.9-141.6,4.7-13.5,5-5.2,9.2-3.8Zm-506.4,467.1V4663.9l504.8-.6v221.3l-306.8,2.2-199.7-2ZM6050.1,3412.6h.1l73.6.4-.6,66.7h32.5l.4-66.8,204.4.6-1,266.7-199.2,1.5V3555.4l-3.5-10.1-9.8-12-12.2-5.8-84.7-1.3Zm77.9,268.7-77.8-.9V3559.6l77.2,1ZM6019.1,2460.7l1.2,157.4-327.5-152.2Zm-384.2,15.6,328.6,152.9-328.6,1Zm0,345.2V2664.6l384.8-2.6-.6,216.9-74,2-15.3,16.6-.8,85.7-294-1v-125h-.1l117.2-1.3v-34.4Zm384.8,91v70.4l-57.9.2.3-69.3Zm-386.5,466.2,1.7-361.5,384.2-.3-.5,361v1.2l-385.4-.1Zm385.4,33.7v1l-1.2,111.6h-159l-4.4-88.4.1-24Zm-385.4.2,188.5.1-.3,24.8,4.1,86.9-193,.7Zm-1.5,146.4h.1l146.4-1.8.6,40.1h32.4v-40.5l206,2.6v1l.2,119.9-385.7.5Zm292.1,240.3-11.6,5.3-4.2,2.8-61.6,63.7-214.5.3v-32l73.4.3v-33l-73.5-.9v-91.6l385.6.1-1.4,83.3Zm92.2,32.9v59.7l-146,1.5,60.8-60.8Zm-385.2,216.4,1-122.9,383.4,1.2-1.8,181.7-384.2-8Zm382.5,109.6v121.7l-66.2-15.5-236-40.4-42.6-5.7h50.6l263.9-43.7,10.1-2.7Zm-385.5-23.1,347.2,6.8L5718.3,4188l-91.4,1Zm-2.9,115.2,82.6,6.1,231.5,40.1,74.3,18.7v123.9l-3.8,34.9-16.9,31.3-37.1,56.5L5623.8,4327Zm-1.6,505.7,59.3.2v-34.6h-59.5V4706l121.3-.3-.7,87.8,20,16.9,103.9-24.8,57.3-26.6,1.7,99.9-1.9,32.4-299,1.8ZM6008,5034H5899.1v34.1l108.9.9-.6,264.9H5625.9V5066.7l107.4-.3v-32.9H5625.9v-106l385.3-3.3Zm-50.2-143.2,1.2-31.6-1.9-127.5-23.5-14.7-74.4,36.5-82.5,19,.7-83.7-16.2-17.1H5622.8l-1.6-196.9,1.8-107.5,81.8,56.1,244.3,175.1,74.9,62.6,179.1,140-29,37.3-67.9,33.7-78.4,18.7Zm272.4-69.9,126,94.5v42.9l-107.9,4.7-205.3-.1,1.4-42.2,72.4-15.5,73.2-37.1,5.8-5.1Zm124.1,511.7-313.9,1.3,1.5-336.7h90.7v83.9h32.7v-84.5l61.3.2-1,87.7h32.6l.9-88,97.2-2.7Zm-.1-624.4-3.4,78.5v51.8l1.6,31.8-118.1-87.1-134.9-105.9L5982,4582.2l37.5-57.9,20.4-38.3,5.8-44.8V4318.7l129.3,6.4,182,3.1Zm2.9-415.2v1l-173.9-1.8-136.6-7.7V4143.2l182.5,3.8,129.2.6Zm2.5-180-129.9-.2-183.1-3.9,1.7-205.5,52.4-.8,16-17.3v-27.8l-16-17.1h-52.4l1.9-126,309.4.2,1,364.7Zm1.1-734.1v.9l-309.6-.5v-1l.6-361.7,309.8,1.9Zm.9-394.4-309.5-2.3V2669.4l309.5,143.5Zm-309.5-351.9V2460.7l309.1.4.4,314.2Zm335.4,2701.2V5256l20.1-2.1,20.7-3.9,29-20.7,5.4-8.5,7.9-20.1.3-9.5-7.7-22.9-3.9-6.1-16.5-15.3-5.4-3.2,14.3-15.3,4.7-12.1.5-81.7h-32.1l-.8,75.3-20.7,22.9-15.9-.6,1.3-194.7,140.5,97.8-15.6,24.6,26.7,19.2,16.7-24.9L6766.8,5191l2.1,143.6Zm-.1-112.2v-55.3h18.7l16.9,7.3,11,9.7,4.7,11.6-4.3,10.4-16.7,12.8-12.6,2.5Zm36.9-299.7,277.7-.4,65.6-2.3-.9,231.8-340.5-227.7ZM6771.7,4326l-.9,23.5-.1,506.3-1.8,29.4v.7l-58.9,2.3-322.2,1.5v-1.2l-2.6-22.5-2.3-35.3.2-45,3.2-77.2,4-380.6v-.3l381.4-2.2Zm1.3-154.6-.4,120.6-382.1,2v-.6h-.1l.7-145.7,383.4-2Zm2.3-59.9-383.7,2.2,1.1-35V3714l385.6,1.4Zm3.5-695.9-1.8,166.2,1.4,99.7-385.6-1.7V3413.1l385.6,1.8h.4Zm0-34.1-386.1-1.6v-.8l1.4-361.7,270.7-1.8,7.6-2.1,55.8-29.9,50.5,23.3.1,373.5Zm-89.1-414.8-28.6,15.6-267,1.5.5-155.4Zm-254.4-156.9,96.9-.5-8.6,8.3-6.1,7.5-7,10.1-5.6,9.6Zm343.5,159.6-243.1-111.5,5.9-10,8.5-9.7,12.8-9.3,13.3-5,65.4-11.5,83.1,3.6,55,.5Zm.8-187.4v.8h-50.9l-148.9-6.8-138.4.6-36.1,2.7-10.8,1.6-.6-319.6,385.8.2Zm19.9,2302.5h6.3V5137l-1.8,2.1-5.1-.4Zm2.1,250.3-1.9-120.2v-1.1l167.8,121.3Zm503.2.1H7040.4l-52.3-26.9-188-134.9h13.4l13.2-8.9,8.6-13.1,2.9-9.1v-58.4l-2.7-14.6-5.7-9.2-7.8-5.8-9.3-3.5h-13.2l.5-131.6,182.1,1.1.8,22.2-64.5.7-9.5,3.3-49.9,41.9,20.3,26.2,44.9-37.3,75.2-.7,15.9-17.6-.5-38.7,293-.9v63.4l-58.5,2.2-10.9,4.3-29.4,27.4-5.3,12.2v14l-167.6-1.9v33l168.2,3,1,134.5-187.4,1.2v32.9h188.2l.8,16.2,4.1,10.7,20.7,23.5,12.6,5.2,60.5.6Zm-.1-68.3-53.6.9-12.2-13.1-2.1-218.9,18.8-17.4,50.9-.7Zm34.7,1234.6-46.1,2.4,24.6-68.7Zm67.1-1202.5-11.7,37.5-57.2-.8,4.4-1005.8,344.8-2.9,79.3,5.2,116.2,38.9-62.9,16.3-45.3,22-65.8,40.5-50,41-41.4,50.9-29,46.7-24.6,52.9-18.1,72-3.4,33.6v59.5l6.7,40.7,10.1,33.9,30.8,79.4-.8,63.9-2.6,14.6-22.8,71.1-39.9,80.6-11.9,16.7-38.6,38.4-56.2,43.1Zm596.1,38.3-573.5-.8,6.6-20.5,54.1-41,40.1-39.3,21.8-27.7,39.9-80.6,26.7-80.3,1.2-9,17.2-7.7,34,37.7,77.5,62.3,111.5,53.3,142.9,23.1Zm16-162-148.2-23.7-103.9-50.2-74.4-57.9-37.1-42.8-34.7-53.2-33.8-83.5-6.7-25.4-6.2-35.1-.9-32.3.9-27.8,3.5-23.8,16.2-64.5,24.2-52.3,21.8-35.1,29.5-38.1,17.8-19,33.7-29.1,35.7-23,35.7-22.4,38-17.3,52.3-13.3,63.7-13.6,84.4-2.9,85.4,4.2,119.7,35.3,62.9,38.3,53.4,45.8,84.6,129.3,23.7,93,.3,74.2-19.9,93.2-35.6,74.8-35.2,42-36.1,35.3-28.7,21.2-22.6,14.9-28.8,17.1-28.5,14.5-44,19-56.8,17.3-93.9,17.3Zm17.3,162.1V5208.3h.1l95.8-18.3,60.9-19,60.6-26.6,35-19,64-43.8,33.9-33.3L8413,5018l11.7,28.8,26.8,80.9,34.7,71.6,118.6,138.8Zm654.7,3-40-2.1-136.4-155.5-32.5-68.4-24.5-72.6-21.2-55.7,34.7-72,21.8-100.5-.7-82.1-24.1-95.6,26.3-72,42.7-99.7,44.5-61.1,59.4-57.5,26.1-40.9,26.2.9Zm-259.9-1068-34.5,6.6-14.8-95.8,6.7-166.9v-.1h304.8v.1l1,254.6Zm262.2-289.7v.3H8440.3V3847.1l-5.4-345.2,5.3-69.6-33.2-2.5-5.4,70.3a7.548,7.548,0,0,0,0,1.5l5.4,345.9v135.2h-18.2l.1-2.9-2.3-462.2,4.7-144.6-1-58.3-8.6-39.3,155.1-.8,159.4-5.5Zm3.1-746.6-140.7,4.7-176.6,1.4-3.1-422.2,322-1.5Zm2789.6,866.8,3.4,383.1v.9l-80.3-.4.8-114.1-32.1-.9-1.7,115.1-104.7-.6,1.1-384.6Zm-213.1-35.9,1.4-303.9,192.6-.4,7.2-2,13.4-7.1v315.1Zm216.1,453v1.4l-1.7,429.8-.1,2.1-455.6-172.1,4.3-70.6-3.1-179.7-1.6-11.7ZM11031,4816.3l454.7,171.5,4.9,355.7H11033l-2.1-526.3Zm458.8-1474-209-3.7-4.8-394,213.8,1.8Zm0,32.5v338.7l-25.4,14.9-403.8.1-28.3-18v-.7l1.7-283,167,4.1V3397l-167.3-4.9-.2-17.3,211.8-2.7Zm-456.4-33V2945.7l209.7-.6,2.8,393.6Zm209.1-430.7-209.1,1.3v-.9l-.5-272.1-.7-30.2,211.5-.7Zm-196.4,849.2,8.3,1.9,186.7.7-1.4,304.5-207.5.1V3750.8Zm193.2,341-.9,384.5-207.8-.9-1.4-220.3,2.4-163ZM10550.9,2417l169.6-78.1,30.1-13.7,219.1-100.3,27.4.6,1,167.4h-66.9l-14.3-14.3h-39.4l-16.7,16.7v102.3l16.7,16.7h39.4l16.7-16.7v-71.3h64.5v3.8l.9,146.2-448.2-.3Zm448.1,193.3v.5l1.4,28,.1,272.9-450.7-1.8v-.9l-.2-298.8Zm1.6,335.9-.5,204.9-449.8-1-.5-206.8,76.3,1.6Zm-450.5,238.6,450.5.4-.1,167.8-25.3,30.5-426-.6Zm432.2,232.2,12.6-6.1,5.7-5.9-.7,287.9v.9l-15.7-7.9-433.9-1.1v-1l-1.2-267.5Zm-433.5,650.4.8-137.8,10.5-49.4-8.3-161.6v-.6l423.1.4,24.7,11.6v.9l-.5,337.2v.4l-450.3-.9Zm.1,33.7,449.9.6-1.8,162.4,1.3,245.5,2.2,24.9,2.8,174.3-4,59.7-454.6-167.4ZM11000,5343.5l-452.9-2-2.2-703.6,453.1,167Zm-483.2-2910.7.5-.2-.5,150.5-215.3-.2v-.2l.2-52.5Zm.8,185.9-.9,290.1v.6l-214.4.9h-.3V2909l1.4-290.8Zm-203.1-162.6,62.9-.1,1.4,1.9-.4.2-77,35.2v-.3l-.2-32.3Zm-13.4,926.4.9-439,214.8-.4-.9,146.1-105.7.9v33h106.6v259.4l-215.7.4Zm216.5,302.3-216.5-1.5V3417l215.7-.6Zm-219.5,383,3-350.8,217.7,1.2v.4l8.8,158.2-10.4,49.2-1.4,140.8v.8l-217.7.7Zm.1,33.9h217.7l-3.8,487.8-216.9-80.1Zm-30.1-1637.9,1.2-.1-.1,43.9v.6l-215.4,97.7-.1-1.1-.2-139.9Zm-212.4,179.8,55.9-25.8,157.2.3.4,291.1v.9l-215.6,1.4v-.6l2.2-266.5Zm131.7-60.8,81.3-37.5.1,37.6Zm-135.5,799.6,1.3-437.2,216-1.1-.5,437.8v.8l-216.8.9Zm0,34.6,216.3-.3v266.5l-166.5-.3-51,1.7v-1.1h-.1Zm-1.3,301,54.7-1.6,162.8.5-3.1,350.9v1l-214.4-.7Zm0,383.7,214.4.8-3.3,395.4-214.1-77.8Zm-14,955.8h136.8l-.9,96.5,31.9.7,1-113.6-15.7-17h-151.5v-1l3.6-83.5,4.8-484.6,215.1,77.3-7.6,51.2-1.7,181.2h32.5V4584.2l7.3-39.7,220,81.4,2.1,715.4-477.6-.6V5058.1h-.1Zm-9.1,350.6-2.8,410.9h30.9l3.7-413.3-1.7-11.5-12.1-19h41.4l-7.1,7.6-8.1,11.2-6.4,13-4.4,16.2-1.1,361.1.8,65.5-37.6,3.6v-440l2.9-7.5ZM9684.4,2770.3l1.7-304.4,335.5-1,1.5,156.7-338.8,151.1Zm-.5,139.3.2-99.7,339-151.8v1.6l-1.5,251.6-117.2-.9-220.5,2Zm2.5,473.8v-2.3l-2.1-435,219.6-2.4,116.2,2.4-.5,437v.5Zm333.1,33.7-1.3,268.8-259.6-1-72.2.7V3417.8Zm-338.8,651.3,5.6-348.8,54.8-2,189.4,2.8,87.6-.9-.3,348-337.1,1.2Zm337.2,32.6v1.1l-2.6,305.2-333.4-121.8-1.5-182.3Zm-352.3,213.3,349.6,129.8v.3l-6.7,492.2-3.8,108.7-2.1,295.5-878.2-2.7-.5-767,267.8-1,16.3-16.4,4.5-179.6V4296l151.5-1.6,33.4,1.3ZM9497,5482.1l15.7,13.2,15.2,8.9,19.3,4.6,18.5,4.3h25.4l23.7-11.9,18.5-14.4,11.8-17.5,20.5-38.8,1.6-8.2,3.6-47.8,329,.3-7.9,35.1-1,443-865.5,14.3-.5-493.6v-1.2l338.8,1.3,6.6,49.2,5.2,23.8,8.4,14.7Zm-.7-108.4,141.3.8-3.1,44.7-16.1,32.9-9.5,12.8-12.4,8.9-14.6,6.5-13.7-.2-27.7-5.9-18-13.2-17.2-27.7-3.2-15.5Zm-370.7-1110-1.8-154.1,523.9-5.2v-.3l1.7,171.3-47.1-12.4-34.9-2.1Zm254.6,32.7-.7,77.4-3.5,162.8H9124l1.6-238.9Zm273.4-1831.5-2.4,320.8v2.4l-146.3,66.6-30.2-38.6-35.6-22.2-8-3.7-35.9-5H9129.7v-.6l-.9-322.6Zm-523,606.6v-1.3l275-126.7,90.7-47.6,24.5,24.1,23.2,11.3,29.1,8.3,36.3,3.6,41.4,2.6,2.5,435.8v1.4l-523.7-1.5Zm-.6-251.8,262.1-1.4,31.7,4.9,29.7,19.3,20.9,26.8-84.3,44.7-259.4,119.4Zm398.7,61,122.5-57.2v88.2l-37.4-1.3-33.1-3.3-24.6-6.8-17.1-8.5ZM9129.5,3416l242.9.3v125.9l17,17.3,118.7-1.1v-33.5l-102.9.6.3-110.1,248.2,2.2-.3,267.3-.1,1-528.8-3.3Zm-5.1,456.5-.2-155.5,230.7,1.4,89.4-.8,209.2,2.9-5.8,348.8v.3l-524.4,5.8,1.2-168.3,115.1-1.3v-33.3ZM8730.6,2463.1,9096,2462l1.1,323.3-187.1-.7.7-52.6,8.4-66.1-4-40.4-32.4.7,3.6,41.5-8.4,64.7-.2,52.1-148.1.4Zm-.7,356,366.6.6.5,229v.7l-113.2,51.8-56-127.3-15.5-10.3-38.9,1.2v32.7h29.5l50.8,117.6-224.9,109.4Zm-.9,444,368-176.9-.4,295.7-368,.4Zm-.8,153.3,368.3-.5-5.2,266.4-363.1,1.3Zm362.6,1160.8-364.4,1.4.5-277.6,39.3-6.1,326.9,1.7Zm.1,34-2.9,389-362.1,2,.4-389.3ZM8728,3717.8l363.3-.8-.3,352.2-252.8-84.8-111.8-1.8Zm105.3,299.8,257.6,88.5,2.1,157.1-328.8-1.2-37.3,4.5-1.2-250.5ZM8723.2,5339l2.7-301.9,362.1-1.8,3.4,302.4-368.2,2.4Zm138.9,612.6-38.1-80.5-37.2-72.4-45.3-110.2-16.1-157.8-1.9-157.6,368.1-.9v.5l-.1,495-16.8,2.5-153.6,62.2-41.5,12.4Zm11.9,32.1,13.1-6.5,43.5-13.3,154.4-61.7h6.5l-1.3,532.5-32.3-3.3-136.1-47.2-40.3-19.3,22.8-106.9,4.2-88.6-1.4-37.7-4.9-43.4-6-30-10-39.1ZM8714.1,6794l-12-53.1-14.6-10.2,59.1-3.8,62.9-6.1,75.5,11.9,41.6,12,6.6-33.2-36.5-10.4-86-13.2-66.3,6.1-27.5,1.8,2.3-26.7h-.2l1.9-17.8,6.2-23.3,15-31.4,24.7-37.2,52.2-69.3,36.7-59.9,14.6-32.3,40.3,17.8,141.8,48.8,36.9,3.6h.8l9.9,314.1,6,12.4,11.8,10-15.8,29.5-2,9.3,2.4,31.3,3.2,375.9h-.2l1.2,77.1-1,279.9-361-.9h-32.8l2.7-785.1v-23.8Zm343.8,1223-18.6-14.6-123.4-120.1-13.6-39.7,7-28.3,30.4-28.9,43.1-7.5,42.9,12,22.7,27.7,12.3,36.6,11.3,75.1Zm18.4-216-29-36.5-7.8-4.9-51.8-14.7h-9.1l-49,9.2-8.7,4.2-36.7,35-4.7,7.7-9.2,37.9v10.9l18,50.5L8832,7860l-59.8-46.3-36.1-43.4-13-65.8-3.3-64.3,383.6,1.6-19.3,180.9Zm443.6,478.7-111.7-52.9,27.3,11.3,81.9,29.2,84.9,16.5Zm506.1-92.4,3.6,79.9-26.2-9.8,16.6-41Zm-19.2-470.4-16.8-1.8,16.5-6.5Zm-323.6-421.6,153.8.3,168.8-1.9v1.6l.3,282.2-323.4,2.3Zm322.6,317.5.3,60.2-106.8,40.6-238.9,83.1-14.6-13.7-26.3-14.6-40.9-10.9-43.4,6.8-16.7,8.5-16.8,12.9-17.6,25-14.1,30-5.6,42.1,9.2,36.4,3.6,8,17.8,23.6,25.6,19.2,26.2,9.5,25.6,6.1,35.9-3.9,34.8-15,24-26.1,17.5-34.2,3.2-20.1,320.6-110.2,11.5,269-31,162.1-18.5,44.9L9866.5,8266l-239.6-12-102.4-19.3-80.2-28.5-72.6-31.2-65.8-31.8-81.8-49.6-36.5-29.6-24-36.8-2.9-36.9v-173l4.1-204.5Zm-23.1,136.4-296.3,103.7-1.2-11.9-1.4-5.8-4-10.1,239.6-83.1ZM9655.5,7884l-1.7,12.1-11,23-21.8,21.7-20,8.9-26.9,3.2-39.6-12.3-15.5-11.1-15.4-20.5-6.4-27.3,3-30,10.9-22.7,13.2-19.1,15.7-10.8,11-3.8,23.7-4.5,32.2,8.1L9623,7809l21.4,17.5,8.7,19.3,2.3,18.3Zm-524.3-170.4,8.3-136V7292.2l149,3.6h362.2l-.7,284-510.5-2.2-2.1,35.3-6.1,100.7-3.2,277.2,3.4,42.7,2.3,6.9,28.8,44.7,8.4,8-84.4-55.5,6.6-23.4ZM9647.8,6468l-21.6,11.1-52.8,6.4-45-5-24.3-10-.5-6.5,144.3-1.5ZM11018,7149.2h-62.65V6821.667h1V7148.2h15.5V6797.312l46.15.489Zm33.5-351.4,117.4-.1,7.7,25.5,7.5,10.2,16.5,9.9,7.9,2.3,101.6-.6,8.1-2.8,15.5-11.1,5.8-6.7,15.9-26.5,130.1-.1v73.4h.1l-433.8,1.3Zm152-.2,113.8.2-4.3,7.5-8.8,6.5-51.4.5-39.7-.5-7.3-4.3Zm282.2,108.5V7103h-.1l-217.4-1.3-.8-195.6Zm-250.9-.4.1,195.9-181.7-.5-1.1-194.6Zm61.7,246.8-244-3.4.5-13.4,432.5.6v15.9h.1Zm92.9,512.6-5.6,7.2-22.6,8.3-34.6,5.8-37.3.4-36.7-6.5-14.2-8.4.2-18.9h.6l150.2,1.3Zm96.3-45.7-437.6-1.4-.8-210.9,1.9-3.8,65.4-19,42.6-9.2,47.2-6,51.7-3.7,26.7-.7,45.8,1.4,65.3,10.8,38.8,10.2,36.4,14.4,16.6,8.2Zm-.1-854.5-229.6-1.4-190.6.7,1.1-173.3h-32.8l-1.6,173.3-288.2-2.8-381.9,1.4-1-68.6,17.3-54.5V6571h17.4v-33.7l-33.5-.8-17.6,17.3.9,80.9-16.8,55.1V6763H10085V6527.5h-34V6763h-12.7l-1.5-6.2-13.9-27.4V6457l57.3-.9,40.8.1,68.8-16.4,184.4-92.5,54.1-21.6,49.3-12.9,51.4-7.2,63.2,3.9,71.4,11.9,155.2,65.8,79.7,27.8,85.8,19.6,504-5Zm2.7-370.8-503.5,6.9-76.3-17.5-77.9-28.1-159-66.4-76.7-13.3-67-3.4-55.6,7.1-52.3,14.1-61,24-178.4,90-62,14.7-42.1-1.2-55.8,1.2-445.1,6.7-452.7,5.9,1.7-533.9,899.7-15.2,30.6-2.2,19.3-1,485.6-2.7,860.5-19,68.1,1.8Zm-.3-565.6-68.9-1-859.1,19-466.2,3.3-2.2-402.8.6-16.9,2.1-8.8,3.2-7.2,4.5-7.1,6.5-6.5,20.8-12.2,33.2-13.1,94.8.6,2.3,42.2-.5,11.3-4.2,8.9-6.6,7.2-14.4,5.7-17.3,3.1-42.7,2.3-16.1,4.8-6.3,4-11.1,10.1-4.6,6.9-6.6,18-1.1,7-2.3,50.2,4.2,202.1,1.9,8.4,7.8,15.1,4.4,5.1,14.9,9.4,10.1,2.5,101.4-2.3,10.4.6,20.4,6.4,8.7.8,45.5-1.2v-33.6l-48.4.7-8.2-3.5-20.6-3.8-107.5,1.6-4.6-2.6-3.6-7-4.2-202.2,2.2-44.9,4-10.7,6.1-6.1,8.9-2.7,44.6-3,17.7-2.7,21.4-8.1,7.2-5.3,9.9-11.3,9.7-19,1.5-10.2.5-12.8-1.4-41,478.1.6-.9,24.6.9,20.1,3.7,19.3,7.4,15.1,5.8,6.9,10.3,8.3,7.2,3.4,17.5,3.7,44.1.4,27,1.7,10.3,4.8,7.8,9,4.8,16.4,2,151.6-.8,3.1-12.8,17.5-3.4,8.8-1.9,12.1-2.9,36.9-2.1,5-4.6,3.8-18.3,4.2-271.1,16.9.9,33.5,282.2-17.1,17.4-5.8,7.3-3.8,8.3-6.5,5.2-6.5,4.4-8.4,2-7.1,4.4-48.2,14-20.9,3.2-8.5,1.1-15.1-2.5-149.2-6.3-24.6-3.8-7.4-13.9-15.1-21.6-10.7-6.2-1.9-31.3-2.4-40.7.2-9.5-2-5.3-4.8-4.8-7.4-2.5-11.5-.5-13.9,1.5-28.5,688.9.9Zm1.8-2916.9-214.1-.4h-.4v-1.5l1.7-301.2,214.6.6Zm1.8-335.8-234.3-1.8-225.8,1.8-.9-350.4,461-3.9ZM12951,5396.5l69.7-15.8,55.9-3,2.9,153.9-231.8-91.5Zm-287-48.9,9.5-17.5,2.8-8.7v-43.2h242.9v32.5l8.5,58.9-125.3,53.4-160.2-52.1Zm-698.4-735.3-444.9,156.4,1.1-248.3,443.8-.1v1.2l-.2,52.3Zm.1,35.6-5.7,416,5,58-179.4-67.9-266.7-89.2v-.6l1.6-159.7Zm-190.8,438,191.1,72.9-2.7,185.9-440.1-.8-4.2-344Zm511.3,225.8,16.2-29.9,217.4,80.8.1,448.8-999.1,16.9,2.5-450.6,347.8,1,6.5,48.7,4.1,17.5,5.4,10.1,11.5,13.3,10.9,6.9,9,3.2,61.7,1.9,52.3-1.5,16.2-3.1,15.8-8,14.3-11.5,8.3-12.3,3.3-9.6-.3-56.1h66.2l62.9-22.6,60.5-38.1Zm236.8,822.8-1.5,242.9-1000.5,17-.3-531.9,999.2-17.1Zm-524.9-963.9,272.7,100.2-10.9,20.3-53,33.3-54.4,20.4h-156.6Zm59.5,208.1.2,51.3-3.6,4.3-14.1,9.2-13.7,2.6-45.6,1.1-57.4-1.3-4.5-3.6-3.7-4.3-3.8-6.4-2-10.9-4.8-42.2Zm-533.1-2803.2.5-351.1,29.1,4.8,18,5.5,393.5,180.5,2.2,160.2v1.2l-443.3-.7Zm-3.7,335.5,3.4-301.9,443.6,1.3-2.2,116.6-47.1.6-36.8,17.2,13.4,30,28.5-13.5h41.9v151l-444.8-.8Zm445.3,34.9,1.7,579.5v161.2h-425.6l-6.8,1.5-13.2,7.2-1.6-750.7ZM11521.8,3734v-1.1l23.7-12.7,421.8.4-1.7,349.4-447-2.3Zm443.6,368.3-.5,383.5v1.2l-443.4-.1v-1l-3-384.3Zm-444.3,2326.6,1000.4-17.6,2,350.7-827,.3-178,1.5Zm737.3,367.4h2.1l20.5.1-119.4,118.8-35.4,16.4Zm-186.5,145.2-77.4,28,1.3-172.6,213.4-.4Zm-383.8-145.7,274.3,1.4-.8,183.2-99.4,35.1-10-29.2-5.4-9.2-19.5-15.2-11.4-5.2-83.9-.9v33.6l77.8.9,12.8,10.4,8.9,25.9-31.9,12.4-75.5-11.6h-9.7l-79.6,31.7-6,3.7-51.1,59-58.8,22.5-.9-346.5Zm44.8,267.2-89.7,34.2,6-8.3,71.9-28.3Zm227.4,483.6-315.5-114.2-11.8,31.9,327.2,118.3-.1,35-441.2,1.7V7423l-.5-36.4.5-206,222.6-85,219.7-79.7,1.6,454.4Zm88.7,70.1-55.6.3-.2-22.5Zm472.5-375.2-526.4-.1-1.1-236.5,84.8-30.4,29.9,19.7,13.7,1.8,328.3-117.3,72.8-2.4Zm-272.612-328.74,162.21-56.6.478.892-162.392,56.667Zm197.412-67.46-6.5,1.9-5.9-6.5-9.6-5.2-17.3-2.8-7.9.7-155.5,57.3-7.3,5.5-12.3,14-4.3,11,.3,2.7.17.471-96.782,34.907-.34-.941,68.808-24.817L12326.7,6796.5l196.8-.7.1,46.9Zm106.3-1471.1,53.2,20.3,195.4,63.5,286.3,113.5-1.3,58.6-2.1,169-164.8,9.1-367.3,3.1Zm363.7,467.3,167.7-7.9,5.1,536-144.7-2.1-390.4,8.7,1.8-164-3.2-367.6Zm165,1375h-173.7V7239h173.7v1h-173.6l-352.7,1,.2-25.6,352.4.1h173.7Zm2.2-384-2.2,348.4-525.8.6.2-385.8,60.6,1.7,83.9.4,385-.7Zm5.7-69-281.3.5,58.9-59.9,60.7-36.7,162.5-57.6Zm-175.7-126.7-63.1,38.7-90.3,89-118.9-.5-85.5-1.9-2.1-352.1,391-8.7,145.2,1.8.5,170.9Zm715.9,387.3-8.4-4.3-28.2-5.5-92.7-91.9-75.5-103.1-4.4-21,50,1.3,69.5,1.9,246-.9,22.2-1.5,4.8,397.4Zm176.4-334.8,2.8,75.7-24.2,2.6-243.2.7-82.6-2.9-34.2-1.3-42.8.1h-260.1l.1-1.3,1.5-164.8,185.8-70.6,31.9-12.6,26.9-10.5,33-11.6,311.7-116.7,7.3,11.5,9.8,11.4,10.6,9.4,12.8,7.6,19.7,6.2,18.4.9,11.6-.6,2.5,13.9v26.5Zm-47.1-400.3,9.2-5.1,19-3,7.9,1.6,12.3,3.4,9.8,6.1,7.6,6.7,6.5,8.5,5.3,9.2,3.1,10.1v20.4l-3.1,8.6-4.9,10.6-6.9,8.8-10.1,7.1-10.4,5.8-15.3,2.1-13.9-1.6-12-5.1-10-7.1-9.5-12.2-6.6-15.5-1.3-19.5,5.4-16.8,7.8-13.4Zm-20.1-488.6,7.1-13.1,8.7-9.5,10.9-7.4,13.7-4.3,14.5.1,21,10.7,7.4,7.9,5.8,11,3.1,11,.6,11.7-1.5,10.3-3.8,10.7-5.6,8.6-6.1,7.3-9.1,6.5-10,4.5-10.8,2.5h-10.7l-10.9-3.9-13-9.1-7.8-11.1-5.2-13.5-1.4-14.7Zm-33.7,1.9-1.4,14.6.8,15.6,3.8,14.4,5.8,14,10.5,15.2,10.6,10.3,11.8,6.8-4.7,16.2-8.7,42.5-4.5,32.3-3.5,40.6-2.2,38.7.3,36.6,2.8,38.8,3.1,30.2,4.1,24.7,14.8,62.6-7.6,4.5-9.3,8-9.3,11-8.5,13.4-5.8,15.6-4.1,19.2v15.8l-304.6,113.8-33.1,11.4-26,10-32.8,13.5-184.4,68.8L13120,5583Zm-588.4,1032.2,1.9-37.5,238.2,1.8,28.7-.7,6.7,31.9,2.9,6.5,78.5,107.1,1.7,2,7.6,7.6-23.6,28.4-1.6,2.3-15,25.5-2.3,8.8,2.1,220.1h-327.9Zm667.3-1492.8-167.4-2.1,185.7-178.9,1.4,177.4Zm18.7-227.2-233,224.3-82.4-.7,2.5-398.1,2.6-8.8,6.5-10.4,5.6-5.8,7-4.6,8.3-2.1h3.6l157.7-.4,32.6-7,68.8,8.5,22.2,5.6Zm1051.9-1332.8,20.3-30.1-.2,2-8.7,86.8-10.8-11.7-26.2-23.9Zm-279-92,159.6,90.8,60,38.1,40.2,36.6,27.9,33.5,4.3,29-292.8,143.2Zm301.1,260.5,21.3,55,21.7,35.6-344.9,327.8-.7-270.5Zm116.6,538.8-341.3-.2-62.3-58.1-9.2-21.6,359.1-341.3,15.1,19.9,46.9,45.4,49.5,27.6,29.5,10.6Zm119.4-312,62.7,4.3,77.4-8.3,40.8-13.4.4,329.4-267.4-.1Zm-559.7,257,14.1,20.9,36.3,33.9h-107.9Zm-694.3,485.7,41.3-1.8,39.6-9.4,79.6-.3-1.1,1.1L13835.7,5082l1.6-162.4v-.6Zm-21.2-34.2v-15.8l38,15.8Zm105.1-11.6-105.1-39.5.6-311.5,261,.3,65,242.1-109.8,108Zm-60.2-1149.4,91.8,347.4-136.1,1.1,2.8-349.3Zm-37.9-34,9.3-75.2,20.3,75.2Zm71.7,33.3,626.4-3.6-1.1,350.8-533.5,1.4Zm67.4,383,106.1,382-251.7.4V4106.8Zm190.2,696.5,18.1,72.2-90.1-2.2Zm14.2-64.4-55.2-215.9,278.5-.4Zm-64.3-250.3-106.2-382.7,524-1.2,1,295.1-94.9,88.9Zm418.9-815.6v13.5l-635.7,3.6-73.2-265.6,236.1-3.9Zm-724.2-514,4.8,33.1,6.4,11.7,9.7,8.7,9.3,4.6,105.3,8-70.2,57.4-83.6-43.9Zm190.3,228.9-185.2,2.2-31.8-118.1Zm-203.3,1101.5-322.9-.5-2.2-376.8,127.9-3,197.3-1.6Zm5.8-800.1-58.5-.3-.6,33.3,56.1,1.4-2.2,349.7-196.5,2.2-129.6,2.1,1.6-966.2,268.6,139.8,39.9,139.9-49.5,1.2.4,33.5,58.5-1.2.3,1.1,35,126.5ZM14057.6,5327l-222,7.7-.8-205.6,231.8-220.8,133.3,2.5,107.8,415.3Zm841.4-473-256.8-26.8-3.6,33,251.8,28.1-120.6,439.5-11.7,25-158.6-22-257.8-4.7-110.2-424.9,36.4-21.7,202.4-19.8-3.1-32.8-201.4,17.7-9.6,2.2-33.9,19.7-24.8-90,261.4-253.6,525.6-.3Zm33.9.3,84.5-331.1,276.2-.1,3.7,334.6Zm387.3-739-74.3,24.6-72.1,9-70.9-5.9-40.3-13-41.9-23.9-41-39.4-39.6-53.2-13.9-23.7-24.7-65.4-5.6-35,31-20.6,19.3-15.6,17.6-14.1,19.4-11,18.3-4.8,25,2.2,296.2,84.8,28.1,11.5,16.7,16.7,5.8,9.7,7.4,17.8,5.4,53.2-5.6,12-4.1,12.3-4.3,15.8-8.7,17.4-9.1,12.9-15.6,13.2Z" transform="translate(-950.6 -798.2)"/><g class="a"><path class="b" d="M0,0" transform="translate(-950.6 -798.2)"/><path class="b" d="M0,0" transform="translate(-950.6 -798.2)"/><path class="b" d="M0,9185.124" transform="translate(-950.6 -798.2)"/><path class="b" d="M0,9185.124" transform="translate(-950.6 -798.2)"/><path class="b" d="M16376.2,9185.124" transform="translate(-950.6 -798.2)"/><path class="b" d="M16376.2,9185.124" transform="translate(-950.6 -798.2)"/><path class="b" d="M16376.2,0" transform="translate(-950.6 -798.2)"/><path class="b" d="M16376.2,0" transform="translate(-950.6 -798.2)"/><path class="c" d="M0,0" transform="translate(-950.6 -798.2)"/><path class="c" d="M0,0" transform="translate(-950.6 -798.2)"/><path class="c" d="M0,9185.124" transform="translate(-950.6 -798.2)"/><path class="c" d="M0,9185.124" transform="translate(-950.6 -798.2)"/><path class="c" d="M16376.2,9185.124" transform="translate(-950.6 -798.2)"/><path class="c" d="M16376.2,9185.124" transform="translate(-950.6 -798.2)"/><path class="c" d="M16376.2,0" transform="translate(-950.6 -798.2)"/><path class="c" d="M16376.2,0" transform="translate(-950.6 -798.2)"/></g><g class="e"><polygon class="f" points="11293.625 1990.825 11293.625 1830.025 11363.573 1830.025 11362.977 1875.125 11345.025 1875.125 11345.025 1924.725 11357.775 1924.725 11357.775 1920.925 11367.942 1920.925 11367.942 1912.146 11381.608 1912.146 11381.608 1908.425 11406.942 1908.425 11406.942 1912.146 11420.608 1912.146 11420.608 1920.925 11430.775 1920.925 11430.775 1924.725 11443.4 1924.725 11443.48 1924.833 11443.606 1924.941 11465.795 1876.459 11598.477 1937.185 11575.941 1986.425 11536.775 1986.425 11536.775 1990.825 11293.625 1990.825"/><polygon class="g" points="11536.9 1986.55 11576.021 1986.55 11598.643 1937.123 11465.733 1876.293 11443.561 1924.738 11443.4 1924.6 11430.9 1924.6 11430.9 1920.8 11420.733 1920.8 11420.733 1912.021 11407.067 1912.021 11407.067 1908.3 11381.483 1908.3 11381.483 1912.021 11367.817 1912.021 11367.817 1920.8 11357.65 1920.8 11357.65 1924.6 11345.15 1924.6 11345.15 1875.25 11363.1 1875.25 11363.7 1829.9 11293.5 1829.9 11293.5 1990.95 11536.9 1990.95 11536.9 1986.55"/><path class="h" d="M12314.046,2628.35l-.593,44.85H12295.5v49.85h13v-3.8h10.167v-8.779h13.666v-3.72h25.084v3.72h13.666v8.779h10.167v3.8h12.657l.091.078.252.216.138-.3,22.068-48.217,132.456,60.622-22.451,49.053h-39.21v4.4h-242.9V2628.35h69.7m.253-.25h-70.2v161.05h243.4v-4.4h39.121l22.622-49.427-132.91-60.83-22.172,48.444-.161-.138h-12.5V2719h-10.167v-8.779h-13.666v-3.72h-25.584v3.72h-13.666V2719h-10.167v3.8h-12.5v-49.35h17.95l.6-45.35Z" transform="translate(-950.6 -798.2)"/></g></svg>