<svg xmlns="http://www.w3.org/2000/svg" viewBox="0 0 5024.917 2968.625"><defs><style>.a{opacity:0.25;}.b{fill:#22591a;}.c{fill:none;stroke:#351912;stroke-miterlimit:10;stroke-width:0.25px;}.d{fill:#5b351b;}.e{fill:#351912;}.f{fill:#184654;}</style></defs><title>underground</title><g class="a"><path class="b" d="M0,0" transform="translate(-7994.375 -1994.083)"/><path class="b" d="M0,0" transform="translate(-7994.375 -1994.083)"/><path class="b" d="M0,9185.124" transform="translate(-7994.375 -1994.083)"/><path class="b" d="M0,9185.124" transform="translate(-7994.375 -1994.083)"/><path class="b" d="M16376.2,9185.124" transform="translate(-7994.375 -1994.083)"/><path class="b" d="M16376.2,9185.124" transform="translate(-7994.375 -1994.083)"/><path class="b" d="M16376.2,0" transform="translate(-7994.375 -1994.083)"/><path class="b" d="M16376.2,0" transform="translate(-7994.375 -1994.083)"/><path class="c" d="M0,0" transform="translate(-7994.375 -1994.083)"/><path class="c" d="M0,0" transform="translate(-7994.375 -1994.083)"/><path class="c" d="M0,9185.124" transform="translate(-7994.375 -1994.083)"/><path class="c" d="M0,9185.124" transform="translate(-7994.375 -1994.083)"/><path class="c" d="M16376.2,9185.124" transform="translate(-7994.375 -1994.083)"/><path class="c" d="M16376.2,9185.124" transform="translate(-7994.375 -1994.083)"/><path class="c" d="M16376.2,0" transform="translate(-7994.375 -1994.083)"/><path class="c" d="M16376.2,0" transform="translate(-7994.375 -1994.083)"/></g><g class="a"><polygon class="d" points="601.417 2968.375 601.417 2957.125 579.417 2957.125 579.417 2947.875 583.667 2947.875 583.667 2946.458 579.417 2946.458 579.417 2920.104 574.6 2920.104 574.6 2893.667 610.667 2893.667 610.667 2946.458 587.333 2946.458 587.333 2947.875 610.667 2947.875 610.667 2968.375 601.417 2968.375"/><path class="d" d="M8604.917,4887.875v52.542h-23.334v1.667h23.334v20.25h-9v-11.25h-22v-9h4.25v-1.667h-4.25v-26.354H8569.1v-26.187h35.817m.25-.25H8568.85v26.688h4.817v26.354h4.25v1.167h-4.25v9.5h22v11.25h9.5v-20.75h-23.334v-1.167h23.334v-53.042Z" transform="translate(-7994.375 -1994.083)"/><polygon class="d" points="821.622 1001.042 821.558 998.042 745.992 997.39 733.025 984.372 733.063 784.81 749.638 768.286 926.519 768.323 936.354 758.539 936.391 613.023 930.526 607.108 802.019 607.071 786.948 591.949 786.985 458.81 802.225 443.623 891.5 443.659 891.5 458.409 808.349 458.409 801.772 464.935 801.735 585.825 808.143 592.285 936.651 592.321 951.178 606.898 951.141 764.664 932.643 783.109 755.763 783.073 747.85 790.935 747.813 978.248 752.171 982.657 821.625 983.292 821.625 973.542 846 973.542 858.855 975.54 878 975.542 878 988.667 858.75 988.667 858.75 1001.042 821.622 1001.042"/><path class="d" d="M8885.75,2437.868v14.5h-83.13l-.073.073-6.488,6.489-.073.073v121.009l.073.073,6.371,6.372.073.073h128.42L8945.391,2601v157.647L8927,2777.031H8750.034l-.073.073-7.825,7.825-.073.073v187.432l.073.073,4.321,4.321.072.072h.1l69.241.6.252,0v-9.752l24.212,0,12.913,2h19v12.875H8853V2995h-36.88l-.059-2.755-.005-.243-.243,0-75.342-.651-12.908-12.909V2779l16.466-16.466H8921l.073-.073,9.747-9.747.073-.073V2607l-.073-.073-5.827-5.827-.073-.073H8796.5l-15.012-15.012V2453l15.129-15.129h89.136m.25-.25h-89.489l-15.275,15.276v133.228l15.158,15.159h128.42l5.827,5.827v145.427l-9.747,9.747H8743.925l-16.612,16.612v199.65l13.054,13.054,75.444.652.064,3h37.375v-12.375h19.25V2969.5h-19.25l-12.875-2h-24.5v9.75l-69.241-.6-4.321-4.321V2785.106l7.825-7.825h176.969l18.534-18.534V2600.893l-14.614-14.613h-128.42l-6.371-6.372v-120.8l6.488-6.489H8886v-15Z" transform="translate(-7994.375 -1994.083)"/><path class="d" d="M10045.375,3877.875V3867.5h-73.25v-19.375h-67.667v-3.05h-41.481v32.8h-29.352v-14.75h14.6v-35.833h55.981v6.083h93.667v19.375h47.5v-54a27.406,27.406,0,0,0-27.375-27.375h-73.375v-14.75H10018a42.173,42.173,0,0,1,42.125,42.125v79.125Z" transform="translate(-7994.375 -1994.083)"/><path class="d" d="M10018,3756.75a42.048,42.048,0,0,1,42,42v79h-14.5v-10.375h-73.25V3848h-67.667v-3.05h-41.731v32.8h-29.1v-14.5h14.6v-35.833h55.731v6.083h93.667v19.375h47.75V3798.75a27.531,27.531,0,0,0-27.5-27.5h-73.25v-14.5H10018m0-.25h-73.5v15h73.5a27.281,27.281,0,0,1,27.25,27.25v53.875H9998V3833.25h-93.667v-6.083H9848.1V3863h-14.6v15h29.6v-32.8h41.231v3.05H9972v19.375h73.25V3878h15v-79.25a42.3,42.3,0,0,0-42.25-42.25Z" transform="translate(-7994.375 -1994.083)"/><polygon class="d" points="2082.25 1610.625 2082.25 1595.875 2168.75 1595.875 2168.75 1587.625 2088.25 1587.625 2088.25 1487.542 2106.5 1487.542 2106.5 1485.375 2088.25 1485.375 2088.25 1471.375 2131.833 1471.375 2131.833 1485.375 2113.583 1485.375 2113.583 1487.542 2248 1487.542 2248 1502.292 2141.667 1502.292 2141.667 1510.375 2238.833 1510.375 2238.833 1610.625 2082.25 1610.625"/><path class="d" d="M10126.083,3465.583v13.75h-18.25v2.417h134.417v14.5h-106.333v8.333h97.166v100H10076.75v-14.5h86.5v-8.5h-80.5V3481.75H10101v-2.417h-18.25v-13.75h43.333m.25-.25H10082.5v14.25h18.25v1.917h-18.25v100.333h80.5v8h-86.5v15h156.833v-100.5h-97.166V3496.5H10242.5v-15h-134.417v-1.917h18.25v-14.25Z" transform="translate(-7994.375 -1994.083)"/><polygon class="d" points="3051.75 1468.458 3051.75 1305.375 3099.417 1305.375 3099.417 1297.958 3068.917 1297.958 3068.917 1088.208 3099.417 1088.208 3099.417 968.458 3086.5 968.458 3086.5 995.542 3071.75 995.542 3071.75 953.708 3114.167 953.708 3114.167 1088.208 3144.667 1088.208 3144.667 1297.958 3114.167 1297.958 3114.167 1320.125 3066.5 1320.125 3066.5 1468.458 3051.75 1468.458"/><path class="d" d="M11108.417,2947.917v134.5h30.5v209.5h-30.5v22.167h-47.667v148.333h-14.5V3299.583h47.667v-7.667h-30.5v-209.5h30.5v-120h-13.167V2989.5h-14.5v-41.583h42.167m.25-.25H11066v42.083h15v-27.083h12.667v119.5h-30.5v210h30.5v7.167H11046v163.333h15V3314.333h47.667v-22.167h30.5v-210h-30.5v-134.5Z" transform="translate(-7994.375 -1994.083)"/><polygon class="d" points="3368.083 1261.958 3368.083 1223.292 3329.25 1223.292 3329.25 1176.167 3353.5 1176.167 3353.5 1172.917 3318 1172.917 3318 1157.917 3353.5 1157.917 3353.5 1154.667 3329.25 1154.667 3329.25 1107.542 3435.75 1107.542 3435.75 1223.292 3382.667 1223.292 3382.667 1261.958 3368.083 1261.958"/><path class="d" d="M11430,3101.75v115.5h-53.083v38.667h-14.334V3217.25h-38.833v-46.875H11348v-3.5h-35.5v-14.75h35.5v-3.5h-24.25V3101.75H11430m.25-.25H11323.5v47.375h24.25v3h-35.5v15.25h35.5v3h-24.25V3217.5h38.833v38.667h14.834V3217.5h53.083v-116Z" transform="translate(-7994.375 -1994.083)"/><polygon class="d" points="3088.375 1960.608 3088.375 1934.323 3091.813 1934.323 3091.813 1932.458 3088.375 1932.458 3088.375 1884.542 3175.333 1884.542 3175.333 1906.025 3208.333 1906.025 3208.333 1920.775 3175.333 1920.775 3175.333 1932.458 3099.063 1932.458 3099.063 1934.323 3124.167 1934.323 3124.167 1960.608 3088.375 1960.608"/><path class="d" d="M11169.583,3878.75v21.483h33v14.5h-33v11.683h-76.271v2.115h25.1v26.035h-35.542v-26.035h3.438v-2.115h-3.437V3878.75h86.708m.25-.25h-87.208v48.167h3.438v1.615h-3.437v26.535h36.042v-26.535h-25.1v-1.615h76.271v-11.683h33v-15h-33V3878.5Z" transform="translate(-7994.375 -1994.083)"/><path class="d" d="M11997.831,2941.813l-11.117-11.169.036-102.222-.47-1.671h-17.405v-33.312h8.563v-29.769l-3.205-3.257-30.126-.037-3.444,3.393-.037,42.588-12.857,12.805-37.268-.037v-49.25h-83.125v-14.75h2.375v-2h-2.375v-14.25h-57.562v13.375h-8.562v5.25h-14.75v-54.75h-4.625v-67.625h4.625v-69.75h14.75v56h81.625v-8.75h63.229V2549.5l-2.621-2.673-165.382-.037-9.474-9.525.037-33.451-2.057-2.109-15.11-.037-1.9,1.847-.036,32.9-10.545,10.493-42.5-.037-11.43-11.482.036-113.326h14.75v19.808h15.75v14.75h-15.75v72.644l2.768,2.82,30.251.037,1.883-1.831.036-32.9,10.561-10.509,27.358.037,10.719,10.771-.036,33.451.812.863,165.381.037,11.283,11.335-.036,98.372h-14.75v-19.375h-53.479v16.375h51.125v102.875h1.958v-1.25h14.75v29.5h-.208v34.5h21.394l4.2-4.143.036-42.588,12.107-12.055,42.374.037,11.867,11.919-.036,35.893h9.313v131.081l2.456,2.507,30.563.037,2.352-2.3.036-117.388h14.75V2829H12097v9.75h-45.344v92.138l-10.977,10.925ZM11819.5,2755.125h66.208v-3.75h-1.958v1.75h-64.25Zm-81.625-13.75h2.188v-20h-2.187Zm0-29.75h2.188v-6.933h3.55V2638.75h79.237v-2.625h-81.6v66.625h-3.375Z" transform="translate(-7994.375 -1994.083)"/><path class="d" d="M11639.75,2422.192V2442h15.75v14.5h-15.75v72.872l.073.073,2.731,2.732.073.073H11673l.073-.073,1.794-1.794.073-.073V2497.5l10.45-10.451h27.24l10.661,10.662v33.539l.073.073.774.774.073.073H11889.5l11.226,11.226v98.231h-14.5V2622.25H11832.5v16.625h51.125V2741.75h2.208v-1.25h14.5v29.25h-.208v34.75h21.622l.073-.073,4.106-4.107.073-.073v-42.5l12-12h42.256l11.81,11.81v36h9.313v131.06l.073.073,2.419,2.419.073.073h30.682l.073-.073,2.263-2.263.073-.073V2807.5h14.5v21.625h45.344v9.5h-45.344v92.159l-10.9,10.9h-42.693l-11.06-11.06V2828.386l-.009-.033-.439-1.546-.052-.182H11969v-33.062h8.563v-30l-.073-.073-3.169-3.169-.073-.073H11944l-.073.073-3.356,3.356-.073.073v42.5L11927.753,2819h-37.128v-49.25H11807.5v-14.5h2.375V2753h-2.375v-14.25h-57.812v13.375h-8.562v5.25h-14.5v-54.75H11722V2635.25h4.625V2565.5h14.5v56H11823v-8.75h63.229V2549.4l-.073-.073-2.585-2.585-.073-.073H11718.2l-9.415-9.415v-33.539l-.073-.073-2.021-2.021-.073-.073h-15.229l-.073.073-1.81,1.81-.073.073v32.812L11679,2546.75h-42.381l-11.372-11.372V2422.192h14.5m101.375,280.433h-3.375v9.125h2.438v-6.933h3.55v-65.942h79.237V2636h-81.85v66.625m-3.375,38.875h2.438v-20.25h-2.437v20.25m145.875,11.5h-64.25v2.25h66.458v-4h-2.208V2753M11640,2421.942h-15v113.54l11.519,11.519h42.588l10.581-10.581v-32.812l1.81-1.81h15.021l2.021,2.021v33.539l9.562,9.562h165.293l2.585,2.585v63h-63.229v8.75h-81.375v-56h-15V2635h-4.625v67.875h4.625v54.75h15v-5.25h8.563V2739h57.313v14.25h2.375V2755h-2.375v15h83.125v49.25h37.481l12.894-12.894v-42.5l3.356-3.356h30.037l3.169,3.169v29.644h-8.562v33.563h17.436l.439,1.546v102.311l11.206,11.206h42.9l11.05-11.05v-92.013h45.344v-10h-45.344V2807.25h-15v117.425l-2.263,2.263h-30.475l-2.419-2.419V2793.313h-9.312v-35.856l-11.956-11.956h-42.463l-12.144,12.144v42.5l-4.106,4.106h-21.269V2770h.208v-29.75h-15v1.25h-1.708V2638.625h-51.125V2622.5h53.229v19.375h15V2543.29l-11.372-11.372h-165.293l-.774-.774V2497.6l-10.808-10.808h-27.447l-10.6,10.6v32.813l-1.794,1.794h-30.162l-2.731-2.731V2456.75h15.75v-15H11640v-19.808Zm98,289.558v-8.625h3.375V2636.25h81.35v2.375h-79.237v65.942h-3.55v6.933Zm0,29.75V2721.5h1.938v19.75Zm81.625,13.75v-1.75h64.25v-1.75h1.708v3.5Z" transform="translate(-7994.375 -1994.083)"/><path class="d" d="M12445.458,3354.275v-32.951h11.667v-9.283h-65v-160.75h53.75v25.233h18.208l16.028,16.08,16.027-16.028,16.028,16.028,16.115-16.116,22.992.037v119.6h74.6v25.2h11.667v32.951Zm-24.416-126.15h24.25v-15.917h-24.25Z" transform="translate(-7994.375 -1994.083)"/><path class="d" d="M12445.75,3151.417v25.233h18.229l15.955,15.955.177.177.177-.177,15.851-15.851,15.852,15.851.177.177.177-.177,15.954-15.955h22.852v119.6h74.6v25.2h11.667v32.7h-191.834v-32.7h11.667v-9.533h-65v-160.5h53.5m-24.833,76.833h24.5v-16.167h-24.5v16.167m25.083-77.083h-54v161h65v9.033h-11.667v33.2h192.334v-33.2H12626V3296h-74.6V3176.4h-23.205l-16.027,16.028-16.028-16.028-16.027,16.028-16.028-16.028H12446v-25.233ZM12421.167,3228v-15.667h24V3228Z" transform="translate(-7994.375 -1994.083)"/><path class="d" d="M12591.375,4100.178V4086.99h-1.479v3.969h-52.937v-11h5.625v-1.546h-16.625c-16.1,0-29.1-4.913-38.655-14.6-15.2-15.415-15.52-37.165-15.507-39.594V3840.91h54.412v25.882h28.167v63.99h1.208v-3.969h38.1v2.063h95.875v57.25h10.646v36.75H12679v-47.552h-1.292v14.3h-60.916v-31.667h60.916v14.3H12679v-32.823h-51.062v-3.687h-34.25v2.063h-38.1v-3.969h-1.208v91.531h-19.5v-56.75h-20.583v-7.083h-20.25v7.083h-2.8v55.764c0,.158.114,15.937,10.006,25.866,5.757,5.778,14.07,8.708,24.708,8.708h65.417v-34.5h257.167v75.72Zm-1.479-16.251h1.479v-5.515h-45.729v1.546h44.25Z" transform="translate(-7994.375 -1994.083)"/><path class="d" d="M12526.083,3841.035v25.882h28.167v63.99h1.458v-3.969h37.854V3929h95.875v57.25h10.646v36.5h-20.958V3975.2h-1.542v14.3h-60.666v-31.417h60.666v14.3h1.542v-33.073h-51.062v-3.687h-34.5v2.063h-37.854v-3.969h-1.458v91.531H12535V3968.5h-20.583v-7.083h-20.5v7.083h-2.8v55.889c0,.159.115,15.989,10.042,25.954,5.781,5.8,14.124,8.745,24.8,8.745h65.542v-34.5h256.917v75.47H12591.5v-13.188h-1.729v3.969h-52.687v-10.75h5.625v-1.8h-16.75c-16.062,0-29.038-4.9-38.566-14.564-15.164-15.378-15.484-37.082-15.471-39.507V3841.035h54.162m19.438,239.049h44.25v3.969h1.729v-5.765h-45.979v1.8m-19.187-239.3h-54.662v183.432c-.011,1.94.219,24.142,15.543,39.683,9.577,9.713,22.613,14.639,38.744,14.639h16.5v1.3h-5.625v11.25h53.188v-3.969h1.229V4100.3h257.417v-75.97H12591.25v34.5h-65.292c-10.6,0-18.887-2.917-24.619-8.671-9.914-9.951-9.97-25.669-9.97-25.777V3968.75h2.8v-7.083h20v7.083h20.583v56.75h19.75v-91.531h.958v3.969h38.354v-2.062h34v3.688h51.063v32.573h-1.042v-14.3h-61.166v31.917h61.166v-14.3h1.042V4023h21.458v-37h-10.646v-57.25h-95.875v-2.062h-38.354v3.969h-.958v-63.99h-28.167v-25.882Zm19.438,239.049v-1.3h45.479v5.265h-1.229v-3.969Z" transform="translate(-7994.375 -1994.083)"/><polygon class="d" points="4979.208 2376.542 4979.208 2366.667 4984.021 2366.667 4984.021 2371.25 4985.229 2371.25 4985.229 2365.458 4979.208 2365.458 4979.208 2303.125 4960.417 2303.125 4960.417 2325.375 4949.583 2325.375 4949.583 2323.542 4948.5 2323.542 4948.5 2334.792 4923.167 2334.792 4923.167 2368.958 4909.583 2368.958 4909.583 2334.792 4898.083 2334.792 4898.083 2309.642 4948.5 2309.642 4948.5 2315.292 4949.583 2315.292 4949.583 2292.292 4990.042 2292.292 4990.042 2350.375 5024.667 2350.375 5024.667 2365.458 4990.042 2365.458 4990.042 2376.542 4979.208 2376.542"/><path class="d" d="M12984.292,4286.5v58.083h34.625v14.833h-34.625V4370.5h-10.584v-9.625h4.563v4.583h1.459v-6.042h-6.021v-62.333h-19.041v22.25h-10.584V4317.5h-1.333v11.25h-25.333v34.166h-13.334V4328.75h-11.5v-24.9h50.167v5.65h1.333v-23h40.209m.25-.25h-40.709v23H12943v-5.65h-50.667V4329h11.5v34.166h13.834V4329H12943v-11.25h.833v1.833h11.084v-22.25h18.541v62.333h6.021v5.542h-.959v-4.583h-5.062v10.125h11.084v-11.084h34.625v-15.333h-34.625V4286.25Z" transform="translate(-7994.375 -1994.083)"/><polygon class="d" points="2.542 1592.625 2.542 1591.042 0.25 1591.042 0.25 1508.604 15.333 1508.604 15.333 1538.436 17.417 1538.436 17.417 1508.604 70.25 1508.604 70.25 1528.531 106.75 1528.531 106.75 1548.208 17.417 1548.208 17.417 1543.852 15.333 1543.852 15.333 1591.042 13.042 1591.042 13.042 1592.625 2.542 1592.625"/><path class="d" d="M8064.5,3502.813v19.927H8101v19.427h-89.083v-4.356h-2.333V3585h-2.292v1.583h-10.25V3585h-2.292v-82.187h14.833v29.832h2.333v-29.832H8064.5m.25-.25h-53.083v29.832h-1.833v-29.832H7994.5v82.688h2.292v1.583h10.75v-1.583h2.292v-47.189h1.833v4.356h89.583V3522.49h-36.5v-19.927Z" transform="translate(-7994.375 -1994.083)"/><polygon class="d" points="33.417 1598.708 33.417 1596.125 31.833 1596.125 31.833 1589.375 33.417 1589.375 33.417 1586.292 46.083 1586.292 46.083 1576.208 75.792 1576.208 75.792 1598.708 33.417 1598.708"/><path class="d" d="M8070.042,3570.417v22.25h-42.125v-2.583h-1.583v-6.5h1.583V3580.5h12.667v-10.083h29.458m.25-.25h-29.958v10.083h-12.667v3.083h-1.583v7h1.583v2.583h42.625v-22.75Z" transform="translate(-7994.375 -1994.083)"/><path class="d" d="M8225.125,2524.875v-77.75H8102.208v9.394H8075l-6.4-3.651-13.578-.016v-10.333h3.809v2.042h5.042v-2.042h4.667l6.583-2.413v-8.425h27.083v.694h122.917v-71.542l7.8-7.4,91.2,3.68v-9.82h14.75V2441h11.75v-.442h27.083v4.271h3.667v-4.271h27.208l6.416,2.367,4.709.008v2.042h5.042v-2.042h3.809v10.333h-13.517l-6.584,3.719v8.411h-27.083v-4.271h-3.667v4.271h-27.083v-9.646H8331.5l-7.411-7.463.036-17.349h-2.437v23.75h-7.917v5.125h-1.437v1.563h1.438V2513H8278v-2.448h-1.437v7.385h-35.229v-1.875h-1.458v8.813Zm14.75-14.375h1.458v-7.687h35.229v2.177H8278v-36.125h-1.437v2.167h-9.656v-14.094h9.656v6.365H8278v-1.927h28.771v-1.562h-2.4v-37.5h17.313v3.063h2.438v-53.5l-84.25-3.323Z" transform="translate(-7994.375 -1994.083)"/><path class="d" d="M8338.75,2347.417v93.708h12v-.442h26.833v4.271h3.917v-4.271h27.038l6.417,2.36.042.015h4.586v2.042h5.292v-2.042h3.559v10.083h-13.458l-.057.033-6.459,3.667-.127.072v8.358H8381.5V2461h-3.917v4.271H8350.75v-9.646H8331.6l-7.354-7.354v-17.459h-2.687v23.75h-7.917v5.125h-1.437v1.813h1.438v51.375h-35.521v-2.448h-1.687v7.385h-34.979v-1.875h-1.708v8.813h-14.5V2447H8102.083v9.394h-27.017l-6.4-3.634-.057-.033H8055.15v-10.083h3.559v2.042H8064v-2.042h4.586l.042-.015,6.458-2.375.164-.06v-8.387h26.833v.694H8225.25v-71.56l7.689-7.345,91.051,3.636.26.01v-9.826h14.5m-99,163.208h1.708v-7.687h34.979v2.177h1.688V2468.74h-1.687v2.167h-9.406v-13.844h9.406v6.365h1.688V2461.5H8306.9v-1.812h-2.4v-37.25h17.063v3.063h2.688v-53.742l-.24-.009-84-3.313-.26-.01v142.2M8339,2347.167h-15v9.815l-91.157-3.641-7.843,7.492v71.417H8102.333v-.694H8075v8.463l-6.458,2.375h-4.792v2.042h-4.792v-2.042H8054.9v10.583h13.642l6.458,3.667h27.333v-9.394H8225V2525h15v-8.812h1.208v1.875h35.479v-7.385h1.188v2.448H8313.9V2461.25h-1.437v-1.312h1.438v-5.125h7.917v-23.75H8324v17.313l7.5,7.5h19v9.646h27.333v-4.271h3.417v4.271h27.333v-8.463l6.459-3.667h13.642v-10.583h-4.059v2.042h-4.792v-2.042h-4.791l-6.459-2.375H8381.25v4.271h-3.417v-4.271H8350.5v.442H8339v-93.708Zm-99,163.208v-141.69l84,3.313v53.252h-2.187v-3.062H8304.25v37.75h2.4v1.313h-28.771v1.927h-1.187v-6.365h-9.906v14.344h9.906v-2.167h1.188v35.875h-1.187v-2.177h-35.479v7.688Z" transform="translate(-7994.375 -1994.083)"/><polygon class="d" points="1058.875 581.767 1058.875 563.329 1051.188 563.329 1051.188 553.079 1074.938 553.079 1074.938 563.329 1067.25 563.329 1067.25 581.767 1058.875 581.767"/><path class="d" d="M9069.188,2547.288v10H9061.5v18.438h-8.125v-18.437h-7.687v-10h23.5m.25-.25h-24v10.5h7.688v18.438h8.625v-18.437h7.688v-10.5Z" transform="translate(-7994.375 -1994.083)"/><path class="d" d="M11276.924,2115.792a15.142,15.142,0,0,0-15-15v-1.573h-1.425v1.573h-11.4v-1.573h-1.425v1.573a15.142,15.142,0,0,0-15,15h-7.251a22.4,22.4,0,0,1,22.25-22.25v1.3h1.425v-4.8h-24.794v-12.51h11.231v5.5h-5.473v1.529h7v-7.034h35.467v7.034h7v-1.529h-5.473v-5.5h11.231v12.51H11260.5v4.8h1.425v-1.3a22.4,22.4,0,0,1,22.25,22.25Z" transform="translate(-7994.375 -1994.083)"/><path class="d" d="M11285.169,2077.656v12.26h-24.794v5.052h1.675v-1.3a22.274,22.274,0,0,1,22,22h-7a15.27,15.27,0,0,0-15-15v-1.575h-1.675v1.573h-11.15v-1.573h-1.675v1.575a15.27,15.27,0,0,0-15,15h-7a22.274,22.274,0,0,1,22-22v1.3h1.675v-5.052h-24.794v-12.26h10.981v5.255h-5.473v1.779h7.252v-7.034h35.217v7.034h7.252v-1.779h-5.473v-5.255h10.981m.25-.25h-11.481v5.755h5.473v1.279h-6.752v-7.034h-35.717v7.034h-6.752v-1.279h5.473v-5.755h-11.481v12.76h24.794v4.552h-1.175v-1.3a22.5,22.5,0,0,0-22.5,22.5h7.5a15,15,0,0,1,15-15v-1.573h1.175v1.573h11.65v-1.573h1.175v1.573a15,15,0,0,1,15,15h7.5a22.5,22.5,0,0,0-22.5-22.5v1.3h-1.175v-4.552h24.794v-12.76Z" transform="translate(-7994.375 -1994.083)"/><polygon class="d" points="3250.667 14.042 3250.667 6.292 3236.723 6.292 3236.723 7.625 3248.917 7.625 3248.917 14.042 3229.931 14.042 3229.931 0.25 3261.75 0.25 3261.75 14.042 3250.667 14.042"/><path class="d" d="M11256,1994.458V2008h-10.833v-7.75h-14.194v1.583h12.194V2008h-18.736v-13.542H11256m.25-.25h-32.069v14.042h19.236v-6.667h-12.194V2000.5h13.694v7.75h11.333v-14.042Z" transform="translate(-7994.375 -1994.083)"/><path class="d" d="M0,0" transform="translate(-7994.375 -1994.083)"/><path class="d" d="M0,0" transform="translate(-7994.375 -1994.083)"/><path class="d" d="M0,9185.124" transform="translate(-7994.375 -1994.083)"/><path class="d" d="M0,9185.124" transform="translate(-7994.375 -1994.083)"/><path class="d" d="M16376.2,9185.124" transform="translate(-7994.375 -1994.083)"/><path class="d" d="M16376.2,9185.124" transform="translate(-7994.375 -1994.083)"/><path class="d" d="M16376.2,0" transform="translate(-7994.375 -1994.083)"/><path class="d" d="M16376.2,0" transform="translate(-7994.375 -1994.083)"/><path class="d" d="M0,0" transform="translate(-7994.375 -1994.083)"/><path class="d" d="M0,0" transform="translate(-7994.375 -1994.083)"/><path class="d" d="M0,9185.124" transform="translate(-7994.375 -1994.083)"/><path class="d" d="M0,9185.124" transform="translate(-7994.375 -1994.083)"/><path class="d" d="M16376.2,9185.124" transform="translate(-7994.375 -1994.083)"/><path class="d" d="M16376.2,9185.124" transform="translate(-7994.375 -1994.083)"/><path class="d" d="M16376.2,0" transform="translate(-7994.375 -1994.083)"/><path class="d" d="M16376.2,0" transform="translate(-7994.375 -1994.083)"/><path class="d" d="M0,0" transform="translate(-7994.375 -1994.083)"/><path class="d" d="M0,0" transform="translate(-7994.375 -1994.083)"/><path class="d" d="M0,9185.124" transform="translate(-7994.375 -1994.083)"/><path class="d" d="M0,9185.124" transform="translate(-7994.375 -1994.083)"/><path class="d" d="M16376.2,9185.124" transform="translate(-7994.375 -1994.083)"/><path class="d" d="M16376.2,9185.124" transform="translate(-7994.375 -1994.083)"/><path class="d" d="M16376.2,0" transform="translate(-7994.375 -1994.083)"/><path class="d" d="M16376.2,0" transform="translate(-7994.375 -1994.083)"/><g class="a"><polygon class="d" points="601.417 2968.375 601.417 2957.125 579.417 2957.125 579.417 2947.875 583.667 2947.875 583.667 2946.458 579.417 2946.458 579.417 2920.104 574.6 2920.104 574.6 2893.667 610.667 2893.667 610.667 2946.458 587.333 2946.458 587.333 2947.875 610.667 2947.875 610.667 2968.375 601.417 2968.375"/><path class="e" d="M8604.917,4887.875v52.542h-23.334v1.667h23.334v20.25h-9v-11.25h-22v-9h4.25v-1.667h-4.25v-26.354H8569.1v-26.187h35.817m.25-.25H8568.85v26.688h4.817v26.354h4.25v1.167h-4.25v9.5h22v11.25h9.5v-20.75h-23.334v-1.167h23.334v-53.042Z" transform="translate(-7994.375 -1994.083)"/></g><g class="a"><polygon class="d" points="821.622 1001.042 821.558 998.042 745.992 997.39 733.025 984.372 733.063 784.81 749.638 768.286 926.519 768.323 936.354 758.539 936.391 613.023 930.526 607.108 802.019 607.071 786.948 591.949 786.985 458.81 802.225 443.623 891.5 443.659 891.5 458.409 808.349 458.409 801.772 464.935 801.735 585.825 808.143 592.285 936.651 592.321 951.178 606.898 951.141 764.664 932.643 783.109 755.763 783.073 747.85 790.935 747.813 978.248 752.171 982.657 821.625 983.292 821.625 973.542 846 973.542 858.855 975.54 878 975.542 878 988.667 858.75 988.667 858.75 1001.042 821.622 1001.042"/><path class="e" d="M8885.75,2437.868v14.5h-83.13l-.073.073-6.488,6.489-.073.073v121.009l.073.073,6.371,6.372.073.073h128.42L8945.391,2601v157.647L8927,2777.031H8750.034l-.073.073-7.825,7.825-.073.073v187.432l.073.073,4.321,4.321.072.072h.1l69.241.6.252,0v-9.752l24.212,0,12.913,2h19v12.875H8853V2995h-36.88l-.059-2.755-.005-.243-.243,0-75.342-.651-12.908-12.909V2779l16.466-16.466H8921l.073-.073,9.747-9.747.073-.073V2607l-.073-.073-5.827-5.827-.073-.073H8796.5l-15.012-15.012V2453l15.129-15.129h89.136m.25-.25h-89.489l-15.275,15.276v133.228l15.158,15.159h128.42l5.827,5.827v145.427l-9.747,9.747H8743.925l-16.612,16.612v199.65l13.054,13.054,75.444.652.064,3h37.375v-12.375h19.25V2969.5h-19.25l-12.875-2h-24.5v9.75l-69.241-.6-4.321-4.321V2785.106l7.825-7.825h176.969l18.534-18.534V2600.893l-14.614-14.613h-128.42l-6.371-6.372v-120.8l6.488-6.489H8886v-15Z" transform="translate(-7994.375 -1994.083)"/></g><g class="a"><path class="d" d="M10045.375,3877.875V3867.5h-73.25v-19.375h-67.667v-3.05h-41.481v32.8h-29.352v-14.75h14.6v-35.833h55.981v6.083h93.667v19.375h47.5v-54a27.406,27.406,0,0,0-27.375-27.375h-73.375v-14.75H10018a42.173,42.173,0,0,1,42.125,42.125v79.125Z" transform="translate(-7994.375 -1994.083)"/><path class="e" d="M10018,3756.75a42.048,42.048,0,0,1,42,42v79h-14.5v-10.375h-73.25V3848h-67.667v-3.05h-41.731v32.8h-29.1v-14.5h14.6v-35.833h55.731v6.083h93.667v19.375h47.75V3798.75a27.531,27.531,0,0,0-27.5-27.5h-73.25v-14.5H10018m0-.25h-73.5v15h73.5a27.281,27.281,0,0,1,27.25,27.25v53.875H9998V3833.25h-93.667v-6.083H9848.1V3863h-14.6v15h29.6v-32.8h41.231v3.05H9972v19.375h73.25V3878h15v-79.25a42.3,42.3,0,0,0-42.25-42.25Z" transform="translate(-7994.375 -1994.083)"/></g><g class="a"><polygon class="d" points="2082.25 1610.625 2082.25 1595.875 2168.75 1595.875 2168.75 1587.625 2088.25 1587.625 2088.25 1487.542 2106.5 1487.542 2106.5 1485.375 2088.25 1485.375 2088.25 1471.375 2131.833 1471.375 2131.833 1485.375 2113.583 1485.375 2113.583 1487.542 2248 1487.542 2248 1502.292 2141.667 1502.292 2141.667 1510.375 2238.833 1510.375 2238.833 1610.625 2082.25 1610.625"/><path class="e" d="M10126.083,3465.583v13.75h-18.25v2.417h134.417v14.5h-106.333v8.333h97.166v100H10076.75v-14.5h86.5v-8.5h-80.5V3481.75H10101v-2.417h-18.25v-13.75h43.333m.25-.25H10082.5v14.25h18.25v1.917h-18.25v100.333h80.5v8h-86.5v15h156.833v-100.5h-97.166V3496.5H10242.5v-15h-134.417v-1.917h18.25v-14.25Z" transform="translate(-7994.375 -1994.083)"/></g><g class="a"><polygon class="d" points="3051.75 1468.458 3051.75 1305.375 3099.417 1305.375 3099.417 1297.958 3068.917 1297.958 3068.917 1088.208 3099.417 1088.208 3099.417 968.458 3086.5 968.458 3086.5 995.542 3071.75 995.542 3071.75 953.708 3114.167 953.708 3114.167 1088.208 3144.667 1088.208 3144.667 1297.958 3114.167 1297.958 3114.167 1320.125 3066.5 1320.125 3066.5 1468.458 3051.75 1468.458"/><path class="e" d="M11108.417,2947.917v134.5h30.5v209.5h-30.5v22.167h-47.667v148.333h-14.5V3299.583h47.667v-7.667h-30.5v-209.5h30.5v-120h-13.167V2989.5h-14.5v-41.583h42.167m.25-.25H11066v42.083h15v-27.083h12.667v119.5h-30.5v210h30.5v7.167H11046v163.333h15V3314.333h47.667v-22.167h30.5v-210h-30.5v-134.5Z" transform="translate(-7994.375 -1994.083)"/></g><g class="a"><polygon class="d" points="3368.083 1261.958 3368.083 1223.292 3329.25 1223.292 3329.25 1176.167 3353.5 1176.167 3353.5 1172.917 3318 1172.917 3318 1157.917 3353.5 1157.917 3353.5 1154.667 3329.25 1154.667 3329.25 1107.542 3435.75 1107.542 3435.75 1223.292 3382.667 1223.292 3382.667 1261.958 3368.083 1261.958"/><path class="e" d="M11430,3101.75v115.5h-53.083v38.667h-14.334V3217.25h-38.833v-46.875H11348v-3.5h-35.5v-14.75h35.5v-3.5h-24.25V3101.75H11430m.25-.25H11323.5v47.375h24.25v3h-35.5v15.25h35.5v3h-24.25V3217.5h38.833v38.667h14.834V3217.5h53.083v-116Z" transform="translate(-7994.375 -1994.083)"/></g><g class="a"><polygon class="d" points="3088.375 1960.608 3088.375 1934.323 3091.813 1934.323 3091.813 1932.458 3088.375 1932.458 3088.375 1884.542 3175.333 1884.542 3175.333 1906.025 3208.333 1906.025 3208.333 1920.775 3175.333 1920.775 3175.333 1932.458 3099.063 1932.458 3099.063 1934.323 3124.167 1934.323 3124.167 1960.608 3088.375 1960.608"/><path class="e" d="M11169.583,3878.75v21.483h33v14.5h-33v11.683h-76.271v2.115h25.1v26.035h-35.542v-26.035h3.438v-2.115h-3.437V3878.75h86.708m.25-.25h-87.208v48.167h3.438v1.615h-3.437v26.535h36.042v-26.535h-25.1v-1.615h76.271v-11.683h33v-15h-33V3878.5Z" transform="translate(-7994.375 -1994.083)"/></g><g class="a"><path class="d" d="M11997.831,2941.813l-11.117-11.169.036-102.222-.47-1.671h-17.405v-33.312h8.563v-29.769l-3.205-3.257-30.126-.037-3.444,3.393-.037,42.588-12.857,12.805-37.268-.037v-49.25h-83.125v-14.75h2.375v-2h-2.375v-14.25h-57.562v13.375h-8.562v5.25h-14.75v-54.75h-4.625v-67.625h4.625v-69.75h14.75v56h81.625v-8.75h63.229V2549.5l-2.621-2.673-165.382-.037-9.474-9.525.037-33.451-2.057-2.109-15.11-.037-1.9,1.847-.036,32.9-10.545,10.493-42.5-.037-11.43-11.482.036-113.326h14.75v19.808h15.75v14.75h-15.75v72.644l2.768,2.82,30.251.037,1.883-1.831.036-32.9,10.561-10.509,27.358.037,10.719,10.771-.036,33.451.812.863,165.381.037,11.283,11.335-.036,98.372h-14.75v-19.375h-53.479v16.375h51.125v102.875h1.958v-1.25h14.75v29.5h-.208v34.5h21.394l4.2-4.143.036-42.588,12.107-12.055,42.374.037,11.867,11.919-.036,35.893h9.313v131.081l2.456,2.507,30.563.037,2.352-2.3.036-117.388h14.75V2829H12097v9.75h-45.344v92.138l-10.977,10.925ZM11819.5,2755.125h66.208v-3.75h-1.958v1.75h-64.25Zm-81.625-13.75h2.188v-20h-2.187Zm0-29.75h2.188v-6.933h3.55V2638.75h79.237v-2.625h-81.6v66.625h-3.375Z" transform="translate(-7994.375 -1994.083)"/><path class="e" d="M11639.75,2422.192V2442h15.75v14.5h-15.75v72.872l.073.073,2.731,2.732.073.073H11673l.073-.073,1.794-1.794.073-.073V2497.5l10.45-10.451h27.24l10.661,10.662v33.539l.073.073.774.774.073.073H11889.5l11.226,11.226v98.231h-14.5V2622.25H11832.5v16.625h51.125V2741.75h2.208v-1.25h14.5v29.25h-.208v34.75h21.622l.073-.073,4.106-4.107.073-.073v-42.5l12-12h42.256l11.81,11.81v36h9.313v131.06l.073.073,2.419,2.419.073.073h30.682l.073-.073,2.263-2.263.073-.073V2807.5h14.5v21.625h45.344v9.5h-45.344v92.159l-10.9,10.9h-42.693l-11.06-11.06V2828.386l-.009-.033-.439-1.546-.052-.182H11969v-33.062h8.563v-30l-.073-.073-3.169-3.169-.073-.073H11944l-.073.073-3.356,3.356-.073.073v42.5L11927.753,2819h-37.128v-49.25H11807.5v-14.5h2.375V2753h-2.375v-14.25h-57.812v13.375h-8.562v5.25h-14.5v-54.75H11722V2635.25h4.625V2565.5h14.5v56H11823v-8.75h63.229V2549.4l-.073-.073-2.585-2.585-.073-.073H11718.2l-9.415-9.415v-33.539l-.073-.073-2.021-2.021-.073-.073h-15.229l-.073.073-1.81,1.81-.073.073v32.812L11679,2546.75h-42.381l-11.372-11.372V2422.192h14.5m101.375,280.433h-3.375v9.125h2.438v-6.933h3.55v-65.942h79.237V2636h-81.85v66.625m-3.375,38.875h2.438v-20.25h-2.437v20.25m145.875,11.5h-64.25v2.25h66.458v-4h-2.208V2753M11640,2421.942h-15v113.54l11.519,11.519h42.588l10.581-10.581v-32.812l1.81-1.81h15.021l2.021,2.021v33.539l9.562,9.562h165.293l2.585,2.585v63h-63.229v8.75h-81.375v-56h-15V2635h-4.625v67.875h4.625v54.75h15v-5.25h8.563V2739h57.313v14.25h2.375V2755h-2.375v15h83.125v49.25h37.481l12.894-12.894v-42.5l3.356-3.356h30.037l3.169,3.169v29.644h-8.562v33.563h17.436l.439,1.546v102.311l11.206,11.206h42.9l11.05-11.05v-92.013h45.344v-10h-45.344V2807.25h-15v117.425l-2.263,2.263h-30.475l-2.419-2.419V2793.313h-9.312v-35.856l-11.956-11.956h-42.463l-12.144,12.144v42.5l-4.106,4.106h-21.269V2770h.208v-29.75h-15v1.25h-1.708V2638.625h-51.125V2622.5h53.229v19.375h15V2543.29l-11.372-11.372h-165.293l-.774-.774V2497.6l-10.808-10.808h-27.447l-10.6,10.6v32.813l-1.794,1.794h-30.162l-2.731-2.731V2456.75h15.75v-15H11640v-19.808Zm98,289.558v-8.625h3.375V2636.25h81.35v2.375h-79.237v65.942h-3.55v6.933Zm0,29.75V2721.5h1.938v19.75Zm81.625,13.75v-1.75h64.25v-1.75h1.708v3.5Z" transform="translate(-7994.375 -1994.083)"/></g><g class="a"><path class="d" d="M12445.458,3354.275v-32.951h11.667v-9.283h-65v-160.75h53.75v25.233h18.208l16.028,16.08,16.027-16.028,16.028,16.028,16.115-16.116,22.992.037v119.6h74.6v25.2h11.667v32.951Zm-24.416-126.15h24.25v-15.917h-24.25Z" transform="translate(-7994.375 -1994.083)"/><path class="e" d="M12445.75,3151.417v25.233h18.229l15.955,15.955.177.177.177-.177,15.851-15.851,15.852,15.851.177.177.177-.177,15.954-15.955h22.852v119.6h74.6v25.2h11.667v32.7h-191.834v-32.7h11.667v-9.533h-65v-160.5h53.5m-24.833,76.833h24.5v-16.167h-24.5v16.167m25.083-77.083h-54v161h65v9.033h-11.667v33.2h192.334v-33.2H12626V3296h-74.6V3176.4h-23.205l-16.027,16.028-16.028-16.028-16.027,16.028-16.028-16.028H12446v-25.233ZM12421.167,3228v-15.667h24V3228Z" transform="translate(-7994.375 -1994.083)"/></g><g class="a"><path class="d" d="M12591.375,4100.178V4086.99h-1.479v3.969h-52.937v-11h5.625v-1.546h-16.625c-16.1,0-29.1-4.913-38.655-14.6-15.2-15.415-15.52-37.165-15.507-39.594V3840.91h54.412v25.882h28.167v63.99h1.208v-3.969h38.1v2.063h95.875v57.25h10.646v36.75H12679v-47.552h-1.292v14.3h-60.916v-31.667h60.916v14.3H12679v-32.823h-51.062v-3.687h-34.25v2.063h-38.1v-3.969h-1.208v91.531h-19.5v-56.75h-20.583v-7.083h-20.25v7.083h-2.8v55.764c0,.158.114,15.937,10.006,25.866,5.757,5.778,14.07,8.708,24.708,8.708h65.417v-34.5h257.167v75.72Zm-1.479-16.251h1.479v-5.515h-45.729v1.546h44.25Z" transform="translate(-7994.375 -1994.083)"/><path class="e" d="M12526.083,3841.035v25.882h28.167v63.99h1.458v-3.969h37.854V3929h95.875v57.25h10.646v36.5h-20.958V3975.2h-1.542v14.3h-60.666v-31.417h60.666v14.3h1.542v-33.073h-51.062v-3.687h-34.5v2.063h-37.854v-3.969h-1.458v91.531H12535V3968.5h-20.583v-7.083h-20.5v7.083h-2.8v55.889c0,.159.115,15.989,10.042,25.954,5.781,5.8,14.124,8.745,24.8,8.745h65.542v-34.5h256.917v75.47H12591.5v-13.188h-1.729v3.969h-52.687v-10.75h5.625v-1.8h-16.75c-16.062,0-29.038-4.9-38.566-14.564-15.164-15.378-15.484-37.082-15.471-39.507V3841.035h54.162m19.438,239.049h44.25v3.969h1.729v-5.765h-45.979v1.8m-19.187-239.3h-54.662v183.432c-.011,1.94.219,24.142,15.543,39.683,9.577,9.713,22.613,14.639,38.744,14.639h16.5v1.3h-5.625v11.25h53.188v-3.969h1.229V4100.3h257.417v-75.97H12591.25v34.5h-65.292c-10.6,0-18.887-2.917-24.619-8.671-9.914-9.951-9.97-25.669-9.97-25.777V3968.75h2.8v-7.083h20v7.083h20.583v56.75h19.75v-91.531h.958v3.969h38.354v-2.062h34v3.688h51.063v32.573h-1.042v-14.3h-61.166v31.917h61.166v-14.3h1.042V4023h21.458v-37h-10.646v-57.25h-95.875v-2.062h-38.354v3.969h-.958v-63.99h-28.167v-25.882Zm19.438,239.049v-1.3h45.479v5.265h-1.229v-3.969Z" transform="translate(-7994.375 -1994.083)"/></g><g class="a"><polygon class="d" points="4979.208 2376.542 4979.208 2366.667 4984.021 2366.667 4984.021 2371.25 4985.229 2371.25 4985.229 2365.458 4979.208 2365.458 4979.208 2303.125 4960.417 2303.125 4960.417 2325.375 4949.583 2325.375 4949.583 2323.542 4948.5 2323.542 4948.5 2334.792 4923.167 2334.792 4923.167 2368.958 4909.583 2368.958 4909.583 2334.792 4898.083 2334.792 4898.083 2309.642 4948.5 2309.642 4948.5 2315.292 4949.583 2315.292 4949.583 2292.292 4990.042 2292.292 4990.042 2350.375 5024.667 2350.375 5024.667 2365.458 4990.042 2365.458 4990.042 2376.542 4979.208 2376.542"/><path class="e" d="M12984.292,4286.5v58.083h34.625v14.833h-34.625V4370.5h-10.584v-9.625h4.563v4.583h1.459v-6.042h-6.021v-62.333h-19.041v22.25h-10.584V4317.5h-1.333v11.25h-25.333v34.166h-13.334V4328.75h-11.5v-24.9h50.167v5.65h1.333v-23h40.209m.25-.25h-40.709v23H12943v-5.65h-50.667V4329h11.5v34.166h13.834V4329H12943v-11.25h.833v1.833h11.084v-22.25h18.541v62.333h6.021v5.542h-.959v-4.583h-5.062v10.125h11.084v-11.084h34.625v-15.333h-34.625V4286.25Z" transform="translate(-7994.375 -1994.083)"/></g><g class="a"><polygon class="d" points="2.542 1592.625 2.542 1591.042 0.25 1591.042 0.25 1508.604 15.333 1508.604 15.333 1538.436 17.417 1538.436 17.417 1508.604 70.25 1508.604 70.25 1528.531 106.75 1528.531 106.75 1548.208 17.417 1548.208 17.417 1543.852 15.333 1543.852 15.333 1591.042 13.042 1591.042 13.042 1592.625 2.542 1592.625"/><path class="e" d="M8064.5,3502.813v19.927H8101v19.427h-89.083v-4.356h-2.333V3585h-2.292v1.583h-10.25V3585h-2.292v-82.187h14.833v29.832h2.333v-29.832H8064.5m.25-.25h-53.083v29.832h-1.833v-29.832H7994.5v82.688h2.292v1.583h10.75v-1.583h2.292v-47.189h1.833v4.356h89.583V3522.49h-36.5v-19.927Z" transform="translate(-7994.375 -1994.083)"/></g><polygon class="d" points="33.417 1598.708 33.417 1596.125 31.833 1596.125 31.833 1589.375 33.417 1589.375 33.417 1586.292 46.083 1586.292 46.083 1576.208 75.792 1576.208 75.792 1598.708 33.417 1598.708"/><path class="e" d="M8070.042,3570.417v22.25h-42.125v-2.583h-1.583v-6.5h1.583V3580.5h12.667v-10.083h29.458m.25-.25h-29.958v10.083h-12.667v3.083h-1.583v7h1.583v2.583h42.625v-22.75Z" transform="translate(-7994.375 -1994.083)"/><g class="a"><path class="d" d="M8225.125,2524.875v-77.75H8102.208v9.394H8075l-6.4-3.651-13.578-.016v-10.333h3.809v2.042h5.042v-2.042h4.667l6.583-2.413v-8.425h27.083v.694h122.917v-71.542l7.8-7.4,91.2,3.68v-9.82h14.75V2441h11.75v-.442h27.083v4.271h3.667v-4.271h27.208l6.416,2.367,4.709.008v2.042h5.042v-2.042h3.809v10.333h-13.517l-6.584,3.719v8.411h-27.083v-4.271h-3.667v4.271h-27.083v-9.646H8331.5l-7.411-7.463.036-17.349h-2.437v23.75h-7.917v5.125h-1.437v1.563h1.438V2513H8278v-2.448h-1.437v7.385h-35.229v-1.875h-1.458v8.813Zm14.75-14.375h1.458v-7.687h35.229v2.177H8278v-36.125h-1.437v2.167h-9.656v-14.094h9.656v6.365H8278v-1.927h28.771v-1.562h-2.4v-37.5h17.313v3.063h2.438v-53.5l-84.25-3.323Z" transform="translate(-7994.375 -1994.083)"/><path class="e" d="M8338.75,2347.417v93.708h12v-.442h26.833v4.271h3.917v-4.271h27.038l6.417,2.36.042.015h4.586v2.042h5.292v-2.042h3.559v10.083h-13.458l-.057.033-6.459,3.667-.127.072v8.358H8381.5V2461h-3.917v4.271H8350.75v-9.646H8331.6l-7.354-7.354v-17.459h-2.687v23.75h-7.917v5.125h-1.437v1.813h1.438v51.375h-35.521v-2.448h-1.687v7.385h-34.979v-1.875h-1.708v8.813h-14.5V2447H8102.083v9.394h-27.017l-6.4-3.634-.057-.033H8055.15v-10.083h3.559v2.042H8064v-2.042h4.586l.042-.015,6.458-2.375.164-.06v-8.387h26.833v.694H8225.25v-71.56l7.689-7.345,91.051,3.636.26.01v-9.826h14.5m-99,163.208h1.708v-7.687h34.979v2.177h1.688V2468.74h-1.687v2.167h-9.406v-13.844h9.406v6.365h1.688V2461.5H8306.9v-1.812h-2.4v-37.25h17.063v3.063h2.688v-53.742l-.24-.009-84-3.313-.26-.01v142.2M8339,2347.167h-15v9.815l-91.157-3.641-7.843,7.492v71.417H8102.333v-.694H8075v8.463l-6.458,2.375h-4.792v2.042h-4.792v-2.042H8054.9v10.583h13.642l6.458,3.667h27.333v-9.394H8225V2525h15v-8.812h1.208v1.875h35.479v-7.385h1.188v2.448H8313.9V2461.25h-1.437v-1.312h1.438v-5.125h7.917v-23.75H8324v17.313l7.5,7.5h19v9.646h27.333v-4.271h3.417v4.271h27.333v-8.463l6.459-3.667h13.642v-10.583h-4.059v2.042h-4.792v-2.042h-4.791l-6.459-2.375H8381.25v4.271h-3.417v-4.271H8350.5v.442H8339v-93.708Zm-99,163.208v-141.69l84,3.313v53.252h-2.187v-3.062H8304.25v37.75h2.4v1.313h-28.771v1.927h-1.187v-6.365h-9.906v14.344h9.906v-2.167h1.188v35.875h-1.187v-2.177h-35.479v7.688Z" transform="translate(-7994.375 -1994.083)"/></g><g class="a"><polygon class="f" points="1058.875 581.767 1058.875 563.329 1051.188 563.329 1051.188 553.079 1074.938 553.079 1074.938 563.329 1067.25 563.329 1067.25 581.767 1058.875 581.767"/><path class="e" d="M9069.188,2547.288v10H9061.5v18.438h-8.125v-18.437h-7.687v-10h23.5m.25-.25h-24v10.5h7.688v18.438h8.625v-18.437h7.688v-10.5Z" transform="translate(-7994.375 -1994.083)"/></g><g class="a"><path class="d" d="M11276.924,2115.792a15.142,15.142,0,0,0-15-15v-1.573h-1.425v1.573h-11.4v-1.573h-1.425v1.573a15.142,15.142,0,0,0-15,15h-7.251a22.4,22.4,0,0,1,22.25-22.25v1.3h1.425v-4.8h-24.794v-12.51h11.231v5.5h-5.473v1.529h7v-7.034h35.467v7.034h7v-1.529h-5.473v-5.5h11.231v12.51H11260.5v4.8h1.425v-1.3a22.4,22.4,0,0,1,22.25,22.25Z" transform="translate(-7994.375 -1994.083)"/><path class="e" d="M11285.169,2077.656v12.26h-24.794v5.052h1.675v-1.3a22.274,22.274,0,0,1,22,22h-7a15.27,15.27,0,0,0-15-15v-1.575h-1.675v1.573h-11.15v-1.573h-1.675v1.575a15.27,15.27,0,0,0-15,15h-7a22.274,22.274,0,0,1,22-22v1.3h1.675v-5.052h-24.794v-12.26h10.981v5.255h-5.473v1.779h7.252v-7.034h35.217v7.034h7.252v-1.779h-5.473v-5.255h10.981m.25-.25h-11.481v5.755h5.473v1.279h-6.752v-7.034h-35.717v7.034h-6.752v-1.279h5.473v-5.755h-11.481v12.76h24.794v4.552h-1.175v-1.3a22.5,22.5,0,0,0-22.5,22.5h7.5a15,15,0,0,1,15-15v-1.573h1.175v1.573h11.65v-1.573h1.175v1.573a15,15,0,0,1,15,15h7.5a22.5,22.5,0,0,0-22.5-22.5v1.3h-1.175v-4.552h24.794v-12.76Z" transform="translate(-7994.375 -1994.083)"/></g><g class="a"><polygon class="d" points="3250.667 14.042 3250.667 6.292 3236.723 6.292 3236.723 7.625 3248.917 7.625 3248.917 14.042 3229.931 14.042 3229.931 0.25 3261.75 0.25 3261.75 14.042 3250.667 14.042"/><path class="e" d="M11256,1994.458V2008h-10.833v-7.75h-14.194v1.583h12.194V2008h-18.736v-13.542H11256m.25-.25h-32.069v14.042h19.236v-6.667h-12.194V2000.5h13.694v7.75h11.333v-14.042Z" transform="translate(-7994.375 -1994.083)"/></g><g class="a"><path class="b" d="M0,0" transform="translate(-7994.375 -1994.083)"/><path class="b" d="M0,0" transform="translate(-7994.375 -1994.083)"/><path class="b" d="M0,9185.124" transform="translate(-7994.375 -1994.083)"/><path class="b" d="M0,9185.124" transform="translate(-7994.375 -1994.083)"/><path class="b" d="M16376.2,9185.124" transform="translate(-7994.375 -1994.083)"/><path class="b" d="M16376.2,9185.124" transform="translate(-7994.375 -1994.083)"/><path class="b" d="M16376.2,0" transform="translate(-7994.375 -1994.083)"/><path class="b" d="M16376.2,0" transform="translate(-7994.375 -1994.083)"/><path class="c" d="M0,0" transform="translate(-7994.375 -1994.083)"/><path class="c" d="M0,0" transform="translate(-7994.375 -1994.083)"/><path class="c" d="M0,9185.124" transform="translate(-7994.375 -1994.083)"/><path class="c" d="M0,9185.124" transform="translate(-7994.375 -1994.083)"/><path class="c" d="M16376.2,9185.124" transform="translate(-7994.375 -1994.083)"/><path class="c" d="M16376.2,9185.124" transform="translate(-7994.375 -1994.083)"/><path class="c" d="M16376.2,0" transform="translate(-7994.375 -1994.083)"/><path class="c" d="M16376.2,0" transform="translate(-7994.375 -1994.083)"/></g><g class="a"><path class="e" d="M8604.792,4888v52.291h-23.334v1.918h23.334v20h-8.75v-11.25h-22v-8.75h4.25v-1.918h-4.25v-26.354h-4.817V4888h35.567m.25-.25h-36.067v26.438h4.817v26.354h4.25v1.418h-4.25v9.25h22v11.25h9.25v-20.5h-23.334v-1.418h23.334V4887.75Z" transform="translate(-7994.375 -1994.083)"/><path class="c" d="M8604.917,4887.875v52.542h-23.334v1.667h23.334v20.25h-9v-11.25h-22v-9h4.25v-1.667h-4.25v-26.354H8569.1v-26.187h35.817m.25-.25H8568.85v26.688h4.817v26.354h4.25v1.167h-4.25v9.5h22v11.25h9.5v-20.75h-23.334v-1.167h23.334v-53.042Z" transform="translate(-7994.375 -1994.083)"/></g><g class="a"><path class="e" d="M8796.7,2437.956l88.922.036v14.25h-83l-.073.073-6.576,6.526-.074.073v.1l-.037,120.89v.1l.073.073,6.407,6.46.073.074h.1l128.4.037,14.38,14.43-.037,157.559-18.351,18.3-176.777-.037h-.1l-.073.073-7.913,7.862-.074.073v.1l-.037,187.313v.1l.072.073,4.358,4.409.072.073h.1l69.454.636.252,0v-9.753l24.087,0,12.894,2h18.895V2982.5h-19.25v12.375h-36.633l-.059-2.754-.005-.243-.243,0-75.463-.652-12.821-12.872.037-199.355,16.429-16.378,176.777.037h.1l.073-.073,9.835-9.784.074-.073v-.1l.037-145.516v-.1l-.072-.073-5.864-5.916-.073-.074h-.1l-128.4-.037-14.924-14.975L8781.61,2453l15.093-15.041m-.1-.25-15.239,15.188-.037,133.139,15.07,15.122,128.508.037,5.864,5.916-.037,145.516-9.835,9.784-176.881-.037-16.575,16.524-.037,199.562,12.967,13.018,75.565.653.064,3h37.128V2982.75h19.25v-13.125H8853.23l-12.855-2H8816v9.751l-69.454-.636-4.358-4.409.037-187.313,7.913-7.862,176.88.037,18.5-18.446.037-157.766-14.526-14.577-128.509-.037-6.407-6.46.037-120.89,6.576-6.525h83.151v-14.75l-89.275-.037Z" transform="translate(-7994.375 -1994.083)"/><path class="c" d="M8885.75,2437.868v14.5h-83.13l-.073.073-6.488,6.489-.073.073v121.009l.073.073,6.371,6.372.073.073h128.42L8945.391,2601v157.647L8927,2777.031H8750.034l-.073.073-7.825,7.825-.073.073v187.432l.073.073,4.321,4.321.072.072h.1l69.241.6.252,0v-9.752l24.212,0,12.913,2h19v12.875H8853V2995h-36.88l-.059-2.755-.005-.243-.243,0-75.342-.651-12.908-12.909V2779l16.466-16.466H8921l.073-.073,9.747-9.747.073-.073V2607l-.073-.073-5.827-5.827-.073-.073H8796.5l-15.012-15.012V2453l15.129-15.129h89.136m.25-.25h-89.489l-15.275,15.276v133.228l15.158,15.159h128.42l5.827,5.827v145.427l-9.747,9.747H8743.925l-16.612,16.612v199.65l13.054,13.054,75.444.652.064,3h37.375v-12.375h19.25V2969.5h-19.25l-12.875-2h-24.5v9.75l-69.241-.6-4.321-4.321V2785.106l7.825-7.825h176.969l18.534-18.534V2600.893l-14.614-14.613h-128.42l-6.371-6.372v-120.8l6.488-6.489H8886v-15Z" transform="translate(-7994.375 -1994.083)"/></g><g class="a"><path class="e" d="M10018,3756.875a41.922,41.922,0,0,1,41.875,41.875v78.875h-14.25V3867.25h-73.25v-19.375h-67.667v-3.05h-41.981v32.8h-28.852v-14.25h14.6v-35.833h55.481v6.083h93.667V3853h48v-54.25a27.656,27.656,0,0,0-27.625-27.625h-73.125v-14.25H10018m0-.25h-73.375v14.75H10018a27.406,27.406,0,0,1,27.375,27.375v54h-47.5v-19.375h-93.667v-6.083h-55.981v35.833h-14.6v14.75h29.352v-32.8h41.481v3.05h67.667V3867.5h73.25v10.375h14.75V3798.75a42.173,42.173,0,0,0-42.125-42.125Z" transform="translate(-7994.375 -1994.083)"/><path class="c" d="M10018,3756.75a42.048,42.048,0,0,1,42,42v79h-14.5v-10.375h-73.25V3848h-67.667v-3.05h-41.731v32.8h-29.1v-14.5h14.6v-35.833h55.731v6.083h93.667v19.375h47.75V3798.75a27.531,27.531,0,0,0-27.5-27.5h-73.25v-14.5H10018m0-.25h-73.5v15h73.5a27.281,27.281,0,0,1,27.25,27.25v53.875H9998V3833.25h-93.667v-6.083H9848.1V3863h-14.6v15h29.6v-32.8h41.231v3.05H9972v19.375h73.25V3878h15v-79.25a42.3,42.3,0,0,0-42.25-42.25Z" transform="translate(-7994.375 -1994.083)"/></g><g class="a"><path class="e" d="M10125.958,3465.708v13.5h-18.25v2.667h134.417v14.25h-106.333v8.583h97.166v99.75h-156.083v-14.25h86.5v-8.75h-80.5v-99.583h18.25v-2.667h-18.25v-13.5h43.083m.25-.25h-43.583v14h18.25v2.167h-18.25v100.083h80.5v8.25h-86.5v14.75h156.583v-100.25h-97.166v-8.083h106.333v-14.75h-134.417v-2.167h18.25v-14Z" transform="translate(-7994.375 -1994.083)"/><path class="c" d="M10126.083,3465.583v13.75h-18.25v2.417h134.417v14.5h-106.333v8.333h97.166v100H10076.75v-14.5h86.5v-8.5h-80.5V3481.75H10101v-2.417h-18.25v-13.75h43.333m.25-.25H10082.5v14.25h18.25v1.917h-18.25v100.333h80.5v8h-86.5v15h156.833v-100.5h-97.166V3496.5H10242.5v-15h-134.417v-1.917h18.25v-14.25Z" transform="translate(-7994.375 -1994.083)"/></g><g class="a"><path class="e" d="M11108.292,2948.042v134.5h30.5v209.25h-30.5v22.167h-47.667v148.333h-14.25V3299.708h47.667v-7.917h-30.5v-209.25h30.5v-120.25h-13.417v27.083h-14.25v-41.333h41.917m.25-.25h-42.417v41.833h14.75v-27.083h12.917v119.75h-30.5v209.75h30.5v7.417h-47.667v163.083h14.75V3314.208h47.667v-22.167h30.5v-209.75h-30.5v-134.5Z" transform="translate(-7994.375 -1994.083)"/><path class="c" d="M11108.417,2947.917v134.5h30.5v209.5h-30.5v22.167h-47.667v148.333h-14.5V3299.583h47.667v-7.667h-30.5v-209.5h30.5v-120h-13.167V2989.5h-14.5v-41.583h42.167m.25-.25H11066v42.083h15v-27.083h12.667v119.5h-30.5v210h30.5v7.167H11046v163.333h15V3314.333h47.667v-22.167h30.5v-210h-30.5v-134.5Z" transform="translate(-7994.375 -1994.083)"/></g><g class="a"><path class="e" d="M11429.875,3101.875v115.25h-53.083v38.667h-14.084v-38.667h-38.833V3170.5h24.25v-3.75h-35.5v-14.5h35.5v-3.75h-24.25v-46.625h106m.25-.25h-106.5v47.125h24.25V3152h-35.5v15h35.5v3.25h-24.25v47.125h38.833v38.667h14.584v-38.667h53.083v-115.75Z" transform="translate(-7994.375 -1994.083)"/><path class="c" d="M11430,3101.75v115.5h-53.083v38.667h-14.334V3217.25h-38.833v-46.875H11348v-3.5h-35.5v-14.75h35.5v-3.5h-24.25V3101.75H11430m.25-.25H11323.5v47.375h24.25v3h-35.5v15.25h35.5v3h-24.25V3217.5h38.833v38.667h14.834V3217.5h53.083v-116Z" transform="translate(-7994.375 -1994.083)"/></g><g class="a"><path class="e" d="M11169.458,3878.875v21.483h33v14.25h-33v11.683h-76.271v2.365h25.1v25.785H11083v-25.785h3.438v-2.365H11083v-47.417h86.458m.25-.25h-86.958v47.917h3.438v1.865h-3.437v26.285h35.792v-26.285h-25.1v-1.865h76.271v-11.683h33v-14.75h-33v-21.483Z" transform="translate(-7994.375 -1994.083)"/><path class="c" d="M11169.583,3878.75v21.483h33v14.5h-33v11.683h-76.271v2.115h25.1v26.035h-35.542v-26.035h3.438v-2.115h-3.437V3878.75h86.708m.25-.25h-87.208v48.167h3.438v1.615h-3.437v26.535h36.042v-26.535h-25.1v-1.615h76.271v-11.683h33v-15h-33V3878.5Z" transform="translate(-7994.375 -1994.083)"/></g><g class="a"><path class="e" d="M11639.625,2422.317v19.808h15.75v14.25h-15.75v73l.072.073,2.768,2.82.073.075h.1l30.251.037h.1l.073-.071,1.883-1.831.075-.074v-.105l.036-32.8,10.414-10.363,27.151.036,10.573,10.625-.036,33.347v.1l.068.072.812.863.074.079h.108l165.277.037,11.137,11.189-.036,98.018h-14.25v-19.375h-53.979V2639h51.125v102.875h2.458v-1.25h14.25v29H11900v35h21.746l.073-.072,4.2-4.143.074-.073v-.1l.036-42.485,11.96-11.909,42.167.036,11.721,11.773-.036,35.79v.25h9.313v130.933l.071.073,2.456,2.507.074.075h.1l30.563.037h.1l.073-.071,2.352-2.3.075-.073v-.105l.036-117.138h14.25v21.625h45.344v9.25h-45.344v92.284l-10.83,10.779h-42.642l-10.971-11.023.036-102.119v-.035l-.009-.033-.47-1.671-.051-.182h-17.345v-32.812h8.563v-30.121l-.072-.073-3.205-3.257-.073-.075h-.1l-30.126-.037h-.1l-.073.072-3.444,3.393-.075.073v.1l-.037,42.485-12.71,12.659-36.915-.036v-49.25h-83.125v-14.25H11810v-2.5h-2.375v-14.25h-58.062V2752H11741v5.25h-14.25V2702.5h-4.625v-67.125h4.625v-69.75H11741v56h82.125v-8.75h63.229V2549.4l-.071-.073-2.621-2.673-.074-.075h-.1l-165.278-.037-9.327-9.378.037-33.347v-.1l-.071-.073-2.057-2.109-.073-.075h-.1l-15.11-.037h-.1l-.073.071-1.9,1.847-.075.074v.105l-.036,32.8-10.4,10.347-42.292-.036-11.284-11.335.036-112.973h14.25M11741,2702.5h-3.375v9.375h2.688v-6.933h3.55V2639h79.237v-3.125H11741V2702.5m-3.375,39.125h2.688v-20.5h-2.687v20.5m145.875,11.25h-64.25v2.5h66.708v-4.25h-2.458v1.75m-243.625-330.808h-14.75l-.036,113.326,11.43,11.482,42.5.037,10.545-10.493.036-32.9,1.9-1.847,15.11.037,2.057,2.109-.037,33.451,9.474,9.525,165.382.037,2.621,2.673v63.122h-63.229v8.75h-81.625v-56h-14.75v69.75h-4.625v67.625h4.625v54.75h14.75v-5.25h8.563v-13.375h57.563v14.25h2.375v2h-2.375v14.75h83.125v49.25l37.268.037,12.857-12.805.037-42.588,3.444-3.393,30.126.037,3.205,3.257v29.769h-8.562v33.313h17.405l.47,1.671-.036,102.222,11.117,11.169h42.849l10.977-10.925V2838.75H12097V2829h-45.344v-21.625h-14.75l-.036,117.388-2.352,2.3-30.562-.037-2.456-2.507V2793.438h-9.312l.036-35.893-11.867-11.919-42.374-.037-12.107,12.055-.036,42.588-4.2,4.143h-21.394v-34.5h.208v-29.5h-14.75v1.25h-1.958V2638.75h-51.125v-16.375h53.479v19.375h14.75l.036-98.372-11.283-11.335-165.381-.037-.812-.863.036-33.451-10.719-10.771-27.358-.037-10.561,10.509-.036,32.9-1.883,1.831-30.251-.037-2.768-2.82v-72.644h15.75v-14.75h-15.75v-19.808Zm98,289.558v-8.875h3.375v-66.625h81.6v2.625h-79.237v65.942h-3.55v6.933Zm0,29.75v-20h2.188v20Zm81.625,13.75v-2h64.25v-1.75h1.958v3.75Z" transform="translate(-7994.375 -1994.083)"/><path class="c" d="M11639.75,2422.192V2442h15.75v14.5h-15.75v72.872l.073.073,2.731,2.732.073.073H11673l.073-.073,1.794-1.794.073-.073V2497.5l10.45-10.451h27.24l10.661,10.662v33.539l.073.073.774.774.073.073H11889.5l11.226,11.226v98.231h-14.5V2622.25H11832.5v16.625h51.125V2741.75h2.208v-1.25h14.5v29.25h-.208v34.75h21.622l.073-.073,4.106-4.107.073-.073v-42.5l12-12h42.256l11.81,11.81v36h9.313v131.06l.073.073,2.419,2.419.073.073h30.682l.073-.073,2.263-2.263.073-.073V2807.5h14.5v21.625h45.344v9.5h-45.344v92.159l-10.9,10.9h-42.693l-11.06-11.06V2828.386l-.009-.033-.439-1.546-.052-.182H11969v-33.062h8.563v-30l-.073-.073-3.169-3.169-.073-.073H11944l-.073.073-3.356,3.356-.073.073v42.5L11927.753,2819h-37.128v-49.25H11807.5v-14.5h2.375V2753h-2.375v-14.25h-57.812v13.375h-8.562v5.25h-14.5v-54.75H11722V2635.25h4.625V2565.5h14.5v56H11823v-8.75h63.229V2549.4l-.073-.073-2.585-2.585-.073-.073H11718.2l-9.415-9.415v-33.539l-.073-.073-2.021-2.021-.073-.073h-15.229l-.073.073-1.81,1.81-.073.073v32.812L11679,2546.75h-42.381l-11.372-11.372V2422.192h14.5m101.375,280.433h-3.375v9.125h2.438v-6.933h3.55v-65.942h79.237V2636h-81.85v66.625m-3.375,38.875h2.438v-20.25h-2.437v20.25m145.875,11.5h-64.25v2.25h66.458v-4h-2.208V2753M11640,2421.942h-15v113.54l11.519,11.519h42.588l10.581-10.581v-32.812l1.81-1.81h15.021l2.021,2.021v33.539l9.562,9.562h165.293l2.585,2.585v63h-63.229v8.75h-81.375v-56h-15V2635h-4.625v67.875h4.625v54.75h15v-5.25h8.563V2739h57.313v14.25h2.375V2755h-2.375v15h83.125v49.25h37.481l12.894-12.894v-42.5l3.356-3.356h30.037l3.169,3.169v29.644h-8.562v33.563h17.436l.439,1.546v102.311l11.206,11.206h42.9l11.05-11.05v-92.013h45.344v-10h-45.344V2807.25h-15v117.425l-2.263,2.263h-30.475l-2.419-2.419V2793.313h-9.312v-35.856l-11.956-11.956h-42.463l-12.144,12.144v42.5l-4.106,4.106h-21.269V2770h.208v-29.75h-15v1.25h-1.708V2638.625h-51.125V2622.5h53.229v19.375h15V2543.29l-11.372-11.372h-165.293l-.774-.774V2497.6l-10.808-10.808h-27.447l-10.6,10.6v32.813l-1.794,1.794h-30.162l-2.731-2.731V2456.75h15.75v-15H11640v-19.808Zm98,289.558v-8.625h3.375V2636.25h81.35v2.375h-79.237v65.942h-3.55v6.933Zm0,29.75V2721.5h1.938v19.75Zm81.625,13.75v-1.75h64.25v-1.75h1.708v3.5Z" transform="translate(-7994.375 -1994.083)"/></g><g class="a"><path class="e" d="M12445.625,3151.542v25.233h18.354l15.955,16.006.177.177.177-.177,15.851-15.851,15.852,15.851.177.177.177-.177,16.042-16.043,22.639.036v119.6h74.6v25.2h11.667v32.451h-191.584v-32.451h11.667v-9.783h-65v-160.25h53.25m-24.833,76.833h24.75v-16.417h-24.75v16.417m25.083-77.083h-53.75v160.75h65v9.283h-11.667v32.951h192.084v-32.951h-11.667v-25.2h-74.6v-119.6l-22.992-.037-16.115,16.116-16.028-16.028-16.027,16.028-16.028-16.08h-18.208v-25.233Zm-24.833,76.833v-15.917h24.25v15.917Z" transform="translate(-7994.375 -1994.083)"/><path class="c" d="M12445.75,3151.417v25.233h18.229l15.955,15.955.177.177.177-.177,15.851-15.851,15.852,15.851.177.177.177-.177,15.954-15.955h22.852v119.6h74.6v25.2h11.667v32.7h-191.834v-32.7h11.667v-9.533h-65v-160.5h53.5m-24.833,76.833h24.5v-16.167h-24.5v16.167m25.083-77.083h-54v161h65v9.033h-11.667v33.2h192.334v-33.2H12626V3296h-74.6V3176.4h-23.205l-16.027,16.028-16.028-16.028-16.027,16.028-16.028-16.028H12446v-25.233ZM12421.167,3228v-15.667h24V3228Z" transform="translate(-7994.375 -1994.083)"/></g><g class="a"><path class="e" d="M12525.958,3841.16v25.882h28.167v63.99h1.708v-3.969h37.6v2.063h95.875v57.25h10.646v36.25h-20.708v-47.552h-1.792v14.3h-60.416v-31.167h60.416v14.3h1.792v-33.323h-51.062V3935.5h-34.75v2.063h-37.6v-3.969h-1.708v91.531h-19v-56.75h-20.583v-7.083h-20.75v7.083h-2.8v56.014c0,.159.115,16.041,10.079,26.042,5.806,5.827,14.178,8.782,24.885,8.782h65.667v-34.5h256.667v75.22h-256.667V4086.74h-1.979v3.969h-52.437v-10.5h5.625v-2.046h-16.875c-16.028,0-28.973-4.888-38.477-14.527-15.131-15.346-15.449-37-15.435-39.419V3841.16h53.912m19.438,239.049h44.25v3.969h1.979v-6.015H12545.4v2.046m-19.187-239.3H12471.8v183.307c-.014,2.43.308,24.18,15.507,39.594,9.553,9.689,22.559,14.6,38.655,14.6h16.625v1.546h-5.625v11h52.938v-3.969h1.479v13.188h257.167v-75.72h-257.167v34.5h-65.417c-10.638,0-18.951-2.93-24.708-8.708-9.892-9.929-10.006-25.707-10.006-25.866v-55.764h2.8v-7.083h20.25v7.083h20.583v56.75h19.5v-91.531h1.208v3.969h38.1v-2.062h34.25v3.688H12679v32.823h-1.292v-14.3h-60.916v31.667h60.916v-14.3H12679v47.552h21.208v-36.75h-10.646v-57.25h-95.875v-2.062h-38.1v3.969h-1.208v-63.99h-28.167V3840.91Zm19.438,239.049v-1.546h45.729v5.515h-1.479v-3.969Z" transform="translate(-7994.375 -1994.083)"/><path class="c" d="M12526.083,3841.035v25.882h28.167v63.99h1.458v-3.969h37.854V3929h95.875v57.25h10.646v36.5h-20.958V3975.2h-1.542v14.3h-60.666v-31.417h60.666v14.3h1.542v-33.073h-51.062v-3.687h-34.5v2.063h-37.854v-3.969h-1.458v91.531H12535V3968.5h-20.583v-7.083h-20.5v7.083h-2.8v55.889c0,.159.115,15.989,10.042,25.954,5.781,5.8,14.124,8.745,24.8,8.745h65.542v-34.5h256.917v75.47H12591.5v-13.188h-1.729v3.969h-52.687v-10.75h5.625v-1.8h-16.75c-16.062,0-29.038-4.9-38.566-14.564-15.164-15.378-15.484-37.082-15.471-39.507V3841.035h54.162m19.438,239.049h44.25v3.969h1.729v-5.765h-45.979v1.8m-19.187-239.3h-54.662v183.432c-.011,1.94.219,24.142,15.543,39.683,9.577,9.713,22.613,14.639,38.744,14.639h16.5v1.3h-5.625v11.25h53.188v-3.969h1.229V4100.3h257.417v-75.97H12591.25v34.5h-65.292c-10.6,0-18.887-2.917-24.619-8.671-9.914-9.951-9.97-25.669-9.97-25.777V3968.75h2.8v-7.083h20v7.083h20.583v56.75h19.75v-91.531h.958v3.969h38.354v-2.062h34v3.688h51.063v32.573h-1.042v-14.3h-61.166v31.917h61.166v-14.3h1.042V4023h21.458v-37h-10.646v-57.25h-95.875v-2.062h-38.354v3.969h-.958v-63.99h-28.167v-25.882Zm19.438,239.049v-1.3h45.479v5.265h-1.229v-3.969Z" transform="translate(-7994.375 -1994.083)"/></g><g class="a"><path class="e" d="M12984.167,4286.625v58.083h34.625v14.583h-34.625v11.084h-10.334V4361h4.313v4.583h1.709v-6.292h-6.021v-62.333h-19.291v22.25h-10.334v-1.833h-1.583v11.25h-25.333v34.166h-13.084v-34.166h-11.5v-24.65h49.917v5.65h1.583v-23h39.959m.25-.25h-40.459v23h-1.083v-5.65h-50.417v25.15h11.5v34.166h13.584v-34.166h25.333v-11.25h1.083v1.833h10.834v-22.25h18.791v62.333h6.021v5.792h-1.209v-4.583h-4.812v9.875h10.834v-11.084h34.625v-15.083h-34.625v-58.083Z" transform="translate(-7994.375 -1994.083)"/><path class="c" d="M12984.292,4286.5v58.083h34.625v14.833h-34.625V4370.5h-10.584v-9.625h4.563v4.583h1.459v-6.042h-6.021v-62.333h-19.041v22.25h-10.584V4317.5h-1.333v11.25h-25.333v34.166h-13.334V4328.75h-11.5v-24.9h50.167v5.65h1.333v-23h40.209m.25-.25h-40.709v23H12943v-5.65h-50.667V4329h11.5v34.166h13.834V4329H12943v-11.25h.833v1.833h11.084v-22.25h18.541v62.333h6.021v5.542h-.959v-4.583h-5.062v10.125h11.084v-11.084h34.625v-15.333h-34.625V4286.25Z" transform="translate(-7994.375 -1994.083)"/></g><g class="a"><path class="e" d="M8064.375,3502.938v19.927h36.5v19.177h-88.833v-4.356h-2.583v47.189h-2.292v1.583h-10v-1.583h-2.292v-81.937h14.583v29.832h2.583v-29.832h52.333m.25-.25h-52.833v29.832h-2.083v-29.832h-15.083v82.438h2.292v1.583h10.5v-1.583h2.292v-47.189h2.083v4.356h89.333v-19.677h-36.5v-19.927Z" transform="translate(-7994.375 -1994.083)"/><path class="c" d="M8064.5,3502.813v19.927H8101v19.427h-89.083v-4.356h-2.333V3585h-2.292v1.583h-10.25V3585h-2.292v-82.187h14.833v29.832h2.333v-29.832H8064.5m.25-.25h-53.083v29.832h-1.833v-29.832H7994.5v82.688h2.292v1.583h10.75v-1.583h2.292v-47.189h1.833v4.356h89.583V3522.49h-36.5v-19.927Z" transform="translate(-7994.375 -1994.083)"/></g><path class="e" d="M8069.917,3570.542v22h-41.875v-2.583h-1.583v-6.25h1.583v-3.083h12.667v-10.083h29.208m.25-.25h-29.708v10.083h-12.667v3.083h-1.583v6.75h1.583v2.583h42.375v-22.5Z" transform="translate(-7994.375 -1994.083)"/><path class="c" d="M8070.042,3570.417v22.25h-42.125v-2.583h-1.583v-6.5h1.583V3580.5h12.667v-10.083h29.458m.25-.25h-29.958v10.083h-12.667v3.083h-1.583v7h1.583v2.583h42.625v-22.75Z" transform="translate(-7994.375 -1994.083)"/><g class="a"><path class="e" d="M8338.625,2347.542v93.708h12.25v-.442h26.583v4.271h4.167v-4.271h26.913l6.374,2.352.042.015H8415l4.459.007v2.042H8425v-2.042h3.309v9.833h-13.332l-.057.032-6.584,3.719-.127.072v8.307h-26.583v-4.271h-4.167v4.271h-26.583V2455.5H8331.6l-7.265-7.316.036-17.246v-.25h-2.938v23.75h-7.917v5.125h-1.437v2.063h1.438v51.125H8278.25V2510.3h-1.937v7.385h-34.729v-1.875h-1.958v8.813h-14.25v-77.75H8101.958v9.394h-26.892l-6.339-3.618-.057-.033h-.066l-13.328-.016v-9.833h3.309v2.042h5.542v-2.042h4.461l.042-.015,6.583-2.413.164-.06v-8.35h26.583v.694h123.417v-71.684l7.649-7.255,91.091,3.676.26.01v-9.831h14.25m-99,163.208h1.958v-7.687h34.729v2.177h1.938v-36.625h-1.937v2.167h-9.156v-13.594h9.156v6.365h1.938v-1.927h28.771v-2.062h-2.4v-37h16.813v3.063h2.938v-53.987l-.24-.009-84.25-3.323-.26-.01V2510.75m99.25-163.458h-14.75v9.82l-91.2-3.68-7.8,7.4v71.542H8102.208v-.694h-27.083v8.425l-6.583,2.413h-4.667v2.042h-5.042v-2.042h-3.809v10.333l13.578.016,6.4,3.651h27.208v-9.394h122.917v77.75h14.75v-8.812h1.458v1.875h35.229v-7.385H8278V2513h35.771v-51.625h-1.437v-1.562h1.438v-5.125h7.917v-23.75h2.438l-.036,17.349,7.411,7.463h19.125v9.646h27.083v-4.271h3.667v4.271h27.083v-8.411l6.584-3.719h13.517v-10.333h-3.809v2.042h-5.042v-2.042l-4.709-.008-6.416-2.367h-27.208v4.271h-3.667v-4.271h-27.083V2441h-11.75v-93.708Zm-99,163.208V2368.555l84.25,3.323v53.5h-2.437v-3.062h-17.312v37.5h2.4v1.563H8278v1.927h-1.437v-6.365h-9.656v14.094h9.656v-2.167H8278v36.125h-1.437v-2.177h-35.229v7.688Z" transform="translate(-7994.375 -1994.083)"/><path class="c" d="M8338.75,2347.417v93.708h12v-.442h26.833v4.271h3.917v-4.271h27.038l6.417,2.36.042.015h4.586v2.042h5.292v-2.042h3.559v10.083h-13.458l-.057.033-6.459,3.667-.127.072v8.358H8381.5V2461h-3.917v4.271H8350.75v-9.646H8331.6l-7.354-7.354v-17.459h-2.687v23.75h-7.917v5.125h-1.437v1.813h1.438v51.375h-35.521v-2.448h-1.687v7.385h-34.979v-1.875h-1.708v8.813h-14.5V2447H8102.083v9.394h-27.017l-6.4-3.634-.057-.033H8055.15v-10.083h3.559v2.042H8064v-2.042h4.586l.042-.015,6.458-2.375.164-.06v-8.387h26.833v.694H8225.25v-71.56l7.689-7.345,91.051,3.636.26.01v-9.826h14.5m-99,163.208h1.708v-7.687h34.979v2.177h1.688V2468.74h-1.687v2.167h-9.406v-13.844h9.406v6.365h1.688V2461.5H8306.9v-1.812h-2.4v-37.25h17.063v3.063h2.688v-53.742l-.24-.009-84-3.313-.26-.01v142.2M8339,2347.167h-15v9.815l-91.157-3.641-7.843,7.492v71.417H8102.333v-.694H8075v8.463l-6.458,2.375h-4.792v2.042h-4.792v-2.042H8054.9v10.583h13.642l6.458,3.667h27.333v-9.394H8225V2525h15v-8.812h1.208v1.875h35.479v-7.385h1.188v2.448H8313.9V2461.25h-1.437v-1.312h1.438v-5.125h7.917v-23.75H8324v17.313l7.5,7.5h19v9.646h27.333v-4.271h3.417v4.271h27.333v-8.463l6.459-3.667h13.642v-10.583h-4.059v2.042h-4.792v-2.042h-4.791l-6.459-2.375H8381.25v4.271h-3.417v-4.271H8350.5v.442H8339v-93.708Zm-99,163.208v-141.69l84,3.313v53.252h-2.187v-3.062H8304.25v37.75h2.4v1.313h-28.771v1.927h-1.187v-6.365h-9.906v14.344h9.906v-2.167h1.188v35.875h-1.187v-2.177h-35.479v7.688Z" transform="translate(-7994.375 -1994.083)"/></g><g class="a"><path class="e" d="M9069.063,2547.413v9.75h-7.687V2575.6H9053.5v-18.437h-7.687v-9.75h23.25m.25-.25h-23.75v10.25h7.688v18.438h8.375v-18.437h7.688v-10.25Z" transform="translate(-7994.375 -1994.083)"/><path class="c" d="M9069.188,2547.288v10H9061.5v18.438h-8.125v-18.437h-7.687v-10h23.5m.25-.25h-24v10.5h7.688v18.438h8.625v-18.437h7.688v-10.5Z" transform="translate(-7994.375 -1994.083)"/></g><g class="a"><path class="e" d="M11285.044,2077.781v12.01h-24.794v5.3h1.925v-1.3a22.2,22.2,0,0,1,21.747,21.747h-6.752a15.446,15.446,0,0,0-15-15v-1.577h-1.925v1.573h-10.9v-1.573h-1.925v1.577a15.446,15.446,0,0,0-15,15h-6.752a22.2,22.2,0,0,1,21.747-21.747v1.3h1.925v-5.3h-24.794v-12.01h10.731v5h-5.473v2.029h7.5v-7.034h34.967v7.034h7.5v-2.029h-5.473v-5h10.731m.25-.25h-11.231v5.5h5.473v1.529h-7v-7.034h-35.467v7.034h-7v-1.529h5.473v-5.5h-11.231v12.51h24.794v4.8h-1.425v-1.3a22.4,22.4,0,0,0-22.25,22.25h7.251a15.142,15.142,0,0,1,15-15v-1.573h1.425v1.573h11.4v-1.573h1.425v1.573a15.142,15.142,0,0,1,15,15h7.251a22.4,22.4,0,0,0-22.25-22.25v1.3h-1.425v-4.8h24.794v-12.51Z" transform="translate(-7994.375 -1994.083)"/><path class="c" d="M11285.169,2077.656v12.26h-24.794v5.052h1.675v-1.3a22.274,22.274,0,0,1,22,22h-7a15.27,15.27,0,0,0-15-15v-1.575h-1.675v1.573h-11.15v-1.573h-1.675v1.575a15.27,15.27,0,0,0-15,15h-7a22.274,22.274,0,0,1,22-22v1.3h1.675v-5.052h-24.794v-12.26h10.981v5.255h-5.473v1.779h7.252v-7.034h35.217v7.034h7.252v-1.779h-5.473v-5.255h10.981m.25-.25h-11.481v5.755h5.473v1.279h-6.752v-7.034h-35.717v7.034h-6.752v-1.279h5.473v-5.755h-11.481v12.76h24.794v4.552h-1.175v-1.3a22.5,22.5,0,0,0-22.5,22.5h7.5a15,15,0,0,1,15-15v-1.573h1.175v1.573h11.65v-1.573h1.175v1.573a15,15,0,0,1,15,15h7.5a22.5,22.5,0,0,0-22.5-22.5v1.3h-1.175v-4.552h24.794v-12.76Z" transform="translate(-7994.375 -1994.083)"/></g><g class="a"><path class="e" d="M11255.875,1994.583v13.292h-10.583v-7.75h-14.444v1.833h12.194v5.917h-18.486v-13.292h31.319m.25-.25h-31.819v13.792h18.986v-6.417H11231.1v-1.333h13.944v7.75h11.083v-13.792Z" transform="translate(-7994.375 -1994.083)"/><path class="c" d="M11256,1994.458V2008h-10.833v-7.75h-14.194v1.583h12.194V2008h-18.736v-13.542H11256m.25-.25h-32.069v14.042h19.236v-6.667h-12.194V2000.5h13.694v7.75h11.333v-14.042Z" transform="translate(-7994.375 -1994.083)"/></g><g class="a"><path class="c" d="M0,0" transform="translate(-7994.375 -1994.083)"/><path class="c" d="M0,0" transform="translate(-7994.375 -1994.083)"/><path class="c" d="M0,9185.124" transform="translate(-7994.375 -1994.083)"/><path class="c" d="M0,9185.124" transform="translate(-7994.375 -1994.083)"/><path class="c" d="M16376.2,9185.124" transform="translate(-7994.375 -1994.083)"/><path class="c" d="M16376.2,9185.124" transform="translate(-7994.375 -1994.083)"/><path class="c" d="M16376.2,0" transform="translate(-7994.375 -1994.083)"/><path class="c" d="M16376.2,0" transform="translate(-7994.375 -1994.083)"/><path class="c" d="M0,0" transform="translate(-7994.375 -1994.083)"/><path class="c" d="M0,0" transform="translate(-7994.375 -1994.083)"/><path class="c" d="M0,9185.124" transform="translate(-7994.375 -1994.083)"/><path class="c" d="M0,9185.124" transform="translate(-7994.375 -1994.083)"/><path class="c" d="M16376.2,9185.124" transform="translate(-7994.375 -1994.083)"/><path class="c" d="M16376.2,9185.124" transform="translate(-7994.375 -1994.083)"/><path class="c" d="M16376.2,0" transform="translate(-7994.375 -1994.083)"/><path class="c" d="M16376.2,0" transform="translate(-7994.375 -1994.083)"/><path class="c" d="M0,0" transform="translate(-7994.375 -1994.083)"/><path class="c" d="M0,0" transform="translate(-7994.375 -1994.083)"/><path class="c" d="M0,9185.124" transform="translate(-7994.375 -1994.083)"/><path class="c" d="M0,9185.124" transform="translate(-7994.375 -1994.083)"/><path class="c" d="M16376.2,9185.124" transform="translate(-7994.375 -1994.083)"/><path class="c" d="M16376.2,9185.124" transform="translate(-7994.375 -1994.083)"/><path class="c" d="M16376.2,0" transform="translate(-7994.375 -1994.083)"/><path class="c" d="M16376.2,0" transform="translate(-7994.375 -1994.083)"/></g></g></svg>