<svg id="Layer_1" data-name="Layer 1" xmlns="http://www.w3.org/2000/svg" viewBox="0 0 39.807 40"><defs><style>.cls-1{fill:#c7cbd7;}</style></defs><title>set-final-measure</title><path class="cls-1" d="M49.928,23.534l-6.26,5.744,7.084,9.4C48.207,46.541,40.454,51.964,31.841,52c-7.966.033-15.847-5.421-18.434-12.882L20.3,29.582l-6.438-5.639c3.649-7.5,9.487-11.777,17.714-11.938C39.9,11.842,45.983,15.9,49.928,23.534Zm-9.989,24.3-5.7-7.285.873-6.876,1.553-.84c1.585,4.84,5.313,7.854,8.144,12.187l3.9-5.811L40.63,29.16,47.3,22.882c-4.166-5.7-9.588-8.62-16.634-8.123-6.079.429-10.685,3.387-14.149,8.5l6.818,6.018L15.448,39.724,19.5,45.2l7.033-9.567.824-2.813,2.009,1.217-.4.184L30,40.627l-5.59,7.382A20.745,20.745,0,0,0,39.939,47.839Z" transform="translate(-12.096 -12)"/><path class="cls-1" d="M51.156,34.239l-2.848-3.815,2.433-2.1c1.5,1.788,1.166,3.686,1.04,5.55Z" transform="translate(-12.096 -12)"/><path class="cls-1" d="M13.129,28.818l2.5,1.865c-.971,1.4-1.568,2.928-2.886,3.858L12.1,34.3l.382-5.344Z" transform="translate(-12.096 -12)"/><path class="cls-1" d="M31.931,31.453l-1.876,1.625c-3.728-2.9-4.442-6.662-1.765-10.579a13.97,13.97,0,0,0,1.233-3.054,6.72,6.72,0,0,1,1-2.049c.369,1.9,1.022,3.831.062,5.641a3.849,3.849,0,0,0-.324,3.534,19.62,19.62,0,0,1,.684,3.064H33.1c-.3-2.468,2.226-4.867-.261-7.093V17.463l.343-.122c.868,1.854,1.823,3.673,2.58,5.571.748,1.876,1.3,3.831,1.849,5.5L34.246,33.17Z" transform="translate(-12.096 -12)"/><path class="cls-1" d="M32.116,39.459c-2.531-1.665-2.567-3.418-.2-5.188C34.522,35.6,34.643,37.621,32.116,39.459Zm-1.4-3.31c1.426,1.985,1.537,1.976,2.479,0Z" transform="translate(-12.096 -12)"/></svg>