<svg id="Layer_1" data-name="Layer 1" xmlns="http://www.w3.org/2000/svg" viewBox="0 0 23.975 40.124"><defs><style>.cls-1{fill:#c7cbd7;}</style></defs><title>set-vest</title><path class="cls-1" d="M30.9,34.4A12.141,12.141,0,0,1,28,30.8c-1.2-1-.4-2.3-.6-3.5,0-.1.2-.2.4-.2.1,0,.4,0,.4.1.3,1.2,1.5,1.8,2.2,2.7.9,1.2,2.3,1.5,4.4,2.3,1-.2.2-.3-.4-.6-.1-.1-.3-.1-.4-.2,0,.2-.1.3,0,.5.3.5.5,1,.8,1.6l.3.3c.1-.2.2-.5-.4-1.5-1.5-1.5-2.2-2.1-2.9-2.7a5.582,5.582,0,0,0-.8-.5c-.2-.1-.9.3-.7-.4.1-.3.6-.4.9-.6.2-.1.5,0,.7,0s.4-.2.6-.3l-.3-.3q-.9-.6,0-1.2a8.428,8.428,0,0,1,1.4-.6c.2-.1.3-.5.4-.7-.3-.1-.6-.3-.8-.2a14.309,14.309,0,0,0-1.5,1.1.75.75,0,0,1-1.2,0c-.9-1-2-1.7-2.5-3a1,1,0,0,0-.5-.4c-.1.3-.3.7-.2.9a6.014,6.014,0,0,0,.9,1.3c.6.8,1.3,1.5,1.8,2.3.1.1,0,.5-.1.6s-.5.2-.6.1c-1.2-1.3-2.4-2.6-3.5-4-.4-.5.2-1.4.9-1.6.2-.1.5-.2.5-.3V19c0-.1-.2-.2-.4-.2-.3-.1-.7-.1-.3-.5a3.908,3.908,0,0,1,.5-.4c1.3,1.2,2.1-.3,2.9-.7,2-.9,1.9-1,3.7,0,.6.4.9.6.8,1.3a1.135,1.135,0,0,0,.3.8c.3.2.7.4.9.3.3-.1.9-.4.3-1a1.277,1.277,0,0,1-.4-1.1,3.232,3.232,0,0,1,1.2-1.1c.2-.1,1,.2,1,.2-.1.9.9.6,1.3,1.1.3.5,1,.6,1.4,1.1.5.5,1.2.9,1.2,1.9,0,.5.4.9.7,1.4a6.1,6.1,0,0,1,.7,4.3h-.9c-.1-.4-.1-.5-.2-.6a6.278,6.278,0,0,1-1.1-1.2c-.4-.5-.6-.1-.8.1-.3.3-.4.7,0,.9a4.756,4.756,0,0,0,1.8.5c-.1,1.4-1,2.3-3.3,1.6-1.3-.6-1.9-.5-2.2-.2a1.651,1.651,0,0,1-1.5.5,4.819,4.819,0,0,0-1.2,0c-.2,0-.4.3-.6.5.2.1.4.4.7.4.5.1,1.2-.1,1.6.2.5.3.6.2.9-.1.9-1.1.9-1.1,2.3-.7.3.1.6.1.9.2-.1-.3-.1-.8-.4-1-.3-.3-.8-.4-.5.2.9,1.1.6,1.8,1.2,1.7.9-.2,1.8-1,2.7,0,.2-.3.5-.6.7-.9.3,1.6-.6,3.1-.5,4.7a2.269,2.269,0,0,1-.1.4c-1.3,0-.4,1.5-1.3,1.8a1.95,1.95,0,0,1-1.3.1c-.4-.2,0-.6.1-.9a11.019,11.019,0,0,0,.2-1.8c.8-.2,1-.7,1.1-2,0-.2-.1,0-.1.1v.4a2.186,2.186,0,0,0,.5-.3c.1-.2-.1-.4-.3-.2-.9.8-1.2,1.3-1.1,2a1.284,1.284,0,0,0-.9,1.6c.1.6-.2.8-.8.8-.9,0-1.8.6-2.6-.3a2.269,2.269,0,0,1-.4.1c.4,1.3-1,1.1-1.4,1.7-.3.4-.3.5-.1,1.1a12.142,12.142,0,0,1,.9,3.4c.1.3-.3.7-.5,1a6.659,6.659,0,0,0-.7-.3c-.2-.1-.5,0-.7,0a.758.758,0,0,0-.4.2l.3.3c.2.1.3.3.6.4.4.1,1.1-.3,1,.5,0,.2-.6.3-.8.6a1.128,1.128,0,0,0,.1.8,8.733,8.733,0,0,0,3.7.6c.2,0,.6-.1.6,0,.4.6,1,.4,1.5.4s1.4.3.6-.8c.2-.1.5-.1.6-.2.5-.4,1-.9,1.5-1.3.7.8-.4,1.4-.3,2.1.1.5-.2.7-.7.7-.9,0-1.8-.2-2.3.8-.7-.5-1.6.7-2.3-.1-.1-.1-.4,0-.4,0-.3,1.3-1.4.8-1.8.6-1.4-.7-2.8-.3-4.1-.4a9.3,9.3,0,0,1-2.4-.5c-.5-.2-.8-.9-1.2-1.4a1,1,0,0,0,.5-.4c.2-.7.6-1.2,2.1-.6.8.5,1,.5,1.1.5.4-.1,1.1.3,1.1-.4,0-1-.8-.4-1.2-.5a2.719,2.719,0,0,0-.9,0c-.3,0-.8-.3-.7.5.1.6.5.5.8.5.2,0,.3,0-.2-.5-.6-.8-.6-1.2-.5-1.3.3-.3.2-.5-.1-.7-.2-.2-.4-.4-.7,0a4.74,4.74,0,0,1-1,1c-.3.3-1,0-1.1-.4,0-.2.2-.4.3-.7.2-.4,1.1,0,.9-.8-.2-.6-.5-1.2-.7-1.8,0,0-.5,0-.6.2-.2.2-.2.5-.4.8a1,1,0,0,1-.5.4c-.1-.2-.1-.4-.2-.6a1.483,1.483,0,0,1-.1-.7c-.1.2-.3.4-.3.6-.1.6.3,1.4-.8,1.2-.6-.1-.6.3-.6.7,0,.1-.4.2-.6.2-.1,0-.3-.5-.3-.5.8-.6-.1-1.2,0-1.8,0-.8.6-.6,1.2-.4.2.1.1-.1,0-.2l-.2.2c.1.2.2.5.3.7.1-.1.1-.2,0-.7-.4-1,0-1.7-.7-2.4-.3-.3.3-.9,1-.9.2,0,.4-.3.7-.3.2,0,.4.2.7.3a2.719,2.719,0,0,0,0-.9c-.1-.8.6-1.1,1-1.5.2-.2.5-.1.8-.2.1.3.1.6.2.9l-.6.3a.937.937,0,0,0-.3,1.4c.4.6.7-.1,1.1-.3.3-.1.8,0,2.6,1.9,1.3,1.5.9,1.1,1,.7.2-1.4-1.1-1.8-1.7-2.6-.1-.1-.5.1-.7.2-.3.2-.6.6-.9.7-.7.2-.7.5-.3,1l.3.6c.6,1.1,1.2,1.1,1.9.1v-.2c.1-.9.4-.3.7-.1.5.4.4.8-.1,1.1a1.344,1.344,0,0,0-.6,1.4c0,.1.4.4.5.3.5-.4,1-.9,0-3.3-1.4-2.6-1.5-3-2.3-2.9-.2,0-.4-.3-.6-.5.9-.2.5-.8.4-1.3a14.8,14.8,0,0,0-.8-1.3c-.1-.3.3-.7.5-1,0-.1.3,0,.4.1s0,.4.1.4c-.2.6.1.8,3.1,3,2.6,2,2.5,1.9,2.4,1.9-1.7-.7-2.5-2.3-3.8-3.4a3.039,3.039,0,0,0-.7-.5.454.454,0,0,0-.5,0,.446.446,0,0,0,0,.5,1.275,1.275,0,0,0,.5.7,5.343,5.343,0,0,1,2.4,2.3,1.92,1.92,0,0,0,2,.8C33.3,36.7,33.4,36.5,30.9,34.4Zm6-9.7H39c.1,0,.2-.2.2-.3a2.015,2.015,0,0,0-.2-.6H34.7c-.1,0-.2.2-.2.3,0,.2.1.6.2.6A16.134,16.134,0,0,0,36.9,24.7Zm-12,13a4.744,4.744,0,0,0,0,1.2c0,.1.4.2.6.2.1,0,.3-.1.3-.2a4.819,4.819,0,0,0,0-1.2c0-.2-.4-.3-.6-.5C25.1,37.4,24.9,37.6,24.9,37.7Zm-1.4.4v.7c0,.1.2.1.3.2a5.973,5.973,0,0,0,.6-1.1c.1-.2-.2-.5-.3-.7-.1-.1-.5.1-.6.2C23.4,37.6,23.5,37.9,23.5,38.1Zm8.2-.7c-.2-.4-.2-.5-.3-.6-.1.1-.3.3-.3.4s.1.3.1.4A1.689,1.689,0,0,1,31.7,37.4Zm1.2,7.4v-.4h-.6v.3C32.4,44.8,32.6,44.8,32.9,44.8ZM32,41.5c0-.3.1-.5.1-.7,0-.1-.2-.1-.3-.2a1.268,1.268,0,0,0-.1.6C31.6,41.3,31.8,41.3,32,41.5Z" transform="translate(-20 -12.003)"/><path class="cls-1" d="M22,46.3c-.4-1.6,1.3-2.4,1.6-3.7,0-.1.6-.1.8,0,.6.4,1.2.9,1.9,1.3.8.5.8.8.2,1.6-.7.8-.6,1.7.3,1.7,1.1-.1,1.4,1.3,2.5,1.1a2.924,2.924,0,0,1,2.4.4c1.4-.6,2.5,0,3.8.4.5.2,1.1-.3,1.7-.4.3-.1.5-.3.8-.3h1.3c-.6.2-.1,1.3-1,1.2h-.5c-.6.2-.4.7-.3,1,.2.9.5.1.7,0,.3-.1.8-.5,1-.4.4.2,1,.6.7-.2a1.194,1.194,0,0,1,.5-1.7c1-.6,2.3-.9,2.6-2.3,0-.1.3-.1.4-.1a1,1,0,0,1,.4.5l-.4,2.1a1.482,1.482,0,0,1-1.1,1.3c-.4.1-.6.6-.9.9-.4.5-.4.5-1.7.5a1.135,1.135,0,0,0-.8.3c-.6.6-1.1.9-2,.3a1.977,1.977,0,0,0-2.6,0c-.4.4-.7.2-1.2.1-1.2-.3-2.5-.9-3.8-.7a3.322,3.322,0,0,1-2.7-.9c-.5-.5-.9-1.1-1.9-1.1-.7,0-1.6-.8-2.2-1.4A1.741,1.741,0,0,1,22,46.3Zm19.6,2.6c-.1-.1-.1-.2-.2-.3-.1.1-.2.1-.1.2,0,.1.1.2.1.3Z" transform="translate(-20 -12.003)"/><path class="cls-1" d="M20,20.6c.1-1.4.3-3.3.5-5.2.2-1.7,1.6-2.4,2.8-3,1.8-.9,3.5-.2,4.7,1.4.1.2.2.7.1.8-.6.5-.2,1.2-.3,1.8a1.421,1.421,0,0,1-.2.6c-.2-.1-.3-.3-.5-.4a12.445,12.445,0,0,1-2-1c-.6-.5-1.1-1.1-1.7-1.7A.9.9,0,0,0,22,14a2.186,2.186,0,0,0-.3.5.6.6,0,0,0,.4.1c.3.1.8.1.8.2a2.045,2.045,0,0,1,0,1.1c-.9,1-.8,2.3-.8,3.5a17.464,17.464,0,0,0,1.5,8.7,3.317,3.317,0,0,1,0,2.2c-.1.3,0,.5.5.3,1.3-.6,2.1-1.4,1.9-3a4.65,4.65,0,0,1,.3-2c.1-.2.8,1.2.6,2.3a12.738,12.738,0,0,1-1.1,3.8,14.841,14.841,0,0,1-2.1,3.4c-.5.5-.6.3-.7,0a4.013,4.013,0,0,1-.3-1.5,10.329,10.329,0,0,0-1.2-5.7,1.978,1.978,0,0,1-.2-1.1c-.1-.4.1-.9-.1-1.1C19.7,24.4,20.2,22.7,20,20.6Z" transform="translate(-20 -12.003)"/><path class="cls-1" d="M39.2,39.6c.2.9-.3,2.1.4,3.2.4.7-.3,1.4-1.2,1.5H37.2c-1.3,0-1.8-.5-1.8-1.9,0-1.2.1-2.4,0-3.6-.2-1.6,0-1.8,1-2.5.8-.5.9.4,1.4.3.4,0,1.1-.1,1.3.2s.1.9.1,1.4Z" transform="translate(-20 -12.003)"/><path class="cls-1" d="M40,39.3a17.233,17.233,0,0,1,.7-2.1c.1-.3.2-.6.3-1,.5.3,1,.7,1.5,1v.3c-.4.9-.8,1.9-1.2,2.8a2.651,2.651,0,0,1-.5.6c-.2-.2-.4-.4-.4-.6a2.719,2.719,0,0,1,0-.9C40.1,39.4,40.1,39.4,40,39.3Z" transform="translate(-20 -12.003)"/><path class="cls-1" d="M39.2,16.1a7.755,7.755,0,0,1-3.2-3s.2-.3.3-.3c.4.1.8.1,1,.3.7.8,1.3,1.7,1.9,2.5.1.2,0,.4,0,.5Z" transform="translate(-20 -12.003)"/><path class="cls-1" d="M30.6,14.7h.7c.1,0,.2.2.3.3,0,0-.1.2-.2.2-.9,0-1.1.7-1.6,1.2-.4.3-.5.1-.7-.1-.3-.3-.5-.5-.2-1C29.3,14.6,30,14.7,30.6,14.7Z" transform="translate(-20 -12.003)"/><path class="cls-1" d="M34.3,15.1c-.3-.1-.5-.3-.8-.4s-.8.2-.9-.4c-.1-.5.6-1.1,1.2-1,.4.1,1,.4,1.1.7C34.9,14.4,34.5,14.8,34.3,15.1Z" transform="translate(-20 -12.003)"/><path class="cls-1" d="M43.1,26.2c.3.1.8.1.8.2a7.388,7.388,0,0,1,0,2.1c0,.1-.5.1-.8.2Z" transform="translate(-20 -12.003)"/><path class="cls-1" d="M41.5,41.5c.1.2.2.3.1.4-.2.6-.4,1.2-.7,1.9-.2-.1-.5-.3-.5-.5a1.9,1.9,0,0,1,.7-1.7A.6.6,0,0,0,41.5,41.5Z" transform="translate(-20 -12.003)"/><path class="cls-1" d="M36.2,15.4c-.4.5-.7.8-.9,1.1a3.45,3.45,0,0,1-.8-.9c0-.1.1-.4.2-.4A12.542,12.542,0,0,1,36.2,15.4Z" transform="translate(-20 -12.003)"/><path class="cls-1" d="M39.7,16.4c-.1.1-.1.2-.2.1s-.2-.1-.3-.2l.2-.2Z" transform="translate(-20 -12.003)"/></svg>