<svg id="Layer_1" data-name="Layer 1" xmlns="http://www.w3.org/2000/svg" viewBox="0 0 38.113 40"><defs><style>.cls-1{fill:#c7cbd7;}</style></defs><title>set-alphabridge</title><path class="cls-1" d="M16.971,45.188,29.538,12H35.2L46.682,44.616C40.723,53.711,24.662,54.977,16.971,45.188Zm13.6-26.917-.38-.05L23.252,36.549h9.066V39.3H22.327l-2.461,5.571c7.119,6.514,18.977,6.182,24.7-.756l-5.519-.731Z" transform="translate(-12.944 -12)"/><path class="cls-1" d="M15.441,21.7l3.744,6.065L16.791,34.1C14.083,29.943,13.534,25.368,15.441,21.7Z" transform="translate(-12.944 -12)"/><path class="cls-1" d="M17.485,18.628l5.887-4.147.528.4L19.83,25.874l-.4.017Z" transform="translate(-12.944 -12)"/><path class="cls-1" d="M45.075,28.2l3.153-5.873c2.676,4.23.025,7.8-.544,11.5l-.5.108Z" transform="translate(-12.944 -12)"/><path class="cls-1" d="M46.1,20.276l-1.491,5.216-.441.083-3.322-9.366C43.345,16.819,44.563,17.785,46.1,20.276Z" transform="translate(-12.944 -12)"/><path class="cls-1" d="M16.317,35.4l-1.48,3.839c-1.725-2.5-2.143-4.365-1.765-8.124Z" transform="translate(-12.944 -12)"/><path class="cls-1" d="M49.289,39.924l-1.522-4.255,2.625-3.711.664.21-.983,7.712Z" transform="translate(-12.944 -12)"/></svg>