<svg id="Layer_1" data-name="Layer 1" xmlns="http://www.w3.org/2000/svg" viewBox="0 0 40 36.717"><defs><style>.cls-1{fill:#c7cbd7;}</style></defs><title>set-sentrys-call</title><path class="cls-1" d="M15.934,31.992,23,43.462c4.052-.8,8.181-1.488,12.238-2.471a9.259,9.259,0,0,0,6.246-5.223l5.307-.941c-1,1.729-1.865,3.351-2.843,4.9-2.053,3.258-5.248,4.605-8.9,5-3.1.333-6.216.487-9.323.738a12.15,12.15,0,0,0-1.4.3l2.211,4.075-.288.209L23.16,46.2a13.108,13.108,0,0,0-7.142,4.159c.319-2.143,1.188-3.148,5.442-6.319L12,31.968,21.487,19.9c-2.436-1.6-4.735-3.312-5.653-6.26a15.414,15.414,0,0,0,7.3,4.16l3-3.733.33.207L24.247,18.34c2.471.247,4.713.488,6.959.689,1.687.15,3.4.127,5.066.394a10.77,10.77,0,0,1,8.2,5.7c.7,1.3,1.487,2.562,2.337,4.019l-5.259-.879c-2.173-4.324-6.185-5.727-10.632-6.389-2.61-.389-5.222-.766-8.015-1.175Z" transform="translate(-12 -13.642)"/><path class="cls-1" d="M38.6,28.913V35.1H20.293V28.913Z" transform="translate(-12 -13.642)"/><path class="cls-1" d="M42.907,33.883c0-1.084-.016-1.821.007-2.556a10.737,10.737,0,0,1,.18-1.172c3,.066,6.009-.305,8.905,1.79C49.173,34.263,46.1,33.639,42.907,33.883Z" transform="translate(-12 -13.642)"/><path class="cls-1" d="M39.911,29.689h1.944v4.587l-1.944.091Z" transform="translate(-12 -13.642)"/></svg>