<svg id="Layer_1" data-name="Layer 1" xmlns="http://www.w3.org/2000/svg" viewBox="0 0 39.995 40"><defs><style>.cls-1{fill:#c7cbd7;}</style></defs><title>set-deadeye</title><path class="cls-1" d="M22.319,38.76A13.477,13.477,0,0,0,39.49,41.6a13.311,13.311,0,0,0,5.451-6.163c.353-.831.765-1.342,1.736-1.11C46.542,40.174,40.83,45.983,34.4,46.89c-6.646.938-13.853-2.747-15.516-8.131Z" transform="translate(-12.002 -12)"/><path class="cls-1" d="M21.12,25.5c-1.66,1.45-1.779,3.458-3.967,4.152a14.492,14.492,0,0,1,7.056-10.57,14.988,14.988,0,0,1,14.025-.872l.056.617-5.415.273A21.838,21.838,0,0,1,21.12,25.5Z" transform="translate(-12.002 -12)"/><path class="cls-1" d="M45.471,20.1c.761-.66,1.507-1.313,2.261-1.957.24-.2.5-.386.781-.6,1.314,1.082-.157,1.989.01,2.971,5.073,8.243,4.174,16.376-.007,22.882.5,2.173.5,2.173,0,3l-2.759-2.845C51.211,35.956,51.312,28.224,45.471,20.1Z" transform="translate(-12.002 -12)"/><path class="cls-1" d="M43.369,15.451l2.935-.5.254.507-2.829,3.029a18.65,18.65,0,0,0-11.616-4.327,17.716,17.716,0,0,0-11.446,4.118l-3.173-2.674.251-.628,2.914.472C28.163,10.864,35.769,10.835,43.369,15.451Z" transform="translate(-12.002 -12)"/><path class="cls-1" d="M15.531,20.551l-.541-2.808.54-.252,2.921,2.794c-5.714,7.831-5.72,15.566.038,23.452l-3,2.714c-1.262-.944.122-1.854.05-2.993C10.863,36,10.787,28.3,15.531,20.551Z" transform="translate(-12.002 -12)"/><path class="cls-1" d="M43.283,48.6c-7.432,4.553-15.108,4.523-22.64-.043l-2.857.477-.659-.939,3.444-2.34c7.538,5.494,15.27,5.537,23.1-.162l2.923,2.785-.236.626Z" transform="translate(-12.002 -12)"/><path class="cls-1" d="M47.067,31.482l-3.523-.921.666-1.982-8.563-1.246,3.721-3.306h5.406A13.67,13.67,0,0,1,47.067,31.482Z" transform="translate(-12.002 -12)"/><path class="cls-1" d="M39.84,33.413l3.1.262c-1.967,4.071-4.99,6.3-9.143,6.774-3.9.447-7.228-.865-10.141-4.091L26.9,35.046c1.51,2.907,3.7,4.677,7.017,4.3C37.258,38.96,38.933,36.676,39.84,33.413Z" transform="translate(-12.002 -12)"/><path class="cls-1" d="M37.067,33.384c-.371,2.425-1.617,3.726-3.632,3.9s-3.473-.813-4.22-2.948l1.419-.75,1.6,1.778h1.97l-.726-1.5C33.651,33.123,34.236,33.045,37.067,33.384Z" transform="translate(-12.002 -12)"/><path class="cls-1" d="M20.486,32.87c-.933.925-1.2,2.576-3.046,2.777l-.41-1.833,3.224-1.376Z" transform="translate(-12.002 -12)"/></svg>