<svg id="Layer_1" data-name="Layer 1" xmlns="http://www.w3.org/2000/svg" viewBox="0 0 40 32.837"><defs><style>.cls-1{fill:#c7cbd7;}</style></defs><title>set-predators-mark</title><path class="cls-1" d="M25.958,26.631l2.9-1.023c-4.024-.638-5.308-1.083-6.7-2.456h7.878l.98-2.473-.5-.447a4.762,4.762,0,0,1-5.365,1.687,32.056,32.056,0,0,1-5.342-2.848l.216-.671h10.3l-2.995-2.5c3.3-.83,6.378.163,9.595.665L38.273,18.4l-2.259,1.3,3.363,1.951,1.739-.836L40.363,18.5l.222-.107L38.78,16.825l.2-.3a9.56,9.56,0,0,0,1.28.613c1.076.338,2.169.622,3.258.919,1.108.3,2.229.556,3.324.9a33.358,33.358,0,0,1,3.417,1.224A11.3,11.3,0,0,1,52,21.348l-.249.407-5.714-1.269.042-.389-1.451.347-.35-.9-2.369.694-.518,2.244c-1.464,1.022-6.1,1.347-7.95.555a3.756,3.756,0,0,0,5.7,2.555c.917-.467,1.855-.894,2.938-1.413l2.1,1.877c-3.779,1.073-5.218,3.705-5.474,7.084-.166,2.2.9,3.794,3.546,5.833l3.468-.211-1.179,3.311c-1.8.267-2.982-.261-3.716-1.584a60.015,60.015,0,0,1-3.367-6.464c-.468-1.156-.223-2.6-.3-3.915-2.144,2.144-2.249,2.78-1.2,7.687l-1.62-.276.912,4.524-2.66-.869v2.756l-2.536-1.084a22.692,22.692,0,0,1,.2,2.8,23.643,23.643,0,0,1-.478,2.773c-7.641-4.2-14.477-8.843-16.848-17.662A51.793,51.793,0,0,1,12,24.194l4.906-3.33a10.5,10.5,0,0,1,3.209,6.056A14.39,14.39,0,0,0,21.6,30.892a8.014,8.014,0,0,0,7.263,4.975c1.149.059,2.3.009,3.58.009-1.73-1.473-3.43-2.883-5.087-4.342A4.625,4.625,0,0,1,25.958,26.631Z" transform="translate(-12 -15.582)"/><path class="cls-1" d="M51.113,25.034c-5.421.52-6.143.159-6.3-2.87,2.009-1.407,3.548.391,5.216.954C50.472,23.268,50.659,24.19,51.113,25.034Z" transform="translate(-12 -15.582)"/><path class="cls-1" d="M49.588,26.8l-2.049,4.09-.457-.154v-3.8Z" transform="translate(-12 -15.582)"/><path class="cls-1" d="M41.066,30.988c1.5,1.535.391,3.3,1.087,5.163C40.378,34.74,40.168,33.45,41.066,30.988Z" transform="translate(-12 -15.582)"/><path class="cls-1" d="M45.974,33.9c.488,2.559-.1,3.443-2.269,3.337Z" transform="translate(-12 -15.582)"/><path class="cls-1" d="M43.027,27.537l2.2-.528.154.649-2.239.453Z" transform="translate(-12 -15.582)"/><path class="cls-1" d="M38.154,19.647l1.479.3-.128.6-1.478-.307Z" transform="translate(-12 -15.582)"/></svg>