<svg id="Layer_1" data-name="Layer 1" xmlns="http://www.w3.org/2000/svg" viewBox="0 0 36.423 40"><defs><style>.cls-1{fill:#c7cbd7;}</style></defs><title>set-reclaimer</title><path class="cls-1" d="M26.567,18.863v9.723l-6.552,7.308-.469-.26V12.093H44.7L39.352,17c.93.571,1.468.919,2.022,1.239a18.358,18.358,0,0,1-4.993,33.523,8.4,8.4,0,0,1-1.812.221q-9.956.029-19.913.014a2.322,2.322,0,0,1-.612-.181l2.425-2.6c5.191,0,10.534-.195,15.857.052,5.927.275,13.356-4.635,14.883-12.491A15.622,15.622,0,0,0,37.98,19.416a6.431,6.431,0,0,0-2.2-.528C32.81,18.828,29.838,18.863,26.567,18.863Z" transform="translate(-13.789 -12)"/><path class="cls-1" d="M19.706,46.374a3.775,3.775,0,0,1,.423-.749c2.217-2.089,4.444-4.167,6.745-6.319,1.656,0,3.329.026,5-.006a5.2,5.2,0,1,0,.072-10.4c-.755-.019-1.511,0-2.445,0V21.879c7.941-1.62,12.867,2.84,14.681,7.885A12.652,12.652,0,0,1,38.075,45.35a6.817,6.817,0,0,1-2.779.979C30.16,46.424,25.021,46.374,19.706,46.374Z" transform="translate(-13.789 -12)"/><path class="cls-1" d="M16.417,38.95l-2.628,2.465V12h2.628Z" transform="translate(-13.789 -12)"/></svg>