<svg id="Layer_1" data-name="Layer 1" xmlns="http://www.w3.org/2000/svg" viewBox="0 0 35.305 40"><defs><style>.cls-1{fill:#c7cbd7;}</style></defs><title>set-fire-crest</title><path class="cls-1" d="M26.8,52a23.71,23.71,0,0,1-7.6-9.3,5.28,5.28,0,0,1,.7-5.5c-1.3-.5-2.6-1-3.8-1.4a.367.367,0,0,1,.1-.3,8.8,8.8,0,0,1-1.5.5c-1.4-1.4,2.4-5.6,5.1-5.8h.8a52.4,52.4,0,0,1,2.5-5.3c.5-.9,1.6-1.4,2.4-2.1.1.1.3.1.4.2v4.7c4,1.3,4,1.3,5.9,3.8.5.1,1,.2,1.6.3-.3,2.4-1.9,3.7-4.1,4.7,1.6,2,.8,3.8-.4,5.8C26.9,45.1,26.5,48.4,26.8,52Z" transform="translate(-14.4 -12)"/><path class="cls-1" d="M38,12c2,1.8,2.3,3.3,1,5.8-1.7.7-3.4,1.4-5,2.1-.1.2-.1.5-.2.7.6.7,1.3,1.4,2.3,2.4a26.607,26.607,0,0,1,2.3-2.8,20.024,20.024,0,0,1,2.4-1.6c1.7-1,3.3-1.9,5-2.9,1.2,2,1,7-.7,8.8A5.638,5.638,0,0,1,42,26.2c-4.6.2-9.2.1-13.8.1-1.8-4.8.5-9.3,5.3-10.3A5.953,5.953,0,0,0,38,12Z" transform="translate(-14.4 -12)"/><path class="cls-1" d="M49.3,23.9c1.2,5.2-.2,8.6-5.1,12.6,1.1,2.7,2.2,5.5,3.3,8.6-2.5-1-4.5-2.6-5.1-5.2a15.687,15.687,0,0,0-6.9-10.2c-.1-.1-.1-.2-.2-.5C40.9,30.2,45.5,28.4,49.3,23.9Z" transform="translate(-14.4 -12)"/><path class="cls-1" d="M31,13.1c-.8,1.1-1.2,2.2-2,2.8a6.784,6.784,0,0,0-3.1,4.6c-2-.9-2.8-3-1.5-4.5a11.258,11.258,0,0,1,3.5-2.1A13.659,13.659,0,0,1,31,13.1Z" transform="translate(-14.4 -12)"/></svg>