<svg id="Layer_1" data-name="Layer 1" xmlns="http://www.w3.org/2000/svg" viewBox="0 0 40 32.142"><defs><style>.cls-1{fill:#c7cbd7;}</style></defs><title>set-lone-star</title><path class="cls-1" d="M18.34,25.334H29.824V19.722H24.142L22.31,23.305l-3.327-1.711,2.845-5.665H41.838L44.6,21.683l-3.294,1.579-1.928-3.588H33.811v13.99l3.038.193L35.4,36.367l1.5,2.538-3.177.17L31.98,41.49l-1.808-2.5H27.008l1.551-2.608-1.4-2.488,2.7-.245V29.292H20.606L17.018,36.6l14.963,7.364,15.007-7.225L43.3,29.224H35.826V25.533h9.829L52,38.355,31.843,48.071,12,38.357Z" transform="translate(-12 -15.929)"/></svg>