<svg id="Layer_1" data-name="Layer 1" xmlns="http://www.w3.org/2000/svg" viewBox="0 0 26.006 40.133"><defs><style>.cls-1{fill:#c7cbd7;}</style></defs><title>set-knee-pads</title><path class="cls-1" d="M41.5,23.5c.2,0,.4.1.5,0a13.3,13.3,0,0,0,1.4-1.9,5.853,5.853,0,0,0,.2-1.3,4.811,4.811,0,0,0,.9,1.1c.6.5.5,1.1.5,1.8a31.545,31.545,0,0,1-1.3,6.1c-.2.8.1,1.8-.2,2.5a2.126,2.126,0,0,0,0,2.3.629.629,0,0,1,0,.6,4.648,4.648,0,0,0-.9,3.4c0,.2-.2.4-.3.6-.4,1.3-1.4,2.3-2,3.4l-.3.3a.758.758,0,0,1-.2-.4c-.1-.6.2-1.3-.5-1.7-.6-.4-.8-1.2-1.6-1.2a5.811,5.811,0,0,0-3.4.5,20,20,0,0,0-2.2,1.9c-.7.7-1.1.7-1.4-.3-.1-.2-.2-.6-.4-.7-.9-.2-.7-1.9-2.4-1.5-.2-.2.5.5.5-.5-.1-.8-.7-.4-1-.5-.1,0-.3-.1-.5,0s-.4.3-.4.4a1.205,1.205,0,0,0,.5.5c.1.1.3,0,.9,0a27.453,27.453,0,0,1,3.2,3.9c.1.2.3.5.7.1.6-.6,1.5-.9,1.9-1.6.7-.9,1.7-.9,2.5-1.5a1.708,1.708,0,0,1,1.4,0c.5.4,1.1,1,1.1,1.6a4.129,4.129,0,0,1-.9,1.9c0,.1-.3,0-.5-.1-.3-.1-.6-.1-.9-.2-.7-.4-1.3-.6-2,.2-.4.4-1.3,1-1.4-.4,0,0-.4-.1-.5,0-.1.2-.3.5-.2.6a1.9,1.9,0,0,0,2.4.9c.6-.3.7-.5.7.3l1.8.1c-.1-1,1.2-.7,1.5-1.5.1-.1.5-.1.8-.2.1.3.1.6.2.9v.5c-.4.5-.8,1.2-1.3,1.4a18.483,18.483,0,0,1-2.4.1,1.421,1.421,0,0,0-.6.2,2.459,2.459,0,0,1-3.1-.6,5.8,5.8,0,0,0-1.2-1,23.07,23.07,0,0,0-1.9-1.4v-.7c-1.2-.2-1.4-1.6-2.4-2.1-.4-.2-.6-.9-.9-1.2-.3-.4-.5-.7,0-1a6.228,6.228,0,0,0-1.4-1.8c-.9-.7-.3-1.2,0-1.8,1.1.4,1.2-.8,1.3-1.1.2-1.2.5-2.4-.3-3.5a2.551,2.551,0,0,1,0-3.1c.4-.6.2-.8-.2-1.2-.2-.2-.2-.7-.3-1,1.5-.1,1.5-.1,1.4-1.3-.1-.7-.4-.8-.9-.4-.5.5-.6-.2-.9-.3.1-.2.2-.6.3-.6,2-.2,2.7-2.5,4.4-3,.6-1.2,2-.9,2.8-1.8a1.353,1.353,0,0,1,2.2,1c.3,1.5,1.3,2.6,1.7,4,.1.2.5.3.7.5.1,1.8.2,1.9,1.7,1.9H40c0,.6.4.6.8.4C41.6,24.9,41.5,24.2,41.5,23.5ZM27.9,25.4h.2c0-.1-.1-.3-.1-.4a.494.494,0,0,0-.3.1.68.68,0,0,0,.4.3c-.4.7-.2,1.6,1.9,3.5l-1.2-1.2h-.2c0,.2-.1.4,0,.5.3.3.6.7.9,1,.1.1.3,0,.4-.1,0,0,.1-.1-1.3-1.3.1-.9.1-.9.5-.7a17.327,17.327,0,0,1,2.1,1.7c.2.2.2.7.2,1.1a4.331,4.331,0,0,0-.5.1.606.606,0,0,0-1,0c.3.2.6.7.9.7.6,0,1.5.4,1.9-.3.4-.6-.2-1.1-.7-1.6-.1-.1-.1-.5-.2-.6C30.9,26.9,30,25.5,27.9,25.4Zm.7,11.2c.5.4.9.9,1.4,1.3.4.3.7,1.3,1.3.7,1.2-1,.3,1.2,1.1.6.2-.1.5-.2.5-.3a1.978,1.978,0,0,0-.2-1.1c-.3-.6-.9-1.1-1.1-1.7-.5-1.8-2.1-1.7-3.4-2.1-.1,0-.4.2-.4.3a8.8,8.8,0,0,0,.5,1.5c.2-.1.3-.2.5-.2a1.719,1.719,0,0,1,.8.1c.2.4.1.7-.5.7C28.9,36.4,28.8,36.5,28.6,36.6Zm-1.8-.9c-.1,0-.2-.1-.4-.2-.1.1-.2.3-.1.4,0,.2.2.3.3.4C26.6,36.1,26.7,36,26.8,35.7Zm-1.1.3c-.3,0-.5-.1-.7-.1-.1,0-.1.2-.2.3a1.268,1.268,0,0,0,.6.1C25.6,36.3,25.6,36.1,25.7,36Z" transform="translate(-19 -11.967)"/><path class="cls-1" d="M22.9,41.1c.2,0,.3-.1.5,0,.9.5,1.2-1.1,1.8-.7.5.3.8,1.1,1.2,1.6,0,.1.4-.2.6-.3a6.89,6.89,0,0,0,.3.8c.5.5.8,1.2,1.7,1,.2,1.3.3,1.4,1.9,1.4.5.3-1.4.8.1,1a2.5,2.5,0,0,1,1.3,1.2,1.428,1.428,0,0,0,1.8.6c1.2-.7,2.4-.4,3.6-.4a4.8,4.8,0,0,0,1.7-.5c0,.2.1.4,0,.5-.9,1.2-1.6,2.9-3.1,3.3-.8.2-.5.9-.9,1.1a10.376,10.376,0,0,1-1,.4l-.2-.2c-.1-.4,0-.7.6-.7.6-.1.3-.6.6-1.2.1-.2-.1-.1-.2,0l.2.2c.2-.1.5-.2.7-.3-.1-.1-.2-.1-.7,0-.9,0-2,.9-2.2-.5a9.634,9.634,0,0,0-1.7,0c-.3,0-.4.5-.7.6-1.3.8-1.3.8-2.4-.3l-1.5-1.5-1.3-1.3c-.5-.5-1-1.4-1.5-1.4-1,.1-.4-1.1-1.2-1.1-.3,0-.7-.7-.9-1.1-.1-.2.1-.6.2-.8C22.6,42.1,23.1,41.8,22.9,41.1Z" transform="translate(-19 -11.967)"/><path class="cls-1" d="M35.7,12a39.34,39.34,0,0,1,4.8.6,6.443,6.443,0,0,1,2.6,1.8,2.616,2.616,0,0,1,.9,2.2v1.2a.758.758,0,0,1-.2.4c-.1-.1-.2-.1-.3-.2l-1.2-1.2c-.5-.4-1-.9-1.5-.9-2-.2-3.9-.8-6-.5a1.7,1.7,0,0,0-.7.1c-.8.7-2,.6-2.9,1a12.269,12.269,0,0,0-3.3,2.3c-.8.6-.6,0-.7-.4s-1,0-.9-.8c0-.3-.6-.5-.1-1.1a18.88,18.88,0,0,1,6.9-4.4,7.543,7.543,0,0,1,2.6,0Z" transform="translate(-19 -11.967)"/><path class="cls-1" d="M36.7,23V21.9c-.1-.4-.2-.7-.3-1.1a10.352,10.352,0,0,1,1.8,0c.3,0,.1-.1,0-.1a1.466,1.466,0,0,0-.4.2,2.118,2.118,0,0,0,.3.7c.2-.2.4-.4.2-.8-.5-.7-.3-1.4-1-1.8-.5-.3-.5-.7-.5-1.2,0-1.2.8-1.7,1.8-1.3a14.8,14.8,0,0,1,1.3.8c.5.3,1.4.3,1.5.7a3.359,3.359,0,0,1-.2,2.2c-.1.4-.3.7.1,1,.8.6.7,1.2.2,1.9-.1.1,0,.3,0,.5-.5.2-1,.3-1.4.5-.1-.9-.3-1.1-.8-.9-.1,0-2-.1-2.1-.1A.9.9,0,0,0,36.7,23Zm3.4-1.1c-.2-.1-.3-.3-.4-.3a1.421,1.421,0,0,0-.6.2.52.52,0,0,0,.4.2C39.7,22,39.9,21.9,40.1,21.9Z" transform="translate(-19 -11.967)"/><path class="cls-1" d="M19.1,34a3.962,3.962,0,0,1,.6-2.7c.2-.3.5-.9,1-.2.2.3.6.5.8.8.3.3.5.7.8,1-1.1.4.3,1.1-.2,1.6a1.072,1.072,0,0,0-.2.6c.1,1-.3,1.6-1.3,1.7-1.1.1-1.6-.3-1.6-1.4A4.922,4.922,0,0,0,19.1,34Z" transform="translate(-19 -11.967)"/><path class="cls-1" d="M21.6,24.9c-1.2-.1-1.9-.7-1.5-1.4a5.583,5.583,0,0,0,.4-3.1,1.2,1.2,0,0,1,.9-1.2,1.158,1.158,0,0,1,1.4.6c.3.5-.2,1.6,1.1,1.3-.2.4-.1,1-.3,1.4a5.488,5.488,0,0,1-1.2,2.1A1.33,1.33,0,0,1,21.6,24.9Z" transform="translate(-19 -11.967)"/><path class="cls-1" d="M39.6,44.9c.7-.9,1.7-1.7,1.4-3,0-.1.2-.3.3-.2l.3.3a1.438,1.438,0,0,1,.3,1.7c-.8,1-1.1,2.5-2.3,3.2Z" transform="translate(-19 -11.967)"/><path class="cls-1" d="M23.4,33.8V32c0-.1.3-.3.5-.3a2.92,2.92,0,0,1,.9.2c-.4.7.9,1.9-.7,2.2,0,.2.1.3.1.5a.6.6,0,0,1-.1.4c-.2-.1-.6-.1-.6-.2A5.809,5.809,0,0,1,23.4,33.8Z" transform="translate(-19 -11.967)"/><path class="cls-1" d="M25.1,18.8a4.129,4.129,0,0,1,1.1.7c.1.1-.2.7-.5.9a4.264,4.264,0,0,1-1.8.6c-.3,0,.3-1.7,1-2.1C24.9,18.9,25.1,18.9,25.1,18.8Z" transform="translate(-19 -11.967)"/><path class="cls-1" d="M33,50.6a7.272,7.272,0,0,1-.8.9,2.161,2.161,0,0,1-1.1-.1c-.1,0-.1-.3-.1-.4.2-.6,1.1-1.1,1.6-.8C32.8,50.2,32.8,50.4,33,50.6Z" transform="translate(-19 -11.967)"/><path class="cls-1" d="M22.9,41.1a1.272,1.272,0,0,1-.5-1.9q1.35.15.9,1.2A1.012,1.012,0,0,1,22.9,41.1Z" transform="translate(-19 -11.967)"/><path class="cls-1" d="M24.8,39.2c0,.1-.1.3-.1.4-.1,0-.2-.1-.3-.1l-.3-.3c-.2-.4-.4-.7-.6-1.1.1-.1.2-.2.3-.1A.965.965,0,0,1,24.8,39.2Z" transform="translate(-19 -11.967)"/><path class="cls-1" d="M35.8,18.2a1.689,1.689,0,0,1-.2.5l-.3-.6v-.5a4.875,4.875,0,0,1-.3-.7,2.269,2.269,0,0,0,.4-.1,2.507,2.507,0,0,1,.4.7Z" transform="translate(-19 -11.967)"/><path class="cls-1" d="M22.3,39.6c-.4-.7-.6-1-.8-1.4,0-.1.3-.3.4-.4.8,0,.5.6.5,1A3.746,3.746,0,0,1,22.3,39.6Z" transform="translate(-19 -11.967)"/><path class="cls-1" d="M24.6,24.9l-.7-.7c.3-.1.6-.2,1-.3.1,0,.3.3.2.3A1.275,1.275,0,0,1,24.6,24.9Z" transform="translate(-19 -11.967)"/><path class="cls-1" d="M24,26a4.876,4.876,0,0,1-.3.7,1.493,1.493,0,0,1-.3-.7c0-.2.1-.4.1-.6C23.7,25.7,23.8,25.9,24,26Z" transform="translate(-19 -11.967)"/><path class="cls-1" d="M42.4,19.7c.1-.2.2-.3.3-.5a.52.52,0,0,1,.2.4,1.421,1.421,0,0,1-.2.6C42.6,20,42.5,19.9,42.4,19.7Z" transform="translate(-19 -11.967)"/><path class="cls-1" d="M22.9,36.4c-.1.2-.2.3-.2.4-.1-.2-.2-.5-.3-.7,0-.1.1-.1.2-.2A.55.55,0,0,1,22.9,36.4Z" transform="translate(-19 -11.967)"/><path class="cls-1" d="M30.9,37.2a3.329,3.329,0,0,1,.6.3,5.008,5.008,0,0,1-.7.8l-.2-.2A3.178,3.178,0,0,1,30.9,37.2Z" transform="translate(-19 -11.967)"/><path class="cls-1" d="M40.1,24v.5c-.1-.1-.3-.2-.4-.3A.52.52,0,0,1,40.1,24Z" transform="translate(-19 -11.967)"/><path class="cls-1" d="M40.1,24.4c.1.1.3.2.4.3-.1.1-.3.1-.4.2Z" transform="translate(-19 -11.967)"/></svg>