<svg id="Layer_1" data-name="Layer 1" xmlns="http://www.w3.org/2000/svg" viewBox="0 0 35.678 39.825"><defs><style>.cls-1{fill:#c7cbd7;}</style></defs><title>set-backpack</title><path class="cls-1" d="M30.7,26.5a9.005,9.005,0,0,0-.3-1.6c-.3-1-1.2.8-1.3-.5,0-.3-.8-.8-1.2-.9-.6-.1-1.3-.3-1.8.3l-.4-.2c.2-1.4.8-1.8,2.4-1.6.8.1,1.6-.3,2.3.4a.471.471,0,0,0,.6-.1c1-.9,1.6-.2,2.2.4.2.2.6.1.9.2,1.4.9,2.7,2,4.1,2.8a12.405,12.405,0,0,1,2.1,1.8c.7.6,1.7,1,2.1,2,.2.5.6.4,1.2.2,1-.5.6-1.8,1.4-2.2,0,.9.2,1.9-.8,2.6-.4.3-.1.7.1,1a1.1,1.1,0,0,1,0,.8c0,.1-.4.1-.6,0s-.4-.6-.7-.1c-.1.2,0,.5,0,.7-.1.1-.4.1-.4.2-.8,1.3-1,1.4-2.1.6-.8-.6-1.6-1.3-2.4-1.9-.1-.1-.3,0-.5-.1a1.854,1.854,0,0,0,.2.7c.1.2.3.5.5.5.9,0,.9.6.8,1.1a.987.987,0,0,1-1.2.9,1.294,1.294,0,0,1-1.2-.5v-.7c-.1-.3-.2-.5-.3-.8a2.92,2.92,0,0,0-.2.9v.7c0,.1.2.2.2.4l.2-.2v-.2c-.1,1,0,1.7-.3,2A13.655,13.655,0,0,1,34,38c-.2.2-.8.2-.8-.5.7,0,.5-.5.5-.9V30.1c0-.2.2-.4.2-.6.1.1.2.3.4.3,1,.5.9,1.4.9,2.4,0,.1.2.1.3.2,0,0,.2-.1.2-.2v-1c0-.8.2-.8.7-.3.1.1.4,0,.7-.1a2.186,2.186,0,0,0-.3-.5c-1.5-.6-2.5-2-3.8-2.7C32.2,27.3,31.8,26.2,30.7,26.5Z" transform="translate(-14.155 -12.075)"/><path class="cls-1" d="M33.2,17.6c-1,.2-1,1.3-1.5,2-.2.2,0,.7-.2.9-.5.4-.8,1.4-1.5,1-.6-.4-.4-1.3-.1-1.9a33.94,33.94,0,0,1,2.9-5.3,4.805,4.805,0,0,1,4.5-2.2c1.1.1.6.4.4.9-.1.1.3.5.5.6a3.352,3.352,0,0,0,1,0c.3.7,1.8.9.7,2.2-.3.4-.1,1.2-.2,1.9a.758.758,0,0,0,.2.4l.3-.6c.1-.4-.1-.9.1-1.2a2.016,2.016,0,0,1,.9-.7c.7-.1.4.5.5.9a9,9,0,0,0,.3,1.6,1.039,1.039,0,0,0,.8.4c.1,0,.3-.4.4-.7.1-.2.2-.5.3-.7.2.2.6.5.6.7a20.852,20.852,0,0,1,0,2.5v3.2h-.2c-.4.5-.6,1.8-1.3,1.4s-1.6-.6-2.1-1.6a9.249,9.249,0,0,1-.9-4.3.758.758,0,0,0-.2-.4.52.52,0,0,0-.2.4c0,1.3-.1,2.7,0,4a2.338,2.338,0,0,0,1.5,2.2,1.211,1.211,0,0,1,.9,1.5,10.952,10.952,0,0,1-4.4-2.6c-.5-.5-.9-.8-.3-1.6.3-.3-.3-1.3-.3-1.9-.1-1.7,0-3.3,0-5a7.519,7.519,0,0,1,0-1.5c.1-.7-.4-1.3-.8-1.2a1.074,1.074,0,0,0-.7,1.4A3.191,3.191,0,0,0,33.2,17.6Z" transform="translate(-14.155 -12.075)"/><path class="cls-1" d="M21.2,28.1c2.6,1.2,2.8.3,3-.7.1-.3.2-.9-.4-.9-.2,0-.4.3-.5.6A5.3,5.3,0,0,1,20.7,30c-.4.2-.6.7-.9,1a2.506,2.506,0,0,1-.7.4c-.3.1-.5.3-.8.4a1.374,1.374,0,0,0,.5.8c.2.2.6.2.8.4.4.3,1,.6.2,1.2a1.492,1.492,0,0,0-.2,2.2c.3.5,0,.5-.2.7-.3.4-.5.1-.7-.1a4.59,4.59,0,0,1-1.9-4.2,4.819,4.819,0,0,0,0-1.2c0-1.1,0-1-1.1-2-.5-.4-1.3-.9-.2-1.6.2-.1.3-.6.3-.8a4.558,4.558,0,0,1,.5-2.3,2.92,2.92,0,0,0,.2-.9c.1.1.2.3.4.3,1.8.2,1.8.2,1.9.9v.7c-.2.8.6.6.7.5a5.64,5.64,0,0,1,2-1.1,6.436,6.436,0,0,1,2.4-.5c1,0,2-.5,3-.4.8,0,1.3,0,1.3,1.1,0,1,.7,2,.4,3,0,.1-.3.3-.5.3-.1,0-.4-.1-.4-.2.1-1.6-1.4-2.1-2.2-3.1-.1-.1-.5,0-.8,0,.1.3.1.6.2.8a10.555,10.555,0,0,1,1.9,2.4c.2.4.3.4-.2.6-.8.4-1.6,1-2.4,1.5a1,1,0,0,0-.5.4c-.1-.2-.1-.5-.2-.7.2.1.2-.1-2.3-2.4-3.3-1.2-4.1-.7-3.9.6-.2,0-.4-.1-.6-.1s-.3.2-.5.3l.7.7a2.663,2.663,0,0,0,.4-.8C18,28.1,18.8,27.6,21.2,28.1Zm-2.5.7c-.1-.1-.1-.2-.2-.2s-.2.1-.3.2c.1.1.1.2.2.2C18.5,28.9,18.6,28.8,18.7,28.8Zm-.9,2.1.2.2c.1-.1.1-.2.2-.3l-.2-.2C17.9,30.6,17.9,30.8,17.8,30.9Z" transform="translate(-14.155 -12.075)"/><path class="cls-1" d="M28.2,42.5a4.49,4.49,0,0,0,2.7-.8,44.076,44.076,0,0,0,6.4-5c.8-.9,1.8-.6,2.7-.6.2,1.2,1.4.4,1.9,1a1.135,1.135,0,0,1,.3.8v4.7a3.011,3.011,0,0,1-1.7,2.7c-.7.4-1.7.1-2.6.1-.1,0-.2-.5-.2-.6.5-.7,1-1.4,1.6-2.1.2-.2.5-.7.4-.8a6.885,6.885,0,0,0-1.1-1.3,1.438,1.438,0,0,0-.3.2,6.706,6.706,0,0,0-1.4.9c-.7.6-1.3,1.3-2,1.9-.4.4-.7,1.2-1.3.9-.8-.4.1-.9.2-1.4.2-.8-.1-1.1-.8-1.1a2.345,2.345,0,0,0-2.2,1,7.972,7.972,0,0,0-1.5.3C28.4,43.6,28.4,43.6,28.2,42.5Z" transform="translate(-14.155 -12.075)"/><path class="cls-1" d="M28.2,42.5c-.6,0-1.3.2-1.8-.5-.6-.9-1.6-1.8-1.6-2.7-.2-2.1-1.6-4-1.1-6.2.1-.4.1-.5.5-.2.8.5,1.6,1,2.4,1.4.3.2.7.2,1.1.4l.5.5c0,.7.6.4,1,.5-.2.8.2,1.2,1,1l.5.5,1,1c.8,1.6.7,1.6-.6,2.5-.8.6-1.4,1.2-2.5,1C28.5,41.6,28.3,42.2,28.2,42.5Z" transform="translate(-14.155 -12.075)"/><path class="cls-1" d="M27.7,34.5c-.4-.7-.8-1.4-1.7-1.5-.1,0-.3-.4-.3-.5,0-.2.3-.4.4-.4a4.819,4.819,0,0,1,1.2,0c.1,0,.2-.2.3-.3a.758.758,0,0,0-.4-.2h-.5c-.1,0-.3-.1-.4-.1a2.186,2.186,0,0,1,.3-.5c.3-.2.7-.2,1.6-.2.3.1,0-.1-.3-.2,0,0-.2.1-.2.2.3.2.5.5.8.7.1-.1.1-.3-.3-.8-.5-.5-.8-1-.2-1.2,1.4-.5,1.8-1.2,1.4-2.4l-.3-.9a1.421,1.421,0,0,1,.2-.6l.3.6c.2.6.6.3,1,.4a1.379,1.379,0,0,0,.5,1.3,1.284,1.284,0,0,1,.4,1c0,.8,0,.8.5.6,1.1-.4,1.1-.4,1.1.5v7.6c-.5.2-1,.3-1.5.5.2-.8-.2-1.2-1-1l-.5-.5-1-1c0-.7-.6-.4-1-.5C28.1,34.9,27.9,34.7,27.7,34.5ZM31,30a5.436,5.436,0,0,0-.8-.4,5.241,5.241,0,0,0-1,1.1l.1.2c.2-.1.4-.1.5-.2C30.2,30.5,30.5,30.3,31,30Z" transform="translate(-14.155 -12.075)"/><path class="cls-1" d="M35.2,14.1a2.473,2.473,0,0,1,1,2.4v5.4c0,1.4,0,1.4-1.5.7-.4-.9-1.6-.4-2-1.2-.3-.5-.6-.7-.2-1.4a3.145,3.145,0,0,0,.7-2.4C34,16.5,35.2,15.6,35.2,14.1Z" transform="translate(-14.155 -12.075)"/><path class="cls-1" d="M42.7,39.3v-.9c.1-.4-.3-1.1.4-1.2a1.793,1.793,0,0,1,1.3.5c.2.1.3.5.4.7.7,1.7,0,3.1-1,4.4-.1.1-.2.2-.3.2-.1-.1-.1-.3-.2-.4A5.837,5.837,0,0,1,42.7,39.3Z" transform="translate(-14.155 -12.075)"/><path class="cls-1" d="M45.7,38.6V37.4c0-1.4.1-1.4,1.4-1.3.2,0,.6.3.6.5.4,1.4-.6,2.5-.6,3.8,0,.2-.6.6-.9.6-.6,0-.4-.6-.4-.9A7.569,7.569,0,0,1,45.7,38.6Z" transform="translate(-14.155 -12.075)"/><path class="cls-1" d="M22,33.1c.4.5.7.6.7.8.2.9-.4,2,.5,2.8-.3.2-.5.5-.8.7-.4-1-1.5-.8-2.2-1.2a5.582,5.582,0,0,1-.5-.8c.2-.1.5-.4.7-.4.8,0,1.5,0,1.3-1.1C21.7,33.7,21.9,33.5,22,33.1Z" transform="translate(-14.155 -12.075)"/><path class="cls-1" d="M47.2,42a12.09,12.09,0,0,0,.5-1.8,9.652,9.652,0,0,0,0-1.7c.4-.1.8.2,1-.4a12.09,12.09,0,0,1,.5-1.8c0-.1.2-.2.3-.2,0,0,.2.1.2.2,0,.7.3,1.5,0,1.9a2.409,2.409,0,0,0-.4,1.8C49.1,41.2,48.6,41.6,47.2,42Z" transform="translate(-14.155 -12.075)"/><path class="cls-1" d="M16.2,32.9v1c-.1.2-.2.6-.3.6-.3-.1-.7-.1-.8-.4a3.225,3.225,0,0,1-.9-2.6c.1-.5.1-.9.2-1.4.4.4,1,.6,1.2,1.1A6.979,6.979,0,0,1,16.2,32.9Z" transform="translate(-14.155 -12.075)"/><path class="cls-1" d="M44.7,34.6v1c0,.4.2,1-.4.9-.4,0-.8-.4-1.1-.8-.2-.3,0-.8,0-1.2V33c0-.4.1-.6.5-.5.3.1.9.2,1,.4A9.634,9.634,0,0,1,44.7,34.6Z" transform="translate(-14.155 -12.075)"/><path class="cls-1" d="M37.7,49v2.7c0,.1-.3.2-.4.2-.2,0-.6-.2-.6-.3,0-1.6-.1-3.3,0-4.9,0-.2.4-.5.7-.7.1.2.2.5.3.7s0,.5,0,.7Z" transform="translate(-14.155 -12.075)"/><path class="cls-1" d="M35.1,45.5h-.5c-.1,0-.2-.2-.4-.3.1-.1.3-.1.4-.2.5-.4,1.3-.7,1.4-1.2.2-1.1,1.4-.9,1.8-1.7h.3a.349.349,0,0,1,.1.2,5.632,5.632,0,0,1-2.4,3.1C35.6,45.6,35.3,45.5,35.1,45.5Z" transform="translate(-14.155 -12.075)"/><path class="cls-1" d="M48.3,35.3h-.6a5.7,5.7,0,0,0-1.3-.1c-.3.1-.6.7-.6-.1,0-.4-1-.7-.1-1.1.4-.2.3-1.1,1.2-.6C47.6,33.7,47.9,34.3,48.3,35.3Z" transform="translate(-14.155 -12.075)"/><path class="cls-1" d="M29.7,46.1c-.7-1.2.9-1.8,1.1-2.8a4.545,4.545,0,0,1,1.4-.1c0,.2.1.6,0,.6-1.9.5-2,2-1.9,3.6,0,.2-.2.3-.3.5a.758.758,0,0,1-.2-.4A5.721,5.721,0,0,1,29.7,46.1Z" transform="translate(-14.155 -12.075)"/><path class="cls-1" d="M23.1,23.1c0,.1.1.2,0,.3-.8.6-1.7,1.1-2.5,1.7-.1,0-.4-.1-.4-.2-.1-.3-.2-.8,0-1a8.016,8.016,0,0,1,1.9-1.3C22.4,22.5,22.8,22.9,23.1,23.1Z" transform="translate(-14.155 -12.075)"/><path class="cls-1" d="M47.2,42.3c.2,1-.2,1.7-.9,1.7a3.032,3.032,0,0,1-1.6-.8c-.3-.2.6-1.2.8-1,.6.5.6-.1.9-.2A1.909,1.909,0,0,1,47.2,42.3Z" transform="translate(-14.155 -12.075)"/><path class="cls-1" d="M45.2,24c.2,1.5-1,2.2-1.6,3.3,0,0-.4,0-.5-.1-.2-.1-.4-.4-.3-.5a9.993,9.993,0,0,1,.8-1.4c.3-.4.7-.9,1-1.3Z" transform="translate(-14.155 -12.075)"/><path class="cls-1" d="M41.3,36.1a4.284,4.284,0,0,0-1.3-.5c-.4-.1-.9-.1-.7-.6.1-.3.3-1.2,1.1-.6.2.2.6.1.9.2.8.1.4.7.5,1.1C41.7,35.8,41.4,35.9,41.3,36.1Z" transform="translate(-14.155 -12.075)"/><path class="cls-1" d="M46.9,31.6c.6,0,2.3,1.7,2.2,2.2a1.576,1.576,0,0,1-.7.7c-.1-.2-.2-.3-.2-.5,0-1.1-.5-1.6-1.6-1.5-.1,0-.2-.3-.2-.4C46.5,31.9,46.7,31.8,46.9,31.6Z" transform="translate(-14.155 -12.075)"/><path class="cls-1" d="M45.2,19.1c0,.1-.2.8-.3,1.4a12.253,12.253,0,0,1-.2-1.9,3.568,3.568,0,0,0-.5-2.5c-.1-.1,0-.3,0-.5.1.1.3.1.4.2a3.328,3.328,0,0,1,.6,1A16.736,16.736,0,0,1,45.2,19.1Z" transform="translate(-14.155 -12.075)"/><path class="cls-1" d="M45.7,23.5c0-.2,0,.1-.1.4,0,.1-.1.1-.2.2h-.2c0-.8.1-1.6.1-2.4a.349.349,0,0,1,.2-.1.215.215,0,0,1,.2.2Z" transform="translate(-14.155 -12.075)"/><path class="cls-1" d="M39.2,13.6c.8-1.3.7-1.3,1.5,0Z" transform="translate(-14.155 -12.075)"/><path class="cls-1" d="M30.4,50.3a1.689,1.689,0,0,0-.5.2,2.92,2.92,0,0,1-.2-.9c0-.1.2-.3.3-.4A9.961,9.961,0,0,1,30.4,50.3Z" transform="translate(-14.155 -12.075)"/><path class="cls-1" d="M40.7,13.6c.5.2,1.3-.5,1.5.5C41.7,13.9,40.9,14.5,40.7,13.6Z" transform="translate(-14.155 -12.075)"/><path class="cls-1" d="M42.2,27.1c-.1.2-.2.3-.2.4-.1-.2-.2-.5-.3-.7a.215.215,0,0,1,.2-.2A.85.85,0,0,1,42.2,27.1Z" transform="translate(-14.155 -12.075)"/><path class="cls-1" d="M43.7,15.1c-.4-.1-1,.2-1-.5C43.1,14.6,43.7,14.3,43.7,15.1Z" transform="translate(-14.155 -12.075)"/><path class="cls-1" d="M34.2,23l.5-.5C34.5,22.7,34.4,22.9,34.2,23Z" transform="translate(-14.155 -12.075)"/><path class="cls-1" d="M45.5,27.1c.1.1.2.1.2.2-.1.1-.1.2-.2.3l-.2-.2C45.3,27.2,45.4,27.2,45.5,27.1Z" transform="translate(-14.155 -12.075)"/><path class="cls-1" d="M44.2,23.5l.5.5C44.5,23.9,44.4,23.7,44.2,23.5Z" transform="translate(-14.155 -12.075)"/><path class="cls-1" d="M43.7,15.1l.5.5C44,15.4,43.9,15.2,43.7,15.1Z" transform="translate(-14.155 -12.075)"/><path class="cls-1" d="M42.7,14.6l-.5-.5C42.4,14.2,42.5,14.4,42.7,14.6Z" transform="translate(-14.155 -12.075)"/></svg>