<svg id="Layer_1" data-name="Layer 1" xmlns="http://www.w3.org/2000/svg" viewBox="0 0 27.855 39.625"><defs><style>.cls-1{fill:#c7cbd7;}</style></defs><title>set-mask</title><path class="cls-1" d="M27.2,39.2c-.3-1.8.4-3.6,1.2-5.5.6-1.5.8-3.9,0-5.3-.5-.9-.1-2.5-1.6-2.8.5-1.5-.7-2.2-1.5-3.2a1.559,1.559,0,0,1,.7-2c.2-.1.6.2.7.5.6,1.2,1.8,2.1,1.7,3.6,1.5,1.4,1.3,3.5,2.2,5,.9,1.6,0,2.8-.1,4.2-1.7,1.6-1.2,4-2.1,5.9a.878.878,0,0,0,.1.7c.2.4.4.7.6,1.1.3-.3.8-.5.9-.8a4.522,4.522,0,0,1,2-2.3c.9-.6,1.9-1.1,2.8-1.6a2.407,2.407,0,0,0,.8-.6,7.92,7.92,0,0,1,6.1-1.6c.2,0,.5.3.7.6,1.1,2.1,2.5,3.9,3.3,6.2.2.5.8.9-.3.8-1.9-.1-3.4,1-5.1,1.3-.2,0-.4.4-.6.6.2.1.4.3.6.3.6,0,1.2.1,1.7-.4a2.452,2.452,0,0,1,1.6-.6c.6,0,1.7-.4,1.9.3a2.167,2.167,0,0,1-.4,2.5c-2.6,2.3-5.2,4.8-8.9,5.2-1.4,1.3-2.2.2-3-.7a10.336,10.336,0,0,1-2.3-3.9c-.3-1.1-1.2-1.8-1.4-2.9,0-.2-.3-.4-.6-.6C27.2,41.6,27.2,41.6,27.2,39.2Zm7,9c.5-.4,1.1-.7,3.4-3.6.1,0,0,0-.1.1a12.878,12.878,0,0,0-1.6,1.7c-.1.2,0,.5,0,.8.2-.1.3-.1.4-.2.8-.7,1.3-1.7,2.6-1.5a.749.749,0,0,0-.1-.5c-.3-.1-.6-.2-2.9,2.1-1.5,0-1.5,0-1.5,1.6a1.756,1.756,0,0,0-.4-.5c-.1.1-.3.3-.3.4a2.544,2.544,0,0,0,.2.7A3.875,3.875,0,0,0,34.2,48.2Zm6.5-.4V47c0-.2-.2-.3-.3-.5l-.4.4c-.1.1-.3.2-.3.4a6.752,6.752,0,0,0,.2,1.4s.4.1.5,0a8.761,8.761,0,0,0,.7-2.6l-.3.3.2.2c.1-.1.2-.2.2-.3S41,46.1,40.7,47.8Z" transform="translate(-18.189 -12.272)"/><path class="cls-1" d="M35.4,24.1a6.878,6.878,0,0,1,2.5-.3c.2,0,.4.2.6.3-.2.2-.3.5-.6.5a7.719,7.719,0,0,1-1.5.2c-.9,0-.6.6-.6,1.1-.3.1-.7.1-1,.2.2.2.3.5.5.7.1.1.3.1.4.2a5.638,5.638,0,0,1-.4,1.2,8.955,8.955,0,0,0-1,4.2c0,.2,0,.5-.1.5-1.7.9-2.3,2.6-3.4,4-.1.1-.3.2-.4.3a.758.758,0,0,1-.2-.4c0-.7-.3-1.5.5-1.9a1.445,1.445,0,0,0,.6-1.4.7.7,0,0,1,.4-.5c1.3.3,1.2-.6,1.2-1.4a24.319,24.319,0,0,0,0-2.7c-.1-1,.2-1.5,1.3-1.3.1,0,.1-.1.2-.1-.2-.1-.5-.2-.6-.4-.1-.1-.1-.4-.1-.5a2.92,2.92,0,0,1,.2-.9.6.6,0,0,0-.4.1,12.675,12.675,0,0,0-1.7,3.1c-.1.2-.2.3-.2.4-.1-.1-.3-.2-.3-.3-.7-2.8-2.3-5.3-3.4-8-.3-.6-.6-1,0-1.5,1.6-1.6,2.5-3.7,3.8-5.4,0-.1,0-.2.1-.2.3-.9.9-1.8,1.8-1.6.5.1,1.1,1,1.3,1.7.5,1.4.8,2.9,1.2,4.4.1.5.4.9.5,1.4.2,1,.6.3.8.1.4-.4.8-.8,1.1,0a3.335,3.335,0,0,1,.8,2.4c0,.1-.4.3-.6.3-.1,0-.4-.1-.4-.2-.1-.3,0-.7-.1-1.1a1.493,1.493,0,0,0-.3-.7,4.129,4.129,0,0,0-.7,1.1c-.1.2.3.5.5.8s.5.9.4,1c-.3.5-.7.1-1.1-.2-.2-.7-.2-.6-1.6.8-.1,0-.3-.3-.4-.3a6.89,6.89,0,0,0-.8.3c.2.2.3.6.5.7C34.8,24.9,35.1,24.7,35.4,24.1Z" transform="translate(-18.189 -12.272)"/><path class="cls-1" d="M27.8,30.7a9.233,9.233,0,0,1-.5,2.6c-.7,1.2-1.5,2.5-1.2,4.1a1.41,1.41,0,0,1-.6.8c-.1.1-.5-.1-.7-.3l-4.2-4.2A7.989,7.989,0,0,1,18.5,30c-.6-2.2-.4-3.6,1.2-4.8a40.474,40.474,0,0,1,3.4-2.3c.5-.3,1.3-.7,1.5.6.1.7.8,1.3,1.2,1.9.3.5.9,1.1.8,1.5C26.1,28.6,28.4,29.4,27.8,30.7Z" transform="translate(-18.189 -12.272)"/><path class="cls-1" d="M37.4,27.6a2.092,2.092,0,0,1,.6.4c.3.5,1,1.3.9,1.6-.5.9-.3,2.1-1.4,2.6-.7.3-1.3-.3-2-.4-.4,0,0-.6.1-1,.3-1,.2-2.2,1.3-2.9C37.1,27.8,37.2,27.7,37.4,27.6Z" transform="translate(-18.189 -12.272)"/><path class="cls-1" d="M35.8,26a2.152,2.152,0,0,1,.8,0c.4.1,1.1-.4,1.2.3,0,.2-.8.5-1.2.7-.2.1-.5,0-.8,0Z" transform="translate(-18.189 -12.272)"/><path class="cls-1" d="M40.6,26.3a3.385,3.385,0,0,1,.3-.8,2.118,2.118,0,0,1,.3.7,1.854,1.854,0,0,1-.2.7A3.112,3.112,0,0,1,40.6,26.3Z" transform="translate(-18.189 -12.272)"/><path class="cls-1" d="M39.3,33.4c-.5,0-.8.1-1.1.1a1.007,1.007,0,0,1-.1-.3c.2,0,.5-.1.7-.1C38.9,33,39,33.2,39.3,33.4Z" transform="translate(-18.189 -12.272)"/><path class="cls-1" d="M34.2,35.1c.2.1.3.2.5.3-.3.1-.5.2-.8.3-.1,0-.2-.2-.2-.2A2.181,2.181,0,0,1,34.2,35.1Z" transform="translate(-18.189 -12.272)"/><path class="cls-1" d="M39.9,31.2a8.145,8.145,0,0,1,.2.9,1,1,0,0,1-.5.4V32A2,2,0,0,1,39.9,31.2Z" transform="translate(-18.189 -12.272)"/><path class="cls-1" d="M38.6,25.1l.2-.2c.1.1.1.2.2.4l-.2.2C38.7,25.3,38.6,25.2,38.6,25.1Z" transform="translate(-18.189 -12.272)"/><path class="cls-1" d="M33.1,36.5c-.1.1-.2.2-.3.2a1.007,1.007,0,0,0-.1-.3c.1-.1.3-.1.4-.2Z" transform="translate(-18.189 -12.272)"/><path class="cls-1" d="M33.1,36.3l.5-.5Z" transform="translate(-18.189 -12.272)"/><path class="cls-1" d="M39.6,32.5l-.5.5C39.2,32.8,39.4,32.7,39.6,32.5Z" transform="translate(-18.189 -12.272)"/></svg>