<svg id="Layer_1" data-name="Layer 1" xmlns="http://www.w3.org/2000/svg" viewBox="0 0 40 27.661"><defs><style>.cls-1{fill:#c7cbd7;}</style></defs><title>set-tactician</title><path class="cls-1" d="M52,32.783v4.54H32.838v-4.54Z" transform="translate(-12 -18.169)"/><path class="cls-1" d="M32.887,18.185H51.952v4.548H32.887Z" transform="translate(-12 -18.169)"/><path class="cls-1" d="M32.884,25.367H51.972v4.5H32.884Z" transform="translate(-12 -18.169)"/><path class="cls-1" d="M16.161,37.349H12V18.2h4.161Z" transform="translate(-12 -18.169)"/><path class="cls-1" d="M29.736,37.3H25.517V18.236h4.219Z" transform="translate(-12 -18.169)"/><path class="cls-1" d="M18.7,18.169h4.178V37.307H18.7Z" transform="translate(-12 -18.169)"/><path class="cls-1" d="M31.93,39.416l1,2.227,2.39.143-1.9,1.616.7,2.424-2.142-1.378-2.138,1.33L30.42,43.4l-1.8-1.563,2.317-.2Z" transform="translate(-12 -18.169)"/><path class="cls-1" d="M20.367,41.812l2.345-.16.959-2.312.969,2.254,2.381.231-1.831,1.6.668,2.391-2.193-1.392-2.008,1.321.486-2.351Z" transform="translate(-12 -18.169)"/><path class="cls-1" d="M46.4,45.763l.553-2.418-1.808-1.51,2.367-.2.983-2.275.957,2.263,2.291.19-1.73,1.592.612,2.347-2.132-1.3Z" transform="translate(-12 -18.169)"/><path class="cls-1" d="M40.973,41.668l2.307.1-1.8,1.65.6,2.281-2.1-1.252L37.8,45.761l.64-2.335-1.776-1.613,2.3-.152.963-2.194Z" transform="translate(-12 -18.169)"/><path class="cls-1" d="M17.073,43.412l.619,2.362-2.157-1.359-2.088,1.416.6-2.393-1.774-1.612,2.31-.176.959-2.293.984,2.264,2.323.194Z" transform="translate(-12 -18.169)"/></svg>