<svg id="Layer_1" data-name="Layer 1" xmlns="http://www.w3.org/2000/svg" viewBox="0 0 40 33.408"><defs><style>.cls-1{fill:#c7cbd7;}</style></defs><title>set-hunters-faith</title><path class="cls-1" d="M32.046,41.057c1.479-.866,2.993-1.781,4.534-2.647,2.881-1.619,5.124-3.658,6.115-7.04.467-1.594,1.85-2.92,3.01-4.24.874-1.689,1.478-3.556,3.413-4.815-.491,1.665-.961,3.112-1.337,4.584-.286,1.122-.017,2.018,1.507,2.3l2.468-1.387.243.165-2.356,3.4L51.2,33.844c-1.082.178-2.846-.051-2.712,1.73.084,1.113.959,2.167,1.477,3.248-3.27-1.1-3.27-1.1-4.02.748,1.664,1.684,3.71,3.235,4.241,6.162-.948-.995-1.67-1.851-2.5-2.591s-1.773-1.382-2.862-2.215l-1.607,1.4,2.676,3.882-.18.219-1.973-1.367c-.364.214-.923,1.7-1.453,3.3a13.406,13.406,0,0,0-3.41-7.583,10.855,10.855,0,0,0,5.629-8.716,12.822,12.822,0,0,1-1.439,2.068c-1.526,1.486-3.1,2.933-4.747,4.281-1.051.859-2.295,1.478-3.406,2.27s-2.174,1.672-3.258,2.514l.327.547A18.42,18.42,0,0,0,30.64,42.2a36.734,36.734,0,0,0-3.09-2.676c-1.477-1.093-3.176-1.918-4.533-3.133a37.809,37.809,0,0,1-3.495-4.07c0,2.947,1.342,5.1,5.474,8.515A12.518,12.518,0,0,0,21.888,48.7l-.4-.022-.176-3.149c-1.445-1-2.024.43-3.168.766l2.612-4.093L19.118,40.82l-5.176,4.591c.3-2.686,2.684-4.121,4.18-5.953-1.047-1.845-1.11-1.849-4.4-.372a10.8,10.8,0,0,0,1.135-1.814c.279-.78.709-1.757.451-2.4-.2-.51-1.343-.65-2.072-.941a2.288,2.288,0,0,0-.465-.091l1.608-2.494L12,28.036l.247-.271a7.334,7.334,0,0,0,1.427.833c.625.2,1.577.526,1.9.242a2.465,2.465,0,0,0,.6-1.988A45.512,45.512,0,0,0,14.9,22.277,7.934,7.934,0,0,1,18,27.152a8.62,8.62,0,0,1,3.712,5.236c.816,2.811,3.058,4.589,5.587,5.967C28.9,39.228,30.47,40.158,32.046,41.057Z" transform="translate(-12 -15.296)"/><path class="cls-1" d="M32.1,15.3c5.747,1.661,9.139,5.685,10.284,11.828-.321.878-.741,2.151-1.248,3.388a11.629,11.629,0,0,1-5.594,6.241c-1.153.581-2.311,1.154-3.821,1.907-2.063-1.4-4.726-2.61-6.516-4.6s-2.7-4.758-3.688-6.615C22.858,21.016,26.1,16.862,32.1,15.3Zm1.418,21.4c4.124-1.522,6.488-4.384,7.469-8.856a23.432,23.432,0,0,0-2.313-.608c-.8-.128-1.621-.12-2.432-.171l0-.436c1.37-.979,3.677.723,4.657-1.488-1.044-4.02-3.322-6.906-7.452-8.287l-.867.809c-.432,1.618.22,3.045-.606,4.507-1.069-1.782.64-4.05-1.378-5.376a10.747,10.747,0,0,0-7.448,8.478c1.151,2.1,3.469.193,4.843,1.616-1.555.986-3.782-.69-4.861,1.452a10.853,10.853,0,0,0,7.634,8.4l1.017-.928V31.6l.451,0v4.112Z" transform="translate(-12 -15.296)"/></svg>