<svg id="Layer_1" data-name="Layer 1" xmlns="http://www.w3.org/2000/svg" viewBox="0 0 39.9 34.6"><defs><style>.cls-1{fill:#c7cbd7;}</style></defs><title>set-banshee</title><path class="cls-1" d="M32,14.7c6.7,5.3,13.2,10.5,20,16-2.7,1.3-4.5,3.9-7.6,4a5.9,5.9,0,0,1-2.5-.7c-1.9-1-3.6-2.2-5.5-3.4-1.4.8-2.8,1.7-4.3,2.6-1.4-.8-2.8-1.6-4.4-2.6-1.8,1.1-3.7,2.3-5.6,3.5a4.215,4.215,0,0,1-4.8,0c-1.7-1.1-3.4-2.2-5.2-3.4C18.7,25.3,25.3,20,32,14.7ZM34,19c-.7-1-1.3-1.9-2.1-3.1-.8,1.2-1.3,2.1-2,3.1A19.613,19.613,0,0,1,32,20.2C32.7,19.8,33.3,19.4,34,19Z" transform="translate(-12.1 -14.7)"/><path class="cls-1" d="M33.1,34.1c.9,3.5.5,6.9,0,10.5H30.9a26.5,26.5,0,0,1-.1-10.5Z" transform="translate(-12.1 -14.7)"/><path class="cls-1" d="M15.4,18.8c.6,2.3,2.5,3.8,2.6,6.1l-.6.3c-1.4-2.6-2.8-5.1-4.3-7.9H27.2c-.7.6-1.2,1.1-1.7,1.6C22.2,18.8,18.9,18.8,15.4,18.8Z" transform="translate(-12.1 -14.7)"/><path class="cls-1" d="M38.7,18.9c-.7-.5-1.3-.9-2.2-1.6H50.8c-1.4,2.7-2.8,5.2-4.2,7.8-.3-.3-.6-.4-.9-.7,1-1.8,1.9-3.6,3-5.6C45.1,18.9,41.9,18.9,38.7,18.9Z" transform="translate(-12.1 -14.7)"/><path class="cls-1" d="M40.1,42.4c-.3-.1-.7-.1-.8-.3-.9-2.7-2-5.3-1.8-8.4.6-.2,1.2-.3,1.8-.5,1.6,2.7,1.6,5.7,2,8.6l-1.2.6Z" transform="translate(-12.1 -14.7)"/><path class="cls-1" d="M24.3,42.5c-.5-.2-1-.4-1.6-.6a24.177,24.177,0,0,1,1.8-8.7c.7.2,1.2.3,1.9.5a18.134,18.134,0,0,1-2.1,8.8Z" transform="translate(-12.1 -14.7)"/><path class="cls-1" d="M34.4,44.3V42.2c1-1.3,1.9-2.6,3.1-4.1.1,1,.1,1.7.2,2.4-1,1.3-2,2.6-3,4C34.6,44.4,34.5,44.4,34.4,44.3Z" transform="translate(-12.1 -14.7)"/><path class="cls-1" d="M26.4,40.7V38.6c.1-.1.2-.1.3-.2,1,1.3,1.9,2.5,2.9,3.8v2.2c-.1,0-.2.1-.3.1C28.3,43.2,27.4,41.9,26.4,40.7Z" transform="translate(-12.1 -14.7)"/><path class="cls-1" d="M44.2,23.4c.4-1,.9-1.9,1.4-3.2H40.2v-.4h6.6c-.7,1.4-1.4,2.6-2.1,3.9C44.5,23.6,44.4,23.5,44.2,23.4Z" transform="translate(-12.1 -14.7)"/><path class="cls-1" d="M31.6,49.2c-.4-1.2-.7-2.4-1.1-3.8h3q-.6,2.1-1.2,3.9C32.1,49.3,31.8,49.2,31.6,49.2Z" transform="translate(-12.1 -14.7)"/><path class="cls-1" d="M17.3,19.8h6.3v.4H18.3c.6,1.2,1,2.1,1.5,3.2C18.8,23.1,18.3,22.5,17.3,19.8Z" transform="translate(-12.1 -14.7)"/><path class="cls-1" d="M24.2,42.4c.6,1.5-.4,2.4-1.7,3.4-.1-1.1-.2-2.1-.4-3.4a7.156,7.156,0,0,0,2.1,0Z" transform="translate(-12.1 -14.7)"/><path class="cls-1" d="M40,42.4c.5,0,.9.1,1.6.1-.1,1.1-.2,2.2-.2,3.4-1.8-1.2-2.1-2.3-1.4-3.5Z" transform="translate(-12.1 -14.7)"/></svg>