<?xml version="1.0" encoding="utf-8"?>
<!-- Generator: Adobe Illustrator 21.0.1, SVG Export Plug-In . SVG Version: 6.00 Build 0)  -->
<svg version="1.1" id="Layer_1" xmlns="http://www.w3.org/2000/svg" xmlns:xlink="http://www.w3.org/1999/xlink" x="0px" y="0px"
	 viewBox="0 0 64 64" style="enable-background:new 0 0 64 64;" xml:space="preserve">
<style type="text/css">
	.st0{display:none;}
	.st1{display:inline;fill:#93581C;}
	.st2{display:inline;fill:#C4BC2C;}
	.st3{fill:#B8B12E;}
	.st4{fill:#081B21;}
</style>
<g class="st0">
	<circle class="st1" cx="32" cy="32" r="28.9"/>
</g>
<g class="st0">
	<path class="st2" d="M47.2,13.6L19.6,6.4l0,0c-2.1-0.6-4.1-0.5-5.7,0.6c-6.2,4.3-5.8,12.8-1.1,16.9l1.6,0.1
		C11,17.7,11.2,11.1,15,8.8c3.9-2.3,10.2,0.9,13.9,7.2c0.9,1.5,1.6,3.1,2,4.6c0.7,2.3,2.6,3.9,5,4l14.2,0.5c1.6,0.1,3-1.7,3-3.7
		v-1.9C53.1,17.1,50.8,14.6,47.2,13.6z"/>
	<path class="st2" d="M22,21.9c0-2.6,1.1-4.9,2.8-6.2c-1.3-1.6-2.7-2.8-4.1-3.6C18.5,14,17,17.2,17,20.9c0,5.9,3.7,10.6,8.3,10.6
		c2,0,3.7-0.9,5.1-2.4h-2.7C24.6,29.2,22,25.9,22,21.9z"/>
	<path class="st2" d="M33.2,25.7c-1.4,3.8-4.4,6.5-7.8,6.5l0,0c-4.8,0-8.8-5-8.8-11.3c0-3.8,1.4-7.1,3.6-9.1
		c-0.8-0.4-1.6-0.6-2.3-0.6c-0.1,0-0.1,0-0.2,0c-1.9,2.5-3.1,5.9-3.1,9.7c0,7.6,4.8,13.8,10.7,13.8l0,0l0,0h15.9
		c4.2,0,7.7-3.4,7.7-7.7v-1.3C48.9,25.7,33.2,25.7,33.2,25.7z"/>
	<path class="st2" d="M37.2,39.1c0-0.4-0.2-0.7-0.4-0.9c0.6-1.2,1.3-2.1,2-2.9h-7c-0.8,1-1.8,2.5-2.5,4.8l0,0l0,0c0,0.1,0,0.2,0,0.2
		h5.2c-0.9,1.3-1.2,2.7-1.2,5.3h-3c0-1.8,0.2-3.3,0.6-4.7h-1.7c-0.4,1.8-0.6,4.5-0.6,6.2v0.8h0.6c3.5,0,13.6-0.1,19.7,3.2v-8.3
		c-3.9-1.4-8.1-2-11.8-2.3C37.2,40,37.2,39.5,37.2,39.1z"/>
	<path class="st2" d="M39.5,37.7V40c3.6,0.4,6.8,1.1,9.6,2.1l0.4,0.1v9.6h-9.6l6.9,6.2l7.4-6.5V37.7H39.5z"/>
	<path class="st2" d="M48.8,30.1c0.1,0,0.2,0.1,0.3,0.1c1.3,0.3,3.6,0.9,3.5,1.9c0,0.7-0.1,0.8-1.7,0.9c-0.9,0-1.9,0.1-2.8,0.6
		c-1.5,1-1.9,2.4-2.1,3.7h2.2c0.1-0.8,0.3-1.4,1.1-1.9c0.4-0.2,1-0.3,1.7-0.3c1.2,0,3.6-0.1,3.8-2.9c0.2-2.7-3-3.5-5.1-4.1
		c-0.1,0-0.2-0.1-0.4-0.1C49.3,28.7,49.1,29.4,48.8,30.1z"/>
</g>
<g>
	<polygon class="st3" points="29,61.9 11.5,44.4 19,37 29,47 54.4,21.6 61.9,29 	"/>
	<path class="st4" d="M54.4,21.6l7.4,7.4L29,61.9L11.5,44.4L19,37l10,10L54.4,21.6 M54.4,19.5L29,44.9L19,34.8l-9.6,9.6L29,64l35-35
		L54.4,19.5L54.4,19.5z"/>
</g>
</svg>
