<?xml version="1.0" encoding="utf-8"?>
<!-- Generator: Adobe Illustrator 21.0.1, SVG Export Plug-In . SVG Version: 6.00 Build 0)  -->
<svg version="1.1" id="Layer_1" xmlns="http://www.w3.org/2000/svg" xmlns:xlink="http://www.w3.org/1999/xlink" x="0px" y="0px"
	 viewBox="0 0 64 64" style="enable-background:new 0 0 64 64;" xml:space="preserve">
<style type="text/css">
	.st0{fill:#555556;}
	.st1{fill:#C8CAC9;}
</style>
<g>
	<circle class="st0" cx="32" cy="32.8" r="28.9"/>
</g>
<rect x="10.1" y="10.1" class="st1" width="43.8" height="43.8"/>
<g>
	<g>
		<g>
			<path class="st0" d="M41.7,29.7c-0.9-0.6-1.4-1-2.3-1.6c-0.3-0.2-0.8-0.1-1.1,0.3c-0.8,1.1-1.1,1.7-1.8,2.7
				c-0.2,0.3-0.1,0.8,0.3,1.1c1,0.7,1.6,1,2.6,1.6c0.4,0.2,0.9,0.1,1.1-0.2c0.6-1,0.9-1.6,1.5-2.7C42.1,30.5,42,29.9,41.7,29.7z"/>
			<path class="st0" d="M35.9,39c-1.1-0.6-1.7-0.9-2.7-1.6c-0.4-0.3-0.9-0.2-1.1,0.2c-0.7,1.1-1.2,1.7-1.9,2.7
				c-0.2,0.3-0.1,0.8,0.3,1c1.1,0.6,1.6,0.9,2.7,1.4c0.4,0.2,1,0.1,1.2-0.2c0.7-0.9,1.1-1.4,1.8-2.4C36.5,39.7,36.4,39.2,35.9,39z"
				/>
			<path class="st0" d="M32.7,43.3c-1.1-0.5-1.7-0.8-2.7-1.4c-0.4-0.2-0.9-0.2-1.1,0.1c-0.6,0.8-0.8,1.2-1.4,1.9
				c-0.2,0.3-0.1,0.6,0.3,0.9c0.9,0.6,1.4,0.9,2.4,1.4c0.4,0.2,0.9,0.1,1.1-0.1c0.7-0.7,1.1-1.1,1.8-1.9
				C33.2,43.9,33.1,43.5,32.7,43.3z"/>
			<path class="st0" d="M29.6,46.8c-0.9-0.5-1.4-0.8-2.3-1.3c-0.3-0.2-0.7-0.2-0.9,0.1c-0.6,0.8-0.9,1.2-1.6,2.2
				c-0.2,0.3-0.2,0.8,0,0.9c0.7,0.5,1.1,0.7,1.9,1c0.3,0.1,0.8,0,1.1-0.3c0.9-0.8,1.3-1.2,2-1.9C30,47.3,29.9,47,29.6,46.8z"/>
			<path class="st0" d="M37.2,26.6c-0.9-0.7-1.4-1-2.4-1.6c-0.3-0.2-0.9-0.2-1.1,0.1c-0.8,1-1.2,1.4-2,2.3c-0.3,0.3-0.2,0.8,0.2,1.1
				c1,0.8,1.5,1.2,2.5,1.9c0.4,0.3,0.9,0.2,1.1-0.1c0.7-1,1.1-1.5,1.8-2.6C37.6,27.4,37.6,26.9,37.2,26.6z"/>
			<path class="st0" d="M33.9,31.3c-1-0.8-1.5-1.1-2.5-1.9c-0.4-0.3-0.9-0.3-1.1,0c-0.7,0.9-1,1.4-1.7,2.3c-0.2,0.3-0.1,0.8,0.3,1.2
				c1,0.8,1.5,1.2,2.6,2c0.4,0.3,0.9,0.2,1.1-0.1c0.7-1,1-1.4,1.7-2.4C34.4,32,34.2,31.6,33.9,31.3z"/>
			<path class="st0" d="M30.8,35.7c-1.1-0.8-1.6-1.2-2.6-2c-0.4-0.3-0.8-0.3-1.1,0c-0.7,1-1,1.6-1.6,2.6c-0.2,0.3-0.1,0.9,0.2,1.2
				c0.9,0.9,1.4,1.3,2.3,2.1c0.4,0.3,0.8,0.3,1.1-0.1c0.7-1,1.1-1.6,1.8-2.7C31.3,36.5,31.2,36,30.8,35.7z"/>
			<path class="st0" d="M27.7,40.3c-1-0.8-1.4-1.2-2.3-2.1c-0.3-0.3-0.7-0.3-0.9,0c-0.5,0.9-0.7,1.4-1.2,2.3c-0.1,0.3,0,0.8,0.3,1.1
				c0.8,0.8,1.3,1.1,2.1,1.8c0.3,0.2,0.7,0.2,0.9,0c0.5-0.8,0.8-1.2,1.3-2C28.2,41.1,28,40.6,27.7,40.3z"/>
			<path class="st0" d="M25.3,44.1c-0.9-0.6-1.3-1-2.1-1.7c-0.3-0.3-0.6-0.2-0.8,0.1c-0.4,1-0.6,1.5-1.1,2.6
				c-0.1,0.4-0.1,0.9,0.1,1.1c0.6,0.6,1,0.9,1.7,1.4c0.3,0.2,0.7,0,0.9-0.3c0.7-1,1-1.5,1.5-2.3C25.8,44.7,25.7,44.3,25.3,44.1z"/>
			<path class="st0" d="M38.9,34.5c-1.1-0.6-1.6-1-2.7-1.6c-0.4-0.3-0.9-0.2-1.1,0.1c-0.6,1-1,1.4-1.6,2.4c-0.2,0.3-0.1,0.8,0.3,1.1
				c1.1,0.7,1.6,1,2.7,1.7c0.4,0.2,0.9,0.1,1.2-0.2c0.7-1,1-1.4,1.6-2.4C39.5,35.2,39.3,34.8,38.9,34.5z"/>
			<path class="st0" d="M40,40.9c-0.6-0.2-0.9-0.3-1.5-0.6c-0.4-0.2-0.9-0.1-1.2,0.2c-0.7,1-1.1,1.5-1.8,2.3
				c-0.2,0.3-0.1,0.6,0.3,0.8c0.6,0.2,0.9,0.3,1.5,0.4c0.5,0.1,1,0,1.3-0.3c0.7-0.8,1.1-1.2,1.8-2.1C40.7,41.4,40.5,41,40,40.9z"/>
			<path class="st0" d="M44.9,31.9c-0.5-0.3-0.7-0.5-1.1-0.8c-0.3-0.2-0.7-0.1-0.9,0.3c-0.5,1.1-0.8,1.6-1.4,2.7
				c-0.2,0.3,0,0.8,0.4,1c0.5,0.3,0.8,0.4,1.3,0.7c0.4,0.2,0.9,0.1,1-0.2c0.5-1,0.7-1.5,1.1-2.6C45.4,32.7,45.2,32.2,44.9,31.9z"/>
			<path class="st0" d="M42.7,36.6c-0.6-0.3-0.8-0.4-1.4-0.7c-0.4-0.2-0.9-0.1-1.1,0.2c-0.6,1-0.9,1.5-1.5,2.4
				c-0.2,0.3-0.1,0.7,0.4,0.9c0.6,0.3,0.9,0.4,1.5,0.6c0.4,0.2,1,0.1,1.2-0.2c0.6-0.9,0.9-1.4,1.4-2.3
				C43.3,37.2,43.1,36.8,42.7,36.6z"/>
			<path class="st0" d="M36.8,44.7c-0.6-0.2-0.9-0.2-1.5-0.4c-0.4-0.1-1,0-1.2,0.2c-0.7,0.8-1.1,1.2-1.8,1.9
				c-0.3,0.2-0.2,0.6,0.2,0.7c0.5,0.2,0.8,0.3,1.3,0.4c0.4,0.1,1,0,1.3-0.3c0.9-0.7,1.3-1.1,2.1-1.9C37.4,45.1,37.2,44.8,36.8,44.7z
				"/>
			<path class="st0" d="M33,48.1c-0.5-0.1-0.8-0.2-1.3-0.4c-0.4-0.1-0.9,0-1.1,0.2c-0.8,0.7-1.2,1.1-2.1,1.9c-0.3,0.3-0.3,0.5,0,0.6
				c0.4,0.1,0.6,0.2,1.1,0.2c0.3,0,0.9-0.1,1.2-0.3c1-0.6,1.5-1,2.4-1.6C33.5,48.5,33.4,48.2,33,48.1z"/>
			<path class="st0" d="M26.1,31.7c-0.4-0.4-0.6-0.7-1-1.1c-0.3-0.3-0.7-0.4-0.9-0.1c-0.6,0.9-0.8,1.4-1.3,2.4
				c-0.2,0.3-0.1,0.9,0.2,1.3c0.3,0.5,0.5,0.7,0.9,1.2c0.3,0.3,0.7,0.4,0.9,0c0.6-1,0.9-1.5,1.5-2.5C26.5,32.5,26.4,32,26.1,31.7z"
				/>
			<path class="st0" d="M32.7,23.6c-0.4-0.3-0.7-0.5-1.1-0.8c-0.3-0.2-0.8-0.2-1.1,0.1c-0.8,0.7-1.2,1.1-2,1.9
				c-0.3,0.3-0.2,0.7,0.1,1c0.4,0.4,0.7,0.6,1.1,1c0.3,0.3,0.8,0.3,1.1,0c0.8-0.9,1.2-1.3,2-2.2C33.1,24.2,33.1,23.8,32.7,23.6z"/>
			<path class="st0" d="M29.2,27.5c-0.4-0.4-0.7-0.6-1.1-1c-0.3-0.3-0.8-0.3-1,0c-0.7,0.8-1,1.3-1.7,2.2c-0.2,0.3-0.1,0.8,0.2,1.2
				c0.4,0.5,0.6,0.7,1.1,1.1c0.3,0.3,0.8,0.3,1,0c0.7-0.9,1-1.4,1.7-2.3C29.6,28.3,29.5,27.8,29.2,27.5z"/>
			<path class="st0" d="M23.5,36.2c-0.4-0.5-0.6-0.7-0.9-1.2c-0.3-0.4-0.6-0.4-0.7,0c-0.4,1-0.6,1.5-1,2.6c-0.1,0.4,0,0.9,0.2,1.2
				c0.3,0.4,0.5,0.6,0.8,1c0.2,0.3,0.6,0.3,0.7-0.1c0.4-1,0.6-1.4,1.1-2.4C23.9,37.1,23.8,36.5,23.5,36.2z"/>
			<path class="st0" d="M21.6,40.7c-0.3-0.4-0.5-0.6-0.8-1c-0.2-0.3-0.5-0.3-0.6,0.1c-0.3,1.1-0.4,1.7-0.7,2.9
				c-0.1,0.4,0,0.9,0.1,1.2c0.2,0.4,0.3,0.5,0.6,0.9c0.2,0.2,0.4,0.1,0.6-0.2c0.4-1.1,0.6-1.6,1-2.7C21.9,41.5,21.8,41,21.6,40.7z"
				/>
		</g>
	</g>
	<path class="st0" d="M45.1,28.6l-0.2-4.4l2.4-0.3l1.2-1.8l-2.1-1.5l0.3-0.4l-8.2-5.7l-2,1.4l-0.2-0.3l-0.8,0.6l-0.4-0.6
		c0,0-6.1,4.3-7.9,6c-1.6,1.6-4.2,5.3-5.5,7.2c-0.7,1.1-2.4,3.9-3.1,5.1c-0.2,0.3-0.1,0.7,0.2,0.8l0.2,0.1c0.3,0.2,0.7,0.1,0.9-0.2
		c0.7-1.2,2.3-4,3-5c1.3-1.9,3.8-5.5,5.4-7.1c1.4-1.4,6.2-4.7,6.2-4.7l2.2,1.5l-3.5,3c-0.2,0.1-0.2,0.4,0,0.5l11.2,7.7
		c0.2,0.1,0.4,0.1,0.5-0.1l0.5-0.8L45.1,28.6z"/>
	<path class="st0" d="M35.8,13.6c-2.3-1.6-5.4-1-6.9,1.3c-1.6,2.3-1,5.4,1.3,6.9c2.3,1.6,5.4,1,6.9-1.3S38.1,15.1,35.8,13.6z
		 M30.7,21c-1.8-1.3-2.3-3.8-1-5.7s3.8-2.3,5.7-1c1.8,1.3,2.3,3.8,1,5.7C35.1,21.8,32.5,22.3,30.7,21z"/>
</g>
</svg>
