<?xml version="1.0" encoding="utf-8"?>
<!-- Generator: Adobe Illustrator 21.0.1, SVG Export Plug-In . SVG Version: 6.00 Build 0)  -->
<svg version="1.1" id="Layer_1" xmlns="http://www.w3.org/2000/svg" xmlns:xlink="http://www.w3.org/1999/xlink" x="0px" y="0px"
	 viewBox="0 0 64 64" style="enable-background:new 0 0 64 64;" xml:space="preserve">
<style type="text/css">
	.st0{fill:#4E5468;}
	.st1{fill:#C7CBD7;}
</style>
<circle class="st0" cx="32" cy="32" r="28.9"/>
<rect x="10.1" y="10.1" class="st1" width="43.8" height="43.8"/>
<path class="st0" d="M50,20.4L39.1,45.1c-0.1,0.3-0.3,0.3-0.6,0.3H17c0,0-0.9-0.3-0.9-1.3c0-1.4,0.8-1.5,0.8-1.5s16,0.1,20,0.2
	c0.3,0,0.3,0.9,0,0.9c-3.5-0.1-19.3-0.1-19.3-0.1s-0.6,0-0.5,0.5c0,0.3,0.5,0.4,0.5,0.4h20c0.3,0,0.4-0.1,0.5-0.3l11.5-24.8l-0.4-1
	c-0.3-0.8-1-1.2-1.9-1.2L27.9,17c-0.7,0-1.3,0.3-1.6,0.9L13.7,41.7c-0.4,0.8-0.3,1.6,0.1,2.3l1.4,2.2c0.3,0.5,0.9,0.9,1.6,0.9h21.6
	c0.9,0,1.5-0.5,1.9-1.2l10.1-23c0.3-0.6,0.3-1.2,0-1.8L50,20.4z"/>
</svg>
