<?xml version="1.0" encoding="utf-8"?>
<!-- Generator: Adobe Illustrator 21.0.1, SVG Export Plug-In . SVG Version: 6.00 Build 0)  -->
<svg version="1.1" id="Layer_1" xmlns="http://www.w3.org/2000/svg" xmlns:xlink="http://www.w3.org/1999/xlink" x="0px" y="0px"
	 viewBox="0 0 64 64" style="enable-background:new 0 0 64 64;" xml:space="preserve">
<style type="text/css">
	.st0{fill:#93581C;}
	.st1{fill:#C8CAC9;}
</style>
<g>
	<circle class="st0" cx="32" cy="32" r="28.9"/>
</g>
<rect x="10.1" y="10.1" class="st1" width="43.8" height="43.8"/>
<path class="st0" d="M46.8,17.5v2.9H43v-3h-1.5v3h-4.9v-3h-9.3v3h-4.9v-3H21v3h-3.8v-2.9c-1.4,0.1-2.5,1.2-2.5,2.6v23.7
	c0,1.5,1.2,2.7,2.7,2.7h4v-2.3h21.3v2.3h4c1.5,0,2.7-1.2,2.7-2.7V20.2C49.4,18.7,48.3,17.6,46.8,17.5z M32,37.6
	c-0.7,0-6.5-2.9-6.5-6.5c0-1.7,0.7-3.4,1.9-4.6c0,0,1.3,5.5,4.5,5.5s4.7-5.4,4.7-5.4c1.1,1.2,1.8,2.8,1.8,4.4
	C38.5,34.7,32.5,37.6,32,37.6z"/>
</svg>
