<?xml version="1.0" encoding="utf-8"?>
<!-- Generator: Adobe Illustrator 21.0.1, SVG Export Plug-In . SVG Version: 6.00 Build 0)  -->
<svg version="1.1" id="Layer_1" xmlns="http://www.w3.org/2000/svg" xmlns:xlink="http://www.w3.org/1999/xlink" x="0px" y="0px"
	 viewBox="0 0 64 64" style="enable-background:new 0 0 64 64;" xml:space="preserve">
<style type="text/css">
	.st0{fill:#3A508E;}
	.st1{fill:#C8CAC9;}
</style>
<g>
	<circle class="st0" cx="32" cy="32" r="28.9"/>
</g>
<rect x="10.1" y="10.1" class="st1" width="43.8" height="43.8"/>
<path class="st0" d="M45.5,28.2c-0.2-0.5,0-1,0.5-1.3l0.9-0.4c0.2-0.1,0.4-0.3,0.6-0.5c0,0,0.3-0.4,0.4-0.6c0.1-0.2,0.1-0.5-0.1-0.6
	c-0.1-0.1-3.1-2.3-6.1-4.5c0.1-0.1,0.1-0.1,0.1-0.2c0.6-0.8,1.3-1.6,2-2.1c0.2-0.1,0.4-0.3,0.6-0.4c0,0,0.1-0.1,0.1-0.1l0.2-0.3
	c0.9-1.3,0.7-3.1-0.6-4c-1.3-0.9-3.1-0.7-4,0.6l-0.2,0.2c0,0,0,0.1,0,0.1c-0.1,0.3-0.2,0.6-0.3,0.9c-0.3,0.8-0.8,1.6-1.4,2.5
	c-0.1,0.1-0.1,0.1-0.2,0.2c-1.4-1-2.3-1.7-2.4-1.8c-0.2-0.2-0.4-0.1-0.6,0.1c-0.1,0.2-0.4,0.6-0.4,0.6c-0.2,0.2-0.3,0.5-0.3,0.8
	l-0.1,0.9c-0.1,0.6-0.6,1-1.1,0.9c-1.2-0.2-2.4,0.2-3.2,1.3L24.5,28l-5.7,7.6c-0.8,1-0.8,2.3-0.3,3.4c0.2,0.5,0,1-0.5,1.3l-0.9,0.4
	c-0.2,0.1-0.4,0.3-0.6,0.5c0,0-0.3,0.4-0.5,0.6c-0.1,0.2-0.1,0.4,0.1,0.5c0.2,0.1,12,8.9,12.1,9c0.1,0.1,0.5,0,0.6-0.1
	c0.1-0.1,0.4-0.6,0.4-0.6c0.2-0.2,0.3-0.5,0.3-0.8l0.1-0.9c0.1-0.6,0.6-1,1.1-0.9c1.2,0.2,2.4-0.2,3.2-1.3l5.7-7.6l5.7-7.6
	C46,30.6,46.1,29.3,45.5,28.2z M43.5,14.3c0.6,0.4,0.7,1.3,0.3,1.9c-0.4,0.6-1.3,0.7-1.9,0.3s-0.7-1.3-0.3-1.9
	C42,14,42.9,13.9,43.5,14.3z"/>
</svg>
