<?xml version="1.0" encoding="utf-8"?>
<!-- Generator: Adobe Illustrator 21.0.1, SVG Export Plug-In . SVG Version: 6.00 Build 0)  -->
<svg version="1.1" id="Layer_1" xmlns="http://www.w3.org/2000/svg" xmlns:xlink="http://www.w3.org/1999/xlink" x="0px" y="0px"
	 viewBox="0 0 64 64" style="enable-background:new 0 0 64 64;" xml:space="preserve">
<style type="text/css">
	.st0{fill:#93581C;}
	.st1{fill:#C8CAC9;}
</style>
<g>
	<circle class="st0" cx="32" cy="32" r="28.9"/>
</g>
<rect x="10.1" y="10.1" class="st1" width="43.8" height="43.8"/>
<g>
	<path class="st0" d="M43.2,46c-0.4,0.2-0.7,0.4-1.1,0.6c0.2,0.3,0.3,0.6,0.5,0.9c-0.1,0.1-4.3,2.5-4.5,2.6
		c-0.1-0.2-0.2-0.4-0.4-0.7c-0.1,0-0.1,0.1-0.2,0.1c-0.7,0.4-1.4,0.8-2.1,1.2C35.3,50.9,35,51,34.7,51c-0.4,0-0.8-0.1-1.1-0.4
		c-0.2-0.2-0.4-0.4-0.6-0.6c-0.6-0.9-1.1-1.8-1.4-2.8c-0.5-1.5-0.9-3.1-1.2-4.6c0-0.2-0.1-0.3-0.2-0.4c-0.5-1.2-1.1-2.3-1.6-3.5
		c-0.2-0.5-0.4-0.9-0.6-1.4c0-0.1-0.1-0.1-0.1-0.2c-0.1,0-0.2,0-0.2,0c-3.3,0.1-6.6,0.3-9.8,0.4c-0.1,0-0.3,0-0.4,0.1
		c-0.6,0.4-1.3,0.7-1.9,1.1c-0.1,0-0.1,0.1-0.2,0.1c-0.1-0.1-0.1-0.1-0.1-0.2c-1-1.6-1.9-3.3-2.9-4.9c-0.3-0.6-0.7-1.2-1-1.8
		c-0.1-0.1-0.1-0.2,0-0.3c0.2-0.6,0.4-1.1,0.6-1.7c0-0.1,0.1-0.2,0.2-0.2c0.6-0.3,1.2-0.7,1.8-1c0.2-0.1,0.4-0.2,0.6-0.2
		c0.4-0.1,0.7,0,1,0.2c0.3,0.3,0.5,0.6,0.8,0.9c0.2,0.2,0.3,0.4,0.5,0.6c0.1,0,0.1,0,0.1-0.1c0.3-0.2,0.7-0.4,1-0.6
		c0.1-0.1,0.2-0.1,0.1-0.2c0-0.2,0.1-0.3,0.3-0.4c0.3-0.1,0.6-0.3,0.9-0.5c0.1-0.1,0.2-0.1,0.2-0.2c0.1-0.3,0.2-0.4,0.5-0.6
		c4.9-2.8,9.8-5.6,14.7-8.4c0.2-0.1,0.2-0.2,0.3-0.4c0-0.4,0-0.9,0-1.3c0-0.3-0.1-0.6-0.1-0.8c0-0.2,0-0.3,0.2-0.4
		c0.2-0.1,0.3-0.2,0.5-0.3c0.4,0.7,0.8,1.4,1.2,2.1c0.1-0.1,0.2-0.1,0.2-0.1c0.2-0.1,0.3-0.2,0.5-0.1c0.2,0,0.3,0,0.5,0
		c0.1,0,0.2,0,0.3-0.1c0.4-0.2,0.7-0.4,1.1-0.6c0.1-0.1,0.1-0.1,0.2-0.2c0.1-0.3,0.1-0.6,0-0.9c-0.1-0.4-0.2-0.8-0.2-1.2
		c0-0.2,0-0.4,0-0.7c0-0.2,0.1-0.4,0.3-0.5c0.2-0.1,0.4-0.2,0.6-0.3c0.1,0,0.2-0.1,0.2-0.1c0.4-0.2,0.7-0.1,1.1,0.1
		c0.4,0.3,0.5,0.6,0.7,1c0.2,0.3,0.3,0.6,0.5,0.9c0.1,0,0.2-0.1,0.3-0.1c0.4,0.8,0.9,1.6,1.3,2.3c0.5-0.3,1-0.6,1.5-0.9
		c0.3,0.2,0.5,0.3,0.8,0.5c0.1,0,0.1-0.1,0.2-0.1c0.5-0.3,0.9-0.5,1.4-0.8c0.1-0.1,0.2-0.1,0.3-0.1c0.3,0.1,0.5,0,0.7-0.1
		c0.8-0.5,1.6-0.9,2.4-1.4c0.1,0,0.1-0.1,0.2-0.1c0.4,0.7,0.7,1.3,1.1,2c-0.1,0-0.1,0.1-0.2,0.1c-0.9,0.5-1.7,1-2.6,1.5
		c-0.1,0.1-0.2,0.2-0.2,0.3c0,0.3-0.1,0.4-0.4,0.5c-0.4,0.2-0.8,0.4-1.1,0.6c-0.1,0.1-0.1,0.1-0.1,0.2c0,0.2,0,0.4,0,0.6
		c0,0.2,0,0.3-0.2,0.3c-0.4,0.2-0.8,0.5-1.2,0.7c-0.1,0.1-0.2,0.1-0.3,0.3c0,0,0,0,0,0c-0.1,0.2-0.3,0.5-0.4,0.7
		c-0.2,0.2-0.5,0.3-0.7,0.4c-0.7,0.4-1.5,0.9-2.2,1.3c-0.1,0.1-0.2,0.2-0.2,0.3c-0.2,0.7-0.4,1.3-0.5,2c0,0.1,0,0.2,0,0.4
		c0.8,1.4,1.6,2.8,2.4,4.1c0,0.1,0.1,0.1,0.1,0.2c0,0,0,0.1-0.1,0.1c-0.3,0.5-0.6,0.9-0.9,1.4c-0.1,0.1-0.1,0.1-0.2,0.2
		c-1.2,0.7-2.4,1.4-3.7,2.1c-0.1,0.1-0.2,0.1-0.3,0.1c-0.9,0-1.8,0-2.7,0c-0.1,0-0.1,0-0.3,0C39,38.7,41.1,42.3,43.2,46z M36.5,30.7
		C36.4,30.7,36.4,30.7,36.5,30.7c-0.4,0.2-0.8,0.4-1.2,0.7c0,0-0.1,0.1-0.1,0.1c0,0.1,0,0.1-0.1,0.2c0,0.1,0,0.2,0,0.3
		c0.4,0.7,0.9,1.5,1.3,2.2c0,0.1,0.1,0.1,0.2,0.1c1,0,2.1,0,3.1,0c0.1,0,0.2,0,0.2-0.1c1.1-0.6,2.2-1.3,3.3-1.9
		c0.1,0,0.1-0.1,0.1-0.1c0.3-0.4,0.5-0.7,0.8-1.1c-0.7-1.2-1.4-2.5-2.1-3.7c-1.5,0.9-3,1.7-4.5,2.6c0,0.1,0.1,0.3,0.1,0.4
		c0.1,0.3,0.2,0.6,0.3,0.9c0.3,0.5,0.7,1,1.1,1.4c0.1,0.1,0.2,0.2,0.3,0.3c0.1,0.1,0.1,0.2,0.1,0.4c0,0.1-0.1,0.1-0.2,0.1
		c-0.1,0-0.2-0.1-0.3-0.1c-0.5-0.2-0.9-0.5-1.3-0.9c-0.1-0.1-0.2-0.2-0.3-0.3C37.2,31.7,36.8,31.2,36.5,30.7z"/>
</g>
</svg>
