<?xml version="1.0" encoding="utf-8"?>
<!-- Generator: Adobe Illustrator 21.0.1, SVG Export Plug-In . SVG Version: 6.00 Build 0)  -->
<svg version="1.1" id="Layer_1" xmlns="http://www.w3.org/2000/svg" xmlns:xlink="http://www.w3.org/1999/xlink" x="0px" y="0px"
	 viewBox="0 0 64 64" style="enable-background:new 0 0 64 64;" xml:space="preserve">
<style type="text/css">
	.st0{fill:#555556;}
	.st1{fill:#C8CAC9;}
</style>
<g>
	<g>
		<circle class="st0" cx="32" cy="32" r="28.9"/>
	</g>
</g>
<rect x="10.1" y="10.1" class="st1" width="43.8" height="43.8"/>
<g>
	<path class="st0" d="M25.7,28.3c-0.2-1.1-1.6-7-3.1-9.7c-0.6,0.7-1.1,1.6-1.6,2.6c-1.2,2.6-0.4,7.4,0.2,9.1
		C22.2,29.8,24.1,28.8,25.7,28.3z"/>
	<path class="st0" d="M23,18.3c1.8,2.8,3,9,3.2,9.9c2.1-0.4,7.6-0.4,9.5,0.2c0.1,0,0.1,0,0.2,0.1c0.2-1.3,1.4-7.1,3.2-9.8
		c0.1-0.2,0.2-0.3,0.3-0.5c-0.8-0.6-2-1.3-2.5-1.7c-0.2-0.1-0.3-0.2-0.5-0.2c-2.9-0.2-9.4,0-11,0.5C24.6,17,23.8,17.5,23,18.3
		L23,18.3z M31.1,18.8c1.5,0,2.5,1.1,2.5,1.1l-0.3,0.3c0,0-0.9-1-2.2-0.9c-1.3,0-2.3,1.1-2.3,1.1l-0.3-0.2
		C28.5,20.1,29.6,18.8,31.1,18.8z"/>
	<path class="st0" d="M20.2,46c-0.5-2.4-0.5-8.3-0.1-12c-0.9,0-1.8,0.2-2.6,0.4c-2,0.6-1.1,2-2,3.6s-1.2,7.9-0.9,9.1
		c0.2,1.2,1.2,2,2.8,2c1,0,2.3-0.2,3.5-0.6C20.7,47.9,20.4,47.1,20.2,46z"/>
	<path class="st0" d="M39.8,18.6c-0.1,0.2-0.2,0.3-0.3,0.5c-1.5,2.6-2.8,8.4-3.1,9.6c2,0.8,5,2.3,6,3.2l0,0c0.2-0.1,0.3-0.2,0.3-0.2
		c0.4-0.6,0.2-4,0.2-5.4s-0.9-5-1.3-6.1c0-0.1-0.1-0.1-0.1-0.2C41.1,19.6,40.5,19.1,39.8,18.6C39.9,18.6,39.8,18.6,39.8,18.6z"/>
	<path class="st0" d="M26.6,47.2c0.1-0.1,0.1-0.2,0.1-0.3l0.2-12.8c0-0.2,0-0.2-0.1-0.4l-3-4.1c-0.9,0.3-1.7,0.7-2.1,1l0,0
		c-0.2,0.2-0.3,0.6-0.5,0.7c-0.2,0.2-0.2,1-0.4,2c0,0.1,0,0.1,0,0.1c-0.1,0.8-0.8,8.6,0.1,12.4c0.3,1.2,0.6,2,0.7,2.5l0,0
		c0.6,0.8,1.3,1.5,2,1.7c0.1,0.1,0.4,0.1,0.7,0.2L26.6,47.2z"/>
	<path class="st0" d="M43.1,46.2c0-0.1,0-0.1,0-0.2l0,0c0.2-2.3-0.3-6.3-0.4-6.5l0,0c-0.2-2.8-0.4-5.7-0.6-7.6
		c-0.6-0.6-1.7-1.3-2.8-1.7l-2.5,3.7c-0.1,0.2-0.2,0.2-0.2,0.4L36.8,47c0,0.2,0.1,0.2,0.2,0.4l2.3,3.1c1.3-0.1,2.1-0.2,2.2-0.2
		c0.7-0.5,1.3-1.7,1.7-3.2C43.1,46.8,43.1,46.5,43.1,46.2z"/>
	<path class="st0" d="M48.3,23.6c-0.2-2-2.4-7.9-3.4-8.7s-3.4-1.7-5.9-1.2c-1.4,0.2-2,1.2-2.4,2.1c0.1,0.1,0.2,0.1,0.2,0.2
		c0.6,0.3,2.6,1.7,2.8,1.9c0.5,0.4,1.1,0.9,1.5,1.2c0.2-0.2,0.6-0.9,0.9-1.6c0.4-0.8,0.7-1.4,0.9-1.7c0.2-0.2,0.7-1.1,0.7-1.1
		l0.4,0.2c0,0-0.7,0.9-0.8,1.1s-0.7,1.3-0.9,1.7c-0.1,0.2-0.2,0.4-0.4,0.7c0.4,0.3,1.3,1.2,1.4,1.7c0.2,0.6,1.2,4.3,1.2,5.2
		s0.5,3,0.6,4.7c0.2,1.7,0.2,4.3-0.2,5.7c-0.2,1.4-0.7,3.2-2,3.9c0.2-0.1,0.1-0.1,0.1-0.1c0.3,1.5,0.4,4.6,0.4,6.5
		c0.6-0.2,1.3-0.3,1.7-0.5c1.1-0.4,2-2.9,2.9-4.8c0.9-2,1.3-5.6,1.4-7.4C49.6,31.6,48.5,25.7,48.3,23.6z"/>
	<path class="st0" d="M36.3,47.6c-0.1-0.2-0.2-0.2-0.2-0.4l-0.2-13.1c0-0.2,0.1-0.3,0.2-0.4l2.7-3.5c-1.3-0.6-2.4-0.9-3.2-1.3
		c-1.6-0.6-7.6-0.5-9.4-0.1c-0.6,0.1-1.3,0.3-1.9,0.6l2.9,3.9c0.2,0.2,0.2,0.4,0.2,0.7l-0.2,12.9c0,0.2-0.1,0.2-0.2,0.4l-2.4,3
		c2.9,0.2,9.8,0.3,13.8,0.2L36.3,47.6z"/>
</g>
</svg>
