<?xml version="1.0" encoding="utf-8"?>
<!-- Generator: Adobe Illustrator 21.0.1, SVG Export Plug-In . SVG Version: 6.00 Build 0)  -->
<svg version="1.1" id="Layer_1" xmlns="http://www.w3.org/2000/svg" xmlns:xlink="http://www.w3.org/1999/xlink" x="0px" y="0px"
	 viewBox="0 0 64 64" style="enable-background:new 0 0 64 64;" xml:space="preserve">
<style type="text/css">
	.st0{fill:#207E70;}
	.st1{fill:#C8CAC9;}
</style>
<g>
	<circle class="st0" cx="32" cy="32" r="28.9"/>
</g>
<rect x="10.1" y="10.1" class="st1" width="43.8" height="43.8"/>
<g>
	<path class="st0" d="M15.3,42.9c0,1.3-0.2,3.5,0,4.4c0.9,0.2,4.1,0.3,5,0c0.1-1.1,0.1-2.8,0-4.3C19.2,42.7,16.6,43,15.3,42.9z"/>
	<path class="st0" d="M27.5,22.2c-0.6-0.5-1.1-2.5-1.1-4.4c-2.7-0.2-4.7,0.9-6.4,1.5c-3,5.4-4.7,18.5-4.7,23.2
		c0.5,0.3,5.6,0.3,6.2-0.1c0.2-3.7,1.3-6.8,2.3-12.1c0.4,3.8-0.3,9.2-0.6,13.8c1,1,4.1,2.4,6.9,2.8c0.2-7.5,0.2-24.1,0.2-27.6
		L27.5,22.2z"/>
	<path class="st0" d="M23,47.8c0.8,1,3.9,2.4,6.7,2.7c0.1-0.2,0.1-1.5,0.1-3.3c-2.7-0.6-5.5-1.9-6.6-2.7C23,45.6,23,46.7,23,47.8z"
		/>
	<path class="st0" d="M48.7,42.9c-1.4,0.2-4-0.2-5,0.2c-0.1,1.4,0,3.1,0,4.3c0.9,0.3,4.1,0.2,5,0C49,46.4,48.7,44.1,48.7,42.9z"/>
	<path class="st0" d="M33.8,18.6l2.7,2.6c1.1-0.9,1.7-6.4,0.1-7.5c-0.2-0.2-2.7-0.2-4.1-0.2l0,0c0,0-0.2,0-0.5,0c-0.2,0-0.5,0-0.5,0
		l0,0c-1.4,0-3.9,0.1-4.2,0.2c-1.6,1-1,6.6,0.1,7.5l2.7-2.6c0,0-1.4-2.4-1.6-2.9c1.4,0,2.4,0,3,0c0.9,0,0.9,0,0.9,0c0.6,0,1.4,0,3,0
		C35.1,16.2,33.8,18.6,33.8,18.6z"/>
	<path class="st0" d="M48.7,42.5c0-4.6-1.8-17.8-4.7-23.2c-1.5-0.6-3.5-1.8-6.4-1.5c-0.1,1.9-0.6,3.9-1.1,4.4l-2.7-2.9
		c0,3.5,0,20,0.2,27.6c2.8-0.4,5.9-1.8,6.9-2.8c-0.3-4.5-1-10-0.6-13.8c1,5.4,2.1,8.4,2.3,12.1C43.1,42.7,48.2,42.8,48.7,42.5z"/>
	<path class="st0" d="M34.2,47.2c0.1,1.8,0,3.1,0.1,3.3c2.8-0.3,5.8-1.7,6.7-2.7c0-1-0.1-2.1-0.1-3.3C39.8,45.3,37,46.6,34.2,47.2z"
		/>
</g>
</svg>
