<?xml version="1.0" encoding="utf-8"?>
<!-- Generator: Adobe Illustrator 21.0.1, SVG Export Plug-In . SVG Version: 6.00 Build 0)  -->
<svg version="1.1" id="Layer_1" xmlns="http://www.w3.org/2000/svg" xmlns:xlink="http://www.w3.org/1999/xlink" x="0px" y="0px"
	 viewBox="0 0 64 64" style="enable-background:new 0 0 64 64;" xml:space="preserve">
<style type="text/css">
	.st0{fill:#C7CBD7;}
</style>
<g>
	<path class="st0" d="M40.5-61.3c2.6,0,5,0,7.6,0c0-1.3,0-2.4,0-3.7c-1.2,0-2.4,0-3.8,0c-0.4,0.7-0.8,1.5-1.2,2.4
		c-0.8-0.4-1.4-0.7-2.2-1.1c0.7-1.3,1.3-2.5,1.9-3.7c4.4,0,8.8,0,13.2,0c0.6,1.2,1.2,2.4,1.8,3.8c-0.7,0.3-1.4,0.7-2.2,1
		c-0.4-0.8-0.9-1.6-1.3-2.4c-1.2,0-2.4,0-3.7,0c0,3.1,0,6.1,0,9.3c0.6,0,1.2,0.1,2,0.1c-0.3,0.6-0.6,1.1-1,1.7c0.3,0.5,0.6,1,1,1.7
		c-0.8,0-1.4,0.1-2.1,0.1c-0.4,0.5-0.7,1-1.2,1.6c-0.4-0.6-0.8-1.1-1.2-1.7c-0.6,0-1.3,0-2.1,0c0.4-0.7,0.7-1.2,1-1.7
		c-0.3-0.5-0.6-1-0.9-1.6c0.7-0.1,1.2-0.1,1.8-0.2c0-1,0-1.9,0-2.9c-2,0-4,0-6.1,0c-0.8,1.5-1.5,3.1-2.4,4.8
		c3.3,1.6,6.6,3.2,9.9,4.9c3.3-1.6,6.6-3.2,9.9-4.8c-0.8-1.7-1.6-3.3-2.4-5c-1.6,0-3.2,0-4.9,0c0-0.9,0-1.6,0-2.4c2.1,0,4.2,0,6.5,0
		c1.4,2.8,2.8,5.6,4.2,8.5c-4.5,2.2-8.9,4.3-13.3,6.4c-4.3-2.1-8.6-4.2-13.1-6.4C37.7-55.6,39-58.4,40.5-61.3z"/>
	<path class="st0" d="M4.7-60.8C5.4-61,6-61.2,6.5-61.4c-2.5-0.4-3.3-0.7-4.1-1.5c1.5,0,3.1,0,4.9,0c0.2-0.6,0.4-1.1,0.6-1.5
		c-0.1-0.1-0.2-0.2-0.3-0.3c-0.9,1.1-2.1,1.4-3.3,1c-1.2-0.4-2.2-1.2-3.3-1.8c0-0.1,0.1-0.3,0.1-0.4c2.1,0,4.1,0,6.4,0
		c-0.6-0.5-1.2-1-1.9-1.5c2-0.5,3.9,0.1,5.9,0.4c0.3,0.3,0.5,0.7,0.8,1.1c-0.5,0.3-0.8,0.5-1.4,0.8c0.8,0.5,1.4,0.8,2.1,1.2
		c0.4-0.2,0.8-0.4,1.1-0.5c-0.2-0.5-0.3-1-0.5-1.4c0,0,0.1,0,0.1-0.1c-0.4-0.3-0.7-0.6-1.1-1c0-0.1,0.1-0.1,0.1-0.2
		c0.3,0.1,0.5,0.3,0.8,0.4c0.7,0.2,1.3,0.4,2,0.6c0.7,0.2,1.4,0.3,2.1,0.6c0.7,0.2,1.4,0.5,2.1,0.8c0.4,0.2,0.7,0.5,1.1,0.7
		c-0.1,0.1-0.1,0.2-0.2,0.3c-1.2-0.3-2.4-0.5-3.5-0.8c0-0.1,0-0.2,0-0.2c-0.3,0.1-0.6,0.1-0.9,0.2c-0.1-0.2-0.1-0.4-0.2-0.6
		c-0.5,0.1-0.9,0.3-1.5,0.4c-0.1,0.5-0.2,0.9-0.3,1.4c-0.9,0.6-3.8,0.8-4.9,0.3c0.5,1.7,2,2.4,3.5,1.6c0.6-0.3,1.1-0.6,1.8-0.9
		c0.4,0.3,0.7,0.7,1.3,1.2c-2.3,0.7-3.2,2.3-3.4,4.4c-0.1,1.4,0.6,2.3,2.2,3.6c0.6,0,1.2-0.1,2.1-0.1c-0.3,0.8-0.5,1.5-0.7,2
		c-1.1,0.2-1.8-0.2-2.3-1c-0.7-1.3-1.5-2.6-2.1-4c-0.3-0.7-0.1-1.6-0.2-2.4c-1.3,1.3-1.4,1.7-0.7,4.8c-0.4-0.1-0.7-0.1-1-0.2
		c0.2,0.9,0.4,1.7,0.6,2.8c-0.7-0.2-1.1-0.4-1.6-0.5c0,0.6,0,1.1,0,1.7c-0.5-0.2-1-0.4-1.6-0.7c0.1,0.7,0.2,1.2,0.1,1.7
		c0,0.5-0.2,1.1-0.3,1.7c-4.7-2.6-9-5.5-10.4-10.9c-0.4-1.3-0.4-2.7-0.6-4.1c1.1-0.8,2.1-1.4,3-2.1c1.1,1.1,1.8,2.2,2,3.7
		c0.1,0.8,0.5,1.7,0.9,2.5c0.9,1.9,2.4,3,4.5,3.1c0.7,0,1.4,0,2.2,0c-1.1-0.9-2.1-1.8-3.1-2.7C4.7-58.6,4.5-59.6,4.7-60.8z"/>
	<path class="st0" d="M137.6-35.1c4.5,3.6,8.9,7.1,13.5,10.7c-1.8,0.9-3,2.6-5.1,2.7c-0.6,0-1.2-0.2-1.7-0.5
		c-1.2-0.7-2.4-1.5-3.7-2.3c-0.9,0.6-1.9,1.1-2.9,1.7c-0.9-0.5-1.9-1.1-2.9-1.7c-1.2,0.8-2.5,1.6-3.8,2.4c-1.1,0.7-2.2,0.7-3.2,0
		c-1.1-0.7-2.3-1.5-3.5-2.3C128.7-28,133.1-31.5,137.6-35.1z M139-32.2c-0.5-0.7-0.9-1.3-1.4-2.1c-0.5,0.8-0.9,1.4-1.3,2.1
		c0.5,0.3,1,0.5,1.4,0.8C138.1-31.6,138.5-31.9,139-32.2z"/>
	<path class="st0" d="M-154.6-17.3c-0.2-0.1-0.5-0.2-0.7-0.4c0,0,0,0,0,0c0-0.3,0-0.6,0-1.1c-0.3,0.2-0.4,0.3-0.6,0.5
		c-0.3-0.7-0.7-1.5-1-2.2c-0.1,0-0.1,0-0.2,0c0,0.6,0.1,1.2,0.1,2c-0.3-0.3-0.5-0.4-0.8-0.7c0,0.5,0,0.9,0,1.4
		c-0.2-0.1-0.4-0.1-0.6-0.2c-0.1,0.2-0.2,0.5-0.4,0.9c-0.4-0.2-0.7-0.4-0.9-0.5c0-0.8,0-1.3,0-2c0.3,0.2,0.5,0.4,0.9,0.7
		c0.1-0.7,0.1-1.3,0.2-1.9c-0.9,0.2-1.6,0.3-2.5,0.4c0.3-0.4,0.5-0.7,0.7-1c-1.9,0-3.7,0.3-5-1.6c0.9,0,1.6,0,2.3,0
		c0-0.1,0-0.2,0.1-0.3c-1.1-0.4-2.3-0.8-3.5-1.2c0.3-0.2,0.4-0.3,0.8-0.5c-1.3-0.6-2.5-1.2-3.3-2.5c1.2,0.3,2.2,0.6,3.3,0.9
		c-0.9-1.1-2.4-1.7-2.9-3.3c0.4,0.1,0.7,0.2,1.3,0.4c-0.8-1.9-2.2-3.4-1.5-5.3c3.3,3.9,7.3,7.2,11,11.1c0.2-0.7,0.3-1.2,0.4-1.7
		c-0.2-0.3-0.4-0.5-0.5-0.8c0-0.1,0.1-0.2,0.1-0.2c0.7,0.3,1.4,0.6,2.1,1c-0.1,0.1-0.1,0.1-0.2,0.2c0,0.5,0,0.9,0,1.4
		c0.1,0,0.2,0.1,0.3,0.1c3.5-3.7,7.4-7,10.6-11c0.6,1.9-0.6,3.4-1.6,5.1c0.6,0,0.9,0,1.5,0c-0.6,0.7-1,1.2-1.6,1.7
		c-0.5,0.5-1.1,0.8-1.6,1.4c1.1-0.3,2.2-0.6,3.4-1c-0.6,1.5-1.9,1.9-3.2,2.5c0.2,0.2,0.3,0.4,0.6,0.7c-1.1,0.4-2.2,0.7-3.2,1.1
		c0,0.1,0,0.1,0,0.2c0.7,0,1.3,0,2.2,0c-1.5,1.8-3.3,1.9-5.4,1.6c0.3,0.3,0.4,0.5,0.8,1c-0.8-0.1-1.4-0.1-2.2-0.2
		c0,0.5,0,0.9,0.1,1.5c0.4-0.2,0.6-0.3,0.9-0.5c0.1,0.6,0.1,1.2,0.2,2C-154.1-17.6-154.3-17.5-154.6-17.3z"/>
	<path class="st0" d="M142.8-62.9c-1.2,1.1-2.4,2.2-3.6,3.3c1.4,1.8,2.7,3.6,4.1,5.4c-1.5,4.5-5.9,7.6-10.9,7.7
		c-4.6,0-9.1-3.1-10.6-7.4c1.3-1.8,2.6-3.6,4-5.5c-1.2-1.1-2.4-2.1-3.7-3.2c2.1-4.3,5.5-6.8,10.2-6.9
		C137-69.6,140.5-67.3,142.8-62.9z M137.1-48.9c-1.2-1.6-2.4-3-3.3-4.2c0.2-1.4,0.3-2.6,0.5-4c0.2-0.1,0.5-0.3,0.9-0.5
		c0.9,2.8,3.1,4.5,4.7,7c0.9-1.3,1.6-2.3,2.2-3.3c-1.6-2-3.1-3.9-4.6-5.8c1.3-1.2,2.5-2.4,3.8-3.6c-2.4-3.3-5.5-5-9.6-4.7
		c-3.5,0.2-6.1,1.9-8.1,4.9c1.4,1.2,2.6,2.3,3.9,3.5c-1.5,2-3,4-4.5,6c0.7,1,1.5,2,2.3,3.1c1.5-2,2.8-3.8,4-5.5
		c0.2-0.6,0.3-1,0.5-1.6c0.5,0.3,0.8,0.5,1.2,0.7c-0.1,0-0.2,0.1-0.2,0.1c0.2,1.2,0.4,2.3,0.6,3.7c-0.9,1.2-2,2.7-3.2,4.2
		C131.2-47.7,134-47.7,137.1-48.9z"/>
	<path class="st0" d="M-82.3-32.3c0.9,0.5,2.2,1.2,3.5,1.8c0,0.8,0,1.4,0,2.2c0.6,0.4,1.3,0.8,2.2,1.4c0,1.1,0,2.4,0,3.9
		c-0.6,0-1.3,0-1.9,0c-0.3,0.7-0.6,1.2-0.9,1.9c0,0.4,0,1,0,1.6c0.4,0.3,0.8,0.6,1.4,0.9c-0.3,1.1-0.5,2.3-0.8,3.5
		c-0.6,0-1.2,0-1.9,0c-0.1-0.1-0.2-0.1-0.3-0.2c-0.5,0.7-1.1,1.3-1.6,2c-1.1,1.6-2.7,1.5-4.4,1.6c-2.7,0.1-4.7-1.1-6.1-3.4
		c-0.2-0.3-0.7-0.4-1.1-0.5c-0.5-0.1-0.9,0-1.3,0c-0.5-1.5-1-2.8-1.4-3.9c0.6-0.4,1.2-0.8,1.7-1.2c-0.5-1.2-0.9-2.2-1.3-3.3
		c-0.7,0-1.4,0-2.1,0c0-1.5,0-2.8,0-4.2c0.5-0.1,1-0.2,1.5-0.3c0.1-0.4,0.1-0.6,0.1-0.9c0.2-1.3,0.6-2.3,2.1-2.8
		c2.7-1,5.5-0.8,8.2-0.5C-85.4-32.5-84.1-32.4-82.3-32.3z M-82.5-15.8c0-1,1.1-3.4,1.8-4.6c0.5-0.8,0.9-1.7,1.1-2.6
		c0.6-3-1.9-6.6-4.4-7.6c-0.6-0.2-1.4-0.3-2-0.6c-1.6-0.7-3.2-0.5-4.8-0.2c-2,0.3-3.3,1.7-4.1,3.5c-0.5,1.2-1.2,2.4-0.8,3.7
		c0.4,1.2,0.8,2.4,1.5,3.5c0.8,1.3,1.5,2.7,2,4.1c0.8,2.3,3.6,3.8,5.9,3.4C-84.6-13.3-83.4-14.2-82.5-15.8z"/>
	<path class="st0" d="M166.9-16.3c2.3-6.1,4.6-12.2,7-18.4c1,0,2,0,3.1,0c2.1,6,4.3,12.1,6.4,18.1C180.1-11.5,171.1-10.8,166.9-16.3
		z M174.4-31.2c-0.1,0-0.1,0-0.2,0c-1.3,3.3-2.5,6.7-3.9,10.2c1.8,0,3.4,0,5,0c0,0.5,0,1,0,1.5c-1.9,0-3.7,0-5.6,0
		c-0.5,1.1-0.9,2.1-1.4,3.1c4,3.6,10.5,3.4,13.7-0.4c-1.1-0.1-2.1-0.3-3.1-0.4C177.5-22,176-26.6,174.4-31.2z"/>
	<path class="st0" d="M11.9-30.9c0,1.9,0,3.6,0,5.1c-1.3,1.4-2.3,2.6-3.4,3.8c-0.1,0-0.2-0.1-0.2-0.1c0-4.1,0-8.1,0-12.3
		c4.3,0,8.7,0,13.2,0c-0.9,0.9-1.8,1.7-2.8,2.6c0.5,0.3,0.8,0.5,1.1,0.6c3.4,1.9,5.1,5.9,4.5,9.9c-0.6,3.6-3.5,6.8-7.1,7.6
		c-0.3,0.1-0.6,0.1-0.9,0.1c-3.5,0-7,0-10.4,0c-0.1,0-0.2-0.1-0.3-0.1c0.4-0.4,0.8-0.9,1.3-1.4c2.7,0,5.5-0.1,8.3,0
		c3.1,0.1,7-2.4,7.8-6.5c0.7-3.8-1.3-7.7-4.8-9.1c-0.4-0.1-0.8-0.3-1.2-0.3C15.2-30.9,13.6-30.9,11.9-30.9z"/>
	<path class="st0" d="M90.9-51.9c1-0.6,2-1.2,3-1.8c1.9-1.1,3.4-2.5,4.1-4.7c0.3-1.1,1.2-2,2-2.8c0.6-1.1,1-2.4,2.3-3.2
		c-0.3,1.1-0.6,2.1-0.9,3.1c-0.2,0.8,0,1.4,1,1.5c0.5-0.3,1.1-0.6,1.7-0.9c0.1,0,0.1,0.1,0.2,0.1c-0.5,0.7-1,1.4-1.6,2.3
		c0.3,0.5,0.6,1,1,1.7c-0.7,0.1-1.9,0-1.8,1.2c0.1,0.7,0.6,1.5,1,2.2c-2.2-0.7-2.2-0.7-2.7,0.5c1.1,1.1,2.5,2.2,2.8,4.1
		c-0.6-0.7-1.1-1.2-1.7-1.7c-0.6-0.5-1.2-0.9-1.9-1.5c-0.4,0.3-0.7,0.6-1.1,0.9c0.7,1,1.2,1.8,1.8,2.6c0,0-0.1,0.1-0.1,0.1
		c-0.5-0.3-0.9-0.6-1.3-0.9c-0.2,0.1-0.6,1.1-1,2.2c-0.2-1.9-0.9-3.6-2.3-5.1c2.3-1.4,3.5-3.3,3.8-5.9c-0.3,0.5-0.6,1-1,1.4
		c-1,1-2.1,2-3.2,2.9c-0.7,0.6-1.5,1-2.3,1.5c-0.7,0.5-1.5,1.1-2.2,1.7c0.1,0.1,0.1,0.2,0.2,0.4c-0.3-0.3-0.6-0.7-0.9-1
		c-0.7-0.6-1.3-1.3-2.1-1.8c-1-0.7-2.1-1.3-3-2.1c-0.9-0.8-1.6-1.8-2.3-2.7c0,2,0.9,3.4,3.7,5.7c-1.2,1.5-2.1,3.2-2.1,5.3
		c-0.1,0-0.2,0-0.3,0c0-0.7-0.1-1.4-0.1-2.1c-1-0.7-1.4,0.3-2.1,0.5c0.6-0.9,1.1-1.8,1.8-2.7c-0.3-0.3-0.6-0.5-1.1-0.9
		C81.1-51,79.9-50,78.8-49c0.2-1.8,1.8-2.8,2.8-4c-0.7-1.2-0.7-1.2-3-0.3c0.3-0.5,0.6-0.8,0.8-1.2c0.2-0.5,0.5-1.2,0.3-1.6
		c-0.1-0.3-0.9-0.4-1.4-0.6c-0.1,0-0.2,0-0.3-0.1c0.4-0.6,0.8-1.2,1.1-1.7c-0.6-0.9-1.1-1.6-1.6-2.2c0.1-0.1,0.1-0.1,0.2-0.2
		c0.3,0.2,0.6,0.4,1,0.6c0.4,0.1,1.1,0.4,1.3,0.2c0.3-0.3,0.5-0.9,0.4-1.3c-0.2-1-0.5-2-0.9-3.1c1.2,0.8,1.7,2,2.1,3.3
		c1.3,0.8,2.1,2,2.5,3.5c0.5,1.9,2.1,3.1,3.8,4C88.8-53.1,89.9-52.5,90.9-51.9z"/>
	<path class="st0" d="M-14.2-11.9c-0.5,0.4-1,0.9-1.6,1.4c-1-0.2-1.9-0.4-2.9-0.5c-1-0.1-2,0-3.1,0c-1.2-1.6-2.5-3.1-3.7-4.7
		c0-2.2,0-4.4,0-6.6c0.7-0.3,1.4-0.6,2-0.8c0.8,1.4,1.5,2.7,2.1,3.8c0.7,0,1.3,0,1.8,0c0.7-0.5,1.5-0.9,2.4-1.5
		c-0.3-0.8-0.4-1.5-0.7-2.2c-0.3-0.8-0.7-1.5-1-2.3c-0.1-0.3-0.1-0.7,0.1-0.9c0.6-0.9,1.3-1.8,2-2.7c0.8,0.2,1.5,0.4,2.2,0.7
		c0,0.4,0.1,0.7,0.1,1c0,4.5,0,9,0.1,13.4C-14.4-13.3-14.3-12.7-14.2-11.9z M-24.2-19.9c0,1.7,0,3.3,0,5c0.4,0.4,0.8,0.8,1.2,1.2
		c1.1-0.9,0.9-5-0.2-6.6C-23.5-20.2-23.8-20.1-24.2-19.9z"/>
	<path class="st0" d="M-30.6-52.1c0.6-1,1.1-1.8,1.6-2.7c-0.1-0.1-0.2-0.3-0.4-0.6c-1.2,0.9-2.3,1.7-3.4,2.5c-1.3,0-2.6,0-3.9,0
		c-0.1-0.1-0.1-0.1-0.2-0.2c1.6-1.1,3.1-2.3,4.7-3.3c1.6-1.1,3.3-2.2,5.1-3.3c-1.2-0.8-1.6,0.6-2.5,0.6c-0.8,0-1.7,0.4-2.2,0.6
		c0.3-0.3,0.8-0.8,1.3-1.4c-0.1-0.1-0.1-0.1-0.2-0.2c-0.4,0.2-0.8,0.6-1.3,0.7c-0.5,0.2-1,0.2-1.6,0.2c1.9-1.7,3.5-3.7,4.1-6.3
		c1.3,3.2,3.1,5.6,6.5,6.4c0.2-0.3,0.3-0.7,0.6-1.2c1.9,4.3-1.1,10.5-5.8,12.7c-5.5,2.5-12.1,0.2-14.6-5.2c-1.4-2.9-1.5-6.6-0.1-7.3
		c-0.7,4.2,0.4,7.8,3.7,10.5c1.8,1.4,3.9,2.2,6.2,2.2c4.7,0,8.9-3.3,9.9-7.8c-0.3-0.1-0.6-0.2-1.1-0.3c-0.3,0.4-0.6,0.7-0.7,1.1
		c-0.5,1.2-1.4,1.9-2.6,2.3c-0.6,0.2-1.3,0.3-2,0.5c-0.6,0.2-1.3,0.3-1.7,0.7c-1.3,1.3-3.1,1.4-4.7,1.8
		C-33.9-50.1-32.2-51.1-30.6-52.1z"/>
	<path class="st0" d="M-164.1-58.1c1.4,2.3,2.8,4.5,4.2,6.8c2.4-0.5,4.8-0.9,7.2-1.5c1.7-0.4,2.9-1.5,3.7-3.1c1-0.2,2-0.4,3.1-0.6
		c-0.6,1-1.1,2-1.7,2.9c-1.2,1.9-3.1,2.7-5.2,2.9c-1.8,0.2-3.7,0.3-5.5,0.4c-0.2,0-0.5,0.1-0.8,0.2c0.5,0.9,0.9,1.6,1.3,2.4
		c-0.1,0-0.1,0.1-0.2,0.1c-0.6-0.7-1.2-1.5-1.8-2.3c-1.7,0.3-3,1.2-4.2,2.5c0.2-1.3,0.7-1.9,3.2-3.7c-1.8-2.3-3.7-4.7-5.6-7.1
		c1.9-2.4,3.7-4.7,5.6-7.1c-1.4-0.9-2.8-2-3.3-3.7c1.2,1.2,2.6,2.1,4.3,2.5c0.6-0.7,1.2-1.5,1.8-2.2c0.1,0,0.1,0.1,0.2,0.1
		c-0.4,0.7-0.8,1.4-1.3,2.4c1.5,0.1,2.8,0.3,4.1,0.4c1,0.1,2,0.1,3,0.2c2.1,0.3,3.8,1.4,4.8,3.4c0.4,0.8,0.9,1.5,1.4,2.4
		c-1-0.2-2-0.3-3.1-0.5c-1.3-2.5-3.6-3.4-6.3-3.8c-1.5-0.2-3.1-0.5-4.7-0.7C-161.4-62.7-162.7-60.4-164.1-58.1z"/>
	<path class="st0" d="M92.3-11.5c-2.1-1.5-3.6-3.5-4.7-5.8c-0.5-1.1-0.3-2.3,0.4-3.4c-0.8-0.3-1.6-0.6-2.4-0.9c0-0.1,0-0.1,0-0.2
		c-0.3,0.1-0.6,0.2-0.9,0.3c-0.9-0.9,1.5-3.5,3.1-3.6c0.2,0,0.5,0,0.5,0c0.5-1.2,0.9-2.3,1.5-3.3c0.3-0.5,1-0.9,1.5-1.3
		c0.1,0,0.2,0.1,0.2,0.1c0,1,0,2,0,2.9c2.5,0.8,2.5,0.8,3.7,2.3c0.3,0.1,0.6,0.1,1,0.2c-0.2,1.5-1.2,2.3-2.5,2.9
		c1,1.3,0.5,2.4-0.2,3.6C92.4-15.8,92.1-13.7,92.3-11.5z"/>
	<path class="st0" d="M-125.2-18.8c-0.3,0.1-0.6,0.3-1.1,0.5c-0.3-1.4-0.6-2.8-1-4.3c-0.8-1.1-1.6-2.3-2.5-3.5
		c0.1-0.1,0.2-0.1,0.2-0.2c1.4,0.7,1.8,2.3,3.1,3.4c0.9-1.9-1.2-2.7-1.3-3.8c1.2-1.5,2.2-2.7,3.2-3.9c0.8-1,1.2-1.1,2.3-0.5
		c0.4,0.2,0.8,0.5,1.2,0.7c0.4,1.8,1.9,2.5,3.1,3.5c-0.4,1.1-0.8,2.1-1.3,3.2c0.4,0.2,0.6,0.3,0.8,0.3c1.2-0.9,1.2-2.7,3.1-3.2
		c-0.9,1.4-1.7,2.5-2.5,3.7c-0.3,1.5-0.5,2.9-0.8,4.5c-0.5-0.1-0.8-0.2-1.2-0.3C-121.6-17.8-123.4-17.3-125.2-18.8z M-124.9-20.7
		c0.5-0.3,0.8-0.4,1.2-0.6c0-0.7,0-1.3,0-2.1c0.5-0.2,0.9-0.4,1.3-0.7c0.3,0.6,0.6,1.1,0.8,1.5c0,0-0.1,0-0.1,0
		c0.1,0.5,0.2,1,0.3,1.5c0.1,0,0.3,0.1,0.4,0.1c0.3-0.6,0.5-1.3,0.9-2c-0.7-0.9-1.3-1.8-2-2.8c-0.6,0-1.2,0-1.7,0
		C-125.2-24.3-125.4-22.7-124.9-20.7z"/>
	<path class="st0" d="M8.3-16.5c0.1-0.2,0.1-0.3,0.2-0.4c1.2-1.1,2.3-2.2,3.5-3.3c0.9,0,1.7,0,2.6,0c1.7,0,2.8-1.2,2.8-2.8
		c0-1.5-1.2-2.6-2.8-2.7c-0.4,0-0.8,0-1.3,0c0-1.3,0-2.5,0-3.7c4.2-0.8,6.7,1.5,7.7,4.1c1.1,3.2-0.2,6.6-3.2,8.2
		c-0.5,0.2-1,0.5-1.5,0.5C13.8-16.4,11.1-16.5,8.3-16.5z"/>
	<path class="st0" d="M99.3-36.4c1.3,1.1,1.4,2.1,0.6,3.6c-1.1,0.4-2.1,0.9-3.1,1.3c0,0.2-0.1,0.3-0.1,0.5c0.4,0.4,0.8,0.8,1.4,1.5
		c0.6-0.7,1-1.3,1.4-1.8c0.4-0.4,1-0.7,1.5-1c1-0.6,2.1-1.2,3.1-1.8c0.8,1.3,0.6,4.4-0.4,5.5c-0.5,0.5-1.3,1-1.9,1
		c-2.9,0.1-5.7,0-8.5,0c-1.1-3,0.3-5.8,3.3-6.4C98-34.2,98.8-35.2,99.3-36.4z"/>
	<path class="st0" d="M-120.5-58.1c1.2-1.4,1.5-2.8,0.1-4.2c0.5-0.8,0.9-1.6,1.3-2.3c2.6-0.6,2.6-0.6,4-2.4c0.8,0,1.6,0,2.6,0
		c0.7,1.4,1.8,2.6,3.8,2.1c0.5,0.8,0.9,1.6,1.4,2.4c-1.2,1.4-1.2,2.8,0.1,4.2c-0.4,0.8-0.8,1.5-1.3,2.3c-1.8-0.1-3.3,0.3-3.7,2.3
		c-1.1,0-2,0-3,0c-0.8-1.4-1.5-2.9-3.7-2.1C-119.4-56.5-119.9-57.2-120.5-58.1z M-109.1-64c-0.7,0-1.2,0-1.9,0
		c-0.3,0.6-0.6,1.1-0.9,1.6c0.4,0.6,0.7,1.1,0.9,1.6c0.7,0,1.3,0,1.9,0c0.3-0.6,0.6-1.1,0.9-1.6C-108.5-63.1-108.8-63.6-109.1-64z
		 M-118.6-64.1c-0.3,0.5-0.6,1.1-1,1.6c0.4,0.6,0.7,1.1,1,1.6c0.7,0,1.2,0,1.8,0c0.3-0.5,0.6-1.1,1-1.6c-0.4-0.6-0.7-1.1-1-1.6
		C-117.4-64.1-117.9-64.1-118.6-64.1z M-110.9-59.7c-0.3,0.5-0.6,1.1-0.9,1.6c0.4,0.6,0.7,1.1,1,1.6c0.7,0,1.2,0,1.8,0
		c0.3-0.5,0.6-1,1-1.6c-0.3-0.6-0.7-1.1-1-1.6C-109.6-59.7-110.2-59.7-110.9-59.7z M-118.6-56.5c0.7,0,1.3-0.1,1.9-0.1
		c0.3-0.6,0.6-1.1,0.9-1.6c-0.3-0.6-0.7-1.1-1-1.6c-0.6,0-1.2,0-1.9,0c-0.3,0.6-0.6,1.1-0.9,1.6C-119.3-57.6-119-57.1-118.6-56.5z
		 M-115.7-64.7c0.3,0.5,0.6,1.1,0.9,1.5c0.7,0,1.3,0,2,0c0.3-0.5,0.6-1.1,0.9-1.6c-0.3-0.6-0.6-1.1-0.9-1.6c-0.7,0-1.3,0-1.9,0
		C-115.1-65.8-115.3-65.3-115.7-64.7z M-114.9-54.3c0.7,0,1.3,0,2,0c0.3-0.6,0.6-1.1,0.9-1.6c-0.4-0.6-0.7-1.1-0.9-1.5
		c-0.7,0-1.3,0-1.9,0c-0.3,0.5-0.6,1.1-0.9,1.6C-115.4-55.3-115.1-54.8-114.9-54.3z M-115.8-60.3c0.4,0.6,0.7,1.1,1,1.6
		c0.7,0,1.2,0,1.9,0c0.3-0.5,0.6-1.1,0.9-1.6c-0.3-0.6-0.6-1.1-0.9-1.5c-0.7,0-1.3,0-1.9,0C-115.1-61.3-115.4-60.9-115.8-60.3z"/>
	<path class="st0" d="M-51.6-22.5c0.1,0.9,0.2,1.7,0.3,2.5c0,0,0,0-0.1,0c0,2.7,0,5.4,0,8.2c-0.3,0.3-0.6,0.5-0.8,0.8
		c-1.8,0-3.5,0-5.2,0c0-0.1,0-0.2,0-0.3c0.4,0,0.8-0.2,1.1-0.1c1.5,0.3,2.7-0.1,3.4-1.6c0-0.3,0-0.7,0-1c-1.4-2.2-3.6-1.6-5.6-1.8
		c-1.1-1.1-1.8-2.4-1.9-3.8C-57.4-20.7-54.5-21.6-51.6-22.5z"/>
	<path class="st0" d="M-150.8-59.9c0,1.2,0,2.4,0,3.6c-3.6,0-7.2,0-10.8,0c0-1.2,0-2.4,0-3.6C-158-59.9-154.4-59.9-150.8-59.9z"/>
	<path class="st0" d="M106.3-29c0.8,3.2-0.1,5.3-3.2,7.8c0.7,1.7,1.3,3.4,2.1,5.3c-1.5-0.6-2.8-1.6-3.2-3.2c-0.6-2.7-2-4.8-4.3-6.4
		c0,0-0.1-0.1-0.1-0.3C101.1-25.1,103.9-26.2,106.3-29z"/>
	<path class="st0" d="M-59.2-21.9c-0.8,0-1.4,0-1.9,0c-0.5-1-0.9-2-1.5-3.1c0.2-0.1,0.5-0.3,0.7-0.5c0.6,0.6,1.2,1.2,1.8,1.7
		c0.1-0.1,0.2-0.1,0.3-0.2c0-0.5,0.1-1.1,0.1-1.6c-0.5-0.6-1-1.2,0-2.1c0.4,0.5,0.7,0.9,1.2,1.5c0.1,0,0.5,0.1,1,0.3
		c0.1-0.8,0.1-1.6,0.2-2.4c0.3-0.1,0.6-0.2,0.7-0.3c0.5,0.8,0.9,1.5,1.5,2.4c0.4-0.6,0.6-0.9,0.8-1.2c0.2-0.3,0.4-0.7,0.5-1
		c0.6-0.3,1.1,0,1.1,0.5c0.1,1.2,0,2.4,0,3.9C-54.7-23.3-57-22.6-59.2-21.9z"/>
	<path class="st0" d="M-110.4-50c2.6-5,5.2-10,7.8-15c0.1,0,0.1,0,0.2,0c0,0.2,0.1,0.5,0.1,0.7c0,1.8,0,3.6-0.2,5.4
		c0,0.7-0.3,1.5-0.5,2.2c-0.5,1.8-1.7,3.1-3.4,4.1c-1.4,0.8-2.6,1.8-3.9,2.7C-110.3-49.9-110.4-49.9-110.4-50z"/>
	<path class="st0" d="M-117.8-49.8c-1.9-1.3-4-2.5-5.6-4.1c-1.1-1-1.9-2.7-2.1-4.2c-0.3-2.2-0.1-4.6-0.1-7.1
		c2.7,5.2,5.4,10.2,8,15.2C-117.6-49.9-117.7-49.9-117.8-49.8z"/>
	<path class="st0" d="M-60.9-58c0,1,0,1.9,0,2.9c-4,0-8,0-12,0c0-1,0-1.9,0-2.9C-69-58-65-58-60.9-58z"/>
	<path class="st0" d="M48.8-19.4c2.8,3.2,7.2,3.6,10.3,1.7c1.5-0.9,2.6-2.1,3.3-3.7c0.2-0.5,0.5-0.8,1-0.7c-0.1,3.5-3.5,7-7.4,7.5
		c-4,0.6-8.3-1.6-9.3-4.9C47.4-19.4,48-19.4,48.8-19.4z"/>
	<path class="st0" d="M-72.9-67.2c4,0,7.9,0,12,0c0,0.9,0,1.9,0,2.9c-4,0-7.9,0-12,0C-72.9-65.3-72.9-66.2-72.9-67.2z"/>
	<path class="st0" d="M-72.9-62.7c4,0,8,0,12,0c0,0.9,0,1.8,0,2.8c-4,0-7.9,0-12,0C-72.9-60.7-72.9-61.6-72.9-62.7z"/>
	<path class="st0" d="M-83.4-55.2c-0.9,0-1.7,0-2.6,0c0-4,0-8,0-12c0.9,0,1.7,0,2.6,0C-83.4-63.2-83.4-59.3-83.4-55.2z"/>
	<path class="st0" d="M91-69.2c3.9,1.1,6.1,3.8,6.9,7.9c-0.2,0.6-0.5,1.4-0.8,2.3c-0.8,1.8-2,3.3-3.8,4.2c-0.8,0.4-1.6,0.8-2.6,1.3
		c-1.4-0.9-3.2-1.8-4.4-3.1c-1.2-1.3-1.8-3.2-2.5-4.4C84.8-65.4,86.9-68.2,91-69.2z M91.9-54.8c2.8-1,4.4-2.9,5-5.9
		c-0.6-0.1-1-0.3-1.6-0.4c-0.5-0.1-1.1-0.1-1.6-0.1c0-0.1,0-0.2,0-0.3c0.9-0.7,2.5,0.5,3.1-1c-0.7-2.7-2.2-4.6-5-5.6
		c-0.2,0.2-0.5,0.5-0.6,0.5c-0.3,1.1,0.1,2-0.4,3c-0.7-1.2,0.4-2.7-0.9-3.6c-2.8,1-4.4,2.9-5,5.7c0.8,1.4,2.3,0.1,3.3,1.1
		c-1,0.7-2.5-0.5-3.3,1c0.6,2.8,2.3,4.7,5.1,5.6c0.2-0.2,0.4-0.4,0.7-0.6c0-1,0-1.9,0-2.8c0.1,0,0.2,0,0.3,0c0,0.9,0,1.9,0,2.8
		C91.4-55.2,91.6-55.1,91.9-54.8z"/>
	<path class="st0" d="M-74.9-55.2c-0.9,0-1.7,0-2.6,0c0-4,0-7.9,0-12c0.9,0,1.7,0,2.6,0C-74.9-63.2-74.9-59.2-74.9-55.2z"/>
	<path class="st0" d="M-81.9-67.2c0.9,0,1.7,0,2.6,0c0,4,0,8,0,12c-0.9,0-1.7,0-2.6,0C-81.9-59.2-81.9-63.1-81.9-67.2z"/>
	<path class="st0" d="M-147.4-23c-0.2,4.3-4.6,7.9-9.7,7.8c-4.8-0.1-9.2-3.7-9-8c0.5,0.6,1.1,1.2,1.5,1.9c1.6,3.3,4.3,4.8,7.8,4.9
		c3.5,0,6.2-1.5,7.8-4.8c0.4-0.7,0.9-1.3,1.4-2C-147.6-23.1-147.5-23.1-147.4-23z"/>
	<path class="st0" d="M-114.1-26.4c0.3,0,0.7,0.1,0.8,0.1c1.9,2.2,0.2,4.4,0.4,6.6c-1.1,0.7-2.1,1.5-3.3,2.4
		c-0.2-0.2-0.5-0.4-0.7-0.4C-117.6-21.2-116.1-23.8-114.1-26.4z"/>
	<path class="st0" d="M48.1-27.3c-1,0.9-1.1,2.1-2.4,2.5c0.5-2.9,1.9-5,4.2-6.3c2.7-1.6,5.6-1.7,8.4-0.5c0,0.1,0,0.2,0,0.4
		c-1.1,0.1-2.1,0.1-3.3,0.2C53.2-29.1,50.7-27.8,48.1-27.3z"/>
	<path class="st0" d="M-129-17.3c-1.1-0.7-2.2-1.3-3.3-2c-0.3-1.6-0.7-3.3-1.1-5.1c0.3-0.6,0.7-1.3,1.3-2.2c0.6,0.6,1,1,1.4,1.4
		c1.6,1.9,2.8,4,2.6,6.7C-128.2-17.9-128.3-17.4-129-17.3z"/>
	<path class="st0" d="M62.7-30.6c0.5-0.4,0.9-0.8,1.4-1.2c0.1-0.1,0.3-0.2,0.5-0.4c0.8,0.6-0.1,1.2,0,1.8c3,4.9,2.5,9.8,0,13.7
		c0.3,1.3,0.3,1.3,0,1.8c-0.5-0.6-1.1-1.1-1.7-1.7C66.1-21.1,66.2-25.7,62.7-30.6z"/>
	<path class="st0" d="M61.4-33.4c0.7-0.1,1.2-0.2,1.8-0.3c0.1,0.1,0.1,0.2,0.2,0.3c-0.5,0.6-1.1,1.2-1.7,1.8c-2.1-1.6-4.4-2.6-7-2.6
		c-2.6,0-4.9,0.9-6.9,2.5c-0.7-0.6-1.3-1.1-1.9-1.6c0.1-0.1,0.1-0.3,0.2-0.4c0.6,0.1,1.1,0.2,1.7,0.3C52.3-36.1,56.9-36.1,61.4-33.4
		z"/>
	<path class="st0" d="M44.7-30.3c-0.1-0.6-0.2-1.2-0.3-1.7c0.1-0.1,0.2-0.1,0.3-0.2c0.6,0.6,1.2,1.1,1.8,1.7
		c-3.4,4.7-3.4,9.3,0,14.1c-0.6,0.5-1.2,1.1-1.8,1.6c-0.8-0.6,0.1-1.1,0-1.8C41.9-21,41.9-25.6,44.7-30.3z"/>
	<path class="st0" d="M61.4-13.5c-4.5,2.7-9.1,2.7-13.6,0c-0.6,0.1-1.2,0.2-1.7,0.3c-0.1-0.2-0.3-0.4-0.4-0.6
		c0.7-0.5,1.3-0.9,2.1-1.4c4.5,3.3,9.2,3.3,13.9-0.1c0.6,0.6,1.2,1.1,1.8,1.7c0,0.1-0.1,0.3-0.1,0.4C62.7-13.3,62.2-13.4,61.4-13.5z
		"/>
	<path class="st0" d="M6.6-20.3c-0.4,0.4-0.8,0.8-1.4,1.3c0-5.2,0-10.3,0-15.4c0.5,0,0.9,0,1.4,0C6.6-29.8,6.6-25.1,6.6-20.3z"/>
	<path class="st0" d="M-42.3-62.7c1.1-3.1,5.4-5.8,9.4-5.9c4-0.1,8.3,2.5,9.7,5.9c-0.8,0.4-0.9-0.3-1.2-0.7
		c-2.4-3.2-5.6-4.7-9.6-4.3c-3,0.3-5.4,1.8-7.2,4.3C-41.4-63-41.6-62.4-42.3-62.7z"/>
	<path class="st0" d="M-20.7-21.6c-0.5-0.8-1-1.6-1.5-2.5c-1-1.9-1.9-3.8-2.8-5.7c0-0.1,0-0.2,0-0.6c0.7,0.1,1.5,0.1,2.2,0.2
		c1.4,3,2.7,5.8,4.1,8.8C-19.5-21.3-20.2-20.5-20.7-21.6c0.4-0.1,0.9-0.1,1.4-0.2c-0.3-1-0.7-1.3-1.6-0.9
		C-20.8-22.3-20.7-21.9-20.7-21.6z"/>
	<path class="st0" d="M-150.1-30c-0.3,0.3-0.5,0.6-0.8,0.9c-3.9-2.8-7.8-2.9-11.8-0.1c-0.2-0.3-0.5-0.5-0.7-0.8
		C-160.9-32.9-154.4-33.8-150.1-30z"/>
	<path class="st0" d="M63.6-23.7c-0.7-0.2-1.4-0.4-2.1-0.6c0.1-0.3,0.2-0.6,0.4-1.2c-1.7-0.2-3.4-0.5-5.1-0.7c0.8-0.7,1.5-1.3,2.2-2
		c1.1,0,2.1,0,3.2,0C63.2-26.9,63.6-25.4,63.6-23.7z"/>
	<path class="st0" d="M-32-63c-1,1.1-2,2.3-3.1,3.4c-0.5,0.5-1.4,0.5-2.1,0.9c-0.8,0.4-1.7,0.9-2.6,1.3c0.8-1.3,1.3-2.5,0.5-4.1
		c0.4-0.6,0.8-1.2,1.4-2.1c0.3,0.7,0.5,1.2,0.8,1.6c0.8,1.3,1.8,1.6,3,0.6c0.6-0.5,1.2-1.1,1.8-1.7C-32.2-63.2-32.1-63.1-32-63z"/>
	<path class="st0" d="M138.4-22c0.6,2.4,0.3,4.7,0,7.1c-0.5,0-0.9,0-1.5,0c-0.4-2.3-0.6-4.7-0.1-7.1C137.3-22,137.8-22,138.4-22z"/>
	<path class="st0" d="M59.3-22.6c0.6,0.1,1.2,0.1,1.9,0.2c-1.2,2.4-3,3.8-5.5,4.1c-2.3,0.3-4.3-0.5-6.1-2.5c0.8-0.3,1.3-0.5,1.9-0.8
		c0.9,1.7,2.2,2.8,4.2,2.6C57.8-19.2,58.8-20.6,59.3-22.6z"/>
	<path class="st0" d="M126.5-32.3c0.4,1.5,1.7,2.6,1.8,4.1c-0.1,0.1-0.3,0.1-0.4,0.2c-0.9-1.7-1.9-3.4-2.9-5.3c3.2,0,6.3,0,9.5,0
		c-0.5,0.4-0.8,0.7-1.2,1C131-32.3,128.8-32.3,126.5-32.3z"/>
	<path class="st0" d="M142.1-32.2c-0.5-0.3-0.8-0.6-1.4-1.1c3.3,0,6.4,0,9.6,0c-1,1.8-1.9,3.5-2.9,5.3c-0.2-0.2-0.4-0.3-0.6-0.4
		c0.7-1.2,1.3-2.4,2-3.7C146.5-32.2,144.3-32.2,142.1-32.2z"/>
	<path class="st0" d="M-31.5-20.7c1.6,0,2.9,0,4.4,0c0,1.1,0,2.1,0,3.2c-1.2,0-2.3,0-3.7,0C-31-18.5-31.2-19.5-31.5-20.7z"/>
	<path class="st0" d="M166-29.3c0.8,1.2,1.4,2.3,2.1,3.4c-0.4,1.2-0.9,2.3-1.3,3.5C165.3-24.7,165-27.3,166-29.3z"/>
	<path class="st0" d="M143.1-16.4c-0.2-0.1-0.5-0.1-0.5-0.2c-0.6-1.8-1.3-3.6-1.2-5.6c0.4-0.1,0.8-0.2,1.2-0.3
		c1.1,1.8,1.1,3.8,1.3,5.8C143.6-16.6,143.3-16.5,143.1-16.4L143.1-16.4z"/>
	<path class="st0" d="M132.4-16.4c-0.3-0.1-0.7-0.2-1.1-0.4c0.1-2,0.3-4,1.2-5.8c0.5,0.1,0.8,0.2,1.3,0.3
		C133.8-20.2,133.5-18.2,132.4-16.4L132.4-16.4z"/>
	<path class="st0" d="M167.1-31c1.1-0.8,2.2-1.5,3.3-2.3c0.1,0.1,0.2,0.1,0.3,0.2c-0.8,2-1.5,4.1-2.3,6.1c-0.1,0-0.1,0-0.2,0
		C167.9-28.3,167.5-29.6,167.1-31z"/>
	<path class="st0" d="M-30.1-30.8c-0.3,1.5-0.6,2.8-0.8,4.2c2,0.8,3.7,1.7,5.2,2.9c-1.8-0.4-3.2-2.1-5.3-1.7c-1-2.1,0.2-4,0.2-6
		c0.4,0,0.8,0,1.2-0.1c0,0,0,0.1,0,0.1c1.2,0.6,2.5,1.1,3.7,1.7c0,0.1-0.1,0.2-0.1,0.2C-27.4-29.9-28.6-30.3-30.1-30.8z"/>
	<path class="st0" d="M-148.3-57c0-0.6,0-1.1,0-1.5c0-0.2,0.1-0.4,0.1-0.7c1.8,0,3.5-0.2,5.2,1.1C-144.6-56.8-146.4-57.2-148.3-57z"
		/>
	<path class="st0" d="M94.9-35.7c-0.5,0.7-0.8,1.4-1.3,1.7c-1,0.7-1.8,1.6-1.9,2.8c-1.3-0.6-1.7-1.9-0.9-2.8
		c0.5-0.6,1.4-0.9,2.2-1.3C93.5-35.5,94.1-35.5,94.9-35.7z"/>
	<path class="st0" d="M-50-18.3c0.3-0.8,0.5-1.6,0.7-2.3c-1.2-1.8-0.5-3.7,1.6-4.5c0.3,0.1,0.6,0.3,1,0.6c-1,2.1-2.1,4.2-3.1,6.2
		C-49.9-18.3-49.9-18.3-50-18.3z"/>
	<path class="st0" d="M182.5-25.7c0.6-1.1,1.1-2.1,1.8-3.3c1.5,2.3,0,4.3-0.3,6.4c-0.1,0-0.2,0-0.3,0.1
		C183.3-23.6,182.9-24.6,182.5-25.7z"/>
	<path class="st0" d="M-12.6-20.5c1.2,0.2,2.1,0.3,2.9,0.4c0,1.2,0,2.1,0,3.2c-0.8-0.1-1.5-0.2-2-0.2C-12-18.3-12.3-19.3-12.6-20.5z
		"/>
	<path class="st0" d="M183-30.1c-0.3,0.9-0.5,1.9-0.8,2.9c-0.1,0-0.2,0-0.2,0c-0.6-1.7-1.2-3.4-1.8-5.2
		C181.5-32,182.2-31.5,183-30.1z"/>
	<path class="st0" d="M57.6-22.6c-0.2,1.5-1,2.2-2.2,2.3c-1.2,0.1-2.1-0.5-2.5-1.8c0.3-0.1,0.5-0.3,0.9-0.5c0.3,0.4,0.6,0.7,1,1.1
		c0.3,0,0.7,0,1.2,0c-0.2-0.4-0.3-0.6-0.4-0.9C55.6-22.8,55.9-22.8,57.6-22.6z"/>
	<path class="st0" d="M-73.5-53.9c0.3,0.6,0.4,1,0.6,1.4c0.5,0,0.9,0.1,1.5,0.1c-0.5,0.4-0.8,0.7-1.2,1c0.1,0.5,0.2,0.9,0.4,1.5
		c-0.5-0.3-0.9-0.6-1.3-0.9c-0.4,0.2-0.8,0.5-1.3,0.8c0.1-0.6,0.2-1,0.4-1.5c-0.3-0.3-0.7-0.6-1.1-1c0.6-0.1,1-0.1,1.5-0.1
		C-74-52.9-73.8-53.3-73.5-53.9z"/>
	<path class="st0" d="M-80.8-52.4c0.6,0,1-0.1,1.5-0.1c0.2-0.4,0.3-0.8,0.6-1.5c0.2,0.5,0.4,0.9,0.6,1.4c0.4,0,0.9,0.1,1.5,0.1
		c-0.4,0.4-0.8,0.7-1.2,1c0.1,0.4,0.2,0.9,0.4,1.5c-0.6-0.4-1-0.6-1.4-0.9c-0.4,0.2-0.7,0.5-1.3,0.8c0.1-0.6,0.2-1,0.3-1.5
		C-80-51.7-80.3-51.9-80.8-52.4z"/>
	<path class="st0" d="M-64.5-49.9c0.2-0.7,0.2-1.1,0.3-1.5c-0.4-0.3-0.7-0.6-1.1-0.9c0.6-0.1,1-0.1,1.5-0.1c0.2-0.4,0.4-0.8,0.6-1.4
		c0.2,0.6,0.4,1,0.6,1.4c0.4,0,0.9,0.1,1.4,0.1c-0.4,0.4-0.7,0.7-1.1,1c0.1,0.4,0.2,0.8,0.4,1.5c-0.5-0.3-0.9-0.5-1.3-0.8
		C-63.5-50.5-63.9-50.2-64.5-49.9z"/>
	<path class="st0" d="M-67.9-52.5c0.5,0,0.8,0,1.4,0.1c-0.4,0.4-0.8,0.7-1.1,1c0.1,0.4,0.2,0.8,0.4,1.4c-0.5-0.3-0.9-0.5-1.3-0.8
		c-0.4,0.2-0.8,0.5-1.4,0.8c0.2-0.6,0.3-1,0.4-1.5c-0.3-0.3-0.7-0.6-1.1-1c0.6,0,0.9-0.1,1.4-0.1c0.2-0.4,0.4-0.8,0.6-1.4
		C-68.3-53.3-68.1-52.9-67.9-52.5z"/>
	<path class="st0" d="M-82.9-51.4c0.1,0.4,0.2,0.8,0.4,1.5c-0.6-0.3-0.9-0.6-1.4-0.9c-0.4,0.3-0.8,0.5-1.3,0.9
		c0.2-0.6,0.3-1,0.4-1.5c-0.3-0.3-0.7-0.6-1.1-1c0.6,0,1-0.1,1.5-0.1c0.2-0.4,0.4-0.8,0.6-1.4c0.2,0.6,0.4,1,0.6,1.4
		c0.4,0,0.8,0.1,1.5,0.1C-82.2-52-82.5-51.7-82.9-51.4z"/>
	<path class="st0" d="M20.3-61.8c-3.4,0.3-3.8,0.1-3.9-1.8c1.2-0.9,2.2,0.2,3.2,0.6C19.9-62.8,20-62.3,20.3-61.8z"/>
	<path class="st0" d="M166.5-21.7c-0.3,0.7-0.5,1.4-0.8,2.1c-1-1.4-1.2-2.4-1-4.5C165.4-23.2,165.9-22.5,166.5-21.7z"/>
	<path class="st0" d="M184.8-19.2c-0.3-0.8-0.5-1.5-0.8-2.4c0.5-0.7,1-1.4,1.5-2.1c0.1,0,0.2,0.1,0.4,0.1c-0.2,1.4-0.4,2.9-0.5,4.3
		C185.1-19.2,185-19.2,184.8-19.2z"/>
	<path class="st0" d="M139.2-15.1c0-0.5,0-0.9,0-1.4c0.6-0.9,1.3-1.7,2.1-2.8c0.1,0.7,0.1,1.2,0.1,1.6c-0.7,0.9-1.3,1.8-2,2.7
		C139.4-15,139.3-15.1,139.2-15.1z"/>
	<path class="st0" d="M-35-56.4c-0.6,0.5-1.1,0.9-1.5,1.3c-0.3-0.2-0.6-0.3-0.8-0.4c-1.1,0.4-2.1,0.7-3.1,1.1c0-0.1-0.1-0.2-0.1-0.4
		C-38.9-55.7-37.3-56.6-35-56.4z"/>
	<path class="st0" d="M133.9-17.6c0-0.6,0-1,0-1.4c0.1,0,0.1-0.1,0.2-0.1c0.6,0.8,1.3,1.7,1.9,2.5c0,0.5,0,1,0,1.5
		c-0.1,0-0.1,0.1-0.2,0.1C135.2-15.8,134.5-16.7,133.9-17.6z"/>
	<path class="st0" d="M-117.6-66.2c-1.8,0-3.6,0-5.7,0c0.7,1.4,1.4,2.7,2.1,4c-0.1,0-0.1,0.1-0.2,0.1c-0.9-1.5-1.7-2.9-2.6-4.4
		c2.2,0,4.3,0,6.5,0C-117.6-66.4-117.6-66.3-117.6-66.2z"/>
	<path class="st0" d="M143.5-56.7c-0.5-0.7-1-1.4-1.6-2.2c0.5-0.4,0.9-0.8,1.4-1.2c0.9,1,0.7,2.1,0.6,3.2
		C143.7-56.9,143.6-56.8,143.5-56.7z"/>
	<path class="st0" d="M121.7-59.9c0.5,0.3,0.9,0.7,1.4,1.1c-0.6,0.8-0.9,1.7-1.7,2.2c-0.1,0-0.2-0.1-0.4-0.1c0.1-1,0.1-2,0.2-3.1
		C121.4-59.8,121.5-59.8,121.7-59.9z"/>
	<path class="st0" d="M-54.4-32.9c0.5,0.3,0.8,0.5,1.1,0.6c-0.3,0.9,0.7,1.8-0.3,2.7c-0.3-0.2-0.6-0.3-0.8-0.4
		C-54.4-30.9-54.4-31.7-54.4-32.9z"/>
	<path class="st0" d="M145.8-29.2c0.3-0.6,0.6-1.3,1-2.1c-1.3,0-2.5,0-3.6,0c0-0.1,0-0.2,0-0.3c1.4,0,2.8,0,4.4,0
		c-0.5,0.9-1,1.8-1.4,2.6C146.1-29.1,145.9-29.1,145.8-29.2z"/>
	<path class="st0" d="M-62.1-30.7c0.1-0.2,0.2-0.5,0.3-0.7c1.2,0.4,1.9,2,1.1,3.3C-61.2-29.1-61.6-29.8-62.1-30.7z"/>
	<path class="st0" d="M-57-29.6c-0.3-0.1-0.6-0.2-0.8-0.3c-0.3-1.1-0.6-2.1-0.9-3.1c0.1-0.1,0.2-0.1,0.3-0.2
		c0.3,0.2,0.6,0.4,0.8,0.5c0.3,1,0.6,1.9,0.9,2.8C-56.8-29.7-56.9-29.6-57-29.6z"/>
	<path class="st0" d="M-150-59.5c0.4,0,0.7,0,1.1,0c0,0.9,0,1.8,0,2.7c-0.4,0-0.7,0-1.1,0.1C-150-57.7-150-58.5-150-59.5z"/>
	<path class="st0" d="M137.4-11.8c-0.2-0.8-0.5-1.6-0.8-2.6c0.7,0,1.2,0,2,0c-0.3,1-0.5,1.8-0.8,2.7
		C137.7-11.8,137.5-11.8,137.4-11.8z"/>
	<path class="st0" d="M127.7-31.6c1.4,0,2.9,0,4.3,0c0,0.1,0,0.2,0,0.2c-1.1,0-2.3,0-3.6,0c0.4,0.8,0.7,1.4,1,2.1
		C128.7-29.4,128.4-29.8,127.7-31.6z"/>
	<path class="st0" d="M-110.1-66.5c2.1,0,4.3,0,6.6,0c-0.6,0.9-1.1,1.9-1.7,2.9c-0.1,0-0.1-0.1-0.2-0.1c0.4-0.8,0.8-1.5,1.2-2.4
		c-2,0-3.9,0-5.8,0C-110.1-66.3-110.1-66.4-110.1-66.5z"/>
	<path class="st0" d="M132.4-16.4c0.4,1-0.2,1.6-1.1,2.3c-0.1-0.7-0.2-1.4-0.3-2.3C131.6-16.4,132-16.4,132.4-16.4L132.4-16.4z"/>
	<path class="st0" d="M143-16.4c0.3,0,0.6,0,1.1,0.1c-0.1,0.8-0.1,1.5-0.2,2.3C142.8-14.9,142.5-15.6,143-16.4L143-16.4z"/>
	<path class="st0" d="M-112.8-49.3c-0.3,0.6-0.6,1.2-1,2c-0.9-1.7-1.7-3.3-2.5-4.9c0.1,0,0.1-0.1,0.2-0.1c0.7,1.3,1.4,2.6,2.2,4.1
		c0.3-0.5,0.6-0.9,0.8-1.3C-112.9-49.4-112.8-49.4-112.8-49.3z"/>
	<path class="st0" d="M19.4-60.7c-0.5,1-0.9,1.8-1.3,2.5c-0.1,0-0.2-0.1-0.3-0.1c0-0.7,0-1.5,0-2.3C18.2-60.6,18.6-60.6,19.4-60.7z"
		/>
	<path class="st0" d="M-35.9-51.8c-0.6,1.3-1.8,0.9-2.8,1.4C-38.1-51.6-37.2-52-35.9-51.8z"/>
	<path class="st0" d="M47.7-22.9c-0.6,0.6-0.7,1.5-1.8,1.7c-0.1-0.4-0.1-0.6-0.2-1.1c0.6-0.3,1.3-0.6,1.9-0.8
		C47.6-23.1,47.6-23,47.7-22.9z"/>
	<path class="st0" d="M14.1-58.1c0.9,0.9,0.2,2,0.7,3.2C13.7-55.8,13.5-56.6,14.1-58.1z"/>
	<path class="st0" d="M-154.8-29.7c0.5,0.3,0.8,0.5,1.2,0.8c-0.3,0.5-0.5,0.9-0.8,1.3c-0.5-0.1-0.9-0.2-1.3-0.4
		C-155.4-28.5-155.2-29-154.8-29.7z M-154.2-28.8c-0.1-0.1-0.2-0.1-0.3-0.2c-0.1,0.3-0.3,0.6-0.4,0.8c0.1,0,0.2,0.1,0.3,0.1
		C-154.5-28.3-154.4-28.5-154.2-28.8z"/>
	<path class="st0" d="M-157.7-28.1c0-0.5,0-1.1,0-1.9c0.3,0.4,0.5,0.6,0.7,0.9c0.2-0.2,0.3-0.5,0.5-0.7c0.1,0,0.2,0,0.2,0
		c0,0.5,0.1,1.1,0.1,1.6c-0.1,0-0.1,0.1-0.2,0.1c-0.2-0.2-0.3-0.4-0.6-0.7c-0.2,0.3-0.3,0.5-0.4,0.8
		C-157.5-28-157.6-28.1-157.7-28.1z"/>
	<path class="st0" d="M17.1-56.3c0.3,1.6-0.1,2.1-1.4,2.1C16.2-54.9,16.6-55.6,17.1-56.3z"/>
	<path class="st0" d="M-63.5-27.8c0.3,0.3,0.7,0.6,1.1,1c-0.2,0.3-0.4,0.5-0.8,0.9c-0.3-0.7-0.5-1.2-0.7-1.7
		C-63.7-27.7-63.6-27.8-63.5-27.8z"/>
	<path class="st0" d="M-159.4-28.9c0.3,0.2,0.7,0.4,1.2,0.6c-0.4,0.4-0.7,0.6-0.9,0.8c-0.1-0.1-0.1-0.1-0.2-0.2
		c0.1-0.2,0.2-0.4,0.3-0.6c-0.3-0.1-0.6-0.2-1.1-0.4c0.2-0.3,0.4-0.6,0.5-0.9c0.1,0,0.2,0.1,0.3,0.1
		C-159.3-29.2-159.4-29-159.4-28.9z"/>
	<path class="st0" d="M15.3-60.2c0.5-0.1,0.9-0.2,1.4-0.3c0,0.1,0.1,0.3,0.1,0.4c-0.5,0.1-0.9,0.2-1.4,0.3
		C15.4-60,15.3-60.1,15.3-60.2z"/>
	<path class="st0" d="M12.3-65.1c0.3,0.1,0.6,0.1,0.9,0.2c0,0.1-0.1,0.2-0.1,0.4c-0.3-0.1-0.6-0.1-0.9-0.2
		C12.2-64.8,12.3-65,12.3-65.1z"/>
	<path class="st0" d="M132.5-58.3c-0.4,0.4-0.8,0.7-1.1,0.9c-2.1-1.7-2.6-3.8-1-6.1c0.3-0.5,0.5-1.2,0.7-1.8
		c0.1-0.4,0.3-0.8,0.6-1.2c0.2,1.1,0.6,2.2,0,3.2c-0.4,0.7-0.5,1.3-0.2,2c0.2,0.5,0.3,1.1,0.4,1.8c0.4,0,0.7,0,1.2,0
		c-0.2-1.4,1.3-2.8-0.2-4.1c0-1,0-2,0-2.9c0.1,0,0.1,0,0.2-0.1c0.5,1.1,1,2.1,1.5,3.2c0.4,1.1,0.7,2.2,1.1,3.2
		c-0.8,1.1-1.3,1.9-1.9,2.7C133.3-57.7,132.9-58,132.5-58.3z"/>
	<path class="st0" d="M132.6-53.7c-1.5-1-1.5-2-0.1-3C133.9-56,134-54.8,132.6-53.7z M131.8-55.6c0.8,1.1,0.9,1.1,1.4,0
		C132.7-55.6,132.4-55.6,131.8-55.6z"/>
	<path class="st0" d="M-81.2-24.5c0,0.3,0,0.8,0,1.4c-1,2-1.9,4-3,6.2c-0.1-0.5-0.1-0.8-0.2-1.4c-0.5-0.2-1-0.4-1.5-0.6
		c-0.5,0.4-0.8,0.7-1.2,1.1c0.5,0.5,0.9,1,1.2,1.4c0.5-0.1,0.8-0.1,1.2-0.2c0.1,1.2-1.1,0.9-1.4,1.5c-1.6,0.1-3-0.2-4.2-1.4
		c0.7-0.2,1.2-0.3,1.8-0.5c0-0.6,0-1,0.1-1.4c-0.4-0.3-0.7-0.6-1-0.9c-0.4,0.3-0.7,0.5-1.2,0.9c0,0.4,0.1,0.9,0.2,1.6
		c-1.3-2.4-2.5-4.7-3.8-7c0-0.3,0-0.9,0-1.4c0.3-0.7,0.5-1.2,0.8-2c3.1-3.3,7.9-3,11.3,0.6C-81.7-25.9-81.5-25.3-81.2-24.5z
		 M-91.4-25.2c1.1,0,1.8-0.3,2-1.3c-0.5-0.7-0.8-1.5-1.8-1.3c-0.4,0.4-0.7,0.6-1.2,1C-92-26.2-91.7-25.7-91.4-25.2z M-93.4-24.1
		c0.6,1.4,1.2,1.6,2.6,0.9c0.5-0.9-0.4-1.2-0.7-1.8c-0.3,0-0.7,0-1.1,0C-92.8-24.7-93.1-24.4-93.4-24.1z M-85.7-27c0,0.5,0,1,0,1.6
		c0.6,0.2,1.2,0.3,1.7,0.5c0.4-0.6,0.7-0.9,0.9-1.3C-84.3-27.6-84.4-27.6-85.7-27z M-83.6-22.2c0.6-0.2,1.2-0.4,1.7-0.5
		c0-0.6,0-1.1,0-1.7c-0.6-0.1-1.2-0.2-1.8-0.2c-0.4,0.3-0.7,0.5-1.1,0.8C-84.3-23.2-84.1-22.8-83.6-22.2z"/>
	<path class="st0" d="M-112.7-60.2c-0.3,0.4-0.4,0.7-0.6,0.9c-0.4,0-0.7,0-1.1,0c-0.2-0.3-0.4-0.6-0.6-0.9c0.2-0.3,0.4-0.7,0.6-1
		c0.4,0,0.7,0,1.2,0C-113.1-60.9-112.9-60.6-112.7-60.2z"/>
</g>
</svg>
