<?xml version="1.0" encoding="utf-8"?>
<!-- Generator: Adobe Illustrator 21.0.1, SVG Export Plug-In . SVG Version: 6.00 Build 0)  -->
<svg version="1.1" id="Layer_1" xmlns="http://www.w3.org/2000/svg" xmlns:xlink="http://www.w3.org/1999/xlink" x="0px" y="0px"
	 viewBox="0 0 20 20" style="enable-background:new 0 0 20 20;" xml:space="preserve">
<style type="text/css">
	.st0{display:none;fill:none;}
	.st1{fill:#CC44CC;}
</style>
<image style="display:none;overflow:visible;" width="39" height="35" xlink:href="2D5E01CF.jpg"  transform="matrix(0.5679 0 0 0.5679 -1.4482 -1.0625)">
</image>
<polyline class="st0" points="5.4375,5.9263 8.8125,10 6.5264,14.9733 "/>
<path class="st1" d="M10,0.9688c-4.9878,0-9.0313,4.0434-9.0313,9.0313S5.0122,19.0313,10,19.0313S19.0313,14.9878,19.0313,10
	S14.9878,0.9688,10,0.9688z M8.6459,16.5634l-2.0212-1.4296L6.5802,11.176L3.4579,8.7432l0.0868-2.4741l5.1011,3.8832V16.5634z
	 M4.2196,4.8034l2.153-1.222l3.6015,2.4179l3.5291-2.5686l2.2027,1.13l-5.683,4.0072L4.2196,4.8034z M13.4256,11.177l-0.0352,3.9581
	l-2.0178,1.4342l-0.015-6.411l5.0921-3.8952l0.0925,2.474L13.4256,11.177z"/>
</svg>
