<?xml version="1.0" encoding="utf-8"?>
<!-- Generator: Adobe Illustrator 21.0.1, SVG Export Plug-In . SVG Version: 6.00 Build 0)  -->
<svg version="1.1" id="Layer_1" xmlns="http://www.w3.org/2000/svg" xmlns:xlink="http://www.w3.org/1999/xlink" x="0px" y="0px"
	 viewBox="0 0 174 40" style="enable-background:new 0 0 174 40;" xml:space="preserve">
<style type="text/css">
	.st0{display:none;fill:#24373D;}
	.st1{display:none;fill:#F6F6F6;}
	.st2{display:none;fill:#7289DA;}
	.st3{fill:#3659B2;}
	.st4{fill:#179BD7;}
	.st5{fill:#334696;}
</style>
<rect class="st0" width="174" height="40.1"/>
<path class="st1" d="M58.929,10.951c-4.239,0-6.41,2.275-6.41,5.997v6.204c0,3.722,2.585,5.997,6.41,5.997s6.41-2.275,6.41-5.997
	v-6.204C65.34,13.226,62.755,10.951,58.929,10.951z M61.411,23.048c0,1.551-0.931,2.585-2.481,2.585
	c-1.551,0-2.481-1.034-2.481-2.585v-6.1c0-1.551,0.931-2.585,2.481-2.585c1.551,0,2.481,1.034,2.481,2.585V23.048z M73.404,23.255
	l-2.792-11.993h-4.136l4.653,17.68h4.239l4.653-17.68h-3.929L73.404,23.255z M85.811,21.601h6.307v-3.412h-6.307v-3.515h7.134
	v-3.515H81.882v17.68h11.27v-3.515h-7.444v-3.722H85.811z M108.144,16.845c0-3.412-2.585-5.583-6.1-5.583H95.53v17.68h3.929v-6.307
	h2.275l2.275,6.307h4.239l-2.792-7.134C107.214,20.774,108.144,19.016,108.144,16.845z M101.63,19.223h-2.171v-4.549h2.171
	c1.551,0,2.585,0.931,2.585,2.275C104.215,18.292,103.285,19.223,101.63,19.223z M122.205,22.221l-1.861-10.96h-3.619l-1.758,10.96
	l-1.654-10.96h-3.929l3.619,17.68h3.619l1.964-11.166l1.964,11.166h3.619l3.619-17.68h-3.722L122.205,22.221z M135.44,10.951
	c-4.239,0-6.41,2.275-6.41,5.997v6.204c0,3.722,2.585,5.997,6.41,5.997c3.826,0,6.41-2.275,6.41-5.997v-6.204
	C141.85,13.226,139.265,10.951,135.44,10.951z M137.921,23.048c0,1.551-0.931,2.585-2.481,2.585c-1.551,0-2.481-1.034-2.481-2.585
	v-6.1c0-1.551,0.931-2.585,2.481-2.585c1.551,0,2.481,1.034,2.481,2.585V23.048z M148.467,11.262h-3.929v17.68h10.443v-3.515h-6.617
	V11.262H148.467z M167.698,14.674v-3.515h-11.063v17.68h3.929v-6.72h6.307v-3.515h-6.307v-3.929H167.698z"/>
<path class="st1" d="M18.554,8.48L9.446,1.417l1.301,14.312l-3.903,5.483l1.766,5.297c1.859,0.743,3.624,1.766,5.111,3.067
	c0.186-1.487,0.465-3.903,0.743-5.018l-2.974,0.558C12.42,19.074,14.929,13.498,18.554,8.48z M21.714,22.42l-7.063-3.532
	C16.138,22.699,16.695,23.256,21.714,22.42z M36.955,15.729l1.208-14.312C29.52,8.015,26.732,9.037,23.479,17.216l4.461-0.836
	c-5.576,5.855-8.922,13.661-9.572,19.702l1.115,2.602h8.643c1.301-3.067,3.346-9.293,10.873-12.174l1.766-5.297L36.955,15.729z
	 M23.851,35.709l-2.695-3.996h5.483L23.851,35.709z M25.803,22.42l7.063-3.532C31.379,22.699,30.821,23.256,25.803,22.42z"/>
<path class="st2" d="M60.298,9.61h-7.779v8.734l5.183,4.649v-8.48h2.773c1.761,0,2.613,0.851,2.613,2.202v6.488
	c0,1.35-0.822,2.261-2.613,2.261h-7.956v4.932h7.779c4.169,0.029,8.073-2.055,8.073-6.84v-6.988
	C68.371,11.725,64.468,9.61,60.298,9.61z M101.049,23.585v-7.163c0-2.584,4.638-3.171,6.047-0.588l4.287-1.732
	c-1.674-3.699-4.756-4.785-7.31-4.785c-4.169,0-8.278,2.407-8.278,7.105v7.163c0,4.726,4.11,7.105,8.19,7.105
	c2.613,0,5.754-1.292,7.486-4.668l-4.58-2.114C105.746,26.785,101.049,26.08,101.049,23.585z M86.868,17.39
	c-1.615-0.353-2.7-0.939-2.759-1.938c0.088-2.408,3.817-2.495,5.988-0.176l3.435-2.642c-2.142-2.613-4.579-3.317-7.104-3.317
	c-3.816,0-7.515,2.143-7.515,6.223c0,3.964,3.052,6.077,6.399,6.606c1.703,0.235,3.611,0.909,3.553,2.084
	c-0.147,2.232-4.727,2.114-6.811-0.411l-3.318,3.112c1.938,2.495,4.58,3.758,7.076,3.758c3.816,0,8.043-2.202,8.22-6.224
	C94.267,19.357,90.567,18.065,86.868,17.39z M71.192,30.396h5.255V9.61h-5.255V30.396z M159.625,9.61h-7.779v8.734l5.183,4.649
	v-8.48h2.774c1.761,0,2.612,0.851,2.612,2.202v6.488c0,1.35-0.823,2.261-2.612,2.261h-7.956v4.932h7.779
	c4.169,0.029,8.073-2.055,8.073-6.84v-6.988C167.698,11.725,163.794,9.61,159.625,9.61z M121.483,9.318
	c-4.316,0-8.601,2.348-8.601,7.133v7.105c0,4.755,4.315,7.134,8.63,7.134c4.316,0,8.602-2.378,8.602-7.134v-7.105
	C130.113,11.695,125.798,9.318,121.483,9.318z M124.859,23.556c0,1.497-1.674,2.26-3.347,2.26c-1.674,0-3.376-0.734-3.376-2.26
	v-7.105c0-1.527,1.644-2.348,3.288-2.348c1.702,0,3.435,0.734,3.435,2.348V23.556z M148.932,16.451
	c-0.118-4.873-3.435-6.841-7.721-6.841h-8.308v20.785h5.314v-6.605h0.939l4.814,6.605h6.547l-5.666-7.134
	C147.376,22.469,148.932,20.297,148.932,16.451z M141.299,19.27h-3.082v-4.756h3.082C144.616,14.513,144.616,19.27,141.299,19.27z"
	/>
<path class="st2" d="M30.195,30.121c0.896,1.126,1.964,2.41,1.964,2.41c6.619-0.201,9.148-4.53,9.148-4.53
	c0-9.561-4.314-17.313-4.314-17.313c-4.314-3.221-8.405-3.119-8.405-3.119l-0.419,0.478c5.112,1.538,7.467,3.776,7.467,3.776
	c-3.116-1.689-6.183-2.534-9.029-2.853c-2.173-0.242-4.218-0.177-6.06,0.054c-0.17,0.022-0.335,0.047-0.503,0.071
	c-1.049,0.101-3.583,0.478-6.801,1.879c-1.135,0.479-1.779,0.849-1.779,0.849s2.46-2.367,7.867-3.905l-0.309-0.35
	c0,0-4.089-0.102-8.406,3.119c0,0-4.312,7.752-4.312,17.313c0,0,2.53,4.329,9.149,4.53c0,0,1.097-1.32,2-2.455
	c-3.811-1.118-5.251-3.491-5.251-3.491s0.292,0.202,0.826,0.507c0.043,0.026,0.086,0.049,0.132,0.074
	c0.086,0.049,0.18,0.099,0.278,0.152c0.776,0.425,1.514,0.762,2.201,1.023c1.21,0.485,2.695,0.963,4.398,1.278
	c2.259,0.416,4.899,0.545,7.766,0.016c1.404-0.257,2.86-0.672,4.355-1.287c1.051-0.398,2.218-0.958,3.456-1.763
	C35.613,26.584,34.13,29.027,30.195,30.121z M18.234,25.228c-1.696,0-3.069-1.472-3.069-3.289c0-1.816,1.373-3.288,3.069-3.288
	c1.694,0,3.066,1.472,3.066,3.288C21.3,23.756,19.928,25.228,18.234,25.228z M29.155,25.228c-1.694,0-3.066-1.472-3.066-3.289
	c0-1.816,1.373-3.288,3.066-3.288c1.696,0,3.069,1.472,3.069,3.288C32.223,23.756,30.851,25.228,29.155,25.228z"/>
<g>
	<path class="st3" d="M66.443,7.163h-8.938c-0.612,0-1.132,0.444-1.227,1.048l-3.615,22.919c-0.072,0.452,0.278,0.86,0.737,0.86
		h4.267c0.612,0,1.132-0.444,1.227-1.049l0.975-6.182c0.094-0.605,0.616-1.049,1.226-1.049h2.829c5.887,0,9.285-2.849,10.173-8.495
		c0.4-2.47,0.017-4.411-1.14-5.77C71.688,7.952,69.435,7.163,66.443,7.163z M67.474,15.533c-0.489,3.207-2.939,3.207-5.309,3.207
		h-1.349l0.946-5.989c0.056-0.362,0.37-0.629,0.736-0.629h0.618c1.614,0,3.137,0,3.923,0.92
		C67.51,13.591,67.653,14.407,67.474,15.533z"/>
	<path class="st3" d="M93.16,15.43h-4.28c-0.365,0-0.68,0.267-0.736,0.629l-0.189,1.197l-0.299-0.434
		c-0.927-1.345-2.993-1.794-5.055-1.794c-4.73,0-8.769,3.582-9.556,8.607c-0.409,2.507,0.173,4.903,1.594,6.575
		c1.304,1.537,3.17,2.177,5.391,2.177c3.811,0,5.924-2.45,5.924-2.45l-0.191,1.189c-0.072,0.455,0.278,0.863,0.734,0.863h3.855
		c0.613,0,1.13-0.444,1.227-1.049l2.313-14.649C93.966,15.839,93.617,15.43,93.16,15.43z M87.194,23.76
		c-0.413,2.445-2.354,4.087-4.829,4.087c-1.243,0-2.236-0.399-2.874-1.154c-0.633-0.75-0.873-1.818-0.672-3.007
		c0.386-2.424,2.359-4.119,4.796-4.119c1.215,0,2.203,0.404,2.854,1.166C87.122,21.502,87.381,22.576,87.194,23.76z"/>
	<path class="st3" d="M115.954,15.43h-4.301c-0.41,0-0.796,0.204-1.029,0.545l-5.932,8.738l-2.514-8.397
		c-0.158-0.525-0.643-0.886-1.192-0.886H96.76c-0.514,0-0.87,0.502-0.707,0.985l4.737,13.903l-4.454,6.287
		c-0.35,0.495,0.003,1.176,0.608,1.176h4.296c0.408,0,0.789-0.199,1.021-0.533L116.566,16.6
		C116.908,16.106,116.557,15.43,115.954,15.43z"/>
	<path class="st4" d="M130.194,7.163h-8.939c-0.61,0-1.13,0.444-1.226,1.048l-3.615,22.919c-0.072,0.452,0.278,0.86,0.734,0.86
		h4.587c0.426,0,0.791-0.311,0.857-0.734l1.026-6.496c0.094-0.605,0.616-1.049,1.226-1.049h2.828c5.889,0,9.285-2.849,10.174-8.495
		c0.401-2.47,0.016-4.411-1.141-5.77C135.437,7.952,133.185,7.163,130.194,7.163z M131.225,15.533
		c-0.487,3.207-2.938,3.207-5.309,3.207h-1.347l0.947-5.989c0.056-0.362,0.367-0.629,0.734-0.629h0.618c1.613,0,3.137,0,3.923,0.92
		C131.262,13.591,131.404,14.407,131.225,15.533z"/>
	<path class="st4" d="M156.909,15.43h-4.277c-0.367,0-0.68,0.267-0.734,0.629l-0.189,1.197l-0.301-0.434
		c-0.927-1.345-2.991-1.794-5.054-1.794c-4.73,0-8.768,3.582-9.555,8.607c-0.408,2.507,0.171,4.903,1.593,6.575
		c1.307,1.537,3.17,2.177,5.391,2.177c3.811,0,5.924-2.45,5.924-2.45l-0.191,1.189c-0.072,0.455,0.278,0.863,0.737,0.863h3.854
		c0.61,0,1.13-0.444,1.226-1.049l2.314-14.649C157.718,15.839,157.368,15.43,156.909,15.43z M150.943,23.76
		c-0.41,2.445-2.354,4.087-4.829,4.087c-1.24,0-2.236-0.399-2.874-1.154c-0.633-0.75-0.87-1.818-0.672-3.007
		c0.388-2.424,2.359-4.119,4.796-4.119c1.215,0,2.203,0.404,2.854,1.166C150.874,21.502,151.133,22.576,150.943,23.76z"/>
	<path class="st4" d="M161.955,7.791l-3.668,23.338c-0.072,0.452,0.278,0.86,0.734,0.86h3.688c0.613,0,1.133-0.444,1.227-1.049
		l3.617-22.917c0.072-0.452-0.278-0.861-0.734-0.861h-4.13C162.325,7.163,162.011,7.429,161.955,7.791z"/>
</g>
<g>
	<path class="st3" d="M17.217,36.83l0.624-3.963l-1.39-0.032H9.815l4.612-29.243c0.014-0.088,0.061-0.171,0.129-0.229
		s0.155-0.091,0.246-0.091h11.19c3.715,0,6.279,0.773,7.617,2.299c0.628,0.716,1.027,1.464,1.22,2.287
		c0.203,0.864,0.206,1.896,0.008,3.154l-0.014,0.092v0.806l0.627,0.356c0.528,0.28,0.948,0.601,1.271,0.969
		c0.537,0.612,0.884,1.39,1.031,2.312c0.152,0.948,0.101,2.077-0.147,3.355c-0.286,1.47-0.749,2.75-1.374,3.797
		c-0.575,0.965-1.307,1.766-2.177,2.386c-0.83,0.589-1.817,1.037-2.932,1.323c-1.081,0.282-2.313,0.424-3.665,0.424h-0.871
		c-0.623,0-1.228,0.224-1.702,0.626c-0.476,0.41-0.791,0.971-0.888,1.584l-0.066,0.357l-1.102,6.985l-0.05,0.256
		c-0.013,0.081-0.036,0.122-0.069,0.149c-0.03,0.025-0.073,0.042-0.115,0.042C22.594,36.83,17.217,36.83,17.217,36.83z"/>
	<path class="st4" d="M36.044,11.196L36.044,11.196L36.044,11.196c-0.033,0.214-0.072,0.432-0.115,0.656
		c-1.476,7.576-6.524,10.194-12.972,10.194h-3.283c-0.789,0-1.453,0.573-1.576,1.35l0,0l0,0l-1.681,10.66l-0.476,3.022
		c-0.08,0.511,0.314,0.971,0.829,0.971h5.823c0.69,0,1.275-0.501,1.384-1.181l0.057-0.296l1.096-6.957l0.07-0.382
		c0.107-0.682,0.694-1.183,1.384-1.183h0.871c5.642,0,10.058-2.29,11.349-8.919c0.539-2.769,0.26-5.081-1.167-6.707
		C37.206,11.935,36.671,11.528,36.044,11.196z"/>
	<path class="st5" d="M34.501,10.581c-0.225-0.066-0.458-0.125-0.697-0.179c-0.24-0.052-0.486-0.099-0.738-0.14
		c-0.885-0.143-1.855-0.211-2.894-0.211h-8.771c-0.216,0-0.421,0.049-0.605,0.137c-0.404,0.194-0.705,0.577-0.778,1.046
		l-1.866,11.817l-0.054,0.345c0.123-0.778,0.787-1.35,1.576-1.35h3.283c6.448,0,11.497-2.619,12.972-10.194
		c0.044-0.224,0.081-0.443,0.115-0.656c-0.373-0.198-0.778-0.367-1.213-0.512C34.724,10.649,34.613,10.614,34.501,10.581z"/>
	<path class="st3" d="M20.018,11.235c0.073-0.469,0.373-0.852,0.778-1.045c0.185-0.088,0.389-0.137,0.605-0.137h8.771
		c1.039,0,2.009,0.068,2.894,0.211c0.253,0.041,0.499,0.087,0.738,0.14c0.239,0.054,0.471,0.113,0.697,0.179
		c0.112,0.033,0.223,0.068,0.332,0.103c0.435,0.144,0.84,0.315,1.213,0.512c0.439-2.8-0.004-4.706-1.517-6.432
		c-1.669-1.9-4.681-2.714-8.536-2.714h-11.19c-0.787,0-1.459,0.573-1.581,1.352L8.561,32.945c-0.092,0.585,0.359,1.112,0.948,1.112
		h6.908l1.735-11.005L20.018,11.235z"/>
</g>
</svg>
