<?xml version="1.0" encoding="utf-8"?>
<!-- Generator: Adobe Illustrator 21.0.1, SVG Export Plug-In . SVG Version: 6.00 Build 0)  -->
<svg version="1.1" id="Layer_1" xmlns="http://www.w3.org/2000/svg" xmlns:xlink="http://www.w3.org/1999/xlink" x="0px" y="0px"
	 viewBox="0 0 174 40" style="enable-background:new 0 0 174 40;" xml:space="preserve">
<style type="text/css">
	.st0{display:none;fill:#24373D;}
	.st1{display:none;fill:#F6F6F6;}
	.st2{fill:#7289DA;}
</style>
<rect class="st0" width="174" height="40.1"/>
<path class="st1" d="M58.929,10.951c-4.239,0-6.41,2.275-6.41,5.997v6.204c0,3.722,2.585,5.997,6.41,5.997s6.41-2.275,6.41-5.997
	v-6.204C65.34,13.226,62.755,10.951,58.929,10.951z M61.411,23.048c0,1.551-0.931,2.585-2.481,2.585
	c-1.551,0-2.481-1.034-2.481-2.585v-6.1c0-1.551,0.931-2.585,2.481-2.585c1.551,0,2.481,1.034,2.481,2.585V23.048z M73.404,23.255
	l-2.792-11.993h-4.136l4.653,17.68h4.239l4.653-17.68h-3.929L73.404,23.255z M85.811,21.601h6.307v-3.412h-6.307v-3.515h7.134
	v-3.515H81.882v17.68h11.27v-3.515h-7.444v-3.722H85.811z M108.144,16.845c0-3.412-2.585-5.583-6.1-5.583H95.53v17.68h3.929v-6.307
	h2.275l2.275,6.307h4.239l-2.792-7.134C107.214,20.774,108.144,19.016,108.144,16.845z M101.63,19.223h-2.171v-4.549h2.171
	c1.551,0,2.585,0.931,2.585,2.275C104.215,18.292,103.285,19.223,101.63,19.223z M122.205,22.221l-1.861-10.96h-3.619l-1.758,10.96
	l-1.654-10.96h-3.929l3.619,17.68h3.619l1.964-11.166l1.964,11.166h3.619l3.619-17.68h-3.722L122.205,22.221z M135.44,10.951
	c-4.239,0-6.41,2.275-6.41,5.997v6.204c0,3.722,2.585,5.997,6.41,5.997c3.826,0,6.41-2.275,6.41-5.997v-6.204
	C141.85,13.226,139.265,10.951,135.44,10.951z M137.921,23.048c0,1.551-0.931,2.585-2.481,2.585c-1.551,0-2.481-1.034-2.481-2.585
	v-6.1c0-1.551,0.931-2.585,2.481-2.585c1.551,0,2.481,1.034,2.481,2.585V23.048z M148.467,11.262h-3.929v17.68h10.443v-3.515h-6.617
	V11.262H148.467z M167.698,14.674v-3.515h-11.063v17.68h3.929v-6.72h6.307v-3.515h-6.307v-3.929H167.698z"/>
<path class="st1" d="M18.554,8.48L9.446,1.417l1.301,14.312l-3.903,5.483l1.766,5.297c1.859,0.743,3.624,1.766,5.111,3.067
	c0.186-1.487,0.465-3.903,0.743-5.018l-2.974,0.558C12.42,19.074,14.929,13.498,18.554,8.48z M21.714,22.42l-7.063-3.532
	C16.138,22.699,16.695,23.256,21.714,22.42z M36.955,15.729l1.208-14.312C29.52,8.015,26.732,9.037,23.479,17.216l4.461-0.836
	c-5.576,5.855-8.922,13.661-9.572,19.702l1.115,2.602h8.643c1.301-3.067,3.346-9.293,10.873-12.174l1.766-5.297L36.955,15.729z
	 M23.851,35.709l-2.695-3.996h5.483L23.851,35.709z M25.803,22.42l7.063-3.532C31.379,22.699,30.821,23.256,25.803,22.42z"/>
<path class="st2" d="M60.298,9.61h-7.779v8.734l5.183,4.649v-8.48h2.773c1.761,0,2.613,0.851,2.613,2.202v6.488
	c0,1.35-0.822,2.261-2.613,2.261h-7.956v4.932h7.779c4.169,0.029,8.073-2.055,8.073-6.84v-6.988
	C68.371,11.725,64.468,9.61,60.298,9.61z M101.049,23.585v-7.163c0-2.584,4.638-3.171,6.047-0.588l4.287-1.732
	c-1.674-3.699-4.756-4.785-7.31-4.785c-4.169,0-8.278,2.407-8.278,7.105v7.163c0,4.726,4.11,7.105,8.19,7.105
	c2.613,0,5.754-1.292,7.486-4.668l-4.58-2.114C105.746,26.785,101.049,26.08,101.049,23.585z M86.868,17.39
	c-1.615-0.353-2.7-0.939-2.759-1.938c0.088-2.408,3.817-2.495,5.988-0.176l3.435-2.642c-2.142-2.613-4.579-3.317-7.104-3.317
	c-3.816,0-7.515,2.143-7.515,6.223c0,3.964,3.052,6.077,6.399,6.606c1.703,0.235,3.611,0.909,3.553,2.084
	c-0.147,2.232-4.727,2.114-6.811-0.411l-3.318,3.112c1.938,2.495,4.58,3.758,7.076,3.758c3.816,0,8.043-2.202,8.22-6.224
	C94.267,19.357,90.567,18.065,86.868,17.39z M71.192,30.396h5.255V9.61h-5.255V30.396z M159.625,9.61h-7.779v8.734l5.183,4.649
	v-8.48h2.774c1.761,0,2.612,0.851,2.612,2.202v6.488c0,1.35-0.823,2.261-2.612,2.261h-7.956v4.932h7.779
	c4.169,0.029,8.073-2.055,8.073-6.84v-6.988C167.698,11.725,163.794,9.61,159.625,9.61z M121.483,9.318
	c-4.316,0-8.601,2.348-8.601,7.133v7.105c0,4.755,4.315,7.134,8.63,7.134c4.316,0,8.602-2.378,8.602-7.134v-7.105
	C130.113,11.695,125.798,9.318,121.483,9.318z M124.859,23.556c0,1.497-1.674,2.26-3.347,2.26c-1.674,0-3.376-0.734-3.376-2.26
	v-7.105c0-1.527,1.644-2.348,3.288-2.348c1.702,0,3.435,0.734,3.435,2.348V23.556z M148.932,16.451
	c-0.118-4.873-3.435-6.841-7.721-6.841h-8.308v20.785h5.314v-6.605h0.939l4.814,6.605h6.547l-5.666-7.134
	C147.376,22.469,148.932,20.297,148.932,16.451z M141.299,19.27h-3.082v-4.756h3.082C144.616,14.513,144.616,19.27,141.299,19.27z"
	/>
<path class="st2" d="M30.195,30.121c0.896,1.126,1.964,2.41,1.964,2.41c6.619-0.201,9.148-4.53,9.148-4.53
	c0-9.561-4.314-17.313-4.314-17.313c-4.314-3.221-8.405-3.119-8.405-3.119l-0.419,0.478c5.112,1.538,7.467,3.776,7.467,3.776
	c-3.116-1.689-6.183-2.534-9.029-2.853c-2.173-0.242-4.218-0.177-6.06,0.054c-0.17,0.022-0.335,0.047-0.503,0.071
	c-1.049,0.101-3.583,0.478-6.801,1.879c-1.135,0.479-1.779,0.849-1.779,0.849s2.46-2.367,7.867-3.905l-0.309-0.35
	c0,0-4.089-0.102-8.406,3.119c0,0-4.312,7.752-4.312,17.313c0,0,2.53,4.329,9.149,4.53c0,0,1.097-1.32,2-2.455
	c-3.811-1.118-5.251-3.491-5.251-3.491s0.292,0.202,0.826,0.507c0.043,0.026,0.086,0.049,0.132,0.074
	c0.086,0.049,0.18,0.099,0.278,0.152c0.776,0.425,1.514,0.762,2.201,1.023c1.21,0.485,2.695,0.963,4.398,1.278
	c2.259,0.416,4.899,0.545,7.766,0.016c1.404-0.257,2.86-0.672,4.355-1.287c1.051-0.398,2.218-0.958,3.456-1.763
	C35.613,26.584,34.13,29.027,30.195,30.121z M18.234,25.228c-1.696,0-3.069-1.472-3.069-3.289c0-1.816,1.373-3.288,3.069-3.288
	c1.694,0,3.066,1.472,3.066,3.288C21.3,23.756,19.928,25.228,18.234,25.228z M29.155,25.228c-1.694,0-3.066-1.472-3.066-3.289
	c0-1.816,1.373-3.288,3.066-3.288c1.696,0,3.069,1.472,3.069,3.288C32.223,23.756,30.851,25.228,29.155,25.228z"/>
</svg>
