<svg version="1.1" id="Layer_1" xmlns="http://www.w3.org/2000/svg" x="0" y="0" viewBox="0 0 174 40" xml:space="preserve"><style type="text/css">.st0{fill:#7289da}</style><path class="st0" d="M60.3 9.6h-7.8v8.7l5.2 4.6v-8.5h2.8c1.8 0 2.6.9 2.6 2.2v6.5c0 1.4-.8 2.3-2.6 2.3h-8v4.9h7.8c4.2 0 8.1-2.1 8.1-6.8v-7c0-4.8-3.9-6.9-8.1-6.9zm40.7 14v-7.2c0-2.6 4.6-3.2 6-.6l4.3-1.7c-1.7-3.7-4.8-4.8-7.3-4.8-4.2 0-8.3 2.4-8.3 7.1v7.2c0 4.7 4.1 7.1 8.2 7.1 2.6 0 5.8-1.3 7.5-4.7l-4.6-2.1c-1.1 2.9-5.8 2.2-5.8-.3zm-14.1-6.2c-1.6-.4-2.7-.9-2.8-1.9.1-2.4 3.8-2.5 6-.2l3.4-2.6C91.4 10 89 9.3 86.4 9.3c-3.8 0-7.5 2.1-7.5 6.2 0 4 3.1 6.1 6.4 6.6 1.7.2 3.6.9 3.6 2.1-.1 2.2-4.7 2.1-6.8-.4l-3.3 3.1c1.9 2.5 4.6 3.8 7.1 3.8 3.8 0 8-2.2 8.2-6.2.2-5.1-3.5-6.4-7.2-7.1zm-15.7 13h5.3V9.6h-5.3v20.8zm88.4-20.8h-7.8v8.7L157 23v-8.5h2.8c1.8 0 2.6.9 2.6 2.2v6.5c0 1.4-.8 2.3-2.6 2.3h-8v4.9h7.8c4.2 0 8.1-2.1 8.1-6.8v-7c0-4.9-3.9-7-8.1-7zm-38.1-.3c-4.3 0-8.6 2.3-8.6 7.1v7.1c0 4.8 4.3 7.1 8.6 7.1s8.6-2.4 8.6-7.1v-7.1c0-4.7-4.3-7.1-8.6-7.1zm3.4 14.3c0 1.5-1.7 2.3-3.3 2.3-1.7 0-3.4-.7-3.4-2.3v-7.1c0-1.5 1.6-2.3 3.3-2.3 1.7 0 3.4.7 3.4 2.3v7.1zm24-7.1c-.1-4.9-3.4-6.8-7.7-6.8h-8.3v20.8h5.3v-6.6h.9l4.8 6.6h6.5l-5.7-7.1c2.7-.9 4.2-3.1 4.2-6.9zm-7.6 2.8h-3.1v-4.8h3.1c3.3 0 3.3 4.8 0 4.8zM30.2 30.1c.9 1.1 2 2.4 2 2.4 6.6-.2 9.1-4.5 9.1-4.5 0-9.6-4.3-17.3-4.3-17.3-4.3-3.2-8.4-3.1-8.4-3.1l-.4.4c5.1 1.5 7.5 3.8 7.5 3.8-3.1-1.7-6.2-2.5-9-2.9-2.2-.2-4.2-.2-6.1.1-.2 0-.3 0-.5.1-1 .1-3.6.5-6.8 1.9-1.1.5-1.8.8-1.8.8s2.5-2.4 7.9-3.9l-.4-.3s-4.1-.1-8.4 3.1c0 0-4.3 7.8-4.3 17.3 0 0 2.5 4.3 9.1 4.5 0 0 1.1-1.3 2-2.5-3.8-1.1-5.3-3.5-5.3-3.5s.3.2.8.5c0 0 .1 0 .1.1.1 0 .2.1.3.2.8.4 1.5.8 2.2 1 1.2.5 2.7 1 4.4 1.3 2.3.4 4.9.5 7.8 0 1.4-.3 2.9-.7 4.4-1.3 1.1-.4 2.2-1 3.5-1.8 0 .1-1.5 2.5-5.4 3.6zm-12-4.9c-1.7 0-3.1-1.5-3.1-3.3 0-1.8 1.4-3.3 3.1-3.3 1.7 0 3.1 1.5 3.1 3.3 0 1.9-1.4 3.3-3.1 3.3zm11 0c-1.7 0-3.1-1.5-3.1-3.3 0-1.8 1.4-3.3 3.1-3.3 1.7 0 3.1 1.5 3.1 3.3-.1 1.9-1.4 3.3-3.1 3.3z"/></svg>