<?xml version="1.0" encoding="utf-8"?>
<!-- Generator: Adobe Illustrator 21.0.1, SVG Export Plug-In . SVG Version: 6.00 Build 0)  -->
<svg version="1.1" id="Layer_1" xmlns="http://www.w3.org/2000/svg" xmlns:xlink="http://www.w3.org/1999/xlink" x="0px" y="0px"
	 viewBox="0 0 174 40" style="enable-background:new 0 0 174 40;" xml:space="preserve">
<style type="text/css">
	.st0{display:none;fill:#24373D;}
	.st1{fill:none;}
	.st2{fill:#FF6C10;}
	.st3{fill:#FFFFFF;}
</style>
<rect class="st0" width="174" height="40.1"/>
<g>
	<path class="st1" d="M123.695,9.973c-1.729,0-3.062,0.785-4.001,2.356c-0.442,0.739-0.777,1.645-1.013,2.708h10.026
		c-0.233-1.046-0.562-1.944-0.994-2.677C126.775,10.769,125.435,9.973,123.695,9.973z"/>
	<polygon class="st1" points="57.93,27.359 58.548,24.963 57.315,24.963 	"/>
	<path class="st1" d="M119.677,27.6c0.938,1.644,2.289,2.466,4.052,2.466c1.729,0,3.056-0.792,3.984-2.376
		c0.437-0.746,0.768-1.659,1.002-2.727h-10.015C118.932,25.975,119.254,26.859,119.677,27.6z"/>
	<path class="st1" d="M23.278,10.274h-2.542v4.763h8.244c-0.26-0.961-0.617-1.789-1.084-2.467
		C26.843,11.039,25.304,10.274,23.278,10.274z"/>
	<path class="st1" d="M20.736,29.765h2.49c2.015,0,3.554-0.768,4.619-2.305c0.481-0.695,0.85-1.532,1.118-2.496h-8.227V29.765z"/>
	<path class="st2" d="M27.845,27.46c-1.065,1.538-2.604,2.305-4.619,2.305h-2.49v-4.802h-5.152v9.635h7.744
		c2.186-0.013,4.15-0.602,5.89-1.765c1.74-1.162,3.088-2.801,4.044-4.913c0.418-0.925,0.728-1.917,0.964-2.957h-5.263
		C28.695,25.928,28.326,26.765,27.845,27.46z"/>
	<path class="st2" d="M20.736,10.274h2.542c2.026,0,3.566,0.765,4.619,2.296c0.467,0.679,0.824,1.507,1.084,2.467h5.235
		c-0.239-1.041-0.554-2.038-0.979-2.968c-0.973-2.132-2.327-3.777-4.061-4.933c-1.734-1.156-3.7-1.735-5.898-1.735h-7.693v9.636
		h5.152V10.274z"/>
	<rect x="38.766" y="24.963" class="st2" width="5.151" height="9.635"/>
	<rect x="38.766" y="5.401" class="st2" width="5.151" height="9.636"/>
	<polygon class="st2" points="69.331,5.401 63.596,5.401 61.109,15.037 66.458,15.037 	"/>
	<polygon class="st2" points="52.297,5.401 46.579,5.401 49.441,15.037 54.769,15.037 	"/>
	<polygon class="st2" points="57.93,27.359 57.315,24.963 52.389,24.963 55.251,34.599 60.625,34.599 63.498,24.963 58.548,24.963 	
		"/>
	<rect x="72.01" y="5.401" class="st2" width="5.151" height="9.636"/>
	<rect x="72.01" y="24.963" class="st2" width="5.151" height="9.635"/>
	<path class="st2" d="M94.899,26.939c0,1.043-0.343,1.855-1.031,2.436c-0.687,0.582-1.642,0.872-2.867,0.872
		c-3.298,0-4.946-1.611-4.946-4.833h-5.169c0,1.885,0.415,3.543,1.245,4.973c0.83,1.431,2.034,2.557,3.614,3.379
		C87.326,34.588,89.078,35,91.001,35c2.769,0,4.974-0.718,6.611-2.156c1.636-1.437,2.455-3.418,2.455-5.945
		c0-0.68-0.067-1.322-0.187-1.935h-5.488C94.722,25.498,94.899,26.15,94.899,26.939z"/>
	<path class="st2" d="M86.811,13.182c0-1.016,0.349-1.835,1.048-2.456c0.698-0.622,1.677-0.933,2.936-0.933
		c1.305,0,2.319,0.371,3.04,1.113c0.721,0.742,1.081,1.782,1.081,3.119h5.151c0-1.751-0.386-3.315-1.159-4.692
		c-0.772-1.377-1.857-2.443-3.254-3.198C94.258,5.378,92.667,5,90.881,5c-1.774,0-3.374,0.348-4.8,1.043
		c-1.425,0.695-2.518,1.661-3.28,2.898c-0.761,1.237-1.142,2.644-1.142,4.221c0,0.656,0.079,1.277,0.212,1.875h5.615
		C87.038,14.503,86.811,13.885,86.811,13.182z"/>
	<rect x="103.879" y="5.401" class="st2" width="5.152" height="9.636"/>
	<rect x="103.879" y="24.963" class="st2" width="5.152" height="9.635"/>
	<path class="st2" d="M127.713,27.69c-0.927,1.584-2.255,2.376-3.984,2.376c-1.763,0-3.114-0.822-4.052-2.466
		c-0.423-0.741-0.745-1.624-0.978-2.636h-5.262c0.225,1.174,0.543,2.281,0.968,3.309c0.893,2.158,2.152,3.82,3.778,4.983
		c1.626,1.163,3.474,1.745,5.547,1.745c2.095,0,3.952-0.589,5.572-1.765c1.619-1.176,2.864-2.848,3.734-5.013
		c0.404-1.007,0.705-2.098,0.921-3.258h-5.243C128.481,26.031,128.15,26.944,127.713,27.69z"/>
	<path class="st2" d="M119.694,12.329c0.938-1.571,2.272-2.356,4.001-2.356c1.74,0,3.08,0.795,4.018,2.386
		c0.433,0.734,0.761,1.631,0.994,2.677h5.237c-0.22-1.152-0.524-2.241-0.933-3.249c-0.888-2.186-2.141-3.863-3.76-5.033
		C127.63,5.585,125.779,5,123.695,5c-2.084,0-3.935,0.585-5.555,1.754c-1.62,1.17-2.873,2.848-3.76,5.033
		c-0.409,1.007-0.712,2.096-0.933,3.249h5.235C118.918,13.975,119.253,13.068,119.694,12.329z"/>
	<polygon class="st2" points="143.236,5.401 138.085,5.401 138.085,15.037 148.264,15.037 	"/>
	<rect x="153.281" y="5.401" class="st2" width="5.134" height="9.636"/>
	<polygon class="st2" points="153.264,34.599 158.415,34.599 158.415,24.963 148.235,24.963 	"/>
	<rect x="138.085" y="24.963" class="st2" width="5.151" height="9.635"/>
</g>
<g>
	<path class="st3" d="M45.815,23.75v-7.528h2.637c0.913,0,1.606,0.175,2.078,0.525c0.472,0.35,0.708,0.863,0.708,1.538
		c0,0.369-0.095,0.694-0.284,0.975c-0.19,0.281-0.453,0.487-0.791,0.618c0.386,0.097,0.69,0.291,0.913,0.584
		c0.222,0.293,0.333,0.651,0.333,1.075c0,0.724-0.231,1.272-0.693,1.644c-0.462,0.372-1.12,0.562-1.975,0.569H45.815z
		 M47.366,19.376h1.148c0.782-0.014,1.174-0.326,1.174-0.936c0-0.341-0.099-0.587-0.297-0.737s-0.511-0.225-0.938-0.225h-1.086
		V19.376z M47.366,20.472v2.032h1.329c0.365,0,0.651-0.087,0.856-0.261c0.205-0.174,0.308-0.414,0.308-0.721
		c0-0.689-0.357-1.039-1.07-1.05H47.366z"/>
	<path class="st3" d="M67.588,16.222v4.958c0,0.824-0.258,1.475-0.773,1.954s-1.219,0.719-2.112,0.719
		c-0.879,0-1.577-0.233-2.094-0.698c-0.517-0.465-0.781-1.105-0.791-1.918v-5.015h1.551v4.968c0,0.493,0.118,0.852,0.354,1.078
		c0.236,0.226,0.563,0.339,0.98,0.339c0.872,0,1.315-0.458,1.329-1.375v-5.01H67.588z"/>
	<path class="st3" d="M79.827,23.75h-1.551v-7.528h1.551V23.75z"/>
	<path class="st3" d="M92.133,22.504h3.292v1.246h-4.843v-7.528h1.551V22.504z"/>
	<path class="st3" d="M105.633,23.75v-7.528h2.316c0.662,0,1.254,0.149,1.776,0.447c0.522,0.298,0.93,0.722,1.223,1.272
		s0.439,1.174,0.439,1.874v0.346c0,0.7-0.144,1.322-0.432,1.866c-0.288,0.545-0.694,0.967-1.218,1.267s-1.115,0.452-1.773,0.455
		H105.633z M107.184,17.479v5.025h0.75c0.607,0,1.07-0.198,1.391-0.595c0.321-0.396,0.484-0.963,0.491-1.701V19.81
		c0-0.765-0.159-1.345-0.476-1.74s-0.781-0.592-1.391-0.592H107.184z"/>
	<path class="st3" d="M125.735,21.775c0-0.293-0.103-0.518-0.31-0.675c-0.207-0.157-0.579-0.322-1.117-0.496
		c-0.538-0.174-0.963-0.346-1.277-0.514c-0.855-0.462-1.282-1.084-1.282-1.866c0-0.407,0.115-0.769,0.344-1.088
		c0.229-0.319,0.558-0.568,0.987-0.747s0.911-0.269,1.445-0.269c0.538,0,1.017,0.097,1.437,0.292s0.747,0.47,0.98,0.825
		s0.349,0.758,0.349,1.21h-1.551c0-0.345-0.109-0.613-0.326-0.804c-0.217-0.191-0.522-0.287-0.915-0.287
		c-0.379,0-0.674,0.08-0.884,0.24c-0.21,0.16-0.315,0.371-0.315,0.633c0,0.245,0.123,0.45,0.37,0.615s0.609,0.321,1.088,0.465
		c0.882,0.265,1.525,0.595,1.928,0.987c0.403,0.393,0.605,0.882,0.605,1.468c0,0.651-0.246,1.162-0.739,1.533
		c-0.493,0.371-1.156,0.556-1.99,0.556c-0.579,0-1.106-0.106-1.582-0.318c-0.476-0.212-0.838-0.502-1.088-0.871
		c-0.25-0.369-0.375-0.796-0.375-1.282h1.556c0,0.831,0.496,1.246,1.489,1.246c0.369,0,0.657-0.075,0.863-0.225
		S125.735,22.044,125.735,21.775z"/>
</g>
</svg>
