<?xml version="1.0" encoding="utf-8"?>
<!-- Generator: Adobe Illustrator 21.0.1, SVG Export Plug-In . SVG Version: 6.00 Build 0)  -->
<svg version="1.1" id="Layer_1" xmlns="http://www.w3.org/2000/svg" xmlns:xlink="http://www.w3.org/1999/xlink" x="0px" y="0px"
	 viewBox="0 0 174 40" style="enable-background:new 0 0 174 40;" xml:space="preserve">
<style type="text/css">
	.st0{fill:url(#SVGID_1_);}
	.st1{fill:#A89254;}
	.st2{fill:#546AA8;}
</style>
<symbol  id="KraggleSites_Logo_Part" viewBox="-11.421 -14.423 22.843 28.846">
	<linearGradient id="SVGID_1_" gradientUnits="userSpaceOnUse" x1="-8.5752" y1="12.2482" x2="6.6687" y2="-14.1552">
		<stop  offset="0" style="stop-color:#B9CFFF"/>
		<stop  offset="0.71" style="stop-color:#546AA8"/>
	</linearGradient>
	<path class="st0" d="M-1.986,0.823c1.754-1.025,3.761-1.718,5.938-2.04C4.254-1.262,4.521-1.435,4.674-1.7l2.15-3.724
		c0.179-0.309,0.179-0.691,0-1l-2.021-3.5c-0.179-0.309-0.509-0.5-0.866-0.5h-4.041c-0.357,0-0.687,0.191-0.866,0.5l-2.151,3.725
		C-3.274-5.935-3.29-5.616-3.179-5.333C-2.363-3.266-1.974-1.183-1.986,0.823 M-4.808,14.423h0.005H-4.808z M-4.808,14.423
		l-1.667-2.887c-0.503-0.871-1.39-1.428-2.372-1.489c-0.902-0.056-1.761-0.201-2.574-0.417c5.086-2.643,7.035-8.567,4.002-14.66
		c-0.292-0.587-0.254-1.285,0.074-1.853l3.776-6.54c0.357-0.619,1.018-1,1.732-1h7.506c0.715,0,1.375,0.381,1.732,1l3.753,6.5
		c0.357,0.619,0.357,1.381,0,2l-3.75,6.496C7.065,2.158,6.466,2.566,5.791,2.609C-1.391,3.062-5.636,8.241-4.808,14.423
		L-4.808,14.423z"/>
	<path class="st1" d="M2.469-3.542H0.968c-0.25,0-0.481-0.133-0.606-0.35l-0.751-1.3c-0.125-0.217-0.125-0.483,0-0.7l0.751-1.3
		c0.125-0.217,0.356-0.35,0.606-0.35h1.501c0.25,0,0.481,0.133,0.606,0.35l0.751,1.3c0.125,0.217,0.125,0.483,0,0.7l-0.751,1.3
		C2.95-3.676,2.719-3.542,2.469-3.542z"/>
</symbol>
<g>
	<path class="st1" d="M52.684,33.675l1.26-2.709c0.736,0.451,1.521,0.796,2.354,1.035c0.832,0.238,1.669,0.357,2.509,0.357
		c0.853,0,1.507-0.112,1.962-0.338c0.455-0.226,0.682-0.541,0.682-0.945c0-0.364-0.206-0.666-0.62-0.905
		c-0.413-0.238-1.189-0.474-2.326-0.706c-1.437-0.272-2.553-0.608-3.347-1.009c-0.794-0.401-1.354-0.873-1.676-1.417
		c-0.323-0.544-0.485-1.203-0.485-1.979c0-0.88,0.263-1.677,0.791-2.389c0.528-0.712,1.267-1.268,2.218-1.669
		c0.952-0.401,2.041-0.601,3.269-0.601c1.099,0,2.162,0.145,3.191,0.434c1.029,0.29,1.836,0.671,2.419,1.144l-1.242,2.723
		c-0.667-0.457-1.371-0.806-2.111-1.048c-0.74-0.242-1.478-0.363-2.215-0.363c-0.722,0-1.305,0.135-1.75,0.403
		c-0.444,0.269-0.666,0.631-0.666,1.087c0,0.246,0.078,0.45,0.234,0.612c0.156,0.162,0.448,0.322,0.874,0.478
		c0.428,0.157,1.068,0.32,1.921,0.492c1.383,0.286,2.469,0.628,3.259,1.03c0.79,0.401,1.348,0.87,1.675,1.407
		c0.327,0.537,0.491,1.18,0.491,1.929c0,1.408-0.575,2.514-1.726,3.317c-1.15,0.804-2.775,1.205-4.875,1.205
		c-1.131,0-2.252-0.143-3.362-0.426C54.281,34.54,53.379,34.157,52.684,33.675z"/>
	<path class="st1" d="M67.584,35.071V20.589h4.008v14.481H67.584z"/>
	<path class="st1" d="M73.216,23.678v-3.089h13.088v3.089h-4.518v11.392h-4.051V23.678H73.216z"/>
	<path class="st1" d="M87.918,35.071V20.589h10.827v2.93h-6.923v2.722h6.475v2.931h-6.475v2.969h6.923v2.931H87.918z"/>
	<path class="st1" d="M100.004,33.675l1.26-2.709c0.736,0.451,1.521,0.796,2.354,1.035c0.832,0.238,1.669,0.357,2.509,0.357
		c0.853,0,1.507-0.112,1.962-0.338c0.455-0.226,0.682-0.541,0.682-0.945c0-0.364-0.206-0.666-0.62-0.905
		c-0.413-0.238-1.189-0.474-2.326-0.706c-1.437-0.272-2.553-0.608-3.347-1.009c-0.794-0.401-1.354-0.873-1.676-1.417
		c-0.323-0.544-0.485-1.203-0.485-1.979c0-0.88,0.263-1.677,0.791-2.389c0.528-0.712,1.267-1.268,2.218-1.669
		c0.952-0.401,2.041-0.601,3.269-0.601c1.099,0,2.162,0.145,3.191,0.434c1.029,0.29,1.836,0.671,2.419,1.144l-1.242,2.723
		c-0.667-0.457-1.371-0.806-2.111-1.048c-0.74-0.242-1.478-0.363-2.215-0.363c-0.723,0-1.305,0.135-1.75,0.403
		c-0.444,0.269-0.666,0.631-0.666,1.087c0,0.246,0.078,0.45,0.234,0.612c0.156,0.162,0.448,0.322,0.874,0.478
		c0.428,0.157,1.068,0.32,1.921,0.492c1.383,0.286,2.469,0.628,3.259,1.03c0.79,0.401,1.348,0.87,1.675,1.407
		c0.327,0.537,0.491,1.18,0.491,1.929c0,1.408-0.575,2.514-1.726,3.317c-1.15,0.804-2.775,1.205-4.875,1.205
		c-1.131,0-2.252-0.143-3.362-0.426C101.601,34.54,100.699,34.157,100.004,33.675z"/>
</g>
<g>
	<path class="st2" d="M52.684,19.42V4.939h4.552v6.228l6.705-6.228h5.333l-7.627,6.873l7.887,7.609h-5.392l-6.905-6.576v6.576
		H52.684z"/>
	<path class="st2" d="M69.771,19.42V4.939h8.017c2.081,0,3.646,0.376,4.694,1.128c1.048,0.751,1.573,1.826,1.573,3.223
		c0,0.969-0.31,1.81-0.928,2.522c-0.619,0.712-1.496,1.217-2.631,1.514c0.481,0.08,0.916,0.269,1.307,0.568s0.699,0.701,0.928,1.205
		l2.034,4.323h-4.825l-2.223-4.834c-0.26-0.545-0.867-0.818-1.821-0.818h-1.644v5.652H69.771z M74.205,10.938h2.861
		c0.962,0,1.661-0.126,2.099-0.378c0.437-0.252,0.656-0.642,0.656-1.172c0-0.556-0.215-0.955-0.644-1.197
		c-0.43-0.242-1.134-0.362-2.111-0.362h-2.861V10.938z"/>
	<path class="st2" d="M84.681,19.42l8.064-14.482h3.583l8.088,14.482h-4.483l-1.525-2.97h-7.649l-1.525,2.97H84.681z M92.236,13.56
		h4.694l-2.341-4.579L92.236,13.56z"/>
	<path class="st2" d="M104.475,12.202c0-1.498,0.373-2.81,1.118-3.935s1.795-1.993,3.151-2.602c1.356-0.61,2.936-0.914,4.742-0.914
		c1.245,0,2.42,0.136,3.524,0.407c1.104,0.272,2.002,0.645,2.696,1.123l-1.419,2.702c-0.789-0.437-1.551-0.753-2.288-0.949
		c-0.737-0.195-1.527-0.293-2.371-0.293c-1.536,0-2.68,0.368-3.429,1.103c-0.749,0.736-1.124,1.855-1.124,3.359
		c0,1.525,0.393,2.658,1.176,3.397c0.785,0.74,1.993,1.11,3.624,1.11c0.757,0,1.513-0.066,2.27-0.199v-2.562h-3.003v-2.702h7.095
		v7.257c-0.922,0.353-1.951,0.623-3.087,0.812c-1.135,0.189-2.301,0.285-3.5,0.285c-1.876,0-3.502-0.296-4.877-0.889
		c-1.376-0.593-2.436-1.445-3.181-2.558S104.475,13.723,104.475,12.202z"/>
	<path class="st2" d="M122.66,12.202c0-1.498,0.373-2.81,1.118-3.935s1.795-1.993,3.151-2.602c1.356-0.61,2.936-0.914,4.742-0.914
		c1.245,0,2.42,0.136,3.523,0.407c1.104,0.272,2.002,0.645,2.696,1.123l-1.419,2.702c-0.789-0.437-1.551-0.753-2.288-0.949
		c-0.737-0.195-1.527-0.293-2.371-0.293c-1.536,0-2.68,0.368-3.429,1.103c-0.749,0.736-1.124,1.855-1.124,3.359
		c0,1.525,0.393,2.658,1.176,3.397c0.785,0.74,1.993,1.11,3.624,1.11c0.757,0,1.514-0.066,2.27-0.199v-2.562h-3.003v-2.702h7.095
		v7.257c-0.922,0.353-1.951,0.623-3.087,0.812c-1.135,0.189-2.301,0.285-3.5,0.285c-1.876,0-3.502-0.296-4.877-0.889
		c-1.376-0.593-2.436-1.445-3.181-2.558S122.66,13.723,122.66,12.202z"/>
	<path class="st2" d="M141.308,19.42V4.939h4.551v11.393h7.296v3.089H141.308z"/>
	<path class="st2" d="M155.319,19.42V4.939h12.296v2.93h-7.863v2.722h7.354v2.93h-7.354v2.97h7.863v2.93H155.319z"/>
</g>
<g>
	
		<use xlink:href="#KraggleSites_Logo_Part"  width="22.843" height="28.846" id="XMLID_1_" x="-11.421" y="-14.423" transform="matrix(0.8471 0 0 -0.8471 34.6503 25.9316)" style="overflow:visible;"/>
	
		<use xlink:href="#KraggleSites_Logo_Part"  width="22.843" height="28.846" x="-11.421" y="-14.423" transform="matrix(-0.4235 -0.7336 -0.7336 0.4235 20.2688 13.264)" style="overflow:visible;"/>
	
		<use xlink:href="#KraggleSites_Logo_Part"  width="22.843" height="28.846" x="-11.421" y="-14.423" transform="matrix(-0.4235 0.7336 0.7336 0.4235 16.4918 32.0526)" style="overflow:visible;"/>
</g>
<path class="st1" d="M164.586,20.833v11.208h-50.049c-0.241,1.175-0.815,2.198-1.699,3.029h51.748h3.029v-3.029V20.833H164.586z"/>
</svg>
