<svg version="1.1" id="Layer_1" xmlns="http://www.w3.org/2000/svg" x="0" y="0" viewBox="0 0 174 40" xml:space="preserve"><style type="text/css">.st0{fill:#f6f6f6}</style><path class="st0" d="M58.9 11c-4.2 0-6.4 2.3-6.4 6v6.2c0 3.7 2.6 6 6.4 6s6.4-2.3 6.4-6V17c0-3.8-2.5-6-6.4-6zm2.5 12c0 1.6-.9 2.6-2.5 2.6s-2.5-1-2.5-2.6v-6.1c0-1.6.9-2.6 2.5-2.6s2.5 1 2.5 2.6V23zm12 .3l-2.8-12h-4.1L71.2 29h4.2L80 11.3h-3.9l-2.7 12zm12.4-1.7h6.3v-3.4h-6.3v-3.5h7.1v-3.5h-11v17.7h11.3v-3.5h-7.4V21.6zm22.3-4.8c0-3.4-2.6-5.6-6.1-5.6h-6.5v17.7h3.9v-6.3h2.3l2.3 6.3h4.2l-2.8-7.1c1.8-1 2.7-2.8 2.7-5zm-6.5 2.4h-2.2v-4.5h2.2c1.6 0 2.6.9 2.6 2.3 0 1.3-.9 2.2-2.6 2.2zm20.6 3l-1.9-11h-3.6l-1.8 11-1.7-11h-3.9l3.6 17.7h3.6l2-11.2 2 11.2h3.6l3.6-17.7H124l-1.8 11zM135.4 11c-4.2 0-6.4 2.3-6.4 6v6.2c0 3.7 2.6 6 6.4 6 3.8 0 6.4-2.3 6.4-6V17c.1-3.8-2.5-6-6.4-6zm2.5 12c0 1.6-.9 2.6-2.5 2.6s-2.5-1-2.5-2.6v-6.1c0-1.6.9-2.6 2.5-2.6s2.5 1 2.5 2.6V23zm10.6-11.7h-3.9V29H155v-3.5h-6.6V11.3h.1zm19.2 3.4v-3.5h-11.1v17.7h3.9v-6.7h6.3v-3.5h-6.3v-3.9l7.2-.1zM18.6 8.5L9.4 1.4l1.3 14.3-3.9 5.5 1.8 5.3c1.9.7 3.6 1.8 5.1 3.1.2-1.5.5-3.9.7-5l-3 .6c1-6.1 3.5-11.7 7.2-16.7zm3.1 13.9l-7.1-3.5c1.5 3.8 2.1 4.4 7.1 3.5zM37 15.7l1.2-14.3C29.5 8 26.7 9 23.5 17.2l4.5-.8c-5.6 5.8-9 13.6-9.6 19.7l1.1 2.6h8.6c1.3-3.1 3.3-9.3 10.9-12.2l1.8-5.3-3.8-5.5zm-13.1 20l-2.7-4h5.5l-2.8 4zm1.9-13.3l7.1-3.5c-1.5 3.8-2.1 4.4-7.1 3.5z"/></svg>