<svg version="1.1" id="Layer_1" xmlns="http://www.w3.org/2000/svg" x="0" y="0" viewBox="0 0 174 40" xml:space="preserve"><style type="text/css">.st0{fill:#3659b2}.st1{fill:#179bd7}</style><path class="st0" d="M66.4 7.2h-8.9c-.6 0-1.1.4-1.2 1l-3.6 22.9c-.1.5.3.9.7.9h4.3c.6 0 1.1-.4 1.2-1l1-6.2c.1-.6.6-1 1.2-1h2.8c5.9 0 9.3-2.8 10.2-8.5.4-2.5 0-4.4-1.1-5.8-1.3-1.5-3.6-2.3-6.6-2.3zm1.1 8.3c-.5 3.2-2.9 3.2-5.3 3.2h-1.3l.9-6c.1-.4.4-.6.7-.6h.6c1.6 0 3.1 0 3.9.9.5.6.7 1.4.5 2.5zM93.2 15.4h-4.3c-.4 0-.7.3-.7.6l-.2 1.3-.3-.4c-.9-1.3-3-1.8-5.1-1.8-4.7 0-8.8 3.6-9.6 8.6-.4 2.5.2 4.9 1.6 6.6 1.3 1.5 3.2 2.2 5.4 2.2 3.8 0 5.9-2.5 5.9-2.5l-.2 1.2c0 .4.3.8.8.8h3.9c.6 0 1.1-.4 1.2-1l2.3-14.6c.1-.6-.3-1-.7-1zm-6 8.4c-.4 2.4-2.4 4.1-4.8 4.1-1.2 0-2.2-.4-2.9-1.2-.6-.8-.9-1.8-.7-3 .4-2.4 2.4-4.1 4.8-4.1 1.2 0 2.2.4 2.9 1.2.6.7.9 1.8.7 3zM116 15.4h-4.3c-.4 0-.8.2-1 .5l-5.9 8.7-2.5-8.4c-.2-.5-.6-.9-1.2-.9h-4.2c-.5 0-.9.5-.7 1l4.7 13.9-4.5 6.3c-.3.5 0 1.2.6 1.2h4.3c.4 0 .8-.2 1-.5l14.3-20.6c.3-.5 0-1.2-.6-1.2z"/><path class="st1" d="M130.2 7.2h-8.9c-.6 0-1.1.4-1.2 1l-3.6 22.9c-.1.5.3.9.7.9h4.6c.4 0 .8-.3.9-.7l1-6.5c.1-.6.6-1 1.2-1h2.8c5.9 0 9.3-2.8 10.2-8.5.4-2.5 0-4.4-1.1-5.8-1.4-1.5-3.6-2.3-6.6-2.3zm1 8.3c-.5 3.2-2.9 3.2-5.3 3.2h-1.3l.9-6c.1-.4.4-.6.7-.6h.6c1.6 0 3.1 0 3.9.9.6.6.7 1.4.5 2.5zM156.9 15.4h-4.3c-.4 0-.7.3-.7.6l-.2 1.2-.3-.4c-.9-1.3-3-1.8-5.1-1.8-4.7 0-8.8 3.6-9.6 8.6-.4 2.5.2 4.9 1.6 6.6 1.3 1.5 3.2 2.2 5.4 2.2 3.8 0 5.9-2.5 5.9-2.5l-.2 1.2c-.1.5.3.9.7.9h3.9c.6 0 1.1-.4 1.2-1l2.3-14.6c.2-.6-.1-1-.6-1zm-6 8.4c-.4 2.4-2.4 4.1-4.8 4.1-1.2 0-2.2-.4-2.9-1.2-.6-.8-.9-1.8-.7-3 .4-2.4 2.4-4.1 4.8-4.1 1.2 0 2.2.4 2.9 1.2.7.7.9 1.8.7 3zM162 7.8l-3.7 23.3c-.1.5.3.9.7.9h3.7c.6 0 1.1-.4 1.2-1l3.7-23c.1-.5-.3-.9-.7-.9h-4.1c-.5.1-.8.3-.8.7z"/><g><path class="st0" d="M17.2 36.8l.6-4h-8l4.6-29.2c0-.1.1-.2.1-.2l.2-.1H26c3.7 0 6.3.8 7.6 2.3.6.7 1 1.5 1.2 2.3.2.9.2 1.9 0 3.2v.9l.6.4c.5.3.9.6 1.3 1 .5.6.9 1.4 1 2.3.2.9.1 2.1-.1 3.4-.3 1.5-.7 2.8-1.4 3.8-.6 1-1.3 1.8-2.2 2.4-.8.6-1.8 1-2.9 1.3-1.1.3-2.3.4-3.7.4h-.9c-.6 0-1.2.2-1.7.6-.5.4-.8 1-.9 1.6l-.1.4-1.1 7v.3c0 .1 0 .1-.1.1h-.1c.1-.2-5.3-.2-5.3-.2z"/><path class="st1" d="M36 11.2c0 .2-.1.4-.1.7C34.5 19.4 29.4 22 23 22h-3.3c-.8 0-1.5.6-1.6 1.4l-1.7 10.7-.5 3c-.1.5.3 1 .8 1h5.8c.7 0 1.3-.5 1.4-1.2l.1-.3 1.1-7 .1-.4c.1-.7.7-1.2 1.4-1.2h.9c5.6 0 10.1-2.3 11.3-8.9.5-2.8.3-5.1-1.2-6.7-.4-.5-.9-.9-1.6-1.2z"/><path d="M34.5 10.6c-.2-.1-.5-.1-.7-.2-.2-.1-.5-.1-.7-.1-.9-.1-1.9-.2-2.9-.2h-8.8c-.2 0-.4 0-.6.1-.4.2-.7.6-.8 1L18.1 23l-.1.3c.1-.8.8-1.4 1.6-1.4H23c6.4 0 11.5-2.6 13-10.2 0-.2.1-.4.1-.7-.4-.2-.8-.4-1.2-.5-.2.1-.3.1-.4.1z" fill="#334696"/><path class="st0" d="M20 11.2c.1-.5.4-.9.8-1 .2-.1.4-.1.6-.1h8.8c1 0 2 .1 2.9.2.3 0 .5.1.7.1.2.1.5.1.7.2.1 0 .2.1.3.1.4.1.8.3 1.2.5.4-2.8 0-4.7-1.5-6.4-1.7-1.9-4.7-2.7-8.5-2.7H14.8c-.8 0-1.5.6-1.6 1.4L8.6 32.9c-.1.6.4 1.1.9 1.1h6.9l1.7-11L20 11.2z"/></g></svg>