<?xml version="1.0" encoding="utf-8"?>
<!-- Generator: Adobe Illustrator 21.0.1, SVG Export Plug-In . SVG Version: 6.00 Build 0)  -->
<svg version="1.1" id="Layer_1" xmlns="http://www.w3.org/2000/svg" xmlns:xlink="http://www.w3.org/1999/xlink" x="0px" y="0px"
	 viewBox="0 0 174 40" style="enable-background:new 0 0 174 40;" xml:space="preserve">
<style type="text/css">
	.st0{fill:#7289DA;}
</style>
<path class="st0" d="M60.3,9.6h-7.8v8.7l5.2,4.6v-8.5h2.8c1.8,0,2.6,0.9,2.6,2.2v6.5c0,1.4-0.8,2.3-2.6,2.3h-8v4.9h7.8
	c4.2,0,8.1-2.1,8.1-6.8v-7C68.4,11.7,64.5,9.6,60.3,9.6z M101,23.6v-7.2c0-2.6,4.6-3.2,6-0.6l4.3-1.7c-1.7-3.7-4.8-4.8-7.3-4.8
	c-4.2,0-8.3,2.4-8.3,7.1v7.2c0,4.7,4.1,7.1,8.2,7.1c2.6,0,5.8-1.3,7.5-4.7l-4.6-2.1C105.7,26.8,101,26.1,101,23.6z M86.9,17.4
	c-1.6-0.4-2.7-0.9-2.8-1.9c0.1-2.4,3.8-2.5,6-0.2l3.4-2.6C91.4,10,89,9.3,86.4,9.3c-3.8,0-7.5,2.1-7.5,6.2c0,4,3.1,6.1,6.4,6.6
	c1.7,0.2,3.6,0.9,3.6,2.1c-0.1,2.2-4.7,2.1-6.8-0.4l-3.3,3.1c1.9,2.5,4.6,3.8,7.1,3.8c3.8,0,8-2.2,8.2-6.2
	C94.3,19.4,90.6,18.1,86.9,17.4z M71.2,30.4h5.3V9.6h-5.3V30.4z M159.6,9.6h-7.8v8.7L157,23v-8.5h2.8c1.8,0,2.6,0.9,2.6,2.2v6.5
	c0,1.4-0.8,2.3-2.6,2.3h-8v4.9h7.8c4.2,0,8.1-2.1,8.1-6.8v-7C167.7,11.7,163.8,9.6,159.6,9.6z M121.5,9.3c-4.3,0-8.6,2.3-8.6,7.1
	v7.1c0,4.8,4.3,7.1,8.6,7.1c4.3,0,8.6-2.4,8.6-7.1v-7.1C130.1,11.7,125.8,9.3,121.5,9.3z M124.9,23.6c0,1.5-1.7,2.3-3.3,2.3
	c-1.7,0-3.4-0.7-3.4-2.3v-7.1c0-1.5,1.6-2.3,3.3-2.3c1.7,0,3.4,0.7,3.4,2.3V23.6z M148.9,16.5c-0.1-4.9-3.4-6.8-7.7-6.8h-8.3v20.8
	h5.3v-6.6h0.9l4.8,6.6h6.5l-5.7-7.1C147.4,22.5,148.9,20.3,148.9,16.5z M141.3,19.3h-3.1v-4.8h3.1C144.6,14.5,144.6,19.3,141.3,19.3
	z"/>
<path class="st0" d="M30.2,30.1c0.9,1.1,2,2.4,2,2.4c6.6-0.2,9.1-4.5,9.1-4.5c0-9.6-4.3-17.3-4.3-17.3c-4.3-3.2-8.4-3.1-8.4-3.1
	L28.2,8c5.1,1.5,7.5,3.8,7.5,3.8c-3.1-1.7-6.2-2.5-9-2.9c-2.2-0.2-4.2-0.2-6.1,0.1c-0.2,0-0.3,0-0.5,0.1c-1,0.1-3.6,0.5-6.8,1.9
	c-1.1,0.5-1.8,0.8-1.8,0.8s2.5-2.4,7.9-3.9L19,7.6c0,0-4.1-0.1-8.4,3.1c0,0-4.3,7.8-4.3,17.3c0,0,2.5,4.3,9.1,4.5c0,0,1.1-1.3,2-2.5
	c-3.8-1.1-5.3-3.5-5.3-3.5s0.3,0.2,0.8,0.5c0,0,0.1,0,0.1,0.1c0.1,0,0.2,0.1,0.3,0.2c0.8,0.4,1.5,0.8,2.2,1c1.2,0.5,2.7,1,4.4,1.3
	c2.3,0.4,4.9,0.5,7.8,0c1.4-0.3,2.9-0.7,4.4-1.3c1.1-0.4,2.2-1,3.5-1.8C35.6,26.6,34.1,29,30.2,30.1z M18.2,25.2
	c-1.7,0-3.1-1.5-3.1-3.3c0-1.8,1.4-3.3,3.1-3.3c1.7,0,3.1,1.5,3.1,3.3C21.3,23.8,19.9,25.2,18.2,25.2z M29.2,25.2
	c-1.7,0-3.1-1.5-3.1-3.3c0-1.8,1.4-3.3,3.1-3.3c1.7,0,3.1,1.5,3.1,3.3C32.2,23.8,30.9,25.2,29.2,25.2z"/>
</svg>
