<svg version="1.1" id="Layer_1" xmlns="http://www.w3.org/2000/svg" x="0" y="0" viewBox="0 0 174 40" xml:space="preserve"><style type="text/css">.st0{fill:#ff6c10}.st1{fill:#fff}</style><path class="st0" d="M27.8 27.5c-1.1 1.5-2.6 2.3-4.6 2.3h-2.5V25h-5.2v9.6h7.7c2.2 0 4.1-.6 5.9-1.8 1.7-1.2 3.1-2.8 4-4.9.4-.9.7-1.9 1-3H29c-.3 1-.7 1.9-1.2 2.6zM20.7 10.3h2.5c2 0 3.6.8 4.6 2.3.5.7.8 1.5 1.1 2.5h5.2c-.2-1-.6-2-1-3-1-2.1-2.3-3.8-4.1-4.9-1.7-1.2-3.7-1.7-5.9-1.7h-7.7V15h5.2l.1-4.7zM38.8 25H44v9.6h-5.2zM38.8 5.4H44V15h-5.2zM69.3 5.4h-5.7L61.1 15h5.4zM52.3 5.4h-5.7l2.8 9.6h5.4zM57.9 27.4l-.6-2.4h-4.9l2.9 9.6h5.3l2.9-9.6h-5zM72 5.4h5.2V15H72zM72 25h5.2v9.6H72zM94.9 26.9c0 1-.3 1.9-1 2.4-.7.6-1.6.9-2.9.9-3.3 0-4.9-1.6-4.9-4.8h-5.2c0 1.9.4 3.5 1.2 5 .8 1.4 2 2.6 3.6 3.4 1.6.8 3.3 1.2 5.3 1.2 2.8 0 5-.7 6.6-2.2 1.6-1.4 2.5-3.4 2.5-5.9 0-.7-.1-1.3-.2-1.9h-5.5c.3.5.5 1.1.5 1.9zM86.8 13.2c0-1 .3-1.8 1-2.5.7-.6 1.7-.9 2.9-.9 1.3 0 2.3.4 3 1.1s1.1 1.8 1.1 3.1h5.2c0-1.8-.4-3.3-1.2-4.7-.8-1.4-1.9-2.4-3.3-3.2S92.5 5 90.7 5s-3.4.3-4.8 1-2.5 1.7-3.3 2.9-1.1 2.6-1.1 4.2c0 .7.1 1.3.2 1.9h5.6c-.3-.5-.5-1.1-.5-1.8zM103.9 5.4h5.2V15h-5.2zM103.9 25h5.2v9.6h-5.2zM127.7 27.7c-.9 1.6-2.3 2.4-4 2.4-1.8 0-3.1-.8-4.1-2.5-.4-.7-.7-1.6-1-2.6h-5.3c.2 1.2.5 2.3 1 3.3.9 2.2 2.2 3.8 3.8 5s3.5 1.7 5.5 1.7c2.1 0 4-.6 5.6-1.8 1.6-1.2 2.9-2.8 3.7-5 .4-1 .7-2.1.9-3.3h-5.2c-.1 1.1-.5 2-.9 2.8zM119.7 12.3c.9-1.6 2.3-2.4 4-2.4s3.1.8 4 2.4c.4.7.8 1.6 1 2.7h5.2c-.2-1.2-.5-2.2-.9-3.2-.9-2.2-2.1-3.9-3.8-5-1.6-1.2-3.5-1.8-5.6-1.8s-3.9.6-5.6 1.8c-1.6 1.2-2.9 2.8-3.8 5-.4 1-.7 2.1-.9 3.2h5.2c.4-1 .8-1.9 1.2-2.7zM143.2 5.4h-5.1V15h10.2zM153.3 5.4h5.1V15h-5.1zM153.3 34.6h5.1V25h-10.2zM138.1 25h5.2v9.6h-5.2z"/><path class="st1" d="M45.8 23.8v-7.5h2.6c.9 0 1.6.2 2.1.5s.7.9.7 1.5c0 .4-.1.7-.3 1s-.5.5-.8.6c.4.1.7.3.9.6.2.3.3.7.3 1.1 0 .7-.2 1.3-.7 1.6s-1.1.6-2 .6h-2.8zm1.6-4.4h1.1c.8 0 1.2-.3 1.2-.9 0-.3-.1-.6-.3-.7s-.5-.2-.9-.2h-1.1v1.8zm0 1.1v2h1.3c.4 0 .7-.1.9-.3.2-.2.3-.4.3-.7 0-.7-.4-1-1.1-1h-1.4zM67.6 16.2v5c0 .8-.3 1.5-.8 2s-1.2.7-2.1.7-1.6-.2-2.1-.7-.8-1.1-.8-1.9v-5h1.6v5c0 .5.1.9.4 1.1.3.2.6.3 1 .3.9 0 1.3-.5 1.3-1.4v-5c-.1-.1 1.5-.1 1.5-.1zM79.8 23.8h-1.6v-7.5h1.6v7.5zM92.1 22.5h3.3v1.2h-4.8v-7.5h1.6l-.1 6.3zM105.6 23.8v-7.5h2.3c.7 0 1.3.1 1.8.4s.9.7 1.2 1.3.4 1.2.4 1.9v.3c0 .7-.1 1.3-.4 1.9-.3.5-.7 1-1.2 1.3s-1.1.5-1.8.5l-2.3-.1zm1.6-6.3v5h.8c.6 0 1.1-.2 1.4-.6s.5-1 .5-1.7v-.4c0-.8-.2-1.3-.5-1.7s-.8-.6-1.4-.6h-.8zM125.7 21.8c0-.3-.1-.5-.3-.7s-.6-.3-1.1-.5-1-.3-1.3-.5c-.9-.5-1.3-1.1-1.3-1.9 0-.4.1-.8.3-1.1.2-.3.6-.6 1-.7s.9-.3 1.4-.3 1 .1 1.4.3.7.5 1 .8.3.8.3 1.2h-1.6c0-.3-.1-.6-.3-.8-.2-.2-.5-.3-.9-.3s-.7.1-.9.2-.3.4-.3.6.1.5.4.6.6.3 1.1.5c.9.3 1.5.6 1.9 1s.6.9.6 1.5c0 .7-.2 1.2-.7 1.5s-1.2.6-2 .6c-.6 0-1.1-.1-1.6-.3s-.8-.5-1.1-.9-.4-.8-.4-1.3h1.6c0 .8.5 1.2 1.5 1.2.4 0 .7-.1.9-.2s.4-.3.4-.5z"/></svg>