<?xml version="1.0" encoding="utf-8"?>
<!-- Generator: Adobe Illustrator 21.0.1, SVG Export Plug-In . SVG Version: 6.00 Build 0)  -->
<svg version="1.1" id="Layer_1" xmlns="http://www.w3.org/2000/svg" xmlns:xlink="http://www.w3.org/1999/xlink" x="0px" y="0px"
	 viewBox="0 0 174 40" style="enable-background:new 0 0 174 40;" xml:space="preserve">
<style type="text/css">
	.st0{fill:#3659B2;}
	.st1{fill:#179BD7;}
	.st2{fill:#334696;}
</style>
<g>
	<path class="st0" d="M66.4,7.2h-8.9c-0.6,0-1.1,0.4-1.2,1l-3.6,22.9c-0.1,0.5,0.3,0.9,0.7,0.9h4.3c0.6,0,1.1-0.4,1.2-1l1-6.2
		c0.1-0.6,0.6-1,1.2-1h2.8c5.9,0,9.3-2.8,10.2-8.5c0.4-2.5,0-4.4-1.1-5.8C71.7,8,69.4,7.2,66.4,7.2z M67.5,15.5
		c-0.5,3.2-2.9,3.2-5.3,3.2h-1.3l0.9-6c0.1-0.4,0.4-0.6,0.7-0.6h0.6c1.6,0,3.1,0,3.9,0.9C67.5,13.6,67.7,14.4,67.5,15.5z"/>
	<path class="st0" d="M93.2,15.4h-4.3c-0.4,0-0.7,0.3-0.7,0.6L88,17.3l-0.3-0.4c-0.9-1.3-3-1.8-5.1-1.8c-4.7,0-8.8,3.6-9.6,8.6
		c-0.4,2.5,0.2,4.9,1.6,6.6c1.3,1.5,3.2,2.2,5.4,2.2c3.8,0,5.9-2.5,5.9-2.5l-0.2,1.2C85.7,31.6,86,32,86.5,32h3.9
		c0.6,0,1.1-0.4,1.2-1l2.3-14.6C94,15.8,93.6,15.4,93.2,15.4z M87.2,23.8c-0.4,2.4-2.4,4.1-4.8,4.1c-1.2,0-2.2-0.4-2.9-1.2
		c-0.6-0.8-0.9-1.8-0.7-3c0.4-2.4,2.4-4.1,4.8-4.1c1.2,0,2.2,0.4,2.9,1.2C87.1,21.5,87.4,22.6,87.2,23.8z"/>
	<path class="st0" d="M116,15.4h-4.3c-0.4,0-0.8,0.2-1,0.5l-5.9,8.7l-2.5-8.4c-0.2-0.5-0.6-0.9-1.2-0.9h-4.2c-0.5,0-0.9,0.5-0.7,1
		l4.7,13.9l-4.5,6.3c-0.3,0.5,0,1.2,0.6,1.2h4.3c0.4,0,0.8-0.2,1-0.5l14.3-20.6C116.9,16.1,116.6,15.4,116,15.4z"/>
	<path class="st1" d="M130.2,7.2h-8.9c-0.6,0-1.1,0.4-1.2,1l-3.6,22.9c-0.1,0.5,0.3,0.9,0.7,0.9h4.6c0.4,0,0.8-0.3,0.9-0.7l1-6.5
		c0.1-0.6,0.6-1,1.2-1h2.8c5.9,0,9.3-2.8,10.2-8.5c0.4-2.5,0-4.4-1.1-5.8C135.4,8,133.2,7.2,130.2,7.2z M131.2,15.5
		c-0.5,3.2-2.9,3.2-5.3,3.2h-1.3l0.9-6c0.1-0.4,0.4-0.6,0.7-0.6h0.6c1.6,0,3.1,0,3.9,0.9C131.3,13.6,131.4,14.4,131.2,15.5z"/>
	<path class="st1" d="M156.9,15.4h-4.3c-0.4,0-0.7,0.3-0.7,0.6l-0.2,1.2l-0.3-0.4c-0.9-1.3-3-1.8-5.1-1.8c-4.7,0-8.8,3.6-9.6,8.6
		c-0.4,2.5,0.2,4.9,1.6,6.6c1.3,1.5,3.2,2.2,5.4,2.2c3.8,0,5.9-2.5,5.9-2.5l-0.2,1.2c-0.1,0.5,0.3,0.9,0.7,0.9h3.9
		c0.6,0,1.1-0.4,1.2-1l2.3-14.6C157.7,15.8,157.4,15.4,156.9,15.4z M150.9,23.8c-0.4,2.4-2.4,4.1-4.8,4.1c-1.2,0-2.2-0.4-2.9-1.2
		c-0.6-0.8-0.9-1.8-0.7-3c0.4-2.4,2.4-4.1,4.8-4.1c1.2,0,2.2,0.4,2.9,1.2C150.9,21.5,151.1,22.6,150.9,23.8z"/>
	<path class="st1" d="M162,7.8l-3.7,23.3c-0.1,0.5,0.3,0.9,0.7,0.9h3.7c0.6,0,1.1-0.4,1.2-1L167.6,8c0.1-0.5-0.3-0.9-0.7-0.9h-4.1
		C162.3,7.2,162,7.4,162,7.8z"/>
</g>
<g>
	<path class="st0" d="M17.2,36.8l0.6-4l-1.4,0H9.8l4.6-29.2c0-0.1,0.1-0.2,0.1-0.2s0.2-0.1,0.2-0.1H26c3.7,0,6.3,0.8,7.6,2.3
		c0.6,0.7,1,1.5,1.2,2.3c0.2,0.9,0.2,1.9,0,3.2l0,0.1v0.8l0.6,0.4c0.5,0.3,0.9,0.6,1.3,1c0.5,0.6,0.9,1.4,1,2.3
		c0.2,0.9,0.1,2.1-0.1,3.4c-0.3,1.5-0.7,2.8-1.4,3.8c-0.6,1-1.3,1.8-2.2,2.4c-0.8,0.6-1.8,1-2.9,1.3c-1.1,0.3-2.3,0.4-3.7,0.4h-0.9
		c-0.6,0-1.2,0.2-1.7,0.6c-0.5,0.4-0.8,1-0.9,1.6l-0.1,0.4l-1.1,7l0,0.3c0,0.1,0,0.1-0.1,0.1c0,0-0.1,0-0.1,0
		C22.6,36.8,17.2,36.8,17.2,36.8z"/>
	<path class="st1" d="M36,11.2L36,11.2L36,11.2c0,0.2-0.1,0.4-0.1,0.7C34.5,19.4,29.4,22,23,22h-3.3c-0.8,0-1.5,0.6-1.6,1.4l0,0l0,0
		l-1.7,10.7l-0.5,3c-0.1,0.5,0.3,1,0.8,1h5.8c0.7,0,1.3-0.5,1.4-1.2l0.1-0.3l1.1-7l0.1-0.4c0.1-0.7,0.7-1.2,1.4-1.2h0.9
		c5.6,0,10.1-2.3,11.3-8.9c0.5-2.8,0.3-5.1-1.2-6.7C37.2,11.9,36.7,11.5,36,11.2z"/>
	<path class="st2" d="M34.5,10.6c-0.2-0.1-0.5-0.1-0.7-0.2c-0.2-0.1-0.5-0.1-0.7-0.1c-0.9-0.1-1.9-0.2-2.9-0.2h-8.8
		c-0.2,0-0.4,0-0.6,0.1c-0.4,0.2-0.7,0.6-0.8,1l-1.9,11.8l-0.1,0.3c0.1-0.8,0.8-1.4,1.6-1.4H23c6.4,0,11.5-2.6,13-10.2
		c0-0.2,0.1-0.4,0.1-0.7c-0.4-0.2-0.8-0.4-1.2-0.5C34.7,10.6,34.6,10.6,34.5,10.6z"/>
	<path class="st0" d="M20,11.2c0.1-0.5,0.4-0.9,0.8-1c0.2-0.1,0.4-0.1,0.6-0.1h8.8c1,0,2,0.1,2.9,0.2c0.3,0,0.5,0.1,0.7,0.1
		c0.2,0.1,0.5,0.1,0.7,0.2c0.1,0,0.2,0.1,0.3,0.1c0.4,0.1,0.8,0.3,1.2,0.5c0.4-2.8,0-4.7-1.5-6.4c-1.7-1.9-4.7-2.7-8.5-2.7H14.8
		c-0.8,0-1.5,0.6-1.6,1.4L8.6,32.9c-0.1,0.6,0.4,1.1,0.9,1.1h6.9l1.7-11L20,11.2z"/>
</g>
</svg>
