<?xml version="1.0" encoding="utf-8"?>
<!-- Generator: Adobe Illustrator 21.0.1, SVG Export Plug-In . SVG Version: 6.00 Build 0)  -->
<svg version="1.1" id="Layer_1" xmlns="http://www.w3.org/2000/svg" xmlns:xlink="http://www.w3.org/1999/xlink" x="0px" y="0px"
	 viewBox="0 0 64 64" style="enable-background:new 0 0 64 64;" xml:space="preserve">
<style type="text/css">
	.st0{fill:#EAEAEA;}
	.st1{fill:#232323;}
</style>
<circle class="st0" cx="32" cy="32" r="28.9"/>
<path class="st1" d="M55.1,33.4L36.4,14.7c-1.5-1.5-3.8-1.5-5.3,0l-2.4,2.4l-3.2-3.2c-1.5-1.5-3.8-1.5-5.3,0L8.9,25.3
	c-1.5,1.5-1.5,3.8,0,5.3l18.8,18.8c1.5,1.5,3.8,1.5,5.3,0l2.4-2.4l3.2,3.2c1.5,1.5,3.8,1.5,5.3,0l11.4-11.4
	C56.6,37.2,56.6,34.9,55.1,33.4z M51.8,38.7l-8,8c-1.5,1.5-3.8,1.5-5.3,0L37,45.2l7.2-7.2c1.5-1.5,1.5-3.8,0-5.3L30.4,18.8l0.8-0.8
	c1.5-1.5,3.8-1.5,5.3,0l15.4,15.4C53.2,34.9,53.2,37.2,51.8,38.7z"/>
</svg>
