<?xml version="1.0" encoding="utf-8"?>
<!-- Generator: Adobe Illustrator 21.0.1, SVG Export Plug-In . SVG Version: 6.00 Build 0)  -->
<svg version="1.1" id="Layer_1" xmlns="http://www.w3.org/2000/svg" xmlns:xlink="http://www.w3.org/1999/xlink" x="0px" y="0px"
	 viewBox="0 0 90 64" style="enable-background:new 0 0 90 64;" xml:space="preserve">
<style type="text/css">
	.st0{fill:url(#SVGID_1_);}
	.st1{fill:#8F783B;}
	.st2{display:none;}
	.st3{display:inline;}
	.st4{fill:#2F2E63;}
	.st5{fill:#71719E;}
	.st6{display:none;fill:#FFFFFF;stroke:#000000;stroke-miterlimit:10;}
	.st7{fill:#3A508E;}
</style>
<symbol  id="KraggleSites_Logo_Part" viewBox="-11.422 -14.423 22.843 28.847">
	<linearGradient id="SVGID_1_" gradientUnits="userSpaceOnUse" x1="-8.5754" y1="12.2484" x2="6.6688" y2="-14.1554">
		<stop  offset="0" style="stop-color:#B9CFFF"/>
		<stop  offset="0.71" style="stop-color:#3A508E"/>
	</linearGradient>
	<path class="st0" d="M-1.986,0.823c1.754-1.025,3.761-1.718,5.938-2.04c0.302-0.045,0.569-0.218,0.722-0.483l2.15-3.724
		c0.179-0.309,0.179-0.691,0-1l-2.021-3.5c-0.179-0.309-0.509-0.5-0.866-0.5h-4.041c-0.357,0-0.687,0.191-0.866,0.5l-2.151,3.725
		C-3.274-5.935-3.29-5.616-3.179-5.333C-2.363-3.266-1.974-1.183-1.986,0.823 M-4.808,14.423h0.005H-4.808z M-4.808,14.423
		l-1.667-2.887c-0.503-0.871-1.39-1.428-2.372-1.489c-0.902-0.056-1.761-0.201-2.574-0.417C-6.335,6.987-4.386,1.063-7.419-5.03
		c-0.292-0.587-0.254-1.285,0.074-1.853l3.776-6.54c0.357-0.619,1.018-1,1.732-1h7.506c0.715,0,1.375,0.381,1.732,1l3.753,6.5
		c0.357,0.619,0.357,1.381,0,2l-3.75,6.496C7.065,2.158,6.466,2.566,5.791,2.609C-1.391,3.062-5.636,8.241-4.808,14.423
		L-4.808,14.423z"/>
	<path class="st1" d="M2.469-3.542H0.968c-0.25,0-0.481-0.133-0.606-0.35l-0.751-1.3c-0.125-0.217-0.125-0.483,0-0.7l0.751-1.3
		c0.125-0.217,0.356-0.35,0.606-0.35h1.501c0.25,0,0.481,0.133,0.606,0.35l0.751,1.3c0.125,0.217,0.125,0.483,0,0.7l-0.751,1.3
		C2.95-3.676,2.719-3.542,2.469-3.542z"/>
</symbol>
<g class="st2">
	<path class="st3" d="M-9,1.762h3.551V8.72h0.05l5.455-6.959h4.359l-6.259,7.867l6.522,8.61H0.41l-5.808-7.711h-0.05v7.711H-9V1.762
		z"/>
	<path class="st3" d="M5.864,1.762h5.428c1.65,0,2.954,0.435,3.913,1.305s1.439,2.044,1.439,3.524c0,0.845-0.22,1.723-0.66,2.634
		c-0.44,0.912-1.251,1.626-2.432,2.145l4.611,6.869h-4.081l-4.264-6.375H9.416v6.375H5.864V1.762z M9.441,4.698V8.99h0.768
		c1.855,0,2.783-0.757,2.783-2.272c0-0.619-0.241-1.111-0.724-1.474c-0.483-0.364-1.153-0.546-2.009-0.546H9.441z"/>
	<path class="st3" d="M25.27,1.762h2.751l6.713,16.477h-3.574l-1.319-3.238h-6.323l-1.292,3.238h-3.555L25.27,1.762z M26.646,7.158
		l-1.937,4.856h3.916L26.646,7.158z"/>
	<path class="st3" d="M49.385,5.338l-2.36,2.209c-0.493-0.853-1.104-1.491-1.832-1.914c-0.728-0.422-1.489-0.634-2.283-0.634
		c-1.289,0-2.407,0.489-3.357,1.468c-0.95,0.979-1.425,2.133-1.425,3.464c0,1.414,0.475,2.612,1.425,3.595
		c0.949,0.983,2.093,1.474,3.432,1.474c0.728,0,1.428-0.184,2.102-0.552c0.674-0.368,1.215-1.058,1.625-2.071h-3.903V9.165h7.605
		v2.133c0,1.096-0.376,2.273-1.129,3.533c-0.753,1.259-1.744,2.18-2.974,2.761c-1.229,0.582-2.472,0.872-3.727,0.872
		c-2.276,0-4.195-0.824-5.76-2.472c-1.565-1.648-2.347-3.685-2.347-6.112c0-2.3,0.805-4.267,2.415-5.898
		c1.611-1.631,3.549-2.447,5.816-2.447C45.603,1.536,47.829,2.803,49.385,5.338z"/>
	<path class="st3" d="M65.73,5.338l-2.36,2.209c-0.493-0.853-1.104-1.491-1.832-1.914c-0.728-0.422-1.489-0.634-2.283-0.634
		c-1.289,0-2.407,0.489-3.357,1.468c-0.95,0.979-1.424,2.133-1.424,3.464c0,1.414,0.474,2.612,1.424,3.595
		c0.949,0.983,2.093,1.474,3.432,1.474c0.728,0,1.428-0.184,2.102-0.552c0.674-0.368,1.215-1.058,1.625-2.071h-3.903V9.165h7.605
		v2.133c0,1.096-0.376,2.273-1.129,3.533s-1.744,2.18-2.974,2.761c-1.229,0.582-2.472,0.872-3.727,0.872
		c-2.276,0-4.196-0.824-5.76-2.472c-1.564-1.648-2.347-3.685-2.347-6.112c0-2.3,0.805-4.267,2.416-5.898s3.549-2.447,5.816-2.447
		C61.948,1.536,64.174,2.803,65.73,5.338z"/>
	<path class="st3" d="M68.146,1.762h3.526v12.925h4.856v3.551h-8.382V1.762z"/>
	<path class="st3" d="M77.726,1.762H87v3.263h-5.722V8.35H87v3.213h-5.722v3.413H87v3.263h-9.274V1.762z"/>
</g>
<g class="st2">
	<g class="st3">
		<g>
			<g>
				<path class="st4" d="M-4.635,57.033c-4.304,0-8.553-1.995-12.629-5.929l-1.187-1.145l7.591-8.856l1.336,1.379
					c2.005,2.071,3.812,3.121,5.37,3.121c0.496,0,1.006-0.26,1.56-0.794c0.536-0.519,0.796-0.989,0.796-1.439
					c0-1.053-1.865-2.354-4.99-3.482c-2.536-0.926-4.318-1.794-5.449-2.653c-1.205-0.915-2.215-2.229-3.002-3.906
					c-0.777-1.651-1.171-3.374-1.171-5.119c0-3.785,1.268-6.917,3.769-9.308c2.48-2.37,5.727-3.572,9.649-3.572
					c4.551,0,8.438,1.462,11.554,4.345l1.275,1.181l-7.113,7.799L1.5,27.932c-3.272-1.93-4.482-2.08-4.775-2.08
					c-0.41,0-0.718,0.139-1.03,0.465c-0.33,0.343-0.477,0.708-0.477,1.182c0,0.996,1.417,2.138,3.889,3.135
					c2.586,1.104,4.497,2.081,5.846,2.991c1.468,0.99,2.705,2.365,3.676,4.089c0.986,1.751,1.486,3.67,1.486,5.702
					c0,3.687-1.492,6.922-4.435,9.617C2.783,55.688-0.688,57.033-4.635,57.033z"/>
				<path class="st5" d="M-2.992,15.579c4.486,0,8.316,1.439,11.384,4.279l1.093,1.012l-6.809,7.466l-1.049-0.619
					c-3.236-1.908-4.506-2.114-4.902-2.114c-0.478,0-0.852,0.167-1.21,0.542c-0.373,0.389-0.546,0.819-0.546,1.355
					c0,1.509,2.535,2.757,4.045,3.367c2.574,1.098,4.462,2.064,5.8,2.966c1.436,0.969,2.646,2.316,3.598,4.005
					c0.964,1.713,1.454,3.59,1.454,5.579c0,3.613-1.464,6.787-4.353,9.433c-2.85,2.61-6.264,3.934-10.146,3.934
					c-4.236,0-8.426-1.971-12.455-5.858l-1.018-0.981l7.259-8.469l1.145,1.182c2.055,2.122,3.922,3.197,5.55,3.197
					c0.563,0,1.131-0.283,1.734-0.864c0.587-0.567,0.873-1.097,0.873-1.619c0-1.18-1.879-2.535-5.155-3.718
					c-2.512-0.917-4.271-1.772-5.383-2.617c-1.171-0.889-2.157-2.172-2.928-3.813c-0.761-1.619-1.147-3.306-1.147-5.013
					c0-3.714,1.242-6.785,3.692-9.127C-10.037,16.758-6.849,15.579-2.992,15.579 M-2.992,15.079c-3.989,0-7.294,1.225-9.822,3.641
					c-2.552,2.44-3.846,5.633-3.846,9.489c0,1.781,0.402,3.539,1.195,5.225c0.805,1.715,1.841,3.06,3.078,3.999
					c1.151,0.875,2.955,1.755,5.514,2.689c3.563,1.286,4.826,2.553,4.826,3.248c0,0.379-0.236,0.791-0.72,1.26
					c-0.505,0.487-0.959,0.724-1.386,0.724c-1.487,0-3.234-1.025-5.191-3.045l-1.145-1.182l-0.382-0.394l-0.357,0.416l-7.259,8.469
					l-0.307,0.358l0.339,0.327l1.018,0.981c4.124,3.98,8.431,5.999,12.802,5.999c4.011,0,7.539-1.368,10.484-4.065
					c2.996-2.744,4.515-6.042,4.515-9.801c0-2.076-0.511-4.035-1.518-5.824c-0.991-1.758-2.253-3.163-3.754-4.175
					c-1.364-0.919-3.289-1.904-5.883-3.011c-2.346-0.947-3.742-2.032-3.742-2.907c0-0.41,0.122-0.711,0.407-1.009
					c0.264-0.276,0.51-0.389,0.85-0.389c0.197,0,1.347,0.099,4.648,2.045l1.049,0.619l0.35,0.206l0.274-0.3l6.809-7.466l0.334-0.367
					l-0.364-0.337l-1.093-1.012C5.568,16.563,1.624,15.079-2.992,15.079L-2.992,15.079z"/>
			</g>
			<g>
				<rect x="11.967" y="15.839" class="st4" width="11.515" height="40.685"/>
				<path class="st5" d="M23.231,16.089v40.185H12.217V16.089H23.231 M23.731,15.589h-0.5H12.217h-0.5v0.5v40.185v0.5h0.5h11.015
					h0.5v-0.5V16.089V15.589L23.731,15.589z"/>
			</g>
			<g>
				<polygon class="st4" points="33.349,56.523 33.349,27.24 24.881,27.24 24.881,15.839 53.388,15.839 53.388,27.24 44.863,27.24 
					44.863,56.523 				"/>
				<path class="st5" d="M53.137,16.089V26.99h-8.524v29.283H33.598V26.99h-8.468V16.089H53.137 M53.637,15.589h-0.5H25.131h-0.5
					v0.5V26.99v0.5h0.5h7.968v28.783v0.5h0.5h11.015h0.5v-0.5V27.49h8.024h0.5v-0.5V16.089V15.589L53.637,15.589z"/>
			</g>
			<g>
				<polygon class="st4" points="55.269,56.523 55.269,15.839 79.697,15.839 79.697,26.702 66.783,26.702 66.783,30.707 
					79.697,30.707 79.697,41.457 66.783,41.457 66.783,45.66 79.697,45.66 79.697,56.523 				"/>
				<path class="st5" d="M79.447,16.089v10.363H66.533v4.505h12.914v10.25H66.533v4.703h12.914v10.363H55.518V16.089H79.447
					 M79.947,15.589h-0.5H55.518h-0.5v0.5v40.185v0.5h0.5h23.929h0.5v-0.5V45.91v-0.5h-0.5H67.033v-3.703h12.414h0.5v-0.5v-10.25
					v-0.5h-0.5H67.033v-3.505h12.414h0.5v-0.5V16.089V15.589L79.947,15.589z"/>
			</g>
			<g>
				<path class="st4" d="M93.608,57.033c-4.303,0-8.552-1.995-12.629-5.929l-1.187-1.145l7.59-8.856l1.337,1.379
					c2.007,2.071,3.813,3.121,5.37,3.121c0.495,0,1.006-0.26,1.561-0.794c0.535-0.517,0.796-0.987,0.796-1.439
					c0-1.053-1.865-2.354-4.99-3.482c-2.538-0.928-4.32-1.795-5.449-2.653c-1.205-0.916-2.215-2.229-3.002-3.906
					c-0.777-1.652-1.172-3.374-1.172-5.119c0-3.785,1.269-6.917,3.77-9.308c2.479-2.37,5.726-3.572,9.648-3.572
					c4.552,0,8.439,1.462,11.555,4.346l1.273,1.18l-7.112,7.799l-1.224-0.722c-3.271-1.93-4.482-2.08-4.775-2.08
					c-0.409,0-0.718,0.139-1.03,0.465c-0.329,0.345-0.477,0.709-0.477,1.182c0,0.995,1.418,2.138,3.89,3.135
					c2.585,1.103,4.495,2.081,5.845,2.991c1.468,0.99,2.705,2.365,3.676,4.089c0.986,1.749,1.486,3.668,1.486,5.702
					c0,3.688-1.492,6.923-4.435,9.617C101.026,55.688,97.557,57.033,93.608,57.033z"/>
				<path class="st5" d="M95.251,15.579c4.487,0,8.317,1.44,11.385,4.279l1.092,1.011l-6.809,7.466l-1.049-0.619
					c-3.235-1.908-4.506-2.114-4.902-2.114c-0.478,0-0.852,0.167-1.211,0.542c-0.372,0.389-0.546,0.82-0.546,1.355
					c0,1.509,2.535,2.757,4.046,3.367c2.574,1.098,4.462,2.064,5.799,2.966c1.437,0.969,2.646,2.316,3.598,4.005
					c0.965,1.711,1.454,3.588,1.454,5.579c0,3.614-1.465,6.788-4.354,9.433c-2.849,2.61-6.262,3.934-10.146,3.934
					c-4.235,0-8.426-1.971-12.455-5.858l-1.018-0.981l7.259-8.469l1.146,1.182c2.056,2.121,3.923,3.197,5.55,3.197
					c0.563,0,1.131-0.283,1.734-0.864c0.587-0.566,0.872-1.097,0.872-1.619c0-1.18-1.879-2.535-5.155-3.718
					c-2.513-0.918-4.271-1.773-5.383-2.617c-1.171-0.89-2.156-2.172-2.927-3.813c-0.762-1.618-1.148-3.305-1.148-5.013
					c0-3.714,1.242-6.785,3.692-9.127C88.206,16.758,91.394,15.579,95.251,15.579 M95.251,15.079c-3.99,0-7.294,1.225-9.821,3.641
					c-2.553,2.44-3.847,5.633-3.847,9.489c0,1.782,0.402,3.54,1.196,5.226c0.804,1.713,1.84,3.059,3.077,3.999
					c1.151,0.874,2.954,1.754,5.514,2.689c3.563,1.286,4.827,2.553,4.827,3.248c0,0.38-0.235,0.792-0.719,1.259
					c-0.506,0.487-0.96,0.724-1.387,0.724c-1.486,0-3.232-1.025-5.191-3.045l-1.146-1.182l-0.382-0.394l-0.357,0.416l-7.259,8.469
					l-0.307,0.358l0.339,0.327l1.018,0.981c4.125,3.98,8.433,5.999,12.802,5.999c4.013,0,7.54-1.368,10.483-4.065
					c2.996-2.743,4.516-6.041,4.516-9.801c0-2.078-0.511-4.038-1.519-5.825c-0.99-1.758-2.253-3.162-3.754-4.174
					c-1.364-0.92-3.288-1.904-5.882-3.011c-2.347-0.947-3.742-2.032-3.742-2.907c0-0.404,0.126-0.715,0.407-1.009
					c0.264-0.275,0.51-0.388,0.85-0.388c0.197,0,1.348,0.099,4.648,2.045l1.049,0.619l0.35,0.207l0.274-0.3l6.809-7.466l0.334-0.367
					l-0.364-0.337l-1.092-1.011C103.812,16.564,99.868,15.079,95.251,15.079L95.251,15.079z"/>
			</g>
		</g>
	</g>
	<g class="st3">
		<path class="st5" d="M-11,7.943h3.551v6.959h0.05l5.455-6.959h4.359l-6.259,7.867l6.522,8.61H-1.59l-5.808-7.711h-0.05v7.711H-11
			V7.943z"/>
		<path class="st5" d="M3.864,7.943h5.428c1.65,0,2.954,0.435,3.913,1.305s1.439,2.044,1.439,3.524c0,0.845-0.22,1.723-0.66,2.634
			c-0.44,0.912-1.251,1.626-2.432,2.145l4.611,6.869h-4.081l-4.264-6.375H7.416v6.375H3.864V7.943z M7.441,10.879v4.292h0.768
			c1.855,0,2.783-0.757,2.783-2.272c0-0.619-0.241-1.111-0.724-1.474c-0.483-0.364-1.153-0.546-2.009-0.546H7.441z"/>
		<path class="st5" d="M23.256,7.943h2.751L32.72,24.42h-3.574l-1.319-3.238h-6.323l-1.292,3.238h-3.555L23.256,7.943z
			 M24.632,13.339l-1.937,4.856h3.916L24.632,13.339z"/>
		<path class="st5" d="M46.138,11.519l-2.36,2.209c-0.493-0.853-1.104-1.491-1.832-1.914c-0.728-0.422-1.489-0.634-2.283-0.634
			c-1.289,0-2.407,0.489-3.357,1.468c-0.95,0.979-1.425,2.133-1.425,3.464c0,1.414,0.475,2.612,1.425,3.595
			c0.949,0.983,2.093,1.474,3.432,1.474c0.728,0,1.428-0.184,2.102-0.552s1.215-1.058,1.625-2.071h-3.903v-3.213h7.605v2.133
			c0,1.096-0.376,2.273-1.129,3.533c-0.753,1.259-1.744,2.18-2.974,2.761c-1.229,0.582-2.472,0.872-3.727,0.872
			c-2.276,0-4.195-0.824-5.76-2.472c-1.565-1.648-2.347-3.685-2.347-6.112c0-2.3,0.805-4.267,2.415-5.898
			c1.611-1.631,3.549-2.447,5.816-2.447C42.356,7.717,44.582,8.984,46.138,11.519z"/>
		<path class="st5" d="M63.473,11.519l-2.36,2.209c-0.493-0.853-1.104-1.491-1.832-1.914c-0.728-0.422-1.489-0.634-2.283-0.634
			c-1.289,0-2.407,0.489-3.357,1.468c-0.95,0.979-1.424,2.133-1.424,3.464c0,1.414,0.474,2.612,1.424,3.595
			c0.949,0.983,2.093,1.474,3.432,1.474c0.728,0,1.428-0.184,2.102-0.552s1.215-1.058,1.625-2.071h-3.903v-3.213h7.605v2.133
			c0,1.096-0.376,2.273-1.129,3.533c-0.753,1.259-1.744,2.18-2.974,2.761c-1.229,0.582-2.472,0.872-3.727,0.872
			c-2.276,0-4.196-0.824-5.76-2.472c-1.564-1.648-2.347-3.685-2.347-6.112c0-2.3,0.805-4.267,2.416-5.898
			c1.611-1.631,3.549-2.447,5.816-2.447C59.691,7.717,61.917,8.984,63.473,11.519z"/>
		<path class="st5" d="M65.889,7.943h3.526v12.925h4.856v3.551h-8.382V7.943z"/>
		<path class="st5" d="M75.469,7.943h9.274v3.263H79.02v3.325h5.722v3.213H79.02v3.413h5.722v3.263h-9.274V7.943z"/>
	</g>
	<g class="st3">
		<path class="st4" d="M2.415,7.943l-6.259,7.867l6.522,8.61H-1.59l-5.808-7.711h-0.05v7.711H-11V7.943h3.551v6.959h0.05
			l5.455-6.959H2.415 M3.452,7.443H2.415h-4.359h-0.243l-0.15,0.192l-4.611,5.882V7.943v-0.5h-0.5H-11h-0.5v0.5V24.42v0.5h0.5h3.551
			h0.5v-0.5v-6.283l4.959,6.584l0.15,0.199h0.249h4.269h1.006l-0.607-0.802l-6.288-8.3l6.017-7.563L3.452,7.443L3.452,7.443z"/>
		<path class="st4" d="M9.292,7.943c1.65,0,2.954,0.435,3.913,1.305c0.959,0.87,1.439,2.044,1.439,3.524
			c0,0.845-0.22,1.723-0.66,2.634c-0.44,0.912-1.251,1.626-2.432,2.145l4.611,6.869h-4.081l-4.264-6.375H7.416v6.375H3.864V7.943
			H9.292 M7.441,15.171h0.768c1.855,0,2.783-0.757,2.783-2.272c0-0.619-0.241-1.111-0.724-1.474
			c-0.483-0.364-1.152-0.546-2.009-0.546H7.441V15.171 M9.292,7.443H3.864h-0.5v0.5V24.42v0.5h0.5h3.551h0.5v-0.5v-5.328l3.75,5.606
			l0.148,0.222h0.267h4.081H17.1l-0.523-0.779l-4.291-6.392c1.006-0.542,1.728-1.255,2.148-2.125
			c0.471-0.975,0.709-1.935,0.709-2.851c0-1.62-0.539-2.93-1.603-3.895C12.492,7.925,11.062,7.443,9.292,7.443L9.292,7.443z
			 M7.941,11.379H8.26c0.742,0,1.316,0.15,1.707,0.445c0.358,0.27,0.525,0.612,0.525,1.075c0,0.825-0.259,1.772-2.283,1.772H7.941
			V11.379L7.941,11.379z"/>
		<path class="st4" d="M26.007,7.943L32.72,24.42h-3.574l-1.319-3.238h-6.323l-1.292,3.238h-3.555l6.599-16.477H26.007
			 M22.695,18.195h3.916l-1.979-4.856L22.695,18.195 M26.344,7.443h-0.336h-2.751h-0.338l-0.126,0.314l-6.599,16.477l-0.275,0.686
			h0.739h3.555h0.339l0.126-0.315l1.166-2.923h5.648l1.192,2.926l0.127,0.311h0.336h3.574h0.744l-0.281-0.689L26.47,7.754
			L26.344,7.443L26.344,7.443z M23.433,17.695l1.204-3.019l1.23,3.019H23.433L23.433,17.695z"/>
		<path class="st4" d="M39.462,7.717c2.895,0,5.12,1.268,6.676,3.802l-2.36,2.209c-0.493-0.853-1.104-1.491-1.832-1.914
			c-0.728-0.422-1.489-0.634-2.283-0.634c-1.289,0-2.407,0.489-3.357,1.468c-0.95,0.979-1.425,2.133-1.425,3.464
			c0,1.414,0.475,2.612,1.425,3.595c0.949,0.983,2.093,1.474,3.432,1.474c0.728,0,1.428-0.184,2.102-0.552
			c0.674-0.368,1.215-1.058,1.625-2.071h-3.903v-3.213h7.605v2.133c0,1.096-0.376,2.273-1.129,3.533
			c-0.753,1.259-1.744,2.18-2.974,2.761c-1.229,0.582-2.472,0.872-3.727,0.872c-2.276,0-4.195-0.824-5.76-2.472
			c-1.565-1.648-2.347-3.685-2.347-6.112c0-2.3,0.805-4.267,2.415-5.898C35.256,8.532,37.194,7.717,39.462,7.717 M39.462,7.217
			c-2.395,0-4.472,0.873-6.172,2.596c-1.698,1.72-2.56,3.823-2.56,6.249c0,2.548,0.836,4.72,2.484,6.456
			c1.655,1.744,3.715,2.628,6.122,2.628c1.324,0,2.65-0.31,3.941-0.92c1.315-0.621,2.388-1.616,3.189-2.956
			c0.796-1.332,1.2-2.607,1.2-3.789v-2.133v-0.5h-0.5h-7.605h-0.5v0.5v3.213v0.5h0.5h3.109c-0.305,0.53-0.663,0.909-1.07,1.132
			c-0.596,0.326-1.223,0.491-1.862,0.491c-1.209,0-2.214-0.432-3.072-1.322c-0.864-0.894-1.284-1.957-1.284-3.248
			c0-1.206,0.42-2.226,1.283-3.115c0.859-0.886,1.84-1.316,2.998-1.316c0.702,0,1.385,0.19,2.032,0.566
			c0.648,0.376,1.203,0.959,1.65,1.732l0.315,0.545l0.459-0.43l2.36-2.209l0.298-0.279l-0.213-0.348
			C44.918,8.576,42.529,7.217,39.462,7.217L39.462,7.217z"/>
		<path class="st4" d="M56.796,7.717c2.895,0,5.12,1.268,6.676,3.802l-2.36,2.209c-0.493-0.853-1.104-1.491-1.832-1.914
			c-0.728-0.422-1.489-0.634-2.283-0.634c-1.289,0-2.407,0.489-3.357,1.468c-0.95,0.979-1.424,2.133-1.424,3.464
			c0,1.414,0.474,2.612,1.424,3.595c0.949,0.983,2.093,1.474,3.432,1.474c0.728,0,1.428-0.184,2.102-0.552
			c0.674-0.368,1.215-1.058,1.625-2.071h-3.903v-3.213h7.605v2.133c0,1.096-0.376,2.273-1.129,3.533
			c-0.753,1.259-1.744,2.18-2.974,2.761c-1.229,0.582-2.472,0.872-3.727,0.872c-2.276,0-4.196-0.824-5.76-2.472
			c-1.564-1.648-2.347-3.685-2.347-6.112c0-2.3,0.805-4.267,2.416-5.898C52.59,8.532,54.529,7.717,56.796,7.717 M56.796,7.217
			c-2.395,0-4.472,0.873-6.172,2.596c-1.699,1.721-2.56,3.823-2.56,6.249c0,2.547,0.836,4.719,2.484,6.456
			c1.655,1.744,3.715,2.628,6.123,2.628c1.324,0,2.65-0.31,3.941-0.92c1.315-0.621,2.388-1.616,3.189-2.956
			c0.796-1.332,1.2-2.607,1.2-3.789v-2.133v-0.5h-0.5h-7.605h-0.5v0.5v3.213v0.5h0.5h3.109c-0.305,0.53-0.663,0.909-1.07,1.132
			c-0.596,0.326-1.223,0.491-1.862,0.491c-1.209,0-2.214-0.432-3.072-1.322c-0.864-0.894-1.284-1.957-1.284-3.248
			c0-1.207,0.42-2.226,1.283-3.115c0.859-0.886,1.84-1.316,2.998-1.316c0.702,0,1.385,0.19,2.032,0.566
			c0.648,0.376,1.204,0.959,1.65,1.732l0.315,0.545l0.459-0.43l2.36-2.209l0.298-0.279l-0.213-0.348
			C62.253,8.576,59.863,7.217,56.796,7.217L56.796,7.217z"/>
		<path class="st4" d="M69.415,7.943v12.925h4.856v3.551h-8.382V7.943H69.415 M69.915,7.443h-0.5h-3.526h-0.5v0.5V24.42v0.5h0.5
			h8.382h0.5v-0.5v-3.551v-0.5h-0.5h-4.356V7.943V7.443L69.915,7.443z"/>
		<path class="st4" d="M84.743,7.943v3.263H79.02v3.325h5.722v3.213H79.02v3.413h5.722v3.263h-9.274V7.943H84.743 M85.243,7.443
			h-0.5h-9.274h-0.5v0.5V24.42v0.5h0.5h9.274h0.5v-0.5v-3.263v-0.5h-0.5H79.52v-2.413h5.222h0.5v-0.5v-3.213v-0.5h-0.5H79.52v-2.325
			h5.222h0.5v-0.5V7.943V7.443L85.243,7.443z"/>
	</g>
</g>
<rect x="31" y="18" class="st6" width="28" height="28"/>
<g>
	
		<use xlink:href="#KraggleSites_Logo_Part"  width="22.843" height="28.847" id="XMLID_1_" x="-11.422" y="-14.423" transform="matrix(0.9177 0 0 -0.9177 56.7501 27.4519)" style="overflow:visible;"/>
	
		<use xlink:href="#KraggleSites_Logo_Part"  width="22.843" height="28.847" x="-11.422" y="-14.423" transform="matrix(-0.4588 -0.7947 -0.7947 0.4588 41.1705 13.728)" style="overflow:visible;"/>
	
		<use xlink:href="#KraggleSites_Logo_Part"  width="22.843" height="28.847" x="-11.422" y="-14.423" transform="matrix(-0.4588 0.7947 0.7947 0.4588 37.0781 34.0825)" style="overflow:visible;"/>
</g>
<g>
	<path class="st7" d="M4.886,51.75v-9.255h1.676v4.146l4.132-4.146h2.019l-4.5,4.443l4.704,4.812h-2.05l-4.304-4.329v4.329H4.886z"
		/>
	<path class="st7" d="M13.316,45.187h1.517l0.133,1.155c0.165-0.423,0.425-0.748,0.781-0.975s0.757-0.34,1.206-0.34
		c0.254,0.005,0.472,0.041,0.654,0.108l-0.013,1.479c-0.279-0.115-0.565-0.172-0.857-0.172c-0.554,0-0.978,0.161-1.27,0.482
		s-0.438,0.747-0.438,1.275v3.549h-1.612v-4.703C13.417,46.353,13.384,45.732,13.316,45.187z"/>
	<path class="st7" d="M18.02,48.472c0-0.677,0.124-1.277,0.371-1.802c0.248-0.523,0.593-0.931,1.035-1.221
		c0.442-0.289,0.944-0.434,1.507-0.434c0.478,0,0.902,0.101,1.273,0.303c0.37,0.202,0.657,0.484,0.86,0.847v-0.979h1.587v6.563
		h-1.587v-1.054c-0.199,0.364-0.486,0.647-0.86,0.851c-0.375,0.203-0.799,0.305-1.273,0.305c-0.571,0-1.078-0.139-1.52-0.416
		c-0.442-0.277-0.785-0.672-1.028-1.182C18.141,49.743,18.02,49.149,18.02,48.472z M19.657,48.472c0,0.678,0.149,1.199,0.447,1.563
		c0.299,0.364,0.721,0.547,1.267,0.547c0.538,0,0.954-0.187,1.25-0.56s0.444-0.898,0.444-1.576c0-0.695-0.148-1.229-0.444-1.603
		c-0.296-0.372-0.717-0.559-1.263-0.559c-0.538,0-0.955,0.192-1.254,0.578C19.807,47.249,19.657,47.785,19.657,48.472z"/>
	<path class="st7" d="M26.062,48.287c0-0.643,0.124-1.212,0.371-1.709c0.248-0.496,0.595-0.881,1.041-1.154
		c0.447-0.272,0.956-0.408,1.527-0.408c0.487,0,0.918,0.101,1.295,0.303s0.665,0.484,0.863,0.847v-0.979h1.612v6.354
		c0,1.023-0.283,1.8-0.847,2.329c-0.565,0.529-1.394,0.794-2.485,0.794c-1.016,0-1.906-0.213-2.672-0.639l0.254-1.23
		c0.795,0.416,1.589,0.625,2.38,0.625c1.168,0,1.754-0.581,1.758-1.743v-1.304c-0.199,0.355-0.49,0.643-0.873,0.863
		c-0.383,0.22-0.812,0.33-1.286,0.33c-0.571,0-1.08-0.137-1.527-0.41c-0.446-0.273-0.793-0.659-1.041-1.156
		C26.186,49.502,26.062,48.932,26.062,48.287z M27.7,48.287c0,0.623,0.153,1.114,0.46,1.472c0.307,0.358,0.729,0.538,1.267,0.538
		s0.96-0.179,1.27-0.534c0.309-0.356,0.463-0.848,0.463-1.476c0-0.623-0.152-1.112-0.457-1.469c-0.305-0.355-0.73-0.533-1.276-0.533
		c-0.538,0-0.959,0.178-1.267,0.533C27.853,47.175,27.7,47.664,27.7,48.287z"/>
	<path class="st7" d="M34.155,48.287c0-0.643,0.124-1.212,0.371-1.709c0.248-0.496,0.595-0.881,1.041-1.154
		c0.447-0.272,0.956-0.408,1.527-0.408c0.487,0,0.918,0.101,1.295,0.303s0.665,0.484,0.863,0.847v-0.979h1.612v6.354
		c0,1.023-0.283,1.8-0.847,2.329c-0.565,0.529-1.394,0.794-2.485,0.794c-1.016,0-1.906-0.213-2.672-0.639l0.254-1.23
		c0.795,0.416,1.589,0.625,2.38,0.625c1.168,0,1.754-0.581,1.758-1.743v-1.304c-0.199,0.355-0.49,0.643-0.873,0.863
		c-0.383,0.22-0.812,0.33-1.286,0.33c-0.571,0-1.08-0.137-1.527-0.41c-0.446-0.273-0.793-0.659-1.041-1.156
		C34.279,49.502,34.155,48.932,34.155,48.287z M35.793,48.287c0,0.623,0.153,1.114,0.46,1.472c0.307,0.358,0.729,0.538,1.267,0.538
		s0.96-0.179,1.27-0.534c0.309-0.356,0.463-0.848,0.463-1.476c0-0.623-0.152-1.112-0.457-1.469c-0.305-0.355-0.73-0.533-1.276-0.533
		c-0.538,0-0.959,0.178-1.267,0.533C35.946,47.175,35.793,47.664,35.793,48.287z"/>
	<path class="st7" d="M42.61,51.75v-9.566h1.612v9.566H42.61z"/>
	<path class="st7" d="M45.638,48.449c0-0.669,0.134-1.264,0.403-1.783c0.27-0.521,0.646-0.926,1.131-1.216
		c0.484-0.29,1.035-0.435,1.652-0.435c0.902,0,1.613,0.293,2.137,0.879c0.522,0.586,0.783,1.389,0.783,2.408v0.248h-4.52
		c0.034,0.702,0.209,1.221,0.523,1.555c0.316,0.335,0.787,0.502,1.413,0.502c0.72,0,1.386-0.234,1.999-0.705l0.471,1.117
		c-0.313,0.25-0.697,0.451-1.152,0.604s-0.916,0.229-1.381,0.229c-1.074,0-1.92-0.303-2.535-0.908
		C45.946,50.339,45.638,49.507,45.638,48.449z M47.275,47.682h3.054c-0.051-0.496-0.2-0.869-0.448-1.121
		c-0.246-0.252-0.586-0.377-1.018-0.377c-0.437,0-0.791,0.128-1.064,0.384C47.527,46.823,47.352,47.194,47.275,47.682z"/>
	<path class="st7" d="M56.359,50.76l0.571-1.219c0.448,0.339,0.919,0.587,1.409,0.746c0.49,0.158,1.026,0.238,1.605,0.238
		c0.644,0,1.141-0.112,1.492-0.337s0.527-0.54,0.527-0.946c0-0.347-0.163-0.613-0.489-0.799c-0.325-0.187-0.861-0.362-1.606-0.527
		c-1.159-0.25-2.004-0.574-2.532-0.975c-0.528-0.399-0.794-0.98-0.794-1.742c0-0.546,0.147-1.031,0.441-1.457
		c0.295-0.425,0.713-0.76,1.254-1.003s1.168-0.364,1.879-0.364c0.649,0,1.266,0.098,1.848,0.295c0.582,0.196,1.059,0.467,1.43,0.809
		l-0.555,1.226c-0.823-0.66-1.73-0.99-2.723-0.99c-0.597,0-1.068,0.124-1.416,0.371c-0.347,0.248-0.52,0.583-0.52,1.007
		c0,0.363,0.152,0.642,0.46,0.834c0.307,0.192,0.833,0.369,1.577,0.53c0.77,0.182,1.396,0.38,1.881,0.594s0.855,0.487,1.114,0.821
		c0.259,0.335,0.388,0.752,0.388,1.251c0,0.555-0.146,1.038-0.439,1.45c-0.293,0.413-0.717,0.731-1.271,0.955
		c-0.555,0.225-1.207,0.337-1.957,0.337c-0.711,0-1.377-0.095-1.997-0.286C57.316,51.389,56.791,51.115,56.359,50.76z"/>
	<path class="st7" d="M64.948,43.803v-1.6h1.803v1.6H64.948z M65.138,51.75v-6.563h1.523v6.563H65.138z"/>
	<path class="st7" d="M67.607,46.405v-1.219h1.275v-1.6l1.613-0.546v2.146h1.752v1.219h-1.752v2.938
		c0,0.771,0.362,1.156,1.087,1.156c0.2,0,0.417-0.034,0.651-0.102v1.288c-0.274,0.102-0.606,0.152-0.996,0.152
		c-0.017,0-0.031,0-0.045,0c-0.744,0-1.315-0.207-1.713-0.622c-0.398-0.415-0.598-1.014-0.598-1.797v-3.015H67.607z"/>
	<path class="st7" d="M73.003,48.449c0-0.669,0.135-1.264,0.403-1.783c0.269-0.521,0.646-0.926,1.13-1.216s1.035-0.435,1.653-0.435
		c0.901,0,1.613,0.293,2.136,0.879s0.784,1.389,0.784,2.408v0.248h-4.52c0.034,0.702,0.208,1.221,0.523,1.555
		c0.315,0.335,0.786,0.502,1.412,0.502c0.72,0,1.387-0.234,2-0.705l0.47,1.117c-0.313,0.25-0.697,0.451-1.152,0.604
		s-0.915,0.229-1.38,0.229c-1.075,0-1.921-0.303-2.536-0.908C73.311,50.339,73.003,49.507,73.003,48.449z M74.641,47.682h3.053
		c-0.051-0.496-0.199-0.869-0.447-1.121c-0.247-0.252-0.587-0.377-1.019-0.377c-0.436,0-0.79,0.128-1.063,0.384
		C74.892,46.823,74.717,47.194,74.641,47.682z"/>
	<path class="st7" d="M80.061,51.02l0.45-1.141c0.702,0.52,1.503,0.779,2.404,0.779c0.39,0,0.692-0.064,0.906-0.193
		c0.215-0.129,0.322-0.313,0.322-0.549c0-0.199-0.074-0.356-0.223-0.473s-0.4-0.219-0.756-0.308l-1.093-0.241
		c-1.196-0.258-1.795-0.868-1.795-1.83c0-0.398,0.113-0.753,0.339-1.063c0.227-0.311,0.543-0.552,0.951-0.726
		s0.878-0.261,1.411-0.261c0.473,0,0.927,0.072,1.363,0.217s0.82,0.351,1.152,0.618l-0.486,1.105
		c-0.66-0.481-1.334-0.722-2.023-0.722c-0.004,0-0.011,0-0.019,0c-0.374,0-0.664,0.068-0.872,0.206s-0.312,0.328-0.312,0.569
		c0,0.191,0.063,0.344,0.188,0.459c0.126,0.114,0.342,0.21,0.647,0.286l1.117,0.247c0.657,0.147,1.136,0.374,1.437,0.679
		c0.301,0.306,0.451,0.705,0.451,1.198c0,0.604-0.244,1.085-0.731,1.439c-0.487,0.355-1.154,0.533-2.001,0.533
		C81.705,51.852,80.763,51.574,80.061,51.02z"/>
</g>
<g>
	<path class="st1" d="M8.322,56.483v-0.63h3.574v0.63h-1.403v3.642H9.719v-3.642H8.322z"/>
	<path class="st1" d="M12.374,60.125V55.71h0.744v1.827c0.104-0.165,0.242-0.294,0.415-0.385s0.365-0.136,0.576-0.136
		c0.721,0,1.081,0.416,1.081,1.248v1.86h-0.744v-1.821c0-0.239-0.046-0.414-0.138-0.522c-0.092-0.109-0.234-0.164-0.428-0.164
		c-0.229,0-0.413,0.072-0.552,0.218s-0.209,0.338-0.209,0.577v1.713H12.374z"/>
	<path class="st1" d="M15.822,58.602c0-0.309,0.062-0.583,0.186-0.823s0.298-0.427,0.521-0.562c0.224-0.133,0.478-0.2,0.763-0.2
		c0.416,0,0.745,0.136,0.986,0.405c0.241,0.271,0.362,0.642,0.362,1.112v0.114h-2.086c0.016,0.324,0.096,0.563,0.242,0.718
		s0.363,0.231,0.652,0.231c0.332,0,0.64-0.108,0.923-0.325l0.217,0.516c-0.145,0.115-0.322,0.208-0.532,0.278
		s-0.422,0.105-0.637,0.105c-0.496,0-0.886-0.14-1.17-0.419S15.822,59.09,15.822,58.602z M16.578,58.247h1.409
		c-0.023-0.229-0.092-0.4-0.207-0.517s-0.271-0.175-0.47-0.175c-0.201,0-0.365,0.06-0.491,0.177
		C16.693,57.852,16.613,58.022,16.578,58.247z"/>
	<path class="st1" d="M20.873,57.096h0.7l0.056,0.486c0.088-0.182,0.215-0.321,0.381-0.419s0.357-0.146,0.574-0.146
		c0.462,0,0.762,0.194,0.9,0.583c0.096-0.182,0.232-0.324,0.411-0.428c0.178-0.104,0.377-0.155,0.599-0.155
		c0.342,0,0.596,0.104,0.764,0.31c0.167,0.206,0.25,0.519,0.25,0.938v1.86h-0.744v-1.833c0-0.239-0.039-0.412-0.118-0.517
		c-0.078-0.105-0.208-0.158-0.388-0.158c-0.208,0-0.371,0.072-0.489,0.218c-0.119,0.146-0.178,0.346-0.178,0.601v1.689h-0.744
		v-1.833c0-0.235-0.041-0.407-0.123-0.514c-0.082-0.107-0.211-0.161-0.387-0.161c-0.207,0-0.371,0.072-0.492,0.218
		s-0.182,0.346-0.182,0.601v1.689h-0.744v-2.171C20.919,57.634,20.904,57.348,20.873,57.096z"/>
	<path class="st1" d="M26.146,58.612c0-0.313,0.057-0.59,0.171-0.832c0.114-0.241,0.273-0.43,0.478-0.563s0.436-0.2,0.696-0.2
		c0.221,0,0.417,0.047,0.587,0.14c0.171,0.094,0.303,0.224,0.397,0.391v-0.451h0.732v3.029h-0.732v-0.486
		c-0.092,0.168-0.224,0.299-0.397,0.393s-0.369,0.141-0.587,0.141c-0.264,0-0.498-0.064-0.702-0.192s-0.362-0.31-0.475-0.545
		S26.146,58.925,26.146,58.612z M26.902,58.612c0,0.313,0.069,0.553,0.207,0.722c0.138,0.168,0.333,0.252,0.584,0.252
		c0.248,0,0.44-0.086,0.577-0.258c0.137-0.173,0.205-0.415,0.205-0.729c0-0.32-0.068-0.566-0.205-0.739
		c-0.137-0.172-0.331-0.258-0.583-0.258c-0.248,0-0.441,0.089-0.579,0.267C26.971,58.048,26.902,58.295,26.902,58.612z"/>
	<path class="st1" d="M29.858,58.527c0-0.297,0.057-0.56,0.171-0.789s0.274-0.407,0.48-0.533s0.441-0.188,0.705-0.188
		c0.225,0,0.424,0.047,0.598,0.14c0.174,0.094,0.307,0.224,0.398,0.391v-0.451h0.744v2.933c0,0.473-0.13,0.831-0.391,1.075
		s-0.643,0.366-1.147,0.366c-0.469,0-0.88-0.099-1.233-0.294l0.117-0.568c0.367,0.192,0.733,0.288,1.099,0.288
		c0.539,0,0.81-0.269,0.812-0.805v-0.602c-0.092,0.164-0.226,0.297-0.403,0.398s-0.375,0.152-0.593,0.152
		c-0.264,0-0.499-0.063-0.705-0.189s-0.366-0.304-0.48-0.533S29.858,58.824,29.858,58.527z M30.614,58.527
		c0,0.287,0.071,0.514,0.212,0.679s0.336,0.248,0.584,0.248s0.443-0.082,0.586-0.246c0.143-0.165,0.214-0.392,0.214-0.681
		c0-0.288-0.07-0.514-0.211-0.679c-0.141-0.164-0.337-0.246-0.589-0.246c-0.248,0-0.443,0.082-0.584,0.246
		C30.685,58.014,30.614,58.239,30.614,58.527z"/>
	<path class="st1" d="M33.713,56.457v-0.738h0.832v0.738H33.713z M33.801,60.125v-3.029h0.703v3.029H33.801z"/>
	<path class="st1" d="M35.158,58.616c0-0.317,0.065-0.596,0.195-0.837c0.13-0.24,0.314-0.428,0.552-0.562s0.513-0.201,0.823-0.201
		c0.217,0,0.426,0.034,0.628,0.104s0.363,0.164,0.482,0.284l-0.208,0.528c-0.129-0.104-0.265-0.182-0.409-0.235
		s-0.286-0.08-0.426-0.08c-0.271,0-0.483,0.085-0.636,0.254c-0.152,0.17-0.229,0.414-0.229,0.733s0.075,0.563,0.226,0.73
		c0.15,0.167,0.363,0.251,0.639,0.251c0.141,0,0.283-0.028,0.426-0.085s0.28-0.136,0.409-0.239l0.208,0.526
		c-0.129,0.119-0.295,0.213-0.498,0.281s-0.417,0.103-0.642,0.103c-0.316,0-0.59-0.063-0.822-0.191s-0.409-0.309-0.533-0.541
		C35.22,59.206,35.158,58.932,35.158,58.616z"/>
	<path class="st1" d="M39.819,58.598c0-0.321,0.063-0.601,0.189-0.839c0.126-0.239,0.306-0.422,0.541-0.55s0.505-0.192,0.812-0.192
		c0.304,0,0.57,0.064,0.801,0.192c0.23,0.128,0.408,0.311,0.534,0.55c0.125,0.238,0.188,0.518,0.188,0.839
		c0,0.319-0.063,0.598-0.188,0.835s-0.303,0.42-0.534,0.548c-0.231,0.128-0.498,0.191-0.801,0.191c-0.307,0-0.577-0.063-0.812-0.191
		s-0.415-0.311-0.541-0.548S39.819,58.917,39.819,58.598z M40.575,58.598c0,0.327,0.067,0.574,0.201,0.739
		c0.134,0.166,0.327,0.249,0.579,0.249c0.256,0,0.451-0.083,0.584-0.249c0.134-0.165,0.201-0.412,0.201-0.739
		c0-0.324-0.068-0.571-0.204-0.74c-0.136-0.17-0.328-0.255-0.576-0.255c-0.252,0-0.446,0.085-0.582,0.255
		C40.643,58.026,40.575,58.273,40.575,58.598z"/>
	<path class="st1" d="M43.135,57.658v-0.563h0.583v-0.295c0-0.357,0.09-0.634,0.271-0.827c0.18-0.193,0.439-0.29,0.778-0.29
		c0.188,0,0.346,0.024,0.475,0.072v0.59c-0.111-0.027-0.209-0.042-0.293-0.044c-0.324,0.002-0.486,0.181-0.486,0.536v0.258h0.683
		v0.563h-0.683v2.467h-0.744v-2.467H43.135z"/>
	<path class="st1" d="M47.1,55.854h0.785l1.068,3.185l1.111-3.185h0.551l1.086,3.211l1.094-3.211h0.744l-1.512,4.271h-0.631
		l-1.074-3.073l-1.088,3.073h-0.629L47.1,55.854z"/>
	<path class="st1" d="M53.56,58.602c0-0.309,0.062-0.583,0.186-0.823s0.298-0.427,0.521-0.562c0.224-0.133,0.479-0.2,0.764-0.2
		c0.416,0,0.744,0.136,0.986,0.405c0.24,0.271,0.361,0.642,0.361,1.112v0.114h-2.086c0.016,0.324,0.096,0.563,0.242,0.718
		c0.145,0.154,0.362,0.231,0.651,0.231c0.332,0,0.64-0.108,0.923-0.325l0.217,0.516c-0.145,0.115-0.322,0.208-0.531,0.278
		c-0.211,0.07-0.423,0.105-0.638,0.105c-0.496,0-0.886-0.14-1.171-0.419C53.702,59.474,53.56,59.09,53.56,58.602z M54.315,58.247
		h1.409c-0.023-0.229-0.093-0.4-0.206-0.517c-0.115-0.116-0.271-0.175-0.471-0.175c-0.201,0-0.365,0.06-0.49,0.177
		C54.431,57.852,54.351,58.022,54.315,58.247z"/>
	<path class="st1" d="M57.014,60.125V55.71h0.75v1.837c0.092-0.167,0.224-0.297,0.395-0.391c0.172-0.093,0.368-0.14,0.588-0.14
		c0.264,0,0.496,0.064,0.698,0.194s0.359,0.313,0.472,0.549c0.112,0.236,0.168,0.511,0.168,0.822c0,0.313-0.057,0.591-0.171,0.832
		s-0.272,0.428-0.475,0.56s-0.433,0.198-0.692,0.198c-0.224,0-0.423-0.048-0.597-0.144c-0.173-0.096-0.304-0.229-0.392-0.401v0.498
		H57.014z M57.758,58.594c0,0.321,0.067,0.566,0.203,0.737c0.136,0.17,0.332,0.255,0.589,0.255c0.246,0,0.438-0.089,0.573-0.266
		c0.137-0.177,0.205-0.423,0.205-0.738c0-0.313-0.068-0.554-0.205-0.725c-0.136-0.17-0.33-0.255-0.581-0.255
		c-0.252,0-0.445,0.086-0.581,0.258C57.825,58.033,57.758,58.277,57.758,58.594z"/>
	<path class="st1" d="M62.431,60.125v-4.271h1.568c0.697,0,1.24,0.186,1.626,0.559c0.386,0.371,0.579,0.896,0.579,1.571
		c0,0.68-0.192,1.207-0.578,1.581c-0.385,0.374-0.928,0.561-1.627,0.561H62.431z M63.204,59.495h0.75
		c0.984,0,1.477-0.504,1.477-1.512c0-1-0.492-1.5-1.477-1.5h-0.75V59.495z"/>
	<path class="st1" d="M66.778,58.602c0-0.309,0.062-0.583,0.186-0.823s0.298-0.427,0.521-0.562c0.224-0.133,0.479-0.2,0.764-0.2
		c0.416,0,0.744,0.136,0.986,0.405c0.24,0.271,0.361,0.642,0.361,1.112v0.114h-2.086c0.016,0.324,0.096,0.563,0.242,0.718
		c0.145,0.154,0.362,0.231,0.651,0.231c0.332,0,0.64-0.108,0.923-0.325l0.217,0.516c-0.145,0.115-0.322,0.208-0.531,0.278
		c-0.211,0.07-0.423,0.105-0.638,0.105c-0.496,0-0.886-0.14-1.171-0.419C66.921,59.474,66.778,59.09,66.778,58.602z M67.534,58.247
		h1.409c-0.023-0.229-0.093-0.4-0.206-0.517c-0.115-0.116-0.271-0.175-0.471-0.175c-0.201,0-0.365,0.06-0.49,0.177
		C67.649,57.852,67.569,58.022,67.534,58.247z"/>
	<path class="st1" d="M70.036,59.788l0.208-0.526c0.323,0.239,0.693,0.359,1.108,0.359c0.181,0,0.32-0.029,0.419-0.089
		s0.148-0.145,0.148-0.254c0-0.092-0.034-0.164-0.103-0.218s-0.185-0.102-0.349-0.143l-0.505-0.11
		c-0.552-0.12-0.828-0.401-0.828-0.846c0-0.184,0.052-0.347,0.156-0.49c0.104-0.143,0.251-0.254,0.439-0.335
		c0.188-0.08,0.405-0.12,0.65-0.12c0.219,0,0.429,0.033,0.63,0.101c0.201,0.066,0.379,0.161,0.531,0.285l-0.224,0.511
		c-0.305-0.223-0.616-0.334-0.934-0.334c-0.002,0-0.005,0-0.01,0c-0.172,0-0.306,0.032-0.402,0.096
		c-0.096,0.063-0.144,0.151-0.144,0.263c0,0.088,0.029,0.158,0.087,0.211c0.058,0.054,0.157,0.098,0.299,0.133l0.516,0.113
		c0.303,0.068,0.524,0.173,0.663,0.314c0.139,0.141,0.208,0.325,0.208,0.553c0,0.278-0.112,0.5-0.338,0.664
		c-0.225,0.164-0.532,0.246-0.924,0.246C70.795,60.172,70.359,60.044,70.036,59.788z"/>
	<path class="st1" d="M73.191,56.457v-0.738h0.832v0.738H73.191z M73.279,60.125v-3.029h0.703v3.029H73.279z"/>
	<path class="st1" d="M74.636,58.527c0-0.297,0.057-0.56,0.172-0.789c0.113-0.229,0.273-0.407,0.48-0.533
		c0.205-0.126,0.44-0.188,0.704-0.188c0.225,0,0.424,0.047,0.598,0.14c0.174,0.094,0.307,0.224,0.398,0.391v-0.451h0.744v2.933
		c0,0.473-0.13,0.831-0.392,1.075c-0.26,0.244-0.643,0.366-1.146,0.366c-0.469,0-0.88-0.099-1.233-0.294l0.117-0.568
		c0.367,0.192,0.733,0.288,1.099,0.288c0.539,0,0.81-0.269,0.812-0.805v-0.602c-0.092,0.164-0.227,0.297-0.403,0.398
		s-0.374,0.152-0.593,0.152c-0.264,0-0.499-0.063-0.704-0.189c-0.207-0.126-0.367-0.304-0.48-0.533
		C74.692,59.088,74.636,58.824,74.636,58.527z M75.392,58.527c0,0.287,0.07,0.514,0.213,0.679c0.141,0.165,0.336,0.248,0.584,0.248
		s0.443-0.082,0.586-0.246c0.143-0.165,0.214-0.392,0.214-0.681c0-0.288-0.07-0.514-0.211-0.679
		c-0.141-0.164-0.337-0.246-0.589-0.246c-0.248,0-0.443,0.082-0.584,0.246C75.462,58.014,75.392,58.239,75.392,58.527z"/>
	<path class="st1" d="M78.491,57.096h0.7l0.056,0.504c0.104-0.186,0.244-0.329,0.422-0.431s0.379-0.152,0.604-0.152
		c0.721,0,1.081,0.416,1.081,1.248v1.86h-0.744v-1.821c0-0.239-0.046-0.414-0.138-0.522c-0.092-0.109-0.234-0.164-0.428-0.164
		c-0.229,0-0.413,0.072-0.552,0.218c-0.141,0.146-0.21,0.338-0.21,0.577v1.713h-0.744v-2.171
		C78.538,57.634,78.522,57.348,78.491,57.096z"/>
</g>
</svg>
