<?xml version="1.0" encoding="utf-8"?>
<!-- Generator: Adobe Illustrator 21.0.1, SVG Export Plug-In . SVG Version: 6.00 Build 0)  -->
<svg version="1.1" id="Layer_1" xmlns="http://www.w3.org/2000/svg" xmlns:xlink="http://www.w3.org/1999/xlink" x="0px" y="0px"
	 viewBox="0 0 128 32" style="enable-background:new 0 0 128 32;" xml:space="preserve">
<style type="text/css">
	.st0{fill:url(#SVGID_1_);}
	.st1{fill:#8F783B;}
	.st2{display:none;}
	.st3{display:inline;}
	.st4{fill:#2F2E63;}
	.st5{fill:#71719E;}
	.st6{display:none;fill:#FFFFFF;stroke:#000000;stroke-miterlimit:10;}
	.st7{fill:#3A508E;}
</style>
<symbol  id="KraggleSites_Logo_Part" viewBox="-11.422 -14.423 22.843 28.847">
	<linearGradient id="SVGID_1_" gradientUnits="userSpaceOnUse" x1="-8.5754" y1="12.2484" x2="6.6688" y2="-14.1554">
		<stop  offset="0" style="stop-color:#B9CFFF"/>
		<stop  offset="0.71" style="stop-color:#3A508E"/>
	</linearGradient>
	<path class="st0" d="M-1.986,0.823c1.754-1.025,3.761-1.718,5.938-2.04c0.302-0.045,0.569-0.218,0.722-0.483l2.15-3.724
		c0.179-0.309,0.179-0.691,0-1l-2.021-3.5c-0.179-0.309-0.509-0.5-0.866-0.5h-4.041c-0.357,0-0.687,0.191-0.866,0.5l-2.151,3.725
		C-3.274-5.935-3.29-5.616-3.179-5.333C-2.363-3.266-1.974-1.183-1.986,0.823 M-4.808,14.423h0.005H-4.808z M-4.808,14.423
		l-1.667-2.887c-0.503-0.871-1.39-1.428-2.372-1.489c-0.902-0.056-1.761-0.201-2.574-0.417C-6.335,6.987-4.386,1.063-7.419-5.03
		c-0.292-0.587-0.254-1.285,0.074-1.853l3.776-6.54c0.357-0.619,1.018-1,1.732-1h7.506c0.715,0,1.375,0.381,1.732,1l3.753,6.5
		c0.357,0.619,0.357,1.381,0,2l-3.75,6.496C7.065,2.158,6.466,2.566,5.791,2.609C-1.391,3.062-5.636,8.241-4.808,14.423
		L-4.808,14.423z"/>
	<path class="st1" d="M2.469-3.542H0.968c-0.25,0-0.481-0.133-0.606-0.35l-0.751-1.3c-0.125-0.217-0.125-0.483,0-0.7l0.751-1.3
		c0.125-0.217,0.356-0.35,0.606-0.35h1.501c0.25,0,0.481,0.133,0.606,0.35l0.751,1.3c0.125,0.217,0.125,0.483,0,0.7l-0.751,1.3
		C2.95-3.676,2.719-3.542,2.469-3.542z"/>
</symbol>
<g class="st2">
	<path class="st3" d="M10-14.238h3.551v6.959h0.05l5.455-6.959h4.359l-6.259,7.867l6.522,8.61H19.41l-5.808-7.711h-0.05v7.711H10
		V-14.238z"/>
	<path class="st3" d="M24.864-14.238h5.428c1.65,0,2.954,0.435,3.913,1.305c0.959,0.87,1.439,2.044,1.439,3.524
		c0,0.845-0.22,1.723-0.66,2.634s-1.251,1.626-2.432,2.145l4.611,6.869h-4.081l-4.264-6.375h-0.401v6.375h-3.551V-14.238z
		 M28.441-11.302v4.292h0.768c1.855,0,2.783-0.757,2.783-2.272c0-0.619-0.241-1.111-0.724-1.474
		c-0.483-0.364-1.153-0.546-2.009-0.546H28.441z"/>
	<path class="st3" d="M44.27-14.238h2.751l6.713,16.477h-3.574l-1.319-3.238h-6.323l-1.292,3.238h-3.555L44.27-14.238z
		 M45.646-8.842l-1.937,4.856h3.916L45.646-8.842z"/>
	<path class="st3" d="M68.385-10.662l-2.36,2.209c-0.493-0.853-1.104-1.491-1.832-1.914c-0.728-0.422-1.489-0.634-2.283-0.634
		c-1.289,0-2.407,0.489-3.357,1.468c-0.95,0.979-1.425,2.133-1.425,3.464c0,1.414,0.475,2.612,1.425,3.595
		c0.949,0.983,2.093,1.474,3.432,1.474c0.728,0,1.428-0.184,2.102-0.552c0.674-0.368,1.215-1.058,1.625-2.071h-3.903v-3.213h7.605
		v2.133c0,1.096-0.376,2.273-1.129,3.533s-1.744,2.18-2.974,2.761c-1.229,0.582-2.472,0.872-3.727,0.872
		c-2.276,0-4.195-0.824-5.76-2.472c-1.565-1.648-2.347-3.685-2.347-6.112c0-2.3,0.805-4.267,2.415-5.898
		c1.611-1.631,3.549-2.447,5.816-2.447C64.603-14.464,66.829-13.197,68.385-10.662z"/>
	<path class="st3" d="M84.73-10.662l-2.36,2.209c-0.493-0.853-1.104-1.491-1.832-1.914c-0.728-0.422-1.489-0.634-2.283-0.634
		c-1.289,0-2.407,0.489-3.357,1.468c-0.95,0.979-1.424,2.133-1.424,3.464c0,1.414,0.474,2.612,1.424,3.595
		c0.949,0.983,2.093,1.474,3.432,1.474c0.728,0,1.428-0.184,2.102-0.552c0.674-0.368,1.215-1.058,1.625-2.071h-3.903v-3.213h7.605
		v2.133c0,1.096-0.376,2.273-1.129,3.533s-1.744,2.18-2.974,2.761c-1.229,0.582-2.472,0.872-3.727,0.872
		c-2.276,0-4.196-0.824-5.76-2.472c-1.564-1.648-2.347-3.685-2.347-6.112c0-2.3,0.805-4.267,2.416-5.898s3.549-2.447,5.816-2.447
		C80.948-14.464,83.174-13.197,84.73-10.662z"/>
	<path class="st3" d="M87.146-14.238h3.526v12.925h4.856v3.551h-8.382V-14.238z"/>
	<path class="st3" d="M96.726-14.238H106v3.263h-5.722v3.325H106v3.213h-5.722v3.413H106v3.263h-9.274V-14.238z"/>
</g>
<g class="st2">
	<g class="st3">
		<g>
			<g>
				<path class="st4" d="M14.365,41.033c-4.304,0-8.553-1.995-12.629-5.929L0.549,33.96l7.591-8.856l1.336,1.379
					c2.005,2.071,3.812,3.121,5.37,3.121c0.496,0,1.006-0.26,1.56-0.794c0.536-0.519,0.796-0.989,0.796-1.439
					c0-1.053-1.865-2.354-4.99-3.482c-2.536-0.926-4.318-1.794-5.449-2.653c-1.205-0.915-2.215-2.229-3.002-3.906
					c-0.777-1.651-1.171-3.374-1.171-5.119c0-3.785,1.268-6.917,3.769-9.308c2.48-2.37,5.727-3.572,9.649-3.572
					c4.551,0,8.438,1.462,11.554,4.345l1.275,1.181l-7.113,7.799L20.5,11.932c-3.272-1.93-4.482-2.08-4.775-2.08
					c-0.41,0-0.718,0.139-1.03,0.465c-0.33,0.343-0.477,0.708-0.477,1.182c0,0.996,1.417,2.138,3.889,3.135
					c2.586,1.104,4.497,2.081,5.846,2.991c1.468,0.99,2.705,2.365,3.676,4.089c0.986,1.751,1.486,3.67,1.486,5.702
					c0,3.687-1.492,6.922-4.435,9.617C21.783,39.688,18.313,41.033,14.365,41.033z"/>
				<path class="st5" d="M16.008-0.421c4.486,0,8.316,1.439,11.384,4.279l1.093,1.012l-6.809,7.466l-1.049-0.619
					c-3.236-1.908-4.506-2.114-4.902-2.114c-0.478,0-0.852,0.167-1.21,0.542c-0.373,0.389-0.546,0.819-0.546,1.355
					c0,1.509,2.535,2.757,4.045,3.367c2.574,1.098,4.462,2.064,5.8,2.966c1.436,0.969,2.646,2.316,3.598,4.005
					c0.964,1.713,1.454,3.59,1.454,5.579c0,3.613-1.464,6.787-4.353,9.433c-2.85,2.61-6.264,3.934-10.146,3.934
					c-4.236,0-8.426-1.971-12.455-5.858l-1.018-0.981l7.259-8.469l1.145,1.182c2.055,2.122,3.922,3.197,5.55,3.197
					c0.563,0,1.131-0.283,1.734-0.864c0.587-0.567,0.873-1.097,0.873-1.619c0-1.18-1.879-2.535-5.155-3.718
					c-2.512-0.917-4.271-1.772-5.383-2.617c-1.171-0.889-2.157-2.172-2.928-3.813c-0.761-1.619-1.147-3.306-1.147-5.013
					c0-3.714,1.242-6.785,3.692-9.127C8.963,0.758,12.151-0.421,16.008-0.421 M16.008-0.921c-3.989,0-7.294,1.225-9.822,3.641
					C3.634,5.161,2.34,8.353,2.34,12.209c0,1.781,0.402,3.539,1.195,5.225c0.805,1.715,1.841,3.06,3.078,3.999
					c1.151,0.875,2.955,1.755,5.514,2.689c3.563,1.286,4.826,2.553,4.826,3.248c0,0.379-0.236,0.791-0.72,1.26
					c-0.505,0.487-0.959,0.724-1.386,0.724c-1.487,0-3.234-1.025-5.191-3.045l-1.145-1.182l-0.382-0.394l-0.357,0.416l-7.259,8.469
					l-0.307,0.358l0.339,0.327l1.018,0.981c4.124,3.98,8.431,5.999,12.802,5.999c4.011,0,7.539-1.368,10.484-4.065
					c2.996-2.744,4.515-6.042,4.515-9.801c0-2.076-0.511-4.035-1.518-5.824c-0.991-1.758-2.253-3.163-3.754-4.175
					c-1.364-0.919-3.289-1.904-5.883-3.011c-2.346-0.947-3.742-2.032-3.742-2.907c0-0.41,0.122-0.711,0.407-1.009
					c0.264-0.276,0.51-0.389,0.85-0.389c0.197,0,1.347,0.099,4.648,2.045l1.049,0.619l0.35,0.206l0.274-0.3l6.809-7.466l0.334-0.367
					l-0.364-0.337l-1.093-1.012C24.568,0.563,20.624-0.921,16.008-0.921L16.008-0.921z"/>
			</g>
			<g>
				<rect x="30.967" y="-0.161" class="st4" width="11.515" height="40.685"/>
				<path class="st5" d="M42.231,0.089v40.185H31.217V0.089H42.231 M42.731-0.411h-0.5H31.217h-0.5v0.5v40.185v0.5h0.5h11.015h0.5
					v-0.5V0.089V-0.411L42.731-0.411z"/>
			</g>
			<g>
				<polygon class="st4" points="52.349,40.523 52.349,11.24 43.881,11.24 43.881,-0.161 72.388,-0.161 72.388,11.24 63.863,11.24 
					63.863,40.523 				"/>
				<path class="st5" d="M72.137,0.089V10.99h-8.524v29.283H52.598V10.99h-8.468V0.089H72.137 M72.637-0.411h-0.5H44.131h-0.5v0.5
					V10.99v0.5h0.5h7.968v28.783v0.5h0.5h11.015h0.5v-0.5V11.49h8.024h0.5v-0.5V0.089V-0.411L72.637-0.411z"/>
			</g>
			<g>
				<polygon class="st4" points="74.269,40.523 74.269,-0.161 98.697,-0.161 98.697,10.702 85.783,10.702 85.783,14.707 
					98.697,14.707 98.697,25.457 85.783,25.457 85.783,29.66 98.697,29.66 98.697,40.523 				"/>
				<path class="st5" d="M98.447,0.089v10.363H85.533v4.505h12.914v10.25H85.533v4.703h12.914v10.363H74.518V0.089H98.447
					 M98.947-0.411h-0.5H74.518h-0.5v0.5v40.185v0.5h0.5h23.929h0.5v-0.5V29.91v-0.5h-0.5H86.033v-3.703h12.414h0.5v-0.5v-10.25
					v-0.5h-0.5H86.033v-3.505h12.414h0.5v-0.5V0.089V-0.411L98.947-0.411z"/>
			</g>
			<g>
				<path class="st4" d="M112.608,41.033c-4.303,0-8.552-1.995-12.629-5.929l-1.187-1.145l7.59-8.856l1.337,1.379
					c2.007,2.071,3.813,3.121,5.37,3.121c0.495,0,1.006-0.26,1.561-0.794c0.535-0.517,0.796-0.987,0.796-1.439
					c0-1.053-1.865-2.354-4.99-3.482c-2.538-0.928-4.32-1.795-5.449-2.653c-1.205-0.916-2.215-2.229-3.002-3.906
					c-0.777-1.652-1.172-3.374-1.172-5.119c0-3.785,1.269-6.917,3.77-9.308c2.479-2.37,5.726-3.572,9.648-3.572
					c4.552,0,8.439,1.462,11.555,4.346l1.273,1.18l-7.112,7.799l-1.224-0.722c-3.271-1.93-4.482-2.08-4.775-2.08
					c-0.409,0-0.718,0.139-1.03,0.465c-0.329,0.345-0.477,0.709-0.477,1.182c0,0.995,1.418,2.138,3.89,3.135
					c2.585,1.103,4.495,2.081,5.845,2.991c1.468,0.99,2.705,2.365,3.676,4.089c0.986,1.749,1.486,3.668,1.486,5.702
					c0,3.688-1.492,6.923-4.435,9.617C120.026,39.688,116.557,41.033,112.608,41.033z"/>
				<path class="st5" d="M114.251-0.421c4.487,0,8.317,1.44,11.385,4.279l1.092,1.011l-6.809,7.466l-1.049-0.619
					c-3.235-1.908-4.506-2.114-4.902-2.114c-0.478,0-0.852,0.167-1.211,0.542c-0.372,0.389-0.546,0.82-0.546,1.355
					c0,1.509,2.535,2.757,4.046,3.367c2.574,1.098,4.462,2.064,5.799,2.966c1.437,0.969,2.646,2.316,3.598,4.005
					c0.965,1.711,1.454,3.588,1.454,5.579c0,3.614-1.465,6.788-4.354,9.433c-2.849,2.61-6.262,3.934-10.146,3.934
					c-4.235,0-8.426-1.971-12.455-5.858l-1.018-0.981l7.259-8.469l1.146,1.182c2.056,2.121,3.923,3.197,5.55,3.197
					c0.563,0,1.131-0.283,1.734-0.864c0.587-0.566,0.872-1.097,0.872-1.619c0-1.18-1.879-2.535-5.155-3.718
					c-2.513-0.918-4.271-1.773-5.383-2.617c-1.171-0.89-2.156-2.172-2.927-3.813c-0.762-1.618-1.148-3.305-1.148-5.013
					c0-3.714,1.242-6.785,3.692-9.127C107.206,0.758,110.394-0.421,114.251-0.421 M114.251-0.921c-3.99,0-7.294,1.225-9.821,3.641
					c-2.553,2.44-3.847,5.633-3.847,9.489c0,1.782,0.402,3.54,1.196,5.226c0.804,1.713,1.84,3.059,3.077,3.999
					c1.151,0.874,2.954,1.754,5.514,2.689c3.563,1.286,4.827,2.553,4.827,3.248c0,0.38-0.235,0.792-0.719,1.259
					c-0.506,0.487-0.96,0.724-1.387,0.724c-1.486,0-3.232-1.025-5.191-3.045l-1.146-1.182l-0.382-0.394l-0.357,0.416l-7.259,8.469
					l-0.307,0.358l0.339,0.327l1.018,0.981c4.125,3.98,8.433,5.999,12.802,5.999c4.013,0,7.54-1.368,10.483-4.065
					c2.996-2.743,4.516-6.041,4.516-9.801c0-2.078-0.511-4.038-1.519-5.825c-0.99-1.758-2.253-3.162-3.754-4.174
					c-1.364-0.92-3.288-1.904-5.882-3.011c-2.347-0.947-3.742-2.032-3.742-2.907c0-0.404,0.126-0.715,0.407-1.009
					c0.264-0.275,0.51-0.388,0.85-0.388c0.197,0,1.348,0.099,4.648,2.045l1.049,0.619l0.35,0.207l0.274-0.3l6.809-7.466l0.334-0.367
					l-0.364-0.337l-1.092-1.011C122.812,0.564,118.868-0.921,114.251-0.921L114.251-0.921z"/>
			</g>
		</g>
	</g>
	<g class="st3">
		<path class="st5" d="M8-8.057h3.551v6.959h0.05l5.455-6.959h4.359L15.156-0.19l6.522,8.61H17.41l-5.808-7.711h-0.05V8.42H8V-8.057
			z"/>
		<path class="st5" d="M22.864-8.057h5.428c1.65,0,2.954,0.435,3.913,1.305c0.959,0.87,1.439,2.044,1.439,3.524
			c0,0.845-0.22,1.723-0.66,2.634s-1.251,1.626-2.432,2.145l4.611,6.869h-4.081l-4.264-6.375h-0.401V8.42h-3.551V-8.057z
			 M26.441-5.121v4.292h0.768c1.855,0,2.783-0.757,2.783-2.272c0-0.619-0.241-1.111-0.724-1.474
			c-0.483-0.364-1.153-0.546-2.009-0.546H26.441z"/>
		<path class="st5" d="M42.256-8.057h2.751L51.72,8.42h-3.574l-1.319-3.238h-6.323L39.212,8.42h-3.555L42.256-8.057z M43.632-2.661
			l-1.937,4.856h3.916L43.632-2.661z"/>
		<path class="st5" d="M65.138-4.481l-2.36,2.209c-0.493-0.853-1.104-1.491-1.832-1.914c-0.728-0.422-1.489-0.634-2.283-0.634
			c-1.289,0-2.407,0.489-3.357,1.468c-0.95,0.979-1.425,2.133-1.425,3.464c0,1.414,0.475,2.612,1.425,3.595
			c0.949,0.983,2.093,1.474,3.432,1.474c0.728,0,1.428-0.184,2.102-0.552c0.674-0.368,1.215-1.058,1.625-2.071h-3.903v-3.213h7.605
			V1.48c0,1.096-0.376,2.273-1.129,3.533s-1.744,2.18-2.974,2.761c-1.229,0.582-2.472,0.872-3.727,0.872
			c-2.276,0-4.195-0.824-5.76-2.472c-1.565-1.648-2.347-3.685-2.347-6.112c0-2.3,0.805-4.267,2.415-5.898
			c1.611-1.631,3.549-2.447,5.816-2.447C61.356-8.283,63.582-7.016,65.138-4.481z"/>
		<path class="st5" d="M82.473-4.481l-2.36,2.209c-0.493-0.853-1.104-1.491-1.832-1.914c-0.728-0.422-1.489-0.634-2.283-0.634
			c-1.289,0-2.407,0.489-3.357,1.468c-0.95,0.979-1.424,2.133-1.424,3.464c0,1.414,0.474,2.612,1.424,3.595
			c0.949,0.983,2.093,1.474,3.432,1.474c0.728,0,1.428-0.184,2.102-0.552c0.674-0.368,1.215-1.058,1.625-2.071h-3.903v-3.213h7.605
			V1.48c0,1.096-0.376,2.273-1.129,3.533s-1.744,2.18-2.974,2.761c-1.229,0.582-2.472,0.872-3.727,0.872
			c-2.276,0-4.196-0.824-5.76-2.472c-1.564-1.648-2.347-3.685-2.347-6.112c0-2.3,0.805-4.267,2.416-5.898s3.549-2.447,5.816-2.447
			C78.691-8.283,80.917-7.016,82.473-4.481z"/>
		<path class="st5" d="M84.889-8.057h3.526V4.868h4.856V8.42h-8.382V-8.057z"/>
		<path class="st5" d="M94.469-8.057h9.274v3.263H98.02v3.325h5.722v3.213H98.02v3.413h5.722V8.42h-9.274V-8.057z"/>
	</g>
	<g class="st3">
		<path class="st4" d="M21.415-8.057L15.156-0.19l6.522,8.61H17.41l-5.808-7.711h-0.05V8.42H8V-8.057h3.551v6.959h0.05l5.455-6.959
			H21.415 M22.452-8.557h-1.037h-4.359h-0.243l-0.15,0.192l-4.611,5.882v-5.574v-0.5h-0.5H8H7.5v0.5V8.42v0.5H8h3.551h0.5v-0.5
			V2.136L17.01,8.72l0.15,0.199h0.249h4.269h1.006l-0.607-0.802l-6.288-8.3l6.017-7.563L22.452-8.557L22.452-8.557z"/>
		<path class="st4" d="M28.292-8.057c1.65,0,2.954,0.435,3.913,1.305c0.959,0.87,1.439,2.044,1.439,3.524
			c0,0.845-0.22,1.723-0.66,2.634c-0.44,0.912-1.251,1.626-2.432,2.145l4.611,6.869h-4.081l-4.264-6.375h-0.401V8.42h-3.551V-8.057
			H28.292 M26.441-0.829h0.768c1.855,0,2.783-0.757,2.783-2.272c0-0.619-0.241-1.111-0.724-1.474
			c-0.483-0.364-1.152-0.546-2.009-0.546h-0.819V-0.829 M28.292-8.557h-5.428h-0.5v0.5V8.42v0.5h0.5h3.551h0.5v-0.5V3.091
			l3.75,5.606l0.148,0.222h0.267h4.081H36.1l-0.523-0.779l-4.291-6.392c1.006-0.542,1.728-1.255,2.148-2.125
			c0.471-0.975,0.709-1.935,0.709-2.851c0-1.62-0.539-2.93-1.603-3.895C31.492-8.075,30.062-8.557,28.292-8.557L28.292-8.557z
			 M26.941-4.621h0.319c0.742,0,1.316,0.15,1.707,0.445c0.358,0.27,0.525,0.612,0.525,1.075c0,0.825-0.259,1.772-2.283,1.772h-0.268
			V-4.621L26.941-4.621z"/>
		<path class="st4" d="M45.007-8.057L51.72,8.42h-3.574l-1.319-3.238h-6.323L39.212,8.42h-3.555l6.599-16.477H45.007 M41.695,2.195
			h3.916l-1.979-4.856L41.695,2.195 M45.344-8.557h-0.336h-2.751h-0.338l-0.126,0.314L35.193,8.234L34.918,8.92h0.739h3.555h0.339
			l0.126-0.315l1.166-2.923h5.648l1.192,2.926l0.127,0.311h0.336h3.574h0.744l-0.281-0.689L45.47-8.246L45.344-8.557L45.344-8.557z
			 M42.433,1.695l1.204-3.019l1.23,3.019H42.433L42.433,1.695z"/>
		<path class="st4" d="M58.462-8.283c2.895,0,5.12,1.268,6.676,3.802l-2.36,2.209c-0.493-0.853-1.104-1.491-1.832-1.914
			c-0.728-0.422-1.489-0.634-2.283-0.634c-1.289,0-2.407,0.489-3.357,1.468c-0.95,0.979-1.425,2.133-1.425,3.464
			c0,1.414,0.475,2.612,1.425,3.595c0.949,0.983,2.093,1.474,3.432,1.474c0.728,0,1.428-0.184,2.102-0.552
			c0.674-0.368,1.215-1.058,1.625-2.071h-3.903v-3.213h7.605V1.48c0,1.096-0.376,2.273-1.129,3.533
			c-0.753,1.259-1.744,2.18-2.974,2.761c-1.229,0.582-2.472,0.872-3.727,0.872c-2.276,0-4.195-0.824-5.76-2.472
			c-1.565-1.648-2.347-3.685-2.347-6.112c0-2.3,0.805-4.267,2.415-5.898C54.256-7.468,56.194-8.283,58.462-8.283 M58.462-8.783
			c-2.395,0-4.472,0.873-6.172,2.596c-1.698,1.72-2.56,3.823-2.56,6.249c0,2.548,0.836,4.72,2.484,6.456
			c1.655,1.744,3.715,2.628,6.122,2.628c1.324,0,2.65-0.31,3.941-0.92c1.315-0.621,2.388-1.616,3.189-2.956
			c0.796-1.332,1.2-2.607,1.2-3.789v-2.133v-0.5h-0.5h-7.605h-0.5v0.5v3.213v0.5h0.5h3.109c-0.305,0.53-0.663,0.909-1.07,1.132
			c-0.596,0.326-1.223,0.491-1.862,0.491c-1.209,0-2.214-0.432-3.072-1.322c-0.864-0.894-1.284-1.957-1.284-3.248
			c0-1.206,0.42-2.226,1.283-3.115c0.859-0.886,1.84-1.316,2.998-1.316c0.702,0,1.385,0.19,2.032,0.566
			c0.648,0.376,1.203,0.959,1.65,1.732l0.315,0.545l0.459-0.43l2.36-2.209l0.298-0.279l-0.213-0.348
			C63.918-7.424,61.529-8.783,58.462-8.783L58.462-8.783z"/>
		<path class="st4" d="M75.796-8.283c2.895,0,5.12,1.268,6.676,3.802l-2.36,2.209c-0.493-0.853-1.104-1.491-1.832-1.914
			c-0.728-0.422-1.489-0.634-2.283-0.634c-1.289,0-2.407,0.489-3.357,1.468c-0.95,0.979-1.424,2.133-1.424,3.464
			c0,1.414,0.474,2.612,1.424,3.595c0.949,0.983,2.093,1.474,3.432,1.474c0.728,0,1.428-0.184,2.102-0.552
			c0.674-0.368,1.215-1.058,1.625-2.071h-3.903v-3.213h7.605V1.48c0,1.096-0.376,2.273-1.129,3.533
			c-0.753,1.259-1.744,2.18-2.974,2.761c-1.229,0.582-2.472,0.872-3.727,0.872c-2.276,0-4.196-0.824-5.76-2.472
			c-1.564-1.648-2.347-3.685-2.347-6.112c0-2.3,0.805-4.267,2.416-5.898C71.59-7.468,73.529-8.283,75.796-8.283 M75.796-8.783
			c-2.395,0-4.472,0.873-6.172,2.596c-1.699,1.721-2.56,3.823-2.56,6.249c0,2.547,0.836,4.719,2.484,6.456
			c1.655,1.744,3.715,2.628,6.123,2.628c1.324,0,2.65-0.31,3.941-0.92c1.315-0.621,2.388-1.616,3.189-2.956
			c0.796-1.332,1.2-2.607,1.2-3.789v-2.133v-0.5h-0.5h-7.605h-0.5v0.5v3.213v0.5h0.5h3.109c-0.305,0.53-0.663,0.909-1.07,1.132
			c-0.596,0.326-1.223,0.491-1.862,0.491c-1.209,0-2.214-0.432-3.072-1.322c-0.864-0.894-1.284-1.957-1.284-3.248
			c0-1.207,0.42-2.226,1.283-3.115c0.859-0.886,1.84-1.316,2.998-1.316c0.702,0,1.385,0.19,2.032,0.566
			c0.648,0.376,1.204,0.959,1.65,1.732l0.315,0.545l0.459-0.43l2.36-2.209l0.298-0.279l-0.213-0.348
			C81.253-7.424,78.863-8.783,75.796-8.783L75.796-8.783z"/>
		<path class="st4" d="M88.415-8.057V4.868h4.856V8.42h-8.382V-8.057H88.415 M88.915-8.557h-0.5h-3.526h-0.5v0.5V8.42v0.5h0.5h8.382
			h0.5v-0.5V4.868v-0.5h-0.5h-4.356V-8.057V-8.557L88.915-8.557z"/>
		<path class="st4" d="M103.743-8.057v3.263H98.02v3.325h5.722v3.213H98.02v3.413h5.722V8.42h-9.274V-8.057H103.743 M104.243-8.557
			h-0.5h-9.274h-0.5v0.5V8.42v0.5h0.5h9.274h0.5v-0.5V5.157v-0.5h-0.5H98.52V2.244h5.222h0.5v-0.5v-3.213v-0.5h-0.5H98.52v-2.325
			h5.222h0.5v-0.5v-3.263V-8.557L104.243-8.557z"/>
	</g>
</g>
<rect x="50" y="2" class="st6" width="28" height="28"/>
<g>
	
		<use xlink:href="#KraggleSites_Logo_Part"  width="22.843" height="28.847" id="XMLID_1_" x="-11.422" y="-14.423" transform="matrix(0.7059 0 0 -0.7059 27.3511 20.8187)" style="overflow:visible;"/>
	
		<use xlink:href="#KraggleSites_Logo_Part"  width="22.843" height="28.847" x="-11.422" y="-14.423" transform="matrix(-0.3529 -0.6113 -0.6113 0.3529 15.3667 10.2619)" style="overflow:visible;"/>
	
		<use xlink:href="#KraggleSites_Logo_Part"  width="22.843" height="28.847" x="-11.422" y="-14.423" transform="matrix(-0.3529 0.6113 0.6113 0.3529 12.2187 25.9192)" style="overflow:visible;"/>
</g>
<g>
	<g>
		<path class="st7" d="M38.416,16.244V6.271h1.806v4.467l4.453-4.467h2.175L42,11.059l5.069,5.185h-2.209l-4.638-4.665v4.665H38.416
			z"/>
		<path class="st7" d="M47.499,9.171h1.635l0.144,1.245c0.178-0.456,0.458-0.806,0.841-1.05C50.502,9.122,50.935,9,51.419,9
			c0.274,0.005,0.508,0.044,0.705,0.117l-0.014,1.594c-0.301-0.124-0.609-0.185-0.923-0.185c-0.597,0-1.053,0.174-1.368,0.52
			c-0.315,0.346-0.472,0.805-0.472,1.374v3.824h-1.737v-5.068C47.609,10.428,47.572,9.759,47.499,9.171z"/>
		<path class="st7" d="M52.568,12.711c0-0.729,0.134-1.376,0.4-1.942c0.267-0.564,0.639-1.003,1.115-1.315
			c0.476-0.311,1.018-0.467,1.624-0.467c0.515,0,0.972,0.108,1.372,0.326c0.399,0.218,0.708,0.522,0.927,0.912V9.171h1.71v7.073
			h-1.71v-1.135c-0.214,0.393-0.524,0.698-0.927,0.917c-0.404,0.219-0.861,0.328-1.372,0.328c-0.616,0-1.162-0.149-1.638-0.448
			c-0.477-0.299-0.846-0.724-1.108-1.273C52.699,14.081,52.568,13.441,52.568,12.711z M54.333,12.711
			c0,0.73,0.161,1.292,0.482,1.685c0.322,0.393,0.777,0.589,1.365,0.589c0.579,0,1.028-0.201,1.348-0.603
			c0.319-0.402,0.479-0.968,0.479-1.698c0-0.749-0.159-1.325-0.479-1.727c-0.319-0.401-0.773-0.602-1.361-0.602
			c-0.579,0-1.029,0.207-1.351,0.623C54.494,11.394,54.333,11.971,54.333,12.711z"/>
		<path class="st7" d="M61.234,12.512c0-0.692,0.134-1.306,0.4-1.842c0.267-0.535,0.641-0.949,1.122-1.244
			c0.481-0.294,1.03-0.44,1.645-0.44c0.525,0,0.99,0.108,1.395,0.326c0.406,0.218,0.716,0.522,0.93,0.912V9.171h1.738v6.848
			c0,1.103-0.305,1.939-0.913,2.51c-0.609,0.57-1.502,0.856-2.678,0.856c-1.094,0-2.054-0.229-2.88-0.688l0.274-1.326
			c0.857,0.448,1.712,0.673,2.565,0.673c1.259,0,1.89-0.626,1.894-1.878V14.76c-0.214,0.383-0.527,0.692-0.94,0.93
			c-0.413,0.237-0.874,0.356-1.385,0.356c-0.616,0-1.164-0.147-1.645-0.442c-0.481-0.295-0.854-0.71-1.122-1.246
			C61.368,13.821,61.234,13.207,61.234,12.512z M62.999,12.512c0,0.671,0.165,1.201,0.496,1.586c0.331,0.386,0.786,0.58,1.365,0.58
			c0.579,0,1.035-0.193,1.368-0.576c0.333-0.384,0.499-0.913,0.499-1.59c0-0.671-0.164-1.199-0.492-1.583
			c-0.328-0.383-0.787-0.575-1.375-0.575c-0.579,0-1.034,0.192-1.365,0.575C63.164,11.314,62.999,11.841,62.999,12.512z"/>
		<path class="st7" d="M69.955,12.512c0-0.692,0.135-1.306,0.4-1.842c0.267-0.535,0.642-0.949,1.122-1.244
			c0.482-0.294,1.03-0.44,1.646-0.44c0.524,0,0.989,0.108,1.395,0.326c0.406,0.218,0.716,0.522,0.93,0.912V9.171h1.737v6.848
			c0,1.103-0.304,1.939-0.912,2.51c-0.61,0.57-1.503,0.856-2.679,0.856c-1.094,0-2.054-0.229-2.879-0.688l0.274-1.326
			c0.857,0.448,1.712,0.673,2.566,0.673c1.259,0,1.89-0.626,1.894-1.878V14.76c-0.215,0.383-0.528,0.692-0.941,0.93
			c-0.413,0.237-0.873,0.356-1.385,0.356c-0.616,0-1.164-0.147-1.646-0.442c-0.48-0.295-0.854-0.71-1.122-1.246
			C70.09,13.821,69.955,13.207,69.955,12.512z M71.721,12.512c0,0.671,0.164,1.201,0.495,1.586c0.331,0.386,0.786,0.58,1.366,0.58
			c0.579,0,1.034-0.193,1.368-0.576c0.333-0.384,0.499-0.913,0.499-1.59c0-0.671-0.164-1.199-0.492-1.583
			c-0.328-0.383-0.787-0.575-1.374-0.575c-0.58,0-1.034,0.192-1.366,0.575C71.885,11.314,71.721,11.841,71.721,12.512z"/>
		<path class="st7" d="M79.066,16.244V5.935h1.738v10.309H79.066z"/>
		<path class="st7" d="M82.33,12.687c0-0.721,0.144-1.362,0.435-1.922c0.289-0.562,0.695-0.998,1.218-1.31
			c0.522-0.313,1.117-0.468,1.782-0.468c0.971,0,1.738,0.316,2.301,0.947c0.563,0.631,0.845,1.496,0.845,2.595v0.267h-4.87
			c0.036,0.757,0.225,1.315,0.564,1.675c0.34,0.361,0.847,0.541,1.522,0.541c0.776,0,1.494-0.253,2.155-0.76l0.506,1.204
			c-0.338,0.269-0.751,0.486-1.242,0.65c-0.489,0.164-0.986,0.246-1.487,0.246c-1.159,0-2.07-0.326-2.733-0.979
			C82.661,14.723,82.33,13.827,82.33,12.687z M84.094,11.86h3.29c-0.055-0.535-0.215-0.937-0.482-1.208
			c-0.266-0.272-0.632-0.406-1.098-0.406c-0.47,0-0.851,0.138-1.146,0.414C84.365,10.935,84.176,11.335,84.094,11.86z"/>
		<path class="st7" d="M93.883,15.177l0.615-1.313c0.484,0.365,0.99,0.632,1.52,0.804c0.528,0.17,1.105,0.257,1.73,0.257
			c0.692,0,1.229-0.121,1.608-0.363c0.378-0.242,0.568-0.582,0.568-1.02c0-0.374-0.177-0.661-0.528-0.861
			c-0.35-0.201-0.928-0.39-1.73-0.568c-1.25-0.269-2.159-0.619-2.73-1.05c-0.569-0.43-0.854-1.057-0.854-1.877
			c0-0.588,0.158-1.111,0.476-1.57c0.317-0.458,0.767-0.819,1.351-1.081c0.583-0.262,1.259-0.393,2.025-0.393
			c0.699,0,1.363,0.105,1.991,0.318c0.627,0.212,1.141,0.503,1.541,0.871l-0.598,1.321c-0.888-0.711-1.865-1.067-2.934-1.067
			c-0.644,0-1.151,0.134-1.526,0.4c-0.375,0.267-0.561,0.628-0.561,1.085c0,0.391,0.165,0.691,0.496,0.899
			c0.33,0.207,0.898,0.398,1.701,0.571c0.829,0.196,1.505,0.409,2.027,0.64c0.522,0.23,0.922,0.525,1.2,0.885
			c0.28,0.361,0.419,0.81,0.419,1.348c0,0.598-0.158,1.119-0.474,1.563c-0.316,0.445-0.772,0.788-1.37,1.029
			c-0.598,0.242-1.301,0.363-2.11,0.363c-0.766,0-1.483-0.102-2.152-0.308C94.915,15.854,94.348,15.56,93.883,15.177z"/>
		<path class="st7" d="M103.138,7.68V5.956h1.943V7.68H103.138z M103.342,16.244V9.171h1.642v7.073H103.342z"/>
		<path class="st7" d="M106.004,10.484V9.171h1.374V7.447l1.738-0.588v2.312h1.888v1.313h-1.888v3.166
			c0,0.83,0.39,1.246,1.171,1.246c0.216,0,0.449-0.037,0.702-0.109v1.388c-0.296,0.109-0.654,0.164-1.073,0.164
			c-0.018,0-0.034,0-0.048,0c-0.802,0-1.418-0.223-1.846-0.67c-0.429-0.447-0.644-1.092-0.644-1.936v-3.249H106.004z"/>
		<path class="st7" d="M111.818,12.687c0-0.721,0.145-1.362,0.435-1.922c0.289-0.562,0.696-0.998,1.218-1.31
			c0.522-0.313,1.115-0.468,1.782-0.468c0.971,0,1.738,0.316,2.301,0.947s0.845,1.496,0.845,2.595v0.267h-4.87
			c0.037,0.757,0.224,1.315,0.564,1.675c0.34,0.361,0.847,0.541,1.522,0.541c0.776,0,1.494-0.253,2.155-0.76l0.506,1.204
			c-0.338,0.269-0.751,0.486-1.242,0.65c-0.49,0.164-0.986,0.246-1.487,0.246c-1.159,0-2.07-0.326-2.733-0.979
			C112.15,14.723,111.818,13.827,111.818,12.687z M113.583,11.86h3.29c-0.055-0.535-0.215-0.937-0.482-1.208
			c-0.266-0.272-0.632-0.406-1.098-0.406c-0.469,0-0.851,0.138-1.146,0.414C113.853,10.935,113.665,11.335,113.583,11.86z"/>
		<path class="st7" d="M119.422,15.457l0.485-1.229c0.757,0.56,1.62,0.84,2.591,0.84c0.42,0,0.746-0.069,0.977-0.208
			c0.232-0.139,0.347-0.337,0.347-0.591c0-0.215-0.08-0.384-0.24-0.509c-0.16-0.125-0.431-0.236-0.815-0.331l-1.178-0.26
			c-1.289-0.278-1.934-0.936-1.934-1.972c0-0.429,0.122-0.811,0.365-1.145c0.244-0.335,0.585-0.595,1.025-0.782
			c0.44-0.187,0.946-0.281,1.521-0.281c0.509,0,0.999,0.078,1.469,0.234s0.884,0.378,1.242,0.666l-0.524,1.191
			c-0.711-0.519-1.438-0.778-2.18-0.778c-0.004,0-0.012,0-0.02,0c-0.403,0-0.716,0.074-0.94,0.222
			c-0.224,0.148-0.336,0.354-0.336,0.614c0,0.206,0.067,0.37,0.202,0.495c0.136,0.123,0.368,0.226,0.698,0.308l1.204,0.266
			c0.708,0.159,1.224,0.403,1.548,0.731c0.324,0.329,0.486,0.76,0.486,1.291c0,0.651-0.263,1.169-0.788,1.551
			c-0.525,0.383-1.244,0.575-2.156,0.575C121.195,16.353,120.179,16.054,119.422,15.457z"/>
	</g>
	<g>
		<path class="st1" d="M38.416,21.079v-0.63h3.574v0.63h-1.403v3.642h-0.773v-3.642H38.416z"/>
		<path class="st1" d="M42.467,24.72v-4.415h0.744v1.827c0.104-0.165,0.242-0.294,0.415-0.385s0.365-0.136,0.576-0.136
			c0.721,0,1.081,0.416,1.081,1.248v1.86h-0.744v-1.821c0-0.239-0.046-0.414-0.138-0.522c-0.092-0.109-0.234-0.164-0.428-0.164
			c-0.229,0-0.413,0.072-0.552,0.218s-0.209,0.338-0.209,0.577v1.713H42.467z"/>
		<path class="st1" d="M45.916,23.197c0-0.309,0.062-0.583,0.186-0.823s0.298-0.427,0.521-0.562c0.224-0.133,0.478-0.2,0.763-0.2
			c0.416,0,0.745,0.136,0.986,0.405c0.241,0.271,0.362,0.642,0.362,1.112v0.114h-2.086c0.016,0.324,0.096,0.563,0.242,0.718
			s0.363,0.231,0.652,0.231c0.332,0,0.64-0.108,0.923-0.325l0.217,0.516c-0.145,0.115-0.322,0.208-0.532,0.278
			s-0.422,0.105-0.637,0.105c-0.496,0-0.886-0.14-1.17-0.419S45.916,23.685,45.916,23.197z M46.671,22.842h1.409
			c-0.023-0.229-0.092-0.4-0.207-0.517s-0.271-0.175-0.47-0.175c-0.201,0-0.365,0.06-0.491,0.177
			C46.787,22.447,46.707,22.618,46.671,22.842z"/>
		<path class="st1" d="M50.966,21.691h0.7l0.056,0.486c0.088-0.182,0.215-0.321,0.381-0.419s0.357-0.146,0.574-0.146
			c0.462,0,0.762,0.194,0.9,0.583c0.096-0.182,0.232-0.324,0.411-0.428c0.178-0.104,0.377-0.155,0.599-0.155
			c0.342,0,0.596,0.104,0.764,0.31c0.167,0.206,0.25,0.519,0.25,0.938v1.86h-0.744v-1.833c0-0.239-0.039-0.412-0.118-0.517
			c-0.078-0.105-0.208-0.158-0.388-0.158c-0.208,0-0.371,0.072-0.489,0.218c-0.119,0.146-0.178,0.346-0.178,0.601v1.689h-0.744
			v-1.833c0-0.235-0.041-0.407-0.123-0.514c-0.082-0.107-0.211-0.161-0.387-0.161c-0.207,0-0.371,0.072-0.492,0.218
			s-0.182,0.346-0.182,0.601v1.689h-0.744v-2.171C51.013,22.229,50.998,21.943,50.966,21.691z"/>
		<path class="st1" d="M56.24,23.207c0-0.313,0.057-0.59,0.171-0.832c0.114-0.241,0.273-0.43,0.478-0.563s0.436-0.2,0.696-0.2
			c0.221,0,0.417,0.047,0.587,0.14c0.171,0.094,0.303,0.224,0.397,0.391v-0.451h0.732v3.029h-0.732v-0.486
			c-0.092,0.168-0.224,0.299-0.397,0.393s-0.369,0.141-0.587,0.141c-0.264,0-0.498-0.064-0.702-0.192s-0.362-0.31-0.475-0.545
			S56.24,23.52,56.24,23.207z M56.996,23.207c0,0.313,0.069,0.553,0.207,0.722c0.138,0.168,0.333,0.252,0.584,0.252
			c0.248,0,0.44-0.086,0.577-0.258c0.137-0.173,0.205-0.415,0.205-0.729c0-0.32-0.068-0.566-0.205-0.739
			c-0.137-0.172-0.331-0.258-0.583-0.258c-0.248,0-0.441,0.089-0.579,0.267C57.064,22.643,56.996,22.89,56.996,23.207z"/>
		<path class="st1" d="M59.952,23.122c0-0.297,0.057-0.56,0.171-0.789s0.274-0.407,0.48-0.533s0.441-0.188,0.705-0.188
			c0.225,0,0.424,0.047,0.598,0.14c0.174,0.094,0.307,0.224,0.398,0.391v-0.451h0.744v2.933c0,0.473-0.13,0.831-0.391,1.075
			s-0.643,0.366-1.147,0.366c-0.469,0-0.88-0.099-1.233-0.294l0.117-0.568c0.367,0.192,0.733,0.288,1.099,0.288
			c0.539,0,0.81-0.269,0.812-0.805v-0.602c-0.092,0.164-0.226,0.297-0.403,0.398s-0.375,0.152-0.593,0.152
			c-0.264,0-0.499-0.063-0.705-0.189s-0.366-0.304-0.48-0.533S59.952,23.419,59.952,23.122z M60.708,23.122
			c0,0.287,0.071,0.514,0.212,0.679s0.336,0.248,0.584,0.248s0.443-0.082,0.586-0.246c0.143-0.165,0.214-0.392,0.214-0.681
			c0-0.288-0.07-0.514-0.211-0.679c-0.141-0.164-0.337-0.246-0.589-0.246c-0.248,0-0.443,0.082-0.584,0.246
			C60.778,22.609,60.708,22.834,60.708,23.122z"/>
		<path class="st1" d="M63.807,21.052v-0.738h0.832v0.738H63.807z M63.895,24.72v-3.029h0.703v3.029H63.895z"/>
		<path class="st1" d="M65.252,23.211c0-0.317,0.064-0.596,0.194-0.837c0.13-0.24,0.313-0.428,0.552-0.562s0.514-0.201,0.824-0.201
			c0.217,0,0.426,0.034,0.628,0.104s0.362,0.164,0.481,0.284l-0.207,0.528c-0.129-0.104-0.266-0.182-0.409-0.235
			s-0.286-0.08-0.427-0.08c-0.271,0-0.482,0.085-0.635,0.254c-0.152,0.17-0.229,0.414-0.229,0.733s0.074,0.563,0.225,0.73
			c0.15,0.167,0.363,0.251,0.639,0.251c0.141,0,0.283-0.028,0.427-0.085s0.28-0.136,0.409-0.239l0.207,0.526
			c-0.129,0.119-0.295,0.213-0.498,0.281s-0.416,0.103-0.641,0.103c-0.316,0-0.591-0.063-0.822-0.191s-0.409-0.309-0.533-0.541
			C65.313,23.801,65.252,23.527,65.252,23.211z"/>
		<path class="st1" d="M69.912,23.193c0-0.321,0.063-0.601,0.189-0.839c0.126-0.239,0.307-0.422,0.541-0.55s0.504-0.192,0.811-0.192
			c0.305,0,0.57,0.064,0.802,0.192c0.23,0.128,0.408,0.311,0.534,0.55c0.125,0.238,0.188,0.518,0.188,0.839
			c0,0.319-0.063,0.598-0.188,0.835c-0.126,0.237-0.304,0.42-0.534,0.548c-0.231,0.128-0.497,0.191-0.802,0.191
			c-0.307,0-0.576-0.063-0.811-0.191s-0.415-0.311-0.541-0.548S69.912,23.512,69.912,23.193z M70.668,23.193
			c0,0.327,0.067,0.574,0.201,0.739c0.134,0.166,0.326,0.249,0.578,0.249c0.256,0,0.451-0.083,0.585-0.249
			c0.134-0.165,0.2-0.412,0.2-0.739c0-0.324-0.067-0.571-0.203-0.74c-0.136-0.17-0.328-0.255-0.576-0.255
			c-0.252,0-0.445,0.085-0.581,0.255C70.736,22.621,70.668,22.869,70.668,23.193z"/>
		<path class="st1" d="M73.229,22.253v-0.563h0.584v-0.295c0-0.357,0.09-0.634,0.27-0.827c0.181-0.193,0.439-0.29,0.779-0.29
			c0.188,0,0.346,0.024,0.475,0.072v0.59c-0.111-0.027-0.209-0.042-0.293-0.044c-0.324,0.002-0.486,0.181-0.486,0.536v0.258h0.682
			v0.563h-0.682v2.467h-0.744v-2.467H73.229z"/>
		<path class="st1" d="M77.193,20.449h0.785l1.068,3.185l1.111-3.185h0.551l1.086,3.211l1.094-3.211h0.744l-1.512,4.271H81.49
			l-1.074-3.073l-1.088,3.073h-0.629L77.193,20.449z"/>
		<path class="st1" d="M83.652,23.197c0-0.309,0.062-0.583,0.186-0.823s0.298-0.427,0.521-0.562c0.224-0.133,0.479-0.2,0.764-0.2
			c0.416,0,0.744,0.136,0.986,0.405c0.24,0.271,0.361,0.642,0.361,1.112v0.114h-2.086c0.016,0.324,0.096,0.563,0.242,0.718
			c0.145,0.154,0.362,0.231,0.651,0.231c0.332,0,0.64-0.108,0.923-0.325l0.217,0.516c-0.145,0.115-0.322,0.208-0.531,0.278
			c-0.211,0.07-0.423,0.105-0.638,0.105c-0.496,0-0.886-0.14-1.171-0.419C83.795,24.069,83.652,23.685,83.652,23.197z
			 M84.408,22.842h1.409c-0.023-0.229-0.093-0.4-0.206-0.517c-0.115-0.116-0.271-0.175-0.471-0.175c-0.201,0-0.365,0.06-0.49,0.177
			C84.523,22.447,84.443,22.618,84.408,22.842z"/>
		<path class="st1" d="M87.106,24.72v-4.415h0.75v1.837c0.092-0.167,0.224-0.297,0.395-0.391c0.172-0.093,0.368-0.14,0.588-0.14
			c0.264,0,0.496,0.064,0.698,0.194s0.359,0.313,0.472,0.549c0.112,0.236,0.168,0.511,0.168,0.822c0,0.313-0.057,0.591-0.171,0.832
			s-0.272,0.428-0.475,0.56s-0.433,0.198-0.692,0.198c-0.224,0-0.423-0.048-0.597-0.144c-0.173-0.096-0.304-0.229-0.392-0.401v0.498
			H87.106z M87.851,23.189c0,0.321,0.067,0.566,0.203,0.737c0.136,0.17,0.332,0.255,0.589,0.255c0.246,0,0.438-0.089,0.573-0.266
			c0.137-0.177,0.205-0.423,0.205-0.738c0-0.313-0.068-0.554-0.205-0.725c-0.136-0.17-0.33-0.255-0.581-0.255
			c-0.252,0-0.445,0.086-0.581,0.258C87.918,22.628,87.851,22.872,87.851,23.189z"/>
		<path class="st1" d="M92.523,24.72v-4.271h1.568c0.697,0,1.24,0.186,1.626,0.559c0.386,0.371,0.579,0.896,0.579,1.571
			c0,0.68-0.192,1.207-0.578,1.581c-0.385,0.374-0.928,0.561-1.627,0.561H92.523z M93.297,24.09h0.75
			c0.984,0,1.477-0.504,1.477-1.512c0-1-0.492-1.5-1.477-1.5h-0.75V24.09z"/>
		<path class="st1" d="M96.871,23.197c0-0.309,0.062-0.583,0.186-0.823s0.298-0.427,0.521-0.562c0.224-0.133,0.479-0.2,0.764-0.2
			c0.416,0,0.744,0.136,0.986,0.405c0.24,0.271,0.361,0.642,0.361,1.112v0.114h-2.086c0.016,0.324,0.096,0.563,0.242,0.718
			c0.145,0.154,0.362,0.231,0.651,0.231c0.332,0,0.64-0.108,0.923-0.325l0.217,0.516c-0.145,0.115-0.322,0.208-0.531,0.278
			c-0.211,0.07-0.423,0.105-0.638,0.105c-0.496,0-0.886-0.14-1.171-0.419C97.014,24.069,96.871,23.685,96.871,23.197z
			 M97.627,22.842h1.409c-0.023-0.229-0.093-0.4-0.206-0.517c-0.115-0.116-0.271-0.175-0.471-0.175c-0.201,0-0.365,0.06-0.49,0.177
			C97.742,22.447,97.662,22.618,97.627,22.842z"/>
		<path class="st1" d="M100.129,24.383l0.208-0.526c0.323,0.239,0.693,0.359,1.108,0.359c0.181,0,0.32-0.029,0.419-0.089
			s0.148-0.145,0.148-0.254c0-0.092-0.034-0.164-0.103-0.218s-0.185-0.102-0.349-0.143l-0.505-0.11
			c-0.552-0.12-0.828-0.401-0.828-0.846c0-0.184,0.052-0.347,0.156-0.49c0.104-0.143,0.251-0.254,0.439-0.335
			c0.188-0.08,0.405-0.12,0.65-0.12c0.219,0,0.429,0.033,0.63,0.101c0.201,0.066,0.379,0.161,0.531,0.285l-0.224,0.511
			c-0.305-0.223-0.616-0.334-0.934-0.334c-0.002,0-0.005,0-0.01,0c-0.172,0-0.306,0.032-0.402,0.096
			c-0.096,0.063-0.144,0.151-0.144,0.263c0,0.088,0.029,0.158,0.087,0.211c0.058,0.054,0.157,0.098,0.299,0.133l0.516,0.113
			c0.303,0.068,0.524,0.173,0.663,0.314c0.139,0.141,0.208,0.325,0.208,0.553c0,0.278-0.112,0.5-0.338,0.664
			c-0.225,0.164-0.532,0.246-0.924,0.246C100.888,24.767,100.452,24.639,100.129,24.383z"/>
		<path class="st1" d="M103.284,21.052v-0.738h0.832v0.738H103.284z M103.372,24.72v-3.029h0.703v3.029H103.372z"/>
		<path class="st1" d="M104.729,23.122c0-0.297,0.057-0.56,0.172-0.789c0.113-0.229,0.273-0.407,0.48-0.533
			c0.205-0.126,0.44-0.188,0.704-0.188c0.225,0,0.424,0.047,0.598,0.14c0.174,0.094,0.307,0.224,0.398,0.391v-0.451h0.744v2.933
			c0,0.473-0.13,0.831-0.392,1.075c-0.26,0.244-0.643,0.366-1.146,0.366c-0.469,0-0.88-0.099-1.233-0.294l0.117-0.568
			c0.367,0.192,0.733,0.288,1.099,0.288c0.539,0,0.81-0.269,0.812-0.805v-0.602c-0.092,0.164-0.227,0.297-0.403,0.398
			s-0.374,0.152-0.593,0.152c-0.264,0-0.499-0.063-0.704-0.189c-0.207-0.126-0.367-0.304-0.48-0.533
			C104.785,23.683,104.729,23.419,104.729,23.122z M105.484,23.122c0,0.287,0.07,0.514,0.213,0.679
			c0.141,0.165,0.336,0.248,0.584,0.248s0.443-0.082,0.586-0.246c0.143-0.165,0.214-0.392,0.214-0.681
			c0-0.288-0.07-0.514-0.211-0.679c-0.141-0.164-0.337-0.246-0.589-0.246c-0.248,0-0.443,0.082-0.584,0.246
			C105.555,22.609,105.484,22.834,105.484,23.122z"/>
		<path class="st1" d="M108.585,21.691h0.7l0.056,0.504c0.104-0.186,0.244-0.329,0.422-0.431s0.379-0.152,0.604-0.152
			c0.721,0,1.081,0.416,1.081,1.248v1.86h-0.744v-1.821c0-0.239-0.046-0.414-0.138-0.522c-0.092-0.109-0.234-0.164-0.428-0.164
			c-0.229,0-0.413,0.072-0.552,0.218c-0.141,0.146-0.21,0.338-0.21,0.577v1.713h-0.744v-2.171
			C108.632,22.229,108.616,21.943,108.585,21.691z"/>
	</g>
</g>
</svg>
