<?xml version="1.0" encoding="utf-8"?>
<!-- Generator: Adobe Illustrator 21.0.1, SVG Export Plug-In . SVG Version: 6.00 Build 0)  -->
<svg version="1.1" id="Layer_1" xmlns="http://www.w3.org/2000/svg" xmlns:xlink="http://www.w3.org/1999/xlink" x="0px" y="0px"
	 viewBox="0 0 97.96 33.671" style="enable-background:new 0 0 97.96 33.671;" xml:space="preserve">
<style type="text/css">
	.st0{fill:#FF6D10;}
</style>
<title>logo2</title>
<path class="st0" d="M14.32,24.391l0.33-1.14l1.64-5.65c0.015-0.085,0.095-0.142,0.18-0.13h2.09c0.12,0,0.16,0,0.16,0.16v2.73
	c0,0.21,0,0.2,0.21,0.21c0.868,0.047,1.739-0.02,2.59-0.2c0.817-0.147,1.585-0.49,2.24-1c0.557-0.447,0.937-1.078,1.07-1.78
	c0-0.1,0.06-0.12,0.15-0.12h3.58c0.11,0,0.13,0,0.12,0.14c-0.063,0.726-0.249,1.436-0.55,2.1c-0.357,0.763-0.867,1.444-1.5,2
	c-1.025,0.887-2.224,1.551-3.52,1.95c-1.042,0.345-2.118,0.573-3.21,0.68h-5.58V24.391z"/>
<path class="st0" d="M71.12,17.471h1.72c0.18,0,0.18,0,0.19,0.19c0.037,0.602,0.186,1.193,0.44,1.74
	c0.305,0.712,0.845,1.298,1.53,1.66c0.887,0.461,1.969,0.313,2.7-0.37c0.645-0.58,1.086-1.351,1.26-2.2
	c0.058-0.281,0.101-0.565,0.13-0.85c0-0.12,0-0.17,0.18-0.17h3.83c0.09,0,0.15,0,0.14,0.13c-0.031,0.614-0.135,1.221-0.31,1.81
	c-0.68,2.508-2.694,4.433-5.23,5c-1.432,0.355-2.943,0.195-4.27-0.45c-1.912-0.877-3.339-2.553-3.9-4.58
	c-0.168-0.569-0.265-1.157-0.29-1.75c0-0.18,0-0.18,0.18-0.18L71.12,17.471z"/>
<path class="st0" d="M83.21,16.801h-4c-0.1,0-0.15,0-0.16-0.14c-0.06-0.596-0.23-1.176-0.5-1.71c-0.246-0.508-0.61-0.95-1.06-1.29
	c-0.926-0.713-2.233-0.645-3.08,0.16c-0.611,0.551-1.037,1.278-1.22,2.08c-0.064,0.267-0.115,0.538-0.15,0.81
	c0,0.06,0,0.09-0.09,0.09h-3.67c-0.013-0.249,0.014-0.499,0.08-0.74c0.221-1.411,0.846-2.727,1.8-3.79
	c1.029-1.191,2.446-1.98,4-2.23c1.921-0.332,3.89,0.203,5.38,1.46c1.382,1.114,2.304,2.698,2.59,4.45c0,0.22,0.07,0.45,0.09,0.67
	C83.22,16.681,83.216,16.741,83.21,16.801z"/>
<path class="st0" d="M28.68,16.801H25c-0.11,0-0.15,0-0.16-0.14c-0.017-0.448-0.137-0.886-0.35-1.28
	c-0.335-0.602-0.858-1.076-1.49-1.35c-0.668-0.284-1.377-0.46-2.1-0.52c-0.666-0.055-1.334-0.055-2,0c-0.2,0-0.2,0-0.2,0.21v2.93
	c0,0.12,0,0.16-0.15,0.16h-2l0.18-0.62c0.573-2,1.147-3.977,1.72-5.93c0-0.12,0.08-0.16,0.2-0.16h3.63
	c0.465-0.009,0.927,0.058,1.37,0.2c1.107,0.329,2.13,0.891,3,1.65c0.957,0.855,1.621,1.988,1.9,3.24
	C28.657,15.721,28.7,16.261,28.68,16.801z"/>
<path class="st0" d="M52.5,20.251l3-0.79v0.32c0.152,1.035,0.965,1.848,2,2c0.493,0.112,1.004,0.119,1.5,0.02
	c0.736-0.157,1.27-0.797,1.29-1.55c-0.002-0.285-0.109-0.559-0.3-0.77c-0.296-0.325-0.657-0.584-1.06-0.76
	c-0.8-0.365-1.626-0.673-2.47-0.92l-1-0.34h7.34c0.105-0.006,0.207,0.034,0.28,0.11c0.654,0.609,0.98,1.492,0.88,2.38
	c-0.061,0.855-0.329,1.682-0.78,2.41c-0.607,0.918-1.528,1.583-2.59,1.87c-0.854,0.243-1.743,0.344-2.63,0.3
	c-0.801-0.015-1.591-0.181-2.33-0.49c-1.013-0.429-1.862-1.172-2.42-2.12c-0.29-0.474-0.506-0.99-0.64-1.53
	C52.538,20.349,52.514,20.302,52.5,20.251z"/>
<path class="st0" d="M61.91,16.801h-7.56c-0.094,0.005-0.185-0.032-0.25-0.1c-0.562-0.614-0.943-1.372-1.1-2.19
	c-0.148-0.697-0.053-1.424,0.27-2.06c0.436-0.965,1.244-1.712,2.24-2.07c0.7-0.271,1.44-0.423,2.19-0.45
	c0.944-0.075,1.894,0.01,2.81,0.25c0.992,0.241,1.854,0.853,2.41,1.71c0.316,0.5,0.505,1.07,0.55,1.66c0,0.33,0,0.33-0.31,0.38
	l-2.76,0.47c-0.1,0-0.12,0-0.15-0.09c-0.126-0.426-0.322-0.828-0.58-1.19c-0.299-0.438-0.8-0.694-1.33-0.68
	c-0.244-0.007-0.489,0.01-0.73,0.05c-0.421,0.049-0.765,0.357-0.86,0.77c-0.154,0.431-0.058,0.911,0.25,1.25
	c0.32,0.315,0.706,0.554,1.13,0.7c0.75,0.3,1.51,0.56,2.26,0.86c0.47,0.19,0.92,0.4,1.38,0.61l0.14,0.08V16.801z"/>
<path class="st0" d="M36.15,17.481h3.77c0.093-0.012,0.178,0.054,0.19,0.147c0,0,0,0,0,0.001l0,0c0.14,0.57,0.3,1.14,0.45,1.71v0.13
	l0.05-0.14l0.53-1.74c0.01-0.071,0.076-0.12,0.147-0.11h3.723l-0.17,0.54c-0.667,2.067-1.307,4.13-1.92,6.19
	c-0.015,0.115-0.12,0.196-0.235,0.181c0,0,0,0-0.001,0h-4.2c-0.091,0.012-0.175-0.05-0.19-0.14c-0.593-1.887-1.19-3.773-1.79-5.66
	l-0.31-1L36.15,17.481z"/>
<path class="st0" d="M88,17.471h7.7c0.17,0,0.17,0,0.17,0.17v6.6c0,0.13,0,0.16-0.16,0.16h-3.65c-0.083,0.009-0.163-0.035-0.2-0.11
	l-3.12-5.49l-0.66-1.17L88,17.471z"/>
<path class="st0" d="M91.59,16.801h-7.81c-0.17,0-0.17,0-0.17-0.18v-6.33c0-0.18,0-0.18,0.18-0.18h3.67
	c0.104-0.01,0.204,0.045,0.25,0.14l3.15,5.31l0.67,1.12L91.59,16.801z"/>
<path class="st0" d="M68.79,20.941v3.31c0,0.12,0,0.16-0.15,0.16h-3.71c-0.12,0-0.15,0-0.15-0.16v-6.61c0-0.13,0-0.16,0.16-0.16
	h3.69c0.13,0,0.16,0,0.16,0.16L68.79,20.941z"/>
<path class="st0" d="M47.72,20.941v-3.32c0-0.12,0-0.15,0.16-0.15h3.71c0.12,0,0.16,0,0.16,0.16v6.62c0,0.12,0,0.15-0.16,0.15h-3.72
	c-0.12,0-0.15,0-0.15-0.16L47.72,20.941z"/>
<path class="st0" d="M29.46,20.941v-3.31c0-0.12,0-0.17,0.16-0.16h3.71c0.12,0,0.15,0,0.15,0.15v6.64c0,0.11,0,0.15-0.14,0.14H29.6
	c-0.11,0-0.14,0-0.14-0.14L29.46,20.941z"/>
<path class="st0" d="M87.6,20.931v3.29c0,0.17,0,0.17-0.16,0.17h-3.7c-0.12,0-0.16,0-0.16-0.16v-6.62c0-0.13,0-0.15,0.16-0.15h3.69
	c0.13,0,0.16,0,0.16,0.16C87.59,18.731,87.6,19.801,87.6,20.931z"/>
<path class="st0" d="M33.81,10.091H38c0.1,0,0.14,0,0.17,0.13c0.567,2.147,1.137,4.297,1.71,6.45c0.86,3.23,0,0.07,0,0.13h-3.8
	c-0.091,0.012-0.175-0.05-0.19-0.14l-1.31-4.14l-0.72-2.28L33.81,10.091z"/>
<path class="st0" d="M95.88,13.441v3.18c0,0.16,0,0.16-0.17,0.16H92c-0.12,0-0.15,0-0.15-0.15v-6.4c0-0.12,0-0.15,0.16-0.15h3.72
	c0.12,0,0.15,0,0.15,0.15L95.88,13.441z"/>
<path class="st0" d="M51.72,16.801h-3.85c-0.13,0-0.16,0-0.16-0.16c0-2.12,0-4.243,0-6.37c0-0.17,0-0.17,0.16-0.17h3.71
	c0.12,0,0.15,0,0.15,0.15v6.46C51.73,19.941,51.73,16.741,51.72,16.801z"/>
<path class="st0" d="M64.78,13.431v-3.19c0-0.12,0-0.16,0.16-0.16h3.71c0.11,0,0.15,0,0.15,0.15v6.41c0,0.11,0,0.15-0.15,0.15h-3.71
	c-0.12,0-0.16,0-0.16-0.16V13.431z"/>
<path class="st0" d="M33.47,13.431v3.2c0,0.11,0,0.15-0.15,0.15h-3.71c-0.12,0-0.15,0-0.15-0.15v-6.41c0-0.11,0-0.15,0.15-0.15h3.72
	c0.12,0,0.15,0,0.15,0.15C33.47,11.301,33.47,12.371,33.47,13.431z"/>
<path class="st0" d="M41.44,16.801l0.09-0.31l1.74-5.69c0.06-0.2,0.13-0.4,0.19-0.6c0.01-0.062,0.067-0.106,0.13-0.1h3.77
	l-0.16,0.55l-1.87,6c0,0.07,0,0.11-0.13,0.11h-3.76V16.801z"/>
<path class="st0" d="M9.95,16.801v-2.59c0-0.21,0-0.21-0.21-0.21H7.51c-0.12,0-0.16,0-0.16,0.15v2.5c0,0.12,0,0.15-0.15,0.15H5.83
	v-6.49c0-0.19,0-0.19,0.18-0.19h1.22c0.1,0,0.13,0,0.13,0.13v2.24c0,0.17,0,0.17,0.16,0.17h2.26c0.16,0,0.17,0,0.17-0.17v-2.2
	c0-0.12,0-0.17,0.16-0.17h1.19c0.13,0,0.16,0,0.16,0.16v6.36c0,0.12,0,0.17-0.16,0.16H9.95z"/>
<path d="M2.87,4.071c0.273-0.09,0.439-0.367,0.39-0.65l0,0c-0.18-0.16-0.11-0.39-0.15-0.59v-0.12H2.9l-0.64,0.09
	C2.144,2.826,2.03,2.756,2,2.641c-0.06-0.13-0.12-0.25,0-0.39c0.073-0.12,0.157-0.234,0.25-0.34c0.115-0.1,0.239-0.191,0.37-0.27
	c0.096-0.087,0.208-0.155,0.33-0.2c0.26,0,0.45-0.26,0.73-0.24C3.717,1.2,3.749,1.176,3.76,1.141l0.08-0.11
	c-0.17,0-0.13-0.2-0.19-0.33l0,0c-0.01-0.056-0.01-0.114,0-0.17c0.052-0.004,0.101-0.025,0.14-0.06c0.07-0.06,0.09-0.16,0.16-0.25
	c0.036-0.048,0.08-0.088,0.13-0.12c0.353-0.206,0.806-0.086,1.012,0.267C5.148,0.464,5.181,0.571,5.19,0.681
	c0.01,0.086,0.01,0.174,0,0.26c-0.013,0.061-0.048,0.115-0.1,0.15c-0.232,0.107-0.498,0.107-0.73,0H4.23
	c0.025,0.138,0.125,0.25,0.26,0.29c0.17,0.07,0.24-0.08,0.34-0.16L5,1.321v0.08l0.07-0.08c0.047-0.075,0.146-0.097,0.221-0.049
	c0.02,0.013,0.037,0.029,0.049,0.049c0.027,0.029,0.061,0.05,0.1,0.06C5.618,1.451,5.812,1.468,6,1.431c0.12,0,0.17,0,0.16,0.16
	c-0.006,0.063-0.006,0.127,0,0.19c0.135-0.011,0.268,0.04,0.36,0.14c0.07,0.06,0.19,0,0.29,0.07L7,2.051h0.3c0-0.1-0.07-0.19,0-0.25
	c0.029-0.033,0.08-0.036,0.113-0.007C7.415,1.796,7.418,1.798,7.42,1.801c0.007,0.083,0.007,0.167,0,0.25
	c0.17,0.08-0.06,0.22,0,0.36l0.5,0.07c0.07,0,0.12,0,0.1,0.12s0.04,0.2-0.02,0.13l-0.42-0.13c-0.05-0.008-0.1-0.008-0.15,0
	c-0.053,0.007-0.107,0.007-0.16,0l-0.55-0.11C6.662,2.481,6.602,2.5,6.56,2.541C6.524,2.572,6.478,2.59,6.43,2.591H6.11
	C6,2.661,6,2.691,6,2.801v0.39C6.017,3.243,5.988,3.3,5.936,3.317H5.92c-0.29,0.09-0.29,0.09-0.31-0.22V2.971
	c-0.13,0.16-0.33,0.19-0.39,0.41c-0.031,0.135-0.031,0.275,0,0.41c0.012,0.11,0.012,0.22,0,0.33c-0.011,0.039-0.011,0.081,0,0.12
	C5.435,4.644,5.697,5.02,6,5.361c0.309,0.292,0.449,0.722,0.37,1.14c-0.018,0.19-0.018,0.38,0,0.57c0.006,0.08,0.006,0.16,0,0.24
	v0.11C6.258,7.513,6.207,7.66,6.24,7.801c-0.005,0.221,0.1,0.431,0.28,0.56c0.059,0.05,0.122,0.093,0.19,0.13
	c0.19,0.09,0.21,0.28,0.27,0.44s0,0.16-0.12,0.2c-0.298,0.107-0.63-0.021-0.78-0.3C6.05,8.715,5.95,8.63,5.83,8.621
	C5.657,8.586,5.544,8.418,5.579,8.245c0,0,0,0,0-0.001l0,0c0.023-0.145,0.03-0.293,0.02-0.44c-0.019-0.076-0.046-0.15-0.08-0.22
	c-0.005-0.087-0.005-0.173,0-0.26V7.201c-0.102-0.14-0.102-0.33,0-0.47c0-0.1,0-0.15-0.07-0.2c-0.133-0.055-0.206-0.2-0.17-0.34
	c-0.002-0.044-0.024-0.085-0.06-0.11c-0.176-0.088-0.327-0.219-0.44-0.38l0,0l-0.6-0.46c-0.09-0.07-0.16,0-0.24,0
	s-0.36,0.33-0.55,0.48c-0.1,0.082-0.207,0.156-0.32,0.22c-0.046,0.041-0.097,0.078-0.15,0.11c-0.106,0.033-0.186,0.121-0.21,0.23
	c-0.028,0.038-0.062,0.072-0.1,0.1l-0.34,0.19c-0.103,0.055-0.184,0.143-0.23,0.25c-0.066,0.135-0.186,0.237-0.33,0.28v0.26
	c-0.002,0.13-0.093,0.242-0.22,0.27c-0.17,0.05-0.12,0.07-0.13,0.12c0.009,0.165-0.118,0.307-0.284,0.316
	C1.05,8.068,1.025,8.066,1,8.061c-0.169,0.019-0.341,0.019-0.51,0c-0.07,0-0.1-0.06-0.08-0.14c0.026-0.156,0.117-0.294,0.25-0.38
	c0.133-0.116,0.247-0.25,0.34-0.4c0.024-0.068,0.024-0.142,0-0.21c-0.018-0.112,0.029-0.224,0.12-0.29
	c0.118-0.079,0.18-0.219,0.16-0.36C1.272,6.193,1.32,6.109,1.4,6.071l0.2-0.07c0.112-0.043,0.197-0.135,0.23-0.25
	C1.9,5.608,1.991,5.477,2.1,5.361l0.17-0.21c-0.08-0.1,0-0.18,0-0.27s0.2-0.29,0.3-0.44c0.021-0.055,0.021-0.115,0-0.17
	c-0.027-0.083,0.018-0.172,0.1-0.2C2.736,4.058,2.804,4.058,2.87,4.071z"/>
<path class="st0" d="M15.76,15.481v0.12c-0.1,0.35-0.2,0.7-0.29,1.05c-0.01,0.065-0.072,0.11-0.137,0.1H12.12
	c-0.1,0-0.13,0-0.13-0.13c0-2.14,0-4.28,0-6.42c0-0.09,0-0.13,0.12-0.13h5.09l-0.15,0.58c-0.029,0.17-0.073,0.337-0.13,0.5
	c-0.03,0.17-0.08,0.13-0.18,0.13h-3.07c-0.12,0-0.16,0-0.16,0.15v1c0,0.12,0,0.15,0.15,0.15h2.85v0.12
	c-0.11,0.37-0.22,0.73-0.32,1.1c-0.009,0.082-0.084,0.141-0.166,0.132H16.01h-2.33c-0.17,0-0.17,0-0.17,0.16v1.21
	c0,0.12,0,0.15,0.15,0.15h2.09L15.76,15.481z"/>
<path class="st0" d="M2.75,10.081h2.57c0.12,0,0.15,0,0.15,0.16v1c0,0.1,0,0.12-0.12,0.12H3.73c-0.19,0-0.19,0-0.19,0.19v5
	c0,0.18,0,0.18-0.18,0.18H2.12C2,16.801,2,16.801,2,16.591v-5c0-0.29,0-0.23-0.24-0.23H0.15c-0.12,0-0.15,0-0.15-0.15v-1
	c0-0.1,0-0.13,0.13-0.13H2.75z"/>
<path d="M59.08,7.391l0.14-1h3.44c0.2,0,0.24,0,0.24-0.23s-0.05-0.19-0.22-0.19H60c-0.551,0.034-1.026-0.385-1.06-0.936
	c-0.003-0.041-0.003-0.083,0-0.124v-0.36c0-0.552,0.448-1,1-1h4l-0.14,1h-3.63c-0.21,0-0.31,0.13-0.22,0.32
	c0.043,0.056,0.109,0.089,0.18,0.09h2.78c0.526-0.001,0.963,0.405,1,0.93c0.012,0.183,0.012,0.367,0,0.55
	c-0.033,0.492-0.419,0.887-0.91,0.93h-3.92V7.391z"/>
<path d="M20.09,7.371h-1v-3.83h0.62c0.148-0.034,0.302-0.034,0.45,0c0.12,0.07,0.18,0.24,0.26,0.37l1.51,2.39L22,6.391l0.47-0.74
	l1.28-2c0.034-0.073,0.11-0.117,0.19-0.11h1v3.82h-1v-2l0,0l-0.41,0.65l-0.9,1.29c-0.032,0.046-0.084,0.075-0.14,0.08h-1
	c-0.059-0.004-0.114-0.033-0.15-0.08l-1.16-1.88l-0.09-0.13V7.371z"/>
<path d="M13.65,3.541h3.92c0.552,0,1,0.448,1,1l0,0v1.77c0,0.552-0.448,1-1,1h-3.08c-0.499-0.034-0.896-0.431-0.93-0.93v-2.84
	C13.59,3.538,13.62,3.538,13.65,3.541z M14.65,4.541v1.65c0,0.15,0,0.19,0.2,0.19h2.55c0.18,0,0.22,0,0.22-0.22v-1.37
	c0-0.22,0-0.25-0.24-0.25H14.65z"/>
<path d="M46,7.371h-1c-0.004-0.023-0.004-0.047,0-0.07l-2.82-2.35l-0.12-0.09v2.51h-1v-3.83h0.7c0.185-0.014,0.367,0.051,0.5,0.18
	c0.87,0.75,1.74,1.48,2.61,2.22l0.14,0.11v-2.5h1L46,7.371z"/>
<path d="M46.61,3.551h5c-0.016,0.266-0.053,0.53-0.11,0.79c-0.04,0.26,0,0.21-0.25,0.21h-3.64v1.61c0,0.19,0,0.22,0.22,0.22h3.47
	c0.12,0,0.16,0,0.17,0.15c0.022,0.286,0.062,0.57,0.12,0.85h-3.92c-0.551,0.035-1.026-0.383-1.061-0.935
	c-0.003-0.048-0.003-0.097,0.001-0.145C46.61,6.301,46.61,3.551,46.61,3.551z"/>
<path d="M26.75,3.551h5c-0.016,0.256-0.053,0.51-0.11,0.76c-0.04,0.25,0,0.23-0.28,0.23h-3.61v1.63c0,0.18,0,0.21,0.22,0.21h3.61
	l0.14,1h-3.91c-0.551,0.035-1.026-0.383-1.061-0.935c-0.003-0.048-0.003-0.097,0.001-0.145V3.551z"/>
<path d="M40.46,3.541v3.83h-1v-1h-2.3C37.093,6.364,37.029,6.4,37,6.461l-0.51,0.8c-0.034,0.073-0.11,0.117-0.19,0.11h-1.08
	l0.53-0.82l1.49-2.31c0.254-0.446,0.737-0.712,1.25-0.69h2L40.46,3.541z M39.46,4.541h-1.09c-0.068,0.001-0.133,0.03-0.18,0.08
	c-0.17,0.24-0.33,0.49-0.51,0.75h1.77L39.46,4.541z"/>
<path d="M13.16,4.541h-2v2.82h-1v-2.82h-2v-1h5V4.541z"/>
<path d="M54.54,4.951c0.31-0.36,0.62-0.71,0.9-1.09c0.146-0.241,0.422-0.371,0.7-0.33c0.293,0.016,0.587,0.016,0.88,0l-0.42,0.51
	l-1.5,1.76c-0.038,0.052-0.059,0.115-0.06,0.18v1.34H54v-1.26c0.017-0.09-0.001-0.183-0.05-0.26l-1.81-2.15l-0.08-0.1h1.14
	c0.098-0.005,0.192,0.04,0.25,0.12l1,1.23L54.54,4.951z"/>
<path d="M32.2,3.551h1v2.82h2.37l-0.06,0.11l-0.5,0.8c-0.028,0.047-0.076,0.08-0.13,0.09H32.2V3.551z"/>
<path d="M57.2,4.681v-0.6c-0.008-0.026-0.008-0.054,0-0.08l0.35-0.42c0.023-0.008,0.047-0.008,0.07,0h1.28l-0.08,0.1l-0.81,1
	c0,0-0.06,0.06-0.09,0.06L57.2,4.681z"/>
<path class="st0" d="M97.51,10.701c0.05-0.17,0.11-0.35,0.16-0.52s0.12-0.11,0.21-0.11s0.07,0.09,0.08,0.14v0.77
	c-0.15,0-0.17,0-0.18-0.09s0-0.32,0-0.48v-0.13l0,0l-0.13,0.44c-0.014,0.062-0.034,0.122-0.06,0.18c0,0-0.06,0.08-0.1,0.08
	c-0.041-0.01-0.075-0.04-0.09-0.08c-0.021-0.161-0.061-0.319-0.12-0.47v-0.14l0,0v0.61c0,0.16-0.06,0.13-0.16,0.1
	c-0.008-0.284,0.008-0.569,0.05-0.85c0,0,0.06-0.07,0.09-0.07s0.16,0,0.19,0.07l0.12,0.45v0.12L97.51,10.701z"/>
<path class="st0" d="M96.59,10.991h-0.18v-0.6c0-0.19,0-0.19-0.16-0.18s-0.06-0.05-0.09-0.08s0.06-0.07,0.09-0.07h0.51
	c0.042,0.002,0.078,0.03,0.09,0.07c0.03,0.07-0.06,0.07-0.09,0.07s-0.17,0-0.17,0.19V10.991z"/>
<path d="M0.54,6.871c0.09-0.06,0-0.24,0.21-0.21c0.01,0.123,0.01,0.247,0,0.37H0.71v-0.24c0.002,0.037,0.002,0.073,0,0.11
	l-0.08,0.12l-0.09-0.12c-0.003-0.037-0.003-0.073,0-0.11v0.25H0.32v-0.35h0.12C0.483,6.745,0.517,6.806,0.54,6.871z"/>
<path d="M0.13,6.731L0,6.701h0.29c-0.21,0.05,0,0.27-0.17,0.38L0.13,6.731z"/>
<g>
	<path d="M29.026,30.69c-0.207,0-0.428-0.026-0.665-0.079c-0.237-0.054-0.452-0.157-0.645-0.311
		c-0.114-0.093-0.208-0.205-0.285-0.335s-0.14-0.27-0.19-0.42c-0.05-0.15-0.087-0.304-0.11-0.46s-0.035-0.312-0.035-0.465
		c0-0.066,0-0.13,0-0.19c0-0.06,0.006-0.12,0.02-0.18c0.046-0.58,0.263-1.03,0.65-1.35c0.113-0.094,0.253-0.184,0.42-0.271
		s0.33-0.13,0.49-0.13h3.31c0.066,0,0.1,0.033,0.1,0.1v1.101c0,0.066-0.033,0.1-0.1,0.1h-2.89c-0.094,0-0.179,0.042-0.255,0.125
		c-0.077,0.084-0.132,0.162-0.165,0.235c-0.034,0.066-0.054,0.133-0.06,0.2c-0.007,0.066-0.01,0.133-0.01,0.199
		c0,0.107,0.007,0.217,0.02,0.33s0.06,0.214,0.14,0.3c0.073,0.074,0.175,0.117,0.305,0.131c0.13,0.013,0.271,0.02,0.425,0.02h1.12
		c0.207,0,0.423,0.028,0.65,0.085s0.437,0.165,0.63,0.325c0.113,0.094,0.208,0.207,0.285,0.34c0.077,0.134,0.14,0.276,0.19,0.43
		c0.05,0.154,0.085,0.313,0.105,0.48s0.03,0.326,0.03,0.479c0,0.074,0,0.144,0,0.21c0,0.061-0.006,0.117-0.02,0.171
		c-0.054,0.606-0.267,1.073-0.64,1.399c-0.114,0.094-0.252,0.186-0.415,0.275c-0.164,0.09-0.318,0.135-0.465,0.135h-3.64
		c-0.067,0-0.1-0.033-0.1-0.1v-1.101c0-0.066,0.033-0.1,0.1-0.1h3.22c0.1,0,0.187-0.049,0.26-0.146
		c0.073-0.097,0.126-0.185,0.16-0.265c0.033-0.073,0.053-0.144,0.06-0.21c0.007-0.066,0.01-0.137,0.01-0.21
		c0-0.106-0.007-0.219-0.02-0.335c-0.014-0.117-0.06-0.222-0.14-0.315c-0.066-0.073-0.162-0.125-0.285-0.154
		c-0.124-0.03-0.269-0.046-0.435-0.046H29.026z"/>
	<path d="M37.296,26.501h1.25c0.066,0,0.1,0.033,0.1,0.1v4.75c0,0.24-0.014,0.452-0.04,0.636c-0.027,0.183-0.063,0.331-0.11,0.444
		c-0.04,0.107-0.099,0.219-0.175,0.335c-0.077,0.117-0.162,0.226-0.255,0.325c-0.1,0.1-0.217,0.186-0.35,0.255
		c-0.133,0.07-0.26,0.129-0.38,0.175c-0.12,0.04-0.253,0.075-0.4,0.105c-0.147,0.03-0.307,0.045-0.48,0.045h-1.17
		c-0.22,0-0.425-0.023-0.615-0.07c-0.19-0.046-0.352-0.113-0.485-0.199c-0.14-0.087-0.26-0.181-0.36-0.28
		c-0.127-0.127-0.234-0.257-0.32-0.391c-0.086-0.146-0.155-0.301-0.205-0.465c-0.05-0.163-0.075-0.338-0.075-0.524v-5.141
		c0-0.066,0.033-0.1,0.1-0.1h1.25c0.066,0,0.1,0.033,0.1,0.1v4.88c0,0.08,0.015,0.172,0.045,0.275c0.03,0.104,0.075,0.2,0.135,0.29
		s0.135,0.167,0.225,0.23c0.09,0.063,0.195,0.095,0.315,0.095h1.05c0.113,0,0.217-0.032,0.31-0.095
		c0.093-0.063,0.172-0.141,0.235-0.23c0.063-0.09,0.113-0.187,0.15-0.29c0.037-0.104,0.055-0.198,0.055-0.285v-4.87
		C37.196,26.534,37.229,26.501,37.296,26.501z"/>
	<path d="M39.546,26.501h3.72c0.187,0,0.37,0.037,0.55,0.11c0.18,0.073,0.357,0.199,0.53,0.38c0.3,0.313,0.46,0.786,0.48,1.42v0.229
		c0,0.587-0.07,1.014-0.21,1.28c-0.094,0.134-0.19,0.255-0.29,0.365c-0.1,0.109-0.237,0.212-0.41,0.305
		c-0.007,0.007-0.015,0.017-0.025,0.03c-0.01,0.014-0.015,0.03-0.015,0.05c0,0.014,0.003,0.026,0.01,0.04
		c0.153,0.2,0.261,0.375,0.325,0.525c0.063,0.149,0.122,0.305,0.175,0.465l0.55,1.689c0.013,0.054,0.039,0.102,0.075,0.146
		c0.037,0.043,0.055,0.071,0.055,0.085c0,0.033-0.02,0.05-0.06,0.05h-1.38c-0.04,0-0.083-0.035-0.13-0.105
		c-0.047-0.069-0.077-0.128-0.09-0.175l-0.62-1.75c-0.093-0.373-0.283-0.58-0.57-0.62h-1.22c-0.067,0-0.1,0.034-0.1,0.101v2.45
		c0,0.066-0.033,0.1-0.1,0.1h-1.25c-0.066,0-0.1-0.033-0.1-0.1v-6.971C39.447,26.534,39.48,26.501,39.546,26.501z M40.997,27.801
		c-0.067,0-0.1,0.033-0.1,0.101v1.63c0,0.066,0.037,0.1,0.11,0.1h1.81c0.093,0,0.197-0.047,0.31-0.14
		c0.093-0.08,0.165-0.197,0.215-0.351c0.05-0.153,0.075-0.323,0.075-0.51c0-0.093-0.005-0.179-0.015-0.255
		c-0.01-0.076-0.032-0.148-0.065-0.215c-0.106-0.221-0.233-0.34-0.38-0.36H40.997z"/>
	<path d="M48.396,32.19c0.02,0.074,0.037,0.122,0.05,0.146c0.013,0.023,0.036,0.035,0.07,0.035c0.033,0,0.07-0.061,0.11-0.181
		l1.719-5.59c0.021-0.066,0.063-0.1,0.131-0.1h1.3c0.053,0,0.08,0.02,0.08,0.06l-2.03,6.521c-0.08,0.26-0.227,0.423-0.439,0.49
		c-0.214,0.066-0.503,0.1-0.87,0.1c-0.38,0-0.679-0.033-0.895-0.1c-0.217-0.067-0.365-0.23-0.445-0.49l-2.01-6.521
		c0-0.04,0.023-0.06,0.07-0.06h1.31c0.067,0,0.11,0.03,0.13,0.09L48.396,32.19z"/>
	<path d="M52.576,26.501h1.25c0.066,0,0.101,0.033,0.101,0.1v6.971c0,0.066-0.034,0.1-0.101,0.1h-1.25c-0.066,0-0.1-0.033-0.1-0.1
		v-6.971C52.477,26.534,52.51,26.501,52.576,26.501z"/>
	<path d="M57.796,32.19c0.02,0.074,0.036,0.122,0.05,0.146c0.013,0.023,0.036,0.035,0.069,0.035c0.034,0,0.07-0.061,0.11-0.181
		l1.72-5.59c0.021-0.066,0.063-0.1,0.13-0.1h1.301c0.053,0,0.08,0.02,0.08,0.06l-2.03,6.521c-0.08,0.26-0.227,0.423-0.44,0.49
		c-0.213,0.066-0.503,0.1-0.87,0.1c-0.38,0-0.678-0.033-0.895-0.1c-0.217-0.067-0.365-0.23-0.445-0.49l-2.01-6.521
		c0-0.04,0.023-0.06,0.07-0.06h1.31c0.066,0,0.11,0.03,0.13,0.09L57.796,32.19z"/>
	<path d="M62.306,27.091c0.08-0.26,0.227-0.423,0.439-0.49c0.214-0.066,0.504-0.1,0.87-0.1c0.38,0,0.679,0.033,0.896,0.1
		c0.216,0.067,0.364,0.23,0.444,0.49l2.011,6.521c0,0.04-0.023,0.06-0.07,0.06h-1.311c-0.066,0-0.109-0.03-0.13-0.09l-0.529-1.73
		c-0.021-0.066-0.063-0.1-0.13-0.1h-2.351c-0.066,0-0.11,0.037-0.13,0.11l-0.53,1.71c-0.02,0.066-0.063,0.1-0.13,0.1h-1.3
		c-0.054,0-0.08-0.02-0.08-0.06L62.306,27.091z M63.735,27.98c-0.02-0.073-0.037-0.121-0.05-0.145
		c-0.014-0.023-0.037-0.035-0.07-0.035s-0.069,0.061-0.109,0.18l-0.7,2.28c0,0.014-0.002,0.023-0.005,0.03
		c-0.004,0.007-0.005,0.014-0.005,0.02c0,0.047,0.026,0.07,0.079,0.07h1.49c0.054,0,0.08-0.023,0.08-0.07
		c0-0.006-0.002-0.013-0.005-0.02c-0.004-0.007-0.005-0.017-0.005-0.03L63.735,27.98z"/>
	<path d="M72.226,32.471v1.101c0,0.066-0.033,0.1-0.1,0.1h-2.75c-0.054,0-0.104,0-0.15,0s-0.087-0.003-0.12-0.01
		c-0.553-0.047-0.946-0.209-1.18-0.485s-0.35-0.695-0.35-1.255v-5.32c0-0.066,0.033-0.1,0.1-0.1h1.25c0.066,0,0.1,0.033,0.1,0.1
		v5.44c0,0.22,0.131,0.33,0.391,0.33h2.71C72.192,32.371,72.226,32.404,72.226,32.471z"/>
	<path d="M75.525,27.641c0-0.22,0.04-0.403,0.12-0.55s0.187-0.264,0.319-0.35c0.134-0.087,0.285-0.148,0.455-0.186
		c0.17-0.036,0.346-0.055,0.525-0.055c0.286,0,0.52,0.017,0.7,0.05c0.18,0.033,0.328,0.108,0.444,0.226
		c0.117,0.116,0.209,0.291,0.275,0.524s0.133,0.55,0.2,0.95l0.54,3.31c0.006,0.027,0.015,0.07,0.024,0.13
		c0.011,0.061,0.023,0.12,0.04,0.181c0.017,0.06,0.033,0.113,0.051,0.16c0.016,0.046,0.031,0.069,0.045,0.069
		c0.013,0,0.029-0.023,0.05-0.069c0.02-0.047,0.036-0.101,0.05-0.16c0.014-0.061,0.026-0.118,0.04-0.175s0.02-0.092,0.02-0.105
		l0.521-3.38c0.06-0.387,0.125-0.695,0.195-0.925c0.069-0.23,0.163-0.401,0.279-0.516c0.117-0.113,0.269-0.187,0.455-0.22
		s0.427-0.05,0.721-0.05c0.42,0,0.763,0.083,1.029,0.25s0.4,0.453,0.4,0.86v5.96c0,0.066-0.033,0.1-0.101,0.1h-1.25
		c-0.066,0-0.1-0.033-0.1-0.1v-5.45c0-0.014-0.003-0.042-0.01-0.085c-0.007-0.044-0.027-0.065-0.061-0.065s-0.058,0.012-0.074,0.035
		c-0.018,0.023-0.032,0.049-0.046,0.075c-0.006,0.014-0.015,0.043-0.024,0.09s-0.021,0.097-0.03,0.15
		c-0.01,0.053-0.02,0.106-0.03,0.159c-0.01,0.054-0.018,0.094-0.024,0.12c-0.04,0.167-0.078,0.342-0.115,0.525
		s-0.088,0.427-0.155,0.729c-0.066,0.304-0.148,0.69-0.245,1.16c-0.097,0.471-0.225,1.072-0.385,1.806
		c-0.02,0.106-0.053,0.21-0.1,0.31s-0.112,0.19-0.195,0.271c-0.083,0.079-0.195,0.145-0.335,0.194s-0.316,0.075-0.53,0.075
		c-0.193,0-0.352-0.023-0.475-0.07c-0.123-0.046-0.225-0.104-0.305-0.175s-0.141-0.148-0.181-0.235
		c-0.04-0.086-0.069-0.17-0.09-0.25l-1-4.76c-0.007-0.013-0.019-0.052-0.035-0.115c-0.017-0.063-0.038-0.098-0.064-0.104h-0.05
		c-0.027,0-0.04,0.023-0.04,0.07v5.54c0,0.066-0.034,0.1-0.101,0.1h-1.25c-0.066,0-0.1-0.033-0.1-0.1V27.641z"/>
	<path d="M85.676,27.091c0.08-0.26,0.227-0.423,0.439-0.49c0.214-0.066,0.504-0.1,0.87-0.1c0.38,0,0.679,0.033,0.896,0.1
		c0.216,0.067,0.364,0.23,0.444,0.49l2.011,6.521c0,0.04-0.023,0.06-0.07,0.06h-1.311c-0.066,0-0.109-0.03-0.13-0.09l-0.529-1.73
		c-0.021-0.066-0.063-0.1-0.13-0.1h-2.351c-0.066,0-0.11,0.037-0.13,0.11l-0.53,1.71c-0.02,0.066-0.063,0.1-0.13,0.1h-1.3
		c-0.054,0-0.08-0.02-0.08-0.06L85.676,27.091z M87.105,27.98c-0.02-0.073-0.037-0.121-0.05-0.145
		c-0.014-0.023-0.037-0.035-0.07-0.035s-0.069,0.061-0.109,0.18l-0.7,2.28c0,0.014-0.002,0.023-0.005,0.03
		c-0.004,0.007-0.005,0.014-0.005,0.02c0,0.047,0.026,0.07,0.079,0.07h1.49c0.054,0,0.08-0.023,0.08-0.07
		c0-0.006-0.002-0.013-0.005-0.02c-0.004-0.007-0.005-0.017-0.005-0.03L87.105,27.98z"/>
	<path d="M90.956,26.601c0-0.066,0.033-0.1,0.1-0.1h3.19c0.373,0,0.689,0.059,0.95,0.175c0.26,0.117,0.47,0.278,0.63,0.485
		c0.16,0.206,0.276,0.453,0.35,0.74c0.073,0.286,0.11,0.6,0.11,0.939c0,0.354-0.037,0.674-0.11,0.96
		c-0.073,0.287-0.189,0.533-0.35,0.74s-0.37,0.365-0.63,0.475c-0.261,0.11-0.577,0.165-0.95,0.165h-1.74
		c-0.066,0-0.1,0.033-0.1,0.101v2.29c0,0.066-0.034,0.1-0.101,0.1h-1.25c-0.066,0-0.1-0.033-0.1-0.1v-6.86V26.601z M92.506,27.801
		c-0.066,0-0.1,0.033-0.1,0.101v1.88c0,0.066,0.033,0.1,0.1,0.1h1.91c0.12,0,0.215-0.042,0.285-0.125
		c0.069-0.083,0.121-0.182,0.154-0.295c0.034-0.113,0.056-0.229,0.065-0.345c0.01-0.117,0.015-0.209,0.015-0.275
		s-0.005-0.158-0.015-0.275c-0.01-0.116-0.031-0.231-0.065-0.345c-0.033-0.113-0.085-0.211-0.154-0.295
		c-0.07-0.083-0.165-0.125-0.285-0.125H92.506z"/>
</g>
</svg>
