<svg id="Layer_1" data-name="Layer 1" xmlns="http://www.w3.org/2000/svg" viewBox="0 0 119.027 33.674"><title>logo</title><path d="M14.807,24.554l.33-1.14,1.64-5.65a.16.16,0,0,1,.18-.13h2.09c.12,0,.16,0,.16.16v2.73c0,.21,0,.2.21.21a9.924,9.924,0,0,0,2.59-.2,5.121,5.121,0,0,0,2.24-1,3,3,0,0,0,1.07-1.78c0-.1.06-.12.15-.12h3.58c.11,0,.13,0,.12.14a6.433,6.433,0,0,1-.55,2.1,6.1,6.1,0,0,1-1.5,2,9.774,9.774,0,0,1-3.52,1.95,14.8,14.8,0,0,1-3.21.68h-5.58Z" transform="translate(-0.487 -0.163)" style="fill:#ff6d10"/><path d="M71.607,17.634h1.72c.18,0,.18,0,.19.19a4.838,4.838,0,0,0,.44,1.74,3.385,3.385,0,0,0,1.53,1.66,2.361,2.361,0,0,0,2.7-.37,4.052,4.052,0,0,0,1.26-2.2,8.426,8.426,0,0,0,.13-.85c0-.12,0-.17.18-.17h3.83c.09,0,.15,0,.14.13a7.719,7.719,0,0,1-.31,1.81,7,7,0,0,1-5.23,5,6.3,6.3,0,0,1-4.27-.45,7.131,7.131,0,0,1-3.9-4.58,7.261,7.261,0,0,1-.29-1.75c0-.18,0-.18.18-.18Z" transform="translate(-0.487 -0.163)" style="fill:#ff6d10"/><path d="M83.7,16.964h-4c-.1,0-.15,0-.16-.14a4.873,4.873,0,0,0-.5-1.71,3.566,3.566,0,0,0-1.06-1.29,2.371,2.371,0,0,0-3.08.16,4,4,0,0,0-1.22,2.08,7.693,7.693,0,0,0-.15.81c0,.06,0,.09-.09.09h-3.67a2.341,2.341,0,0,1,.08-.74,7.384,7.384,0,0,1,1.8-3.79,6.69,6.69,0,0,1,4-2.23,6.6,6.6,0,0,1,5.38,1.46,7.206,7.206,0,0,1,2.59,4.45c0,.22.07.45.09.67C83.707,16.844,83.7,16.9,83.7,16.964Z" transform="translate(-0.487 -0.163)" style="fill:#ff6d10"/><path d="M29.167,16.964h-3.68c-.11,0-.15,0-.16-.14a2.925,2.925,0,0,0-.35-1.28,3.128,3.128,0,0,0-1.49-1.35,6.807,6.807,0,0,0-2.1-.52,12.142,12.142,0,0,0-2,0c-.2,0-.2,0-.2.21v2.93c0,.12,0,.16-.15.16h-2l.18-.62q.859-3,1.72-5.93c0-.12.08-.16.2-.16h3.63a4.216,4.216,0,0,1,1.37.2,8.051,8.051,0,0,1,3,1.65,6.133,6.133,0,0,1,1.9,3.24A6.851,6.851,0,0,1,29.167,16.964Z" transform="translate(-0.487 -0.163)" style="fill:#ff6d10"/><path d="M52.987,20.414l3-.79v.32a2.37,2.37,0,0,0,2,2,3.594,3.594,0,0,0,1.5.02,1.63,1.63,0,0,0,1.29-1.55,1.16,1.16,0,0,0-.3-.77,3.126,3.126,0,0,0-1.06-.76,18.412,18.412,0,0,0-2.47-.92l-1-.34h7.34a.359.359,0,0,1,.28.11,2.82,2.82,0,0,1,.88,2.38,5.292,5.292,0,0,1-.78,2.41,4.519,4.519,0,0,1-2.59,1.87,8.139,8.139,0,0,1-2.63.3,6.345,6.345,0,0,1-2.33-.49,5.128,5.128,0,0,1-2.42-2.12,5.444,5.444,0,0,1-.64-1.53A.41.41,0,0,1,52.987,20.414Z" transform="translate(-0.487 -0.163)" style="fill:#ff6d10"/><path d="M62.4,16.964h-7.56a.322.322,0,0,1-.25-.1,4.5,4.5,0,0,1-1.1-2.19,3.119,3.119,0,0,1,.27-2.06A3.91,3.91,0,0,1,56,10.544a6.736,6.736,0,0,1,2.19-.45,8.448,8.448,0,0,1,2.81.25,4,4,0,0,1,2.41,1.71,3.623,3.623,0,0,1,.55,1.66c0,.33,0,.33-.31.38l-2.76.47c-.1,0-.12,0-.15-.09a4.01,4.01,0,0,0-.58-1.19,1.56,1.56,0,0,0-1.33-.68,3.8,3.8,0,0,0-.73.05,1,1,0,0,0-.86.77,1.238,1.238,0,0,0,.25,1.25,3.005,3.005,0,0,0,1.13.7c.75.3,1.51.56,2.26.86.47.19.92.4,1.38.61l.14.08Z" transform="translate(-0.487 -0.163)" style="fill:#ff6d10"/><path d="M36.637,17.644h3.77a.17.17,0,0,1,.19.147h0c.14.57.3,1.14.45,1.71v.13l.05-.14.53-1.74a.13.13,0,0,1,.147-.11H45.5l-.17.54q-1,3.1-1.92,6.19a.21.21,0,0,1-.235.181h-4.2a.17.17,0,0,1-.19-.14q-.889-2.83-1.79-5.66l-.31-1Z" transform="translate(-0.487 -0.163)" style="fill:#ff6d10"/><path d="M88.487,17.634h7.7c.17,0,.17,0,.17.17v6.6c0,.13,0,.16-.16.16h-3.65a.2.2,0,0,1-.2-.11l-3.12-5.49-.66-1.17Z" transform="translate(-0.487 -0.163)" style="fill:#ff6d10"/><path d="M92.077,16.964h-7.81c-.17,0-.17,0-.17-.18v-6.33c0-.18,0-.18.18-.18h3.67a.251.251,0,0,1,.25.14l3.15,5.31.67,1.12Z" transform="translate(-0.487 -0.163)" style="fill:#ff6d10"/><path d="M69.277,21.1v3.31c0,.12,0,.16-.15.16h-3.71c-.12,0-.15,0-.15-.16V17.8c0-.13,0-.16.16-.16h3.69c.13,0,.16,0,.16.16Z" transform="translate(-0.487 -0.163)" style="fill:#ff6d10"/><path d="M48.207,21.1v-3.32c0-.12,0-.15.16-.15h3.71c.12,0,.16,0,.16.16v6.62c0,.12,0,.15-.16.15h-3.72c-.12,0-.15,0-.15-.16Z" transform="translate(-0.487 -0.163)" style="fill:#ff6d10"/><path d="M29.947,21.1v-3.31c0-.12,0-.17.16-.16h3.71c.12,0,.15,0,.15.15v6.64c0,.11,0,.15-.14.14h-3.74c-.11,0-.14,0-.14-.14Z" transform="translate(-0.487 -0.163)" style="fill:#ff6d10"/><path d="M88.087,21.094v3.29c0,.17,0,.17-.16.17h-3.7c-.12,0-.16,0-.16-.16v-6.62c0-.13,0-.15.16-.15h3.69c.13,0,.16,0,.16.16C88.077,18.894,88.087,19.964,88.087,21.094Z" transform="translate(-0.487 -0.163)" style="fill:#ff6d10"/><path d="M34.3,10.254h4.19c.1,0,.14,0,.17.13q.851,3.221,1.71,6.45c.86,3.23,0,.07,0,.13h-3.8a.17.17,0,0,1-.19-.14l-1.31-4.14-.72-2.28Z" transform="translate(-0.487 -0.163)" style="fill:#ff6d10"/><path d="M96.367,13.6v3.18c0,.16,0,.16-.17.16h-3.71c-.12,0-.15,0-.15-.15v-6.4c0-.12,0-.15.16-.15h3.72c.12,0,.15,0,.15.15Z" transform="translate(-0.487 -0.163)" style="fill:#ff6d10"/><path d="M52.207,16.964h-3.85c-.13,0-.16,0-.16-.16v-6.37c0-.17,0-.17.16-.17h3.71c.12,0,.15,0,.15.15v6.46C52.217,20.1,52.217,16.9,52.207,16.964Z" transform="translate(-0.487 -0.163)" style="fill:#ff6d10"/><path d="M65.267,13.594V10.4c0-.12,0-.16.16-.16h3.71c.11,0,.15,0,.15.15V16.8c0,.11,0,.15-.15.15h-3.71c-.12,0-.16,0-.16-.16Z" transform="translate(-0.487 -0.163)" style="fill:#ff6d10"/><path d="M33.957,13.594v3.2c0,.11,0,.15-.15.15H30.1c-.12,0-.15,0-.15-.15v-6.41c0-.11,0-.15.15-.15h3.72c.12,0,.15,0,.15.15C33.957,11.464,33.957,12.534,33.957,13.594Z" transform="translate(-0.487 -0.163)" style="fill:#ff6d10"/><path d="M41.927,16.964l.09-.31,1.74-5.69c.06-.2.13-.4.19-.6a.12.12,0,0,1,.13-.1h3.77l-.16.55-1.87,6c0,.07,0,.11-.13.11h-3.76Z" transform="translate(-0.487 -0.163)" style="fill:#ff6d10"/><path d="M10.437,16.964v-2.59c0-.21,0-.21-.21-.21H8c-.12,0-.16,0-.16.15v2.5c0,.12,0,.15-.15.15H6.317v-6.49c0-.19,0-.19.18-.19h1.22c.1,0,.13,0,.13.13v2.24c0,.17,0,.17.16.17h2.26c.16,0,.17,0,.17-.17v-2.2c0-.12,0-.17.16-.17h1.19c.13,0,.16,0,.16.16V16.8c0,.12,0,.17-.16.16Z" transform="translate(-0.487 -0.163)" style="fill:#ff6d10"/><path d="M3.357,4.234a.581.581,0,0,0,.39-.65h0c-.18-.16-.11-.39-.15-.59v-.12h-.21l-.64.09a.22.22,0,0,1-.26-.16c-.06-.13-.12-.25,0-.39a2.437,2.437,0,0,1,.25-.34,2.654,2.654,0,0,1,.37-.27,1.014,1.014,0,0,1,.33-.2c.26,0,.45-.26.73-.24a.086.086,0,0,0,.08-.06l.08-.11c-.17,0-.13-.2-.19-.33h0a.485.485,0,0,1,0-.17.236.236,0,0,0,.14-.06c.07-.06.09-.16.16-.25a.5.5,0,0,1,.13-.12.74.74,0,0,1,1.11.58,1.13,1.13,0,0,1,0,.26.24.24,0,0,1-.1.15.87.87,0,0,1-.73,0h-.13a.371.371,0,0,0,.26.29c.17.07.24-.08.34-.16l.17.1v.08l.07-.08a.159.159,0,0,1,.221-.049.153.153,0,0,1,.049.049.206.206,0,0,0,.1.06,1,1,0,0,0,.56.05c.12,0,.17,0,.16.16a1,1,0,0,0,0,.19.44.44,0,0,1,.36.14c.07.06.19,0,.29.07l.19.06h.3c0-.1-.07-.19,0-.25A.08.08,0,0,1,7.9,1.957l.007.007a1.491,1.491,0,0,1,0,.25c.17.08-.06.22,0,.36l.5.07c.07,0,.12,0,.1.12s.04.2-.02.13l-.42-.13a.472.472,0,0,0-.15,0,.612.612,0,0,1-.16,0l-.55-.11a.185.185,0,0,0-.16.05.206.206,0,0,1-.13.05H6.6c-.11.07-.11.1-.11.21v.39a.1.1,0,0,1-.064.126H6.407c-.29.09-.29.09-.31-.22V3.134c-.13.16-.33.19-.39.41a.915.915,0,0,0,0,.41,1.517,1.517,0,0,1,0,.33.222.222,0,0,0,0,.12,5.788,5.788,0,0,0,.78,1.12,1.25,1.25,0,0,1,.37,1.14,3.015,3.015,0,0,0,0,.57,1.6,1.6,0,0,1,0,.24v.11a.38.38,0,0,0-.13.38.671.671,0,0,0,.28.56,1.12,1.12,0,0,0,.19.13c.19.09.21.28.27.44s0,.16-.12.2a.641.641,0,0,1-.78-.3.28.28,0,0,0-.25-.21.32.32,0,0,1-.251-.376h0a1.962,1.962,0,0,0,.02-.44,1.134,1.134,0,0,0-.08-.22,2.255,2.255,0,0,1,0-.26V7.364a.4.4,0,0,1,0-.47c0-.1,0-.15-.07-.2a.29.29,0,0,1-.17-.34.142.142,0,0,0-.06-.11,1.186,1.186,0,0,1-.44-.38h0l-.6-.46c-.09-.07-.16,0-.24,0s-.36.33-.55.48a2.269,2.269,0,0,1-.32.22,1.014,1.014,0,0,1-.15.11.31.31,0,0,0-.21.23.474.474,0,0,1-.1.1l-.34.19a.513.513,0,0,0-.23.25.54.54,0,0,1-.33.28v.26a.281.281,0,0,1-.22.27c-.17.05-.12.07-.13.12a.3.3,0,0,1-.284.316.317.317,0,0,1-.075-.006,2.289,2.289,0,0,1-.51,0c-.07,0-.1-.06-.08-.14a.563.563,0,0,1,.25-.38,1.76,1.76,0,0,0,.34-.4.315.315,0,0,0,0-.21.3.3,0,0,1,.12-.29.37.37,0,0,0,.16-.36.212.212,0,0,1,.12-.21l.2-.07a.38.38,0,0,0,.23-.25,1.59,1.59,0,0,1,.27-.39l.17-.21c-.08-.1,0-.18,0-.27s.2-.29.3-.44a.237.237,0,0,0,0-.17.159.159,0,0,1,.1-.2A.518.518,0,0,1,3.357,4.234Z" transform="translate(-0.487 -0.163)" style="fill:#fff"/><path d="M16.247,15.644v.12c-.1.35-.2.7-.29,1.05a.121.121,0,0,1-.137.1H12.607c-.1,0-.13,0-.13-.13v-6.42c0-.09,0-.13.12-.13h5.09l-.15.58a3.088,3.088,0,0,1-.13.5c-.03.17-.08.13-.18.13h-3.07c-.12,0-.16,0-.16.15v1c0,.12,0,.15.15.15H17v.12c-.11.37-.22.73-.32,1.1a.15.15,0,0,1-.166.132H14.167c-.17,0-.17,0-.17.16v1.21c0,.12,0,.15.15.15h2.09Z" transform="translate(-0.487 -0.163)" style="fill:#ff6d10"/><path d="M3.237,10.244h2.57c.12,0,.15,0,.15.16v1c0,.1,0,.12-.12.12H4.217c-.19,0-.19,0-.19.19v5c0,.18,0,.18-.18.18H2.607c-.12.07-.12.07-.12-.14v-5c0-.29,0-.23-.24-.23H.637c-.12,0-.15,0-.15-.15v-1c0-.1,0-.13.13-.13Z" transform="translate(-0.487 -0.163)" style="fill:#ff6d10"/><path d="M59.567,7.554l.14-1h3.44c.2,0,.24,0,.24-.23s-.05-.19-.22-.19h-2.68a1,1,0,0,1-1.06-.936.856.856,0,0,1,0-.124v-.36a1,1,0,0,1,1-1h4l-.14,1h-3.63c-.21,0-.31.13-.22.32a.23.23,0,0,0,.18.09H63.4a1,1,0,0,1,1,.93,4.206,4.206,0,0,1,0,.55,1,1,0,0,1-.91.93h-3.92Z" transform="translate(-0.487 -0.163)" style="fill:#fff"/><path d="M20.577,7.534h-1V3.7h.62a1,1,0,0,1,.45,0c.12.07.18.24.26.37l1.51,2.39.07.09.47-.74,1.28-2a.191.191,0,0,1,.19-.11h1v3.82h-1v-2h0l-.41.65-.9,1.29a.191.191,0,0,1-.14.08h-1a.207.207,0,0,1-.15-.08l-1.16-1.88-.09-.13Z" transform="translate(-0.487 -0.163)" style="fill:#fff"/><path d="M14.137,3.7h3.92a1,1,0,0,1,1,1h0v1.77a1,1,0,0,1-1,1h-3.08a1,1,0,0,1-.93-.93V3.7A.451.451,0,0,1,14.137,3.7Zm1,1v1.65c0,.15,0,.19.2.19h2.55c.18,0,.22,0,.22-.22V4.954c0-.22,0-.25-.24-.25Z" transform="translate(-0.487 -0.163)" style="fill:#fff"/><path d="M46.487,7.534h-1a.206.206,0,0,1,0-.07l-2.82-2.35-.12-.09v2.51h-1V3.7h.7a.647.647,0,0,1,.5.18c.87.75,1.74,1.48,2.61,2.22l.14.11v-2.5h1Z" transform="translate(-0.487 -0.163)" style="fill:#fff"/><path d="M47.1,3.714h5a5.126,5.126,0,0,1-.11.79c-.04.26,0,.21-.25.21H48.1v1.61c0,.19,0,.22.22.22h3.47c.12,0,.16,0,.17.15a6.739,6.739,0,0,0,.12.85h-3.92a1,1,0,0,1-1.06-1.08Z" transform="translate(-0.487 -0.163)" style="fill:#fff"/><path d="M27.237,3.714h5a4.752,4.752,0,0,1-.11.76c-.04.25,0,.23-.28.23h-3.61v1.63c0,.18,0,.21.22.21h3.61l.14,1H28.3a1,1,0,0,1-1.06-1.08Z" transform="translate(-0.487 -0.163)" style="fill:#fff"/><path d="M40.947,3.7v3.83h-1v-1h-2.3a.159.159,0,0,0-.16.09l-.51.8a.191.191,0,0,1-.19.11h-1.08l.53-.82,1.49-2.31a1.371,1.371,0,0,1,1.25-.69h2Zm-1,1h-1.09a.253.253,0,0,0-.18.08c-.17.24-.33.49-.51.75h1.77Z" transform="translate(-0.487 -0.163)" style="fill:#fff"/><path d="M13.647,4.7h-2v2.82h-1V4.7h-2v-1h5Z" transform="translate(-0.487 -0.163)" style="fill:#fff"/><path d="M55.027,5.114c.31-.36.62-.71.9-1.09a.7.7,0,0,1,.7-.33,8.073,8.073,0,0,0,.88,0l-.42.51-1.5,1.76a.313.313,0,0,0-.06.18v1.34h-1.04V6.224a.36.36,0,0,0-.05-.26l-1.81-2.15-.08-.1h1.14a.29.29,0,0,1,.25.12l1,1.23Z" transform="translate(-0.487 -0.163)" style="fill:#fff"/><path d="M32.687,3.714h1v2.82h2.37l-.06.11-.5.8a.193.193,0,0,1-.13.09h-2.68Z" transform="translate(-0.487 -0.163)" style="fill:#fff"/><path d="M57.687,4.844v-.6a.136.136,0,0,1,0-.08l.35-.42a.105.105,0,0,1,.07,0h1.28l-.08.1-.81,1s-.06.06-.09.06Z" transform="translate(-0.487 -0.163)" style="fill:#fff"/><path d="M98,24.2c.05-.17.11-.35.16-.52s.12-.11.21-.11.07.09.08.14v.77c-.15,0-.17,0-.18-.09s0-.32,0-.48v-.13h0l-.13.44a.951.951,0,0,1-.06.18s-.06.08-.1.08a.129.129,0,0,1-.09-.08,2,2,0,0,0-.12-.47v-.14h0v.61c0,.16-.06.13-.16.1a4.834,4.834,0,0,1,.05-.85s.06-.07.09-.07.16,0,.19.07l.12.45v.12Z" transform="translate(-0.487 -0.163)" style="fill:#ff6d10"/><path d="M97.077,24.487H96.9v-.6c0-.19,0-.19-.16-.18s-.06-.05-.09-.08.06-.07.09-.07h.51a.1.1,0,0,1,.09.07c.03.07-.06.07-.09.07s-.17,0-.17.19Z" transform="translate(-0.487 -0.163)" style="fill:#ff6d10"/><path d="M1.027,7.034c.09-.06,0-.24.21-.21a2.285,2.285,0,0,1,0,.37H1.2v-.24a1.009,1.009,0,0,1,0,.11l-.08.12-.09-.12a.673.673,0,0,1,0-.11V7.2H.807v-.35h.12A.623.623,0,0,1,1.027,7.034Z" transform="translate(-0.487 -0.163)" style="fill:#fff"/><path d="M.617,6.894l-.13-.03h.29c-.21.05,0,.27-.17.38Z" transform="translate(-0.487 -0.163)" style="fill:#fff"/><path d="M14.558,26.832h1.221a.086.086,0,0,1,.1.1v6.808a.086.086,0,0,1-.1.1H14.558a.086.086,0,0,1-.1-.1V26.929A.087.087,0,0,1,14.558,26.832Z" transform="translate(-0.487 -0.163)" style="fill:#fff"/><path d="M16.688,28.267a2.714,2.714,0,0,1,.068-.654.944.944,0,0,1,.234-.444,1.013,1.013,0,0,1,.444-.254,2.471,2.471,0,0,1,.7-.083,1.582,1.582,0,0,1,.894.2.954.954,0,0,1,.376.537l1.309,4.824c.02.065.052.1.1.1s.068-.032.068-.1V26.928a.086.086,0,0,1,.1-.1H22.2a.086.086,0,0,1,.1.1V32.71a1.044,1.044,0,0,1-.078.391,1.438,1.438,0,0,1-.21.361,1.063,1.063,0,0,1-.313.268.771.771,0,0,1-.386.1h-.9a.567.567,0,0,1-.249-.063,1.1,1.1,0,0,1-.249-.166,1.2,1.2,0,0,1-.205-.229.879.879,0,0,1-.127-.265l-1.318-4.854q-.029-.088-.088-.088c-.046,0-.068.029-.068.088v5.479a.087.087,0,0,1-.1.1H16.786a.086.086,0,0,1-.1-.1Z" transform="translate(-0.487 -0.163)" style="fill:#fff"/><path d="M26.083,33.736a.087.087,0,0,1-.1.1H24.765a.086.086,0,0,1-.1-.1V28.2a.087.087,0,0,0-.1-.1H22.978a.086.086,0,0,1-.1-.1V26.927a.086.086,0,0,1,.1-.1h4.8a.086.086,0,0,1,.1.1V28a.086.086,0,0,1-.1.1H26.181a.087.087,0,0,0-.1.1Z" transform="translate(-0.487 -0.163)" style="fill:#fff"/><path d="M28.447,28.326a1.586,1.586,0,0,1,.361-1.079,1.31,1.31,0,0,1,1.045-.415h3.311c.084,0,.127.032.127.1V28a.086.086,0,0,1-.1.1H29.961c-.065,0-.1.036-.1.107v1.327a.087.087,0,0,0,.1.1h3a.086.086,0,0,1,.1.1v1.123a.087.087,0,0,1-.1.1h-3a.086.086,0,0,0-.1.1v1.415a.087.087,0,0,0,.1.1h3.233a.086.086,0,0,1,.1.1v1.075a.086.086,0,0,1-.1.1h-3.78a.74.74,0,0,1-.352-.093,1.183,1.183,0,0,1-.313-.239,1.266,1.266,0,0,1-.22-.327.862.862,0,0,1-.083-.366Z" transform="translate(-0.487 -0.163)" style="fill:#fff"/><path d="M34.188,26.832h3.634a1.421,1.421,0,0,1,.537.107,1.515,1.515,0,0,1,.517.371,2.029,2.029,0,0,1,.469,1.387v.224a2.834,2.834,0,0,1-.205,1.25,3.606,3.606,0,0,1-.283.356,1.494,1.494,0,0,1-.4.3.217.217,0,0,0-.023.029.075.075,0,0,0-.016.049.1.1,0,0,0,.01.039,2.452,2.452,0,0,1,.317.513c.062.146.119.3.171.454l.538,1.65a.353.353,0,0,0,.072.143c.036.042.055.069.055.083,0,.032-.021.049-.06.049H38.173c-.039,0-.081-.034-.127-.1a.618.618,0,0,1-.088-.171l-.606-1.709c-.092-.364-.276-.566-.557-.606H35.6a.087.087,0,0,0-.1.1v2.393a.086.086,0,0,1-.1.1H34.188a.086.086,0,0,1-.1-.1V26.928A.086.086,0,0,1,34.188,26.832ZM35.6,28.1a.086.086,0,0,0-.1.1v1.592c0,.064.036.1.107.1h1.767a.5.5,0,0,0,.3-.137.734.734,0,0,0,.21-.343,1.569,1.569,0,0,0,.073-.5,1.932,1.932,0,0,0-.015-.249.672.672,0,0,0-.063-.21c-.1-.216-.228-.332-.371-.352Z" transform="translate(-0.487 -0.163)" style="fill:#fff"/><path d="M42.09,27.408a.66.66,0,0,1,.429-.479,2.981,2.981,0,0,1,.85-.1,3.09,3.09,0,0,1,.875.1.658.658,0,0,1,.434.479l1.964,6.369c0,.039-.022.059-.068.059h-1.28a.122.122,0,0,1-.127-.088l-.517-1.69a.124.124,0,0,0-.127-.1h-2.3a.126.126,0,0,0-.127.107l-.518,1.67a.123.123,0,0,1-.127.1h-1.27c-.053,0-.078-.02-.078-.059Zm1.4.868a.774.774,0,0,0-.049-.142.074.074,0,0,0-.068-.034c-.032,0-.067.06-.106.176L42.579,30.5a.072.072,0,0,1,0,.029.038.038,0,0,0,0,.02c0,.046.025.068.077.068H44.1c.053,0,.078-.022.078-.068a.052.052,0,0,0,0-.02.061.061,0,0,1,0-.029Z" transform="translate(-0.487 -0.163)" style="fill:#fff"/><path d="M46.855,29.008a2.618,2.618,0,0,1,.117-.791,1.262,1.262,0,0,1,.161-.366,3.284,3.284,0,0,1,.21-.278,2.132,2.132,0,0,1,.723-.547,2.1,2.1,0,0,1,.9-.2h2.588a.086.086,0,0,1,.1.1V28a.086.086,0,0,1-.1.1H49.024a.811.811,0,0,0-.566.4,1.619,1.619,0,0,0-.186.825v2.471a.869.869,0,0,0,.221.542.8.8,0,0,0,.532.23h2.529a.086.086,0,0,1,.1.1v1.075a.086.086,0,0,1-.1.1h-2.5a2.27,2.27,0,0,1-.517-.054,2.656,2.656,0,0,1-.391-.122,1.761,1.761,0,0,1-.664-.444A2.477,2.477,0,0,1,47,32.477a2.066,2.066,0,0,1-.1-.288,1.7,1.7,0,0,1-.05-.444V29.008Z" transform="translate(-0.487 -0.163)" style="fill:#fff"/><path d="M55.439,33.736a.086.086,0,0,1-.1.1H54.121a.087.087,0,0,1-.1-.1V28.2a.087.087,0,0,0-.1-.1H52.332a.086.086,0,0,1-.1-.1V26.927a.086.086,0,0,1,.1-.1h4.8a.086.086,0,0,1,.1.1V28a.086.086,0,0,1-.1.1H55.536a.087.087,0,0,0-.1.1v5.538Z" transform="translate(-0.487 -0.163)" style="fill:#fff"/><path d="M57.911,26.832h1.221a.087.087,0,0,1,.1.1v6.808a.087.087,0,0,1-.1.1H57.911a.086.086,0,0,1-.1-.1V26.929A.086.086,0,0,1,57.911,26.832Z" transform="translate(-0.487 -0.163)" style="fill:#fff"/><path d="M63.009,32.388a.7.7,0,0,0,.049.143.071.071,0,0,0,.067.034c.033,0,.068-.06.107-.177l1.68-5.459a.124.124,0,0,1,.127-.1H66.31c.052,0,.078.02.078.059l-1.983,6.369a.659.659,0,0,1-.43.479,2.971,2.971,0,0,1-.85.1,3.082,3.082,0,0,1-.874-.1.658.658,0,0,1-.435-.479l-1.963-6.369c0-.039.022-.059.068-.059H61.2a.122.122,0,0,1,.127.088Z" transform="translate(-0.487 -0.163)" style="fill:#fff"/><path d="M66.984,28.326a1.585,1.585,0,0,1,.36-1.079,1.313,1.313,0,0,1,1.045-.415H71.7c.084,0,.127.032.127.1V28a.087.087,0,0,1-.1.1H68.5c-.065,0-.1.036-.1.107v1.327a.087.087,0,0,0,.1.1h3a.087.087,0,0,1,.1.1v1.123a.087.087,0,0,1-.1.1h-3a.087.087,0,0,0-.1.1v1.415a.087.087,0,0,0,.1.1h3.233a.087.087,0,0,1,.1.1v1.075a.087.087,0,0,1-.1.1H67.95a.736.736,0,0,1-.351-.093,1.2,1.2,0,0,1-.313-.239,1.241,1.241,0,0,1-.22-.327.862.862,0,0,1-.083-.366Z" transform="translate(-0.487 -0.163)" style="fill:#fff"/><path d="M75.382,27.945a1.112,1.112,0,0,1,.117-.537.932.932,0,0,1,.312-.342,1.344,1.344,0,0,1,.444-.182,2.476,2.476,0,0,1,.513-.054,3.921,3.921,0,0,1,.684.049.79.79,0,0,1,.434.221,1.152,1.152,0,0,1,.269.512,9.037,9.037,0,0,1,.2.928l.527,3.233c.006.026.015.068.023.127s.022.117.039.177.032.11.05.156.03.067.044.067.028-.022.049-.067a.983.983,0,0,0,.049-.156c.014-.06.025-.115.039-.171a.605.605,0,0,0,.02-.1l.509-3.3a6.807,6.807,0,0,1,.19-.9,1.173,1.173,0,0,1,.272-.5.832.832,0,0,1,.444-.215,4.167,4.167,0,0,1,.7-.049,1.863,1.863,0,0,1,1,.244.913.913,0,0,1,.391.84v5.821a.087.087,0,0,1-.1.1H81.385a.086.086,0,0,1-.1-.1V28.413a.624.624,0,0,0-.01-.083c-.007-.043-.026-.063-.06-.063a.082.082,0,0,0-.072.034.507.507,0,0,0-.045.073.471.471,0,0,0-.023.088c-.009.046-.021.095-.029.146l-.029.155Q81,28.842,81,28.88q-.059.245-.112.513c-.036.179-.086.417-.151.712s-.145.674-.239,1.133-.22,1.047-.376,1.764a1.259,1.259,0,0,1-.1.3.84.84,0,0,1-.518.454,1.581,1.581,0,0,1-.518.073,1.321,1.321,0,0,1-.464-.068.94.94,0,0,1-.3-.171.7.7,0,0,1-.177-.23,1.451,1.451,0,0,1-.088-.244l-.977-4.649a.714.714,0,0,1-.034-.112c-.017-.062-.037-.1-.063-.1h-.047c-.026,0-.039.022-.039.068v5.411a.087.087,0,0,1-.1.1H75.478a.086.086,0,0,1-.1-.1v-5.79Z" transform="translate(-0.487 -0.163)" style="fill:#fff"/><path d="M85.3,27.408a.66.66,0,0,1,.429-.479,2.981,2.981,0,0,1,.85-.1,3.09,3.09,0,0,1,.875.1.658.658,0,0,1,.434.479l1.964,6.369c0,.039-.022.059-.068.059H88.5a.122.122,0,0,1-.127-.088l-.517-1.69a.124.124,0,0,0-.127-.1h-2.3a.126.126,0,0,0-.127.107l-.518,1.67a.123.123,0,0,1-.127.1H83.39c-.053,0-.078-.02-.078-.059Zm1.4.868a.774.774,0,0,0-.049-.142.074.074,0,0,0-.068-.034c-.032,0-.067.06-.106.176L85.784,30.5a.072.072,0,0,1,0,.029.039.039,0,0,0,0,.02c0,.046.025.068.077.068h1.455c.053,0,.078-.022.078-.068a.052.052,0,0,0,0-.02.061.061,0,0,1,0-.029Z" transform="translate(-0.487 -0.163)" style="fill:#fff"/><path d="M90.452,26.929a.086.086,0,0,1,.1-.1h3.115a2.275,2.275,0,0,1,.928.171,1.579,1.579,0,0,1,.615.474,1.96,1.96,0,0,1,.342.723,3.709,3.709,0,0,1,.107.917,3.794,3.794,0,0,1-.107.938,1.937,1.937,0,0,1-.342.723,1.5,1.5,0,0,1-.615.464,2.385,2.385,0,0,1-.928.161h-1.7a.087.087,0,0,0-.1.1v2.236a.087.087,0,0,1-.1.1H90.549a.086.086,0,0,1-.1-.1V26.929ZM91.966,28.1a.087.087,0,0,0-.1.1v1.836a.086.086,0,0,0,.1.1h1.865a.345.345,0,0,0,.278-.122.8.8,0,0,0,.15-.288,1.6,1.6,0,0,0,.063-.337c.01-.114.015-.2.015-.269s0-.154-.015-.269a1.679,1.679,0,0,0-.063-.337.8.8,0,0,0-.15-.288.345.345,0,0,0-.278-.122H91.966Z" transform="translate(-0.487 -0.163)" style="fill:#fff"/><path d="M105.7,5.227a12.137,12.137,0,0,1,12.057,11.805h1.758A13.905,13.905,0,0,0,105.7,3.447,13.765,13.765,0,0,0,94.159,9.735h2.178A11.983,11.983,0,0,1,105.7,5.227Z" transform="translate(-0.487 -0.163)" style="fill:#ff6d10"/><path d="M117.756,17.773A12.139,12.139,0,0,1,105.7,29.668a11.983,11.983,0,0,1-9.359-4.508H94.159A13.765,13.765,0,0,0,105.7,31.447a13.907,13.907,0,0,0,13.818-13.674Z" transform="translate(-0.487 -0.163)" style="fill:#ff6d10"/><path d="M103.738,15.3l.01.732-3.52.01-.02-.919a5.16,5.16,0,0,1,5.309-5.062c4.706,0,5.576,2.768,5.576,4.123,0,1.693.455,3.194-6.081,7.059l6.308.01-.942,3.253-10.409-.05c0-2.867.956-4.476,4.785-6.684,2.195-1.266,2.669-2.013,2.669-2.946C107.426,12.781,103.738,12.85,103.738,15.3Z" transform="translate(-0.487 -0.163)" style="fill:#fff"/></svg>