<svg xmlns="http://www.w3.org/2000/svg" viewBox="0 0 64 64" enable-background="new 0 0 64 64"><style type="text/css">.st0{fill:#682323;} .st1{fill:#C8CAC9;} .st2{fill:none;} .st3{fill:#C14848;}</style><circle class="st0" cx="32" cy="32" r="28.9"/><path class="st1" d="M55.17 41.11l8.83-3.46-1.08-2.69-5.45 2.23 2.92-5.38-2.46-1.38-4.61 8.45-10.45 4.07-10.91-3.69-4.23-7.37-2.61 1.46 2.61 4.61-5.07-1.77-.92 2.69 8.14 2.77 3.07 5.3-8.99 3.53 1.08 2.69 9.29-3.76 8.3 14.6 8.37-15.29 9.22 3.07.84-2.69-8.68-2.92 2.84-5.15-.05.08zm-4.15 1.69l-1.38 2.53-2.69-.92 4.07-1.61zm-16.98.23l4.61 1.54-3.07 1.31-1.54-2.85zm8.6 15.06l-5.61-9.76 5.84-2.3 5.38 1.84-5.61 10.22z"/><path class="st2" d="M41.3 26.6l-9.3-5.4-9.3 5.4v8.01l1.77.62-1.39-2.45 5.23-2.92 4.68 8.17 4.57 1.54 3.74-2.17zM32 12l-17.3 10v20l10.89 6.23 4.67-1.83-11.66-6.7v-15.4l13.4-7.7 13.4 7.7v15.4l-2.76 1.59.2.07 6.46-2.52v-16.84zM42.61 55.02l1.73-3.14-2.65 1.53z"/><path class="st3" d="M28.88 42.88l-9.04-3.06 1.9-5.54.96.33v-8.01l9.3-5.4 9.3 5.4v10.8l-3.74 2.17 5.08 1.72 2.76-1.59v-15.4l-13.4-7.7-13.4 7.7v15.4l11.66 6.7.53-.21zM42.91 47.62l-3.71 1.47 2.49 4.32 2.65-1.53 1.74-3.17zM55.29 45.57l.11-.07v-1.65l-.82 1.48zM24.84 54.87l7.16 4.13 4.58-2.64-2.89-5.07zM25.59 48.23l-10.89-6.23v-20l17.3-10 17.3 10v16.84l2.97-1.16 3.13-5.74v-13.44l-23.4-13.5-23.4 13.5v27l15.3 8.83-1.88-4.69z"/></svg>