<?xml version="1.0" encoding="utf-8"?>
<!-- Generator: Adobe Illustrator 21.0.1, SVG Export Plug-In . SVG Version: 6.00 Build 0)  -->
<svg version="1.1" id="Layer_1" xmlns="http://www.w3.org/2000/svg" xmlns:xlink="http://www.w3.org/1999/xlink" x="0px" y="0px"
	 viewBox="0 0 64 64" style="enable-background:new 0 0 64 64;" xml:space="preserve">
<style type="text/css">
	.st0{fill:#93581C;}
	.st1{fill:#C4BC2C;}
</style>
<circle class="st0" cx="32" cy="32" r="28.9"/>
<g>
	<path class="st1" d="M39.91,33.5c0.062,0.451,0.283,0.815,0.623,1.024c0.34,0.209,0.763,0.24,1.195,0.094
		c0.452-0.156,0.854-0.491,1.132-0.942s0.395-0.961,0.33-1.435c-0.062-0.451-0.282-0.815-0.622-1.024
		c-0.205-0.126-0.435-0.185-0.674-0.185c-0.602,0-1.252,0.381-1.654,1.034C39.962,32.516,39.845,33.026,39.91,33.5z"/>
	<path class="st1" d="M32.346,21.393c1.546,1.052,3.341,1.11,4.008,0.129l0.733-1.078c-0.104,0.152-0.202,0.22-0.376,0.275
		c-0.406,0.117-0.819,0.12-1.214,0.073c-0.793-0.099-1.519-0.426-2.163-0.853c-0.634-0.442-1.205-0.998-1.588-1.699
		c-0.189-0.35-0.334-0.735-0.38-1.155c0.003-0.167,0.047-0.293,0.112-0.439l-0.725,1.066C30.087,18.693,30.799,20.34,32.346,21.393z
		"/>
	<path class="st1" d="M32.289,17.945c0.321,0.592,0.828,1.09,1.393,1.484c0.574,0.381,1.223,0.669,1.892,0.75
		c0.331,0.04,0.693,0.003,0.968-0.054c0.375-0.065,0.679-0.144,0.975-0.311l1.132-1.664c0.667-0.981-0.046-2.628-1.592-3.681
		c-1.546-1.052-3.341-1.11-4.008-0.129l-1.132,1.664c-0.013,0.377,0.008,0.716,0.054,1.032
		C32.021,17.352,32.132,17.651,32.289,17.945z M35.009,14.478c0.264-0.388,1.103-0.278,1.873,0.246
		c0.77,0.524,1.181,1.264,0.917,1.652c-0.264,0.388-1.103,0.278-1.873-0.246C35.156,15.606,34.745,14.866,35.009,14.478z"/>
	<path class="st1" d="M43.224,18.583c0.97,0.66,2.184,0.648,3.055,0.07l0.726-1.14c-0.887,0.204-1.871,0.056-2.706-0.512
		c-0.835-0.568-1.334-1.429-1.469-2.328c-0.268,0.37-0.533,0.735-0.794,1.094C41.819,16.79,42.254,17.923,43.224,18.583z"/>
	<path class="st1" d="M45.724,14.909c-0.8-0.545-1.297-1.358-1.456-2.218c-0.28,0.386-0.56,0.772-0.838,1.156
		c-0.136,0.975,0.303,2.02,1.218,2.643c0.915,0.623,2.049,0.647,2.906,0.163l0.768-1.204C47.463,15.616,46.524,15.453,45.724,14.909
		z"/>
	<path class="st1" d="M37.308,22.632c0.157,0.957,0.695,1.743,1.57,2.338c0.878,0.597,1.807,0.83,2.759,0.606
		c0.179-0.042,0.335-0.166,0.434-0.321l3.619-5.678c-0.914,0.244-1.945,0.108-2.814-0.484c-0.869-0.591-1.374-1.5-1.483-2.439
		c-1.893,2.61-3.455,4.765-3.954,5.453C37.329,22.26,37.277,22.447,37.308,22.632z"/>
	<path class="st1" d="M47.014,26.372l-3.295-2.552l-1.127,1.768c-0.19,0.298-0.486,0.514-0.814,0.591
		c-0.288,0.068-0.576,0.101-0.863,0.101c-0.806,0-1.605-0.267-2.386-0.798c-1.032-0.703-1.648-1.628-1.832-2.749
		c-0.055-0.335,0.029-0.676,0.23-0.964l-0.069,0.102c-0.872,1.282-3.01,1.297-4.867,0.034c-1.856-1.263-2.627-3.257-1.755-4.539
		l0.102-0.151h-5.811c-0.539,0-1.04,0.279-1.324,0.738l-8.065,13.098c-0.361,0.584-0.552,1.258-0.552,1.945v2.487
		c0,0.382-0.096,0.758-0.28,1.094l-5.863,10.69c-0.819,1.493-0.413,3.361,0.951,4.379l8.596,6.419
		c0.397,0.297,0.883,0.45,1.379,0.436l7.036-0.206c0.633-0.018,1.219-0.336,1.579-0.856l7.534-10.865h-8.365L19.48,57.749
		c-0.475,0.064-0.802-0.045-1.082-0.412L27,44.991c0.101-0.144,0.24-0.258,0.402-0.327l2.037-0.873
		c0.175-0.075,0.322-0.201,0.424-0.361l8.977-14.15c0.196-0.308,0.12-0.716-0.173-0.933l-6.671-4.951l7.266,4.828
		c0.314,0.209,0.405,0.629,0.206,0.949l-8.74,14.066c-0.154,0.247,0.02,0.568,0.311,0.574l6.575,0.137
		c0.068-0.046,0.126-0.103,0.198-0.143l0.795-0.448c0.394-0.222,0.728-0.538,0.973-0.919l8.085-12.47
		C48.43,28.785,48.146,27.211,47.014,26.372z M29.093,40.534l-0.171,0.252c-0.132,0.195-0.398,0.245-0.592,0.113l-11.893-8.092
		c-0.195-0.132-0.245-0.398-0.113-0.592l0.171-0.252c0.132-0.195,0.398-0.245,0.592-0.113l11.893,8.092
		C29.175,40.074,29.225,40.34,29.093,40.534z M30.699,38.173l-0.171,0.252c-0.132,0.195-0.398,0.245-0.592,0.113l-11.893-8.092
		c-0.195-0.132-0.245-0.398-0.113-0.592l0.171-0.252c0.132-0.195,0.398-0.245,0.592-0.113l11.893,8.092
		C30.781,37.713,30.832,37.978,30.699,38.173z M32.306,35.811l-0.171,0.252c-0.132,0.195-0.398,0.245-0.592,0.113l-11.893-8.092
		c-0.195-0.132-0.245-0.398-0.113-0.592l0.171-0.252c0.132-0.195,0.398-0.245,0.592-0.113l11.893,8.092
		C32.388,35.352,32.438,35.617,32.306,35.811z M36.023,29.59c0.195,0.132,0.245,0.398,0.113,0.592l-2.057,3.023
		c-0.132,0.195-0.398,0.245-0.592,0.113l-11.893-8.092c-0.195-0.132-0.245-0.398-0.113-0.592l2.057-3.023
		c0.132-0.195,0.398-0.245,0.592-0.113L36.023,29.59z M43.386,33.999c-0.352,0.573-0.869,1-1.456,1.203
		c-0.244,0.085-0.489,0.126-0.727,0.126c-0.355,0-0.694-0.094-0.993-0.278c-0.501-0.308-0.824-0.829-0.912-1.467
		c-0.084-0.616,0.063-1.27,0.416-1.843c0.739-1.203,2.165-1.674,3.177-1.051c0.501,0.308,0.824,0.829,0.911,1.467
		C43.886,32.772,43.738,33.427,43.386,33.999z"/>
	<path class="st1" d="M54.295,5.538C54.03,4.904,53.643,4.44,53.098,4.07C52.56,3.704,51.943,3.523,51.295,3.5
		c-0.229-0.008-0.444,0.112-0.578,0.297c-0.729,1.005-3.226,4.449-5.874,8.1c-0.075,0.933,0.358,1.907,1.229,2.5
		c0.871,0.592,1.936,0.638,2.777,0.225l5.379-8.44C54.349,5.992,54.382,5.746,54.295,5.538z"/>
</g>
</svg>
