<svg xmlns="http://www.w3.org/2000/svg" viewBox="0 0 64 64" enable-background="new 0 0 64 64"><style type="text/css">.st0{fill:#6F4512;} .st1{fill:#CE8508;}</style><circle class="st0" cx="32" cy="32" r="28.9"/><path class="st1" d="M57.7 21.6l-.1-.3c-.2-.4-.8-.6-1.2-.3-.3.2-.4.5-.4.8.5 4-1.3 8.2-5 10.4-5 3-11.5 1.3-14.5-3.7s-1.4-11.5 3.6-14.5c3.7-2.2 8.2-1.9 11.5.5.3.2.6.2.9 0 .4-.2.5-.8.3-1.2-.1-.1-.1-.2-.2-.2-4.5-3.9-10.9-4.9-15.9-1.9-1.7 1-3.1 2.4-4.1 4-.4.7-1.4.7-1.9.1-1.1-1.5-2.5-2.7-4.3-3.6-5.1-2.7-11.4-1.3-15.7 2.9l-.2.2c-.2.4-.1 1 .4 1.2.3.2.6.1.9-.1 3.2-2.6 7.6-3.2 11.5-1.2 5.2 2.7 7.2 9.1 4.5 14.2s-9.1 7.2-14.2 4.6c-3.8-2-5.9-6-5.6-10.1 0-.3-.2-.6-.5-.8-.4-.2-.9 0-1.2.4l-.1.3c-1 5.9 1.6 11.8 6.8 14.5 1.3.7 2.6 1.1 4 1.3.7.1 1.1.8.9 1.5-.6 1.5-.9 3.1-.9 4.7 0 6.1 4.1 11.2 9.8 13.1l.3.1c.5 0 .9-.4.9-.9 0-.3-.2-.6-.5-.8-3.7-1.7-6.3-5.5-6.3-9.9 0-3.7 1.8-7 4.6-9v8.1c0 .8.6 1.4 1.4 1.4s1.4-.6 1.4-1.4v-9.5c.6-.2 1.1-.3 1.7-.4v10.6c0 .9.7 1.6 1.6 1.6s1.6-.7 1.6-1.6v-10.5c.6.1 1.2.2 1.7.4v8.8c0 .8.6 1.4 1.4 1.4s1.4-.6 1.4-1.4v-7.4c2.7 2 4.5 5.2 4.5 8.9 0 4.4-2.6 8.3-6.3 9.9-.3.1-.5.4-.5.8 0 .5.4.9.9.9.1 0 .2 0 .3-.1 5.7-1.9 9.8-7.1 9.8-13.1 0-1.9-.4-3.8-1.2-5.5-.3-.7.2-1.6 1-1.6 2-.1 3.9-.7 5.7-1.7 4.6-3 6.8-9 5.5-14.9zm-23.9 12.1h-4c-.8 0-1.2-.8-.9-1.5l2-3.5c.4-.7 1.3-.7 1.7 0l2 3.5c.5.7 0 1.5-.8 1.5zM13.6 31.3l4.6-4.8 4.3 4.2 2.2-2.2-4.4-4.2 4.7-4.9-2.3-2.2-4.6 4.9-4.5-4.4-2.2 2.3 4.5 4.3-4.5 4.8zM50.1 16.3l-4.6 4.8-4.6-4.3-2.1 2.2 4.5 4.4-4.6 4.8 2.3 2.1 4.5-4.7 4.4 4.2 2.2-2.3-4.4-4.2 4.6-4.9z"/></svg>