<?xml version="1.0" encoding="utf-8"?>
<!-- Generator: Adobe Illustrator 21.0.1, SVG Export Plug-In . SVG Version: 6.00 Build 0)  -->
<svg version="1.1" id="Layer_1" xmlns="http://www.w3.org/2000/svg" xmlns:xlink="http://www.w3.org/1999/xlink" x="0px" y="0px"
	 viewBox="0 0 64 64" style="enable-background:new 0 0 64 64;" xml:space="preserve">
<style type="text/css">
	.st0{fill:#714282;}
	.st1{fill:#C58FFF;}
</style>
<g>
	<g>
		<g>
			<g>
				<g>
					<circle class="st0" cx="32" cy="32" r="28.9"/>
				</g>
			</g>
		</g>
	</g>
</g>
<g>
	<path class="st1" d="M36.31,34.17c-0.71-0.46-1.5-1.04-1.52-1.64c-0.02-0.36,0-0.57,0.42-1.23c0.8-1.26,0.67-5.03,0.35-6.31
		c-0.23-0.93-1.87-1.95-3.33-1.95c-1.45,0-3.1,1.02-3.33,1.95c-0.32,1.29-0.45,5.05,0.35,6.31c0.42,0.66,0.44,0.87,0.42,1.23
		c-0.03,0.6-0.81,1.18-1.53,1.64c-0.98,0.06-3.21,0.9-3.21,1.43v16.9H39.5V35.6C39.5,35.08,37.28,34.23,36.31,34.17z"/>
	<polygon class="st1" points="48.03,9.5 42.27,9.5 42.55,13.08 21.45,13.08 21.73,9.5 15.97,9.5 11.92,51.92 18.89,45.72 
		20.91,20.02 43.09,20.02 45.11,45.72 52.08,51.92 	"/>
</g>
</svg>
