<?xml version="1.0" encoding="utf-8"?>
<!-- Generator: Adobe Illustrator 21.0.1, SVG Export Plug-In . SVG Version: 6.00 Build 0)  -->
<svg version="1.1" id="Layer_1" xmlns="http://www.w3.org/2000/svg" xmlns:xlink="http://www.w3.org/1999/xlink" x="0px" y="0px"
	 viewBox="0 0 64 64" style="enable-background:new 0 0 64 64;" xml:space="preserve">
<style type="text/css">
	.st0{fill:#C8CAC9;}
	.st1{fill:#555556;}
</style>
<g>
	<path class="st0" d="M31.956,60.9L6.994,46.488l0.052-28.895L32.044,3.1l24.962,14.412l-0.054,28.894L31.956,60.9z M12.373,43.389
		L31.95,54.69l19.634-11.383l0.041-22.696L32.05,9.309L12.415,20.692L12.373,43.389z"/>
	<polygon class="st1" points="54.316,19.061 54.269,44.857 31.953,57.795 9.684,44.938 9.73,19.143 32.047,6.204 	"/>
</g>
<g>
	<path class="st0" d="M34.87,42.416h-6.098V32.412c0-1.264,0.78-2.397,1.961-2.848c6.532-2.497,7.237-4.936,7.237-5.87
		c0-1.761-1.712-5.064-5.836-5.097c-0.022,0-0.043,0-0.064,0c-4.064,0-6.373,3.146-6.47,3.28l-5.001-3.489
		c0.167-0.243,4.254-5.901,11.584-5.889c7.341,0.06,11.885,5.857,11.885,11.195c0,3.08-1.655,7.34-9.198,10.751V42.416z"/>
	<rect x="28.772" y="44.83" class="st0" width="6.098" height="6.669"/>
</g>
</svg>
