<svg xmlns="http://www.w3.org/2000/svg" viewBox="0 0 64 64" enable-background="new 0 0 64 64"><style type="text/css">.st0{fill:#682323;} .st1{fill:#C8CAC9;}</style><circle class="st0" cx="32" cy="32" r="28.9"/><path class="st1" d="M10.1 10.1h43.8v43.8h-43.8z"/><path class="st0" d="M46.8 17.5v2.9h-3.8v-3h-1.5v3h-4.9v-3h-9.3v3h-4.9v-3h-1.4v3h-3.8v-2.9c-1.4.1-2.5 1.2-2.5 2.6v23.7c0 1.5 1.2 2.7 2.7 2.7h4v-2.3h21.3v2.3h4c1.5 0 2.7-1.2 2.7-2.7v-23.6c0-1.5-1.1-2.6-2.6-2.7zm-14.8 20.1c-.7 0-6.5-2.9-6.5-6.5 0-1.7.7-3.4 1.9-4.6 0 0 1.3 5.5 4.5 5.5l4.7-5.4c1.1 1.2 1.8 2.8 1.8 4.4.1 3.7-5.9 6.6-6.4 6.6z"/></svg>