<?xml version="1.0" encoding="utf-8"?>
<!-- Generator: Adobe Illustrator 21.0.1, SVG Export Plug-In . SVG Version: 6.00 Build 0)  -->
<svg version="1.1" id="Layer_1" xmlns="http://www.w3.org/2000/svg" xmlns:xlink="http://www.w3.org/1999/xlink" x="0px" y="0px"
	 viewBox="0 0 64 64" style="enable-background:new 0 0 64 64;" xml:space="preserve">
<style type="text/css">
	.st0{fill:#4E5468;}
	.st1{fill:#C7CBD7;}
</style>
<g>
	<g>
		<g>
			<g>
				<circle class="st0" cx="32.033" cy="32" r="28.9"/>
			</g>
		</g>
	</g>
</g>
<g>
	<path class="st1" d="M41.986,48.05c-3.617-2.104-5.583-5.849-5.383-9.429c0.03-0.533-0.569-0.852-1.029-0.582
		c-1.035,0.611-2.241,0.962-3.531,0.962c-1.365,0-2.635-0.393-3.71-1.071c-0.472-0.297-1.067,0.091-1.012,0.645
		c0.367,3.697-1.666,7.568-5.4,9.741c-2.348,1.37-4.935,1.777-7.282,1.355c-0.739-0.133-1.1,0.897-0.44,1.255
		c4.41,2.394,9.926,2.493,14.53-0.193c0.969-0.596,1.876-1.254,2.669-2.027c0.266-0.259,0.676-0.271,0.947-0.017
		c0.789,0.736,1.691,1.451,2.654,2.043c4.829,2.833,10.632,2.565,15.142-0.139c0.659-0.395,0.233-1.389-0.519-1.231
		C47.184,49.878,44.449,49.479,41.986,48.05z"/>
	<path class="st1" d="M12.922,32.18c3.633-2.077,7.859-1.905,10.857,0.06c0.446,0.293,1.023-0.066,1.019-0.6
		c-0.01-1.202,0.289-2.422,0.934-3.538c0.684-1.181,1.66-2.084,2.785-2.674c0.493-0.259,0.456-0.969-0.052-1.199
		c-3.384-1.534-5.718-5.231-5.729-9.553c-0.01-2.718,0.933-5.162,2.473-6.982c0.485-0.573-0.226-1.402-0.866-1.01
		c-4.28,2.618-7.128,7.344-7.108,12.674c0.031,1.137,0.146,2.252,0.418,3.325c0.091,0.36-0.104,0.721-0.459,0.829
		c-1.033,0.315-2.103,0.737-3.097,1.274c-4.871,2.762-7.544,7.918-7.461,13.177c0.012,0.768,1.087,0.897,1.326,0.167
		C8.738,35.765,10.452,33.598,12.922,32.18z"/>
	<path class="st1" d="M40.857,14.795c0.058,4.185-2.14,7.798-5.312,9.469c-0.472,0.249-0.438,0.927,0.031,1.182
		c1.057,0.573,1.979,1.426,2.643,2.531c0.703,1.17,1.019,2.462,0.991,3.731c-0.012,0.557,0.627,0.868,1.074,0.535
		c2.981-2.218,7.346-2.468,11.132-0.386c2.382,1.307,4.065,3.316,4.911,5.545c0.266,0.703,1.336,0.481,1.303-0.269
		c-0.218-5.013-2.973-9.793-7.645-12.357c-1.01-0.524-2.041-0.962-3.111-1.245c-0.359-0.095-0.58-0.44-0.502-0.804
		c0.224-1.056,0.373-2.197,0.386-3.327c-0.057-5.599-3.274-10.435-7.915-12.91c-0.678-0.362-1.311,0.516-0.789,1.079
		C39.748,9.398,40.813,11.948,40.857,14.795z"/>
</g>
</svg>
