<?xml version="1.0" encoding="utf-8"?>
<!-- Generator: Adobe Illustrator 21.0.1, SVG Export Plug-In . SVG Version: 6.00 Build 0)  -->
<svg version="1.1" id="Layer_1" xmlns="http://www.w3.org/2000/svg" xmlns:xlink="http://www.w3.org/1999/xlink" x="0px" y="0px"
	 viewBox="0 0 64 64" style="enable-background:new 0 0 64 64;" xml:space="preserve">
<style type="text/css">
	.st0{fill:#4E5468;}
	.st1{fill:#C7CBD7;}
</style>
<circle class="st0" cx="31.6" cy="31.7" r="28.9"/>
<g>
	<path class="st1" d="M22.586,14.133H12.023l-5.281,9.108l5.281,9.108h10.562l5.281-9.108L22.586,14.133z M17.304,28.905
		c-3.062,0-5.587-2.449-5.587-5.587c0-3.062,2.449-5.587,5.587-5.587c3.062,0,5.587,2.449,5.587,5.587
		C22.892,26.379,20.443,28.905,17.304,28.905z"/>
	<polygon class="st1" points="49.681,18.266 46.772,22.476 41.491,19.108 44.399,14.975 36.745,10 31.617,17.118 52.283,30.666 
		57.258,23.088 	"/>
	<polygon class="st1" points="35.98,23.547 32.536,28.752 44.552,30.972 45.394,29.671 	"/>
	<polygon class="st1" points="31.082,30.972 28.556,34.646 40.802,36.712 42.945,33.498 	"/>
	<polygon class="st1" points="27.331,36.942 24.729,40.616 37.052,42.682 39.195,39.391 	"/>
	<polygon class="st1" points="23.351,43.065 20.825,46.815 33.148,48.882 35.215,45.591 	"/>
	<polygon class="st1" points="28.403,56 31.847,50.795 19.83,48.576 18.988,49.877 	"/>
</g>
</svg>
