<?xml version="1.0" encoding="utf-8"?>
<!-- Generator: Adobe Illustrator 21.0.1, SVG Export Plug-In . SVG Version: 6.00 Build 0)  -->
<svg version="1.1" id="Layer_1" xmlns="http://www.w3.org/2000/svg" xmlns:xlink="http://www.w3.org/1999/xlink" x="0px" y="0px"
	 viewBox="0 0 64 64" style="enable-background:new 0 0 64 64;" xml:space="preserve">
<style type="text/css">
	.st0{fill:#555556;}
	.st1{fill:#C4BC2C;}
	.st2{fill:#93581C;}
	.st3{fill:#C8CAC9;}
</style>
<g>
	<circle class="st0" cx="32" cy="32" r="28.9"/>
</g>
<g>
	<path class="st1" d="M45.4,29.438l-16.166,28h32.332L45.4,29.438z M36.968,52.973L45.4,38.367l8.432,14.605H36.968z"/>
	<polygon class="st2" points="45.4,38.367 36.968,52.973 53.832,52.973 	"/>
</g>
<g>
	<polygon class="st3" points="33.941,46.285 37.947,39.347 32,42.8 22.7,37.4 22.7,26.6 32,21.2 41.3,26.6 41.3,33.539 45.4,26.438 
		45.4,24.3 32,16.6 18.6,24.3 18.6,39.7 32,47.4 	"/>
</g>
<g>
	<polygon class="st3" points="31.022,51.34 14.7,42 14.7,22 32,12 49.3,22 49.3,33.192 55.4,43.758 55.4,18.5 32,5 8.6,18.5 
		8.6,45.5 27.949,56.663 	"/>
</g>
</svg>
