<svg xmlns="http://www.w3.org/2000/svg" viewBox="0 0 64 64" enable-background="new 0 0 64 64"><style type="text/css">.st0{fill:#4E5468;} .st1{fill:#C7CBD7;}</style><circle class="st0" cx="32" cy="32" r="28.9"/><path class="st1" d="M55.1 30.7h-12v-12h-7.4v12h-12v7.4h12v12h7.4v-12h12zM33 48.3l-12-7.5v-12.8h12v-6.1c-1-.3-2.2-.8-2.9-1.2-.7-.4-2.5-1.1-3-1.1v-1.2c0-.6.2-1.2.6-1.8.4-.6.6-1.4.6-2.2v-2.9c0-2.3-2-4.2-4.3-4.1-2.2.1-3.9 2.1-3.9 4.3v2.6c0 .8.2 1.6.6 2.2.3.5.6 1.1.6 1.8v1.2c-.5 0-2.4.7-3 1.1-1 .7-3.5 1.4-4 1.7-1.4.8-1.4 2.1-1.4 3v5.6c0 .6.4 1.8.4 1.8.2.6.1 2.4.1 3.6v5.4c0 .7.1 1.5.2 2.2l1.3 8.5h18.1v-4.1z"/></svg>