<svg xmlns="http://www.w3.org/2000/svg" viewBox="0 0 64 64" enable-background="new 0 0 64 64"><style type="text/css">.st0{fill:#D32929;stroke:#682323;stroke-width:2;stroke-miterlimit:10;}</style><path class="st0" d="M23.4 10.3c.1-3.1 1.7-5.4 4.2-7 6.2-3.8 12.8 1.6 12.9 6.5 0 1.7-.3 3.4-.5 5.1l-2.7 20.6c-.3 2.1-.5 4.3-.9 6.4-.1.8-.5 1.6-.9 2.3-1.7 2.7-5.4 2.7-7.1 0-.8-1.3-1-2.8-1.2-4.2l-3.5-26.4c0-1-.1-2.2-.3-3.3zM37.9 55.9c0 3.4-2.7 6.1-5.9 6.1-3.3 0-5.9-2.8-5.9-6.1 0-3.4 2.7-6.1 5.9-6.1 3.3 0 5.9 2.7 5.9 6.1z"/></svg>