<?xml version="1.0" encoding="utf-8"?>
<!-- Generator: Adobe Illustrator 21.0.1, SVG Export Plug-In . SVG Version: 6.00 Build 0)  -->
<svg version="1.1" id="Layer_1" xmlns="http://www.w3.org/2000/svg" xmlns:xlink="http://www.w3.org/1999/xlink" x="0px" y="0px"
	 viewBox="0 0 64 64" style="enable-background:new 0 0 64 64;" xml:space="preserve">
<style type="text/css">
	.st0{fill:#555556;}
	.st1{fill:#93581C;}
	.st2{fill:#C4BC2C;}
	.st3{fill:none;}
	.st4{fill:#C8CAC9;}
</style>
<g>
	<circle class="st0" cx="32" cy="32" r="28.9"/>
</g>
<g>
	<circle class="st1" cx="43.831" cy="46.367" r="16.193"/>
</g>
<g>
	<path class="st2" d="M57.427,42.226c0.015-0.493,6.94-4.774,5.439-6.633c0,0-0.762,1.39-1.793,0.777
		c-0.605-0.44,5.334-8.061,1.793-10.04c0,0,0.045,1.644-0.418,2.212L45.683,47.274c-0.088-0.099-0.41-0.678-0.499-1.013
		c-0.09-0.336-0.068-0.897,0-1.256c0.062-0.331,0.673-0.561,0.673-0.561s-0.762-0.941-1.098-1.21s-1.076-0.112-1.3-0.179
		c-0.224-0.068-0.291-0.561-0.941-0.649s-1.098,0.628-1.098,0.628s0.732-0.045,1.023,0.134c0.291,0.179,0.568,0.725,0.612,1.015
		c0.045,0.291-0.134,0.934-0.381,1.449s-0.09,1.412-0.09,1.412L42.3,47.058L25.363,27.883C24.901,27.315,24.796,26,24.796,26
		c-3.541,1.98,2.398,9.868,1.793,10.309c-1.031,0.612-1.912-0.717-1.912-0.717c-1.501,1.86,4.886,5.633,4.901,6.126
		c-0.688,0.202-4.378-0.59-5.409-2.091c-1.098,2.51,5.304,4.856,5.259,5.289c0.158,0.5-0.986,0.471-1.524,0.448
		c0.246,0.852,5.894,2.271,6.305,2.779c-0.568,0.322-3.429,0.397-4.303-0.12c0.874,4.662,8.109,3.556,8.516,3.586
		c0.018,0.598-1.36,1.001-1.673,1.315c0.874,0.583,3.047,0.149,3.376-1.015l0.005-0.012c0.327-0.016,1.041,0.012,1.085,0.102
		c0.183,0.365,0.134,6.066-1.688,2.107c0,0-0.159,0.983-0.149,1.3c0.015,0.493,0.538,2.556-0.388,2.001
		c-0.164,0.314,0.015,1.837,1.988,1.747c0,0-0.314-0.918-0.299-1.173c0.015-0.261,0.462-0.877,0.822-0.903
		c0.388-0.03,0.568,0.673,0.478,1.262c0.373-0.171,0.538-0.471,0.628-0.649c0.09-0.179-0.222-1.046-0.418-1.18
		c-0.284-0.194-0.374-0.606-0.344-0.852c0.03-0.239,0.54-0.375,0.807-0.344c0.643,0.075,0.546,1.293,0.508,2.345
		c0.59-0.53,0.553-2.084,0.418-2.376c-0.134-0.291-0.568-0.561-0.612-0.897c-0.045-0.336,0.314-0.717,0.336-1.158
		c0.021-0.409,0.108-0.582,0.336-0.71c0.239-0.134,0.344-0.12,0.448,0.06c0.111,0.191-0.179,1.778,0,1.958
		c0.336,0.336,0.727,0.385,0.874,0.688c0.515,1.061,0.261,1.584,0.127,2.062c0.986-0.06,0.673-1.225,0.837-1.434
		c0.269,0.194,0.508,1.808,0.209,2.838c0,0,0.833-0.587,1.035-0.575c0.254,0.015,0.145,0.359-0.011,0.796
		c0.302,0.011,0.918,0.033,0.874-0.448c1.041,0.158,1.076-0.998,1.076-0.998s-1.116,0.284-1.151-0.239
		c-0.015-0.224,0.792-0.927,0.762-1.539c-0.035-0.731-0.927-1.629-0.927-1.629s-0.143,0.918-0.344,1.143
		c-0.202,0.224-0.605,0.09-0.784-0.112s-0.045-0.807-0.068-1.255c-0.018-0.354,0.118-1.056,0.176-1.336
		c0.723,0.37,2.577,0.995,3.409,0.44c-0.314-0.314-1.39-0.852-1.372-1.449c0.407-0.03,8.005,1.27,8.879-3.391
		c-0.874,0.515-3.698,0.605-4.266,0.284c0.41-0.508,6.081-1.898,6.328-2.749c-0.538,0.022-1.614,0.142-1.457-0.359
		c-0.045-0.434,6.477-3.205,5.379-5.715C62.641,41.061,58.114,42.427,57.427,42.226z"/>
	<path class="st2" d="M43.831,31.614c4.236,0,8.044,1.795,10.735,4.654l1.932-2.159c-3.206-3.312-7.694-5.374-12.667-5.374
		c-4.795,0-9.14,1.917-12.319,5.023l1.907,2.159C36.087,33.258,39.767,31.614,43.831,31.614z"/>
	<g>
		<path class="st2" d="M60.08,44.901l0.641-0.027l-0.279,0.961c-0.145,0.503-0.699,0.883-1.85,1.352l-0.066,0.353
			c-0.6,7.598-6.943,13.58-14.695,13.58c-7.572,0-13.803-5.706-14.648-13.052l-0.222-1.186c-1.082-0.456-1.606-0.831-1.747-1.319
			l-0.278-0.962l0.724,0.031c-0.402-0.223-0.842-0.473-1.284-0.747c-0.114,0.81-0.177,1.638-0.177,2.481
			C26.198,56.106,34.093,64,43.831,64s17.633-7.894,17.633-17.633c0-0.763-0.054-1.514-0.148-2.251
			C60.889,44.402,60.466,44.665,60.08,44.901z"/>
		<g>
			<path class="st3" d="M45.4,39.7l-2.279,1.31c0.441,0.131,0.762,0.353,0.981,0.56c0.463,0.006,1.074,0.076,1.596,0.495
				c0.372,0.297,0.915,0.936,1.215,1.302l0.524-0.3l1.864-2.083v-6.682c-1.228-0.56-2.538-0.929-3.9-1.089V39.7z"/>
			<path class="st3" d="M24.877,43.807c-0.533-0.399-1.031-0.841-1.432-1.324L18.6,39.7V24.3L32,16.6l13.4,7.7v3.013
				c1.334,0.108,2.64,0.346,3.9,0.721V22L32,12L14.7,22v20l10.067,5.761c-0.033-0.463-0.068-0.926-0.068-1.395
				C24.699,45.528,24.762,44.669,24.877,43.807z"/>
			<path class="st3" d="M34.999,41.058l-9.243-10.465c0.451,1.154,1.043,2.323,1.386,2.999c0.896,1.768,1.544,3.045,0.33,3.929
				l-0.117,0.077c-0.06,0.035-0.121,0.068-0.181,0.099c0.758,0.698,1.664,1.403,2.091,1.737c1.264,0.985,1.786,1.393,1.813,2.237
				l0.018,0.603L32,42.8L34.999,41.058z"/>
			<path class="st3" d="M33.888,46.315c0.816,0.314,1.209,0.539,1.487,0.883l1.112,1.375l-1.537,0.874
				c-0.313,0.178-0.822,0.306-1.418,0.38c0.482,0.152,1.024,0.235,1.58,0.292l5.24-2.999l-2.648-2.998L33.888,46.315z"/>
			<path class="st3" d="M37.661,56.712l0.298-0.568c-0.003-0.018-0.006-0.035-0.008-0.051c-0.029-0.197-0.048-0.357-0.06-0.492
				l-2.16,1.246c0.546,0.422,1.127,0.798,1.735,1.132C37.412,57.521,37.471,57.075,37.661,56.712z"/>
			<path class="st3" d="M44.078,58.852l-0.824,0.742c0.193,0.008,0.383,0.027,0.577,0.027c0.161,0,0.318-0.017,0.477-0.023
				l0.224-0.773L44.078,58.852z"/>
			<polygon class="st3" points="47.35,50.144 46.463,50.656 47.32,51.095 			"/>
			<path class="st3" d="M52.531,53.174l-1.52,1.014c-0.32,0.214-0.677,0.343-1.047,0.411c0.137,0.318,0.234,0.664,0.251,1.02
				c0.001,0.006,0.001,0.012,0.001,0.018l0.45-0.115l-0.061,1.991c-0.001,0.04-0.007,0.122-0.019,0.22
				c2.101-1.26,3.835-3.083,4.979-5.267c-0.845,0.316-1.87,0.538-3.122,0.622L52.531,53.174z"/>
			<path class="st3" d="M45.381,51.821l0.128-0.615l-0.42,0.243C45.202,51.562,45.302,51.686,45.381,51.821z"/>
			<path class="st3" d="M22.967,36.548c-0.081-0.701,0.107-1.357,0.543-1.898l0.497-0.615c-0.454-0.922-0.946-1.992-1.307-3.086
				V37.4l0.643,0.373l0.011-0.026C23.148,37.353,23.014,36.954,22.967,36.548z"/>
			<path class="st3" d="M37.644,39.523L41.3,37.4v-4.043c-2.345,0.452-4.51,1.54-6.311,3.161L37.644,39.523z"/>
			<path class="st3" d="M26.543,26.959l4.559,5.159c2.88-2.576,6.408-4.196,10.198-4.697V26.6L32,21.2l-5.813,3.375l0.104,1.305
				C26.325,26.28,26.448,26.806,26.543,26.959z"/>
			<path class="st3" d="M53.074,46.842c0.475-0.229,1.166-0.472,2.28-0.85c0.048-0.016,0.112-0.038,0.164-0.056l1.272-0.779
				c0.001-0.008,0-0.016,0.001-0.024c0.035-0.6,0.396-0.994,0.993-1.41c-0.316,0.017-0.583,0.001-0.779-0.058l-1.115-0.326
				l0.037-1.161c0.026-0.835,0.499-1.21,1.901-2.321c0.518-0.411,1.653-1.312,2.542-2.16c-0.021-0.012-0.043-0.024-0.064-0.037
				l-0.116-0.076c-1.228-0.893-0.57-2.15,0.34-3.891c0.22-0.421,0.545-1.042,0.867-1.729L55.4,38.665V45.5L53.074,46.842z"/>
			<path class="st4" d="M22.794,39.026l0.548-1.253L22.7,37.4v-6.452c-0.799-2.422-0.956-4.96,1.364-6.257l2.041-1.142l0.082,1.026
				L32,21.2l9.3,5.4v0.822c0.834-0.11,1.676-0.187,2.531-0.187c0.528,0,1.049,0.036,1.569,0.078V24.3L32,16.6l-13.4,7.7v15.4
				l4.844,2.784C22.627,41.499,22.218,40.344,22.794,39.026z"/>
			<path class="st4" d="M14.7,42V22L32,12l17.3,10v6.033c2.201,0.654,4.256,1.715,6.1,3.126V18.5L32,5L8.6,18.5v27l18.99,10.956
				c-1.63-2.614-2.599-5.577-2.823-8.695L14.7,42z"/>
		</g>
	</g>
</g>
</svg>
