<?xml version="1.0" encoding="utf-8"?>
<!-- Generator: Adobe Illustrator 21.0.1, SVG Export Plug-In . SVG Version: 6.00 Build 0)  -->
<svg version="1.1" id="Layer_1" xmlns="http://www.w3.org/2000/svg" xmlns:xlink="http://www.w3.org/1999/xlink" x="0px" y="0px"
	 viewBox="0 0 64 64" style="enable-background:new 0 0 64 64;" xml:space="preserve">
<style type="text/css">
	.st0{fill:#4E5468;}
	.st1{fill:#C8CAC9;}
</style>
<circle class="st0" cx="32" cy="32" r="28.9"/>
<g>
	<polygon class="st1" points="10.45,50.2 11.55,51.3 12.45,11.8 10.45,13.8 	"/>
	<polygon class="st1" points="51.55,11.8 52.45,51.3 53.55,50.2 53.55,13.8 	"/>
	<polygon class="st1" points="47.65,10.5 47.65,14.1 45.35,11.8 18.65,11.8 16.35,14.1 16.35,10.5 13.75,10.5 13.75,10.5 
		14.95,53.5 16.35,53.5 16.35,49.9 18.65,52.2 45.35,52.2 47.65,49.9 47.65,53.5 49.05,53.5 50.25,10.5 50.25,10.5 	"/>
</g>
<g>
	<path class="st0" d="M26.98,24.084c0.193-2.612,2.386-4.649,5.018-4.649s4.824,2.037,5.018,4.65v5.153h4.435V24.01l-0.004-0.137
		C41.138,18.898,36.988,15,31.998,15c-4.991,0-9.142,3.898-9.449,8.873l-0.001,5.364h4.431C26.98,29.238,26.98,24.084,26.98,24.084z
		"/>
	<path class="st0" d="M21.356,30.004V49h21.287V30.004H21.356z M34.402,45.101h-4.805l1.307-6.432
		c-0.837-0.408-1.418-1.259-1.418-2.252c0-1.388,1.126-2.513,2.513-2.513c1.388,0,2.513,1.126,2.513,2.513
		c0,0.993-0.582,1.845-1.418,2.252L34.402,45.101z"/>
</g>
</svg>
