<svg xmlns="http://www.w3.org/2000/svg" viewBox="0 0 64 64" enable-background="new 0 0 64 64"><style type="text/css">.st0{fill:#385E2F;} .st1{fill:#53A55D;}</style><circle class="st0" cx="32" cy="32" r="28.9"/><path class="st1" d="M7.5 21.279v20.636h48.947v-20.636h-48.947zm9.092 17.147h-5.603v-5.085h5.603v5.085zm0-8.573h-5.603v-5.085h5.603v5.085zm9.091 8.573h-5.603v-5.085h5.603v5.085zm0-8.573h-5.603v-5.085h5.603v5.085zm9.092 8.573h-5.603v-5.085h5.603v5.085zm0-8.573h-5.603v-5.085h5.603v5.085zm9.092 8.573h-5.603v-5.085h5.603v5.085zm0-8.573h-5.603v-5.085h5.603v5.085zm9.091 8.573h-5.603v-5.085h5.603v5.085zm0-8.573h-5.603v-5.085h5.603v5.085zM7.508 43.251v13.313h48.932v-13.313h-48.932zm9.087 9.825h-5.598v-5.065l1.271-1.271h3.057l1.271 1.271v5.065h-.001zm9.087 0h-5.598v-5.065l1.271-1.271h3.057l1.271 1.271-.001 5.065zm9.091 0h-5.598v-5.065l1.271-1.271h3.057l1.271 1.271-.001 5.065zm9.083 0h-5.598v-5.065l1.271-1.271h3.057l1.271 1.271-.001 5.065zm9.088 0h-5.598v-5.065l1.271-1.271h3.057l1.271 1.271-.001 5.065zM48.72 16.763l-16.858-11.327-16.858 11.327h-12.597l2.322 6.087h1.389v-2.781h51.838v2.781h1.315l2.322-6.087h-12.873zm-26.081 0l9.223-6.197 9.223 6.197h-18.446z"/></svg>