<?xml version="1.0" encoding="utf-8"?>
<!-- Generator: Adobe Illustrator 21.0.1, SVG Export Plug-In . SVG Version: 6.00 Build 0)  -->
<svg version="1.1" id="Layer_1" xmlns="http://www.w3.org/2000/svg" xmlns:xlink="http://www.w3.org/1999/xlink" x="0px" y="0px"
	 viewBox="0 0 64 64" style="enable-background:new 0 0 64 64;" xml:space="preserve">
<style type="text/css">
	.st0{fill:#555556;}
	.st1{fill:#C8CAC9;}
</style>
<g>
	<circle class="st0" cx="32" cy="32.8" r="28.9"/>
</g>
<rect x="10.1" y="10.1" class="st1" width="43.8" height="43.8"/>
<g>
	<path class="st0" d="M26.4,13.4l-8.3,6.9l-1.8,11.5h1l4.2-10.4h17.8v-9.2L26.4,13.4z M27.8,16.2c-0.5,0-0.9-0.4-0.9-0.9
		c0-0.5,0.4-0.9,0.9-0.9s0.9,0.4,0.9,0.9C28.8,15.8,28.3,16.2,27.8,16.2z"/>
	<path class="st0" d="M16.9,22.4c-0.3-0.7-0.4-1.4-0.4-2.1c0-3.3,2.7-6,6-6c0.4,0,0.9,0.1,1.3,0.2l2.1-1.7c-1-0.5-2.2-0.7-3.4-0.7
		c-4.6,0-8.2,3.7-8.2,8.2c0,2.1,0.8,4.1,2.2,5.5L16.9,22.4z"/>
	<path class="st0" d="M23.5,26.1c-0.3,0.1-0.7,0.1-1.1,0.1c-0.6,0-1.2-0.1-1.8-0.3L19.8,28c0.5,0.2,1,0.3,1.5,0.4
		C22,27.5,22.7,26.8,23.5,26.1z"/>
	<path class="st0" d="M33.5,38c5.4,0,10.3-0.4,14.3-1.2c-0.3-5-3.1-9.3-7.2-11.7L39.3,22H27.7l-1.3,3.1c-4.1,2.4-6.9,6.7-7.2,11.7
		C23.2,37.6,28.1,38,33.5,38z"/>
	<path class="st0" d="M33.5,39.8c-4.2,0-9.5-0.3-14.3-1.1C19.7,46.1,25.9,52,33.5,52s13.8-5.9,14.3-13.4
		C43,39.5,37.6,39.8,33.5,39.8z"/>
</g>
</svg>
