<svg version="1.1" id="Layer_1" xmlns="http://www.w3.org/2000/svg" x="0" y="0" viewBox="0 0 64 64" xml:space="preserve"><style type="text/css">.st1{fill:#c4bc2c}</style><circle cx="32" cy="32" r="28.9" fill="#93581c"/><path class="st1" d="M46.6 8.5l-13 3.7c4.6.1 8.5 2.5 10.3 6l10.5-3c-1.1-3.3-4.1-5.8-7.8-6.7zM51.5 54.3v-5.5l1.7-.8v-8.1l-1.5-1.5V33l-21.8-3.7v4.9l-1.7-.3v9.8l1.7.4v5z"/><path class="st1" d="M52.2 33.1v5l1.5 1.5v8.7l-1.6.8v5.3l4.4 1.1V33.9zM14.1 16.1c-3.7 1.4-6 5.8-6 10.1s2.3 8.7 6 10.1c5.1 1.9 10.8-2.3 10.8-10.1s-5.8-12-10.8-10.1zm0 17.2c-2.7-.7-4.5-3.8-4.5-7.1s1.8-6.4 4.5-7.1c3.3-.9 6.7 2.2 6.7 7.1s-3.4 8-6.7 7.1z"/><path class="st1" d="M25.2 23.5l18.2-5.1c-1.8-3.3-5.6-5.6-10.1-5.6-1.2 0-2.3.2-3.4.5L20.1 16c2.4 1.2 4.4 3.8 5.1 7.5zM25.3 24c.1.7.2 1.4.2 2.2 0 7.2-4.6 11.1-8.9 11.1-.9 0-1.8-.2-2.7-.5-.9-.3-1.6-.8-2.4-1.4v14.5L26 54.1v-6.8h.5v6.8l9.9-2.9-7.1-1.7v-5l-1.7-.4V33.2l1.7.3v-5l19-4.6.1 7.9 5.9 1v-17l-29 8.2zm20.2-.4c0 .2-.1.4-.3.4l-.4.1c-.2 0-.3-.1-.3-.3v-2.2c0-.2.1-.4.3-.4l.4-.1c.2 0 .3.1.3.3v2.2zm2-1.8c0 .2-.1.4-.3.4l-.9.2c-.2 0-.3-.1-.3-.3v-.9c0-.2.1-.4.3-.4l.9-.2c.2 0 .3.1.3.3v.9z"/><path class="st1" d="M18.2 30c-1.9 0-3.4-1.9-3.4-4.3s1.5-4.3 3.4-4.3c.2 0 .4 0 .6.1 0-.1-.1-.1-.1-.2-.9-1.2-2.2-1.8-3.5-1.8-.3 0-.7 0-1 .1-2.3.6-4.1 3.4-4.1 6.6s1.8 5.9 4.1 6.6c.3.1.7.1 1 .1 1.7 0 3.4-1.2 4.4-3.3-.4.2-.9.4-1.4.4z"/></svg>