<svg xmlns="http://www.w3.org/2000/svg" viewBox="0 0 64 64" enable-background="new 0 0 64 64"><style type="text/css">.st0{display:none;fill:#9CE4FA;} .st1{fill:#555556;} .st2{fill:#C8CAC9;}</style><path class="st0" d="M32 60.9l-25.606-14.45v-28.9l25.606-14.45 25.605 14.45v28.9l-25.605 14.45zm-21.606-16.707l21.606 12.192 21.605-12.192v-24.386l-21.605-12.192-21.606 12.192v24.386z"/><circle class="st1" cx="32" cy="33.25" r="28.9"/><path class="st2" d="M50.62 37.539c-.57-.824-2.93-3.846-4.523-4.921.066-1.612 3.607-18.401 3.607-18.401-8.181-10.44-27.503-10.806-35.41 0 0 0 3.541 16.789 3.607 18.401-1.593 1.075-3.953 4.097-4.523 4.921-.672.488-1.77.183-3.114-1.221.305 6.41 4.762 13.797 6.227 16.362 2.975.781 6.058 1.857 8.218 3.119.633 1.368 1.55 3.108 1.794 4.451h10.989c.244-1.343 1.161-3.083 1.794-4.451 2.161-1.262 5.244-2.338 8.218-3.119 1.465-2.564 5.922-9.951 6.227-16.362-1.34 1.404-2.439 1.71-3.111 1.221zm-29.645-23.568l3.655-3.307 7.444 8.228 7.528-7.997 3.589 3.378-7.8 8.285 7.633 8.438-3.655 3.307-7.367-8.144-7.604 8.078-3.589-3.378 7.876-8.366-7.71-8.522zm1.266 34.862c-1.526 0-8.913-3.266-8.673-9.005 2.964 0 13.129 3.175 16.334 3.114-.247 1.491-.977 2.961-1.893 3.999-.396.458-4.089 1.892-5.768 1.892zm13.056 6.248h-6.634c-.366-.427-1.018-.977-1.302-2.137.427-1.14 2.92-5.315 4.629-5.315 1.709 0 4.182 4.175 4.61 5.315-.286 1.16-.937 1.71-1.303 2.137zm6.38-6.248c-1.679 0-5.372-1.435-5.769-1.893-.916-1.038-1.646-2.508-1.892-3.999 3.205.061 13.37-3.114 16.334-3.114.24 5.74-7.147 9.006-8.673 9.006z"/></svg>