<?xml version="1.0" encoding="utf-8"?>
<!-- Generator: Adobe Illustrator 21.0.1, SVG Export Plug-In . SVG Version: 6.00 Build 0)  -->
<svg version="1.1" id="Layer_1" xmlns="http://www.w3.org/2000/svg" xmlns:xlink="http://www.w3.org/1999/xlink" x="0px" y="0px"
	 viewBox="0 0 64 64" style="enable-background:new 0 0 64 64;" xml:space="preserve">
<style type="text/css">
	.st0{fill:#385E2F;}
	.st1{fill:#53A55D;}
</style>
<circle class="st0" cx="32" cy="32" r="28.9"/>
<g>
	<path class="st1" d="M37.979,55h7.941V41.984h-7.941V55z M40.865,46.018h0.004c0-0.007-0.004-0.012-0.004-0.019
		c0-0.599,0.486-1.085,1.085-1.085c0.599,0,1.085,0.486,1.085,1.085c0,0.007-0.004,0.012-0.004,0.019h0.004v6.051h-2.169V46.018z"/>
	<path class="st1" d="M37.979,39.644h7.941V29.089h-7.941V39.644z M40.865,31.674h0.004c0-0.007-0.004-0.012-0.004-0.019
		c0-0.599,0.486-1.085,1.085-1.085c0.599,0,1.085,0.486,1.085,1.085c0,0.007-0.004,0.012-0.004,0.019h0.004v6.051h-2.169V31.674z"/>
	<path class="st1" d="M38.984,6.919l-1.005,0.874v19.089h7.941V7.793l-1.005-0.874H38.984z M43.034,10.615v10.402h-2.169V10.615
		h0.004c0-0.007-0.004-0.012-0.004-0.019c0-0.599,0.486-1.085,1.085-1.085c0.599,0,1.085,0.486,1.085,1.085
		c0,0.007-0.004,0.012-0.004,0.019H43.034z"/>
	<polygon class="st1" points="44.916,3 38.984,3 37.979,3.874 37.979,5.79 38.984,4.916 44.916,4.916 45.921,5.79 45.921,3.874 	"/>
	<path class="st1" d="M27.911,41.509h7.941V27.106h-7.941V41.509z M32.967,36.539v3.362h-2.169v-3.362h0.004
		c0-0.007-0.004-0.012-0.004-0.019c0-0.599,0.486-1.085,1.085-1.085s1.085,0.486,1.085,1.085c0,0.007-0.004,0.012-0.004,0.019
		H32.967z M31.882,28.166c1.393,0,2.522,1.129,2.522,2.522c0,1.393-1.129,2.522-2.522,2.522c-1.393,0-2.522-1.129-2.522-2.522
		C29.36,29.295,30.489,28.166,31.882,28.166z"/>
	<path class="st1" d="M27.911,55h1.449v-4.731c0-1.393,1.129-2.522,2.522-2.522c1.393,0,2.522,1.129,2.522,2.522V55h1.449V44.154
		h-7.941V55z"/>
	<polygon class="st1" points="31.882,15.945 27.911,22.435 27.911,24.642 35.853,24.642 35.853,22.435 	"/>
	<path class="st1" d="M17.843,55h7.941V41.984h-7.941V55z M20.729,46.018h0.004c0-0.007-0.004-0.012-0.004-0.019
		c0-0.599,0.486-1.085,1.085-1.085s1.085,0.486,1.085,1.085c0,0.007-0.004,0.012-0.004,0.019h0.004v6.051h-2.169V46.018z"/>
	<path class="st1" d="M17.843,39.644h7.941V29.089h-7.941V39.644z M20.729,31.674h0.004c0-0.007-0.004-0.012-0.004-0.019
		c0-0.599,0.486-1.085,1.085-1.085s1.085,0.486,1.085,1.085c0,0.007-0.004,0.012-0.004,0.019h0.004v6.051h-2.169V31.674z"/>
	<path class="st1" d="M17.843,26.882h7.941v-9.92h-7.941V26.882z M20.729,19.887h0.004c0-0.007-0.004-0.012-0.004-0.019
		c0-0.599,0.486-1.085,1.085-1.085s1.085,0.486,1.085,1.085c0,0.007-0.004,0.012-0.004,0.019h0.004v6.051h-2.169V19.887z"/>
	<path class="st1" d="M22.442,5.696h-1.255c-0.03,4.111-1.959,7.434-4.358,7.527v1.645H26.8v-1.645
		C24.401,13.131,22.471,9.808,22.442,5.696z"/>
	<path class="st1" d="M4.273,33.174v8.335h10.269l0.581-8.335H4.273z M8.802,35.596v4.101H6.809v-4.101h0.004
		c0-0.006-0.004-0.011-0.004-0.017c0-0.55,0.446-0.996,0.996-0.996s0.996,0.446,0.996,0.996c0,0.006-0.003,0.011-0.004,0.017H8.802z
		 M13.231,39.697h-1.993v-4.101h0.003c0-0.006-0.003-0.011-0.003-0.017c0-0.55,0.446-0.996,0.996-0.996s0.996,0.446,0.996,0.996
		c0,0.006-0.003,0.011-0.003,0.017h0.003V39.697z"/>
	<path class="st1" d="M4.273,44.135v8.335h9.505l0.581-8.335H4.273z M8.802,46.556v4.101H6.809v-4.101h0.004
		c0-0.006-0.004-0.011-0.004-0.017c0-0.55,0.446-0.996,0.996-0.996s0.996,0.446,0.996,0.996c0,0.006-0.003,0.011-0.004,0.017H8.802z
		 M13.231,50.657h-1.993v-4.101h0.003c0-0.006-0.003-0.011-0.003-0.017c0-0.55,0.446-0.996,0.996-0.996s0.996,0.446,0.996,0.996
		c0,0.006-0.003,0.011-0.003,0.017h0.003V50.657z"/>
	<polygon class="st1" points="6.328,25.867 4.552,30.992 15.274,30.992 15.631,25.867 	"/>
	<path class="st1" d="M51.766,34.582c0.55,0,0.996,0.446,0.996,0.996c0,0.006-0.003,0.011-0.003,0.017h0.003v4.101h-1.259
		l0.292,1.812h7.933v-8.335h-9.274l0.356,2.209C50.902,34.93,51.285,34.582,51.766,34.582z M55.198,35.596h0.004
		c0-0.006-0.004-0.011-0.004-0.017c0-0.55,0.446-0.996,0.996-0.996s0.996,0.446,0.996,0.996c0,0.006-0.003,0.011-0.004,0.017h0.004
		v4.101h-1.993V35.596z"/>
	<path class="st1" d="M52.762,46.539c0,0.006-0.003,0.011-0.003,0.017h0.003v0.961l0.797,4.952h6.168v-8.335h-7.51l0.28,1.74
		C52.658,46.052,52.762,46.281,52.762,46.539z M55.198,46.556h0.004c0-0.006-0.004-0.011-0.004-0.017
		c0-0.55,0.446-0.996,0.996-0.996s0.996,0.446,0.996,0.996c0,0.006-0.003,0.011-0.004,0.017h0.004v4.101h-1.993V46.556z"/>
	<polygon class="st1" points="59.448,30.992 57.672,25.867 49.277,25.867 50.102,30.992 	"/>
</g>
</svg>
