<?xml version="1.0" encoding="utf-8"?>
<!-- Generator: Adobe Illustrator 21.0.1, SVG Export Plug-In . SVG Version: 6.00 Build 0)  -->
<svg version="1.1" id="Layer_1" xmlns="http://www.w3.org/2000/svg" xmlns:xlink="http://www.w3.org/1999/xlink" x="0px" y="0px"
	 viewBox="0 0 64 64" style="enable-background:new 0 0 64 64;" xml:space="preserve">
<style type="text/css">
	.st0{fill:#3A508E;}
	.st1{fill:#C8CAC9;}
</style>
<g>
	<circle class="st0" cx="32" cy="32" r="28.9"/>
</g>
<rect x="10.1" y="10.1" class="st1" width="43.8" height="43.8"/>
<g>
	
		<rect x="28.1" y="24.5" transform="matrix(0.6354 -0.7722 0.7722 0.6354 -16.1471 34.6922)" class="st0" width="1.2" height="19.9"/>
	
		<rect x="25.9" y="27.2" transform="matrix(0.6354 -0.7722 0.7722 0.6354 -19.0188 33.9933)" class="st0" width="1.2" height="19.9"/>
	<rect x="27" y="25.9" transform="matrix(0.6354 -0.7722 0.7722 0.6354 -17.5934 34.3841)" class="st0" width="1.2" height="19.9"/>
	<path class="st0" d="M38.9,21.8c0.6,0.1,1.2,0.2,1.8,0.3c5.6,0.7,10.4-0.8,10.7-3.3c0.3-2.5-4-5.2-9.6-5.9
		c-5.1-0.6-9.6,0.5-10.6,2.6l0,0L25,23.3l15.4,12.6l6.3-7.7L38.9,21.8z"/>
	
		<rect x="31.4" y="20.5" transform="matrix(0.6354 -0.7722 0.7722 0.6354 -11.8501 35.7819)" class="st0" width="1.2" height="19.9"/>
	<path class="st0" d="M12.7,39.3L27.1,51c0.3,0.2,0.7,0.2,0.9-0.1l5.4-6.6L18.1,31.7l-5.4,6.6C12.4,38.6,12.5,39,12.7,39.3z"/>
	
		<rect x="30.3" y="21.9" transform="matrix(0.6354 -0.7722 0.7722 0.6354 -13.2964 35.4738)" class="st0" width="1.2" height="19.9"/>
	
		<rect x="29.2" y="23.2" transform="matrix(0.6354 -0.7722 0.7722 0.6354 -14.7218 35.083)" class="st0" width="1.2" height="19.9"/>
</g>
</svg>
