<svg xmlns="http://www.w3.org/2000/svg" viewBox="0 0 64 64" enable-background="new 0 0 64 64"><style type="text/css">.st0{fill:#555556;} .st1{fill:#C8CAC9;}</style><circle class="st0" cx="32" cy="32" r="28.9"/><path class="st1" d="M10.1 10.1h43.8v43.8h-43.8z"/><path class="st0" d="M14.286 37.963l.005-1 16.1.085-.005 1zM14.231 40.795l.005-1 16.1.085-.005 1zM14.296 39.389l.005-1 16.1.085-.005 1zM22.2 24.4l1.3-.7c3.9-2.4 6.1-5.8 5-7.6-1.1-1.7-5.2-1.2-9.1 1.2-3.5 2.2-5.8 5.2-5.3 7.1l.1 8.1h16.1v-8.1h-8.1zM14.207 33.823l.005-1 16.1.085-.005 1zM14.7 48.8h15.1c.3 0 .5-.2.5-.5v-6.9l-16.1-.1v6.9c0 .3.2.5.5.6zM14.316 35.15l.005-1 16.1.085-.005 1zM14.251 36.656l.005-1 16.1.085-.005 1zM48.5 27.2c-.3-.2-.5-.6-.3-1l.4-.6c.1-.2.1-.4.1-.6v-.5c0-.2-.2-.3-.3-.3h-5.7v-.2c0-.8.1-1.6.3-2.2.1-.2.1-.4.2-.5v-.4c0-1.2-1-2.2-2.2-2.1-1.2 0-2.2 1-2.1 2.2v.30000000000000004c.1.2.2.5.2.7.2.6.2 1.3.3 2.1v.2h-2.3c-.2 0-.3.1-.3.3v.5c0 .2 0 .4.2.6l.3.6c.2.4.1.9-.3 1-.8.4-1.4 1.2-1.3 2.2l.1 7v7.2c0 1 .6 1.7 1.4 2.2.3.2.5.6.3 1l-.4.6c-.1.2-.1.4-.1.6v.6c0 .2.1.3.3.3s11.3-.1 11.4-.1c.1 0 .3-.2.3-.3v-.5c0-.2 0-.4-.2-.6l-.3-.6c-.2-.4-.1-.9.3-1 .8-.4 1.4-1.2 1.3-2.2v-14.4c-.2-.9-.7-1.8-1.6-2.1zm-7.5-7.5c.5 0 1 .5 1 1s-.5 1-1 1-1-.5-1-1 .5-1 1-1z"/></svg>