<svg xmlns="http://www.w3.org/2000/svg" viewBox="0 0 64 64" enable-background="new 0 0 64 64"><style type="text/css">.st0{fill:#3A508E;} .st1{fill:#C8CAC9;}</style><circle class="st0" cx="32" cy="32" r="28.9"/><path class="st1" d="M10.1 10.1h43.8v43.8h-43.8z"/><path class="st0" d="M20.656 28.573l.762-.927 15.367 12.644-.762.927zM18.45 31.291l.762-.927 15.367 12.644-.762.927zM19.545 30.012l.762-.927 15.367 12.644-.762.927zM38.9 21.8l1.8.3c5.6.7 10.4-.8 10.7-3.3.3-2.5-4-5.2-9.6-5.9-5.1-.6-9.6.5-10.6 2.6l-6.2 7.8 15.4 12.6 6.3-7.7-7.8-6.4zM23.958 24.577l.762-.927 15.367 12.644-.762.927zM12.7 39.3l14.4 11.7c.3.2.7.2.9-.1l5.4-6.6-15.3-12.6-5.4 6.6c-.3.3-.2.7 0 1zM22.847 26.016l.762-.927 15.367 12.644-.762.927zM21.752 27.295l.762-.927 15.367 12.644-.762.927z"/></svg>