<?xml version="1.0" encoding="utf-8"?>
<!-- Generator: Adobe Illustrator 21.0.1, SVG Export Plug-In . SVG Version: 6.00 Build 0)  -->
<svg version="1.1" id="Layer_1" xmlns="http://www.w3.org/2000/svg" xmlns:xlink="http://www.w3.org/1999/xlink" x="0px" y="0px"
	 viewBox="0 0 64 64" style="enable-background:new 0 0 64 64;" xml:space="preserve">
<style type="text/css">
	.st0{fill:#4E5468;}
	.st1{fill:#C7CBD7;}
</style>
<g>
	<g>
		<g>
			<g>
				<circle class="st0" cx="32" cy="32" r="28.9"/>
			</g>
		</g>
	</g>
</g>
<g>
	<path class="st1" d="M34.89,29.68h-5.78c-3.54,0-6.42,2.88-6.42,6.42v10.86c0,3.54,2.88,6.42,6.42,6.42h5.78
		c3.54,0,6.42-2.88,6.42-6.42V36.1C41.31,32.56,38.43,29.68,34.89,29.68z M38.99,46.08c0,2.63-2.13,4.76-4.76,4.76h-4.45
		c-2.63,0-4.76-2.13-4.76-4.76v-9.11c0-2.63,2.13-4.76,4.76-4.76h4.45c2.63,0,4.76,2.13,4.76,4.76V46.08z"/>
	<path class="st1" d="M41.96,27.93c-2.85-0.84-4.01-1.88-5.11-3.3V22.3c0.99-0.99,1.52-3.46,1.52-11.65c0-1.63-2.75-4.71-6.37-4.65
		c-3.62-0.06-6.37,3.01-6.37,4.65c0,8.19,0.53,10.67,1.52,11.65v2.33c-1.1,1.42-2.26,2.46-5.11,3.3c-2.41,0.71-7.37,6.66-7.37,11.25
		l3.04,5.17c0,2.55,2.52,8.8,2.52,11.64h23.54c0-2.85,2.52-9.09,2.52-11.64l3.04-5.17C49.33,34.59,44.37,28.64,41.96,27.93z
		 M42.96,46.96c0,4.46-3.61,8.07-8.07,8.07h-5.78c-4.46,0-8.07-3.61-8.07-8.07V36.1c0-4.46,3.61-8.07,8.07-8.07h5.78
		c4.46,0,8.07,3.61,8.07,8.07V46.96z"/>
	<path class="st1" d="M34.23,33.46h-4.45c-1.94,0-3.52,1.58-3.52,3.52v9.11c0,1.94,1.58,3.52,3.52,3.52h4.45
		c1.94,0,3.52-1.58,3.52-3.52v-9.11C37.74,35.03,36.17,33.46,34.23,33.46z M34.44,43l-0.97,0.97L32,42.5l-1.47,1.47L29.56,43
		l1.47-1.47l-1.47-1.47l0.97-0.97L32,40.56l1.47-1.47l0.97,0.97l-1.47,1.47L34.44,43z"/>
</g>
</svg>
