<?xml version="1.0" encoding="utf-8"?>
<!-- Generator: Adobe Illustrator 21.0.1, SVG Export Plug-In . SVG Version: 6.00 Build 0)  -->
<svg version="1.1" id="Layer_1" xmlns="http://www.w3.org/2000/svg" xmlns:xlink="http://www.w3.org/1999/xlink" x="0px" y="0px"
	 viewBox="0 0 64 64" style="enable-background:new 0 0 64 64;" xml:space="preserve">
<style type="text/css">
	.st0{fill:#93581C;}
	.st1{fill:#C8CAC9;}
</style>
<g>
	<circle class="st0" cx="32" cy="32" r="28.9"/>
</g>
<rect x="10.1" y="10.1" class="st1" width="43.8" height="43.8"/>
<g>
	<g>
		<path class="st0" d="M38.3,33.1H25.7c-0.5,0-0.9,0.4-0.9,0.9v9.9c0,0.5,0.4,0.9,0.9,0.9h12.6c0.5,0,0.9-0.4,0.9-0.9V34
			C39.2,33.5,38.8,33.1,38.3,33.1z"/>
		<path class="st0" d="M23.1,18.8l-2.4-4.1c-0.1-0.1,0-0.2,0.1-0.2l2.4-1.4c0.1-0.1,0.2,0,0.2,0.1l2.4,4.1c0.1,0.1,0,0.2-0.1,0.2
			l-2.4,1.4C23.2,19,23.1,18.9,23.1,18.8z"/>
		<path class="st0" d="M41.1,18.8l2.4-4.1c0.1-0.1,0-0.2-0.1-0.2L41,13c-0.1-0.1-0.2,0-0.2,0.1l-2.4,4.1c-0.1,0.1,0,0.2,0.1,0.2
			l2.4,1.4C40.9,19,41.1,18.9,41.1,18.8z"/>
	</g>
	<g>
		<path class="st0" d="M44.6,39.5c0-0.4,0-0.8,0-1.2h-3.8c-0.1,0-0.1,0-0.1,0v1.2c0.1,0,0.1,0,0.1,0H44.6z"/>
		<path class="st0" d="M23.3,39.5v-1.2c-0.1,0-0.1,0-0.1,0h-3.8c0,0.4,0,0.8,0,1.2h3.7C23.2,39.5,23.2,39.5,23.3,39.5z"/>
		<path class="st0" d="M40.9,44.4C40.8,44.4,40.8,44.4,40.9,44.4l-0.1,0.7c0,0.5-0.4,0.9-0.9,0.9H24.1c-0.5,0-0.9-0.4-0.9-0.9v-0.7
			c-0.1,0-0.1,0-0.1,0h-3.6c0.2,2.7,0.3,4.7,0.3,4.7c0,1,0.8,1.8,1.8,1.8h9.5h1.5h9.5c1,0,1.8-0.8,1.8-1.8c0,0,0.2-2,0.3-4.7H40.9z"
			/>
		<path class="st0" d="M19.9,30.9c-0.2,0.3-0.4,1.2-0.5,2.4h3.7c0.1,0,0.1,0,0.1,0v-0.7c0-0.5,0.4-0.9,0.9-0.9h15.7
			c0.5,0,0.9,0.4,0.9,0.9v0.7c0.1,0,0.1,0,0.1,0h3.7c-0.1-1.2-0.2-2.2-0.5-2.5c-4.1-5.3,0.6-11.6,0.6-13.3c0-0.5-0.3-1.2-0.9-1.9
			l-2.3,4c-0.1,0.2-0.3,0.2-0.5,0.1l-3.3-1.9c-0.2-0.1-0.2-0.3-0.1-0.5l2.2-3.9c-0.8-0.1-1.7-0.1-2.7,0.2c-0.4,0.1-0.7,0.5-0.7,0.9
			c-0.2,2.7-2.3,3.8-4.4,3.8c-2.2,0-4.1-1.1-4.4-3.7c0-0.4-0.2-0.8-0.7-0.9c-0.9-0.2-1.7-0.3-2.5-0.2l2.2,3.9c0.1,0.2,0,0.3-0.1,0.5
			l-3.3,1.9c-0.2,0.1-0.3,0-0.5-0.1l-2.4-4.1c-0.7,0.7-1,1.6-1,2.1C19.3,19.4,24,25.7,19.9,30.9z M26.8,29.1h10.4
			c0.4,0,0.7,0.3,0.7,0.7s-0.3,0.7-0.7,0.7H26.8c-0.4,0-0.7-0.3-0.7-0.7C26,29.4,26.4,29.1,26.8,29.1z"/>
	</g>
	<g>
		<path class="st0" d="M23.3,37.9h-5.4c-0.2,0-0.4-0.2-0.4-0.4v-3.3c0-0.2,0.2-0.4,0.4-0.4h5.4c0.2,0,0.4,0.2,0.4,0.4v3.3
			C23.7,37.7,23.5,37.9,23.3,37.9z"/>
		<path class="st0" d="M23.3,44h-5.4c-0.2,0-0.4-0.2-0.4-0.4v-3.3c0-0.2,0.2-0.4,0.4-0.4h5.4c0.2,0,0.4,0.2,0.4,0.4v3.3
			C23.7,43.8,23.5,44,23.3,44z"/>
		<path class="st0" d="M46.1,38h-5.4c-0.2,0-0.4-0.2-0.4-0.4v-3.3c0-0.2,0.2-0.4,0.4-0.4h5.4c0.2,0,0.4,0.2,0.4,0.4v3.3
			C46.5,37.7,46.3,38,46.1,38z"/>
		<path class="st0" d="M46.1,44h-5.4c-0.2,0-0.4-0.2-0.4-0.4v-3.3c0-0.2,0.2-0.4,0.4-0.4h5.4c0.2,0,0.4,0.2,0.4,0.4v3.3
			C46.5,43.8,46.3,44,46.1,44z"/>
	</g>
</g>
</svg>
