<?xml version="1.0" encoding="utf-8"?>
<!-- Generator: Adobe Illustrator 21.0.1, SVG Export Plug-In . SVG Version: 6.00 Build 0)  -->
<svg version="1.1" id="Layer_1" xmlns="http://www.w3.org/2000/svg" xmlns:xlink="http://www.w3.org/1999/xlink" x="0px" y="0px"
	 viewBox="0 0 64 64" style="enable-background:new 0 0 64 64;" xml:space="preserve">
<style type="text/css">
	.st0{fill:#3A508E;}
	.st1{fill:#C8CAC9;}
</style>
<g>
	<circle class="st0" cx="32" cy="32" r="28.9"/>
</g>
<g>
	<polygon class="st1" points="10.45,50.2 11.55,51.3 12.45,11.8 10.45,13.8 	"/>
	<polygon class="st1" points="51.55,11.8 52.45,51.3 53.55,50.2 53.55,13.8 	"/>
	<polygon class="st1" points="47.65,10.5 47.65,14.1 45.35,11.8 31.95,11.8 18.65,11.8 16.35,14.1 16.35,10.5 13.75,10.5 
		13.75,10.5 14.95,53.5 16.35,53.5 16.35,49.9 18.65,52.2 31.95,52.2 45.35,52.2 47.65,49.9 47.65,53.5 49.05,53.5 50.25,10.5 
		50.25,10.5 	"/>
</g>
<g>
	<polygon class="st0" points="44,23.76 39.33,28.43 35.71,24.81 40.38,20.14 36.74,16.5 32.07,21.17 27.56,16.66 23.92,20.3 
		35.69,32.07 31.81,35.95 28.19,32.33 29.64,30.88 26.36,26.88 24.55,28.69 20.04,24.18 16.4,27.82 28.17,39.59 23.9,43.86 
		27.54,47.5 47.64,27.4 	"/>
	<polygon class="st0" points="33.68,45.1 35.79,47.21 39.44,43.57 38.02,42.16 	"/>
	<polygon class="st0" points="41.35,37.73 43.5,39.88 47.14,36.24 45.73,34.82 	"/>
	<polygon class="st0" points="16.36,36.88 20,40.52 21.8,38.72 18.85,34.39 	"/>
</g>
</svg>
