<?xml version="1.0" encoding="utf-8"?>
<!-- Generator: Adobe Illustrator 21.0.1, SVG Export Plug-In . SVG Version: 6.00 Build 0)  -->
<svg version="1.1" id="Layer_1" xmlns="http://www.w3.org/2000/svg" xmlns:xlink="http://www.w3.org/1999/xlink" x="0px" y="0px"
	 viewBox="0 0 64 64" style="enable-background:new 0 0 64 64;" xml:space="preserve">
<style type="text/css">
	.st0{fill:#A03C3C;}
	.st1{fill:#C8CAC9;}
</style>
<g>
	<circle class="st0" cx="32" cy="32" r="28.9"/>
</g>
<g>
	<polygon class="st1" points="10.45,50.2 11.55,51.3 12.45,11.8 10.45,13.8 	"/>
	<polygon class="st1" points="51.55,11.8 52.45,51.3 53.55,50.2 53.55,13.8 	"/>
	<polygon class="st1" points="47.65,10.5 47.65,14.1 45.35,11.8 18.65,11.8 16.35,14.1 16.35,10.5 13.75,10.5 13.75,10.5 
		14.95,53.5 16.35,53.5 16.35,49.9 18.65,52.2 45.35,52.2 47.65,49.9 47.65,53.5 49.05,53.5 50.25,10.5 50.25,10.5 	"/>
</g>
<g>
	<path class="st0" d="M28.91,48.74h-5.58c-0.16,0-0.29,0.13-0.29,0.29v0.69c0,0.16,0.13,0.29,0.29,0.29h5.58
		c0.16,0,0.29-0.13,0.29-0.29v-0.69C29.2,48.86,29.07,48.74,28.91,48.74z"/>
	<path class="st0" d="M29.2,33.01c0-1.89-0.57-3.62-0.57-7.04h-5c0,3.43-0.57,5.15-0.57,7.04v14.21c0,0.38,0.3,0.68,0.68,0.68h4.77
		c0.38,0,0.68-0.3,0.68-0.68L29.2,33.01L29.2,33.01z"/>
	<path class="st0" d="M23.63,25.37h5v-3.83c0-1.53-1.41-7.53-2.5-7.53c-1.08,0-2.5,6-2.5,7.53L23.63,25.37L23.63,25.37z"/>
	<path class="st0" d="M37.55,26.76c-1.38,0.43-2.48,1.04-3.49,2.43c-1.06-1.93-0.72-4.18,0-5.75c-1.33,0.31-2.86,1.25-3.73,3.03
		c0-0.91,0.09-1.88,0.45-2.28c2.34-2.55,5.35-3.75,8.77-4.31c-1.51,1.74-1.6,3.25-1.52,4.59c1.85-0.55,3.47-0.78,5.46-0.39
		c-2.29,1.49-2.85,3.1-3.38,4.79c-0.55,1.73-0.26,4.01,0.94,5.58c0.61-1.14,1.97-2.22,3.9-1.97c-1.07,0.67-1.58,1.34-1.97,1.99
		c-0.61,1.03-0.73,2.12-0.39,3.62c1.29,5.7-1.24,9.13-7.11,9.93c-1.28,0.18-2.74,0-4.07,0l0-3.79c1.27-0.54,2.73-1.76,3.84-3.36
		c-0.19,1.81-0.51,3.09-1.25,4.07c3.18,0.08,5.5-1.4,5.73-4.35c0.14-1.77-0.55-3.27-1.32-4.76C37.07,33.18,36.34,30.48,37.55,26.76z
		"/>
</g>
</svg>
