<svg version="1.1" id="Layer_1" xmlns="http://www.w3.org/2000/svg" x="0" y="0" viewBox="0 0 64 64" xml:space="preserve"><style type="text/css">.st0{fill:#c8cac9}</style><path class="st0" d="M31.948 60.9L6.986 46.488l.052-28.895L32.036 3.1l24.962 14.412-.054 28.894L31.948 60.9zM12.365 43.389L31.942 54.69l19.634-11.383.041-22.696L32.042 9.309 12.407 20.692l-.042 22.697z"/><path fill="#207e70" d="M54.308 19.061l-.047 25.796-22.316 12.938L9.676 44.938l.046-25.795L32.039 6.204z"/><g><path class="st0" d="M30.688 32.856c-.139.418-.294.905-.46 1.482-.168.581-.245 1.458-.279 2.126a5.84 5.84 0 0 1 2.38 4.705 5.855 5.855 0 1 1-11.71 0 5.85 5.85 0 0 1 5.728-5.848c.064-.661.169-1.383.349-2.005.159-.55.306-1.022.443-1.443l-.629-1.141c-.459-.839-1.407-1.32-2.345-1.133a11.7 11.7 0 0 0-1.426.387 2.32 2.32 0 0 0-4.237 1.317c0 .351.084.681.224.979-.265.232-.523.47-.766.724-.659.687-.76 1.74-.303 2.575l.619 1.132.004-.001a9.272 9.272 0 0 0-1.136 4.457c0 5.144 4.186 9.33 9.33 9.33s9.33-4.186 9.33-9.33c.001-3.628-2.085-6.77-5.116-8.313zm-10.596-1.553a.735.735 0 1 1 1.47-.001.735.735 0 0 1-1.47.001zM31.995 15.313c.31.313.676.671 1.115 1.079.442.412 1.189.877 1.772 1.209a5.838 5.838 0 0 1 5.272 0 5.854 5.854 0 0 1-5.287 10.447 5.85 5.85 0 0 1-2.632-7.751c-.561-.355-1.157-.776-1.632-1.217a47.65 47.65 0 0 1-1.088-1.047l-1.302.047c-.956.031-1.813.66-2.07 1.581-.133.479-.227.962-.298 1.447a2.32 2.32 0 0 0 .239 4.618c.086.34.184.68.3 1.011.316.898 1.209 1.464 2.161 1.433l1.29-.042v-.004a9.286 9.286 0 0 0 3.464 3.027c4.59 2.324 10.214.479 12.538-4.112 2.324-4.59.479-10.214-4.112-12.538-3.239-1.637-6.986-1.196-9.73.812zm-6.17 8.753a.735.735 0 1 1 .664-1.313.735.735 0 0 1-.664 1.313z"/><path class="st0" d="M19.937 30.095c-.187 0-.375-.028-.559-.086a1.855 1.855 0 0 1-1.099-.916 1.845 1.845 0 0 1-.129-1.424l.511-1.639a1.87 1.87 0 0 1 3.571 1.112l-.511 1.638a1.857 1.857 0 0 1-.918 1.099 1.837 1.837 0 0 1-.866.216zm.511-4.188a.678.678 0 0 0-.647.476l-.511 1.639a.67.67 0 0 0 .047.517c.084.16.224.279.398.332a.67.67 0 0 0 .517-.047.672.672 0 0 0 .332-.398l.511-1.638a.67.67 0 0 0-.047-.517.672.672 0 0 0-.6-.364z"/><path class="st0" d="M21.469 25.948a1.87 1.87 0 0 1-.876-3.524l1.518-.802a1.849 1.849 0 0 1 1.424-.133 1.85 1.85 0 0 1 1.101.913c.233.442.281.947.134 1.424a1.864 1.864 0 0 1-.914 1.103l-1.518.802a1.852 1.852 0 0 1-.869.217zm1.513-3.35a.67.67 0 0 0-.316.079l-1.518.802a.68.68 0 0 0-.284.917.676.676 0 0 0 .916.282l1.518-.802a.68.68 0 0 0-.316-1.278z"/></g></svg>