<svg xmlns="http://www.w3.org/2000/svg" viewBox="0 0 64 64" enable-background="new 0 0 64 64"><style type="text/css">.st0{fill:#555556;} .st1{fill:#C8CAC9;}</style><circle class="st0" cx="32" cy="32" r="28.9"/><path class="st1" d="M10.1 10.1h43.8v43.8h-43.8z"/><path class="st0" d="M25.7 28.3c-.2-1.1-1.6-7-3.1-9.7-.6.7-1.1 1.6-1.6 2.6-1.2 2.6-.4 7.4.2 9.1 1-.5 2.9-1.5 4.5-2zM23 18.3c1.8 2.8 3 9 3.2 9.9 2.1-.4 7.6-.4 9.5.2.1 0 .1 0 .2.1.2-1.3 1.4-7.1 3.2-9.8l.3-.5c-.8-.6-2-1.3-2.5-1.7-.2-.1-.3-.2-.5-.2-2.9-.2-9.4 0-11 .5-.8.2-1.6.7-2.4 1.5zm8.1.5c1.5 0 2.5 1.1 2.5 1.1l-.3.3s-.9-1-2.2-.9c-1.3 0-2.3 1.1-2.3 1.1l-.3-.2c0-.1 1.1-1.4 2.6-1.4zM20.2 46c-.5-2.4-.5-8.3-.1-12-.9 0-1.8.2-2.6.4-2 .6-1.1 2-2 3.6s-1.2 7.9-.9 9.1c.2 1.2 1.2 2 2.8 2 1 0 2.3-.2 3.5-.6-.2-.6-.5-1.4-.7-2.5zM39.8 18.6l-.3.5c-1.5 2.6-2.8 8.4-3.1 9.6 2 .8 5 2.3 6 3.2.2-.1.3-.2.3-.2.4-.6.2-4 .2-5.4s-.9-5-1.3-6.1l-.1-.2c-.4-.4-1-.9-1.7-1.4zM26.6 47.2c.1-.1.1-.2.1-.3l.2-12.8c0-.2 0-.2-.1-.4l-3-4.1c-.9.3-1.7.7-2.1 1-.2.2-.3.6-.5.7-.2.2-.2 1-.4 2v.1c-.1.8-.8 8.6.1 12.4.3 1.2.6 2 .7 2.5.6.8 1.3 1.5 2 1.7.1.1.4.1.7.2l2.3-3zM43.1 46.2v-.2c.2-2.3-.3-6.3-.4-6.5-.2-2.8-.4-5.7-.6-7.6-.6-.6-1.7-1.3-2.8-1.7l-2.5 3.7c-.1.2-.2.2-.2.4l.2 12.7c0 .2.1.2.2.4l2.3 3.1c1.3-.1 2.1-.2 2.2-.2.7-.5 1.3-1.7 1.7-3.2-.1-.3-.1-.6-.1-.9zM48.3 23.6c-.2-2-2.4-7.9-3.4-8.7s-3.4-1.7-5.9-1.2c-1.4.2-2 1.2-2.4 2.1.1.1.2.1.2.2.6.3 2.6 1.7 2.8 1.9.5.4 1.1.9 1.5 1.2.2-.2.6-.9.9-1.6.4-.8.7-1.4.9-1.7.2-.2.7-1.1.7-1.1l.4.2s-.7.9-.8 1.1-.7 1.3-.9 1.7c-.1.2-.2.4-.4.7.4.3 1.3 1.2 1.4 1.7.2.6 1.2 4.3 1.2 5.2s.5 3 .6 4.7c.2 1.7.2 4.3-.2 5.7-.2 1.4-.7 3.2-2 3.9.2-.1.1-.1.1-.1.3 1.5.4 4.6.4 6.5.6-.2 1.3-.3 1.7-.5 1.1-.4 2-2.9 2.9-4.8.9-2 1.3-5.6 1.4-7.4.2-1.7-.9-7.6-1.1-9.7zM36.3 47.6c-.1-.2-.2-.2-.2-.4l-.2-13.1c0-.2.1-.3.2-.4l2.7-3.5c-1.3-.6-2.4-.9-3.2-1.3-1.6-.6-7.6-.5-9.4-.1-.6.1-1.3.3-1.9.6l2.9 3.9c.2.2.2.4.2.7l-.2 12.9c0 .2-.1.2-.2.4l-2.4 3c2.9.2 9.8.3 13.8.2l-2.1-2.9z"/></svg>