<?xml version="1.0" encoding="utf-8"?>
<!-- Generator: Adobe Illustrator 21.0.1, SVG Export Plug-In . SVG Version: 6.00 Build 0)  -->
<svg version="1.1" id="Layer_1" xmlns="http://www.w3.org/2000/svg" xmlns:xlink="http://www.w3.org/1999/xlink" x="0px" y="0px"
	 viewBox="0 0 64 64" style="enable-background:new 0 0 64 64;" xml:space="preserve">
<style type="text/css">
	.st0{fill:#C8CAC9;}
	.st1{fill:#207E70;}
</style>
<g>
	<path class="st0" d="M31.948,60.9L6.986,46.488l0.052-28.895L32.036,3.1l24.962,14.412l-0.054,28.894L31.948,60.9z M12.365,43.389
		L31.942,54.69l19.634-11.383l0.041-22.696L32.042,9.309L12.407,20.692L12.365,43.389z"/>
	<polygon class="st1" points="54.308,19.061 54.261,44.857 31.945,57.795 9.676,44.938 9.722,19.143 32.039,6.204 	"/>
</g>
<g>
	<path class="st0" d="M36.1,17.335c4.177,0,7.575,3.398,7.575,7.575v14.178c0,4.177-3.398,7.575-7.575,7.575H27.9
		c-4.177,0-7.575-3.398-7.575-7.575V24.911c0-4.177,3.398-7.575,7.575-7.575H36.1 M36.1,13.999H27.9
		c-6.026,0-10.911,4.885-10.911,10.911v14.178C16.988,45.114,21.874,50,27.9,50H36.1c6.026,0,10.911-4.885,10.911-10.911V24.911
		C47.012,18.885,42.126,13.999,36.1,13.999L36.1,13.999z"/>
	<path class="st0" d="M36.1,21.783c1.724,0,3.127,1.403,3.127,3.127v14.178c0,1.724-1.403,3.127-3.127,3.127H27.9
		c-1.724,0-3.127-1.403-3.127-3.127V24.911c0-1.724,1.403-3.127,3.127-3.127H36.1 M36.1,19.226H27.9
		c-3.135,0-5.685,2.55-5.685,5.685v14.178c0,3.135,2.55,5.685,5.685,5.685H36.1c3.135,0,5.685-2.55,5.685-5.685V24.911
		C41.785,21.776,39.235,19.226,36.1,19.226L36.1,19.226z"/>
	<path class="st0" d="M34.917,23.428h-5.834c-1.722,0-3.118,1.396-3.118,3.118v11c0,1.722,1.396,3.117,3.118,3.117h5.834
		c1.722,0,3.118-1.396,3.118-3.117v-11C38.035,24.824,36.639,23.428,34.917,23.428z M34.944,33.626l-1.208,1.208l-1.625-1.625
		l-1.625,1.625l-1.208-1.208l1.625-1.625l-1.625-1.625l1.208-1.208l1.625,1.625l1.625-1.625l1.208,1.208l-1.625,1.625L34.944,33.626
		z"/>
</g>
</svg>
