<svg xmlns="http://www.w3.org/2000/svg" viewBox="0 0 64 64" enable-background="new 0 0 64 64"><style type="text/css">.st0{display:none;fill:#9CE4FA;} .st1{fill:#555556;} .st2{fill:#C8CAC9;}</style><path class="st0" d="M32 60.9l-25.606-14.45v-28.9l25.606-14.45 25.605 14.45v28.9l-25.605 14.45zm-21.606-16.707l21.606 12.192 21.605-12.192v-24.386l-21.605-12.192-21.606 12.192v24.386z"/><circle class="st1" cx="32" cy="33.25" r="28.9"/><path class="st2" d="M55.939 12.399c-1.504-2.489-7.532-4.013-17.915-4.53-.074-.004-4.768-.119-6.024-.119-1.338 0-5.95.115-6.024.119-10.384.517-16.411 2.041-17.915 4.53-1.946 3.218.1 18.503 1.688 20.424 1.96 2.37 7.118 5.099 13.658 8.421l1.098.558c1.863.95 2.612 3.323 1.469 5.074-.094.144-.178.285-.25.423-1.684 3.238-3.52 8.636-3.597 8.865l-.875 2.586h21.498l-.875-2.586c-.078-.228-1.913-5.627-3.597-8.865-.072-.138-.156-.28-.25-.423-1.144-1.751-.394-4.125 1.469-5.074l1.098-.558c6.54-3.322 11.698-6.052 13.658-8.421 1.586-1.922 3.632-17.206 1.686-20.424zm-43.094 18.022c-.896-1.983-2.357-14.055-1.42-16.023.517-.607 2.676-1.08 6.221-1.616-.054 3.901-.072 14.902.136 16.501.201 1.546.771 3.687 1.225 5.249-2.723-1.499-5.187-3.012-6.162-4.111zm26.903-3.368h-5.219v5.219h-4.975v-5.219h-5.219v-4.975h5.219v-5.219h4.975v5.219h5.219v4.975zm11.407 3.368c-.975 1.099-3.439 2.613-6.162 4.11.454-1.562 1.024-3.703 1.225-5.249.208-1.599.19-12.6.136-16.501 3.545.536 5.704 1.01 6.221 1.616.937 1.968-.524 14.04-1.42 16.024z"/></svg>