<?xml version="1.0" encoding="utf-8"?>
<!-- Generator: Adobe Illustrator 21.0.1, SVG Export Plug-In . SVG Version: 6.00 Build 0)  -->
<svg version="1.1" id="Layer_1" xmlns="http://www.w3.org/2000/svg" xmlns:xlink="http://www.w3.org/1999/xlink" x="0px" y="0px"
	 viewBox="0 0 64 64" style="enable-background:new 0 0 64 64;" xml:space="preserve">
<style type="text/css">
	.st0{fill:#3A508E;}
	.st1{fill:#C8CAC9;}
</style>
<g>
	<circle class="st0" cx="32" cy="32" r="28.9"/>
</g>
<g>
	<polygon class="st1" points="10.45,50.2 11.55,51.3 12.45,11.8 10.45,13.8 	"/>
	<polygon class="st1" points="51.55,11.8 52.45,51.3 53.55,50.2 53.55,13.8 	"/>
	<polygon class="st1" points="47.65,10.5 47.65,14.1 45.35,11.8 31.95,11.8 18.65,11.8 16.35,14.1 16.35,10.5 13.75,10.5 
		13.75,10.5 14.95,53.5 16.35,53.5 16.35,49.9 18.65,52.2 31.95,52.2 45.35,52.2 47.65,49.9 47.65,53.5 49.05,53.5 50.25,10.5 
		50.25,10.5 	"/>
</g>
<path class="st0" d="M39.92,22.39H24.08l-7.58,7.45v6.46l1.39,1.35l1.39-1.35V35.1L20,34.46v5.81l1.39,1.35l1.39-1.35v-4.06
	l2.24-2.02h0.02v6.08l1.39,1.35l1.39-1.35v-4.06l2.24-2.02h0.02v6.08l1.39,1.35l1.39-1.35v-4.06l2.24-2.02h0.02v6.08l1.39,1.35
	l1.39-1.35v-4.06l2.24-2.02h0.02v6.08l1.39,1.35l1.39-1.35v-4.06l2.24-2.02h0.02v3.84l2.27-2.04v-6.15L39.92,22.39z M28.07,24.95
	c-1.51,0-2.74-0.34-2.74-0.76s1.23-0.76,2.74-0.76s2.74,0.34,2.74,0.76S29.59,24.95,28.07,24.95z"/>
</svg>
