<?xml version="1.0" encoding="utf-8"?>
<!-- Generator: Adobe Illustrator 21.0.1, SVG Export Plug-In . SVG Version: 6.00 Build 0)  -->
<svg version="1.1" id="Layer_1" xmlns="http://www.w3.org/2000/svg" xmlns:xlink="http://www.w3.org/1999/xlink" x="0px" y="0px"
	 viewBox="0 0 64 64" style="enable-background:new 0 0 64 64;" xml:space="preserve">
<style type="text/css">
	.st0{fill:#4E5468;}
	.st1{fill:#C7CBD7;}
</style>
<g>
	<g>
		<g>
			<g>
				<circle class="st0" cx="32.03" cy="32" r="28.9"/>
			</g>
		</g>
	</g>
</g>
<g>
	<polygon class="st1" points="55.12,30.71 43.1,30.71 43.1,18.68 35.69,18.68 35.69,30.71 23.67,30.71 23.67,38.11 35.69,38.11 
		35.69,50.13 43.1,50.13 43.1,38.11 55.12,38.11 	"/>
	<path class="st1" d="M33.02,48.26L21,40.78V28.04h12.02v-6.12c-0.96-0.34-2.24-0.78-2.92-1.24c-0.66-0.44-2.5-1.07-3.04-1.1V18.4
		c0-0.63,0.23-1.22,0.56-1.75c0.4-0.63,0.64-1.39,0.64-2.19v-2.87c0-2.33-1.95-4.21-4.31-4.09c-2.21,0.12-3.87,2.1-3.87,4.32v2.64
		c0,0.81,0.23,1.56,0.64,2.19c0.34,0.53,0.56,1.12,0.56,1.75v1.17c-0.54,0.03-2.38,0.66-3.04,1.1c-1.03,0.69-3.46,1.35-4.02,1.68
		c-1.41,0.82-1.35,2.06-1.35,3.04v5.56c0,0.62,0.37,1.82,0.37,1.82c0.18,0.63,0.12,2.37,0.12,3.61v5.37c0,0.74,0.06,1.48,0.17,2.21
		l1.34,8.53h18.14V48.26z"/>
</g>
</svg>
