<svg xmlns="http://www.w3.org/2000/svg" viewBox="0 0 64 64" enable-background="new 0 0 64 64"><style type="text/css">.st0{fill:#555556;} .st1{fill:#C8CAC9;}</style><path class="st0" d="M54.3 19.1v25.8l-22.3 12.9-22.3-12.9v-25.8l22.3-12.9z"/><path class="st1" d="M32 60.9l-25-14.4v-28.9l25-14.5 25 14.4v28.9l-25 14.5zm-19.6-17.5l19.6 11.3 19.6-11.4v-22.7l-19.6-11.3-19.6 11.4v22.7zM37.7 46.7h-10.4l-5.5-5.5v-18.6l5.3-5.3h10.9l4.2 4.2-3.5 3.5-2.8-2.7h-6.7l-2.4 2.4v14.5l2.5 2.5h6.3l3.1-3.1 3.5 3.6z"/></svg>