<?xml version="1.0" encoding="utf-8"?>
<!-- Generator: Adobe Illustrator 21.0.1, SVG Export Plug-In . SVG Version: 6.00 Build 0)  -->
<svg version="1.1" id="Layer_1" xmlns="http://www.w3.org/2000/svg" xmlns:xlink="http://www.w3.org/1999/xlink" x="0px" y="0px"
	 viewBox="0 0 64 64" style="enable-background:new 0 0 64 64;" xml:space="preserve">
<style type="text/css">
	.st0{fill:#326629;}
	.st1{fill:#C8CAC9;}
</style>
<g>
	<circle class="st0" cx="32" cy="32" r="28.9"/>
</g>
<rect x="10.1" y="10.1" class="st1" width="43.8" height="43.8"/>
<g>
	<path class="st0" d="M43.705,42.017l-1.515-4.265h-3.215c-0.885,0-1.747-0.098-2.582-0.265l2.666-6.637
		c-0.42-0.055-0.841-0.144-1.258-0.283c-1.11-0.371-2.036-1.022-2.778-1.825l-2.853,7.101c-1.089-0.66-2.081-1.465-2.936-2.401
		l-3.159,2.887c1.293,1.415,2.814,2.594,4.488,3.515l-2.024,5.04l3.21,1.337l-3.118,0.037l0.346,5.242l3.768-4.928l2.043-5.087
		c1.368,0.338,2.771,0.531,4.188,0.531h4.729V42.017z"/>
	<path class="st0" d="M51.27,44.71l-6.898-17.155c0.358-0.474,0.665-0.995,0.863-1.59c0.978-2.933-0.607-6.102-3.54-7.079
		c-2.933-0.978-6.102,0.607-7.079,3.54c-0.977,2.932,0.607,6.101,3.54,7.079c0.739,0.246,1.493,0.328,2.224,0.269l6.685,16.623
		l3.768,4.928l0.346-5.242l-3.118-0.037L51.27,44.71z M38.067,24.196c0-1.026,0.832-1.858,1.858-1.858s1.858,0.832,1.858,1.858
		c0,1.026-0.832,1.858-1.858,1.858C38.899,26.054,38.067,25.222,38.067,24.196z"/>
	<path class="st0" d="M29.137,40.436c-3.799-1.132-6.571-4.648-6.571-8.814c0-5.081,4.119-9.201,9.201-9.201
		c0.568,0,1.122,0.059,1.662,0.158c0.042-0.167,0.084-0.335,0.139-0.501c0.566-1.698,1.759-3.074,3.36-3.875
		c0.054-0.027,0.11-0.047,0.165-0.073c-0.422-0.166-0.85-0.32-1.29-0.447l-0.352-5.099h-7.368l-0.352,5.099
		c-1.043,0.301-2.039,0.71-2.971,1.224l-3.849-3.353l-5.21,5.21l3.353,3.849c-0.515,0.932-0.923,1.928-1.224,2.971l-5.099,0.352
		v7.368l5.099,0.352c0.301,1.043,0.71,2.039,1.224,2.971l-3.353,3.849l5.21,5.21l3.849-3.353c0.757,0.418,1.567,0.745,2.398,1.025
		L29.137,40.436z"/>
	<path class="st0" d="M41.464,17.707V13.47c0-0.536-0.434-0.97-0.97-0.97h-1.137c-0.536,0-0.97,0.434-0.97,0.97v4.221
		C39.397,17.451,40.442,17.464,41.464,17.707z"/>
</g>
</svg>
