<svg version="1.1" id="Layer_1" xmlns="http://www.w3.org/2000/svg" x="0" y="0" viewBox="0 0 64 64" xml:space="preserve"><style type="text/css">.st1{fill:#5f66fe}</style><circle cx="32" cy="32" r="28.9" fill="#2f3477"/><path class="st1" d="M37.56 34.084L50.176 32 37.56 29.916l-.081-.196 3.428-6.375-6.374 3.428-.196-.081-2.084-12.616-2.083 12.617-.196.081-6.374-3.428 3.428 6.375-.081.196L14.331 32l12.616 2.084.081.196-3.428 6.374 6.374-3.428.196.081h.002c.02.409 2.081 12.616 2.081 12.616s2.061-12.207 2.082-12.616h.002l.196-.081 6.374 3.428-3.428-6.375.081-.195z"/><path class="st1" d="M56.629 34.258L64 32l-7.371-2.258C55.547 17.969 46.109 8.594 34.311 7.598L32 0l-2.318 7.627C18.143 8.828 8.963 18.068 7.848 29.632L0 32l7.848 2.368c1.114 11.565 10.294 20.805 21.834 22.005L32 64l2.311-7.598c11.798-.996 21.236-10.371 22.318-22.144zM32.236 51.892c-10.986 0-19.891-8.906-19.891-19.892s8.906-19.892 19.891-19.892S52.127 21.014 52.127 32s-8.906 19.892-19.891 19.892z"/></svg>