<?xml version="1.0" encoding="utf-8"?>
<!-- Generator: Adobe Illustrator 21.0.1, SVG Export Plug-In . SVG Version: 6.00 Build 0)  -->
<svg version="1.1" id="Layer_1" xmlns="http://www.w3.org/2000/svg" xmlns:xlink="http://www.w3.org/1999/xlink" x="0px" y="0px"
	 viewBox="0 0 64 64" style="enable-background:new 0 0 64 64;" xml:space="preserve">
<style type="text/css">
	.st0{fill:#93581C;}
	.st1{fill:#C4BC2C;}
</style>
<g>
	<circle class="st0" cx="32" cy="32" r="28.9"/>
</g>
<g>
	<polygon class="st1" points="17.48,42.74 15.51,40.49 6.53,40.49 11.4,45.93 14.4,45.93 11.7,42.74 	"/>
	<polygon class="st1" points="25.48,38.7 24.67,31.98 20.18,27.27 17.48,1 12.3,4.29 14.14,22.18 9.95,9.86 7.21,11.91 10.68,30.22 
			"/>
	<polygon class="st1" points="32,47.03 28.52,43.89 14.94,43.89 19.62,48.95 28.52,48.95 32,51.65 35.48,48.95 44.38,48.95 
		49.06,43.89 35.48,43.89 	"/>
	<path class="st1" d="M34.95,42.52h1.95V24.15c-1.13,0-2.05-0.92-2.05-2.05v-0.88h-5.71v0.88c0,1.13-0.92,2.05-2.05,2.05v18.37h1.95
		l2.1,1.89V26.94h1.71v17.47L34.95,42.52z"/>
	<path class="st1" d="M32.86,52.72c0,0,0,1.11,0,1.67c0,0.56-0.86,0.86-0.86,0.86s-0.86-0.29-0.86-0.86c0-0.56,0-1.67,0-1.67
		l-3.09-2.39h-0.96c0,0,0,2.24,0,5.15C27.09,58.38,32,63,32,63s4.91-4.62,4.91-7.53c0-2.91,0-5.15,0-5.15h-0.96L32.86,52.72z"/>
	<polygon class="st1" points="48.49,40.49 46.52,42.74 52.3,42.74 49.6,45.93 52.6,45.93 57.47,40.49 	"/>
	<polygon class="st1" points="38.52,38.7 53.32,30.22 56.79,11.91 54.05,9.86 49.86,22.18 51.7,4.29 46.52,1 43.82,27.27 
		39.33,31.98 	"/>
	<path class="st1" d="M40.32,19.85c0-3.23-0.94-3.23-0.94-3.23h-4.71V6.95c0-0.83-0.67-1.5-1.5-1.5h-2.34c-0.83,0-1.5,0.67-1.5,1.5
		v9.67h-4.71c0,0-0.94,0-0.94,3.23H40.32z"/>
</g>
</svg>
