<svg xmlns="http://www.w3.org/2000/svg" viewBox="0 0 64 64" enable-background="new 0 0 64 64"><style type="text/css">.st0{fill:#4E5468;} .st1{fill:#C7CBD7;}</style><circle class="st0" cx="32" cy="32" r="28.9"/><path class="st1" d="M53.5 21.4l-.3-.2c.6-1.6 0-3.4-1.4-4.2l-4.3-2.4c-.3-.2-.5-.5-.4-.8.2-1.1-.6-2.5-2.1-3.3s-3.1-.9-3.9-.1c-.2.2-.6.2-.9 0l-4.3-2.4c-1.5-.9-3.4-.4-4.4.9l-1.1-.6c-1.6-.9-3.7-.4-4.6 1.3l-16.5 28.5c-.9 1.6-.4 3.7 1.3 4.6l23 13.3c1.6.9 3.7.4 4.6-1.3l16.5-28.7c1-1.5.4-3.6-1.2-4.6zm-35.5 16.2c-.7-.4-.9-1.2-.5-1.9s1.2-.9 1.9-.5.9 1.2.5 1.9-1.2.9-1.9.5zm3.3-5.6c-.7-.4-.9-1.2-.5-1.9s1.2-.9 1.9-.5.9 1.2.5 1.9c-.5.6-1.3.9-1.9.5zm3.2-5.6c-.7-.4-.9-1.2-.5-1.9s1.2-.9 1.9-.5.9 1.2.5 1.9c-.4.6-1.2.8-1.9.5zm3.2-5.7c-.7-.4-.9-1.2-.5-1.9s1.2-.9 1.9-.5.9 1.2.5 1.9-1.2.9-1.9.5zm7.5 26.8l-14-8 1.4-2.4 14 8-1.4 2.4zm3.2-5.6l-14-8 1.4-2.4 14 8-1.4 2.4zm3.3-5.7l-14-8 1.4-2.4 14 8-1.4 2.4zm3.2-5.6l-14-8 1.4-2.4 14 8-1.4 2.4zm5.9-8.7c-.5.8-1.5 1.1-2.2.6l-15.8-9.1c-.8-.4-1.1-1.4-.6-2.2l.6-1.1c.5-.8 1.5-1.1 2.2-.6l4.3 2.4c1 .6 2.2.5 3-.3.2-.1.9-.2 1.9.3.9.5 1.2 1.2 1.2 1.4-.2 1.1.3 2.1 1.3 2.7l4.3 2.4c.8.5 1.1 1.5.6 2.2l-.8 1.3z"/></svg>