<?xml version="1.0" encoding="utf-8"?>
<!-- Generator: Adobe Illustrator 21.0.1, SVG Export Plug-In . SVG Version: 6.00 Build 0)  -->
<svg version="1.1" id="Layer_1" xmlns="http://www.w3.org/2000/svg" xmlns:xlink="http://www.w3.org/1999/xlink" x="0px" y="0px"
	 viewBox="0 0 64 64" style="enable-background:new 0 0 64 64;" xml:space="preserve">
<style type="text/css">
	.st0{fill:#93581C;}
	.st1{fill:#C4BC2C;}
</style>
<circle class="st0" cx="32" cy="32" r="28.9"/>
<g>
	<path class="st1" d="M52.167,12.74v-1.7c0-1.955-1.585-3.54-3.54-3.54h-0.291c-1.229,0-2.434,0.257-3.606,0.627
		c-0.907,0.286-2.041,0.457-3.278,0.457c-1.238,0-2.371-0.171-3.278-0.457C37.001,7.757,35.796,7.5,34.567,7.5h-5.135
		c-1.229,0-2.434,0.257-3.606,0.627c-0.907,0.286-2.041,0.457-3.278,0.457c-1.238,0-2.371-0.171-3.278-0.457
		C18.098,7.757,16.893,7.5,15.664,7.5h-0.291c-1.955,0-3.54,1.585-3.54,3.54v1.7c0,1.226,0.238,2.428,0.626,3.591
		c0.333,0.998,0.535,2.294,0.535,3.722c0,1.428-0.202,2.724-0.535,3.722c-0.388,1.163-0.626,2.365-0.626,3.591v4.614
		c0,0.005,0.001,0.01,0.001,0.015c-0.001,0.005-0.001,0.01-0.001,0.015v4.624c0,1.226,0.238,2.428,0.626,3.591
		c0.333,0.998,0.535,2.294,0.535,3.722s-0.202,2.724-0.535,3.722c-0.388,1.163-0.626,2.365-0.626,3.591v1.7
		c0,1.955,1.585,3.54,3.54,3.54h0.291c1.229,0,2.434-0.257,3.606-0.627c0.907-0.286,2.041-0.457,3.278-0.457
		c1.238,0,2.371,0.171,3.278,0.457c1.172,0.369,2.377,0.627,3.606,0.627h5.135c1.229,0,2.434-0.257,3.606-0.627
		c0.907-0.286,2.041-0.457,3.278-0.457c1.238,0,2.371,0.171,3.278,0.457c1.172,0.369,2.377,0.627,3.606,0.627h0.291
		c1.955,0,3.54-1.585,3.54-3.54v-1.7c0-1.226-0.238-2.428-0.626-3.591c-0.333-0.998-0.535-2.294-0.535-3.722
		s0.202-2.724,0.535-3.722c0.388-1.163,0.626-2.365,0.626-3.591V32.01c0-0.005-0.001-0.01-0.001-0.015
		c0.001-0.005,0.001-0.01,0.001-0.015v-4.614c0-1.226-0.238-2.428-0.626-3.591c-0.333-0.998-0.535-2.294-0.535-3.722
		c0-1.428,0.202-2.724,0.535-3.722C51.929,15.168,52.167,13.966,52.167,12.74z M49.756,9.568c0.328,0,0.593,0.266,0.593,0.593
		c0,0.328-0.266,0.593-0.593,0.593c-0.328,0-0.593-0.266-0.593-0.593C49.163,9.834,49.429,9.568,49.756,9.568z M32,8.611
		c0.328,0,0.593,0.266,0.593,0.593S32.328,9.798,32,9.798c-0.328,0-0.593-0.266-0.593-0.593S31.672,8.611,32,8.611z M47.956,10.956
		l-2.661,2.661H18.706l-2.661-2.661H47.956z M44.895,14.979v34.042h-25.79V14.979H44.895z M12.851,32
		c0-0.328,0.266-0.593,0.593-0.593s0.593,0.266,0.593,0.593c0,0.328-0.266,0.593-0.593,0.593S12.851,32.328,12.851,32z
		 M14.244,54.362c-0.328,0-0.593-0.266-0.593-0.593s0.266-0.593,0.593-0.593c0.328,0,0.593,0.266,0.593,0.593
		S14.572,54.362,14.244,54.362z M14.244,10.755c-0.328,0-0.593-0.266-0.593-0.593c0-0.328,0.266-0.593,0.593-0.593
		c0.328,0,0.593,0.266,0.593,0.593C14.837,10.489,14.572,10.755,14.244,10.755z M15.082,52.082V11.918l2.661,2.661V49.42
		L15.082,52.082z M32,55.319c-0.328,0-0.593-0.266-0.593-0.593c0-0.328,0.266-0.593,0.593-0.593c0.328,0,0.593,0.266,0.593,0.593
		C32.593,55.053,32.328,55.319,32,55.319z M16.044,53.044l2.662-2.662h26.452l2.662,2.662H16.044z M48.918,52.218l-2.661-2.661
		V14.579l2.661-2.661V52.218z M49.756,54.362c-0.328,0-0.593-0.266-0.593-0.593s0.266-0.593,0.593-0.593
		c0.328,0,0.593,0.266,0.593,0.593S50.084,54.362,49.756,54.362z M50.349,32.593c-0.328,0-0.593-0.266-0.593-0.593
		c0-0.328,0.266-0.593,0.593-0.593c0.328,0,0.593,0.266,0.593,0.593C50.942,32.328,50.677,32.593,50.349,32.593z"/>
	<circle class="st1" cx="37.474" cy="21.684" r="4.745"/>
	<path class="st1" d="M43.533,37.209c-1.314-0.516-3.169,1.141-4.693,1.212c-1.651,0.077-3.843-1.96-6.112-1.96
		c-3.172,0-7.582,2.527-12.262,2.579v8.62h23.067V37.209z"/>
	<path class="st1" d="M38.841,35.241c1.523-0.071,3.378-1.728,4.693-1.212v-1.733c-1.314-0.516-3.169,1.141-4.693,1.212
		c-1.651,0.077-3.843-1.96-6.112-1.96c-3.172,0-7.582,2.527-12.262,2.579v1.733c4.68-0.052,9.09-2.579,12.262-2.579
		C34.998,33.281,37.19,35.319,38.841,35.241z"/>
</g>
</svg>
