<svg version="1.1" id="Layer_1" xmlns="http://www.w3.org/2000/svg" x="0" y="0" viewBox="0 0 64 64" xml:space="preserve"><style type="text/css">.st0{fill:#555556}</style><circle class="st0" cx="32" cy="32.8" r="28.9"/><path fill="#c8cac9" d="M10.1 10.1h43.8v43.8H10.1z"/><g><path class="st0" d="M26.4 13.4l-8.3 6.9-1.8 11.5h1l4.2-10.4h17.8v-9.2l-12.9 1.2zm1.4 2.8c-.5 0-.9-.4-.9-.9s.4-.9.9-.9.9.4.9.9c.1.5-.4.9-.9.9z"/><path class="st0" d="M16.9 22.4c-.3-.7-.4-1.4-.4-2.1 0-3.3 2.7-6 6-6 .4 0 .9.1 1.3.2l2.1-1.7c-1-.5-2.2-.7-3.4-.7-4.6 0-8.2 3.7-8.2 8.2 0 2.1.8 4.1 2.2 5.5l.4-3.4zM23.5 26.1c-.3.1-.7.1-1.1.1-.6 0-1.2-.1-1.8-.3l-.8 2.1c.5.2 1 .3 1.5.4.7-.9 1.4-1.6 2.2-2.3zM33.5 38c5.4 0 10.3-.4 14.3-1.2-.3-5-3.1-9.3-7.2-11.7L39.3 22H27.7l-1.3 3.1c-4.1 2.4-6.9 6.7-7.2 11.7 4 .8 8.9 1.2 14.3 1.2zM33.5 39.8c-4.2 0-9.5-.3-14.3-1.1.5 7.4 6.7 13.3 14.3 13.3s13.8-5.9 14.3-13.4c-4.8.9-10.2 1.2-14.3 1.2z"/></g></svg>