<?xml version="1.0" encoding="utf-8"?>
<!-- Generator: Adobe Illustrator 21.0.1, SVG Export Plug-In . SVG Version: 6.00 Build 0)  -->
<svg version="1.1" id="Layer_1" xmlns="http://www.w3.org/2000/svg" xmlns:xlink="http://www.w3.org/1999/xlink" x="0px" y="0px"
	 viewBox="0 0 64 64" style="enable-background:new 0 0 64 64;" xml:space="preserve">
<style type="text/css">
	.st0{fill:#3A508E;}
	.st1{fill:#C8CAC9;}
</style>
<g>
	<circle class="st0" cx="32" cy="32" r="28.9"/>
</g>
<g>
	<polygon class="st1" points="10.45,50.2 11.55,51.3 12.45,11.8 10.45,13.8 	"/>
	<polygon class="st1" points="51.55,11.8 52.45,51.3 53.55,50.2 53.55,13.8 	"/>
	<polygon class="st1" points="47.65,10.5 47.65,14.1 45.35,11.8 18.65,11.8 16.35,14.1 16.35,10.5 13.75,10.5 13.75,10.5 
		14.95,53.5 16.35,53.5 16.35,49.9 18.65,52.2 45.35,52.2 47.65,49.9 47.65,53.5 49.05,53.5 50.25,10.5 50.25,10.5 	"/>
</g>
<g>
	<path class="st0" d="M27.4,48.74h-5.58c-0.16,0-0.29,0.13-0.29,0.29v0.69c0,0.16,0.13,0.29,0.29,0.29h5.58
		c0.16,0,0.29-0.13,0.29-0.29v-0.69C27.69,48.87,27.57,48.74,27.4,48.74z"/>
	<path class="st0" d="M27.69,33.02c0-1.9-0.57-3.62-0.57-7.04h-5.01c0,3.42-0.57,5.15-0.57,7.04v14.21c0,0.38,0.31,0.69,0.69,0.69
		h4.78c0.38,0,0.69-0.31,0.69-0.69V33.02L27.69,33.02z"/>
	<path class="st0" d="M22.1,25.36h5v-3.83c0-1.54-1.41-7.53-2.5-7.53c-1.08,0-2.5,6-2.5,7.53L22.1,25.36L22.1,25.36z"/>
	<polygon class="st0" points="28.87,25.43 30.19,28.65 40.34,23.44 37.29,21.24 46.47,15.19 31.73,19.75 33.85,22.25 	"/>
	<polygon class="st0" points="35.97,32.18 34.82,28.65 46.47,33.11 39.85,33.11 40.65,36.42 31.2,35.44 31.2,31.52 	"/>
	<polygon class="st0" points="28.87,39.42 31.2,37.56 33.63,41.44 35.48,38.93 40.03,48.81 35.04,44.22 33.32,45.86 	"/>
</g>
</svg>
