<svg xmlns="http://www.w3.org/2000/svg" viewBox="0 0 64 64" enable-background="new 0 0 64 64"><style type="text/css">.st0{fill:#4E5468;} .st1{fill:#C7CBD7;}</style><circle class="st0" cx="32" cy="32" r="28.9"/><path class="st1" d="M10.1 10.1h43.8v43.8h-43.8z"/><path class="st0" d="M24.428 16.824h-8.496l-4.248 7.326 4.248 7.326h8.496l4.248-7.326-4.248-7.326zm-4.248 11.882c-2.463 0-4.494-1.97-4.494-4.494 0-2.463 1.97-4.494 4.494-4.494 2.463 0 4.494 1.97 4.494 4.494 0 2.463-1.97 4.494-4.494 4.494zM46.221 20.149l-2.339 3.386-4.248-2.709 2.339-3.324-6.156-4.002-4.125 5.725 16.622 10.897 4.002-6.095zM35.201 24.397l-2.77 4.186 9.666 1.786.677-1.047zM31.261 30.369l-2.031 2.955 9.85 1.662 1.724-2.586zM28.245 35.171l-2.094 2.955 9.912 1.662 1.724-2.647zM25.043 40.096l-2.031 3.016 9.911 1.663 1.663-2.648zM29.106 50.5l2.771-4.186-9.666-1.786-.677 1.047z"/></svg>