<svg xmlns="http://www.w3.org/2000/svg" viewBox="0 0 64 64" enable-background="new 0 0 64 64"><style type="text/css">.st0{fill:#4E5468;} .st1{fill:#C7CBD7;}</style><circle class="st0" cx="31.6" cy="31.7" r="28.9"/><path class="st1" d="M16.465 29.566l.933-1.134 18.808 15.476-.933 1.134zM13.791 32.89l.933-1.134 18.808 15.476-.933 1.134zM15.162 31.317l.933-1.134 18.808 15.476-.933 1.134zM38.829 21.292l2.203.367c6.854.857 12.728-.979 13.096-4.039.367-3.06-4.896-6.364-11.749-7.221-6.242-.734-11.749.612-12.973 3.182l-7.588 9.546 18.848 15.421 7.71-9.424-9.547-7.832zM20.509 24.67l.933-1.134 18.808 15.476-.933 1.134zM6.763 42.71l17.624 14.319c.367.245.857.245 1.101-.122l6.609-8.078-18.725-15.421-6.609 8.078c-.367.367-.245.857 0 1.224zM19.208 26.422l.933-1.134 18.808 15.476-.933 1.134zM17.836 27.994l.933-1.134 18.808 15.476-.933 1.134z"/></svg>