<svg xmlns="http://www.w3.org/2000/svg" viewBox="0 0 64 64" enable-background="new 0 0 64 64"><style type="text/css">.st0{fill:#555556;} .st1{fill:#C4BC2C;} .st2{fill:#C8CAC9;}</style><circle class="st0" cx="32" cy="32" r="28.9"/><path class="st1" d="M42.2 53.8h5v5.5h-5zM47.2 51.9h-5v-8.2c0-1 .6-2 1.6-2.3 5.4-2 5.9-4 5.9-4.8 0-1.4-1.4-4.2-4.8-4.2h-.1c-3.3 0-5.2 2.6-5.3 2.7l-4.1-2.9c.1-.2 3.5-4.8 9.5-4.8s9.8 4.8 9.8 9.2c0 2.5-1.4 6-7.5 8.8v6.5z"/><path class="st2" d="M46.7 36.3c-.1-.3-.5-.8-1.2-.9l-.7 2.3c1.1-.7 1.7-1.1 1.9-1.4zM39.2 45.8h-17.3l-6.2-19.1 16.3-11.9 13.1 9.5c5.5.1 9.5 3.2 11.4 7l2.7-8.3-27.2-19.7-27.2 19.8 10.4 32h24v-9.3zM51.7 46.3c-.4.3-.9.6-1.4.9v3.5l1.4-4.4z"/></svg>