<svg version="1.1" id="Layer_1" xmlns="http://www.w3.org/2000/svg" x="0" y="0" viewBox="0 0 64 64" xml:space="preserve"><style type="text/css">.st0{fill:#c8cac9}</style><path class="st0" d="M31.956 60.9L6.994 46.488l.052-28.895L32.044 3.1l24.962 14.412-.054 28.894L31.956 60.9zM12.373 43.389L31.95 54.69l19.634-11.383.041-22.696L32.05 9.309 12.415 20.692l-.042 22.697z"/><path fill="#682323" d="M54.316 19.061l-.047 25.796-22.316 12.938L9.684 44.938l.046-25.795L32.047 6.204z"/><g><path class="st0" d="M43.497 41.056c-1.235-1.194-2.897-2.115-4.559-2.214-1.211-.787-2.541-1.766-2.589-2.786-.027-.605-.001-.962.713-2.09 1.353-2.139 1.14-8.533.593-10.72-.394-1.578-3.182-3.31-5.651-3.31s-5.257 1.732-5.651 3.31c-.545 2.189-.76 8.581.593 10.72.714 1.128.741 1.485.713 2.09-.048 1.019-1.377 1.999-2.589 2.786-1.663.099-3.324 1.019-4.559 2.214-2.102 2.031-2.375 5.846-2.375 5.846 2.565 1.791 13.869 1.592 13.869 1.592s11.304.199 13.869-1.592c-.002-.001-.277-3.815-2.377-5.846zM30.184 11.5h3.633l-1.011 5.957h-1.61zM15.556 23.845l-.612 3.581 6.043.004.271-1.586z"/><path class="st0" d="M16.441 35.561l1.846 3.129 4.617-3.898-.818-1.387zM44.346 16.677l-2.776-2.343-3.067 5.205 1.229 1.038zM49.05 27.309l-.636-3.577-5.688 2.038.281 1.584zM45.879 38.467l1.794-3.158-5.679-2.064-.796 1.4zM22.476 14.304l-2.784 2.334 4.602 3.915 1.233-1.035z"/></g></svg>