<?xml version="1.0" encoding="utf-8"?>
<!-- Generator: Adobe Illustrator 21.0.1, SVG Export Plug-In . SVG Version: 6.00 Build 0)  -->
<svg version="1.1" id="Layer_1" xmlns="http://www.w3.org/2000/svg" xmlns:xlink="http://www.w3.org/1999/xlink" x="0px" y="0px"
	 viewBox="0 0 64 64" style="enable-background:new 0 0 64 64;" xml:space="preserve">
<style type="text/css">
	.st0{fill:#555556;}
	.st1{fill:#C8CAC9;}
</style>
<g>
	<circle class="st0" cx="32" cy="32.8" r="28.9"/>
</g>
<rect x="10.1" y="10.1" class="st1" width="43.8" height="43.8"/>
<g>
	<circle class="st0" cx="31.9" cy="30.4" r="1.8"/>
	<path class="st0" d="M47.5,14.4c-1.1-0.2-2.2-0.3-3.3-0.5c-4.6-0.6-8.5-0.9-12.4-0.9l0,0c0,0,0,0,0,0c-1.7,0-3.5,0.1-5.3,0.2
		c-0.7,0-1.3,0.1-2,0.2c-2.6,0.2-5.3,0.6-8.3,1c-1,0.1-1.7,1-1.8,2c-0.3,5.3-0.3,9-0.2,13.6c0,1.2,0.9,2.2,2,2.5l14.5,3.3
		c0.4,0.1,0.7,0.1,1.1,0.1c0.4,0,0.7,0,1.1-0.1l14.5-3.3c1.2-0.3,2-1.3,2-2.5c0.1-4.6,0.1-8.3-0.2-13.6
		C49.3,15.3,48.5,14.5,47.5,14.4z M31.9,33.5c-1.7,0-3.1-1.4-3.1-3.1s1.4-3.1,3.1-3.1s3.1,1.4,3.1,3.1S33.5,33.5,31.9,33.5z"/>
	<path class="st0" d="M26.2,36.4c-1.4-0.3-8.1-1.9-10-2.3c-0.2-0.1-0.4,0.1-0.4,0.4v12.7c0,3.8,1.7,3.8,3.8,3.8h6.4
		c0.2,0,0.4-0.2,0.4-0.4V36.8C26.5,36.6,26.4,36.5,26.2,36.4z"/>
	<path class="st0" d="M47.4,34.2c-1.8,0.4-8.6,2-10,2.3c-0.2,0-0.3,0.2-0.3,0.4v13.7c0,0.2,0.2,0.4,0.4,0.4h6.5c2.1,0,3.8,0,3.8-3.8
		V34.5C47.9,34.3,47.7,34.1,47.4,34.2z"/>
	<path class="st0" d="M34.8,37l-1.5,0.3c-0.5,0.1-1,0.2-1.5,0.2c-0.5,0-1-0.1-1.5-0.2L28.5,37c-0.2,0-0.3,0.1-0.3,0.3v13.3
		c0,0.2,0.2,0.4,0.4,0.4h6.1c0.2,0,0.4-0.2,0.4-0.4V37.4C35.2,37.2,35,37,34.8,37z"/>
</g>
</svg>
