<?xml version="1.0" encoding="utf-8"?>
<!-- Generator: Adobe Illustrator 21.0.1, SVG Export Plug-In . SVG Version: 6.00 Build 0)  -->
<svg version="1.1" id="Layer_1" xmlns="http://www.w3.org/2000/svg" xmlns:xlink="http://www.w3.org/1999/xlink" x="0px" y="0px"
	 viewBox="0 0 64 64" style="enable-background:new 0 0 64 64;" xml:space="preserve">
<style type="text/css">
	.st0{fill:#682323;}
	.st1{fill:#C8CAC9;}
</style>
<g>
	<polygon class="st0" points="32,3.9 47.3,8 56,16.7 60.1,32 56,47.3 47.3,56 32,60.1 16.7,56 8,47.3 3.9,32 8,16.7 16.7,8 	"/>
	<polygon class="st1" points="45.6,10.7 32,7 18.4,10.7 18.4,13.7 32,10 45.6,13.7 	"/>
	<polygon class="st1" points="45.6,53.3 32,57 18.4,53.3 18.4,50.3 32,54 45.6,50.3 	"/>
	<polygon class="st1" points="53.3,45.6 57,32 53.3,18.4 50.3,18.4 54,32 50.3,45.6 	"/>
	<polygon class="st1" points="10.7,45.6 7,32 10.7,18.4 13.7,18.4 10,32 13.7,45.6 	"/>
</g>
<g>
	<path class="st1" d="M15,39.8c-0.3-0.2-0.3-0.7,0-0.9l3.5-2.9c0.2-0.2,0.6-0.3,0.9-0.3c0.5,0,1.3-0.2,2.3-0.8
		c1.2-0.8,1.7-1.6,1.6-2.4c-0.1-0.5,0.2-1,0.6-1.2l18.6-13.7c0.8,0.2,1.3,0.8,1.4,1.8l-3.2,2.5l0.3,0.5c0.5,0.6,0.4,1.4-0.2,1.9
		l-6.4,5.1c-0.5,0.4-1.4,0.4-1.8-0.1l-0.7-0.7l-3.9,3l-0.4,4.4c0,0.1-0.1,0.2-0.3,0.2h-1.5l-0.7,0.7l0,2.9c0,0.1-0.1,0.3-0.3,0.3
		h-2.3c-0.3,0-0.5,0.2-0.6,0.5c-0.4,1.5-1.6,6.1-3,6C17.4,46.1,17.6,42,15,39.8z"/>
	<path class="st1" d="M22.8,22.5c-0.5,0.6-0.4,1.4,0.2,1.9l2.9,2.3l3.8-2.8l-8.3-6.1c-0.8,0.2-1.3,0.8-1.4,1.8l3.2,2.5L22.8,22.5z"
		/>
	<path class="st1" d="M48.9,39.2l-3.5-2.9c-0.2-0.2-0.6-0.3-0.9-0.3c-0.5,0-1.3-0.2-2.3-0.8c-1.2-0.8-1.7-1.6-1.6-2.4
		c0.1-0.5-0.2-1-0.6-1.2l-2.5-1.8L35.9,31c-0.1,0.1-0.3,0.2-0.5,0.3l0.5,0.4l0.4,4.4c0,0.1,0.1,0.2,0.3,0.2H38l0.7,0.7l0,2.9
		c0,0.1,0.1,0.3,0.3,0.3h2.3c0.3,0,0.5,0.2,0.6,0.5c0.4,1.5,1.6,6.1,3,6c1.6-0.1,1.5-4.2,4.1-6.5C49.2,39.9,49.2,39.4,48.9,39.2z"/>
</g>
</svg>
