<?xml version="1.0" encoding="utf-8"?>
<!-- Generator: Adobe Illustrator 21.0.1, SVG Export Plug-In . SVG Version: 6.00 Build 0)  -->
<svg version="1.1" id="Layer_1" xmlns="http://www.w3.org/2000/svg" xmlns:xlink="http://www.w3.org/1999/xlink" x="0px" y="0px"
	 viewBox="0 0 64 64" style="enable-background:new 0 0 64 64;" xml:space="preserve">
<style type="text/css">
	.st0{fill:#C8CAC9;}
	.st1{fill:#207E70;}
</style>
<g>
	<path class="st0" d="M31.948,60.9L6.986,46.488l0.052-28.895L32.036,3.1l24.962,14.412l-0.054,28.894L31.948,60.9z M12.365,43.389
		L31.942,54.69l19.634-11.383l0.041-22.696L32.042,9.309L12.407,20.692L12.365,43.389z"/>
	<polygon class="st1" points="54.308,19.061 54.261,44.857 31.945,57.795 9.676,44.938 9.722,19.143 32.039,6.204 	"/>
</g>
<path class="st0" d="M46.56,25.562c0-7.25-6.497-13.063-14.568-13.063s-14.568,5.813-14.568,13.063c0,0.547,0.069,1.162,0.137,1.71
	l10.122,9.643c-2.462,0.273-5.609,2.052-5.609,4.445v5.951c0,1.231,0.957,2.188,2.188,2.188h15.46c1.231,0,2.188-0.957,2.188-2.188
	V41.36c0-2.052-2.463-3.967-5.062-4.378l9.438-8.823C46.424,27.273,46.56,26.384,46.56,25.562z M35.686,26.042l-0.342,3.283
	c0,0.889-0.205,1.642-0.478,2.326l0,0l-1.642,5.129h-1.984l-1.915-5.062l0,0c-0.069-0.137-0.137-0.273-0.137-0.411
	c-0.069-0.205-0.137-0.342-0.137-0.547c-0.137-0.478-0.205-1.026-0.205-1.504l-0.273-3.214
	C28.573,26.042,35.686,26.042,35.686,26.042z M20.366,28.845L20.366,28.845L20.366,28.845c-0.684-0.615-1.026-1.368-1.026-2.257
	c0-1.71,1.368-3.077,3.077-3.077c1.095,0,2.052,0.547,2.599,1.368c0.137,0.137,0.205,0.342,0.273,0.547l0,0l3.898,10.191
	l-8.344-6.429C20.639,29.051,20.502,28.983,20.366,28.845z M43.756,28.778L43.756,28.778c-0.205,0.137-0.342,0.273-0.478,0.342
	l-8.344,6.429l3.898-10.191l0,0c0.069-0.205,0.137-0.342,0.273-0.547c0.547-0.82,1.504-1.368,2.599-1.368
	c1.71,0,3.077,1.368,3.077,3.077C44.714,27.477,44.372,28.23,43.756,28.778L43.756,28.778z"/>
</svg>
