<svg xmlns="http://www.w3.org/2000/svg" viewBox="0 0 64 64" enable-background="new 0 0 64 64"><style type="text/css">.st0{fill:#555556;} .st1{fill:#C8CAC9;}</style><circle class="st0" cx="32" cy="32.8" r="28.9"/><path class="st1" d="M10.1 10.1h43.8v43.8h-43.8z"/><circle class="st0" cx="31.9" cy="30.4" r="1.8"/><path class="st0" d="M47.5 14.4l-3.3-.5c-4.6-.6-8.5-.9-12.4-.9-1.7 0-3.5.1-5.3.2-.7 0-1.3.1-2 .2-2.6.2-5.3.6-8.3 1-1 .1-1.7 1-1.8 2-.3 5.3-.3 9-.2 13.6 0 1.2.9 2.2 2 2.5l14.5 3.3c.4.1.7.1 1.1.1s.7 0 1.1-.1l14.5-3.3c1.2-.3 2-1.3 2-2.5.1-4.6.1-8.3-.2-13.6.1-1.1-.7-1.9-1.7-2zm-15.6 19.1c-1.7 0-3.1-1.4-3.1-3.1s1.4-3.1 3.1-3.1c1.7 0 3.1 1.4 3.1 3.1 0 1.7-1.5 3.1-3.1 3.1zM26.2 36.4c-1.4-.3-8.1-1.9-10-2.3-.2-.1-.4.1-.4.4v12.7c0 3.8 1.7 3.8 3.8 3.8h6.4c.2 0 .4-.2.4-.4v-13.8c.1-.2 0-.3-.2-.4zM47.4 34.2c-1.8.4-8.6 2-10 2.3-.2 0-.3.2-.3.4v13.7c0 .2.2.4.4.4h6.5c2.1 0 3.8 0 3.8-3.8v-12.7c.1-.2-.1-.4-.4-.3zM34.8 37l-1.5.3c-.5.1-1 .2-1.5.2s-1-.1-1.5-.2l-1.8-.3c-.2 0-.3.1-.3.3v13.3c0 .2.2.4.4.4h6.1c.2 0 .4-.2.4-.4v-13.2c.1-.2-.1-.4-.3-.4z"/></svg>