<?xml version="1.0" encoding="utf-8"?>
<!-- Generator: Adobe Illustrator 21.0.1, SVG Export Plug-In . SVG Version: 6.00 Build 0)  -->
<svg version="1.1" id="Layer_1" xmlns="http://www.w3.org/2000/svg" xmlns:xlink="http://www.w3.org/1999/xlink" x="0px" y="0px"
	 viewBox="0 0 64 64" style="enable-background:new 0 0 64 64;" xml:space="preserve">
<style type="text/css">
	.st0{fill:#4E5468;}
	.st1{fill:#C8CAC9;}
</style>
<g>
	<circle class="st0" cx="32" cy="32" r="28.9"/>
</g>
<rect x="10.1" y="10.1" class="st1" width="43.8" height="43.8"/>
<path class="st0" d="M46.961,26.416C46.961,18.97,40.288,13,32,13s-14.961,5.97-14.961,13.416c0,0.562,0.07,1.194,0.14,1.756
	l10.396,9.904c-2.529,0.281-5.76,2.107-5.76,4.566v6.111c0,1.264,0.983,2.248,2.248,2.248h15.874c1.264,0,2.248-0.983,2.248-2.248
	v-6.111c0-2.107-2.529-4.074-5.198-4.495l9.693-9.061C46.821,28.172,46.961,27.259,46.961,26.416z M35.793,26.908l-0.351,3.372
	c0,0.913-0.211,1.686-0.492,2.388l0,0l-1.686,5.268h-2.037l-1.967-5.198l0,0c-0.07-0.14-0.14-0.281-0.14-0.421
	c-0.07-0.211-0.14-0.351-0.14-0.562c-0.14-0.492-0.211-1.054-0.211-1.545l-0.281-3.301L35.793,26.908L35.793,26.908z M20.059,29.787
	L20.059,29.787L20.059,29.787c-0.702-0.632-1.054-1.405-1.054-2.318c0-1.756,1.405-3.161,3.161-3.161
	c1.124,0,2.107,0.562,2.669,1.405c0.14,0.14,0.211,0.351,0.281,0.562l0,0l4.004,10.466l-8.569-6.603
	C20.34,29.998,20.2,29.928,20.059,29.787z M44.081,29.717L44.081,29.717c-0.211,0.14-0.351,0.281-0.492,0.351l-8.569,6.603
	l4.004-10.466l0,0c0.07-0.211,0.14-0.351,0.281-0.562c0.562-0.843,1.545-1.405,2.669-1.405c1.756,0,3.161,1.405,3.161,3.161
	C45.065,28.383,44.713,29.155,44.081,29.717L44.081,29.717z"/>
</svg>
