<svg xmlns="http://www.w3.org/2000/svg" viewBox="0 0 64 64" enable-background="new 0 0 64 64"><style type="text/css">.st0{fill:#93581C;} .st1{fill:#C8CAC9;}</style><circle class="st0" cx="32" cy="32" r="28.9"/><path class="st1" d="M10.1 10.1h43.8v43.8h-43.8z"/><path class="st0" d="M38.3 33.1h-12.6c-.5 0-.9.4-.9.9v9.9c0 .5.4.9.9.9h12.6c.5 0 .9-.4.9-.9v-9.9c0-.5-.4-.9-.9-.9zM23.1 18.8l-2.4-4.1c-.1-.1 0-.2.1-.2l2.4-1.4c.1-.1.2 0 .2.1l2.4 4.1c.1.1 0 .2-.1.2l-2.4 1.4c-.1.1-.2 0-.2-.1zM41.1 18.8l2.4-4.1c.1-.1 0-.2-.1-.2l-2.4-1.5c-.1-.1-.2 0-.2.1l-2.4 4.1c-.1.1 0 .2.1.2l2.4 1.4c0 .2.2.1.2 0zM44.6 39.5v-1.2h-3.9v1.2h3.9zM23.3 39.5v-1.2h-3.9v1.2h3.9000000000000004zM40.9 44.4l-.1.7c0 .5-.4.9-.9.9h-15.8c-.5 0-.9-.4-.9-.9v-.7h-3.7c.2 2.7.3 4.7.3 4.7 0 1 .8 1.8 1.8 1.8h20.5c1 0 1.8-.8 1.8-1.8 0 0 .2-2 .3-4.7h-3.3zM19.9 30.9c-.2.3-.4 1.2-.5 2.4h3.8000000000000003v-.7c0-.5.4-.9.9-.9h15.7c.5 0 .9.4.9.9v.7h3.8000000000000003c-.1-1.2-.2-2.2-.5-2.5-4.1-5.3.6-11.6.6-13.3 0-.5-.3-1.2-.9-1.9l-2.3 4c-.1.2-.3.2-.5.1l-3.3-1.9c-.2-.1-.2-.3-.1-.5l2.2-3.9c-.8-.1-1.7-.1-2.7.2-.4.1-.7.5-.7.9-.2 2.7-2.3 3.8-4.4 3.8-2.2 0-4.1-1.1-4.4-3.7 0-.4-.2-.8-.7-.9-.9-.2-1.7-.3-2.5-.2l2.2 3.9c.1.2 0 .3-.1.5l-3.3 1.9c-.2.1-.3 0-.5-.1l-2.4-4.1c-.7.7-1 1.6-1 2.1.1 1.7 4.8 8 .7 13.2zm6.9-1.8h10.4c.4 0 .7.3.7.7s-.3.7-.7.7h-10.4c-.4 0-.7-.3-.7-.7-.1-.4.3-.7.7-.7zM23.3 37.9h-5.4c-.2 0-.4-.2-.4-.4v-3.3c0-.2.2-.4.4-.4h5.4c.2 0 .4.2.4.4v3.3c0 .2-.2.4-.4.4zM23.3 44h-5.4c-.2 0-.4-.2-.4-.4v-3.3c0-.2.2-.4.4-.4h5.4c.2 0 .4.2.4.4v3.3c0 .2-.2.4-.4.4zM46.1 38h-5.4c-.2 0-.4-.2-.4-.4v-3.3c0-.2.2-.4.4-.4h5.4c.2 0 .4.2.4.4v3.3c0 .1-.2.4-.4.4zM46.1 44h-5.4c-.2 0-.4-.2-.4-.4v-3.3c0-.2.2-.4.4-.4h5.4c.2 0 .4.2.4.4v3.3c0 .2-.2.4-.4.4z"/></svg>