<svg xmlns="http://www.w3.org/2000/svg" viewBox="0 0 64 64" enable-background="new 0 0 64 64"><style type="text/css">.st0{fill:#511620;} .st1{fill:#EAEAEA;}</style><circle class="st0" cx="32" cy="32.2" r="28.9"/><path class="st1" d="M13.7 36.2c-.7.5-1.7.2-3.1-1.2.3 6.3 4.7 13.6 6.1 16.1 2.8.7 5.5 1.7 8.1 3.1.7 1.4 1.3 2.9 1.8 4.4h10.8c.4-1.5 1-3 1.8-4.4 2.6-1.4 5.3-2.4 8.1-3.1 1.4-2.5 5.8-9.8 6.1-16.1-1.3 1.4-2.4 1.7-3.1 1.2-1.3-1.8-2.8-3.4-4.4-4.8.1-1.6 3.5-18.1 3.5-18.1-8-10.3-27-10.6-34.8 0 0 0 3.5 16.5 3.5 18.1-1.6 1.4-3.1 3-4.4 4.8zm36.3 2.3c.2 5.6-7 8.8-8.5 8.8-2-.2-3.9-.8-5.7-1.9-1-1.1-1.6-2.5-1.9-3.9 3.2.1 13.2-3 16.1-3zm-18 7.6c1.7 0 4.1 4.1 4.5 5.2-.2.8-.7 1.5-1.3 2.1h-6.5c-.6-.6-1.1-1.3-1.3-2.1.5-1.1 2.9-5.2 4.6-5.2zm-3.9-.6c-1.7 1-3.7 1.6-5.7 1.9-1.5 0-8.8-3.2-8.5-8.8 2.9 0 12.9 3.1 16 3.1-.2 1.3-.9 2.6-1.8 3.8z"/></svg>