<svg xmlns="http://www.w3.org/2000/svg" viewBox="0 0 64 64" enable-background="new 0 0 64 64"><style type="text/css">.st0{fill:#93581C;} .st1{fill:#C8CAC9;}</style><circle class="st0" cx="32" cy="32" r="28.9"/><path class="st1" d="M10.1 10.1h43.8v43.8h-43.8z"/><path class="st0" d="M47 26.4c0-7.4-6.7-13.4-15-13.4s-15 6-15 13.4l.1 1.8 10.4 9.9c-2.5.3-5.8 2.1-5.8 4.6v6.1c0 1.3 1 2.2 2.2 2.2h15.9c1.3 0 2.2-1 2.2-2.2v-6.1c0-2.1-2.5-4.1-5.2-4.5l9.7-9.1c.3-.9.5-1.8.5-2.7zm-11.2.5l-.4 3.4c0 .9-.2 1.7-.5 2.4l-1.7 5.3h-2l-2-5.2c-.1-.1-.1-.3-.1-.4-.1-.3-.1-.4-.1-.6-.1-.5-.2-1.1-.2-1.5l-.3-3.3 7.3-.1zm-15.7 2.9c-.7-.6-1.1-1.4-1.1-2.3 0-1.8 1.4-3.2 3.2-3.2 1.1 0 2.1.6 2.7 1.4.1.1.2.4.3.6l4 10.5-8.6-6.6c-.3-.2-.4-.3-.5-.4zm24-.1c-.2.1-.4.3-.5.4l-8.6 6.6 4-10.5c.1-.2.1-.4.3-.6.6-.8 1.5-1.4 2.7-1.4 1.8 0 3.2 1.4 3.2 3.2-.1 1-.5 1.8-1.1 2.3z"/></svg>