<svg xmlns="http://www.w3.org/2000/svg" viewBox="0 0 64 64" enable-background="new 0 0 64 64"><style type="text/css">.st0{fill:#555556;} .st1{fill:#C8CAC9;}</style><circle class="st0" cx="32" cy="32" r="28.9"/><path class="st1" d="M23.7 14.5l-9.2-5.4-9.2 5.4v11.6h18.4v-11.6zm-3.5 5.1h-11.3v-2.8h11.3v2.8zM23.7 28.6h-18.4l-.8 20.2 2.3.1.2-4.8h15l.2 4.7 2.3-.1-.8-20.1zm-3.5 2.1l-5.8 4.3-5.8-4.2c0-.1 11.6-.1 11.6-.1zm-12.7 1.9l5.1 3.7-5.4 4 .3-7.7zm1 9.4l5.9-4.3 5.9 4.3h-11.8zm7.7-5.7l5.3-3.9.3 8.1-5.6-4.2zM52.5 25v-3.6l-12.1-4.9-12.1 4.9v7.2h-1.3v17.6h2v-12h3.2v12h3.1v-12h3.1v12h3.1v-12h3.2v12h3v-12h3.2v12h8.6v-21.2z"/></svg>