<?xml version="1.0" encoding="utf-8"?>
<!-- Generator: Adobe Illustrator 21.0.1, SVG Export Plug-In . SVG Version: 6.00 Build 0)  -->
<svg version="1.1" id="Layer_1" xmlns="http://www.w3.org/2000/svg" xmlns:xlink="http://www.w3.org/1999/xlink" x="0px" y="0px"
	 viewBox="0 0 64 64" style="enable-background:new 0 0 64 64;" xml:space="preserve">
<style type="text/css">
	.st0{fill:#555556;}
	.st1{fill:#C8CAC9;}
</style>
<g>
	<circle class="st0" cx="32" cy="32.8" r="28.9"/>
</g>
<rect x="10.1" y="10.1" class="st1" width="43.8" height="43.8"/>
<g>
	<path class="st0" d="M35.349,48.978h-6.699c-0.191,0-0.345,0.155-0.345,0.345v0.831c0,0.191,0.155,0.345,0.345,0.345h6.699
		c0.191,0,0.345-0.155,0.345-0.345v-0.831C35.695,49.133,35.54,48.978,35.349,48.978z"/>
	<path class="st0" d="M35.007,25.401c-0.003-0.234-0.191-0.425-0.425-0.425h-5.164c-0.234,0-0.422,0.192-0.425,0.425
		c-0.044,3.833-0.688,3.908-0.688,6.101v15.46c0,0.455,0.369,0.824,0.824,0.824h5.742c0.455,0,0.824-0.369,0.824-0.824v-15.46
		C35.695,29.309,35.051,29.234,35.007,25.401z"/>
	<path class="st0" d="M29.313,23.627h5.373c0.175,0,0.318-0.142,0.318-0.318v-4.291c0-1.847-1.381-5.518-3.004-5.518
		c-1.624,0-3.004,3.671-3.004,5.518v4.291C28.996,23.484,29.138,23.627,29.313,23.627z"/>
	<path class="st0" d="M25.006,48.978h-6.699c-0.191,0-0.345,0.155-0.345,0.345v0.831c0,0.191,0.155,0.345,0.345,0.345h6.699
		c0.191,0,0.345-0.155,0.345-0.345v-0.831C25.351,49.133,25.196,48.978,25.006,48.978z"/>
	<path class="st0" d="M24.663,25.401c-0.003-0.234-0.191-0.425-0.425-0.425h-5.164c-0.234,0-0.422,0.192-0.425,0.425
		c-0.044,3.833-0.688,3.908-0.688,6.101v15.46c0,0.455,0.369,0.824,0.824,0.824h5.742c0.455,0,0.824-0.369,0.824-0.824v-15.46
		C25.351,29.309,24.707,29.234,24.663,25.401z"/>
	<path class="st0" d="M18.97,23.627h5.373c0.175,0,0.318-0.142,0.318-0.318v-4.291c0-1.847-1.381-5.518-3.004-5.518
		s-3.004,3.671-3.004,5.518v4.291C18.652,23.484,18.794,23.627,18.97,23.627z"/>
	<path class="st0" d="M45.693,48.978h-6.699c-0.191,0-0.345,0.155-0.345,0.345v0.831c0,0.191,0.155,0.345,0.345,0.345h6.699
		c0.191,0,0.345-0.155,0.345-0.345v-0.831C46.038,49.133,45.884,48.978,45.693,48.978z"/>
	<path class="st0" d="M45.35,25.401c-0.003-0.234-0.191-0.425-0.425-0.425h-5.164c-0.234,0-0.422,0.192-0.425,0.425
		c-0.044,3.833-0.688,3.908-0.688,6.101v15.46c0,0.455,0.369,0.824,0.824,0.824h5.742c0.455,0,0.824-0.369,0.824-0.824v-15.46
		C46.038,29.309,45.395,29.234,45.35,25.401z"/>
	<path class="st0" d="M39.657,23.627h5.373c0.175,0,0.318-0.142,0.318-0.318v-4.291c0-1.847-1.381-5.518-3.004-5.518
		s-3.004,3.671-3.004,5.518v4.291C39.34,23.484,39.482,23.627,39.657,23.627z"/>
</g>
</svg>
