<?xml version="1.0" encoding="utf-8"?>
<!-- Generator: Adobe Illustrator 21.0.1, SVG Export Plug-In . SVG Version: 6.00 Build 0)  -->
<svg version="1.1" id="Layer_1" xmlns="http://www.w3.org/2000/svg" xmlns:xlink="http://www.w3.org/1999/xlink" x="0px" y="0px"
	 viewBox="0 0 64 64" style="enable-background:new 0 0 64 64;" xml:space="preserve">
<style type="text/css">
	.st0{fill:#93581C;}
	.st1{fill:#C4BC2C;}
</style>
<g>
	<circle class="st0" cx="32" cy="32" r="28.9"/>
</g>
<path class="st1" d="M53.3,24.1C53.3,13.5,43.8,5,32,5s-21.3,8.5-21.3,19.1c0,0.8,0.1,1.7,0.2,2.5l14.8,14.1c-3.6,0.4-8.2,3-8.2,6.5
	v8.7c0,1.8,1.4,3.2,3.2,3.2h22.6c1.8,0,3.2-1.4,3.2-3.2v-8.7c0-3-3.6-5.8-7.4-6.4l13.8-12.9C53.1,26.6,53.3,25.3,53.3,24.1z
	 M37.4,24.8l-0.5,4.8c0,1.3-0.3,2.4-0.7,3.4l0,0l-2.4,7.5h-2.9l-2.8-7.4l0,0c-0.1-0.2-0.2-0.4-0.2-0.6c-0.1-0.3-0.2-0.5-0.2-0.8
	c-0.2-0.7-0.3-1.5-0.3-2.2L27,24.8H37.4z M15,28.9L15,28.9L15,28.9c-1-0.9-1.5-2-1.5-3.3c0-2.5,2-4.5,4.5-4.5c1.6,0,3,0.8,3.8,2
	c0.2,0.2,0.3,0.5,0.4,0.8l0,0l5.7,14.9l-12.2-9.4C15.4,29.2,15.2,29.1,15,28.9z M49.2,28.8L49.2,28.8c-0.3,0.2-0.5,0.4-0.7,0.5
	l-12.2,9.4l5.7-14.9l0,0c0.1-0.3,0.2-0.5,0.4-0.8c0.8-1.2,2.2-2,3.8-2c2.5,0,4.5,2,4.5,4.5C50.6,26.9,50.1,28,49.2,28.8L49.2,28.8z"
	/>
</svg>
