<svg xmlns="http://www.w3.org/2000/svg" viewBox="0 0 64 64" enable-background="new 0 0 64 64"><style type="text/css">.st0{fill:#D32929;} .st1{fill:#C8CAC9;}</style><circle class="st0" cx="32" cy="32" r="28.9"/><path class="st1" d="M32 3.33l-27.2 19.76 10.39 31.98h33.62l10.39-31.98-27.2-19.76z"/><path class="st0" d="M26.13 15.4c.07-2.13 1.17-3.71 2.88-4.81 4.26-2.61 8.79 1.1 8.86 4.46 0 1.17-.21 2.33-.34 3.5-.62 4.74-1.24 9.4-1.85 14.14-.21 1.44-.34 2.95-.62 4.39-.07.55-.34 1.1-.62 1.58-1.17 1.85-3.71 1.85-4.87 0-.55-.89-.69-1.92-.82-2.88l-2.4-18.12-.22-2.26zM36.08 46.7c0 2.33-1.85 4.19-4.05 4.19-2.27 0-4.05-1.92-4.05-4.19 0-2.33 1.85-4.19 4.05-4.19 2.27 0 4.05 1.86 4.05 4.19z"/></svg>