<svg xmlns="http://www.w3.org/2000/svg" viewBox="0 0 64 64" enable-background="new 0 0 64 64"><style type="text/css">.st0{fill:#4E5468;} .st1{fill:#C7CBD7;}</style><circle class="st0" cx="31.6" cy="31.7" r="28.9"/><path class="st1" d="M10.1 10.1h43.8v43.8h-43.8z"/><path class="st0" d="M31.9 37.4l-1.2-.1c-.6 0-1.2.4-1.3 1l-1 5.7c-.1.6.3 1.2.9 1.2l1.2.1c.7 0 1.2-.4 1.3-1.1l1-5.8c0-.5-.4-.9-.9-1zM47.8 31.7l-1.5-.5c-.8-.3-1.6-.3-2.4-.3l-1.7.1c-.3 0-.6.3-.7.6l-2.1 13-.8-.1c-.3 0-.6.2-.6.4l-.3 1.5c-.1.3.2.5.3.5l8.4.8c.3 0 .6-.2.6-.5l.3-1.4c0-.3-.2-.5-.4-.5l-.8-.1 2.1-12.7c0-.4-.2-.7-.4-.8zM48.2 19.3l-.3-1.1-3.5-.4v1.2l-22.8-2s-.5-1.3-1.4-1.7-2.4-.3-3 0-1.9 1.9-2.1 3l-.4 2.7 32.2 2.8v.8l2.6.1.4-5.2-1.7-.2zM35.8 37.9l-1.2-.1c-.6 0-1.2.4-1.3 1l-1 5.7c-.1.6.3 1.2.9 1.2l1.2.1c.7 0 1.2-.4 1.3-1.1l1-5.8c-.1-.6-.4-1-.9-1zM45.6 25.3l-28.6-2.5-2.5-.2-.5 3.6 2.6.3c.9.1 1.7.8 1.7 1.8v.7c0 .8-.2 1.4-.5 2.1l-1.8 3.6c-.8 1.8-1.3 3.8-1.3 5.7v2.6c0 .3.3.7.7.7l10.1 1c.3 0 .6-.3.7-.6l1.5-9.2 8.7.4c.2 0 .3 0 .5-.1l.7-.4c.3-.2.6-.5.6-.9l.1-3c0-.3-.1-.7-.2-.9l-.4-1.1 11.6.8.3-3.4-3.9-.1-.1-.9zm-17.7 8.4l.8-5.2h.1c0 2 .9 5.4.9 5.4l-1.8-.2zm8.7 0c-.1.3-.3.3-.6.3-.9-.1-3.5-.2-4.5-.3-.2-.8-.3-1.9-.3-3 0-.9.1-1.5.3-2.3.9.1 3.5.3 4.5.3.3.5.5 1 .7 1.7.2 1.5 0 2.6-.1 3.3z"/></svg>