<svg version="1.1" id="Layer_1" xmlns="http://www.w3.org/2000/svg" x="0" y="0" viewBox="0 0 64 64" xml:space="preserve"><style type="text/css">.st0{fill:#c8cac9}</style><path class="st0" d="M31.948 60.9L6.986 46.488l.052-28.895L32.036 3.1l24.962 14.412-.054 28.894L31.948 60.9zM12.365 43.389L31.942 54.69l19.634-11.383.041-22.696L32.042 9.309 12.407 20.692l-.042 22.697z"/><path fill="#207e70" d="M54.308 19.061l-.047 25.796-22.316 12.938L9.676 44.938l.046-25.795L32.039 6.204z"/><path class="st0" d="M46.56 25.562c0-7.25-6.497-13.063-14.568-13.063s-14.568 5.813-14.568 13.063c0 .547.069 1.162.137 1.71l10.122 9.643c-2.462.273-5.609 2.052-5.609 4.445v5.951a2.16 2.16 0 0 0 2.188 2.188h15.46a2.16 2.16 0 0 0 2.188-2.188V41.36c0-2.052-2.463-3.967-5.062-4.378l9.438-8.823c.138-.886.274-1.775.274-2.597zm-10.874.48l-.342 3.283c0 .889-.205 1.642-.478 2.326l-1.642 5.129H31.24l-1.915-5.062c-.069-.137-.137-.273-.137-.411-.069-.205-.137-.342-.137-.547a5.683 5.683 0 0 1-.205-1.504l-.273-3.214h7.113zm-15.32 2.803c-.684-.615-1.026-1.368-1.026-2.257a3.064 3.064 0 0 1 3.077-3.077c1.095 0 2.052.547 2.599 1.368.137.137.205.342.273.547l3.898 10.191-8.344-6.429c-.204-.137-.341-.205-.477-.343zm23.39-.067c-.205.137-.342.273-.478.342l-8.344 6.429 3.898-10.191c.069-.205.137-.342.273-.547a3.114 3.114 0 0 1 2.599-1.368 3.064 3.064 0 0 1 3.077 3.077c-.067.957-.409 1.71-1.025 2.258z"/></svg>