<svg xmlns="http://www.w3.org/2000/svg" viewBox="0 0 64 64" enable-background="new 0 0 64 64"><style type="text/css">.st0{fill:#385E2F;} .st1{fill:#53A55D;}</style><circle class="st0" cx="32" cy="32" r="28.9"/><path class="st1" d="M37.979 55h7.941v-13.016h-7.941v13.016zm2.886-8.982h.004l-.004-.019c0-.599.486-1.085 1.085-1.085s1.085.486 1.085 1.085l-.004.019h.004v6.051h-2.169v-6.051zM37.979 39.644h7.941v-10.555h-7.941v10.555zm2.886-7.97h.004l-.004-.019c0-.599.486-1.085 1.085-1.085s1.085.486 1.085 1.085l-.004.019h.004v6.051h-2.169v-6.051zM38.984 6.919l-1.005.874v19.089h7.941v-19.089l-1.005-.874h-5.931zm4.05 3.696v10.402h-2.169v-10.402h.004l-.004-.019c0-.599.486-1.085 1.085-1.085s1.085.486 1.085 1.085l-.004.019h.003zM44.916 3h-5.932l-1.005.874v1.916l1.005-.874h5.932l1.005.874v-1.916zM27.911 41.509h7.941v-14.403h-7.941v14.403zm5.056-4.97v3.362h-2.169v-3.362h.004l-.004-.019c0-.599.486-1.085 1.085-1.085s1.085.486 1.085 1.085l-.004.019h.003zm-1.085-8.373c1.393 0 2.522 1.129 2.522 2.522 0 1.393-1.129 2.522-2.522 2.522-1.393 0-2.522-1.129-2.522-2.522 0-1.393 1.129-2.522 2.522-2.522zM27.911 55h1.449v-4.731c0-1.393 1.129-2.522 2.522-2.522 1.393 0 2.522 1.129 2.522 2.522v4.731h1.449v-10.846h-7.941v10.846zM31.882 15.945l-3.971 6.49v2.207h7.942v-2.207zM17.843 55h7.941v-13.016h-7.941v13.016zm2.886-8.982h.004l-.004-.019c0-.599.486-1.085 1.085-1.085s1.085.486 1.085 1.085l-.004.019h.004v6.051h-2.169v-6.051zM17.843 39.644h7.941v-10.555h-7.941v10.555zm2.886-7.97h.004l-.004-.019c0-.599.486-1.085 1.085-1.085s1.085.486 1.085 1.085l-.004.019h.004v6.051h-2.169v-6.051zM17.843 26.882h7.941v-9.92h-7.941v9.92zm2.886-6.995h.004l-.004-.019c0-.599.486-1.085 1.085-1.085s1.085.486 1.085 1.085l-.004.019h.004v6.051h-2.169v-6.051zM22.442 5.696h-1.255c-.03 4.111-1.959 7.434-4.358 7.527v1.645h9.971v-1.645c-2.399-.092-4.329-3.415-4.358-7.527zM4.273 33.174v8.335h10.269l.581-8.335h-10.85zm4.529 2.422v4.101h-1.993v-4.101h.004l-.004-.017c0-.55.446-.996.996-.996s.996.446.996.996l-.004.017h.005zm4.429 4.101h-1.993v-4.101h.003l-.003-.017c0-.55.446-.996.996-.996s.996.446.996.996l-.003.017h.003v4.101zM4.273 44.135v8.335h9.505l.581-8.335h-10.086zm4.529 2.421v4.101h-1.993v-4.101h.004l-.004-.017c0-.55.446-.996.996-.996s.996.446.996.996l-.004.017h.005zm4.429 4.101h-1.993v-4.101h.003l-.003-.017c0-.55.446-.996.996-.996s.996.446.996.996l-.003.017h.003v4.101zM6.328 25.867l-1.776 5.125h10.722l.357-5.125zM51.766 34.582c.55 0 .996.446.996.996l-.003.017h.003v4.101h-1.259l.292 1.812h7.933v-8.335h-9.274l.356 2.209c.092-.452.475-.8.956-.8zm3.432 1.014h.004l-.004-.017c0-.55.446-.996.996-.996s.996.446.996.996l-.004.017h.004v4.101h-1.993v-4.101zM52.762 46.539l-.003.017h.003v.961l.797 4.952h6.168v-8.335h-7.51l.28 1.74c.161.178.265.407.265.665zm2.436.017h.004l-.004-.017c0-.55.446-.996.996-.996s.996.446.996.996l-.004.017h.004v4.101h-1.993v-4.101zM59.448 30.992l-1.776-5.125h-8.395l.825 5.125z"/></svg>