<?xml version="1.0" encoding="utf-8"?>
<!-- Generator: Adobe Illustrator 21.0.1, SVG Export Plug-In . SVG Version: 6.00 Build 0)  -->
<svg version="1.1" id="Layer_1" xmlns="http://www.w3.org/2000/svg" xmlns:xlink="http://www.w3.org/1999/xlink" x="0px" y="0px"
	 viewBox="0 0 64 64" style="enable-background:new 0 0 64 64;" xml:space="preserve">
<style type="text/css">
	.st0{fill:#4E5468;}
	.st1{fill:#C7CBD7;}
</style>
<circle class="st0" cx="32" cy="32" r="28.9"/>
<rect x="10.1" y="10.1" class="st1" width="43.8" height="43.8"/>
<g>
	<path class="st0" d="M18.5,16.6l-1.9,5.2c-1.1,3-1.6,6.2-1.5,9.4l0.1,2.5L20,31L18.5,16.6z"/>
	<path class="st0" d="M31.8,49.1l2.5-0.2c3.2-0.2,6.3-0.9,9.3-2.2l5-2.3L34.1,44L31.8,49.1z"/>
	<circle class="st0" cx="38.8" cy="24.9" r="3.1"/>
	<path class="st0" d="M36.3,27.4c-0.6-0.7-1-1.5-1-2.5c0-2,1.6-3.5,3.5-3.5c0.3,0,0.7,0.1,0.9,0.2c-0.2-0.8-0.4-1.7-0.1-2.3
		c0.7-1,3.8-4,3.8-4l-0.5-0.7c0,0-4.2,1.7-6,4s-1.6,5.9-1.6,5.9l-15.3,7.2l-4.9,2.7l0.2,5.6c0,1,0.7,1.9,1.7,2.1l0.6,0.1
		c0.5,0.1,1.1,0,1.4-0.3l16.8-13.9L36.3,27.4z M17.8,40.5c-0.5,0-0.9-0.3-0.9-0.8s0.3-0.9,0.8-0.9s0.9,0.3,0.9,0.8
		C18.7,40,18.3,40.5,17.8,40.5z"/>
	<path class="st0" d="M42.1,23.6c0.2,0.4,0.2,0.8,0.2,1.3c0,1.6-1,2.8-2.3,3.3c1-0.1,3.6-0.4,5.3-2.1c2.1-2,3.5-6.3,3.5-6.3
		l-0.8-0.5c0,0-2.8,3.4-3.8,4.1C43.8,23.9,42.8,23.8,42.1,23.6z"/>
	<path class="st0" d="M39.5,28.4c-0.2,0.1-0.5,0.1-0.7,0.1c-0.9,0-1.7-0.3-2.4-0.9l-0.5,0.6L23.5,45.9c-0.3,0.4-0.4,1-0.2,1.5
		l0.2,0.6c0.2,1,1.2,1.6,2.1,1.6l5.6-0.3l2.3-5.1L39.5,28.4z M25.8,47.8c-0.5,0-0.9-0.3-0.9-0.8s0.3-0.9,0.8-0.9s0.9,0.3,0.9,0.8
		S26.3,47.8,25.8,47.8z"/>
</g>
</svg>
