<?xml version="1.0" encoding="utf-8"?>
<!-- Generator: Adobe Illustrator 21.0.1, SVG Export Plug-In . SVG Version: 6.00 Build 0)  -->
<svg version="1.1" id="Layer_1" xmlns="http://www.w3.org/2000/svg" xmlns:xlink="http://www.w3.org/1999/xlink" x="0px" y="0px"
	 viewBox="0 0 64 64" style="enable-background:new 0 0 64 64;" xml:space="preserve">
<style type="text/css">
	.st0{fill:#4E5468;}
	.st1{fill:#C7CBD7;}
</style>
<g>
	<g>
		<g>
			<g>
				<circle class="st0" cx="32" cy="32" r="28.9"/>
			</g>
		</g>
	</g>
</g>
<g>
	<path class="st1" d="M32,22.13c-5.48,0-9.92,4.44-9.92,9.92s4.44,9.92,9.92,9.92s9.92-4.44,9.92-9.92S37.48,22.13,32,22.13z
		 M32,36.67c-2.55,0-4.62-2.07-4.62-4.62s2.07-4.62,4.62-4.62s4.62,2.07,4.62,4.62S34.55,36.67,32,36.67z"/>
	<path class="st1" d="M53.48,30.01c-0.97-10.3-9.16-18.49-19.47-19.44v-0.01L32,6.5l-2.01,4.06v0.01
		c-10.3,0.95-18.49,9.13-19.46,19.42h-0.06L6.5,32l3.97,2.01h0.05c0.93,10.33,9.14,18.56,19.47,19.51v0.01L32,57.5l2.01-3.97v-0.01
		c10.33-0.96,18.55-9.19,19.47-19.54L57.5,32L53.48,30.01z M46.4,33.99c-0.86,6.45-5.95,11.55-12.39,12.44v0.02L32,50.42l-2.01-3.97
		v-0.02c-6.43-0.89-11.51-5.98-12.38-12.42h-0.06L13.58,32l3.97-2.01h0.07c0.91-6.4,5.97-11.44,12.37-12.33v-0.02L32,13.58
		l2.01,4.06v0.02C40.42,18.55,45.48,23.6,46.38,30l4.04,2L46.4,33.99z"/>
</g>
</svg>
