<?xml version="1.0" encoding="utf-8"?>
<!-- Generator: Adobe Illustrator 21.0.1, SVG Export Plug-In . SVG Version: 6.00 Build 0)  -->
<svg version="1.1" id="Layer_1" xmlns="http://www.w3.org/2000/svg" xmlns:xlink="http://www.w3.org/1999/xlink" x="0px" y="0px"
	 viewBox="0 0 64 64" style="enable-background:new 0 0 64 64;" xml:space="preserve">
<style type="text/css">
	.st0{fill:#93581C;}
	.st1{fill:#C8CAC9;}
</style>
<g>
	<circle class="st0" cx="32" cy="32" r="28.9"/>
</g>
<g>
	<polygon class="st1" points="10.5,50.2 11.5,51.3 12.4,11.8 10.5,13.8 	"/>
	<polygon class="st1" points="51.6,11.8 52.5,51.3 53.5,50.2 53.5,13.8 	"/>
	<polygon class="st1" points="47.6,10.5 47.6,14.1 45.3,11.8 32,11.8 18.7,11.8 16.4,14.1 16.4,10.5 13.7,10.5 13.7,10.5 14.9,53.5 
		16.4,53.5 16.4,49.9 18.7,52.2 32,52.2 45.3,52.2 47.6,49.9 47.6,53.5 49.1,53.5 50.3,10.5 50.3,10.5 	"/>
</g>
<g>
	<path class="st0" d="M40.9,43.1c-0.3,0.2-0.6,0.3-0.9,0.5c0.2,0.2,0.2,0.5,0.4,0.7c-0.1,0.1-3.4,2-3.6,2.1
		c-0.1-0.2-0.2-0.3-0.3-0.6c-0.1,0-0.1,0.1-0.2,0.1c-0.6,0.3-1.1,0.6-1.7,1c-0.1,0.2-0.3,0.2-0.6,0.2c-0.3,0-0.6-0.1-0.9-0.3
		c-0.2-0.2-0.3-0.3-0.5-0.5c-0.5-0.7-0.9-1.4-1.1-2.2c-0.4-1.2-0.7-2.5-1-3.6c0-0.2-0.1-0.2-0.2-0.3c-0.4-1-0.9-1.8-1.3-2.8
		c-0.2-0.4-0.3-0.7-0.5-1.1c0-0.1-0.1-0.1-0.1-0.2c-0.1,0-0.2,0-0.2,0c-2.6,0.1-5.2,0.2-7.8,0.3c-0.1,0-0.2,0-0.3,0.1
		c-0.5,0.3-1,0.6-1.5,0.9c-0.1,0-0.1,0.1-0.2,0.1c-0.1-0.1-0.1-0.1-0.1-0.2c-0.8-1.3-1.5-2.6-2.3-3.9c-0.2-0.5-0.6-1-0.8-1.4
		c-0.1-0.1-0.1-0.2,0-0.2c0.2-0.5,0.3-0.9,0.5-1.3c0-0.1,0.1-0.2,0.2-0.2c0.5-0.2,1-0.6,1.4-0.8c0.2-0.1,0.3-0.2,0.5-0.2
		c0.3-0.1,0.6,0,0.8,0.2c0.2,0.2,0.4,0.5,0.6,0.7c0.2,0.2,0.2,0.3,0.4,0.5c0.1,0,0.1,0,0.1-0.1c0.2-0.2,0.6-0.3,0.8-0.5
		C21,30,21.1,30,21,29.9c0-0.2,0.1-0.2,0.2-0.3c0.2-0.1,0.5-0.2,0.7-0.4c0.1-0.1,0.2-0.1,0.2-0.2c0.1-0.2,0.2-0.3,0.4-0.5
		c3.9-2.2,7.8-4.4,11.7-6.7c0.2-0.1,0.2-0.2,0.2-0.3c0-0.3,0-0.7,0-1c0-0.2-0.1-0.5-0.1-0.6c0-0.2,0-0.2,0.2-0.3
		c0.2-0.1,0.2-0.2,0.4-0.2c0.3,0.6,0.6,1.1,1,1.7c0.1-0.1,0.2-0.1,0.2-0.1c0.2-0.1,0.2-0.2,0.4-0.1c0.2,0,0.2,0,0.4,0
		c0.1,0,0.2,0,0.2-0.1c0.3-0.2,0.6-0.3,0.9-0.5c0.1-0.1,0.1-0.1,0.2-0.2c0.1-0.2,0.1-0.5,0-0.7c-0.1-0.3-0.2-0.6-0.2-1
		c0-0.2,0-0.3,0-0.6c0-0.2,0.1-0.3,0.2-0.4s0.3-0.2,0.5-0.2c0.1,0,0.2-0.1,0.2-0.1c0.3-0.2,0.6-0.1,0.9,0.1c0.3,0.2,0.4,0.5,0.6,0.8
		c0.2,0.2,0.2,0.5,0.4,0.7c0.1,0,0.2-0.1,0.2-0.1c0.3,0.6,0.7,1.3,1,1.8c0.4-0.2,0.8-0.5,1.2-0.7c0.2,0.2,0.4,0.2,0.6,0.4
		c0.1,0,0.1-0.1,0.2-0.1c0.4-0.2,0.7-0.4,1.1-0.6c0.1-0.1,0.2-0.1,0.2-0.1c0.2,0.1,0.4,0,0.6-0.1c0.6-0.4,1.3-0.7,1.9-1.1
		c0.1,0,0.1-0.1,0.2-0.1c0.3,0.6,0.6,1,0.9,1.6c-0.1,0-0.1,0.1-0.2,0.1c-0.7,0.4-1.3,0.8-2.1,1.2c-0.1,0.1-0.2,0.2-0.2,0.2
		c0,0.2-0.1,0.3-0.3,0.4c-0.3,0.2-0.6,0.3-0.9,0.5C45,22.2,45,22.2,45,22.3c0,0.2,0,0.3,0,0.5s0,0.2-0.2,0.2c-0.3,0.2-0.6,0.4-1,0.6
		c-0.1,0.1-0.2,0.1-0.2,0.2l0,0c-0.1,0.2-0.2,0.4-0.3,0.6c-0.2,0.2-0.4,0.2-0.6,0.3c-0.6,0.3-1.2,0.7-1.7,1
		c-0.1,0.1-0.2,0.2-0.2,0.2c-0.2,0.6-0.3,1-0.4,1.6c0,0.1,0,0.2,0,0.3c0.6,1.1,1.3,2.2,1.9,3.3c0,0.1,0.1,0.1,0.1,0.2
		c0,0,0,0.1-0.1,0.1c-0.2,0.4-0.5,0.7-0.7,1.1c-0.1,0.1-0.1,0.1-0.2,0.2c-1,0.6-1.9,1.1-2.9,1.7c-0.1,0.1-0.2,0.1-0.2,0.1
		c-0.7,0-1.4,0-2.1,0c-0.1,0-0.1,0-0.2,0C37.6,37.3,39.3,40.2,40.9,43.1z M35.6,31C35.5,31,35.5,31,35.6,31c-0.3,0.2-0.6,0.3-1,0.6
		l-0.1,0.1c0,0.1,0,0.1-0.1,0.2c0,0.1,0,0.2,0,0.2c0.3,0.6,0.7,1.2,1,1.7c0,0.1,0.1,0.1,0.2,0.1c0.8,0,1.7,0,2.5,0
		c0.1,0,0.2,0,0.2-0.1c0.9-0.5,1.7-1,2.6-1.5c0.1,0,0.1-0.1,0.1-0.1c0.2-0.3,0.4-0.6,0.6-0.9c-0.6-1-1.1-2-1.7-2.9
		c-1.2,0.7-2.4,1.3-3.6,2.1c0,0.1,0.1,0.2,0.1,0.3c0.1,0.2,0.2,0.5,0.2,0.7c0.2,0.4,0.6,0.8,0.9,1.1c0.1,0.1,0.2,0.2,0.2,0.2
		c0.1,0.1,0.1,0.2,0.1,0.3c0,0.1-0.1,0.1-0.2,0.1c-0.1,0-0.2-0.1-0.2-0.1c-0.4-0.2-0.7-0.4-1-0.7c-0.1-0.1-0.2-0.2-0.2-0.2
		C36.2,31.8,35.8,31.4,35.6,31z"/>
</g>
</svg>
