<svg xmlns="http://www.w3.org/2000/svg" viewBox="0 0 64 64" enable-background="new 0 0 64 64"><style type="text/css">.st0{fill:#207E70;} .st1{fill:#C8CAC9;}</style><circle class="st0" cx="32" cy="32" r="28.9"/><path class="st1" d="M10.1 10.1h43.8v43.8h-43.8z"/><path class="st0" d="M15.3 42.9c0 1.3-.2 3.5 0 4.4.9.2 4.1.3 5 0 .1-1.1.1-2.8 0-4.3-1.1-.3-3.7 0-5-.1zM27.5 22.2c-.6-.5-1.1-2.5-1.1-4.4-2.7-.2-4.7.9-6.4 1.5-3 5.4-4.7 18.5-4.7 23.2.5.3 5.6.3 6.2-.1.2-3.7 1.3-6.8 2.3-12.1.4 3.8-.3 9.2-.6 13.8 1 1 4.1 2.4 6.9 2.8.2-7.5.2-24.1.2-27.6l-2.8 2.9zM23 47.8c.8 1 3.9 2.4 6.7 2.7.1-.2.1-1.5.1-3.3-2.7-.6-5.5-1.9-6.6-2.7-.2 1.1-.2 2.2-.2 3.3zM48.7 42.9c-1.4.2-4-.2-5 .2-.1 1.4 0 3.1 0 4.3.9.3 4.1.2 5 0 .3-1 0-3.3 0-4.5zM33.8 18.6l2.7 2.6c1.1-.9 1.7-6.4.1-7.5-.2-.2-2.7-.2-4.1-.2h-1c-1.4 0-3.9.1-4.2.2-1.6 1-1 6.6.1 7.5l2.7-2.6s-1.4-2.4-1.6-2.9h6.9c-.3.5-1.6 2.9-1.6 2.9zM48.7 42.5c0-4.6-1.8-17.8-4.7-23.2-1.5-.6-3.5-1.8-6.4-1.5-.1 1.9-.6 3.9-1.1 4.4l-2.7-2.9c0 3.5 0 20 .2 27.6 2.8-.4 5.9-1.8 6.9-2.8-.3-4.5-1-10-.6-13.8 1 5.4 2.1 8.4 2.3 12.1.5.3 5.6.4 6.1.1zM34.2 47.2l.1 3.3c2.8-.3 5.8-1.7 6.7-2.7 0-1-.1-2.1-.1-3.3-1.1.8-3.9 2.1-6.7 2.7z"/></svg>