<svg xmlns="http://www.w3.org/2000/svg" viewBox="0 0 64 64" enable-background="new 0 0 64 64"><style type="text/css">.st0{fill:#93581C;} .st1{fill:#C8CAC9;}</style><circle class="st0" cx="32" cy="32" r="28.9"/><path class="st1" d="M10.1 10.1h43.8v43.8h-43.8z"/><path class="st0" d="M43.2 46l-1.1.6.5.9c-.1.1-4.3 2.5-4.5 2.6-.1-.2-.2-.4-.4-.7l-.2.1-2.1 1.2c-.1.2-.4.3-.7.3-.4 0-.8-.1-1.1-.4l-.6-.6c-.6-.9-1.1-1.8-1.4-2.8-.5-1.5-.9-3.1-1.2-4.6 0-.2-.1-.3-.2-.4l-1.6-3.5-.6-1.4-.1-.2h-.2c-3.3.1-6.6.3-9.8.4-.1 0-.3 0-.4.1l-1.9 1.1-.2.1c-.1-.1-.1-.1-.1-.2l-2.9-4.9-1-1.8c-.1-.1-.1-.2 0-.3l.6-1.7c0-.1.1-.2.2-.2l1.8-1c.2-.1.4-.2.6-.2.4-.1.7 0 1 .2l.8.9.5.6c.1 0 .1 0 .1-.1l1-.6c.1-.1.2-.1.1-.2 0-.2.1-.3.3-.4.3-.1.6-.3.9-.5.1-.1.2-.1.2-.2.1-.3.2-.4.5-.6l14.7-8.4c.2-.1.2-.2.3-.4v-1.3c0-.3-.1-.6-.1-.8 0-.2 0-.3.2-.4s.3-.2.5-.3l1.2 2.1c.1-.1.2-.1.2-.1.2-.1.3-.2.5-.1h.5c.1 0 .2 0 .3-.1l1.1-.6.2-.2c.1-.3.1-.6 0-.9-.1-.4-.2-.8-.2-1.2v-.7c0-.2.1-.4.3-.5l.6-.3c.1 0 .2-.1.2-.1.4-.2.7-.1 1.1.1.4.3.5.6.7 1l.5.9.3-.1c.4.8.9 1.6 1.3 2.3l1.5-.9.8.5.2-.1 1.4-.8c.1-.1.2-.1.3-.1.3.1.5 0 .7-.1l2.4-1.4.2-.1 1.1 2-.2.1-2.6 1.5c-.1.1-.2.2-.2.3 0 .3-.1.4-.4.5-.4.2-.8.4-1.1.6-.1.1-.1.1-.1.2v.6s0 .3-.2.3l-1.2.7c-.1.1-.2.1-.3.3l-.4.7c-.2.2-.5.3-.7.4l-2.2 1.3c-.1.1-.2.2-.2.3-.2.7-.4 1.3-.5 2v.4c.8 1.4 1.6 2.8 2.4 4.1l.1.2s0 .1-.1.1l-.9 1.4-.2.2c-1.2.7-2.4 1.4-3.7 2.1-.1.1-.2.1-.3.1h-3c2 3.8 4.1 7.4 6.2 11.1zm-6.7-15.3c-.4.2-.8.4-1.2.7l-.1.1c0 .1 0 .1-.1.2v.3l1.3 2.2c0 .1.1.1.2.1h3.1c.1 0 .2 0 .2-.1l3.3-1.9c.1 0 .1-.1.1-.1l.8-1.1-2.1-3.7-4.5 2.6.1.4.3.9c.3.5.7 1 1.1 1.4l.3.3s.1.2.1.4c0 .1-.1.1-.2.1l-.3-.1c-.5-.2-.9-.5-1.3-.9l-.3-.3c-.1-.5-.5-1-.8-1.5z"/></svg>