<?xml version="1.0" encoding="utf-8"?>
<!-- Generator: Adobe Illustrator 21.0.1, SVG Export Plug-In . SVG Version: 6.00 Build 0)  -->
<svg version="1.1" id="Layer_1" xmlns="http://www.w3.org/2000/svg" xmlns:xlink="http://www.w3.org/1999/xlink" x="0px" y="0px"
	 viewBox="0 0 57.8 57.8" style="enable-background:new 0 0 57.8 57.8;" xml:space="preserve">
<style type="text/css">
	.st0{fill:#6F4512;}
	.st1{fill:#CE8508;}
</style>
<title>npc-cleaner</title>
<circle class="st0" cx="28.9" cy="28.9" r="28.9"/>
<polygon class="st1" points="33.5,18.9 54.7,18.9 48.4,9.8 33.7,9.8 33.7,5.6 24.5,14.8 33.5,23.6 "/>
<polygon class="st1" points="47.2,32.8 54.7,20.9 45.4,23.6 "/>
<polygon class="st1" points="22.7,9.9 10.4,9.9 17.2,16 "/>
<polygon class="st1" points="20,37.4 22.2,24.6 18.7,26.9 8.5,11.9 3.2,20.2 10.7,32.8 7.5,35 "/>
<polygon class="st1" points="29.4,34.5 33.2,37.1 23.3,52.2 34.9,52.2 41.1,42.5 44.8,44.9 42.1,31.8 "/>
<polygon class="st1" points="17.2,42.4 22.7,50.3 23.7,42.9 "/>
</svg>
