<?xml version="1.0" encoding="utf-8"?>
<!-- Generator: Adobe Illustrator 21.0.1, SVG Export Plug-In . SVG Version: 6.00 Build 0)  -->
<svg version="1.1" id="Layer_1" xmlns="http://www.w3.org/2000/svg" xmlns:xlink="http://www.w3.org/1999/xlink" x="0px" y="0px"
	 viewBox="0 0 64 64" style="enable-background:new 0 0 64 64;" xml:space="preserve">
<style type="text/css">
	.st0{fill:#C8CAC9;}
	.st1{fill:#682323;}
</style>
<g>
	<path class="st0" d="M31.948,60.9L6.986,46.488l0.052-28.895L32.036,3.1l24.962,14.412l-0.054,28.894L31.948,60.9z M12.365,43.389
		L31.942,54.69l19.634-11.383l0.041-22.696L32.042,9.309L12.407,20.692L12.365,43.389z"/>
	<polygon class="st1" points="54.308,19.061 54.261,44.857 31.945,57.795 9.676,44.938 9.722,19.143 32.039,6.204 	"/>
</g>
<g>
	<path class="st0" d="M13.326,40.54c-0.307-0.264-0.298-0.742,0.011-1.003l3.795-3.207c0.27-0.231,0.612-0.363,0.967-0.35
		c0.567,0.021,1.474-0.205,2.572-0.922c1.275-0.833,1.847-1.735,1.738-2.681c-0.061-0.533,0.236-1.045,0.669-1.362L43.522,16
		c0.902,0.224,1.413,0.892,1.562,1.944l-3.474,2.773l0.378,0.491c0.498,0.647,0.385,1.574-0.254,2.083l-6.985,5.559
		c-0.607,0.483-1.484,0.422-2.018-0.142l-0.777-0.82l-4.302,3.346l-0.455,4.878c-0.013,0.143-0.133,0.252-0.277,0.252h-1.595
		l-0.797,0.733l0.059,3.19c0.003,0.156-0.123,0.283-0.278,0.283h-2.533c-0.309,0-0.576,0.21-0.65,0.51
		c-0.4,1.639-1.757,6.663-3.322,6.565C16.052,47.536,16.203,43.014,13.326,40.54z"/>
	<g>
		<path class="st0" d="M21.997,21.56c-0.498,0.647-0.385,1.574,0.254,2.083l3.147,2.504l4.2-3.085l-9.136-6.71
			c-0.902,0.224-1.413,0.892-1.562,1.944l3.474,2.773L21.997,21.56z"/>
		<path class="st0" d="M50.647,39.89l-3.795-3.207c-0.27-0.232-0.612-0.363-0.967-0.35c-0.567,0.021-1.474-0.205-2.572-0.922
			c-1.275-0.833-1.847-1.735-1.738-2.681c0.061-0.533-0.236-1.045-0.669-1.362l-2.718-1.996l-1.851,1.473
			c-0.162,0.129-0.337,0.241-0.516,0.343l0.513,0.399l0.455,4.878c0.013,0.143,0.133,0.252,0.277,0.252h1.595l0.797,0.733
			l-0.059,3.19c-0.003,0.156,0.123,0.283,0.278,0.283h2.533c0.309,0,0.576,0.21,0.65,0.51c0.4,1.639,1.757,6.663,3.322,6.565
			c1.752-0.109,1.601-4.632,4.478-7.106C50.965,40.629,50.956,40.151,50.647,39.89z"/>
	</g>
</g>
</svg>
