<svg version="1.1" id="Layer_1" xmlns="http://www.w3.org/2000/svg" x="0" y="0" viewBox="0 0 64 64" xml:space="preserve"><style type="text/css">.st0{fill:#c8cac9}</style><path class="st0" d="M31.948 60.9L6.986 46.488l.052-28.895L32.036 3.1l24.962 14.412-.054 28.894L31.948 60.9zM12.365 43.389L31.942 54.69l19.634-11.383.041-22.696L32.042 9.309 12.407 20.692l-.042 22.697z"/><path fill="#207e70" d="M54.308 19.061l-.047 25.796-22.316 12.938L9.676 44.938l.046-25.795L32.039 6.204z"/><g><path class="st0" d="M36.1 17.335c4.177 0 7.575 3.398 7.575 7.575v14.178c0 4.177-3.398 7.575-7.575 7.575h-8.2c-4.177 0-7.575-3.398-7.575-7.575V24.911c0-4.177 3.398-7.575 7.575-7.575h8.2m0-3.337h-8.2c-6.026 0-10.911 4.885-10.911 10.911v14.178C16.988 45.114 21.874 50 27.9 50h8.2c6.026 0 10.911-4.885 10.911-10.911V24.911c.001-6.026-4.885-10.912-10.911-10.912z"/><path class="st0" d="M36.1 21.783a3.13 3.13 0 0 1 3.127 3.127v14.178a3.13 3.13 0 0 1-3.127 3.127h-8.2a3.13 3.13 0 0 1-3.127-3.127V24.911a3.13 3.13 0 0 1 3.127-3.127h8.2m0-2.558h-8.2a5.691 5.691 0 0 0-5.685 5.685v14.178a5.691 5.691 0 0 0 5.685 5.685h8.2a5.691 5.691 0 0 0 5.685-5.685V24.911a5.691 5.691 0 0 0-5.685-5.685z"/><path class="st0" d="M34.917 23.428h-5.834a3.118 3.118 0 0 0-3.118 3.118v11a3.117 3.117 0 0 0 3.118 3.117h5.834a3.118 3.118 0 0 0 3.118-3.117v-11a3.118 3.118 0 0 0-3.118-3.118zm.027 10.198l-1.208 1.208-1.625-1.625-1.625 1.625-1.208-1.208 1.625-1.625-1.625-1.625 1.208-1.208 1.625 1.625 1.625-1.625 1.208 1.208-1.625 1.625 1.625 1.625z"/></g></svg>