<?xml version="1.0" encoding="utf-8"?>
<!-- Generator: Adobe Illustrator 21.0.1, SVG Export Plug-In . SVG Version: 6.00 Build 0)  -->
<svg version="1.1" id="Layer_1" xmlns="http://www.w3.org/2000/svg" xmlns:xlink="http://www.w3.org/1999/xlink" x="0px" y="0px"
	 viewBox="0 0 64 64" style="enable-background:new 0 0 64 64;" xml:space="preserve">
<style type="text/css">
	.st0{fill:#326629;}
	.st1{fill:#C8CAC9;}
</style>
<g>
	<circle class="st0" cx="32" cy="32" r="28.9"/>
</g>
<rect x="10.1" y="10.1" class="st1" width="43.8" height="43.8"/>
<path class="st0" d="M12.5,29.54L33,16.82l16.59-1.16v1.22c0,0-14.52,12.2-15.42,12.49c-0.9,0.29-8.88,1.72-8.88,1.72
	c-0.48,0.09-0.8,0.54-0.74,1.02l1.49,11.69c0.09,0.59,1.82,1.43,4.01,0.61c2.33-0.87,21.46-14.69,21.46-14.69v1.34L37.14,48.34
	L15.69,48l-0.28-1.33l7.74-6.14l-1.11-8.18c-0.06-0.45-0.43-0.78-0.88-0.79l-8.4-0.25L12.5,29.54z"/>
</svg>
