<svg xmlns="http://www.w3.org/2000/svg" viewBox="0 0 64 64" enable-background="new 0 0 64 64"><style type="text/css">.st0{fill:#207E70;} .st1{fill:#C8CAC9;}</style><circle class="st0" cx="32" cy="32" r="28.9"/><path class="st1" d="M10.1 10.1h43.8v43.8h-43.8z"/><path class="st0" d="M45.8 19.9l-13.2-7.8c-.6-.3-1.3-.1-1.6.4l-7 11.9c-.3.6-.1 1.3.4 1.6l1.6 1-1.2 2.1c-.2.3-.1.6.2.7l1.4.8-8.8 14.9.1 3.2h.5l9.8-16.7.8.5-10.3 17.5v2l6.9-3.4c.2-.1.3-.2.2-.4l-.1-2.4c0-.2.1-.3.2-.4l2-.9c.2-.1.3-.2.3-.4v-2.7c0-.2.1-.3.2-.4l2-1c.2-.1.3-.3.2-.5l-.5-2c0-.2 0-.4.2-.4l2.5-1.3.6-1.1.7.4c.3.2.6.1.7-.2l1.2-2.1 1.6.9c.6.3 1.3.1 1.6-.4l7-11.9c.6-.4.4-1.1-.2-1.5zm-10.9 3.5c-1.1-.6-1.5-2.1-.8-3.2s2.1-1.5 3.2-.8c1.1.6 1.5 2.1.8 3.2s-2.1 1.5-3.2.8z"/></svg>