<svg xmlns="http://www.w3.org/2000/svg" viewBox="0 0 64 64" enable-background="new 0 0 64 64"><style type="text/css">.st0{fill:#3A508E;} .st1{fill:#C8CAC9;}</style><circle class="st0" cx="32" cy="32" r="28.9"/><path class="st1" d="M10.1 10.1h43.8v43.8h-43.8z"/><path class="st0" d="M45.3 24l-.5-5.7c-.1-.7.1-1.3.4-1.9l1.2-2c.4-.7.2-1.6-.5-2l-2.2-1.3c-.7-.4-1.6-.2-2 .5l-1.2 2c-.3.6-.8 1-1.4 1.3l-5.1 2.6c-1.1.5-2 1.4-2.6 2.4l-13.4 23.3c-1.2 2.1-.5 4.9 1.6 6.1l5.5 3.2c2.1 1.2 4.9.5 6.1-1.6l13.4-23.3c.6-1.2.8-2.4.7-3.6zm-14.6 23.1c-1.4 2.5-4.6 3.4-7.1 1.9l-.3-.2c-2.5-1.4-3.4-4.6-1.9-7.1l4.3-7.4.8-.1c12-.4 11.3-2.4 14.1-4.3l.2-.1-10.1 17.3z"/></svg>