<?xml version="1.0" encoding="utf-8"?>
<!-- Generator: Adobe Illustrator 21.0.1, SVG Export Plug-In . SVG Version: 6.00 Build 0)  -->
<svg version="1.1" id="Layer_1" xmlns="http://www.w3.org/2000/svg" xmlns:xlink="http://www.w3.org/1999/xlink" x="0px" y="0px"
	 viewBox="0 0 64 64" style="enable-background:new 0 0 64 64;" xml:space="preserve">
<style type="text/css">
	.st0{fill:#4B8E3D;}
	.st1{fill:#C8CAC9;}
</style>
<g>
	<circle class="st0" cx="32" cy="32" r="28.9"/>
</g>
<g>
	<polygon class="st1" points="10.45,50.2 11.55,51.3 12.45,11.8 10.45,13.8 	"/>
	<polygon class="st1" points="51.55,11.8 52.45,51.3 53.55,50.2 53.55,13.8 	"/>
	<polygon class="st1" points="47.65,10.5 47.65,14.1 45.35,11.8 18.65,11.8 16.35,14.1 16.35,10.5 13.75,10.5 13.75,10.5 
		14.95,53.5 16.35,53.5 16.35,49.9 18.65,52.2 45.35,52.2 47.65,49.9 47.65,53.5 49.05,53.5 50.25,10.5 50.25,10.5 	"/>
</g>
<g>
	<path class="st0" d="M34.63,47.81h-5.27c-0.15,0-0.27,0.12-0.27,0.27v0.65c0,0.15,0.12,0.27,0.27,0.27h5.27
		c0.15,0,0.27-0.12,0.27-0.27v-0.65C34.91,47.93,34.79,47.81,34.63,47.81z"/>
	<path class="st0" d="M34.91,32.96c0-1.79-0.54-3.42-0.54-6.65h-4.73c0,3.23-0.54,4.86-0.54,6.65v13.42c0,0.36,0.29,0.65,0.65,0.65
		h4.51c0.36,0,0.65-0.29,0.65-0.65V32.96L34.91,32.96z"/>
	<path class="st0" d="M29.63,25.73h4.72v-3.62c0-1.45-1.33-7.11-2.36-7.11c-1.02,0-2.36,5.67-2.36,7.11L29.63,25.73L29.63,25.73z"/>
	<path class="st0" d="M47.92,33.89L35.29,15.97c-0.21-0.33-0.65-0.44-0.98-0.23c-0.33,0.21-0.44,0.65-0.23,0.98l13.84,22.16
		C47.92,38.88,47.92,33.89,47.92,33.89z"/>
	<path class="st0" d="M43.22,36.66l-6.81-15.11c-0.14-0.37-0.55-0.55-0.92-0.41s-0.55,0.55-0.41,0.92l7.45,19.65L43.22,36.66z"/>
	<path class="st0" d="M16.07,33.89l12.62-17.92c0.21-0.33,0.65-0.44,0.98-0.23s0.44,0.65,0.23,0.98L16.07,38.88V33.89z"/>
	<path class="st0" d="M20.78,36.66l6.81-15.11c0.14-0.37,0.55-0.55,0.92-0.41s0.55,0.55,0.41,0.92L21.47,41.7L20.78,36.66z"/>
</g>
</svg>
