<?xml version="1.0" encoding="utf-8"?>
<!-- Generator: Adobe Illustrator 21.0.1, SVG Export Plug-In . SVG Version: 6.00 Build 0)  -->
<svg version="1.1" id="Layer_1" xmlns="http://www.w3.org/2000/svg" xmlns:xlink="http://www.w3.org/1999/xlink" x="0px" y="0px"
	 viewBox="0 0 64 64" style="enable-background:new 0 0 64 64;" xml:space="preserve">
<style type="text/css">
	.st0{fill:#8E3333;}
	.st1{fill:#C14848;}
</style>
<g>
	<g>
		<g>
			<g>
				<circle class="st0" cx="32" cy="32" r="28.9"/>
			</g>
		</g>
	</g>
</g>
<g>
	<path class="st1" d="M44.007,51.901c-4.371-2.543-6.747-7.068-6.505-11.394c0.036-0.644-0.688-1.03-1.244-0.703
		c-1.251,0.738-2.708,1.163-4.267,1.163c-1.649,0-3.184-0.475-4.483-1.294c-0.57-0.359-1.29,0.11-1.223,0.78
		c0.443,4.468-2.013,9.146-6.526,11.772c-2.837,1.655-5.964,2.148-8.8,1.638c-0.893-0.161-1.329,1.084-0.532,1.517
		c5.329,2.893,11.995,3.013,17.559-0.233c1.171-0.72,2.267-1.516,3.225-2.449c0.322-0.313,0.817-0.327,1.145-0.021
		c0.954,0.89,2.044,1.753,3.207,2.469c5.836,3.424,12.848,3.1,18.299-0.168c0.796-0.477,0.281-1.679-0.627-1.488
		C50.289,54.11,46.984,53.628,44.007,51.901z"/>
	<path class="st1" d="M8.885,32.723c4.39-2.51,9.497-2.302,13.12,0.073c0.539,0.354,1.236-0.08,1.231-0.725
		c-0.012-1.453,0.349-2.927,1.129-4.276c0.826-1.427,2.006-2.519,3.365-3.232c0.596-0.313,0.551-1.171-0.063-1.449
		c-4.089-1.854-6.91-6.322-6.923-11.544c-0.012-3.284,1.127-6.238,2.988-8.438c0.586-0.693-0.273-1.694-1.047-1.22
		c-5.172,3.164-8.614,8.875-8.59,15.316c0.037,1.374,0.177,2.721,0.505,4.018c0.11,0.435-0.126,0.871-0.555,1.002
		c-1.248,0.381-2.541,0.891-3.743,1.54c-5.886,3.338-9.116,9.569-9.016,15.924c0.015,0.928,1.313,1.084,1.602,0.202
		C3.828,37.055,5.9,34.436,8.885,32.723z"/>
	<path class="st1" d="M42.643,11.714c0.07,5.057-2.586,9.423-6.419,11.443c-0.57,0.301-0.529,1.12,0.038,1.428
		c1.277,0.693,2.391,1.723,3.194,3.059c0.849,1.414,1.232,2.975,1.198,4.509c-0.015,0.673,0.758,1.049,1.298,0.647
		c3.602-2.68,8.877-2.983,13.452-0.466c2.879,1.58,4.912,4.007,5.935,6.701c0.322,0.849,1.614,0.581,1.575-0.325
		c-0.263-6.058-3.593-11.834-9.239-14.933c-1.22-0.633-2.466-1.163-3.76-1.504c-0.434-0.115-0.701-0.532-0.607-0.971
		c0.271-1.276,0.451-2.655,0.466-4.021c-0.069-6.766-3.957-12.61-9.565-15.601c-0.819-0.437-1.584,0.623-0.953,1.304
		C41.303,5.192,42.59,8.273,42.643,11.714z"/>
</g>
</svg>
