<svg xmlns="http://www.w3.org/2000/svg" viewBox="0 0 64 64" enable-background="new 0 0 64 64"><style type="text/css">.st0{fill:#93581C;} .st1{fill:#C4BC2C;}</style><circle class="st0" cx="32" cy="32" r="28.9"/><path class="st1" d="M6.2 34.4h51.6v5.5h-51.6zM6.2 46h51.6v5.5h-51.6zM6.2 12.5v15.9h51.6v-15.9h-51.6zm13.2 14.4l-4.2-3.1-4.2 3.1 1.6-5-4.2-3.1h5.2l1.6-5 1.6 5h5.2l-4.3 3.2 1.7 4.9zm16.8 0l-4.2-3-4.2 3.1 1.6-5-4.2-3.1h5.2l1.6-5 1.6 5h5.2l-4.2 3.1 1.6 4.9zm16.9 0l-4.2-3.1-4.2 3.1 1.6-5-4.3-3h5.2l1.6-5 1.6 5h5.2l-4.1 3.1 1.6 4.9z"/></svg>