<?xml version="1.0" encoding="utf-8"?>
<!-- Generator: Adobe Illustrator 21.0.1, SVG Export Plug-In . SVG Version: 6.00 Build 0)  -->
<svg version="1.1" id="Layer_1" xmlns="http://www.w3.org/2000/svg" xmlns:xlink="http://www.w3.org/1999/xlink" x="0px" y="0px"
	 viewBox="0 0 64 64" style="enable-background:new 0 0 64 64;" xml:space="preserve">
<style type="text/css">
	.st0{fill:#4E5468;}
	.st1{fill:#C7CBD7;}
</style>
<g>
	<g>
		<g>
			<g>
				<circle class="st0" cx="32" cy="32" r="28.9"/>
			</g>
		</g>
	</g>
</g>
<g>
	<path class="st1" d="M43.94,10.17c-2.15-0.78-6.64,1.22-7.62,2.86c-0.33,0.55-6.26,10.44-7.05,12.06s-1.64,5.27-1.85,6.08
		c-0.07,0.28-0.73,0.85-1.73,1.27l0,0c-1.24,0.59-2.1,1.84-2.1,3.3c0,0.19,0.03,0.53,0.03,0.53c0.21,2.3-1.05,4.57-2.49,6.46
		c-2.31,0.1-4.41,1.63-5.14,3.96c-0.92,2.98,0.74,6.14,3.72,7.06c2.98,0.92,6.14-0.74,7.06-3.72c0.76-2.45-0.23-5.01-2.26-6.36
		c0.54-1.38,1.55-3.4,3.88-4.46l0,0c1.46-0.48,2.53-1.84,2.53-3.47c0-0.22-0.06-0.64-0.06-0.64c-0.18-0.98-0.04-2.45,0.37-3.21
		L43.94,10.17z M24.18,49.22c-0.48,1.54-2.11,2.4-3.65,1.92c-1.54-0.48-2.4-2.11-1.92-3.65c0.48-1.54,2.11-2.4,3.65-1.92
		C23.79,46.04,24.65,47.68,24.18,49.22z M27.26,37.17c-0.79,0-1.43-0.64-1.43-1.43s0.64-1.43,1.43-1.43c0.79,0,1.43,0.64,1.43,1.43
		S28.05,37.17,27.26,37.17z"/>
	<path class="st1" d="M18.58,39.43l3.01-0.67c0.33-0.85,0.47-1.63,0.4-2.34c0-0.03-0.03-0.45-0.03-0.68c0-0.11,0.02-0.22,0.02-0.34
		l-3.3,0.91c-0.62-2.45-2.83-4.27-5.47-4.27c-3.12,0-5.64,2.53-5.64,5.64c0,3.12,2.53,5.64,5.64,5.64
		C15.73,43.33,17.85,41.69,18.58,39.43z M13.22,40.61c-1.61,0-2.92-1.31-2.92-2.92s1.31-2.92,2.92-2.92s2.92,1.31,2.92,2.92
		S14.83,40.61,13.22,40.61z"/>
	<path class="st1" d="M56.41,27.03L34.35,32.2l-0.61,1.04c-0.07,0.21-0.15,0.93-0.08,1.35l0.02,0.14c0.03,0.23,0.08,0.66,0.08,1.01
		c0,0.42-0.05,0.83-0.13,1.23c1.06-0.06,3.32-0.18,4.55-0.22c1.63-0.05,11.64-2.38,13.09-3.17C52.83,32.75,56.73,28.57,56.41,27.03z
		"/>
	<path class="st1" d="M40.83,40.07c-1.16,0.22-2.08,0.36-2.53,0.37c-0.35,0.01-0.83,0.03-1.4,0.06l9.39,11.77
		c0.21,0.27,0.59,0.34,0.87,0.16l0.25-0.15c0.31-0.19,0.4-0.59,0.21-0.9L40.83,40.07z"/>
	<path class="st1" d="M25,30.96c0.47-0.2,0.77-0.39,0.92-0.51l0.01-0.05c0.06-0.24,0.12-0.48,0.18-0.73l-2.64,1.6
		c-0.35,0.21-0.47,0.67-0.25,1.03l0.01,0.01c0,0,0.01,0.01,0.01,0.01C23.71,31.75,24.31,31.29,25,30.96z"/>
	<path class="st1" d="M21.96,30.21l0.02,0.03c0.21,0.35,0.67,0.47,1.03,0.25l3.45-2.08c0.2-0.75,0.42-1.49,0.64-2.17l-4.87,2.94
		C21.86,29.4,21.75,29.85,21.96,30.21z"/>
	<path class="st1" d="M15.38,18.08l5.86-3.54l0.47,0.78l-5.77,3.48c-0.35,0.21-0.47,0.67-0.25,1.03s0.67,0.47,1.03,0.25l5.79-3.49
		l0.47,0.78l-5.79,3.49c-0.35,0.21-0.47,0.67-0.25,1.03l0.02,0.03c0.21,0.35,0.67,0.47,1.03,0.25l5.76-3.48l0.47,0.78l-5.76,3.48
		c-0.35,0.21-0.47,0.67-0.25,1.03l0.02,0.03c0.21,0.35,0.67,0.47,1.03,0.25l5.79-3.49l0.47,0.78l-5.79,3.49
		c-0.35,0.21-0.47,0.67-0.25,1.03l0.01,0.01c0.21,0.35,0.67,0.47,1.03,0.25l5.78-3.49l0.47,0.78l-5.78,3.49
		c-0.35,0.21-0.47,0.67-0.25,1.03l0,0c0.21,0.35,0.67,0.47,1.03,0.25l5.76-3.48l0.04,0.06c0.09-0.22,0.18-0.43,0.27-0.61
		c0.27-0.55,1.05-1.92,2-3.56l-5.4-8.93c-0.51-0.85-1.62-1.12-2.47-0.61l-6.83,4.13c-0.85,0.51-1.12,1.62-0.61,2.47
		C14.68,18.16,15.08,18.26,15.38,18.08z"/>
</g>
</svg>
