<svg xmlns="http://www.w3.org/2000/svg" viewBox="0 0 64 64" enable-background="new 0 0 64 64"><style type="text/css">.st0{fill:#326629;} .st1{fill:#EAEAEA;} .st2{fill:#EAEAEA;stroke:#326629;stroke-miterlimit:10;}</style><circle class="st0" cx="32" cy="32.8" r="28.9"/><path class="st1" d="M36.7 7.1c.1.9.1 1.4.3 2.3h-9.9c.1-.9.2-1.4.3-2.4h-1.3c-.2.9-.2 1.4-.4 2.4-.1.9-.2 1.3-.4 2.2-.4 2.5-.6 3.8-1 6.4-.1.9-.2 1.3-.4 2.2-.4 2.5-.6 3.8-1 6.4-.1.9-.2 1.3-.4 2.2-.4 2.5-.6 3.8-1 6.4-.1.9-.2 1.3-.4 2.2-.4 2.5-.6 3.8-1 6.4-.1.9-.2 1.3-.4 2.2-.4 2.5-.6 3.8-1 6.4-.1.9-.2 1.3-.4 2.2-.2.9-.2 1.4-.4 2.4h3.1c.1-.9.2-1.4.3-2.4h21.2c.1.9.2 1.4.3 2.4h3.1c-.2-.9-.2-1.4-.4-2.4-.1-.9-.2-1.3-.4-2.2-.4-2.5-.6-3.8-1-6.4-.1-.9-.2-1.3-.4-2.2-.4-2.5-.6-3.8-1-6.4-.1-.9-.2-1.3-.4-2.2-.4-2.5-.6-3.8-1-6.4-.1-.9-.2-1.3-.4-2.2-.4-2.5-.6-3.8-1-6.4-.1-.9-.2-1.3-.4-2.2-.4-2.5-.6-3.8-1-6.4-.1-.9-.2-1.3-.4-2.2.1-.9.1-1.4-.1-2.3h-1.3zm5.6 45.3h-20.7c.3-2.5.5-3.8.8-6.4h19.1c.3 2.5.5 3.8.8 6.4zm-1-8.6h-18.5c.3-2.5.5-3.8.8-6.4h16.9c.3 2.6.4 3.8.8 6.4zm-1.1-8.6h-16.4c.3-2.5.5-3.8.8-6.4h14.8l.8 6.4zm-1.1-8.6h-14.2c.3-2.5.5-3.8.8-6.4h12.6l.8 6.4zm-1.1-8.6h-12.1c.3-2.5.5-3.8.8-6.4h10.5c.4 2.6.5 3.9.8 6.4z"/><path class="st2" d="M32 13.8c-1.7 4.6-2.8 7-5.5 11.6h2.7l-1.3 25.3h7.9l-1.2-25.3h2.9c-2.7-4.7-3.8-7-5.5-11.6z"/></svg>