<?xml version="1.0" encoding="utf-8"?>
<!-- Generator: Adobe Illustrator 21.0.1, SVG Export Plug-In . SVG Version: 6.00 Build 0)  -->
<svg version="1.1" id="Layer_1" xmlns="http://www.w3.org/2000/svg" xmlns:xlink="http://www.w3.org/1999/xlink" x="0px" y="0px"
	 viewBox="0 0 64 64" style="enable-background:new 0 0 64 64;" xml:space="preserve">
<style type="text/css">
	.st0{fill:#93581C;}
	.st1{fill:#C4BC2C;}
</style>
<g>
	<circle class="st0" cx="32" cy="32" r="28.9"/>
</g>
<g>
	<path class="st1" d="M47.94,36.31c0.02-0.58,8.14-5.6,6.38-7.78c0,0-0.89,1.63-2.1,0.91c-0.71-0.52,6.25-9.45,2.1-11.77
		c0,0,0.05,1.93-0.49,2.59L34.17,42.23c-0.1-0.12-0.48-0.79-0.59-1.19c-0.11-0.39-0.08-1.05,0-1.47c0.07-0.39,0.79-0.66,0.79-0.66
		s-0.89-1.1-1.29-1.42c-0.39-0.32-1.26-0.13-1.52-0.21c-0.26-0.08-0.34-0.66-1.1-0.76c-0.76-0.1-1.29,0.74-1.29,0.74
		s0.86-0.05,1.2,0.16c0.34,0.21,0.67,0.85,0.72,1.19c0.05,0.34-0.16,1.1-0.45,1.7c-0.29,0.6-0.11,1.66-0.11,1.66l-0.8,0.29
		L10.35,19.5c-0.54-0.67-0.67-2.21-0.67-2.21c-4.15,2.32,2.81,11.57,2.1,12.08c-1.21,0.72-2.24-0.84-2.24-0.84
		c-1.76,2.18,5.73,6.6,5.75,7.18c-0.81,0.24-5.13-0.69-6.34-2.45c-1.29,2.94,6.22,5.69,6.16,6.2c0.18,0.59-1.16,0.55-1.79,0.52
		c0.29,1,6.91,2.66,7.39,3.26c-0.67,0.38-4.07,0.25-5.1-0.36c1.03,5.47,9.56,4.39,10.04,4.42c0.02,0.7-1.59,1.17-1.96,1.54
		c1.03,0.68,4.12-0.43,5.24-1.08l-0.39,4.61c1.12,0.2,2.28,0.31,3.46,0.31c1.13,0,2.23-0.1,3.31-0.29l0.14-4.05
		c0.85,0.43,3.02,1.17,4,0.52c-0.37-0.37-1.63-1-1.61-1.7c0.48-0.04,9.38,1.49,10.41-3.98c-1.03,0.6-4.33,0.71-5,0.33
		c0.48-0.6,7.13-2.22,7.42-3.22c-0.63,0.03-1.89,0.17-1.71-0.42c-0.05-0.51,7.59-3.76,6.31-6.7C54.05,34.95,48.74,36.55,47.94,36.31
		z"/>
	<path class="st1" d="M50.28,41.2C47.17,48.21,40.15,53.11,32,53.11c-8.32,0-15.46-5.11-18.47-12.35c0,0-1.12-0.31-2.05-0.71
		C14.38,48.63,22.46,54.8,32,54.8c9.38,0,17.35-5.96,20.37-14.29C51.37,40.91,50.28,41.2,50.28,41.2z"/>
	<path class="st1" d="M42.4,26.88c-0.72-1.03-1.58-1.96-2.54-2.77c0.04-0.9,2.03-10.35,2.03-10.35c-4.6-5.87-15.47-6.08-19.92,0
		c0,0,1.99,9.44,2.03,10.35c-0.97,0.81-1.82,1.74-2.55,2.77c-0.38,0.27-1,0.1-1.75-0.69c0,5.01,4.76,8.82,5.34,9.37
		s1.42,0.95,2.78,1.59l4.18-3.5l4.03,3.5c1.44-0.64,2.48-1.22,3.15-1.64s4.98-4.17,4.98-9.31C43.4,26.99,42.78,27.16,42.4,26.88z
		 M29.68,32.17c-0.99,0.58-2.1,0.94-3.24,1.06c-0.86,0-5.01-1.84-4.88-5.06c1.67,0,7.39,1.79,9.19,1.75
		C30.6,30.75,30.23,31.53,29.68,32.17z M37.37,33.23c-1.14-0.12-2.25-0.49-3.24-1.06c-0.55-0.64-0.92-1.42-1.06-2.25
		c1.8,0.03,7.52-1.75,9.19-1.75C42.38,31.4,38.23,33.23,37.37,33.23z"/>
	<path class="st1" d="M56.43,51.27c-1.66-2.55-4.88-5.25-5.59-5.84c-0.87,1.32-1.88,2.54-2.99,3.64l2.22,2.36
		c0.99,1.05,0.87,2.73-0.26,3.63l-1.53,1.22c-0.38,0.3-0.94,0.08-1.01-0.39l-0.83-5.54c-0.55,0.46-1.11,0.89-1.7,1.3l1.2,7.57
		c0.18,1.14,1.51,1.67,2.42,0.97l7.58-6.05C56.83,53.44,57.04,52.2,56.43,51.27z"/>
	<path class="st1" d="M16.73,55.89c-0.07,0.48-0.63,0.7-1.01,0.39l-1.53-1.22c-1.13-0.9-1.25-2.58-0.26-3.63l2.2-2.34
		c-1.11-1.1-2.1-2.33-2.97-3.66c-0.72,0.59-3.93,3.28-5.59,5.83c-0.61,0.93-0.4,2.17,0.47,2.87l7.58,6.05
		c0.91,0.7,2.24,0.17,2.42-0.97l1.19-7.55c-0.59-0.4-1.16-0.82-1.7-1.28L16.73,55.89z"/>
	<path class="st1" d="M21.61,14.1c-3.45,1.89-6.34,4.69-8.33,8.08l1.18,1.34c1.76-3.19,4.36-5.85,7.5-7.68
		C21.84,15.23,21.72,14.65,21.61,14.1z"/>
	<path class="st1" d="M20.51,13.77l-5.2-5.2l1.62-1.62c0.32-0.32,0.32-0.84,0-1.16c-0.32-0.32-0.84-0.32-1.16,0l-1.62,1.62
		L12.54,5.8c-0.41-0.41-1.06-0.41-1.47,0L8.63,8.24l-0.8-0.8l0.28-0.28L4.46,3.5L3.07,4.89l3.66,3.66l0.28-0.28l0.8,0.8L7.18,9.69
		c-0.41,0.41-0.41,1.06,0,1.47l7.54,7.54C16.35,16.75,18.3,15.08,20.51,13.77z M16.85,11.48c0.44,0.44,0.44,1.16,0,1.6
		c-0.44,0.44-1.16,0.44-1.6,0c-0.44-0.44-0.44-1.16,0-1.6C15.69,11.04,16.41,11.04,16.85,11.48z M11.72,9.56
		c-0.44-0.44-0.44-1.16,0-1.6c0.44-0.44,1.16-0.44,1.6,0c0.44,0.44,0.44,1.16,0,1.6C12.88,10,12.16,10,11.72,9.56z M13.48,9.72
		c0.44-0.44,1.16-0.44,1.6,0c0.44,0.44,0.44,1.16,0,1.6c-0.44,0.44-1.16,0.44-1.6,0C13.04,10.88,13.04,10.16,13.48,9.72z"/>
	<path class="st1" d="M42.26,14.02c-0.12,0.55-0.24,1.13-0.36,1.74c3.39,1.94,6.16,4.84,7.94,8.33l1.21-1.35
		C49.03,19.05,45.97,16.02,42.26,14.02z"/>
	<path class="st1" d="M57.27,8.55l3.66-3.66L59.54,3.5l-3.66,3.66l0.28,0.28l-0.8,0.8L52.94,5.8c-0.41-0.41-1.06-0.41-1.47,0
		l-1.61,1.61l-1.62-1.62c-0.32-0.32-0.84-0.32-1.16,0c-0.32,0.32-0.32,0.84,0,1.16l1.62,1.62l-5.2,5.2
		c2.21,1.31,4.16,2.97,5.79,4.92l7.54-7.54c0.41-0.41,0.41-1.06,0-1.47l-0.63-0.63l0.8-0.8L57.27,8.55z M48.75,13.09
		c-0.44,0.44-1.16,0.44-1.6,0c-0.44-0.44-0.44-1.16,0-1.6c0.44-0.44,1.16-0.44,1.6,0C49.19,11.93,49.19,12.64,48.75,13.09z
		 M50.52,11.32c-0.44,0.44-1.16,0.44-1.6,0c-0.44-0.44-0.44-1.16,0-1.6c0.44-0.44,1.16-0.44,1.6,0
		C50.96,10.16,50.96,10.88,50.52,11.32z M52.28,9.56c-0.44,0.44-1.16,0.44-1.6,0c-0.44-0.44-0.44-1.16,0-1.6
		c0.44-0.44,1.16-0.44,1.6,0C52.72,8.4,52.72,9.11,52.28,9.56z"/>
</g>
</svg>
