<svg version="1.1" id="Layer_1" xmlns="http://www.w3.org/2000/svg" x="0" y="0" viewBox="0 0 64 64" xml:space="preserve"><style type="text/css">.st0{fill:#909319}.st1{fill:#c8cac9}</style><circle class="st0" cx="32" cy="32" r="28.9"/><path class="st1" d="M10.45 50.2l1.1 1.1.9-39.5-2 2zM51.55 11.8l.9 39.5 1.1-1.1V13.8zM47.65 10.5v3.6l-2.3-2.3h-26.7l-2.3 2.3v-3.6h-2.6l1.2 43h1.4v-3.6l2.3 2.3h26.7l2.3-2.3v3.6h1.4l1.2-43z"/><g><path class="st0" d="M28.87 49.2h-5.73a.29.29 0 0 0-.29.29v.71c0 .16.13.29.29.29h5.73c.16 0 .29-.13.29-.29v-.7c.01-.16-.12-.3-.29-.3zM29.17 33.04c0-1.95-.59-3.72-.59-7.24h-5.14c0 3.52-.59 5.3-.59 7.24v14.6c0 .39.31.7.7.7h4.91c.39 0 .7-.31.7-.7l.01-14.6zM23.44 25.19h5.13v-3.94c0-1.58-1.45-7.74-2.57-7.74-1.11 0-2.57 6.17-2.57 7.74l.01 3.94zM29.83 22.77l4.23-3.69.27 6.11 7.19-1.83-4.18 6.56h7.82l-5.89 4.67 4.77 3.78-6.16.72 2.51 6.2-5.08-.45-1.16 5.01-2.83-2.04 2.74-3.87v-1.71h2.52l-2.39-3.78 4.31-1.37-3.55-2.39 2.79-2.07-4.36-.28 2.48-4.13-3.6 2.03.13-7.15z"/></g></svg>