<?xml version="1.0" encoding="utf-8"?>
<!-- Generator: Adobe Illustrator 21.0.1, SVG Export Plug-In . SVG Version: 6.00 Build 0)  -->
<svg version="1.1" id="Layer_1" xmlns="http://www.w3.org/2000/svg" xmlns:xlink="http://www.w3.org/1999/xlink" x="0px" y="0px"
	 viewBox="0 0 64 64" style="enable-background:new 0 0 64 64;" xml:space="preserve">
<style type="text/css">
	.st0{fill:#4E5468;}
	.st1{fill:#C7CBD7;}
</style>
<g>
	<circle class="st0" cx="32" cy="32" r="28.9"/>
</g>
<g>
	<g>
		
			<rect x="14.4" y="33.99" transform="matrix(0.7071 -0.7071 0.7071 0.7071 -21.3834 23.9246)" class="st1" width="7.57" height="7.57"/>
	</g>
	<path class="st1" d="M24.85,33.65l2.79-2.68h-4.58l1.52-5.72L19.8,28.1l-1.62-3.75l-1.82,3.75l-4.61-2.84l1.56,5.72H8.58l2.91,2.7
		l-4.1,4.1l10.79,10.79l10.79-10.79L24.85,33.65z M15.41,32.57l-1.05-3.83l2.66,1.64l1.07-2.2l0.95,2.22l2.98-1.77l-1.04,3.94h2.67
		l-1.68,1.61l3.6,3.6l-7.4,7.4l-7.4-7.4l3.6-3.6l-0.59-0.54l0,0l-1.14-1.05H15.41z"/>
	<polygon class="st1" points="32.32,21.15 36.4,14.03 28.24,14.03 	"/>
	<path class="st1" d="M21.49,10.53l10.83,18.28l10.83-18.28H21.49z M25.82,12.63h12.99l-6.49,11.33L25.82,12.63z"/>
	<path class="st1" d="M54.19,41.63c1.29-3.15,0.54-6.72-1.79-9.09l-1.06,1.8c1.42,1.72,1.87,4.1,1.09,6.26l-0.99-0.58
		c0.6-1.93,0.05-4.04-1.42-5.44l3.03-5.15l-2.09-1.23l-1.42,2.42c-3.47-1.42-7.46-0.37-9.78,2.54l-2.42-1.42l-1.23,2.09l5.15,3.03
		c-0.6,1.93-0.05,4.04,1.42,5.44l-0.59,1c-1.71-1.5-2.49-3.8-2.08-6.01l-1.8-1.06c-0.88,3.22,0.22,6.7,2.86,8.81l-1.42,2.42
		l2.09,1.23l3.03-5.15c1.93,0.6,4.04,0.05,5.44-1.42l5.15,3.03l1.23-2.09L54.19,41.63z M48.54,32.37l-0.58,0.99
		c-1.93-0.6-4.04-0.05-5.44,1.42l-1-0.59C43.26,32.21,46.05,31.48,48.54,32.37z"/>
	<path class="st1" d="M45.21,44.77l-1.06,1.8c2.89,0.79,5.98-0.02,8.11-2.1l-1.8-1.06C49.01,44.62,47.08,45.11,45.21,44.77z"/>
</g>
</svg>
