<?xml version="1.0" encoding="utf-8"?>
<!-- Generator: Adobe Illustrator 21.0.1, SVG Export Plug-In . SVG Version: 6.00 Build 0)  -->
<svg version="1.1" id="Layer_1" xmlns="http://www.w3.org/2000/svg" xmlns:xlink="http://www.w3.org/1999/xlink" x="0px" y="0px"
	 viewBox="0 0 64 64" style="enable-background:new 0 0 64 64;" xml:space="preserve">
<style type="text/css">
	.st0{fill:#C8CAC9;}
	.st1{fill:#682323;}
</style>
<g>
	<path class="st0" d="M31.948,60.9L6.986,46.488l0.052-28.895L32.036,3.1l24.962,14.412l-0.054,28.894L31.948,60.9z M12.365,43.389
		L31.942,54.69l19.634-11.383l0.041-22.696L32.042,9.309L12.407,20.692L12.365,43.389z"/>
	<polygon class="st1" points="54.308,19.061 54.261,44.857 31.945,57.795 9.676,44.938 9.722,19.143 32.039,6.204 	"/>
</g>
<g>
	<path class="st0" d="M27.387,18.23V14.5c-7.209,2.016-12.502,8.617-12.502,16.469c0,3.037,0.799,5.884,2.185,8.356l2.009-0.999
		c-0.965-1.937-1.52-4.111-1.52-6.421C17.559,25.544,21.676,20.156,27.387,18.23z"/>
	<path class="st0" d="M28.415,24.496V21.74c-4.011,1.517-6.88,5.492-6.878,10.17l2.44-1.482
		C24.205,27.826,25.951,25.609,28.415,24.496z"/>
	<path class="st0" d="M36.613,14.5v3.73c5.711,1.926,9.828,7.315,9.828,13.676c0,2.31-0.557,4.485-1.52,6.421l2.009,0.999
		c1.387-2.472,2.185-5.319,2.185-8.356C49.115,23.117,43.821,16.516,36.613,14.5z"/>
	<path class="st0" d="M40.023,30.427l2.44,1.482c0.002-4.678-2.867-8.652-6.878-10.17v2.756
		C38.049,25.609,39.795,27.826,40.023,30.427z"/>
	<path class="st0" d="M28.612,35.124c-0.406,0.443-1.225,4.284-0.46,4.384c0.951,0.125,2.193-0.569,3.194-1.659
		c1.251-1.362,1.616-2.974,1.177-3.967C32.288,33.353,29.048,34.646,28.612,35.124z"/>
	<path class="st0" d="M42.602,43.727c-0.031,0.919-0.521,2.038-1.407,3.011c-0.814,0.895-1.783,1.458-2.643,1.636
		c0.104,0.226,0.232,0.438,0.42,0.608c1.01,0.919,2.816,0.582,4.032-0.754c1.217-1.336,1.383-3.165,0.372-4.086
		C43.153,43.94,42.889,43.807,42.602,43.727z"/>
	<path class="st0" d="M41.094,41.296l0.011-0.01l-4.678-10.922c-0.032-0.092-0.071-0.177-0.112-0.263l-0.054-0.108
		c-0.088-0.154-0.187-0.3-0.311-0.425c-1.593-1.593-5.7-0.065-9.176,3.41s-5.003,7.583-3.41,9.176
		c0.249,0.249,0.564,0.412,0.922,0.513l-0.016,0.006l11.718,4.138l0.003-0.003c1.023,0.397,2.623-0.223,3.863-1.586
		C41.066,43.888,41.533,42.284,41.094,41.296z M31.838,38.041c-2.86,2.86-6.154,4.201-7.358,2.996s0.137-4.499,2.996-7.358
		s6.154-4.201,7.358-2.996C36.038,31.888,34.697,35.183,31.838,38.041z"/>
</g>
</svg>
