<svg xmlns="http://www.w3.org/2000/svg" viewBox="0 0 64 64" enable-background="new 0 0 64 64"><style type="text/css">.st0{fill:#93581C;} .st1{fill:#C4BC2C;}</style><circle class="st0" cx="32" cy="32.8" r="28.9"/><path class="st1" d="M50.892 27.045c.021-.685 9.643-6.633 7.557-9.217 0 0-1.059 1.931-2.491 1.079-.841-.612 7.411-11.2 2.491-13.95 0 0 .062 2.284-.581 3.073l-23.295 26.03c-.122-.137-.569-.942-.694-1.408-.125-.467-.094-1.246 0-1.745.086-.46.935-.779.935-.779s-1.059-1.307-1.526-1.681c-.467-.374-1.495-.156-1.806-.249-.311-.094-.405-.779-1.307-.902l-1.526.872s1.017-.062 1.422.186c.405.249.789 1.007.851 1.411.062.405-.186 1.298-.53 2.014-.343.716-.125 1.962-.125 1.962l-.395.02-23.532-26.645c-.643-.789-.789-2.616-.789-2.616-4.92 2.751 3.332 13.712 2.491 14.324-1.432.851-2.657-.996-2.657-.996-2.086 2.585 6.789 7.827 6.81 8.512-.956.28-6.083-.82-7.515-2.906-1.526 3.488 7.37 6.747 7.307 7.349.219.695-1.37.654-2.117.622.342 1.184 8.19 3.155 8.76 3.862-.789.447-4.764.551-5.979-.167 1.215 6.478 11.267 4.941 11.833 4.983.025.831-1.889 1.391-2.325 1.827 1.215.81 4.234.207 4.691-1.411l.007-.017c.454-.022 1.446.017 1.508.142.254.507.186 8.428-2.346 2.927 0 0-.221 1.366-.207 1.806.021.685.747 3.551-.539 2.781-.228.436.021 2.553 2.762 2.428 0 0-.436-1.275-.415-1.63.021-.363.642-1.218 1.142-1.255.539-.042.789.935.664 1.754.518-.238.747-.654.872-.902.125-.249-.308-1.453-.581-1.639-.394-.27-.52-.842-.478-1.184.042-.332.75-.521 1.121-.478.893.104.758 1.796.706 3.259.82-.737.768-2.896.581-3.301-.186-.405-.789-.779-.851-1.246-.062-.467.436-.996.467-1.609.029-.568.15-.809.467-.986.332-.186.478-.167.622.083.154.265-.249 2.47 0 2.72.467.467 1.01.535 1.215.956.716 1.474.363 2.201.177 2.865 1.37-.083.935-1.702 1.163-1.992.374.27.706 2.512.29 3.944 0 0 1.157-.815 1.438-.799.353.021.202.499-.015 1.106.42.015 1.276.046 1.215-.622 1.447.219 1.495-1.386 1.495-1.386s-1.55.395-1.599-.332c-.021-.311 1.1-1.288 1.059-2.138-.049-1.016-1.288-2.263-1.288-2.263s-.198 1.276-.478 1.588c-.28.311-.841.125-1.09-.156-.249-.28-.062-1.121-.094-1.744-.025-.492.164-1.467.245-1.857 1.005.514 3.58 1.382 4.737.611-.436-.436-1.931-1.184-1.906-2.013.566-.042 11.123 1.764 12.337-4.712-1.215.716-5.138.841-5.927.395.57-.706 8.449-2.637 8.792-3.82-.747.031-2.242.198-2.025-.499-.062-.603 9-4.453 7.474-7.941-1.431 2.084-7.721 3.982-8.675 3.702zM32 12.3c5.886 0 11.177 2.494 14.916 6.467l2.685-3c-4.454-4.602-10.691-7.467-17.601-7.467-6.663 0-12.7 2.663-17.117 6.979l2.65 3c3.707-3.694 8.82-5.979 14.467-5.979zM54.578 30.763l.89-.037-.388 1.335c-.202.699-.971 1.227-2.57 1.879l-.092.491c-.834 10.557-9.647 18.869-20.418 18.869-10.521 0-19.179-7.929-20.353-18.135l-.309-1.648c-1.503-.634-2.231-1.154-2.428-1.833l-.386-1.336 1.006.043c-.558-.31-1.17-.657-1.784-1.038-.159 1.126-.246 2.276-.246 3.447 0 13.531 10.969 24.5 24.5 24.5s24.5-10.969 24.5-24.5c0-1.06-.075-2.103-.206-3.128-.592.397-1.18.763-1.716 1.091z"/></svg>