<svg version="1.1" id="Layer_1" xmlns="http://www.w3.org/2000/svg" x="0" y="0" viewBox="0 0 64 64" xml:space="preserve"><style type="text/css">.st0{fill:#c8cac9}</style><path class="st0" d="M31.948 60.9L6.986 46.488l.052-28.895L32.036 3.1l24.962 14.412-.054 28.894L31.948 60.9zM12.365 43.389L31.942 54.69l19.634-11.383.041-22.696L32.042 9.309 12.407 20.692l-.042 22.697z"/><path fill="#682323" d="M54.308 19.061l-.047 25.796-22.316 12.938L9.676 44.938l.046-25.795L32.039 6.204z"/><g><path class="st0" d="M27.387 18.23V14.5c-7.209 2.016-12.502 8.617-12.502 16.469 0 3.037.799 5.884 2.185 8.356l2.009-.999a14.348 14.348 0 0 1-1.52-6.421c0-6.361 4.117-11.749 9.828-13.675z"/><path class="st0" d="M28.415 24.496V21.74c-4.011 1.517-6.88 5.492-6.878 10.17l2.44-1.482c.228-2.602 1.974-4.819 4.438-5.932zM36.613 14.5v3.73c5.711 1.926 9.828 7.315 9.828 13.676 0 2.31-.557 4.485-1.52 6.421l2.009.999a17.02 17.02 0 0 0 2.185-8.356c0-7.853-5.294-14.454-12.502-16.47z"/><path class="st0" d="M40.023 30.427l2.44 1.482c.002-4.678-2.867-8.652-6.878-10.17v2.756c2.464 1.114 4.21 3.331 4.438 5.932zM28.612 35.124c-.406.443-1.225 4.284-.46 4.384.951.125 2.193-.569 3.194-1.659 1.251-1.362 1.616-2.974 1.177-3.967-.235-.529-3.475.764-3.911 1.242zM42.602 43.727c-.031.919-.521 2.038-1.407 3.011-.814.895-1.783 1.458-2.643 1.636.104.226.232.438.42.608 1.01.919 2.816.582 4.032-.754 1.217-1.336 1.383-3.165.372-4.086a1.892 1.892 0 0 0-.774-.415z"/><path class="st0" d="M41.094 41.296l.011-.01-4.678-10.922a2.564 2.564 0 0 0-.112-.263l-.054-.108a2.01 2.01 0 0 0-.311-.425c-1.593-1.593-5.7-.065-9.176 3.41s-5.003 7.583-3.41 9.176c.249.249.564.412.922.513l-.016.006 11.718 4.138.003-.003c1.023.397 2.623-.223 3.863-1.586 1.212-1.334 1.679-2.938 1.24-3.926zm-9.256-3.255c-2.86 2.86-6.154 4.201-7.358 2.996s.137-4.499 2.996-7.358 6.154-4.201 7.358-2.996c1.204 1.205-.137 4.5-2.996 7.358z"/></g></svg>