<svg version="1.1" id="Layer_1" xmlns="http://www.w3.org/2000/svg" x="0" y="0" viewBox="0 0 64 64" xml:space="preserve"><style type="text/css">.st0{fill:#4b8e3d}.st1{fill:#c8cac9}</style><circle class="st0" cx="32" cy="32" r="28.9"/><path class="st1" d="M10.4 50.2l1.2 1.1.8-39.5-2 2zM51.5 11.8l1 39.5 1-1.1V13.8zM47.7 10.5v3.6l-2.4-2.3H18.6l-2.2 2.3v-3.6h-2.6l1.1 43h1.5v-3.6l2.2 2.3h26.7l2.4-2.3v3.6H49l1.3-43z"/><g><path class="st0" d="M34.6 47.8h-5.3c-.1 0-.3.1-.3.3v.7c0 .2.1.3.3.3h5.3c.2 0 .3-.1.3-.3v-.7c0-.2-.1-.3-.3-.3zM34.9 33c0-1.8-.5-3.4-.5-6.6h-4.7c0 3.2-.5 4.9-.5 6.6v13.4c0 .4.3.7.6.7h4.5c.4 0 .7-.3.7-.7V33h-.1zM29.6 25.7h4.7v-3.6c0-1.5-1.3-7.1-2.4-7.1-1 0-2.4 5.7-2.4 7.1l.1 3.6zM47.9 33.9L35.3 16c-.2-.3-.7-.4-1-.2-.3.2-.4.7-.2 1L47.9 39v-5.1zM43.2 36.7l-6.8-15.1c-.1-.4-.5-.5-.9-.4s-.5.5-.4.9l7.5 19.6.6-5zM16.1 33.9L28.7 16c.2-.3.6-.4 1-.2s.4.6.2 1L16.1 38.9v-5zM20.8 36.7l6.8-15.1c.1-.4.5-.5.9-.4s.5.5.4.9l-7.5 19.6-.6-5z"/></g></svg>