<?xml version="1.0" encoding="utf-8"?>
<!-- Generator: Adobe Illustrator 21.0.1, SVG Export Plug-In . SVG Version: 6.00 Build 0)  -->
<svg version="1.1" id="Layer_1" xmlns="http://www.w3.org/2000/svg" xmlns:xlink="http://www.w3.org/1999/xlink" x="0px" y="0px"
	 viewBox="0 0 64 64" style="enable-background:new 0 0 64 64;" xml:space="preserve">
<style type="text/css">
	.st0{fill:#C8CAC9;}
	.st1{fill:#207E70;}
</style>
<g>
	<path class="st0" d="M31.948,60.9L6.986,46.488l0.052-28.895L32.036,3.1l24.962,14.412l-0.054,28.894L31.948,60.9z M12.365,43.389
		L31.942,54.69l19.634-11.383l0.041-22.696L32.042,9.309L12.407,20.692L12.365,43.389z"/>
	<polygon class="st1" points="54.308,19.061 54.261,44.857 31.945,57.795 9.676,44.938 9.722,19.143 32.039,6.204 	"/>
</g>
<g>
	<path class="st0" d="M30.688,32.856c-0.139,0.418-0.294,0.905-0.46,1.482c-0.168,0.581-0.245,1.458-0.279,2.126
		c1.442,1.067,2.38,2.774,2.38,4.705c0,3.234-2.621,5.855-5.855,5.855s-5.855-2.621-5.855-5.855c0-3.191,2.554-5.781,5.728-5.848
		c0.064-0.661,0.169-1.383,0.349-2.005c0.159-0.55,0.306-1.022,0.443-1.443l-0.629-1.141c-0.459-0.839-1.407-1.32-2.345-1.133
		c-0.488,0.097-0.962,0.232-1.426,0.387c-0.419-0.608-1.12-1.008-1.912-1.008c-1.281,0-2.325,1.043-2.325,2.325
		c0,0.351,0.084,0.681,0.224,0.979c-0.265,0.232-0.523,0.47-0.766,0.724c-0.659,0.687-0.76,1.74-0.303,2.575l0.619,1.132
		l0.004-0.001l0,0c-0.724,1.326-1.136,2.844-1.136,4.457c0,5.144,4.186,9.33,9.33,9.33s9.33-4.186,9.33-9.33
		C35.805,37.541,33.719,34.399,30.688,32.856z M20.092,31.303c0-0.407,0.329-0.736,0.736-0.736s0.736,0.329,0.736,0.736
		s-0.329,0.736-0.736,0.736S20.092,31.709,20.092,31.303z"/>
	<path class="st0" d="M31.995,15.313c0.31,0.313,0.676,0.671,1.115,1.079c0.442,0.412,1.189,0.877,1.772,1.209
		c1.602-0.805,3.55-0.872,5.272,0c2.885,1.46,4.04,4.983,2.58,7.867c-1.46,2.885-4.983,4.04-7.867,2.58
		c-2.847-1.441-4.005-4.889-2.632-7.751c-0.561-0.355-1.157-0.776-1.632-1.217c-0.418-0.391-0.775-0.735-1.088-1.047l-1.302,0.047
		c-0.956,0.031-1.813,0.66-2.07,1.581c-0.133,0.479-0.227,0.962-0.298,1.447c-0.731,0.1-1.405,0.544-1.762,1.251
		c-0.578,1.143-0.12,2.546,1.025,3.124c0.313,0.159,0.645,0.232,0.976,0.243c0.086,0.34,0.184,0.68,0.3,1.011
		c0.316,0.898,1.209,1.464,2.161,1.433l1.29-0.042v-0.004l0,0c0.856,1.244,2.025,2.298,3.464,3.027
		c4.59,2.324,10.214,0.479,12.538-4.112c2.324-4.59,0.479-10.214-4.112-12.538C38.486,12.864,34.739,13.305,31.995,15.313z
		 M25.825,24.066c-0.363-0.184-0.508-0.627-0.324-0.989s0.627-0.508,0.989-0.324s0.508,0.627,0.324,0.989
		S26.188,24.25,25.825,24.066z"/>
	<path class="st0" d="M19.937,30.095c-0.187,0-0.375-0.028-0.559-0.086c-0.477-0.148-0.867-0.474-1.099-0.916
		c-0.233-0.443-0.279-0.948-0.129-1.424l0.511-1.639c0.307-0.984,1.354-1.535,2.342-1.228c0.477,0.148,0.867,0.474,1.1,0.916
		c0.232,0.443,0.277,0.948,0.129,1.424l-0.511,1.638c-0.149,0.476-0.474,0.867-0.918,1.099
		C20.532,30.023,20.237,30.095,19.937,30.095z M20.448,25.907c-0.289,0-0.557,0.186-0.647,0.476l-0.511,1.639
		c-0.054,0.173-0.038,0.356,0.047,0.517c0.084,0.16,0.224,0.279,0.398,0.332c0.173,0.054,0.356,0.038,0.517-0.047
		c0.16-0.084,0.279-0.226,0.332-0.398l0.511-1.638c0.054-0.173,0.038-0.356-0.047-0.517c-0.084-0.16-0.224-0.279-0.398-0.333
		C20.582,25.917,20.514,25.907,20.448,25.907z"/>
	<path class="st0" d="M21.469,25.948c-0.672,0-1.322-0.363-1.656-0.997c-0.233-0.442-0.281-0.947-0.134-1.424
		c0.148-0.477,0.471-0.868,0.914-1.103l1.518-0.802c0.442-0.233,0.946-0.282,1.424-0.133c0.477,0.147,0.869,0.471,1.101,0.913
		c0.233,0.442,0.281,0.947,0.134,1.424c-0.148,0.477-0.471,0.868-0.914,1.103l-1.518,0.802
		C22.061,25.878,21.762,25.948,21.469,25.948z M22.982,22.598c-0.109,0-0.216,0.026-0.316,0.079l-1.518,0.802
		c-0.16,0.084-0.279,0.227-0.332,0.4c-0.053,0.173-0.036,0.356,0.048,0.517c0.175,0.331,0.585,0.459,0.916,0.282l1.518-0.802
		c0.16-0.084,0.279-0.227,0.332-0.4s0.036-0.356-0.048-0.517c-0.085-0.16-0.227-0.278-0.401-0.332
		C23.117,22.608,23.05,22.598,22.982,22.598z"/>
</g>
</svg>
