<svg version="1.1" id="Layer_1" xmlns="http://www.w3.org/2000/svg" x="0" y="0" viewBox="0 0 64 64" xml:space="preserve"><style type="text/css">.st0{fill:#c8cac9}</style><path class="st0" d="M31.95 60.9L6.99 46.49l.05-28.9 25-14.49L57 17.51l-.05 28.89-25 14.5zM12.36 43.39l19.58 11.3 19.63-11.38.04-22.7-19.57-11.3-19.63 11.38-.05 22.7z"/><path fill="#682323" d="M54.31 19.06l-.05 25.8-22.32 12.93L9.68 44.94l.04-25.8L32.04 6.2z"/><g><path class="st0" d="M18.02 38.38c-.23-.2-.22-.55.01-.75l2.83-2.39c.2-.17.46-.27.72-.26.42.02 1.1-.15 1.92-.69.95-.62 1.38-1.3 1.3-2-.05-.4.18-.78.5-1.02l15.26-11.21c.67.17 1.06.67 1.17 1.45l-2.59 2.07.28.37c.37.48.29 1.18-.19 1.56l-5.22 4.15c-.45.36-1.11.32-1.51-.11l-.58-.61-3.21 2.5-.34 3.64c-.01.11-.1.19-.21.19h-1.19l-.6.55.04 2.38c0 .12-.09.21-.21.21h-1.89c-.23 0-.43.16-.49.38-.3 1.22-1.31 4.97-2.48 4.9-1.29-.09-1.17-3.47-3.32-5.31zM24.49 24.21c-.37.48-.29 1.18.19 1.56l2.35 1.87 3.14-2.3-6.82-5.01c-.67.17-1.06.67-1.17 1.45l2.59 2.07-.28.36zM45.88 37.89l-2.83-2.39c-.2-.17-.46-.27-.72-.26-.42.02-1.1-.15-1.92-.69-.95-.62-1.38-1.3-1.3-2 .05-.4-.18-.78-.5-1.02l-2.03-1.49-1.38 1.1c-.12.1-.25.18-.39.26l.38.3.34 3.64c.01.11.1.19.21.19h1.19l.6.55-.04 2.38c0 .12.09.21.21.21h1.89c.23 0 .43.16.49.38.3 1.22 1.31 4.97 2.48 4.9 1.31-.08 1.2-3.46 3.34-5.31.22-.2.21-.55-.02-.75zM43.17 14.52L32 11.5l-11.17 3.02v2.44L32 13.93l11.17 3.03zM43.17 49.48L32 52.5l-11.17-3.02v-2.44L32 50.07l11.17-3.03zM49.48 43.17L52.5 32l-3.02-11.17h-2.44L50.07 32l-3.03 11.17zM14.52 43.17L11.5 32l3.02-11.17h2.44L13.93 32l3.03 11.17z"/></g></svg>