<svg version="1.1" id="Layer_1" xmlns="http://www.w3.org/2000/svg" x="0" y="0" viewBox="0 0 64 64" xml:space="preserve"><style type="text/css">.st1{fill:#c4bc2c}</style><circle cx="32" cy="32" r="28.9" fill="#93581c"/><path class="st1" d="M52.167 12.74v-1.7a3.54 3.54 0 0 0-3.54-3.54h-.291c-1.229 0-2.434.257-3.606.627-.907.286-2.041.457-3.278.457-1.238 0-2.371-.171-3.278-.457-1.173-.37-2.378-.627-3.607-.627h-5.135c-1.229 0-2.434.257-3.606.627-.907.286-2.041.457-3.278.457-1.238 0-2.371-.171-3.278-.457-1.172-.37-2.377-.627-3.606-.627h-.291a3.54 3.54 0 0 0-3.54 3.54v1.7c0 1.226.238 2.428.626 3.591.333.998.535 2.294.535 3.722s-.202 2.724-.535 3.722c-.388 1.163-.626 2.365-.626 3.591v4.614l.001.015-.001.015v4.624c0 1.226.238 2.428.626 3.591.333.998.535 2.294.535 3.722s-.202 2.724-.535 3.722c-.388 1.163-.626 2.365-.626 3.591v1.7a3.54 3.54 0 0 0 3.54 3.54h.291c1.229 0 2.434-.257 3.606-.627.907-.286 2.041-.457 3.278-.457 1.238 0 2.371.171 3.278.457 1.172.369 2.377.627 3.606.627h5.135c1.229 0 2.434-.257 3.606-.627.907-.286 2.041-.457 3.278-.457 1.238 0 2.371.171 3.278.457 1.172.369 2.377.627 3.606.627h.291a3.54 3.54 0 0 0 3.54-3.54v-1.7c0-1.226-.238-2.428-.626-3.591-.333-.998-.535-2.294-.535-3.722s.202-2.724.535-3.722c.388-1.163.626-2.365.626-3.591V32.01l-.001-.015.001-.015v-4.614c0-1.226-.238-2.428-.626-3.591-.333-.998-.535-2.294-.535-3.722s.202-2.724.535-3.722c.389-1.163.627-2.365.627-3.591zm-2.411-3.172a.593.593 0 1 1 0 1.186.593.593 0 0 1 0-1.186zM32 8.611a.593.593 0 1 1 0 1.186.593.593 0 0 1 0-1.186zm15.956 2.345l-2.661 2.661H18.706l-2.661-2.661h31.911zm-3.061 4.023v34.042h-25.79V14.979h25.79zM12.851 32a.593.593 0 1 1 1.186 0 .593.593 0 0 1-1.186 0zm1.393 22.362a.593.593 0 1 1 0-1.186.593.593 0 0 1 0 1.186zm0-43.607a.593.593 0 1 1 0-1.186.593.593 0 0 1 0 1.186zm.838 41.327V11.918l2.661 2.661V49.42l-2.661 2.662zM32 55.319a.593.593 0 1 1 0-1.186.593.593 0 0 1 0 1.186zm-15.956-2.275l2.662-2.662h26.452l2.662 2.662H16.044zm32.874-.826l-2.661-2.661V14.579l2.661-2.661v40.3zm.838 2.144a.593.593 0 1 1 0-1.186.593.593 0 0 1 0 1.186zm.593-21.769a.593.593 0 1 1 0-1.186.593.593 0 0 1 0 1.186z"/><circle class="st1" cx="37.474" cy="21.684" r="4.745"/><path class="st1" d="M43.533 37.209c-1.314-.516-3.169 1.141-4.693 1.212-1.651.077-3.843-1.96-6.112-1.96-3.172 0-7.582 2.527-12.262 2.579v8.62h23.067V37.209zM38.841 35.241c1.523-.071 3.378-1.728 4.693-1.212v-1.733c-1.314-.516-3.169 1.141-4.693 1.212-1.651.077-3.843-1.96-6.112-1.96-3.172 0-7.582 2.527-12.262 2.579v1.733c4.68-.052 9.09-2.579 12.262-2.579 2.269 0 4.461 2.038 6.112 1.96z"/></svg>