<svg xmlns="http://www.w3.org/2000/svg" viewBox="0 0 64 64" enable-background="new 0 0 64 64"><style type="text/css">.st0{fill:#385E2F;} .st1{fill:#53A55D;}</style><circle class="st0" cx="32" cy="32" r="28.9"/><path class="st1" d="M41.333 30.674v-22.174h-18.974v22.174h-11.212v21.397h11.213v1.429h18.973v-1.429h11.213v-21.397h-11.213zm-21.666 18.897h-5.171v-3.036h5.171v3.036zm0-6.205h-5.171v-9.701h5.171v9.701zm18.044 8.116h-11.295v-4.598h11.295v4.598zm0-7.77h-11.295v-9.866h11.295v9.866zm0-13.038h-11.295v-3.96h11.295v3.96zm0-7.132h-11.295v-3.96h11.295v3.96zm0-7.131h-11.295v-3.96h11.295v3.96zm11.506 33.16h-5.171v-3.036h5.171v3.036zm0-6.205h-5.171v-9.701h5.171v9.701zM21.012 26.981v-2.722h-8.058v3.795h7.098zM51.185 28.054v-3.795h-8.058v2.722l.96 1.073zM1.9 27.652h3.839l2.455 2.455-1.696 21.964h-4.598zM62.1 27.652h-3.839l-2.455 2.455 1.696 21.964h4.598z"/></svg>