<svg version="1.1" id="Layer_1" xmlns="http://www.w3.org/2000/svg" x="0" y="0" viewBox="0 0 64 64" xml:space="preserve"><style type="text/css">.st0{fill:#3a508e}.st1{fill:#c8cac9}</style><circle class="st0" cx="32" cy="32" r="28.9"/><path class="st1" d="M10.4 50.2l1.2 1.1.8-39.5-2 2zM51.5 11.8l1 39.5 1-1.1V13.8zM47.7 10.5v3.6l-2.4-2.3H18.6l-2.2 2.3v-3.6h-2.6l1.1 43h1.5v-3.6l2.2 2.3h26.7l2.4-2.3v3.6H49l1.3-43z"/><g><path class="st0" d="M27.4 48.7h-5.6c-.2 0-.3.1-.3.3v.7c0 .2.1.3.3.3h5.6c.2 0 .3-.1.3-.3V49c0-.1-.1-.3-.3-.3zM27.7 33c0-1.9-.6-3.6-.6-7h-5c0 3.4-.6 5.1-.6 7v14.2c0 .4.3.7.7.7H27c.4 0 .7-.3.7-.7V33zM22.1 25.4h5v-3.8c0-1.5-1.4-7.5-2.5-7.5s-2.5 6-2.5 7.5v3.8zM28.9 25.4l1.3 3.2 10.1-5.2-3-2.2 9.2-6-14.8 4.6 2.1 2.5zM36 32.2l-1.2-3.6 11.7 4.5h-6.7l.9 3.3-9.5-1v-3.9zM28.9 39.4l2.3-1.8 2.4 3.8 1.9-2.5 4.5 9.9-5-4.6-1.7 1.7z"/></g></svg>