<?xml version="1.0" encoding="utf-8"?>
<!-- Generator: Adobe Illustrator 21.0.1, SVG Export Plug-In . SVG Version: 6.00 Build 0)  -->
<svg version="1.1" id="Layer_1" xmlns="http://www.w3.org/2000/svg" xmlns:xlink="http://www.w3.org/1999/xlink" x="0px" y="0px"
	 viewBox="0 0 64 64" style="enable-background:new 0 0 64 64;" xml:space="preserve">
<style type="text/css">
	.st0{fill:#3A508E;}
	.st1{fill:#C8CAC9;}
</style>
<g>
	<circle class="st0" cx="32" cy="32" r="28.9"/>
</g>
<rect x="10.1" y="10.1" class="st1" width="43.8" height="43.8"/>
<g>
	<g>
		<g>
			<path class="st0" d="M20.464,43.875v-3.451l-6.505,6.505h3.451C19.096,46.927,20.462,45.561,20.464,43.875z"/>
			<path class="st0" d="M24.536,43.875v-6.107c0.003-2.435,1.976-4.408,4.411-4.411h4.411v-2.714H13v2.714h4.411
				c2.435,0.003,4.408,1.976,4.411,4.411v6.107c-0.003,2.435-1.976,4.408-4.411,4.411H13V51h20.357v-2.714h-4.411
				C26.512,48.283,24.539,46.31,24.536,43.875z"/>
			<polygon class="st0" points="50.041,13 30.245,13 13.96,29.286 33.755,29.286 			"/>
			<polygon class="st0" points="34.714,30.245 34.714,32.398 42.038,25.074 51,16.112 51,13.96 			"/>
			<polygon class="st0" points="34.714,47.879 34.714,49.982 47.115,36.961 51,33.076 51,30.924 48.087,33.837 			"/>
			<path class="st0" d="M50.04,29.964h-3.451c-0.058-0.004-0.115-0.015-0.17-0.034c-0.055,0.019-0.112,0.03-0.17,0.034
				c-1.893-0.003-3.573-1.212-4.177-3.006l-7.557,7.557c-0.128,0.127-0.3,0.198-0.48,0.199h-5.089
				c-1.686,0.002-3.052,1.368-3.054,3.054v6.107c0.002,1.686,1.368,3.052,3.054,3.054h4.798l13.371-14.039L50.04,29.964z
				 M29.089,44.662c-0.194,0.196-0.487,0.255-0.742,0.149s-0.42-0.355-0.418-0.631c0-0.375,0.304-0.679,0.679-0.679
				c0.375,0,0.679,0.304,0.679,0.679C29.288,44.361,29.217,44.534,29.089,44.662z M31.813,41.807l-0.679,0.711
				c-0.259,0.271-0.688,0.281-0.96,0.023c-0.271-0.259-0.281-0.688-0.023-0.96l0.679-0.711c0.167-0.175,0.416-0.248,0.651-0.191
				c0.236,0.057,0.423,0.236,0.491,0.469C32.041,41.38,31.98,41.631,31.813,41.807z M34.527,38.963l-0.679,0.711
				c-0.259,0.271-0.688,0.281-0.96,0.023c-0.271-0.259-0.281-0.688-0.023-0.96l0.679-0.711c0.259-0.271,0.688-0.281,0.96-0.023
				C34.775,38.263,34.786,38.692,34.527,38.963z M37.241,36.12l-0.679,0.711c-0.259,0.271-0.688,0.281-0.96,0.023
				s-0.281-0.688-0.023-0.96l0.679-0.711c0.259-0.271,0.688-0.281,0.96-0.023C37.49,35.419,37.5,35.849,37.241,36.12z
				 M39.955,33.276l-0.679,0.711c-0.167,0.175-0.416,0.248-0.651,0.191c-0.236-0.057-0.423-0.236-0.491-0.469
				c-0.068-0.233-0.007-0.484,0.16-0.66l0.679-0.711c0.259-0.271,0.688-0.281,0.96-0.023C40.204,32.575,40.214,33.005,39.955,33.276
				z M41.982,31.152c-0.127,0.13-0.3,0.203-0.482,0.203s-0.355-0.073-0.482-0.203c-0.129-0.124-0.2-0.296-0.197-0.475
				c-0.002-0.276,0.164-0.525,0.418-0.631c0.255-0.106,0.548-0.047,0.742,0.149c0.125,0.129,0.195,0.302,0.197,0.482
				C42.182,30.855,42.11,31.028,41.982,31.152z"/>
		</g>
	</g>
</g>
</svg>
