<svg xmlns="http://www.w3.org/2000/svg" viewBox="0 0 64 64" enable-background="new 0 0 64 64"><style type="text/css">.st0{fill:#511620;} .st1{fill:#FFF35C;} .st2{fill:#EAEAEA;}</style><circle class="st0" cx="31.9" cy="32" r="28.8"/><path class="st1" d="M11.3 42.6l-5.4 1.8c4.1 8.7 12.5 15.1 22.5 16.3v-5.7c-7.5-1.2-13.8-5.9-17.1-12.4zM8.7 31.9c0-6.4 2.6-12.3 6.8-16.5l-3.3-4.4c-5.6 5.2-9.1 12.7-9.1 21 0 1.9.2 3.7.5 5.5l5.4-1.7c-.2-1.3-.3-2.6-.3-3.9zM45.9 6.7c-4.1-2.3-8.9-3.6-13.9-3.6-5.1 0-9.8 1.3-13.9 3.6l3.2 4.5c3.2-1.7 6.8-2.6 10.7-2.6 3.8 0 7.5.9 10.7 2.6l3.2-4.5zM51.8 11l-3.2 4.5c4.2 4.2 6.8 10.1 6.8 16.5 0 1.3-.1 2.6-.3 3.8l5.4 1.8c.3-1.8.5-3.6.5-5.4-.1-8.5-3.6-16-9.2-21.2zM35.6 55v5.7c10-1.2 18.4-7.6 22.5-16.4l-5.4-1.8c-3.3 6.6-9.6 11.3-17.1 12.5z"/><path class="st2" d="M17.2 35.4c-.5.4-1.4.1-2.5-1 .2 5.1 3.8 11 5 13 2.3.5 4.5 1.4 6.5 2.5.6 1.1 1.1 2.3 1.4 3.5h8.8c.3-1.2.8-2.4 1.4-3.5 2.1-1.1 4.3-1.9 6.5-2.5 1.2-2 4.7-7.9 5-13-1.1 1.1-1.9 1.4-2.5 1-1-1.5-2.2-2.8-3.6-3.9.1-1.3 2.9-14.7 2.9-14.7-6.5-8.3-21.9-8.6-28.2 0 0 0 2.8 13.4 2.9 14.7-1.4 1.1-2.6 2.5-3.6 3.9zm29.4 1.8c.2 4.6-5.7 7.2-6.9 7.2-1.6-.2-3.2-.7-4.6-1.5-.8-.9-1.3-2-1.5-3.2 2.6.1 10.6-2.5 13-2.5zm-14.6 6.3c1.4 0 3.3 3.3 3.7 4.2-.2.7-.5 1.2-1 1.7h-5.3c-.5-.5-.9-1-1-1.7.2-.9 2.2-4.2 3.6-4.2zm-3.2-.6c-1.4.8-3 1.3-4.6 1.5-1.2 0-7.1-2.6-6.9-7.2 2.4 0 10.5 2.5 13 2.5-.2 1.2-.7 2.3-1.5 3.2z"/></svg>