<?xml version="1.0" encoding="utf-8"?>
<!-- Generator: Adobe Illustrator 21.0.1, SVG Export Plug-In . SVG Version: 6.00 Build 0)  -->
<svg version="1.1" id="Layer_1" xmlns="http://www.w3.org/2000/svg" xmlns:xlink="http://www.w3.org/1999/xlink" x="0px" y="0px"
	 viewBox="0 0 64 64" style="enable-background:new 0 0 64 64;" xml:space="preserve">
<style type="text/css">
	.st0{fill:#93581C;}
	.st1{fill:#C8CAC9;}
</style>
<g>
	<circle class="st0" cx="32" cy="32" r="28.9"/>
</g>
<g>
	<polygon class="st1" points="10.3,50.2 11.4,51.3 12.3,11.8 10.3,13.8 	"/>
	<polygon class="st1" points="51.4,11.8 52.3,51.3 53.4,50.2 53.4,13.8 	"/>
	<polygon class="st1" points="47.5,10.5 47.5,14.1 45.2,11.8 31.8,11.8 18.5,11.8 16.2,14.1 16.2,10.5 13.6,10.5 13.6,10.5 
		14.8,53.5 16.2,53.5 16.2,49.9 18.5,52.2 31.8,52.2 45.2,52.2 47.5,49.9 47.5,53.5 48.9,53.5 50.1,10.5 50.1,10.5 	"/>
</g>
<g>
	<g>
		<path class="st0" d="M37.8,33H26.2c-0.5,0-0.8,0.4-0.8,0.8V43c0,0.5,0.4,0.8,0.8,0.8h11.6c0.5,0,0.8-0.4,0.8-0.8v-9.1
			C38.6,33.4,38.3,33,37.8,33z"/>
		<path class="st0" d="M23.8,19.8L21.6,16c-0.1-0.1,0-0.2,0.1-0.2l2.2-1.3c0.1-0.1,0.2,0,0.2,0.1l2.2,3.8c0.1,0.1,0,0.2-0.1,0.2
			L24,19.9C23.9,20,23.8,19.9,23.8,19.8z"/>
		<path class="st0" d="M40.4,19.8l2.2-3.8c0.1-0.1,0-0.2-0.1-0.2l-2.2-1.4c-0.1-0.1-0.2,0-0.2,0.1l-2.2,3.8c-0.1,0.1,0,0.2,0.1,0.2
			l2.2,1.3C40.2,20,40.4,19.9,40.4,19.8z"/>
	</g>
	<g>
		<path class="st0" d="M43.6,38.9c0-0.4,0-0.7,0-1.1h-3.5c-0.1,0-0.1,0-0.1,0v1.1c0.1,0,0.1,0,0.1,0H43.6z"/>
		<path class="st0" d="M24,38.9v-1.1c-0.1,0-0.1,0-0.1,0h-3.5c0,0.4,0,0.7,0,1.1h3.4C23.9,38.9,23.9,38.9,24,38.9z"/>
		<path class="st0" d="M40.2,43.4C40.1,43.4,40.1,43.4,40.2,43.4l-0.1,0.6c0,0.5-0.4,0.8-0.8,0.8H24.7c-0.5,0-0.8-0.4-0.8-0.8v-0.6
			c-0.1,0-0.1,0-0.1,0h-3.3c0.2,2.5,0.3,4.3,0.3,4.3c0,0.9,0.7,1.7,1.7,1.7h8.8h1.4h8.8c0.9,0,1.7-0.7,1.7-1.7c0,0,0.2-1.8,0.3-4.3
			H40.2z"/>
		<path class="st0" d="M20.8,31c-0.2,0.3-0.4,1.1-0.5,2.2h3.4c0.1,0,0.1,0,0.1,0v-0.6c0-0.5,0.4-0.8,0.8-0.8h14.5
			c0.5,0,0.8,0.4,0.8,0.8v0.6c0.1,0,0.1,0,0.1,0h3.4c-0.1-1.1-0.2-2-0.5-2.3c-3.8-4.9,0.6-10.7,0.6-12.3c0-0.5-0.3-1.1-0.8-1.8
			l-2.1,3.7c-0.1,0.2-0.3,0.2-0.5,0.1l-3-1.8c-0.2-0.1-0.2-0.3-0.1-0.5l2-3.6c-0.7-0.1-1.6-0.1-2.5,0.2c-0.4,0.1-0.6,0.5-0.6,0.8
			c-0.2,2.5-2.1,3.5-4.1,3.5c-2,0-3.8-1-4.1-3.4c0-0.4-0.2-0.7-0.6-0.8c-0.8-0.2-1.6-0.3-2.3-0.2l2,3.6c0.1,0.2,0,0.3-0.1,0.5
			l-3,1.8c-0.2,0.1-0.3,0-0.5-0.1l-2.2-3.8c-0.6,0.6-0.9,1.5-0.9,1.9C20.3,20.4,24.6,26.2,20.8,31z M27.2,29.3h9.6
			c0.4,0,0.6,0.3,0.6,0.6c0,0.4-0.3,0.6-0.6,0.6h-9.6c-0.4,0-0.6-0.3-0.6-0.6C26.5,29.6,26.8,29.3,27.2,29.3z"/>
	</g>
	<g>
		<path class="st0" d="M24,37.4h-5c-0.2,0-0.4-0.2-0.4-0.4v-3c0-0.2,0.2-0.4,0.4-0.4h5c0.2,0,0.4,0.2,0.4,0.4v3
			C24.3,37.3,24.2,37.4,24,37.4z"/>
		<path class="st0" d="M24,43.1h-5c-0.2,0-0.4-0.2-0.4-0.4v-3c0-0.2,0.2-0.4,0.4-0.4h5c0.2,0,0.4,0.2,0.4,0.4v3
			C24.3,42.9,24.2,43.1,24,43.1z"/>
		<path class="st0" d="M45,37.5h-5c-0.2,0-0.4-0.2-0.4-0.4v-3c0-0.2,0.2-0.4,0.4-0.4h5c0.2,0,0.4,0.2,0.4,0.4v3
			C45.4,37.3,45.2,37.5,45,37.5z"/>
		<path class="st0" d="M45,43.1h-5c-0.2,0-0.4-0.2-0.4-0.4v-3c0-0.2,0.2-0.4,0.4-0.4h5c0.2,0,0.4,0.2,0.4,0.4v3
			C45.4,42.9,45.2,43.1,45,43.1z"/>
	</g>
</g>
</svg>
