<?xml version="1.0" encoding="utf-8"?>
<!-- Generator: Adobe Illustrator 21.0.1, SVG Export Plug-In . SVG Version: 6.00 Build 0)  -->
<svg version="1.1" id="Layer_1" xmlns="http://www.w3.org/2000/svg" xmlns:xlink="http://www.w3.org/1999/xlink" x="0px" y="0px"
	 viewBox="0 0 64 64" style="enable-background:new 0 0 64 64;" xml:space="preserve">
<style type="text/css">
	.st0{fill:#2F3477;}
	.st1{display:none;}
	.st2{display:inline;fill:#5F66FE;}
	.st3{fill:#5F66FE;}
</style>
<circle class="st0" cx="32" cy="32" r="28.9"/>
<g class="st1">
	<path class="st2" d="M56.63,29.74c-0.45-4.91-2.37-9.39-5.29-13.03l-1.55,2.43l0,0l-1.08,1.7c2.16,3.18,3.42,7.02,3.42,11.15
		c0,9.69-6.93,17.75-16.1,19.52l-5.44,7.85L32,64l2.31-7.6c11.8-1,21.24-10.37,22.32-22.14L64,32L56.63,29.74z"/>
	<path class="st2" d="M10.12,42.54l2.93-5.35c-0.45-1.66-0.71-3.39-0.71-5.19c0-10.99,8.91-19.89,19.89-19.89
		c3.52,0,6.82,0.92,9.69,2.53l1.68-2.31l0,0l0.11-0.15l0,0l0.93-1.28c-3.08-1.81-6.58-2.98-10.33-3.3L32,0l-2.32,7.63
		C18.14,8.83,8.96,18.07,7.85,29.63L0,32l7.85,2.37C8.13,37.27,8.92,40.02,10.12,42.54z"/>
</g>
<g>
	<path class="st3" d="M40.73,34.5c0.06,0.45,0.28,0.81,0.62,1.02s0.76,0.24,1.19,0.09c0.45-0.16,0.85-0.49,1.13-0.94
		s0.4-0.96,0.33-1.44c-0.06-0.45-0.28-0.82-0.62-1.02c-0.21-0.13-0.44-0.18-0.67-0.18c-0.6,0-1.25,0.38-1.65,1.03
		C40.78,33.52,40.66,34.03,40.73,34.5z"/>
	<path class="st3" d="M33.16,22.39c1.55,1.05,3.34,1.11,4.01,0.13l0.73-1.08c-0.1,0.15-0.2,0.22-0.38,0.27
		c-0.41,0.12-0.82,0.12-1.21,0.07c-0.79-0.1-1.52-0.43-2.16-0.85c-0.63-0.44-1.21-1-1.59-1.7c-0.19-0.35-0.33-0.74-0.38-1.16
		c0-0.17,0.05-0.29,0.11-0.44l-0.73,1.07C30.9,19.69,31.62,21.34,33.16,22.39z"/>
	<path class="st3" d="M55.11,6.54c-0.26-0.63-0.65-1.1-1.2-1.47c-0.54-0.37-1.15-0.55-1.8-0.57c-0.23-0.01-0.44,0.11-0.58,0.3
		c-0.73,1.01-3.23,4.45-5.87,8.1c-0.08,0.93,0.36,1.91,1.23,2.5c0.87,0.59,1.94,0.64,2.78,0.23l5.38-8.44
		C55.17,6.99,55.2,6.75,55.11,6.54z"/>
	<path class="st3" d="M33.11,18.94c0.32,0.59,0.83,1.09,1.39,1.48c0.57,0.38,1.22,0.67,1.89,0.75c0.33,0.04,0.69,0,0.97-0.05
		c0.38-0.07,0.68-0.14,0.97-0.31l1.13-1.66c0.67-0.98-0.05-2.63-1.59-3.68c-1.55-1.05-3.34-1.11-4.01-0.13L32.73,17
		c-0.01,0.38,0.01,0.72,0.05,1.03C32.84,18.35,32.95,18.65,33.11,18.94z M35.83,15.48c0.26-0.39,1.1-0.28,1.87,0.25
		s1.18,1.26,0.92,1.65s-1.1,0.28-1.87-0.25S35.56,15.87,35.83,15.48z"/>
	<path class="st3" d="M44.04,19.58c0.97,0.66,2.18,0.65,3.06,0.07l0.73-1.14c-0.89,0.2-1.87,0.06-2.71-0.51
		c-0.83-0.57-1.33-1.43-1.47-2.33c-0.27,0.37-0.53,0.74-0.79,1.09C42.64,17.79,43.07,18.92,44.04,19.58z"/>
	<path class="st3" d="M46.54,15.91c-0.8-0.55-1.3-1.36-1.46-2.22c-0.28,0.39-0.56,0.77-0.84,1.16c-0.14,0.98,0.3,2.02,1.22,2.64
		c0.92,0.62,2.05,0.65,2.91,0.16l0.77-1.2C48.28,16.62,47.34,16.45,46.54,15.91z"/>
	<path class="st3" d="M38.13,23.63c0.16,0.96,0.69,1.74,1.57,2.34c0.88,0.6,1.81,0.83,2.76,0.61c0.18-0.04,0.33-0.17,0.43-0.32
		l3.62-5.68c-0.91,0.24-1.94,0.11-2.81-0.48c-0.87-0.59-1.37-1.5-1.48-2.44c-1.89,2.61-3.45,4.76-3.95,5.45
		C38.15,23.26,38.09,23.45,38.13,23.63z"/>
	<path class="st3" d="M47.83,27.37l-3.29-2.55l-1.13,1.77c-0.19,0.3-0.49,0.51-0.81,0.59c-0.29,0.07-0.58,0.1-0.86,0.1
		c-0.81,0-1.6-0.27-2.39-0.8c-1.03-0.7-1.65-1.63-1.83-2.75c-0.06-0.33,0.03-0.68,0.23-0.96l-0.07,0.1
		c-0.87,1.28-3.01,1.3-4.87,0.03c-1.86-1.26-2.63-3.26-1.75-4.54l0.1-0.15h-5.81c-0.54,0-1.04,0.28-1.32,0.74l-8.06,13.1
		c-0.36,0.58-0.55,1.26-0.55,1.94v2.49c0,0.38-0.1,0.76-0.28,1.09L9.26,48.27c-0.82,1.49-0.41,3.36,0.95,4.38l8.6,6.42
		c0.4,0.3,0.88,0.45,1.38,0.44l7.04-0.21c0.63-0.02,1.22-0.34,1.58-0.86l7.53-10.87h-8.36L20.3,58.75c-0.48,0.06-0.8-0.04-1.08-0.41
		l8.6-12.35c0.1-0.14,0.24-0.26,0.4-0.33l2.04-0.87c0.17-0.08,0.32-0.2,0.42-0.36l8.98-14.15c0.2-0.31,0.12-0.72-0.17-0.93
		l-6.67-4.95l7.27,4.83c0.31,0.21,0.4,0.63,0.21,0.95l-8.74,14.07c-0.15,0.25,0.02,0.57,0.31,0.57l6.57,0.14
		c0.07-0.05,0.13-0.1,0.2-0.14l0.79-0.45c0.39-0.22,0.73-0.54,0.97-0.92l8.08-12.47C49.25,29.78,48.96,28.21,47.83,27.37z
		 M29.91,41.53l-0.17,0.25c-0.13,0.19-0.4,0.24-0.59,0.11l-11.89-8.09c-0.19-0.13-0.25-0.4-0.11-0.59l0.17-0.25
		c0.13-0.19,0.4-0.24,0.59-0.11l11.89,8.09C29.99,41.07,30.04,41.34,29.91,41.53z M31.52,39.17l-0.17,0.25
		c-0.13,0.19-0.4,0.24-0.59,0.11l-11.89-8.09c-0.19-0.13-0.25-0.4-0.11-0.59l0.17-0.25c0.13-0.19,0.4-0.25,0.59-0.11l11.89,8.09
		C31.6,38.71,31.65,38.98,31.52,39.17z M33.12,36.81l-0.17,0.25c-0.13,0.19-0.4,0.24-0.59,0.11l-11.89-8.09
		c-0.19-0.13-0.25-0.4-0.11-0.59l0.17-0.25c0.13-0.19,0.4-0.25,0.59-0.11l11.89,8.09C33.21,36.35,33.26,36.62,33.12,36.81z
		 M36.84,30.59c0.19,0.13,0.24,0.4,0.11,0.59L34.9,34.2c-0.13,0.19-0.4,0.24-0.59,0.11l-11.89-8.09c-0.19-0.13-0.25-0.4-0.11-0.59
		l2.06-3.02c0.13-0.19,0.4-0.25,0.59-0.11L36.84,30.59z M44.2,35c-0.35,0.57-0.87,1-1.46,1.2c-0.24,0.08-0.49,0.13-0.73,0.13
		c-0.35,0-0.69-0.09-0.99-0.28c-0.5-0.31-0.82-0.83-0.91-1.47c-0.08-0.62,0.06-1.27,0.42-1.84c0.74-1.2,2.17-1.67,3.18-1.05
		c0.5,0.31,0.82,0.83,0.91,1.47C44.7,33.77,44.56,34.43,44.2,35z"/>
</g>
</svg>
