<?xml version="1.0" encoding="utf-8"?>
<!-- Generator: Adobe Illustrator 21.0.1, SVG Export Plug-In . SVG Version: 6.00 Build 0)  -->
<svg version="1.1" id="Layer_1" xmlns="http://www.w3.org/2000/svg" xmlns:xlink="http://www.w3.org/1999/xlink" x="0px" y="0px"
	 viewBox="0 0 64 64" style="enable-background:new 0 0 64 64;" xml:space="preserve">
<style type="text/css">
	.st0{fill:#D32929;}
	.st1{fill:#C8CAC9;}
</style>
<g>
	<circle class="st0" cx="32" cy="32" r="28.9"/>
</g>
<path class="st1" d="M32,3.33L4.8,23.09l10.39,31.98h33.62L59.2,23.09L32,3.33z"/>
<g>
	<g>
		<path class="st0" d="M26.13,15.4c0.07-2.13,1.17-3.71,2.88-4.81c4.26-2.61,8.79,1.1,8.86,4.46c0,1.17-0.21,2.33-0.34,3.5
			c-0.62,4.74-1.24,9.4-1.85,14.14c-0.21,1.44-0.34,2.95-0.62,4.39c-0.07,0.55-0.34,1.1-0.62,1.58c-1.17,1.85-3.71,1.85-4.87,0
			c-0.55-0.89-0.69-1.92-0.82-2.88c-0.82-6.04-1.58-12.08-2.4-18.12L26.13,15.4z"/>
	</g>
	<g>
		<path class="st0" d="M36.08,46.7c0,2.33-1.85,4.19-4.05,4.19c-2.27,0-4.05-1.92-4.05-4.19c0-2.33,1.85-4.19,4.05-4.19
			C34.3,42.51,36.08,44.37,36.08,46.7z"/>
	</g>
</g>
</svg>
