<svg xmlns="http://www.w3.org/2000/svg" viewBox="0 0 64 64" enable-background="new 0 0 64 64"><style type="text/css">.st0{fill:#682323;} .st1{fill:#C8CAC9;}</style><circle class="st0" cx="32" cy="32.8" r="28.9"/><path class="st1" d="M10.1 10.1h43.8v43.8h-43.8z"/><path class="st0" d="M48.6 18.5l-10.5-7.6-.8 1.3 3.4 2.6-4.3 6 3.5 2.6 4.3-6.2 3.5 2.6zM30.3 17.9l-1.2 1.7 2.3 1.6-12.3 17.4 1.1 3.8-2.4 3.2.9 2.7-3.3 4.7 1.9-.1 2.6-3.8 2.8-.1 2.4-3.2 4-.2 12.2-17.4 2.3 1.6 1.2-1.7-14.5-10.2zm-3.9 19.4c-.4.6-1.3.8-1.9.3s-.8-1.3-.3-1.9l4.9-7.1c.4-.6 1.3-.8 1.9-.3.6.4.8 1.3.3 1.9l-4.9 7.1z"/></svg>