<svg xmlns="http://www.w3.org/2000/svg" viewBox="0 0 64 64" enable-background="new 0 0 64 64"><style type="text/css">.st0{fill:#555556;} .st1{fill:#C8CAC9;}</style><circle class="st0" cx="32" cy="32" r="28.9"/><path class="st1" d="M10.1 10.1h43.8v43.8h-43.8z"/><path class="st0" d="M50.6 33.1l-15-15c-1.2-1.2-3.1-1.2-4.3 0l-2 1.9-2.6-2.6c-1.2-1.2-3.1-1.2-4.3 0l-9.1 9.2c-1.2 1.2-1.2 3.1 0 4.3l15.2 15.1c1.2 1.2 3.1 1.2 4.3 0l1.9-1.9 2.6 2.6c1.2 1.2 3.1 1.2 4.3 0l9.2-9.2c1-1.4 1-3.2-.2-4.4zm-2.7 4.2l-6.4 6.4c-1.2 1.2-3.1 1.2-4.3 0l-1.2-1.1 5.8-5.8c1.2-1.2 1.2-3.1 0-4.3l-11.1-11.2.6-.6c1.2-1.2 3.1-1.2 4.3 0l12.4 12.4c1 1.2 1 3-.1 4.2z"/></svg>