<svg xmlns="http://www.w3.org/2000/svg" viewBox="0 0 64 64" enable-background="new 0 0 64 64"><style type="text/css">.st0{fill:#4E5468;} .st1{fill:#C7CBD7;}</style><circle class="st0" cx="31.6" cy="31.7" r="28.9"/><path class="st1" d="M31.9 38.5l-1.4-.1c-.7 0-1.4.5-1.6 1.2l-1.2 6.8c-.1.7.4 1.4 1.1 1.4l1.4.1c.8 0 1.4-.5 1.5-1.3l1.2-6.9c0-.6-.4-1.1-1-1.2zM50.7 31.8l-1.8-.6c-.9-.3-1.9-.4-2.9-.4l-1.9.1c-.4 0-.7.3-.8.7l-2.5 15.4-1-.1c-.4 0-.7.2-.7.5l-.3 1.8c-.1.3.2.6.4.6l10 .9c.4 0 .7-.2.7-.6l.3-1.7c0-.3-.2-.6-.5-.6l-.9-.1 2.5-15.1c-.1-.4-.3-.7-.6-.8zM51.2 17.1l-.3-1.3-4.2-.5v1.4l-27-2.4s-.6-1.5-1.7-2-2.8-.4-3.5 0-2.3 2.2-2.5 3.5l-.5 3.3 38.2 3.3v.9l3.1.1.5-6.2-2.1-.1zM36.5 39.1l-1.4-.1c-.7 0-1.4.5-1.6 1.2l-1.2 6.8c-.1.7.4 1.4 1.1 1.4l1.4.1c.8 0 1.4-.5 1.5-1.3l1.2-6.9c0-.7-.4-1.2-1-1.2zM48.1 24.2l-33.9-3-3-.2-.6 4.3 3.1.3c1.1.1 2 1 2 2.1v.8c0 .9-.2 1.7-.6 2.5l-2.1 4.3c-1 2.1-1.6 4.5-1.6 6.8v3.1c0 .4.3.8.8.8l12 1.2c.4 0 .7-.3.8-.7l1.8-10.9 10.3.5c.2 0 .4 0 .6-.1l.8-.5c.4-.2.7-.6.7-1.1l.1-3.5c0-.3-.1-.8-.2-1.1l-.5-1.3 13.7 1 .3-4-4.6-.1.1-1.2zm-20.9 9.9l1-6.2h.1c0 2.4 1.1 6.4 1.1 6.4l-2.2-.2zm10.3.1c-.1.3-.3.4-.7.4l-5.3-.3c-.2-1-.4-2.2-.4-3.6 0-1.1.1-1.8.3-2.7l5.3.4c.3.6.6 1.2.8 2 .3 1.6.1 2.9 0 3.8z"/></svg>