<?xml version="1.0" encoding="utf-8"?>
<!-- Generator: Adobe Illustrator 21.0.1, SVG Export Plug-In . SVG Version: 6.00 Build 0)  -->
<svg version="1.1" id="Layer_1" xmlns="http://www.w3.org/2000/svg" xmlns:xlink="http://www.w3.org/1999/xlink" x="0px" y="0px"
	 viewBox="0 0 64 64" style="enable-background:new 0 0 64 64;" xml:space="preserve">
<style type="text/css">
	.st0{fill:#93581C;}
	.st1{fill:#C4BC2C;}
</style>
<g>
	<circle class="st0" cx="32" cy="32" r="28.9"/>
</g>
<g>
	<path class="st1" d="M46.569,8.5l-12.963,3.665c4.591,0.097,8.506,2.526,10.323,5.989l10.474-2.961
		C53.318,11.92,50.35,9.374,46.569,8.5z"/>
	<polygon class="st1" points="51.518,54.29 51.518,48.775 53.19,47.957 53.19,39.866 51.652,38.382 51.652,33.012 29.932,29.261 
		29.932,34.229 28.189,33.899 28.189,43.737 29.932,44.127 29.932,49.096 	"/>
	<polygon class="st1" points="52.2,33.107 52.2,38.148 53.739,39.633 53.739,48.299 52.067,49.118 52.067,54.422 56.546,55.5 
		56.546,33.856 	"/>
	<path class="st1" d="M14.083,16.074C10.411,17.46,8.1,21.855,8.1,26.203s2.313,8.743,5.983,10.128
		c5.052,1.907,10.796-2.285,10.796-10.128S19.135,14.169,14.083,16.074z M14.083,33.275c-2.674-0.704-4.479-3.818-4.479-7.072
		c0-3.254,1.805-6.367,4.479-7.072c3.338-0.879,6.723,2.188,6.723,7.072S17.422,34.156,14.083,33.275z"/>
	<path class="st1" d="M25.167,23.457l18.218-5.149c-1.781-3.308-5.593-5.615-10.06-5.615c-1.208,0-2.348,0.213-3.436,0.524
		l-9.795,2.77C22.48,17.23,24.494,19.755,25.167,23.457z"/>
	<path class="st1" d="M25.253,24.006c0.098,0.696,0.161,1.424,0.161,2.197c0,7.222-4.562,11.119-8.854,11.119
		c-0.904,0-1.8-0.166-2.664-0.491c-0.857-0.324-1.65-0.81-2.37-1.415v14.461l14.528,4.247v-6.759l0.534-0.001v6.761l9.904-2.886
		l-7.107-1.71v-4.962l-1.745-0.388v-10.94l1.743,0.331v-4.957l19.036-4.553l0.104,7.858l5.879,1.015V15.764L25.253,24.006z
		 M45.518,23.611c0,0.182-0.147,0.363-0.329,0.406l-0.37,0.085c-0.182,0.042-0.329-0.072-0.329-0.253v-2.231
		c0-0.182,0.147-0.363,0.329-0.406l0.37-0.085c0.182-0.042,0.329,0.072,0.329,0.253V23.611z M47.525,21.778
		c0,0.182-0.147,0.363-0.329,0.406l-0.888,0.205c-0.182,0.042-0.329-0.072-0.329-0.253v-0.867c0-0.182,0.147-0.363,0.329-0.406
		l0.888-0.205c0.182-0.042,0.329,0.072,0.329,0.253V21.778z"/>
	<path class="st1" d="M18.242,29.97c-1.87,0-3.386-1.913-3.386-4.273s1.516-4.273,3.386-4.273c0.201,0,0.394,0.032,0.584,0.075
		c-0.046-0.061-0.079-0.134-0.126-0.191c-0.939-1.156-2.172-1.792-3.468-1.792l0,0c-0.339,0-0.678,0.045-1.013,0.132
		c-2.326,0.613-4.082,3.431-4.082,6.555s1.755,5.942,4.082,6.555c0.333,0.088,0.674,0.132,1.013,0.132
		c1.705,0,3.449-1.185,4.372-3.287C19.187,29.837,18.727,29.97,18.242,29.97z"/>
</g>
</svg>
