<?xml version="1.0" encoding="utf-8"?>
<!-- Generator: Adobe Illustrator 21.0.1, SVG Export Plug-In . SVG Version: 6.00 Build 0)  -->
<svg version="1.1" id="Layer_1" xmlns="http://www.w3.org/2000/svg" xmlns:xlink="http://www.w3.org/1999/xlink" x="0px" y="0px"
	 viewBox="0 0 64 64" style="enable-background:new 0 0 64 64;" xml:space="preserve">
<style type="text/css">
	.st0{fill:#714282;}
	.st1{fill:#C58FFF;}
</style>
<circle class="st0" cx="32" cy="32" r="28.9"/>
<g>
	<path class="st1" d="M18.94,12.59v38.81c0,0.78,0.54,1.47,1.3,1.65l16.13,3.9c1.07,0.26,2.1-0.55,2.1-1.65V8.7
		c0-1.1-1.03-1.91-2.1-1.65l-16.13,3.9C19.47,11.13,18.94,11.81,18.94,12.59z M35.7,34.82c-1.06-0.03-1.9-1.29-1.9-2.82
		c0-1.53,0.84-2.79,1.9-2.82c1.08-0.03,1.97,1.23,1.97,2.82S36.78,34.85,35.7,34.82z"/>
	<path class="st1" d="M43.37,11.3h-3.39V13h3.39v37.86h-0.52v1.7h0.52c0.94,0,1.7-0.76,1.7-1.7V13C45.06,12.06,44.3,11.3,43.37,11.3
		z"/>
</g>
</svg>
