<?xml version="1.0" encoding="utf-8"?>
<!-- Generator: Adobe Illustrator 21.0.1, SVG Export Plug-In . SVG Version: 6.00 Build 0)  -->
<svg version="1.1" id="Layer_1" xmlns="http://www.w3.org/2000/svg" xmlns:xlink="http://www.w3.org/1999/xlink" x="0px" y="0px"
	 viewBox="0 0 64 64" style="enable-background:new 0 0 64 64;" xml:space="preserve">
<style type="text/css">
	.st0{fill:#3A508E;}
	.st1{fill:#C8CAC9;}
</style>
<g>
	<circle class="st0" cx="32" cy="32" r="28.9"/>
</g>
<g>
	<polygon class="st1" points="10.45,50.2 11.55,51.3 12.45,11.8 10.45,13.8 	"/>
	<polygon class="st1" points="51.55,11.8 52.45,51.3 53.55,50.2 53.55,13.8 	"/>
	<polygon class="st1" points="47.65,10.5 47.65,14.1 45.35,11.8 31.95,11.8 18.65,11.8 16.35,14.1 16.35,10.5 13.75,10.5 
		13.75,10.5 14.95,53.5 16.35,53.5 16.35,49.9 18.65,52.2 31.95,52.2 45.35,52.2 47.65,49.9 47.65,53.5 49.05,53.5 50.25,10.5 
		50.25,10.5 	"/>
</g>
<g>
	<path class="st0" d="M41.304,39.962l-1.204-3.39h-2.555c-0.703,0-1.389-0.078-2.052-0.21l2.119-5.275
		c-0.334-0.043-0.668-0.114-1-0.225c-0.883-0.295-1.618-0.812-2.208-1.45l-2.267,5.644c-0.866-0.524-1.654-1.164-2.334-1.908
		l-2.511,2.295c1.028,1.124,2.237,2.062,3.567,2.794l-1.609,4.006l2.552,1.063l-2.479,0.03l0.275,4.166l2.995-3.917l1.624-4.044
		c1.088,0.269,2.203,0.422,3.329,0.422L41.304,39.962L41.304,39.962z"/>
	<path class="st0" d="M47.317,42.103l-5.483-13.636c0.285-0.377,0.529-0.791,0.686-1.264c0.777-2.331-0.483-4.85-2.814-5.627
		c-2.331-0.777-4.851,0.483-5.627,2.814c-0.776,2.33,0.483,4.85,2.814,5.627c0.588,0.196,1.187,0.261,1.767,0.214l5.314,13.214
		l2.995,3.917l0.275-4.166l-2.479-0.03L47.317,42.103z M36.823,25.797c0-0.816,0.661-1.477,1.477-1.477s1.477,0.661,1.477,1.477
		c0,0.816-0.661,1.477-1.477,1.477S36.823,26.613,36.823,25.797z"/>
	<path class="st0" d="M29.724,38.706c-3.02-0.9-5.223-3.694-5.223-7.006c0-4.039,3.274-7.314,7.314-7.314
		c0.452,0,0.892,0.047,1.321,0.125c0.033-0.133,0.067-0.266,0.111-0.398c0.45-1.35,1.398-2.443,2.67-3.08
		c0.043-0.021,0.088-0.037,0.131-0.058c-0.335-0.132-0.676-0.254-1.025-0.355l-0.28-4.053h-5.857l-0.28,4.053
		c-0.829,0.24-1.621,0.564-2.362,0.973l-3.06-2.665l-4.141,4.141l2.665,3.06c-0.409,0.741-0.734,1.533-0.973,2.362l-4.053,0.28
		v5.857l4.053,0.28c0.24,0.829,0.564,1.621,0.973,2.362l-2.665,3.06l4.141,4.141l3.06-2.665c0.602,0.332,1.245,0.593,1.906,0.815
		L29.724,38.706z"/>
	<path class="st0" d="M39.523,20.639v-3.368c0-0.426-0.345-0.771-0.771-0.771h-0.904c-0.426,0-0.771,0.345-0.771,0.771v3.355
		C37.879,20.435,38.71,20.446,39.523,20.639z"/>
</g>
</svg>
