<?xml version="1.0" encoding="utf-8"?>
<!-- Generator: Adobe Illustrator 21.0.1, SVG Export Plug-In . SVG Version: 6.00 Build 0)  -->
<svg version="1.1" id="Layer_1" xmlns="http://www.w3.org/2000/svg" xmlns:xlink="http://www.w3.org/1999/xlink" x="0px" y="0px"
	 viewBox="0 0 64 64" style="enable-background:new 0 0 64 64;" xml:space="preserve">
<style type="text/css">
	.st0{fill:#555556;}
	.st1{fill:#C8CAC9;}
</style>
<g>
	<g>
		<circle class="st0" cx="32" cy="32" r="28.9"/>
	</g>
</g>
<rect x="10.1" y="10.1" class="st1" width="43.8" height="43.8"/>
<g>
	<g>
		
			<rect x="21.8" y="29.5" transform="matrix(5.274056e-03 -1 1 5.274056e-03 -15.3707 59.6104)" class="st0" width="1" height="16.1"/>
		
			<rect x="21.8" y="32.3" transform="matrix(5.274056e-03 -1 1 5.274056e-03 -18.1825 62.4397)" class="st0" width="1" height="16.1"/>
		
			<rect x="21.9" y="30.9" transform="matrix(5.274056e-03 -1 1 5.274056e-03 -16.7533 61.1116)" class="st0" width="1" height="16.1"/>
		<path class="st0" d="M22.2,24.4c0.4-0.2,0.9-0.5,1.3-0.7c3.9-2.4,6.1-5.8,5-7.6c-1.1-1.7-5.2-1.2-9.1,1.2
			c-3.5,2.2-5.8,5.2-5.3,7.1l0,0l0.1,8.1l16.1,0l0-8.1L22.2,24.4z"/>
		
			<rect x="21.8" y="25.2" transform="matrix(5.274056e-03 -1 1 5.274056e-03 -11.13 55.4529)" class="st0" width="1" height="16.1"/>
		<path class="st0" d="M14.7,48.8l15.1,0c0.3,0,0.5-0.2,0.5-0.5l0-6.9l-16.1-0.1l0,6.9C14.2,48.5,14.4,48.7,14.7,48.8z"/>
		
			<rect x="21.9" y="26.7" transform="matrix(5.274056e-03 -1 1 5.274056e-03 -12.5125 56.9542)" class="st0" width="1" height="16.1"/>
		
			<rect x="21.8" y="28.1" transform="matrix(5.274056e-03 -1 1 5.274056e-03 -13.9417 58.2823)" class="st0" width="1" height="16.1"/>
	</g>
	<path class="st0" d="M48.5,27.2c-0.3-0.2-0.5-0.6-0.3-1l0.4-0.6c0.1-0.2,0.1-0.4,0.1-0.6c0,0,0-0.4,0-0.5c0-0.2-0.2-0.3-0.3-0.3
		c-0.1,0-2.9,0-5.7,0c0-0.1,0-0.1,0-0.2c0-0.8,0.1-1.6,0.3-2.2c0.1-0.2,0.1-0.4,0.2-0.5l0-0.1l0-0.3c0-1.2-1-2.2-2.2-2.1
		c-1.2,0-2.2,1-2.1,2.2l0,0.2l0,0.1c0.1,0.2,0.2,0.5,0.2,0.7c0.2,0.6,0.2,1.3,0.3,2.1c0,0.1,0,0.1,0,0.2c-1.3,0-2.2,0-2.3,0
		c-0.2,0-0.3,0.1-0.3,0.3c0,0.2,0,0.5,0,0.5c0,0.2,0,0.4,0.2,0.6l0.3,0.6c0.2,0.4,0.1,0.9-0.3,1c-0.8,0.4-1.4,1.2-1.3,2.2l0.1,7
		l0,7.2c0,1,0.6,1.7,1.4,2.2c0.3,0.2,0.5,0.6,0.3,1l-0.4,0.6c-0.1,0.2-0.1,0.4-0.1,0.6c0,0,0,0.4,0,0.6c0,0.2,0.1,0.3,0.3,0.3
		c0.2,0,11.3-0.1,11.4-0.1c0.1,0,0.3-0.2,0.3-0.3c0-0.1,0-0.5,0-0.5c0-0.2,0-0.4-0.2-0.6l-0.3-0.6c-0.2-0.4-0.1-0.9,0.3-1
		c0.8-0.4,1.4-1.2,1.3-2.2l0-7.2l0-7.2C49.9,28.4,49.4,27.5,48.5,27.2z M41,19.7c0.5,0,1,0.5,1,1c0,0.5-0.5,1-1,1c-0.5,0-1-0.5-1-1
		C40,20.2,40.5,19.7,41,19.7z"/>
</g>
</svg>
