<svg xmlns="http://www.w3.org/2000/svg" viewBox="0 0 64 64" enable-background="new 0 0 64 64"><style type="text/css">.st0{fill:#4E5468;} .st1{fill:#C7CBD7;}</style><circle class="st0" cx="32" cy="32" r="28.9"/><path class="st1" d="M10.1 10.1h43.8v43.8h-43.8z"/><path class="st0" d="M18.5 16.6l-1.9 5.2c-1.1 3-1.6 6.2-1.5 9.4l.1 2.5 4.8-2.7-1.5-14.4zM31.8 49.1l2.5-.2c3.2-.2 6.3-.9 9.3-2.2l5-2.3-14.5-.4-2.3 5.1z"/><circle class="st0" cx="38.8" cy="24.9" r="3.1"/><path class="st0" d="M36.3 27.4c-.6-.7-1-1.5-1-2.5 0-2 1.6-3.5 3.5-3.5.3 0 .7.1.9.2-.2-.8-.4-1.7-.1-2.3.7-1 3.8-4 3.8-4l-.5-.7s-4.2 1.7-6 4l-1.6 5.9-15.3 7.2-4.9 2.7.2 5.6c0 1 .7 1.9 1.7 2.1l.6.1c.5.1 1.1 0 1.4-.3l16.8-13.9.5-.6zm-18.5 13.1c-.5 0-.9-.3-.9-.8s.3-.9.8-.9.9.3.9.8c.1.4-.3.9-.8.9zM42.1 23.6c.2.4.2.8.2 1.3 0 1.6-1 2.8-2.3 3.3 1-.1 3.6-.4 5.3-2.1 2.1-2 3.5-6.3 3.5-6.3l-.8-.5s-2.8 3.4-3.8 4.1c-.4.5-1.4.4-2.1.2zM39.5 28.4c-.2.1-.5.1-.7.1-.9 0-1.7-.3-2.4-.9l-.5.6-12.4 17.7c-.3.4-.4 1-.2 1.5l.2.6c.2 1 1.2 1.6 2.1 1.6l5.6-.3 2.3-5.1 6-15.8zm-13.7 19.4c-.5 0-.9-.3-.9-.8s.3-.9.8-.9.9.3.9.8-.3.9-.8.9z"/></svg>