<svg xmlns="http://www.w3.org/2000/svg" viewBox="0 0 64 64" enable-background="new 0 0 64 64"><style type="text/css">.st0{fill:#4E5468;} .st1{fill:#C7CBD7;}</style><circle class="st0" cx="32" cy="32" r="28.9"/><path class="st1" d="M37.3 23.8c-2.1-1.9-6.7-.4-10.3 3.5s-4.8 8.6-2.7 10.6c2.1 1.9 6.7.4 10.3-3.5 3.6-3.9 4.8-8.7 2.7-10.6zm-4.4 9c-2.2 2.4-5 3.4-6.1 2.3-1.2-1.1-.4-3.9 1.9-6.3s5-3.4 6.1-2.3c1.2 1.1.4 4-1.9 6.3zM42.4 23.4c-.4 3.4-2.3 7.4-5.4 11.1l3.8 3.5c5.1-5.9 8-12.3 8.5-17.7l-6.9 3.1zM34 15.7c2.7-.6 5-.2 6.6 1.2 1 1 1.6 2.3 1.8 3.9l7-3.2c-.2-2.6-1.1-4.9-2.8-6.5-2.4-2.3-6.1-2.8-10.2-1.9l-2.4 6.5zM16.3 33.7c.8-3.1 2.6-6.6 5.4-9.8l-3.2-2.9c-4.4 5-7.3 10.5-8.3 15.4l6.1-2.7zM23 22.5c3-3 6.3-5.2 9.3-6.3l2.4-6.4c-4.9 1.5-10.2 4.9-14.9 9.8l3.2 2.9zM35 36.7c-3.4 3.4-7.3 5.6-10.7 6.3l-2.6 7.1c5.4-.9 11.6-4.4 17.1-9.9l-3.8-3.5zM22.1 43.3c-1.7 0-3.2-.5-4.3-1.5-1.6-1.5-2.1-3.8-1.8-6.5l-6.1 2.7c-.6 4.2.2 7.7 2.7 10 1.8 1.6 4.1 2.4 6.9 2.3l2.6-7zM48.1 32.6c-.4 1.4-1.1 2.7-2 3.6-.3.4-.5.8-.3 1.3.5 2-.1 4.3-1.7 6.1-1.8 1.7-4.1 2.4-6.1 1.9-.5-.1-1 0-1.3.4-.9.9-2.1 1.7-3.5 2.1-1.1.3-2.1.4-3.1.3 3.4 3.2 8.6 3.2 12.8.7.3-.2.7-.2 1.1-.1 1.6.5 3.4.2 4.5-1 1.2-1.2 1.4-3 .9-4.6-.1-.4-.1-.8.1-1.1 2.4-4.2 2.3-9.5-1.1-12.7 0 1 0 2.1-.3 3.1z"/></svg>