<svg xmlns="http://www.w3.org/2000/svg" viewBox="0 0 64 64" enable-background="new 0 0 64 64"><style type="text/css">.st0{fill:#4E5468;} .st1{fill:#C7CBD7;}</style><circle class="st0" cx="32" cy="32" r="28.9"/><path class="st1" d="M40.6 18.7l4.1-2.5-21.5-4 2 3.4zM54.1 35.3l-7-18.7-10.7 6.8c-.5.3-.5 1-.1 1.3l14.2 12.7-1.2 9.6c-.1.7-.7 1.2-1.4 1l-25.9-5.3c-.4-.1-.7-.5-.7-.9v-3.6l-5.6-.2 2.9 5.8c.3.5.8.9 1.4 1l29.5 6.2c.9.2 1.8-.4 2-1.3l2.7-13.5c0-.3 0-.6-.1-.9zM18.2 23.2c2.5.8 5.3-.5 6.1-3 .8-2.5-.5-5.3-3-6.1-2.5-.8-5.3.5-6.1 3-.9 2.6.5 5.3 3 6.1zm.6-4.9c.2-.5.7-.8 1.3-.6s.8.7.6 1.3-.7.8-1.3.6c-.5-.2-.8-.7-.6-1.3zM21.5 13.2s.1 0 .1.1v-4.3h-3.9v4.2c1.2-.4 2.6-.5 3.8 0zM24 22.6c-.9 1-2.1 1.6-3.5 1.8l5.4 13.4 3.2 4.2.3-4.5h-2.7l2.8-1.2-5.5-13.7zM23 34l-1.3-3.7h-2.8c-.8 0-1.5-.1-2.2-.2l2.3-5.7c-.4 0-.7-.1-1.1-.2-1-.3-1.8-.9-2.4-1.6l-2.5 6.1c-.9-.6-1.8-1.3-2.5-2.1l-2.7 2.5c1.1 1.2 2.4 2.2 3.9 3l-1.7 4.3 2.8 1.2h-2.7l.3 4.5 3.2-4.2 1.8-4.4c1.2.3 2.4.5 3.6.5h4z"/></svg>