<svg xmlns="http://www.w3.org/2000/svg" viewBox="0 0 64 64" enable-background="new 0 0 64 64"><style type="text/css">.st0{fill:#4E5468;} .st1{fill:#C7CBD7;}</style><circle class="st0" cx="31.6" cy="31.7" r="28.9"/><path class="st1" d="M45.661 22.503l-.556-6.757c-.065-.785.112-1.571.506-2.253l1.379-2.389c.48-.832.195-1.895-.637-2.376l-2.589-1.495c-.832-.48-1.896-.195-2.376.637l-1.379 2.389c-.394.682-.986 1.228-1.699 1.565l-6.13 2.897c-1.309.619-2.399 1.622-3.123 2.877l-15.994 27.702c-1.463 2.535-.595 5.775 1.94 7.239l6.496 3.75c2.535 1.463 5.775.595 7.239-1.94l15.995-27.704c.723-1.253 1.047-2.699.928-4.142zm-17.42 27.488c-1.717 2.973-5.518 3.992-8.492 2.275l-.388-.224c-2.973-1.717-3.992-5.518-2.275-8.492l5.12-8.868c.31-.023.603-.065.922-.077 14.24-.533 13.447-2.827 16.799-5.128l.253-.166-11.939 20.68z"/></svg>