<?xml version="1.0" encoding="utf-8"?>
<!-- Generator: Adobe Illustrator 21.0.1, SVG Export Plug-In . SVG Version: 6.00 Build 0)  -->
<svg version="1.1" id="Layer_1" xmlns="http://www.w3.org/2000/svg" xmlns:xlink="http://www.w3.org/1999/xlink" x="0px" y="0px"
	 viewBox="0 0 64 64" style="enable-background:new 0 0 64 64;" xml:space="preserve">
<style type="text/css">
	.st0{fill:#2F3477;}
	.st1{fill:#5F66FE;}
</style>
<circle class="st0" cx="32" cy="32" r="28.9"/>
<g>
	<path class="st1" d="M37.56,34.084L50.176,32L37.56,29.916l-0.081-0.196l3.428-6.375l-6.374,3.428l-0.196-0.081l-2.084-12.616
		L30.17,26.693l-0.196,0.081L23.6,23.346l3.428,6.375l-0.081,0.196L14.331,32l12.616,2.084l0.081,0.196L23.6,40.654l6.374-3.428
		l0.196,0.081h0.002c0.02,0.409,2.081,12.616,2.081,12.616s2.061-12.207,2.082-12.616h0.002l0.196-0.081l6.374,3.428l-3.428-6.375
		L37.56,34.084z"/>
	<path class="st1" d="M56.629,34.258L64,32l-7.371-2.258C55.547,17.969,46.109,8.594,34.311,7.598L32,0l-2.318,7.627
		C18.143,8.828,8.963,18.068,7.848,29.632L0,32l7.848,2.368c1.114,11.565,10.294,20.805,21.834,22.005L32,64l2.311-7.598
		C46.109,55.406,55.547,46.031,56.629,34.258z M32.236,51.892c-10.986,0-19.891-8.906-19.891-19.892s8.906-19.892,19.891-19.892
		S52.127,21.014,52.127,32S43.221,51.892,32.236,51.892z"/>
</g>
</svg>
