<?xml version="1.0" encoding="utf-8"?>
<!-- Generator: Adobe Illustrator 21.0.1, SVG Export Plug-In . SVG Version: 6.00 Build 0)  -->
<svg version="1.1" id="Layer_1" xmlns="http://www.w3.org/2000/svg" xmlns:xlink="http://www.w3.org/1999/xlink" x="0px" y="0px"
	 viewBox="0 0 64 64" style="enable-background:new 0 0 64 64;" xml:space="preserve">
<style type="text/css">
	.st0{fill:#6F4512;}
	.st1{fill:#CE8508;}
</style>
<g>
	<circle class="st0" cx="32" cy="32" r="28.9"/>
</g>
<path class="st1" d="M47.085,26.594l10.739-4.284l-1.3-3.263l-6.776,2.703l3.604-6.558L50.273,13.5l-5.659,10.298l-12.731,5.079
	l-13.35-4.524l-5.163-9.013l-3.05,1.747l3.187,5.563l-6.201-2.101l-1.129,3.328l9.967,3.378l3.684,6.432l-10.92,4.356l1.3,3.263
	l11.383-4.541L31.75,54.5l10.172-18.511l11.247,3.811l1.129-3.328l-10.657-3.611L47.085,26.594z M41.952,28.641l-1.69,3.075
	l-3.253-1.103L41.952,28.641z M21.17,28.957l5.683,1.926l-3.728,1.487L21.17,28.957z M31.688,47.318l-6.799-11.87l7.09-2.829
	l6.564,2.224L31.688,47.318z"/>
</svg>
