<svg xmlns="http://www.w3.org/2000/svg" viewBox="0 0 64 64" enable-background="new 0 0 64 64"><style type="text/css">.st0{fill:#326629;} .st1{fill:#EAEAEA;}</style><circle class="st0" cx="32" cy="32.8" r="28.9"/><path class="st1" d="M10 10.8h44v44h-44z"/><path class="st0" d="M43.1 26.8c0 3.5-1.1 6.1-3.2 7.9-2.2 1.8-5.2 2.8-9.2 2.8h-2.9v11.4h-6.8v-32.2h10.3c3.9 0 6.9.8 8.9 2.5 1.9 1.7 2.9 4.2 2.9 7.6zm-15.4 5.1h2.3c2.1 0 3.7-.4 4.7-1.2 1-.8 1.6-2 1.6-3.6s-.4-2.8-1.3-3.5c-.9-.8-2.2-1.1-4.1-1.1h-3.1l-.1 9.4z"/></svg>