<?xml version="1.0" encoding="utf-8"?>
<!-- Generator: Adobe Illustrator 21.0.1, SVG Export Plug-In . SVG Version: 6.00 Build 0)  -->
<svg version="1.1" id="Layer_1" xmlns="http://www.w3.org/2000/svg" xmlns:xlink="http://www.w3.org/1999/xlink" x="0px" y="0px"
	 viewBox="0 0 64 64" style="enable-background:new 0 0 64 64;" xml:space="preserve">
<style type="text/css">
	.st0{fill:#326629;}
	.st1{fill:#EAEAEA;}
	.st2{fill:#EAEAEA;stroke:#326629;stroke-miterlimit:10;}
</style>
<g>
	<circle class="st0" cx="32" cy="32.8" r="28.9"/>
</g>
<g>
	<g>
		<polygon class="st1" points="28.2,48.8 34.3,48.8 34.3,46.9 30.4,46.9 30.4,17.9 34.3,17.9 34.3,16 28.2,16 		"/>
		<path class="st1" d="M35.2,11.9v40.3l14.9-3.4V16L35.2,11.9z M38.1,34c-0.7,0-1.3-0.7-1.3-1.5s0.6-1.5,1.3-1.5s1.3,0.7,1.3,1.5
			C39.3,33.4,38.8,34,38.1,34z"/>
	</g>
	<polygon class="st2" points="30.4,32 19.4,21.8 19.4,25.9 10.1,25.9 10.1,38.1 19.4,38.1 19.4,42.2 	"/>
</g>
</svg>
