<svg xmlns="http://www.w3.org/2000/svg" viewBox="0 0 64 64" enable-background="new 0 0 64 64"><style type="text/css">.st0{fill:#93581C;} .st1{fill:#C4BC2C;}</style><circle class="st0" cx="32" cy="32" r="28.9"/><path class="st1" d="M17.5 42.7l-2-2.2h-9l4.9 5.4h3l-2.7-3.2zM25.5 38.7l-.8-6.7-4.5-4.7-2.7-26.3-5.2 3.3 1.8 17.9-4.2-12.3-2.7 2 3.5 18.3zM32 47l-3.5-3.1h-13.6l4.7 5.1h8.9l3.5 2.7 3.5-2.7h8.9l4.7-5.1h-13.6zM35 42.5h2v-18.4c-1.1 0-2-.9-2-2v-.9h-5.7v.9c0 1.1-.9 2-2 2v18.4h2l2.1 1.9v-17.5h1.7v17.5l1.9-1.9zM32.9 52.7v1.7c0 .6-.9.9-.9.9s-.9-.3-.9-.9v-1.7l-3.1-2.4h-1v5.2c0 2.9 4.9 7.5 4.9 7.5s4.9-4.6 4.9-7.5v-5.2h-1l-2.9 2.4zM48.5 40.5l-2 2.2h5.8l-2.7 3.2h3l4.9-5.4zM38.5 38.7l14.8-8.5 3.5-18.3-2.8-2-4.1 12.3 1.8-17.9-5.2-3.3-2.7 26.3-4.5 4.7zM40.3 19.9c0-3.2-.9-3.2-.9-3.2h-4.7v-9.8c0-.8-.7-1.5-1.5-1.5h-2.3c-.8 0-1.5.7-1.5 1.5v9.7h-4.7s-.9 0-.9 3.2c-.1 0 16.5 0 16.5.1z"/></svg>