<?xml version="1.0" encoding="utf-8"?>
<!-- Generator: Adobe Illustrator 21.0.1, SVG Export Plug-In . SVG Version: 6.00 Build 0)  -->
<svg version="1.1" id="Layer_1" xmlns="http://www.w3.org/2000/svg" xmlns:xlink="http://www.w3.org/1999/xlink" x="0px" y="0px"
	 viewBox="0 0 64 64" style="enable-background:new 0 0 64 64;" xml:space="preserve">
<style type="text/css">
	.st0{fill:#555556;}
	.st1{fill:#C8CAC9;}
</style>
<g>
	<circle class="st0" cx="32" cy="32" r="28.9"/>
</g>
<g>
	<path class="st1" d="M23.713,14.519l-9.188-5.405l-9.188,5.405v11.603h18.376V14.519z M20.181,19.614H8.868v-2.811h11.315
		L20.181,19.614L20.181,19.614z"/>
	<path class="st1" d="M23.713,28.592v-0.019H5.336H5.334L4.5,48.771l2.312,0.095l0.195-4.729h15.038l0.197,4.749l2.312-0.095
		L23.72,28.592H23.713z M20.155,30.734l-5.767,4.245l-5.767-4.245C8.621,30.734,20.155,30.734,20.155,30.734z M7.486,32.582
		l5.08,3.739l-5.398,3.973L7.486,32.582z M8.532,41.975l5.858-4.311l5.858,4.311H8.532z M16.212,36.322l5.348-3.937l0.336,8.12
		L16.212,36.322z"/>
	<polygon class="st1" points="52.5,25.046 52.5,21.424 40.413,16.459 28.326,21.424 28.326,28.573 26.969,28.573 26.969,46.235 
		29.032,46.235 29.032,34.223 32.206,34.223 32.206,46.235 35.263,46.235 35.263,34.223 38.438,34.223 38.438,46.235 41.493,46.235 
		41.493,34.223 44.669,34.223 44.669,46.235 47.725,46.235 47.725,34.223 50.899,34.223 50.899,46.235 55.2,46.235 59.5,46.235 
		59.5,25.046 	"/>
</g>
</svg>
