<svg xmlns="http://www.w3.org/2000/svg" viewBox="0 0 64 64" enable-background="new 0 0 64 64"><style type="text/css">.st0{fill:#4E5468;} .st1{fill:#C7CBD7;}</style><circle class="st0" cx="32" cy="32" r="28.9"/><path class="st1" d="M16 28.2l.9.4 3-6.1v-1.5h-1l-1.9 2-5.7-3.3c-.1 0-.7 4.8 4.7 8.5zM17.4 43.9l-3.1.7-2.6 5.1 1.8 1.8 5.1-2.6.7-3.1 9-9.1-1.8-1.8zM52 16.6l-5.5-5.5c-.7-.7-1.6-.8-2.2-.3-.1.1-10.6 10.7-13 13-.3.3-.4.7-.4 1.1l.3 1.8c.1.4-.1.9-.4 1.2l-3.1 3.1c-.2.2-.4.6-.5.9l-.6 2.6 1.8 1.8 2.6-.6c.3-.1.6-.2.9-.5l3.1-3.1c.3-.3.7-.4 1.1-.4l1.8.3c.4.1.8-.1 1.1-.4l13-13c.8-.4.7-1.4 0-2zm-16.8 7.4c-.4.4-.9.5-1.2.2-.3-.3-.2-.8.2-1.2l9.5-9.5c.4-.4.9-.5 1.2-.2.3.3.2.8-.2 1.2l-9.5 9.5zm14.4-4.5l-9.5 9.5c-.4.4-.9.5-1.2.2-.3-.3-.2-.8.2-1.2l9.5-9.5c.4-.4.9-.5 1.2-.2.3.2.2.8-.2 1.2zM20.3 21.1v1.5l-3 6.1-.5 1c.3.2 5.3-.3 7.7.8.2.1.8.7 1.1.9l.3.3c.1-.6.5-1.2.9-1.6l3-3-.3-1.7c-.1-.8.1-1.6.6-2.2-.6-2.6 0-6.3-3.7-9.5-6.6-5-12.5-.2-12.5-.2l6.4 4.4v3.2zm2.3 2.5c.1-.1.3-.2.4-.1l2.2 1.3.1.1c.1.1.1.2 0 .4-.1.1-.3.2-.4.1l-2.2-1.3c-.1-.1-.2-.3-.1-.5zm-.3 1.2c.1-.1.3-.2.4-.1l2.2 1.3.1.1c.1.1.1.3 0 .4-.1.1-.3.2-.4.1l-2.2-1.3c-.2-.1-.2-.3-.1-.5zm-.4 1.2c.1-.1.3-.2.4-.1l2.2 1.3.1.1c.1.1.1.2 0 .4-.1.1-.3.2-.4.1l-2.2-1.3c-.1-.1-.2-.3-.1-.5zM39.4 33.4c-.5.2-1 .3-1.5.2l-1.7-.3-3 3c-.5.5-1 .8-1.6.9l1.2 1.2c4.3 4.5 9.3 10.1 10 10.8 1.7 1.8 4.5 1.8 6.3.1 1.8-1.7 1.8-4.5.1-6.3-.4-.3-5.2-5.1-9.8-9.6zm7.6 13.9c-.6.6-1.5.6-2.1 0-.6-.6-.6-1.5 0-2.1.6-.6 1.5-.6 2.1 0 .7.6.6 1.5 0 2.1z"/></svg>