<svg xmlns="http://www.w3.org/2000/svg" viewBox="0 0 64 64" enable-background="new 0 0 64 64"><style type="text/css">.st0{fill:#555556;} .st1{fill:#C8CAC9;}</style><circle class="st0" cx="32" cy="32" r="28.9"/><path class="st1" d="M7.5 42.6c.8-1.9 6.7-6 7.9-7.9-.7-2.4-1.4-7.2.3-12.7.3-1 3-8.7 9.7-11.4 1.9-.8 3.2-.8 4.2-.6 2.4.4 5 2.6 5.1 5.1 0 .2.1 2.1-1.2 3.3-1.7 1.4-3.3.9-4.6.6-1-.2-1.8-.8-2.1-1.2l.3 4.9c1.8.8 2.7 1.7 3 2.4 2.2 4.3.6 9.1-4.2 13.9 1 .4 2.4 1.1 4.2 1.6 2.1.6 5 .6 6.7.7 2.4 0 4.9 0 9.3-.3-.9 1.7-3.8 6.2-9.3 8.1-1.9.7-3.8.9-5.1.9-.4 1.3-5.9 8-7.2 8.1-4.2.5-18.1-12.7-17-15.5zM34.6 9.4c0 1.8 1.4 3.4 3.8 3.9.7 0 5-3 5.1-3.4.3-1-.2-1.9-.3-2-.8-1.4-2.3-1.8-3-2-.6 0-2.8-.1-3.7.6-.2 0-1.9 2.2-1.9 2.9zM36 20.3c.4-1 7.4-7.8 8.8-7.7.8 0 2-.2 3 .6s1.3 2.2 1.1 3.3c-.2 1-.2 1.4-1.1 2.2-.8.8-5.6 5.9-6.2 6.2-.8.3-2.1 1.1-3.7.6-1.2-.4-2.2-1.6-2.4-2.9-.1-.8.3-1.6.5-2.3zM42.6 27.8c.6-.6 5.9-6.1 6.4-6.4 1.4-.8 2.1-.8 2.7-.6 1.1.2 2.2 1.2 2.2 2.2 0 .8 0 .8-1 1.8-.4.4-5.9 5.7-6.4 6-1.2.7-1.7.8-2.3.8-.9-.1-2-.6-2.1-1.4-.2-.9-.1-2 .5-2.4zM47.5 33.2c.4-.8 4.2-3.6 4.9-3.8 1-.3 1.8-.6 2.6-.1.8.3 1.4 1.1 1.6 2 .1.8-.3 1.4-.9 2.2-.3.4-3.4 2.8-3.8 2.9-.6.2-1.2.4-2.6.1-.3-.1-1.7-.2-2-1.2-.2-.2-.5-1.1.2-2.1z"/></svg>