<?xml version="1.0" encoding="utf-8"?>
<!-- Generator: Adobe Illustrator 21.0.1, SVG Export Plug-In . SVG Version: 6.00 Build 0)  -->
<svg version="1.1" id="Layer_1" xmlns="http://www.w3.org/2000/svg" xmlns:xlink="http://www.w3.org/1999/xlink" x="0px" y="0px"
	 viewBox="0 0 64 64" style="enable-background:new 0 0 64 64;" xml:space="preserve">
<style type="text/css">
	.st0{fill:#6F4512;}
	.st1{fill:#CE8508;}
</style>
<g>
	<circle class="st0" cx="32" cy="32" r="28.9"/>
</g>
<g>
	<path class="st1" d="M41.1,54.5l-6.2-1.8c-0.4-0.1-0.7-0.5-0.6-1c0.9-4.4,0.2-9.9,0.5-13.6c0-0.2-0.1-0.4-0.2-0.6l-1.3-1.4
		c-0.2-0.2-0.4-0.3-0.6-0.3h-1.6c-0.2,0-0.4,0.1-0.6,0.2l-1.4,1.3c-0.2,0.2-0.3,0.4-0.2,0.7c0.6,4-0.7,9.4,0.5,13.6
		c0.1,0.4-0.1,0.9-0.6,1c-2.1,0.6-4.2,1.2-6.3,1.8c-0.4,0.1-0.6,0.4-0.6,0.8v0.9c0,0.4,0.3,0.7,0.7,0.8c2.3,0.5,4.5,1,6.7,1.4
		c0.4,0.1,0.7,0.4,0.7,0.8v2.1c0,0.5,0.4,0.8,0.8,0.8h2.2c0.5,0,0.8-0.4,0.8-0.8v-2.2c0-0.4,0.3-0.7,0.7-0.8
		c2.3-0.4,4.4-0.9,6.5-1.3c0.4-0.1,0.7-0.4,0.7-0.8v-0.9C41.7,55,41.5,54.6,41.1,54.5z"/>
	<path class="st1" d="M30,19.6c0.2,0.2,0.5,0.3,0.7,0.3h1.8c0.3,0,0.5-0.1,0.7-0.3c1.6-1.4,2.9-2.9,4.2-4.1c0.2-0.2,0.3-0.5,0.3-0.7
		V7.5c0-0.2-0.1-0.5-0.3-0.7c-0.7-0.8-1.3-1.5-1.8-2.1c-0.2-0.2-0.5-0.4-0.8-0.4h-6.2c-0.3,0-0.5,0.1-0.7,0.3
		c-0.6,0.6-1.1,1.1-1.9,1.9c-0.2,0.2-0.3,0.5-0.3,0.7v7.4c0,0.3,0.1,0.5,0.3,0.7C27.4,16.8,28.7,18.3,30,19.6z"/>
	<path class="st1" d="M34.8,22.6c1,0.9,1.9,1.8,2.8,2.7c0.2,0.2,0.6,0.2,0.9,0c4-4,8.4-8.4,12.5-12.5c0.7-0.7,1.5-1.4,1.8-2.2
		c0.7-1.7,1.3-3.5,1.9-5.2c0.1-0.2,0-0.5-0.1-0.7L51.9,2c-0.3-0.3-0.9-0.2-1,0.2c-0.8,1.8-1.6,3.7-2.6,6c0,0.1-0.1,0.1-0.1,0.2
		c-3.9,3.9-8.7,8.7-13.3,13.3C34.6,21.9,34.6,22.3,34.8,22.6z"/>
	<path class="st1" d="M17.1,17.1c2.6,2.6,5.6,5.6,7.9,7.9c0.2,0.2,0.6,0.2,0.9,0l2.7-2.3c0.3-0.2,0.3-0.7,0-0.9
		c-4.6-4.6-9.6-9.6-13.5-13.6C14.9,8,14.8,8,14.8,8c-2.4-1-4.1-1.7-5.8-2.5c-0.3-0.1-0.6,0-0.8,0.2C7.4,6.5,6.6,7.4,5.8,8.4
		C5.5,8.8,5.6,9.3,6.1,9.5c1.8,0.6,3.7,1,5.3,2.1C13.5,13,15.2,15.2,17.1,17.1z"/>
	<path class="st1" d="M28.7,35c0.3-0.3,0.3-0.7,0-0.9l-2.6-2.6c-0.3-0.3-0.7-0.3-0.9,0c-4,4-8.1,8.1-12.2,12.2
		c-0.7,0.7-1.4,1.4-1.8,2.2c-0.7,1.7-1.3,3.5-1.9,5.2c-0.1,0.2,0,0.5,0.2,0.7l2.6,2.6c0.3,0.3,0.8,0.2,1-0.1
		c0.2-0.4,0.5-0.9,0.6-1.3c0.7-3.7,3.1-6.2,5.6-8.6C22.5,41.3,25.6,38.1,28.7,35z"/>
	<path class="st1" d="M58,47.3c-0.4-0.3-0.9-0.5-1.3-0.6c-3.5-0.6-5.9-2.8-8.3-5.3c-3.1-3.3-6.6-6.7-9.7-9.8c-0.3-0.3-0.7-0.3-1,0
		l-2.6,2.4c-0.3,0.3-0.3,0.8,0,1c3.1,3,6.4,6.1,9.2,9.3c3,3.3,6.4,5.7,10.5,6.8c0.2,0.1,0.5,0,0.7-0.2l2.7-2.5
		C58.5,48.2,58.4,47.6,58,47.3z"/>
	<path class="st1" d="M33.3,24.6c-0.2-0.2-0.4-0.3-0.7-0.3h-1.7c-0.3,0-0.5,0.1-0.7,0.3l-2,1.8c-0.2,0.2-0.3,0.5-0.3,0.7v2
		c0,0.2,0.1,0.5,0.2,0.6l1.8,2.1c0.2,0.2,0.5,0.4,0.8,0.4h2.2c0.3,0,0.5-0.1,0.7-0.3c0.7-0.6,1.3-1.3,1.9-1.9
		c0.2-0.2,0.3-0.5,0.3-0.7v-1.8c0-0.3-0.1-0.5-0.3-0.7C35,26.3,33.8,25.2,33.3,24.6z"/>
	<path class="st1" d="M19.8,24.5l0,6.1c0,0.1,0.1,0.3,0.2,0.3l1,0.8c0.2,0.1,0.4,0.1,0.6,0l2.5-2.3c0.1-0.1,0.1-0.2,0.1-0.3v-1.2
		c0-0.1,0-0.2-0.1-0.3l-3.5-3.4C20.3,23.9,19.8,24.1,19.8,24.5z"/>
	<path class="st1" d="M42.8,24.1l-3.6,3.4c-0.1,0.1-0.1,0.2-0.1,0.3V29c0,0.1,0,0.2,0.1,0.3l2.5,2.3c0.2,0.1,0.4,0.1,0.5,0l1-0.8
		c0.1-0.1,0.2-0.2,0.2-0.3l0-6.1C43.5,24,43,23.9,42.8,24.1z"/>
</g>
</svg>
