<svg xmlns="http://www.w3.org/2000/svg" viewBox="0 0 64 64" enable-background="new 0 0 64 64"><style type="text/css">.st0{fill:#4E5468;} .st1{fill:#C7CBD7;}</style><circle class="st0" cx="32" cy="32" r="28.9"/><path class="st1" d="M38.6 24.1h-12.4c-1.1 0-1.9.9-1.9 1.9v12.4c0 1.1.9 1.9 1.9 1.9h12.4c1.1 0 1.9-.9 1.9-1.9v-12.4c0-1.1-.8-1.9-1.9-1.9zM50.1 32.2l4.8-2.1-4.8-2.1 4.8-2.1-4.6-2-9.4-9.4-2-4.6-2.1 4.8-2.1-4.8-2.1 4.8-2.1-4.8-2.1 4.8-2.1-4.8-2 4.6-9.4 9.4-4.9 2 4.2 1.8.6.3-4.8 2.2 4.2 1.8.6.3-4.8 2.1 4.2 1.8.5.3-4.8 2.1 4.7 2.1 9.4 9.4 2 4.6 2.1-4.8 2.1 4.8 2.1-4.8 2.1 4.8 2.1-4.8 2.1 4.8 2-4.6 9.4-9.4 4.6-2-4.6-2 4.8-2.1-4.7-2.4zm-7 8.9c0 1.1-.9 1.9-1.9 1.9h-17.7c-1.1 0-1.9-.9-1.9-1.9v-17.7c0-1.1.9-1.9 1.9-1.9h17.6c1.1 0 1.9.9 1.9 1.9v17.7z"/></svg>