<?xml version="1.0" encoding="utf-8"?>
<!-- Generator: Adobe Illustrator 21.0.1, SVG Export Plug-In . SVG Version: 6.00 Build 0)  -->
<svg version="1.1" id="Layer_1" xmlns="http://www.w3.org/2000/svg" xmlns:xlink="http://www.w3.org/1999/xlink" x="0px" y="0px"
	 viewBox="0 0 57.8 57.8" style="enable-background:new 0 0 57.8 57.8;" xml:space="preserve">
<style type="text/css">
	.st0{fill:#6F4512;}
	.st1{fill:#CE8508;}
</style>
<title>npc-lmb</title>
<circle class="st0" cx="28.9" cy="28.9" r="28.9"/>
<path class="st1" d="M47.8,17.3c0-2.1-1.9-3.4-3.1-4.1c-0.614-0.362-1.021-0.992-1.1-1.7c-0.1-0.7-0.3-1.5-0.5-2.3
	C42.6,7.5,34.6,0.9,28.9,1h-0.2C23,0.9,15,7.4,14.5,9.2c-0.2,0.8-0.4,1.6-0.5,2.3c-0.064,0.713-0.476,1.349-1.1,1.7
	c-1.2,0.7-3.1,2-3.1,4.1c0,1,3.2,7.8,3.3,8.4c0,0.6-3.3,3.4-3.3,4.3c0,0.6,3.1,4.8,5.3,4.8c1.8,0,0.5,2.1,2.6,2.1v-6.3
	c-0.5-2.3-2.5-4.2-2.8-5.5c-0.515-2.577-1.39-5.068-2.6-7.4c3.7,0,7,1.4,8,6.4c0.7-1.3,1.8-2.9,3.3-3.3c-0.5,4.1-3.6,8.7-3.6,9.7
	v5.4c0,2.2-1.2,1.8-1,4.3c0.1,2,1,2.8,1.8,3.9c0.436,0.539,0.682,1.207,0.7,1.9v3.9c0.2,3,3.3,6.3,5.7,6.8c0.2,0.1,0.4-0.2,0.3-0.4
	c-3.1-3.8-2.7-11.9-2.6-14.3c0.032-0.464,0.248-0.896,0.6-1.2c0.907-0.568,1.717-1.277,2.4-2.1c0.301-0.737,0.301-1.563,0-2.3
	c-0.3-0.4-1.1-0.6-1-1.9c0.1-1.2,1.4-1.3,1.8-1.3h0.2c0.4,0,1.8,0.1,1.8,1.3c0.1,1.3-0.7,1.5-1,1.9c-0.3,0.737-0.3,1.563,0,2.3
	c0.683,0.823,1.493,1.532,2.4,2.1c0.388,0.275,0.613,0.725,0.6,1.2c0.2,2.4,0.5,10.5-2.6,14.3c-0.2,0.2,0,0.5,0.3,0.4
	c2.4-0.6,5.5-3.8,5.7-6.8V46c-0.028-0.701,0.223-1.385,0.7-1.9c1.083-1.018,1.728-2.416,1.8-3.9c0.2-2.6-1-2.2-1-4.3v-5.3
	c0-1-3.2-5.6-3.6-9.7c1.4,0.4,2.6,2,3.3,3.3c1-5,4.3-6.4,8-6.4c-1.162,2.353-2.035,4.837-2.6,7.4c-0.3,1.3-2.3,3.2-2.8,5.5v6.2
	c2,0,0.8-2.1,2.6-2.1c2.1,0,5.3-4.2,5.3-4.8c0-0.9-3.3-3.7-3.3-4.3C44.6,25.1,47.8,18.3,47.8,17.3z"/>
</svg>
