<svg xmlns="http://www.w3.org/2000/svg" viewBox="0 0 64 64" enable-background="new 0 0 64 64"><style type="text/css">.st0{fill:#4E5468;} .st1{fill:#C7CBD7;}</style><circle class="st0" cx="32" cy="32" r="28.9"/><path class="st1" d="M42 48c-3.6-2.1-5.6-5.8-5.4-9.4 0-.5-.6-.9-1-.6-1 .6-2.2 1-3.5 1-1.4 0-2.6-.4-3.7-1.1-.5-.3-1.1.1-1 .6.4 3.7-1.7 7.6-5.4 9.7-2.3 1.4-4.9 1.8-7.3 1.4-.7-.1-1.1.9-.4 1.3 4.4 2.4 9.9 2.5 14.5-.2 1-.6 1.9-1.3 2.7-2 .3-.3.7-.3.9 0 .8.7 1.7 1.5 2.7 2 4.8 2.8 10.6 2.6 15.1-.1.7-.4.2-1.4-.5-1.2-2.5.5-5.3.1-7.7-1.4zM12.9 32.2c3.6-2.1 7.9-1.9 10.9.1.4.3 1-.1 1-.6 0-1.2.3-2.4.9-3.5.7-1.2 1.7-2.1 2.8-2.7.5-.3.5-1-.1-1.2-3.4-1.5-5.7-5.2-5.7-9.6 0-2.7.9-5.2 2.5-7 .5-.6-.2-1.4-.9-1-4.3 2.6-7.1 7.3-7.1 12.7 0 1.1.1 2.3.4 3.3.1.4-.1.7-.5.8-1 .3-2.1.7-3.1 1.3-4.8 2.7-7.4 7.9-7.4 13.2 0 .8 1.1.9 1.3.2.8-2.4 2.6-4.6 5-6zM40.9 14.8c.1 4.2-2.1 7.8-5.3 9.5-.5.2-.4.9 0 1.2 1.1.6 2 1.4 2.6 2.5.7 1.2 1 2.5 1 3.7 0 .6.6.9 1.1.5 3-2.2 7.3-2.5 11.1-.4 2.4 1.3 4.1 3.3 4.9 5.5.3.7 1.3.5 1.3-.3-.2-5-3-9.8-7.6-12.4-1-.5-2-1-3.1-1.2-.4-.1-.6-.4-.5-.8.2-1.1.4-2.2.4-3.3-.1-5.5-3.3-10.3-8-12.8-.7-.4-1.3.5-.8 1.1 1.7 1.8 2.8 4.3 2.9 7.2z"/></svg>