<?xml version="1.0" encoding="utf-8"?>
<!-- Generator: Adobe Illustrator 21.0.1, SVG Export Plug-In . SVG Version: 6.00 Build 0)  -->
<svg version="1.1" id="Layer_1" xmlns="http://www.w3.org/2000/svg" xmlns:xlink="http://www.w3.org/1999/xlink" x="0px" y="0px"
	 viewBox="0 0 64 64" style="enable-background:new 0 0 64 64;" xml:space="preserve">
<style type="text/css">
	.st0{fill:#555556;}
	.st1{fill:#C8CAC9;}
</style>
<g>
	<g>
		<circle class="st0" cx="32" cy="32" r="28.9"/>
	</g>
</g>
<rect x="10.1" y="10.1" class="st1" width="43.8" height="43.8"/>
<path class="st0" d="M50.565,33.086L35.528,18.048c-1.206-1.206-3.056-1.206-4.262,0l-1.93,1.93l-2.573-2.573
	c-1.206-1.206-3.056-1.206-4.262,0l-9.087,9.167c-1.206,1.206-1.206,3.056,0,4.262l15.118,15.118c1.206,1.206,3.056,1.206,4.262,0
	l1.93-1.93l2.573,2.573c1.206,1.206,3.056,1.206,4.262,0l9.167-9.167C51.772,36.141,51.772,34.292,50.565,33.086z M47.912,37.348
	l-6.433,6.433c-1.206,1.206-3.056,1.206-4.262,0l-1.206-1.206l5.79-5.79c1.206-1.206,1.206-3.056,0-4.262L30.703,21.345l0.643-0.643
	c1.206-1.206,3.056-1.206,4.262,0l12.384,12.384C49.037,34.292,49.037,36.141,47.912,37.348z"/>
</svg>
