<?xml version="1.0" encoding="utf-8"?>
<!-- Generator: Adobe Illustrator 21.0.1, SVG Export Plug-In . SVG Version: 6.00 Build 0)  -->
<svg version="1.1" id="Layer_1" xmlns="http://www.w3.org/2000/svg" xmlns:xlink="http://www.w3.org/1999/xlink" x="0px" y="0px"
	 viewBox="0 0 64 64" style="enable-background:new 0 0 64 64;" xml:space="preserve">
<style type="text/css">
	.st0{fill:#4E5468;}
	.st1{fill:#C7CBD7;}
</style>
<g>
	<g>
		<g>
			<g>
				<circle class="st0" cx="32.033" cy="32" r="28.9"/>
			</g>
		</g>
	</g>
</g>
<g>
	<path class="st1" d="M37.346,23.789c-2.098-1.94-6.719-0.354-10.32,3.541s-4.819,8.626-2.72,10.566
		c2.098,1.94,6.719,0.354,10.32-3.541C38.226,30.46,39.444,25.729,37.346,23.789z M32.945,32.842
		c-2.206,2.386-4.952,3.435-6.133,2.344c-1.181-1.092-0.351-3.912,1.855-6.298s4.952-3.435,6.133-2.344
		C35.981,27.636,35.151,30.455,32.945,32.842z"/>
	<path class="st1" d="M42.438,23.431c-0.441,3.396-2.312,7.398-5.395,11.084l3.823,3.459c5.067-5.856,8.05-12.335,8.53-17.717
		L42.438,23.431z"/>
	<path class="st1" d="M34.049,15.741c2.678-0.577,5.046-0.225,6.629,1.238c1.039,0.961,1.617,2.303,1.799,3.874l6.959-3.173
		c-0.192-2.642-1.1-4.893-2.814-6.477c-2.439-2.254-6.089-2.793-10.201-1.879L34.049,15.741z"/>
	<path class="st1" d="M16.293,33.728c0.765-3.117,2.613-6.591,5.37-9.801l-3.161-2.86c-4.399,5.038-7.254,10.548-8.294,15.436
		L16.293,33.728z"/>
	<path class="st1" d="M22.985,22.485c2.96-3.036,6.265-5.191,9.319-6.254l2.38-6.441c-4.857,1.511-10.183,4.911-14.867,9.829
		L22.985,22.485z"/>
	<path class="st1" d="M35.026,36.701c-3.448,3.398-7.317,5.602-10.688,6.314l-2.608,7.06c5.354-0.867,11.635-4.363,17.117-9.916
		L35.026,36.701z"/>
	<path class="st1" d="M22.084,43.264c-1.714-0.001-3.211-0.474-4.319-1.498c-1.584-1.464-2.121-3.801-1.753-6.521l-6.078,2.772
		c-0.576,4.151,0.249,7.731,2.679,9.977c1.756,1.623,4.141,2.358,6.873,2.303L22.084,43.264z"/>
	<path class="st1" d="M48.089,32.646c-0.363,1.432-1.075,2.654-1.981,3.581c-0.35,0.358-0.468,0.848-0.348,1.335
		c0.483,1.96-0.123,4.284-1.732,6.136c-1.795,1.672-4.097,2.358-6.072,1.942c-0.49-0.103-0.976,0.031-1.322,0.393
		c-0.896,0.937-2.092,1.69-3.511,2.102c-1.07,0.311-2.132,0.374-3.135,0.267c3.352,3.239,8.647,3.187,12.776,0.659
		c0.338-0.207,0.742-0.229,1.118-0.104c1.607,0.536,3.365,0.194,4.546-1.009c1.162-1.222,1.443-2.991,0.852-4.578
		c-0.139-0.372-0.13-0.776,0.065-1.121c2.384-4.214,2.254-9.507-1.098-12.746C48.39,30.502,48.363,31.566,48.089,32.646z"/>
</g>
</svg>
