<svg xmlns="http://www.w3.org/2000/svg" viewBox="0 0 64 64" enable-background="new 0 0 64 64"><style type="text/css">.st0{fill:#555556;} .st1{fill:#93581C;} .st2{fill:#C4BC2C;} .st3{fill:#C8CAC9;}</style><circle class="st0" cx="32" cy="32" r="28.9"/><circle class="st1" cx="43.8" cy="46.4" r="16.2"/><path class="st2" d="M57.4 42.2c0-.5 6.9-4.8 5.4-6.6 0 0-.8 1.4-1.8.8-.6-.4 5.3-8.1 1.8-10 0 0 0 1.6-.4 2.2l-16.7 18.7c-.1-.1-.4-.7-.5-1-.1-.3-.1-.9 0-1.3.1-.3.7-.6.7-.6s-.8-.9-1.1-1.2-1.1-.1-1.3-.2c-.2-.1-.3-.6-.9-.6l-1.2.6s.7 0 1 .1c.3.2.6.7.6 1 0 .3-.1.9-.4 1.4v1.5h-.3l-16.9-19.1c-.5-.6-.6-1.9-.6-1.9-3.5 2 2.4 9.9 1.8 10.3-1 .6-1.9-.7-1.9-.7-1.5 1.9 4.9 5.6 4.9 6.1-.7.2-4.4-.6-5.4-2.1-1.1 2.5 5.3 4.9 5.3 5.3.2.5-1 .5-1.5.4.2.9 5.9 2.3 6.3 2.8-.6.3-3.4.4-4.3-.1.9 4.7 8.1 3.6 8.5 3.6 0 .6-1.4 1-1.7 1.3.9.6 3 .1 3.4-1 .3 0 1 0 1.1.1.2.4.1 6.1-1.7 2.1 0 0-.2 1-.1 1.3 0 .5.5 2.6-.4 2-.2.3 0 1.8 2 1.7 0 0-.3-.9-.3-1.2 0-.3.5-.9.8-.9.4 0 .6.7.5 1.3.4-.2.5-.5.6-.6.1-.2-.2-1-.4-1.2-.3-.2-.4-.6-.3-.9 0-.2.5-.4.8-.3.6.1.5 1.3.5 2.3.6-.5.6-2.1.4-2.4-.3-.2-.7-.5-.7-.8 0-.3.3-.7.3-1.2 0-.4.1-.6.3-.7.2-.1.3-.1.4.1.1.2-.2 1.8 0 2 .3.3.7.4.9.7.5 1.1.3 1.6.1 2.1 1-.1.7-1.2.8-1.4.3.2.5 1.8.2 2.8 0 0 .8-.6 1-.6.3 0 .1.4 0 .8.3 0 .9 0 .9-.4 1 .2 1.1-1 1.1-1s-1 .2-1-.4c0-.2.8-.9.8-1.5 0-.7-.9-1.6-.9-1.6s-.1.9-.3 1.1c-.2.2-.6.1-.8-.1s0-.8-.1-1.3c0-.4.1-1.1.2-1.3.7.4 2.6 1 3.4.4-.3-.3-1.4-.9-1.4-1.4.4 0 8 1.3 8.9-3.4-.9.5-3.7.6-4.3.3.4-.5 6.1-1.9 6.3-2.7-.5 0-1.6.1-1.5-.4 0-.4 6.5-3.2 5.4-5.7-1.1 1.5-5.6 2.8-6.3 2.6zM43.8 31.6c4.2 0 8 1.8 10.7 4.7l1.9-2.2c-3.2-3.3-7.7-5.4-12.7-5.4-4.8 0-9.1 1.9-12.3 5l1.9 2.2c2.8-2.6 6.5-4.3 10.5-4.3zM60.1 44.9h.6l-.3 1c-.1.5-.7.9-1.8 1.4l-.1.4c-.6 7.6-6.9 13.6-14.7 13.6-7.6 0-13.8-5.7-14.6-13.1l-.2-1.3c-1.1-.5-1.6-.8-1.7-1.3l-.3-1h.7c-.4-.2-.8-.5-1.3-.7-.1.8-.2 1.6-.2 2.5 0 9.7 7.9 17.6 17.6 17.6s17.6-7.9 17.6-17.6l-.1-2.3c-.4.3-.8.6-1.2.8z"/><path class="st3" d="M24.9 46.4v-.6h-3l-6.2-19.1 16.3-11.9 16.3 11.8-.4 1.3c3.1.7 6 2.1 8.4 4.2l2.9-9.1-27.2-19.7-27.2 19.8 10.4 32h11.9c-1.4-2.6-2.2-5.6-2.2-8.7z"/></svg>