<?xml version="1.0" encoding="utf-8"?>
<!-- Generator: Adobe Illustrator 21.0.1, SVG Export Plug-In . SVG Version: 6.00 Build 0)  -->
<svg version="1.1" id="Layer_1" xmlns="http://www.w3.org/2000/svg" xmlns:xlink="http://www.w3.org/1999/xlink" x="0px" y="0px"
	 viewBox="0 0 64 64" style="enable-background:new 0 0 64 64;" xml:space="preserve">
<style type="text/css">
	.st0{fill:#6F4512;}
	.st1{fill:#CE8508;}
</style>
<g>
	<circle class="st0" cx="32" cy="32" r="28.9"/>
</g>
<g>
	<path class="st1" d="M57.676,21.631c-0.02-0.095-0.056-0.192-0.108-0.28c-0.248-0.418-0.778-0.561-1.182-0.32
		c-0.29,0.173-0.436,0.495-0.404,0.818c0.502,4.035-1.344,8.166-5.049,10.369c-5,2.973-11.475,1.312-14.461-3.71
		c-2.986-5.022-1.353-11.504,3.647-14.477c3.705-2.203,8.217-1.852,11.521,0.517c0.269,0.182,0.622,0.208,0.912,0.035
		c0.405-0.241,0.532-0.774,0.283-1.192c-0.052-0.088-0.12-0.165-0.194-0.229c-4.509-3.94-10.874-4.901-15.92-1.901
		c-1.723,1.024-3.108,2.409-4.139,4.018c-0.434,0.678-1.381,0.71-1.863,0.066c-1.108-1.478-2.531-2.724-4.252-3.615
		c-5.212-2.7-11.511-1.368-15.781,2.829c-0.07,0.067-0.133,0.149-0.18,0.24c-0.223,0.431-0.066,0.957,0.352,1.173
		c0.3,0.155,0.65,0.109,0.908-0.089c3.161-2.558,7.643-3.172,11.471-1.19c5.166,2.676,7.175,9.051,4.488,14.239
		s-9.054,7.226-14.22,4.55c-3.828-1.983-5.912-5.999-5.647-10.056c0.013-0.325-0.152-0.637-0.452-0.793
		c-0.418-0.217-0.938-0.042-1.162,0.389c-0.047,0.091-0.077,0.19-0.092,0.285c-0.964,5.909,1.582,11.822,6.795,14.522
		c1.271,0.658,2.607,1.072,3.962,1.266c0.71,0.102,1.13,0.833,0.872,1.503c-0.569,1.478-0.885,3.07-0.885,4.735
		c0,6.056,4.079,11.195,9.77,13.116c0.092,0.032,0.193,0.052,0.296,0.052c0.486,0,0.88-0.394,0.88-0.88
		c0-0.349-0.202-0.648-0.496-0.79c-3.725-1.682-6.332-5.497-6.332-9.945c0-3.742,1.842-7.042,4.644-8.997v8.099
		c0,0.754,0.612,1.366,1.366,1.366c0.754,0,1.366-0.612,1.366-1.366v-9.461c0.558-0.182,1.139-0.308,1.733-0.393v10.598
		c0,0.862,0.698,1.56,1.56,1.56c0.862,0,1.56-0.698,1.56-1.56v-10.57c0.596,0.096,1.175,0.239,1.733,0.432v8.782
		c0,0.755,0.612,1.366,1.366,1.366c0.754,0,1.366-0.612,1.366-1.366v-7.35c2.699,1.97,4.465,5.199,4.465,8.859
		c0,4.448-2.607,8.263-6.332,9.945c-0.294,0.142-0.496,0.441-0.496,0.79c0,0.486,0.394,0.88,0.88,0.88
		c0.102,0,0.204-0.019,0.296-0.052c5.69-1.921,9.77-7.06,9.77-13.116c0-1.945-0.428-3.792-1.19-5.472
		c-0.334-0.736,0.154-1.554,0.962-1.602c1.965-0.117,3.905-0.677,5.681-1.733C56.788,33.526,58.984,27.474,57.676,21.631z
		 M33.814,33.701h-3.975c-0.76,0-1.238-0.82-0.863-1.481l1.987-3.509c0.38-0.671,1.347-0.671,1.727,0l1.987,3.509
		C35.052,32.881,34.574,33.701,33.814,33.701z"/>
	<polygon class="st1" points="13.64,31.297 18.191,26.518 22.529,30.718 24.699,28.477 20.342,24.259 24.987,19.381 22.729,17.228 
		18.101,22.088 13.596,17.726 11.426,19.967 15.95,24.348 11.382,29.144 	"/>
	<polygon class="st1" points="50.082,16.281 45.453,21.141 40.948,16.778 38.778,19.019 43.302,23.4 38.734,28.197 40.992,30.349 
		45.544,25.57 49.882,29.771 52.052,27.53 47.695,23.311 52.34,18.434 	"/>
</g>
</svg>
