<svg version="1.1" id="Layer_1" xmlns="http://www.w3.org/2000/svg" x="0" y="0" viewBox="0 0 64 64" xml:space="preserve"><style type="text/css">.st1{fill:#c4bc2c}</style><circle cx="32" cy="32" r="28.9" fill="#93581c"/><path class="st1" d="M39.91 33.5c.062.451.283.815.623 1.024.34.209.763.24 1.195.094.452-.156.854-.491 1.132-.942s.395-.961.33-1.435c-.062-.451-.282-.815-.622-1.024a1.272 1.272 0 0 0-.674-.185c-.602 0-1.252.381-1.654 1.034-.278.45-.395.96-.33 1.434zM32.346 21.393c1.546 1.052 3.341 1.11 4.008.129l.733-1.078a.627.627 0 0 1-.376.275c-.406.117-.819.12-1.214.073-.793-.099-1.519-.426-2.163-.853-.634-.442-1.205-.998-1.588-1.699a3.154 3.154 0 0 1-.38-1.155 1.06 1.06 0 0 1 .112-.439l-.725 1.066c-.666.981.046 2.628 1.593 3.681z"/><path class="st1" d="M32.289 17.945c.321.592.828 1.09 1.393 1.484.574.381 1.223.669 1.892.75.331.04.693.003.968-.054.375-.065.679-.144.975-.311l1.132-1.664c.667-.981-.046-2.628-1.592-3.681-1.546-1.052-3.341-1.11-4.008-.129l-1.132 1.664c-.013.377.008.716.054 1.032.05.316.161.615.318.909zm2.72-3.467c.264-.388 1.103-.278 1.873.246s1.181 1.264.917 1.652c-.264.388-1.103.278-1.873-.246s-1.181-1.264-.917-1.652zM43.224 18.583c.97.66 2.184.648 3.055.07l.726-1.14a3.433 3.433 0 0 1-2.706-.512 3.428 3.428 0 0 1-1.469-2.328l-.794 1.094c-.217 1.023.218 2.156 1.188 2.816z"/><path class="st1" d="M45.724 14.909a3.442 3.442 0 0 1-1.456-2.218l-.838 1.156c-.136.975.303 2.02 1.218 2.643.915.623 2.049.647 2.906.163l.768-1.204a3.445 3.445 0 0 1-2.598-.54zM37.308 22.632c.157.957.695 1.743 1.57 2.338.878.597 1.807.83 2.759.606a.728.728 0 0 0 .434-.321l3.619-5.678a3.422 3.422 0 0 1-2.814-.484 3.425 3.425 0 0 1-1.483-2.439l-3.954 5.453a.702.702 0 0 0-.131.525z"/><path class="st1" d="M47.014 26.372l-3.295-2.552-1.127 1.768c-.19.298-.486.514-.814.591a3.745 3.745 0 0 1-.863.101c-.806 0-1.605-.267-2.386-.798-1.032-.703-1.648-1.628-1.832-2.749a1.308 1.308 0 0 1 .23-.964l-.069.102c-.872 1.282-3.01 1.297-4.867.034-1.856-1.263-2.627-3.257-1.755-4.539l.102-.151h-5.811c-.539 0-1.04.279-1.324.738l-8.065 13.098a3.7 3.7 0 0 0-.552 1.945v2.487c0 .382-.096.758-.28 1.094l-5.863 10.69a3.415 3.415 0 0 0 .951 4.379l8.596 6.419c.397.297.883.45 1.379.436l7.036-.206a1.989 1.989 0 0 0 1.579-.856l7.534-10.865h-8.365L19.48 57.749c-.475.064-.802-.045-1.082-.412L27 44.991a.944.944 0 0 1 .402-.327l2.037-.873a.944.944 0 0 0 .424-.361l8.977-14.15a.697.697 0 0 0-.173-.933l-6.671-4.951 7.266 4.828a.697.697 0 0 1 .206.949l-8.74 14.066a.376.376 0 0 0 .311.574l6.575.137c.068-.046.126-.103.198-.143l.795-.448c.394-.222.728-.538.973-.919l8.085-12.47a2.673 2.673 0 0 0-.651-3.598zM29.093 40.534l-.171.252a.426.426 0 0 1-.592.113l-11.893-8.092a.426.426 0 0 1-.113-.592l.171-.252a.426.426 0 0 1 .592-.113l11.893 8.092a.426.426 0 0 1 .113.592zm1.606-2.361l-.171.252a.426.426 0 0 1-.592.113l-11.893-8.092a.426.426 0 0 1-.113-.592l.171-.252a.426.426 0 0 1 .592-.113l11.893 8.092a.425.425 0 0 1 .113.592zm1.607-2.362l-.171.252a.426.426 0 0 1-.592.113L19.65 28.084a.426.426 0 0 1-.113-.592l.171-.252a.426.426 0 0 1 .592-.113l11.893 8.092a.426.426 0 0 1 .113.592zm3.717-6.221a.426.426 0 0 1 .113.592l-2.057 3.023a.426.426 0 0 1-.592.113l-11.893-8.092a.426.426 0 0 1-.113-.592l2.057-3.023a.426.426 0 0 1 .592-.113l11.893 8.092zm7.363 4.409c-.352.573-.869 1-1.456 1.203a2.208 2.208 0 0 1-.727.126 1.88 1.88 0 0 1-.993-.278c-.501-.308-.824-.829-.912-1.467-.084-.616.063-1.27.416-1.843.739-1.203 2.165-1.674 3.177-1.051.501.308.824.829.911 1.467.084.616-.064 1.271-.416 1.843zM54.295 5.538a3.187 3.187 0 0 0-1.197-1.468 3.377 3.377 0 0 0-1.803-.57.695.695 0 0 0-.578.297l-5.874 8.1c-.075.933.358 1.907 1.229 2.5.871.592 1.936.638 2.777.225l5.379-8.44a.709.709 0 0 0 .067-.644z"/></svg>