<?xml version="1.0" encoding="utf-8"?>
<!-- Generator: Adobe Illustrator 21.0.1, SVG Export Plug-In . SVG Version: 6.00 Build 0)  -->
<svg version="1.1" id="Layer_1" xmlns="http://www.w3.org/2000/svg" xmlns:xlink="http://www.w3.org/1999/xlink" x="0px" y="0px"
	 viewBox="0 0 64 64" style="enable-background:new 0 0 64 64;" xml:space="preserve">
<style type="text/css">
	.st0{fill:#714282;}
	.st1{fill:#C58FFF;}
</style>
<circle class="st0" cx="32" cy="32" r="28.9"/>
<g>
	<path class="st1" d="M17.4,49.7V12.9c7.2-4.1,22.7-3.8,29.2,0v36.6l2.3,2.6V10.5c-7.5-4.4-25.5-4.8-33.8,0V52L17.4,49.7z"/>
	<path class="st1" d="M22.9,55c0,0-1.1-12.2-0.2-15.8c1.2-4.7,5.7-8.9,5.7-8.9s-3.5-2.8-3.9-6c-0.4-2.6,0.9-5.9,2.6-7.4
		c2.5-2,6.5-2.1,9.3,0c2.2,1.7,3.1,5.3,2.6,7.4c-0.6,3.3-3.3,6-3.3,6s4.9,4.3,5.7,8.9C42,44.6,40.9,55,40.9,55H22.9z"/>
</g>
</svg>
