<?xml version="1.0" encoding="utf-8"?>
<!-- Generator: Adobe Illustrator 21.0.1, SVG Export Plug-In . SVG Version: 6.00 Build 0)  -->
<svg version="1.1" id="Layer_1" xmlns="http://www.w3.org/2000/svg" xmlns:xlink="http://www.w3.org/1999/xlink" x="0px" y="0px"
	 viewBox="0 0 64 64" style="enable-background:new 0 0 64 64;" xml:space="preserve">
<style type="text/css">
	.st0{fill:#515151;}
	.st1{fill:#C8CAC9;}
</style>
<g>
	<circle class="st0" cx="32" cy="32" r="28.9"/>
</g>
<rect x="10.1" y="10.1" class="st1" width="43.8" height="43.8"/>
<g>
	<path class="st0" d="M43.7,42l-1.5-4.3H39c-0.9,0-1.7-0.1-2.6-0.3l2.7-6.6c-0.4-0.1-0.8-0.1-1.3-0.3c-1.1-0.4-2-1-2.8-1.8l-2.9,7.1
		c-1.1-0.7-2.1-1.5-2.9-2.4l-3.2,2.9c1.3,1.4,2.8,2.6,4.5,3.5l-2,5l3.2,1.3l-3.1,0l0.3,5.2l3.8-4.9l2-5.1c1.4,0.3,2.8,0.5,4.2,0.5
		L43.7,42L43.7,42z"/>
	<path class="st0" d="M51.3,44.7l-6.9-17.2c0.4-0.5,0.7-1,0.9-1.6c1-2.9-0.6-6.1-3.5-7.1c-2.9-1-6.1,0.6-7.1,3.5
		c-1,2.9,0.6,6.1,3.5,7.1c0.7,0.2,1.5,0.3,2.2,0.3l6.7,16.6l3.8,4.9l0.3-5.2l-3.1,0L51.3,44.7z M38.1,24.2c0-1,0.8-1.9,1.9-1.9
		s1.9,0.8,1.9,1.9c0,1-0.8,1.9-1.9,1.9C38.9,26.1,38.1,25.2,38.1,24.2z"/>
	<path class="st0" d="M29.1,40.4c-3.8-1.1-6.6-4.6-6.6-8.8c0-5.1,4.1-9.2,9.2-9.2c0.6,0,1.1,0.1,1.7,0.2c0-0.2,0.1-0.3,0.1-0.5
		c0.6-1.7,1.8-3.1,3.4-3.9c0.1,0,0.1,0,0.2-0.1c-0.4-0.2-0.8-0.3-1.3-0.4l-0.4-5.1h-7.4l-0.4,5.1c-1,0.3-2,0.7-3,1.2l-3.8-3.4
		l-5.2,5.2l3.4,3.8c-0.5,0.9-0.9,1.9-1.2,3l-5.1,0.4v7.4l5.1,0.4c0.3,1,0.7,2,1.2,3l-3.4,3.8l5.2,5.2l3.8-3.4c0.8,0.4,1.6,0.7,2.4,1
		L29.1,40.4z"/>
	<path class="st0" d="M41.5,17.7v-4.2c0-0.5-0.4-1-1-1h-1.1c-0.5,0-1,0.4-1,1v4.2C39.4,17.5,40.4,17.5,41.5,17.7z"/>
</g>
</svg>
