<svg xmlns="http://www.w3.org/2000/svg" viewBox="0 0 64 64" enable-background="new 0 0 64 64"><style type="text/css">.st0{fill:#93581C;} .st1{fill:#C4BC2C;}</style><circle class="st0" cx="32" cy="32.8" r="28.9"/><path class="st1" d="M53.381 36.925c-1.474-2.104-3.22-4.004-5.193-5.649.074-1.847 4.145-21.13 4.145-21.13-9.397-11.983-31.584-12.405-40.661 0 0 0 4.066 19.276 4.142 21.126-1.974 1.646-3.721 3.546-5.196 5.652-.77.561-2.032.212-3.575-1.402.351 7.363 5.467 15.843 7.15 18.786 3.284.791 6.454 1.995 9.436 3.581.871 1.623 1.561 3.338 2.058 5.112h12.623c.497-1.774 1.187-3.489 2.06-5.111 2.981-1.587 6.152-2.79 9.436-3.581 1.682-2.944 6.798-11.426 7.15-18.786-1.541 1.611-2.805 1.962-3.575 1.402zm-32.636-22.317h8.138v-8.138h6.233v8.138h8.138v6.233h-8.138v8.138h-6.233v-8.138h-8.138v-6.233zm.047 35.284c-1.753 0-10.235-3.749-9.957-10.338 3.403 0 15.076 3.645 18.754 3.575-.296 1.698-1.046 3.285-2.173 4.591-2.031 1.18-4.288 1.919-6.624 2.172zm14.991 7.173h-7.618c-.716-.664-1.235-1.513-1.496-2.454.492-1.308 3.354-6.102 5.316-6.102s4.802 4.792 5.293 6.102c-.26.941-.779 1.791-1.495 2.454zm7.325-7.174c-2.336-.252-4.593-.992-6.624-2.173-1.125-1.305-1.876-2.893-2.173-4.591 3.679.071 15.35-3.574 18.754-3.575.277 6.59-8.204 10.339-9.957 10.339z"/></svg>