<?xml version="1.0" encoding="utf-8"?>
<!-- Generator: Adobe Illustrator 21.0.1, SVG Export Plug-In . SVG Version: 6.00 Build 0)  -->
<svg version="1.1" id="Layer_1" xmlns="http://www.w3.org/2000/svg" xmlns:xlink="http://www.w3.org/1999/xlink" x="0px" y="0px"
	 viewBox="0 0 64 64" style="enable-background:new 0 0 64 64;" xml:space="preserve">
<style type="text/css">
	.st0{fill:#909319;}
	.st1{fill:#C8CAC9;}
</style>
<g>
	<circle class="st0" cx="32" cy="32" r="28.9"/>
</g>
<g>
	<polygon class="st1" points="10.45,50.2 11.55,51.3 12.45,11.8 10.45,13.8 	"/>
	<polygon class="st1" points="51.55,11.8 52.45,51.3 53.55,50.2 53.55,13.8 	"/>
	<polygon class="st1" points="47.65,10.5 47.65,14.1 45.35,11.8 18.65,11.8 16.35,14.1 16.35,10.5 13.75,10.5 13.75,10.5 
		14.95,53.5 16.35,53.5 16.35,49.9 18.65,52.2 45.35,52.2 47.65,49.9 47.65,53.5 49.05,53.5 50.25,10.5 50.25,10.5 	"/>
</g>
<g>
	<path class="st0" d="M28.87,49.2h-5.73c-0.16,0-0.29,0.13-0.29,0.29v0.71c0,0.16,0.13,0.29,0.29,0.29h5.73
		c0.16,0,0.29-0.13,0.29-0.29V49.5C29.17,49.34,29.04,49.2,28.87,49.2z"/>
	<path class="st0" d="M29.17,33.04c0-1.95-0.59-3.72-0.59-7.24h-5.14c0,3.52-0.59,5.3-0.59,7.24v14.6c0,0.39,0.31,0.7,0.7,0.7h4.91
		c0.39,0,0.7-0.31,0.7-0.7L29.17,33.04L29.17,33.04z"/>
	<path class="st0" d="M23.44,25.19h5.13v-3.94c0-1.58-1.45-7.74-2.57-7.74c-1.11,0-2.57,6.17-2.57,7.74L23.44,25.19L23.44,25.19z"/>
	<polygon class="st0" points="29.83,22.77 34.06,19.08 34.33,25.19 41.52,23.36 37.34,29.92 45.16,29.92 39.27,34.59 44.04,38.37 
		37.88,39.09 40.39,45.29 35.31,44.84 34.15,49.85 31.32,47.81 34.06,43.94 34.06,42.23 36.58,42.23 34.19,38.45 38.5,37.08 
		34.95,34.69 37.74,32.62 33.38,32.34 35.86,28.21 32.26,30.24 32.39,23.09 	"/>
</g>
</svg>
