<?xml version="1.0" encoding="utf-8"?>
<!-- Generator: Adobe Illustrator 21.0.1, SVG Export Plug-In . SVG Version: 6.00 Build 0)  -->
<svg version="1.1" id="Layer_1" xmlns="http://www.w3.org/2000/svg" xmlns:xlink="http://www.w3.org/1999/xlink" x="0px" y="0px"
	 viewBox="0 0 64 64" style="enable-background:new 0 0 64 64;" xml:space="preserve">
<style type="text/css">
	.st0{fill:#C8CAC9;}
	.st1{fill:#682323;}
</style>
<g>
	<path class="st0" d="M31.95,60.9L6.99,46.49l0.05-28.9l25-14.49L57,17.51l-0.05,28.89L31.95,60.9z M12.36,43.39l19.58,11.3
		l19.63-11.38l0.04-22.7L32.04,9.31L12.41,20.69L12.36,43.39z"/>
	<polygon class="st1" points="54.31,19.06 54.26,44.86 31.94,57.79 9.68,44.94 9.72,19.14 32.04,6.2 	"/>
</g>
<g>
	<path class="st0" d="M18.02,38.38c-0.23-0.2-0.22-0.55,0.01-0.75l2.83-2.39c0.2-0.17,0.46-0.27,0.72-0.26
		c0.42,0.02,1.1-0.15,1.92-0.69c0.95-0.62,1.38-1.3,1.3-2c-0.05-0.4,0.18-0.78,0.5-1.02l15.26-11.21c0.67,0.17,1.06,0.67,1.17,1.45
		l-2.59,2.07l0.28,0.37c0.37,0.48,0.29,1.18-0.19,1.56l-5.22,4.15c-0.45,0.36-1.11,0.32-1.51-0.11l-0.58-0.61l-3.21,2.5l-0.34,3.64
		c-0.01,0.11-0.1,0.19-0.21,0.19h-1.19l-0.6,0.55l0.04,2.38c0,0.12-0.09,0.21-0.21,0.21h-1.89c-0.23,0-0.43,0.16-0.49,0.38
		c-0.3,1.22-1.31,4.97-2.48,4.9C20.05,43.6,20.17,40.22,18.02,38.38z"/>
	<path class="st0" d="M24.49,24.21c-0.37,0.48-0.29,1.18,0.19,1.56l2.35,1.87l3.14-2.3l-6.82-5.01c-0.67,0.17-1.06,0.67-1.17,1.45
		l2.59,2.07L24.49,24.21z"/>
	<path class="st0" d="M45.88,37.89l-2.83-2.39c-0.2-0.17-0.46-0.27-0.72-0.26c-0.42,0.02-1.1-0.15-1.92-0.69
		c-0.95-0.62-1.38-1.3-1.3-2c0.05-0.4-0.18-0.78-0.5-1.02l-2.03-1.49l-1.38,1.1c-0.12,0.1-0.25,0.18-0.39,0.26l0.38,0.3l0.34,3.64
		c0.01,0.11,0.1,0.19,0.21,0.19h1.19l0.6,0.55l-0.04,2.38c0,0.12,0.09,0.21,0.21,0.21h1.89c0.23,0,0.43,0.16,0.49,0.38
		c0.3,1.22,1.31,4.97,2.48,4.9c1.31-0.08,1.2-3.46,3.34-5.31C46.12,38.44,46.11,38.09,45.88,37.89z"/>
	<polygon class="st0" points="43.17,14.52 32,11.5 20.83,14.52 20.83,16.96 32,13.93 43.17,16.96 	"/>
	<polygon class="st0" points="43.17,49.48 32,52.5 20.83,49.48 20.83,47.04 32,50.07 43.17,47.04 	"/>
	<polygon class="st0" points="49.48,43.17 52.5,32 49.48,20.83 47.04,20.83 50.07,32 47.04,43.17 	"/>
	<polygon class="st0" points="14.52,43.17 11.5,32 14.52,20.83 16.96,20.83 13.93,32 16.96,43.17 	"/>
</g>
</svg>
