<svg version="1.1" id="Layer_1" xmlns="http://www.w3.org/2000/svg" x="0" y="0" viewBox="0 0 64 64" xml:space="preserve"><style type="text/css">.st0{fill:#c8cac9}</style><path class="st0" d="M31.948 60.9L6.986 46.488l.052-28.895L32.036 3.1l24.962 14.412-.054 28.894L31.948 60.9zM12.365 43.389L31.942 54.69l19.634-11.383.041-22.696L32.042 9.309 12.407 20.692l-.042 22.697z"/><path fill="#682323" d="M54.308 19.061l-.047 25.796-22.316 12.938L9.676 44.938l.046-25.795L32.039 6.204z"/><g><path class="st0" d="M13.326 40.54a.66.66 0 0 1 .011-1.003l3.795-3.207c.27-.231.612-.363.967-.35.567.021 1.474-.205 2.572-.922 1.275-.833 1.847-1.735 1.738-2.681-.061-.533.236-1.045.669-1.362L43.522 16c.902.224 1.413.892 1.562 1.944l-3.474 2.773.378.491a1.496 1.496 0 0 1-.254 2.083l-6.985 5.559a1.497 1.497 0 0 1-2.018-.142l-.777-.82-4.302 3.346-.455 4.878a.277.277 0 0 1-.277.252h-1.595l-.797.733.059 3.19a.278.278 0 0 1-.278.283h-2.533a.669.669 0 0 0-.65.51c-.4 1.639-1.757 6.663-3.322 6.565-1.752-.109-1.601-4.631-4.478-7.105zM21.997 21.56a1.496 1.496 0 0 0 .254 2.083l3.147 2.504 4.2-3.085-9.136-6.71c-.902.224-1.413.892-1.562 1.944l3.474 2.773-.377.491zM50.647 39.89l-3.795-3.207a1.408 1.408 0 0 0-.967-.35c-.567.021-1.474-.205-2.572-.922-1.275-.833-1.847-1.735-1.738-2.681.061-.533-.236-1.045-.669-1.362l-2.718-1.996-1.851 1.473a4.018 4.018 0 0 1-.516.343l.513.399.455 4.878a.277.277 0 0 0 .277.252h1.595l.797.733-.059 3.19a.278.278 0 0 0 .278.283h2.533c.309 0 .576.21.65.51.4 1.639 1.757 6.663 3.322 6.565 1.752-.109 1.601-4.632 4.478-7.106a.66.66 0 0 0-.013-1.002z"/></g></svg>