<svg xmlns="http://www.w3.org/2000/svg" viewBox="0 0 64 64" enable-background="new 0 0 64 64"><style type="text/css">.st0{fill:#6F4512;} .st1{fill:#CE8508;}</style><circle class="st0" cx="32" cy="32" r="28.9"/><path class="st1" d="M41.1 54.5l-6.2-1.8c-.4-.1-.7-.5-.6-1 .9-4.4.2-9.9.5-13.6 0-.2-.1-.4-.2-.6l-1.3-1.4c-.2-.2-.4-.3-.6-.3h-1.6c-.2 0-.4.1-.6.2l-1.4 1.3c-.2.2-.3.4-.2.7.6 4-.7 9.4.5 13.6.1.4-.1.9-.6 1l-6.3 1.8c-.4.1-.6.4-.6.8v.9c0 .4.3.7.7.8 2.3.5 4.5 1 6.7 1.4.4.1.7.4.7.8v2.1c0 .5.4.8.8.8h2.2c.5 0 .8-.4.8-.8v-2.2c0-.4.3-.7.7-.8 2.3-.4 4.4-.9 6.5-1.3.4-.1.7-.4.7-.8v-.9c0-.2-.2-.6-.6-.7zM30 19.6c.2.2.5.3.7.3h1.8c.3 0 .5-.1.7-.3 1.6-1.4 2.9-2.9 4.2-4.1.2-.2.3-.5.3-.7v-7.3c0-.2-.1-.5-.3-.7-.7-.8-1.3-1.5-1.8-2.1-.2-.2-.5-.4-.8-.4h-6.2c-.3 0-.5.1-.7.3l-1.9 1.9c-.2.2-.3.5-.3.7v7.4c0 .3.1.5.3.7 1.4 1.5 2.7 3 4 4.3zM34.8 22.6c1 .9 1.9 1.8 2.8 2.7.2.2.6.2.9 0l12.5-12.5c.7-.7 1.5-1.4 1.8-2.2.7-1.7 1.3-3.5 1.9-5.2.1-.2 0-.5-.1-.7l-2.7-2.7c-.3-.3-.9-.2-1 .2-.8 1.8-1.6 3.7-2.6 6l-.1.2-13.3 13.3c-.3.2-.3.6-.1.9zM17.1 17.1l7.9 7.9c.2.2.6.2.9 0l2.7-2.3c.3-.2.3-.7 0-.9-4.6-4.6-9.6-9.6-13.5-13.6-.2-.2-.3-.2-.3-.2-2.4-1-4.1-1.7-5.8-2.5-.3-.1-.6 0-.8.2-.8.8-1.6 1.7-2.4 2.7-.3.4-.2.9.3 1.1 1.8.6 3.7 1 5.3 2.1 2.1 1.4 3.8 3.6 5.7 5.5zM28.7 35c.3-.3.3-.7 0-.9l-2.6-2.6c-.3-.3-.7-.3-.9 0l-12.2 12.2c-.7.7-1.4 1.4-1.8 2.2-.7 1.7-1.3 3.5-1.9 5.2-.1.2 0 .5.2.7l2.6 2.6c.3.3.8.2 1-.1.2-.4.5-.9.6-1.3.7-3.7 3.1-6.2 5.6-8.6 3.2-3.1 6.3-6.3 9.4-9.4zM58 47.3c-.4-.3-.9-.5-1.3-.6-3.5-.6-5.9-2.8-8.3-5.3-3.1-3.3-6.6-6.7-9.7-9.8-.3-.3-.7-.3-1 0l-2.6 2.4c-.3.3-.3.8 0 1 3.1 3 6.4 6.1 9.2 9.3 3 3.3 6.4 5.7 10.5 6.8.2.1.5 0 .7-.2l2.7-2.5c.3-.2.2-.8-.2-1.1zM33.3 24.6c-.2-.2-.4-.3-.7-.3h-1.7c-.3 0-.5.1-.7.3l-2 1.8c-.2.2-.3.5-.3.7v2c0 .2.1.5.2.6l1.8 2.1c.2.2.5.4.8.4h2.2c.3 0 .5-.1.7-.3.7-.6 1.3-1.3 1.9-1.9.2-.2.3-.5.3-.7v-1.8c0-.3-.1-.5-.3-.7-.5-.5-1.7-1.6-2.2-2.2zM19.8 24.5v6.1c0 .1.1.3.2.3l1 .8c.2.1.4.1.6 0l2.5-2.3c.1-.1.1-.2.1-.3v-1.2c0-.1 0-.2-.1-.3l-3.5-3.4c-.3-.3-.8-.1-.8.3zM42.8 24.1l-3.6 3.4c-.1.1-.1.2-.1.3v1.2c0 .1 0 .2.1.3l2.5 2.3c.2.1.4.1.5 0l1-.8c.1-.1.2-.2.2-.3v-6.1c.1-.4-.4-.5-.6-.3z"/></svg>