<?xml version="1.0" encoding="utf-8"?>
<!-- Generator: Adobe Illustrator 21.0.1, SVG Export Plug-In . SVG Version: 6.00 Build 0)  -->
<svg version="1.1" id="Layer_1" xmlns="http://www.w3.org/2000/svg" xmlns:xlink="http://www.w3.org/1999/xlink" x="0px" y="0px"
	 viewBox="0 0 64 64" style="enable-background:new 0 0 64 64;" xml:space="preserve">
<style type="text/css">
	.st0{fill:#4E5468;}
	.st1{fill:#C7CBD7;}
</style>
<g>
	<g>
		<g>
			<g>
				<circle class="st0" cx="32" cy="32" r="28.9"/>
			</g>
		</g>
	</g>
</g>
<path class="st1" d="M52.732,16.463l-0.66-1.143c-0.144-0.25-0.463-0.335-0.713-0.191l-2.501,1.444l-0.375-0.65
	c-0.163-0.282-0.476-0.422-0.78-0.381l-1.199-2.077c-0.256-0.444-0.824-0.596-1.268-0.34c-0.444,0.256-0.596,0.824-0.34,1.268
	l1.17,2.026l-2.71,1.565c-0.444-0.703-1.361-0.944-2.088-0.525l-0.197,0.114c-0.326,0.188-0.437,0.605-0.249,0.931l0.409,0.708
	L20.126,31.395l-0.247-0.428c-0.464-0.804-1.493-1.08-2.297-0.616l-0.728,0.42c-0.804,0.464-1.08,1.493-0.616,2.297l0.247,0.428
	l-2.839,1.639c-1.102,0.636-1.524,1.983-1.044,3.126c-0.78-0.627-1.961-0.641-2.78,0c-0.935,0.732-0.722,2.118,0.012,3.053
	c1.633,2.084,3.215,5.51,3.215,7.63c0,1.189,0.738,2.055,1.928,2.055s1.843-0.908,1.843-2.097c0-2.766-1.235-5.731-2.321-7.79
	c1.763,1.654,4.504,1.957,6.598,0.497l0.449-0.313v8.651c0,0.394,0.32,0.714,0.714,0.714h4.334c0.394,0,0.714-0.32,0.714-0.714
	v-6.288c2.092-0.348,4.281-1.531,4.405-1.6c1.216-0.72,1.471-1.599,1.471-2.209v-4.04l0.188-0.108
	c1.881,2.012,8.85,9.273,12.102,9.956c0.332,0.07,0.67-0.037,0.897-0.29l2.78-3.102c0.232-0.259,0.14-0.665-0.186-0.786
	c-3.081-1.142-8.377-6.192-10.962-8.782c0.552-0.827,0.634-1.924,0.103-2.843l-0.044-0.076l11.216-7.821
	c1.077-0.751,1.4-2.194,0.759-3.335l2.506-1.447C52.79,17.031,52.876,16.712,52.732,16.463z M31.389,39.851
	c0,0.273-0.371,0.534-0.568,0.65c-0.02,0.012-1.817,0.99-3.515,1.342v-2.64l0.335-0.193c0.79,0.786,1.792,1.427,2.059,1.631
	l0.389-0.509c-0.496-0.379-1.05-1.049-1.477-1.683l2.776-1.603V39.851z"/>
</svg>
