<?xml version="1.0" encoding="utf-8"?>
<!-- Generator: Adobe Illustrator 21.0.1, SVG Export Plug-In . SVG Version: 6.00 Build 0)  -->
<svg version="1.1" id="Layer_1" xmlns="http://www.w3.org/2000/svg" xmlns:xlink="http://www.w3.org/1999/xlink" x="0px" y="0px"
	 viewBox="0 0 64 64" style="enable-background:new 0 0 64 64;" xml:space="preserve">
<style type="text/css">
	.st0{fill:#4E5468;}
	.st1{fill:#C7CBD7;}
</style>
<g>
	<circle class="st0" cx="32" cy="32" r="28.9"/>
</g>
<g>
	<path class="st1" d="M14.876,28.75c0.194-0.677,1.645-1.355,2.806-0.677c1.839,1.161,9.678,3.484,11.226,5.226
		c0.774,2.226,0.677,12,0.677,13.258c0.097,1.548-1.065,2.226-2.613,1.936c-1.742-0.871-5.419-6.774-6.387-6.871
		c-0.194,4.548-6.581,7.548-7.742,7.065c-2.032-0.677-4.452-3.871-4.258-6.194c0.581-1.548,2.129-5.419,9.29-5.419
		C17.682,35.621,14.102,30.879,14.876,28.75z"/>
	<path class="st1" d="M36.941,48.105c-0.677,0.097-1.936-0.871-1.839-2.226c0.194-2.129-1.065-10.258,0-12.387
		c1.645-1.742,10.549-5.71,11.613-6.194c1.258-0.774,2.613,0,2.806,1.548c-0.097,1.936-3.871,7.839-3.581,8.71
		c4.161-1.742,9.678,2.71,9.774,3.968c0.29,2.129-1.548,5.71-3.774,6.581c-1.645,0.097-5.807,0.29-8.807-6
		C41.973,42.492,39.167,47.814,36.941,48.105z"/>
	<path class="st1" d="M43.521,19.459c0.387,0.581,0.194,2.129-1.065,2.71c-1.936,0.968-8.323,6.097-10.645,6.387
		c-2.226-0.581-10.355-6.097-11.42-6.774c-1.258-0.774-1.258-2.129-0.194-3.097c1.742-0.968,8.71-0.774,9.29-1.355
		c-3.677-2.71-2.71-9.678-1.645-10.452c1.645-1.355,5.71-1.645,7.548-0.097c0.968,1.258,3.194,4.839-0.677,10.645
		C36.07,18.104,42.07,17.717,43.521,19.459z"/>
</g>
</svg>
