<svg xmlns="http://www.w3.org/2000/svg" viewBox="0 0 64 64" enable-background="new 0 0 64 64"><style type="text/css">.st0{fill:#8E3333;} .st1{fill:#C14848;}</style><circle class="st0" cx="32" cy="32" r="28.9"/><path class="st1" d="M44 51.9c-4.4-2.5-6.7-7.1-6.5-11.4 0-.6-.7-1-1.2-.7-1.3.7-2.8 1.2-4.3 1.2-1.6 0-3.2-.5-4.5-1.3-.6-.4-1.3.1-1.2.8.4 4.5-2 9.1-6.5 11.8-2.8 1.7-6 2.1-8.8 1.6-.9-.2-1.3 1.1-.5 1.5 5.3 2.9 12 3 17.6-.2 1.2-.7 2.3-1.5 3.2-2.4.3-.3.8-.3 1.1 0 1 .9 2 1.8 3.2 2.5 5.8 3.4 12.8 3.1 18.3-.2.8-.5.3-1.7-.6-1.5-3 .5-6.3 0-9.3-1.7zM8.9 32.7c4.4-2.5 9.5-2.3 13.1.1.5.4 1.2-.1 1.2-.7 0-1.5.3-2.9 1.1-4.3s2-2.5 3.4-3.2c.6-.3.6-1.2-.1-1.4-4.1-1.9-6.9-6.3-6.9-11.5 0-3.3 1.1-6.2 3-8.4.6-.7-.3-1.7-1-1.2-5.2 3.2-8.6 8.9-8.6 15.3 0 1.4.2 2.7.5 4 .1.4-.1.9-.6 1-1.2.4-2.5.9-3.7 1.5-5.9 3.3-9.1 9.6-9 15.9 0 .9 1.3 1.1 1.6.2.9-2.9 3-5.6 6-7.3zM42.6 11.7c.1 5.1-2.6 9.4-6.4 11.4-.6.3-.5 1.1 0 1.4 1.3.7 2.4 1.7 3.2 3.1.8 1.4 1.2 3 1.2 4.5 0 .7.8 1 1.3.6 3.6-2.7 8.9-3 13.5-.5 2.9 1.6 4.9 4 5.9 6.7.3.8 1.6.6 1.6-.3-.3-6.1-3.6-11.8-9.2-14.9-1.2-.6-2.5-1.2-3.8-1.5-.4-.1-.7-.5-.6-1 .3-1.3.5-2.7.5-4-.1-6.8-4-12.6-9.6-15.6-.8-.4-1.6.6-1 1.3 2.1 2.3 3.4 5.4 3.4 8.8z"/></svg>