<?xml version="1.0" encoding="utf-8"?>
<!-- Generator: Adobe Illustrator 21.0.1, SVG Export Plug-In . SVG Version: 6.00 Build 0)  -->
<svg version="1.1" id="Layer_1" xmlns="http://www.w3.org/2000/svg" xmlns:xlink="http://www.w3.org/1999/xlink" x="0px" y="0px"
	 viewBox="0 0 64 64" style="enable-background:new 0 0 64 64;" xml:space="preserve">
<style type="text/css">
	.st0{fill:#682323;}
	.st1{fill:#C14848;}
	.st2{fill:#C8CAC9;}
</style>
<g>
	<circle class="st0" cx="32" cy="32" r="28.9"/>
</g>
<g>
	<path class="st1" d="M23.71,14.52l-9.19-5.4l-9.19,5.41v11.6h18.38V14.52z M20.18,19.61H8.87V16.8h11.31L20.18,19.61L20.18,19.61z"
		/>
	<path class="st1" d="M23.71,28.59v-0.02H5.34h0L4.5,48.77l2.31,0.1l0.2-4.73h15.04l0.2,4.75l2.31-0.1L23.71,28.59L23.71,28.59z
		 M20.16,30.73l-5.77,4.25l-5.77-4.24C8.62,30.73,20.16,30.73,20.16,30.73z M7.49,32.58l5.08,3.74l-5.4,3.97L7.49,32.58z
		 M8.53,41.97l5.86-4.31l5.86,4.31H8.53z M16.21,36.32l5.35-3.94l0.34,8.12L16.21,36.32z"/>
</g>
<g>
	<path class="st2" d="M45.38,26.75L26.75,45.38L45.38,64L64,45.38C64,45.38,45.38,26.75,45.38,26.75z M32.81,45.38l10.96-10.96
		v11.03l-2.88,2.88l4.48,4.48l4.48-4.48l-2.88-2.88V34.42l10.96,10.96L45.38,57.94C45.38,57.94,32.81,45.38,32.81,45.38z"/>
	<polygon class="st1" points="29.03,40.98 29.03,34.22 32.21,34.22 32.21,37.8 35.26,34.75 35.26,34.22 35.79,34.22 45.38,24.63 
		59.5,38.76 59.5,25.05 52.5,25.05 52.5,21.42 40.41,16.46 28.33,21.42 28.33,28.57 26.97,28.57 26.97,43.04 	"/>
</g>
</svg>
