<?xml version="1.0" encoding="utf-8"?>
<!-- Generator: Adobe Illustrator 21.0.1, SVG Export Plug-In . SVG Version: 6.00 Build 0)  -->
<svg version="1.1" id="Layer_1" xmlns="http://www.w3.org/2000/svg" xmlns:xlink="http://www.w3.org/1999/xlink" x="0px" y="0px"
	 viewBox="0 0 64 64" style="enable-background:new 0 0 64 64;" xml:space="preserve">
<style type="text/css">
	.st0{fill:#4E5468;}
	.st1{fill:#C7CBD7;}
</style>
<circle class="st0" cx="32" cy="32" r="28.9"/>
<rect x="10.1" y="10.1" class="st1" width="43.8" height="43.8"/>
<g>
	<path class="st0" d="M36.9,25.4h-9.9c-0.9,0-1.5,0.7-1.5,1.5v9.9c0,0.9,0.7,1.5,1.5,1.5h9.9c0.9,0,1.5-0.7,1.5-1.5V27
		C38.5,26.1,37.8,25.4,36.9,25.4z"/>
	<path class="st0" d="M46.2,31.9l3.8-1.7l-3.8-1.7l0,0l0,0l3.8-1.7l-3.7-1.6l-7.5-7.5L37.2,14l-1.7,3.8l0,0l0,0L33.8,14l-1.7,3.8
		l0,0l0,0L30.4,14l-1.7,3.8l0,0l0,0L27,14l-1.6,3.7l-7.5,7.5l-3.8,1.7l3.3,1.5l0,0l0.5,0.3l0,0l0,0l-3.8,1.7l3.3,1.5l0,0l0.5,0.3
		l0,0l0,0l-3.8,1.7l3.3,1.5l0,0l0.4,0.3l0,0l0,0L14,37.1l3.8,1.7l7.5,7.5l1.6,3.7l1.7-3.8l0,0l0,0l1.7,3.8l1.7-3.8l0,0l0,0l1.7,3.8
		l1.7-3.8l0,0l0,0l1.7,3.8l1.6-3.7l7.5-7.5l3.7-1.6l-3.8-1.7l0,0l0,0l3.8-1.7L46.2,31.9L46.2,31.9L46.2,31.9z M40.5,39
		c0,0.9-0.7,1.5-1.5,1.5H24.9c-0.9,0-1.5-0.7-1.5-1.5V24.9c0-0.9,0.7-1.5,1.5-1.5H39c0.9,0,1.5,0.7,1.5,1.5V39z"/>
</g>
</svg>
