<svg xmlns="http://www.w3.org/2000/svg" viewBox="0 0 64 64" enable-background="new 0 0 64 64"><style type="text/css">.st0{fill:#4E5468;} .st1{fill:#C7CBD7;}</style><circle class="st0" cx="31.6" cy="31.7" r="28.9"/><path class="st1" d="M15.9 13.2l-2.3 6.3c-1.3 3.7-1.9 7.6-1.8 11.4l.1 3 5.9-3.2-1.9-17.5zM32.2 52.7l3-.2c3.9-.2 7.7-1.1 11.3-2.7l6.1-2.8-17.6-.5-2.8 6.2z"/><circle class="st1" cx="40.7" cy="23.3" r="3.8"/><path class="st1" d="M37.6 26.3c-.7-.8-1.2-1.8-1.2-3 0-2.4 1.9-4.3 4.3-4.3.4 0 .8.1 1.1.2-.3-1-.5-2.1-.1-2.8.8-1.2 4.6-4.9 4.6-4.9l-.6-.9s-5.1 2.1-7.3 4.9l-1.9 7.2-18.6 8.8-6 3.3.2 6.8c0 1.2.9 2.3 2.1 2.5l.7.1c.6.1 1.3 0 1.7-.4l20.4-16.9.6-.6zm-22.5 15.9c-.6 0-1.1-.4-1.1-1s.4-1.1 1-1.1 1.1.4 1.1 1c.1.6-.4 1.1-1 1.1zM44.7 21.7c.2.5.3 1 .3 1.6 0 1.9-1.2 3.4-2.8 4 1.2-.1 4.4-.5 6.5-2.5 2.6-2.4 4.3-7.7 4.3-7.7l-1-.6s-3.4 4.1-4.6 5c-.7.5-1.8.4-2.7.2zM41.5 27.5c-.3.1-.6.1-.9.1-1.1 0-2.1-.4-2.9-1.1l-.6.7-15 21.6c-.4.5-.5 1.2-.3 1.8l.2.7c.3 1.2 1.4 2 2.6 1.9l6.8-.4 2.8-6.2 7.3-19.1zm-16.7 23.6c-.6 0-1.1-.4-1.1-1s.4-1.1 1-1.1 1.1.4 1.1 1-.4 1.1-1 1.1z"/></svg>