<svg xmlns="http://www.w3.org/2000/svg" viewBox="0 0 64 64" enable-background="new 0 0 64 64"><style type="text/css">.st0{fill:#3A508E;} .st1{fill:#C8CAC9;}</style><circle class="st0" cx="32" cy="32" r="28.9"/><path class="st1" d="M10.4 50.2l1.2 1.1.8-39.5-2 2zM51.5 11.8l1 39.5 1-1.1v-36.4zM47.7 10.5v3.6l-2.4-2.3h-26.700000000000003l-2.2 2.3v-3.6h-2.6l1.1 43h1.5v-3.6l2.2 2.3h26.700000000000003l2.4-2.3v3.6h1.3l1.3-43z"/><path class="st0" d="M41.3 40l-1.2-3.4h-2.6c-.7 0-1.4-.1-2.1-.2l2.1-5.3c-.3 0-.7-.1-1-.2-.9-.3-1.6-.8-2.2-1.5l-2.3 5.6c-.9-.5-1.7-1.2-2.3-1.9l-2.5 2.3c1 1.1 2.2 2.1 3.6 2.8l-1.6 4 2.6 1.1h-2.5l.3 4.2 3-3.9 1.6-4c1.1.3 2.2.4 3.3.4h3.8zM47.3 42.1l-5.5-13.6c.3-.4.5-.8.7-1.3.8-2.3-.5-4.9-2.8-5.6-2.3-.8-4.9.5-5.6 2.8-.8 2.3.5 4.9 2.8 5.6.6.2 1.2.3 1.8.2l5.3 13.2 3 3.9.3-4.2h-2.5l2.5-1zm-10.5-16.3c0-.8.7-1.5 1.5-1.5s1.5.7 1.5 1.5-.7 1.5-1.5 1.5-1.5-.7-1.5-1.5zM29.7 38.7c-3-.9-5.2-3.7-5.2-7 0-4 3.3-7.3 7.3-7.3.5 0 .9 0 1.3.1l.1-.4c.5-1.4 1.4-2.4 2.7-3.1 0 0 .1 0 .1-.1l-1-.4-.3-4.1h-5.9l-.3 4.1c-.8.2-1.6.6-2.4 1l-3.1-2.7-4 4.3 2.7 3.1c-.4.7-.7 1.5-1 2.4l-4.1.3v5.9l4.1.3c.2.8.6 1.6 1 2.4l-2.7 2.8 4.1 4.1 3.1-2.7c.6.3 1.2.6 1.9.8l1.6-3.8zM39.5 20.6v-3.4c0-.4-.3-.8-.8-.8h-.9c-.4 0-.8.3-.8.8v3.4c.9-.2 1.7-.2 2.5 0z"/></svg>