<svg xmlns="http://www.w3.org/2000/svg" viewBox="0 0 64 64" enable-background="new 0 0 64 64"><style type="text/css">.st0{fill:#682323;} .st1{fill:#C8CAC9;} .st2{fill:none;} .st3{fill:#C14848;}</style><circle class="st0" cx="32" cy="32" r="28.9"/><path class="st1" d="M45.38 26.75l-18.63 18.63 18.63 18.62 18.62-18.62-18.62-18.63zm-12.57 18.63l10.96-10.96v11.03l-2.88 2.88 4.48 4.48 4.48-4.48-2.88-2.88v-11.03l10.96 10.96-12.55 12.56-12.57-12.56z"/><path class="st2" d="M32 12l-17.3 10v20l15.32 8.77-5.39-5.39 1.4-1.41-7.43-4.27v-15.4l13.4-7.7 13.4 7.7v.35l3.9 3.9v-6.55zM32 21.2l-9.3 5.4v10.8l6.27 3.64 12.33-12.34v-2.1z"/><path class="st3" d="M14.7 42v-20l17.3-10 17.3 10v6.55l6.1 6.1v-16.15l-23.4-13.5-23.4 13.5v27l23.4 13.5 3.97-2.29-5.95-5.94zM22.7 37.4v-10.8l9.3-5.4 9.3 5.4v2.1l4.08-4.07.02.02v-.35l-13.4-7.7-13.4 7.7v15.4l7.43 4.27 2.94-2.93z"/></svg>