<svg xmlns="http://www.w3.org/2000/svg" viewBox="0 0 64 64" enable-background="new 0 0 64 64"><style type="text/css">.st0{fill:#4E5468;} .st1{fill:#C7CBD7;}</style><circle class="st0" cx="32" cy="32" r="28.9"/><path class="st1" d="M52.7 16.5l-.7-1.1c-.1-.3-.5-.3-.7-.2l-2.5 1.4-.4-.6c-.2-.3-.5-.4-.8-.4l-1.2-2.1c-.3-.4-.8-.6-1.3-.3s-.6.8-.3 1.3l1.2 2-2.6 1.5c-.4-.7-1.4-.9-2.1-.5l-.2.1c-.3.2-.4.6-.2.9l.4.7-21.2 12.2-.2-.4c-.5-.8-1.5-1.1-2.3-.6l-.7.4c-.8.5-1.1 1.5-.6 2.3l.2.4-2.8 1.6c-1.1.6-1.5 2-1 3.1-.8-.6-2-.6-2.8 0-.9.7-.7 2.1 0 3.1 1.6 2.1 3.2 5.5 3.2 7.6 0 1.2.7 2.1 1.9 2.1s1.8-.9 1.8-2.1c0-2.8-1.2-5.7-2.3-7.8 1.8 1.7 4.5 2 6.6.5l.4-.3v8.7c0 .4.3.7.7.7h4.3c.4 0 .7-.3.7-.7v-6.3c2.1-.3 4.3-1.5 4.4-1.6 1.2-.7 1.5-1.6 1.5-2.2v-4l.2-.1c1.9 2 8.8 9.3 12.1 10 .3.1.7 0 .9-.3l2.8-3.1c.2-.3.1-.7-.2-.8-3.1-1.1-8.4-6.2-11-8.8.6-.8.6-1.9.1-2.8v-.1l11.3-7.9c1.1-.8 1.4-2.2.8-3.3l2.5-1.4c.2-.3.3-.6.1-.8zm-21.3 23.4c0 .3-.4.5-.6.7 0 0-1.8 1-3.5 1.3v-2.6l.3-.2c.8.8 1.8 1.4 2.1 1.6l.4-.5c-.5-.4-1-1-1.5-1.7l2.8-1.6v3z"/></svg>