<svg xmlns="http://www.w3.org/2000/svg" viewBox="0 0 64 64" enable-background="new 0 0 64 64"><style type="text/css">.st0{fill:#326629;} .st1{fill:#C8CAC9;}</style><circle class="st0" cx="32" cy="32" r="28.9"/><path class="st1" d="M10.1 10.1h43.8v43.8h-43.8z"/><path class="st0" d="M43.7 42l-1.5-4.3h-3.2c-.9 0-1.7-.1-2.6-.3l2.7-6.6c-.4-.1-.8-.1-1.3-.3-1.1-.4-2-1-2.8-1.8l-2.9 7.1c-1.1-.7-2.1-1.5-2.9-2.4l-3.2 2.9c1.3 1.4 2.8 2.6 4.5 3.5l-2 5 3.2 1.3h-3.1l.3 5.2 3.8-4.9 2-5.1c1.4.3 2.8.5 4.2.5l4.8.2zM51.3 44.7l-6.9-17.2c.4-.5.7-1 .9-1.6 1-2.9-.6-6.1-3.5-7.1s-6.1.6-7.1 3.5.6 6.1 3.5 7.1c.7.2 1.5.3 2.2.3l6.7 16.6 3.8 4.9.3-5.2h-3.1l3.2-1.3zm-13.2-20.5c0-1 .8-1.9 1.9-1.9s1.9.8 1.9 1.9c0 1-.8 1.9-1.9 1.9-1.1 0-1.9-.9-1.9-1.9zM29.1 40.4c-3.8-1.1-6.6-4.6-6.6-8.8 0-5.1 4.1-9.2 9.2-9.2.6 0 1.1.1 1.7.2l.1-.5c.6-1.7 1.8-3.1 3.4-3.9.1 0 .1 0 .2-.1-.4-.2-.8-.3-1.3-.4l-.4-5.1h-7.4l-.4 5.1c-1 .3-2 .7-3 1.2l-3.8-3.4-5.2 5.2 3.4 3.8c-.5.9-.9 1.9-1.2 3l-5.1.4v7.4l5.1.4c.3 1 .7 2 1.2 3l-3.4 3.8 5.2 5.2 3.8-3.4c.8.4 1.6.7 2.4 1l2.1-4.9zM41.5 17.7v-4.2c0-.5-.4-1-1-1h-1.1c-.5 0-1 .4-1 1v4.2c1-.2 2-.2 3.1 0z"/></svg>