<?xml version="1.0" encoding="utf-8"?>
<!-- Generator: Adobe Illustrator 21.0.1, SVG Export Plug-In . SVG Version: 6.00 Build 0)  -->
<svg version="1.1" id="Layer_1" xmlns="http://www.w3.org/2000/svg" xmlns:xlink="http://www.w3.org/1999/xlink" x="0px" y="0px"
	 viewBox="0 0 64 64" style="enable-background:new 0 0 64 64;" xml:space="preserve">
<style type="text/css">
	.st0{fill:#4E5468;}
	.st1{fill:#C7CBD7;}
</style>
<g>
	<g>
		<g>
			<g>
				<circle class="st0" cx="32.033" cy="32" r="28.9"/>
			</g>
		</g>
	</g>
</g>
<g>
	<path class="st1" d="M15.97,28.179l0.884,0.437l2.99-6.056l-0.02-1.474l-1.001,0.014L16.9,23.053l-5.722-3.334
		C11.179,19.719,10.619,24.491,15.97,28.179z"/>
	<polygon class="st1" points="17.438,43.934 14.312,44.64 11.692,49.683 13.508,51.5 18.553,48.879 19.256,45.752 28.317,36.693 
		26.499,34.876 	"/>
	<path class="st1" d="M51.982,16.578c0,0-5.49-5.489-5.49-5.492c-0.669-0.668-1.641-0.782-2.169-0.254
		c-0.075,0.075-10.6,10.659-12.962,13.034c-0.296,0.297-0.424,0.715-0.351,1.128l0.322,1.838c0.074,0.42-0.062,0.85-0.364,1.152
		l-3.099,3.098c-0.245,0.245-0.416,0.555-0.492,0.894l-0.589,2.612l1.817,1.817l0.003-0.003l2.609-0.585
		c0.339-0.076,0.649-0.247,0.895-0.492l3.113-3.112c0.294-0.294,0.71-0.431,1.121-0.369l1.778,0.269
		c0.405,0.061,0.816-0.073,1.106-0.363l13.005-13.004l-0.001,0C52.763,18.218,52.65,17.245,51.982,16.578z M35.164,24.014
		c-0.396,0.396-0.943,0.492-1.221,0.215c-0.278-0.278-0.181-0.824,0.215-1.221l9.489-9.488c0.397-0.397,0.943-0.493,1.221-0.215
		c0.278,0.277,0.181,0.824-0.215,1.221L35.164,24.014z M49.593,19.463l-9.491,9.491c-0.397,0.396-0.944,0.493-1.222,0.215
		c-0.277-0.278-0.181-0.825,0.215-1.221l9.491-9.491c0.397-0.397,0.944-0.493,1.221-0.216C50.086,18.519,49.99,19.066,49.593,19.463
		z"/>
	<path class="st1" d="M20.257,21.148l0.02,1.474l-2.99,6.056l-0.501,1.015c0.311,0.212,5.268-0.299,7.661,0.792
		c0.175,0.082,0.841,0.689,1.137,0.915l0.281,0.288l0.011-0.049c0.14-0.625,0.454-1.194,0.907-1.645l3.013-3.013l-0.3-1.721
		c-0.141-0.782,0.077-1.575,0.557-2.199c-0.581-2.607-0.002-6.295-3.744-9.46c-6.628-5.023-12.526-0.196-12.526-0.196l6.435,4.429
		L20.257,21.148z M22.621,23.648c0.086-0.149,0.278-0.199,0.426-0.112l2.224,1.292c0.025,0.015,0.048,0.033,0.066,0.053
		c0.095,0.098,0.118,0.249,0.046,0.374c-0.086,0.149-0.276,0.2-0.426,0.113l-2.225-1.293C22.582,23.988,22.535,23.796,22.621,23.648
		z M22.275,24.843c0.088-0.149,0.278-0.2,0.427-0.113l2.22,1.296c0.025,0.015,0.047,0.033,0.067,0.053
		c0.094,0.098,0.117,0.25,0.046,0.374c-0.086,0.148-0.277,0.199-0.427,0.112l-2.221-1.296C22.238,25.18,22.189,24.992,22.275,24.843
		z M21.926,26.04c0.088-0.149,0.278-0.199,0.427-0.112l2.218,1.296c0.025,0.014,0.049,0.032,0.068,0.052
		c0.094,0.097,0.117,0.249,0.046,0.373c-0.086,0.15-0.277,0.2-0.426,0.114l-2.221-1.296C21.888,26.379,21.84,26.189,21.926,26.04z"
		/>
	<path class="st1" d="M39.437,33.414c-0.483,0.21-1.014,0.302-1.546,0.219l-1.662-0.251l-3.033,3.03
		c-0.452,0.452-1.019,0.763-1.639,0.903l1.246,1.222c4.262,4.535,9.343,10.119,9.99,10.788c1.722,1.769,4.548,1.819,6.322,0.1
		c1.774-1.718,1.82-4.549,0.1-6.323C48.788,42.66,43.994,37.922,39.437,33.414z M47.047,47.289
		c-0.593,0.574-1.543,0.559-2.116-0.034c-0.575-0.593-0.559-1.542,0.034-2.117c0.595-0.577,1.542-0.559,2.117,0.033
		C47.655,45.764,47.643,46.712,47.047,47.289z"/>
</g>
</svg>
