<?xml version="1.0" encoding="utf-8"?>
<!-- Generator: Adobe Illustrator 21.0.1, SVG Export Plug-In . SVG Version: 6.00 Build 0)  -->
<svg version="1.1" id="Layer_1" xmlns="http://www.w3.org/2000/svg" xmlns:xlink="http://www.w3.org/1999/xlink" x="0px" y="0px"
	 viewBox="0 0 64 64" style="enable-background:new 0 0 64 64;" xml:space="preserve">
<style type="text/css">
	.st0{display:none;fill:#9CE4FA;}
	.st1{fill:#555556;}
	.st2{fill:#C8CAC9;}
</style>
<path class="st0" d="M32,60.9L6.394,46.45v-28.9L32,3.1l25.605,14.45v28.9L32,60.9z M10.394,44.193L32,56.385l21.605-12.192V19.807
	L32,7.615L10.394,19.807V44.193z"/>
<circle class="st1" cx="32" cy="33.25" r="28.9"/>
<path class="st2" d="M50.62,37.539c-0.57-0.824-2.93-3.846-4.523-4.921c0.066-1.612,3.607-18.401,3.607-18.401
	c-8.181-10.44-27.503-10.806-35.41,0c0,0,3.541,16.789,3.607,18.401c-1.593,1.075-3.953,4.097-4.523,4.921
	c-0.672,0.488-1.77,0.183-3.114-1.221c0.305,6.41,4.762,13.797,6.227,16.362c2.975,0.781,6.058,1.857,8.218,3.119
	c0.633,1.368,1.55,3.108,1.794,4.451h10.989c0.244-1.343,1.161-3.083,1.794-4.451c2.161-1.262,5.244-2.338,8.218-3.119
	c1.465-2.564,5.922-9.951,6.227-16.362C52.391,37.722,51.292,38.028,50.62,37.539z M20.975,13.971l3.655-3.307l7.444,8.228
	l7.528-7.997l3.589,3.378l-7.8,8.285l7.633,8.438l-3.655,3.307l-7.367-8.144l-7.604,8.078l-3.589-3.378l7.876-8.366L20.975,13.971z
	 M22.241,48.833c-1.526,0-8.913-3.266-8.673-9.005c2.964,0,13.129,3.175,16.334,3.114c-0.247,1.491-0.977,2.961-1.893,3.999
	C27.613,47.399,23.92,48.833,22.241,48.833z M35.297,55.081h-6.634c-0.366-0.427-1.018-0.977-1.302-2.137
	c0.427-1.14,2.92-5.315,4.629-5.315c1.709,0,4.182,4.175,4.61,5.315C36.314,54.104,35.663,54.654,35.297,55.081z M41.677,48.833
	c-1.679,0-5.372-1.435-5.769-1.893c-0.916-1.038-1.646-2.508-1.892-3.999c3.205,0.061,13.37-3.114,16.334-3.114
	C50.59,45.567,43.203,48.833,41.677,48.833z"/>
</svg>
