<?xml version="1.0" encoding="utf-8"?>
<!-- Generator: Adobe Illustrator 21.0.1, SVG Export Plug-In . SVG Version: 6.00 Build 0)  -->
<svg version="1.1" id="Layer_1" xmlns="http://www.w3.org/2000/svg" xmlns:xlink="http://www.w3.org/1999/xlink" x="0px" y="0px"
	 viewBox="0 0 64 64" style="enable-background:new 0 0 64 64;" xml:space="preserve">
<style type="text/css">
	.st0{fill:#326629;}
	.st1{fill:#EAEAEA;}
</style>
<g>
	<circle class="st0" cx="32" cy="32.8" r="28.9"/>
</g>
<rect x="10" y="10.8" class="st1" width="44" height="44"/>
<g>
	<path class="st0" d="M43.1,26.8c0,3.5-1.1,6.1-3.2,7.9c-2.2,1.8-5.2,2.8-9.2,2.8h-2.9v11.4h-6.8V16.7h10.3c3.9,0,6.9,0.8,8.9,2.5
		C42.1,20.9,43.1,23.4,43.1,26.8z M27.7,31.9H30c2.1,0,3.7-0.4,4.7-1.2c1-0.8,1.6-2,1.6-3.6c0-1.6-0.4-2.8-1.3-3.5
		c-0.9-0.8-2.2-1.1-4.1-1.1h-3.1V31.9z"/>
</g>
</svg>
