<?xml version="1.0" encoding="utf-8"?>
<!-- Generator: Adobe Illustrator 21.0.1, SVG Export Plug-In . SVG Version: 6.00 Build 0)  -->
<svg version="1.1" id="Layer_1" xmlns="http://www.w3.org/2000/svg" xmlns:xlink="http://www.w3.org/1999/xlink" x="0px" y="0px"
	 viewBox="0 0 64 64" style="enable-background:new 0 0 64 64;" xml:space="preserve">
<style type="text/css">
	.st0{fill:#555556;}
	.st1{fill:#93581C;}
	.st2{fill:#C4BC2C;}
	.st3{fill:#C8CAC9;}
</style>
<g>
	<circle class="st0" cx="32" cy="32" r="28.9"/>
</g>
<g>
	<circle class="st1" cx="43.831" cy="46.367" r="16.193"/>
	<g>
		<path class="st2" d="M57.427,42.226c0.015-0.493,6.94-4.774,5.439-6.633c0,0-0.762,1.39-1.793,0.777
			c-0.605-0.44,5.334-8.061,1.793-10.04c0,0,0.045,1.644-0.418,2.212L45.683,47.274c-0.088-0.099-0.41-0.678-0.499-1.013
			c-0.09-0.336-0.068-0.897,0-1.256c0.062-0.331,0.673-0.561,0.673-0.561s-0.762-0.941-1.098-1.21
			c-0.336-0.269-1.076-0.112-1.3-0.179c-0.224-0.068-0.291-0.561-0.941-0.649s-1.098,0.628-1.098,0.628s0.732-0.045,1.023,0.134
			c0.291,0.179,0.568,0.725,0.612,1.015c0.045,0.291-0.134,0.934-0.381,1.449c-0.247,0.515-0.09,1.412-0.09,1.412l-0.284,0.014
			L25.363,27.883C24.901,27.315,24.796,26,24.796,26c-3.541,1.98,2.398,9.868,1.793,10.309c-1.031,0.612-1.912-0.717-1.912-0.717
			c-1.501,1.86,4.886,5.633,4.901,6.126c-0.688,0.202-4.378-0.59-5.409-2.091c-1.098,2.51,5.304,4.856,5.259,5.289
			c0.158,0.5-0.986,0.471-1.524,0.448c0.246,0.852,5.894,2.271,6.305,2.779c-0.568,0.322-3.429,0.397-4.303-0.12
			c0.874,4.662,8.109,3.556,8.516,3.586c0.018,0.598-1.36,1.001-1.673,1.315c0.874,0.583,3.047,0.149,3.376-1.015l0.005-0.012
			c0.327-0.016,1.041,0.012,1.085,0.102c0.183,0.365,0.134,6.066-1.688,2.107c0,0-0.159,0.983-0.149,1.3
			c0.015,0.493,0.538,2.556-0.388,2.001c-0.164,0.314,0.015,1.837,1.988,1.747c0,0-0.314-0.918-0.299-1.173
			c0.015-0.261,0.462-0.877,0.822-0.903c0.388-0.03,0.568,0.673,0.478,1.262c0.373-0.171,0.538-0.471,0.628-0.649
			c0.09-0.179-0.222-1.046-0.418-1.18c-0.284-0.194-0.374-0.606-0.344-0.852c0.03-0.239,0.54-0.375,0.807-0.344
			c0.643,0.075,0.546,1.293,0.508,2.345c0.59-0.53,0.553-2.084,0.418-2.376c-0.134-0.291-0.568-0.561-0.612-0.897
			c-0.045-0.336,0.314-0.717,0.336-1.158c0.021-0.409,0.108-0.582,0.336-0.71c0.239-0.134,0.344-0.12,0.448,0.06
			c0.111,0.191-0.179,1.778,0,1.958c0.336,0.336,0.727,0.385,0.874,0.688c0.515,1.061,0.261,1.584,0.127,2.062
			c0.986-0.06,0.673-1.225,0.837-1.434c0.269,0.194,0.508,1.808,0.209,2.838c0,0,0.833-0.587,1.035-0.575
			c0.254,0.015,0.145,0.359-0.011,0.796c0.302,0.011,0.918,0.033,0.874-0.448c1.041,0.158,1.076-0.998,1.076-0.998
			s-1.116,0.284-1.151-0.239c-0.015-0.224,0.792-0.927,0.762-1.539c-0.035-0.731-0.927-1.629-0.927-1.629s-0.143,0.918-0.344,1.143
			c-0.202,0.224-0.605,0.09-0.784-0.112c-0.179-0.202-0.045-0.807-0.068-1.255c-0.018-0.354,0.118-1.056,0.176-1.336
			c0.723,0.37,2.577,0.995,3.409,0.44c-0.314-0.314-1.39-0.852-1.372-1.449c0.407-0.03,8.005,1.27,8.879-3.391
			c-0.874,0.515-3.698,0.605-4.266,0.284c0.41-0.508,6.081-1.898,6.328-2.749c-0.538,0.022-1.614,0.142-1.457-0.359
			c-0.045-0.434,6.477-3.205,5.379-5.715C62.641,41.061,58.114,42.427,57.427,42.226z"/>
		<path class="st2" d="M43.831,31.614c4.236,0,8.044,1.795,10.735,4.654l1.932-2.159c-3.206-3.312-7.694-5.374-12.667-5.374
			c-4.795,0-9.14,1.917-12.319,5.023l1.907,2.159C36.087,33.258,39.767,31.614,43.831,31.614z"/>
		<g>
			<path class="st2" d="M60.08,44.901l0.641-0.027l-0.279,0.961c-0.145,0.503-0.699,0.883-1.85,1.352l-0.066,0.353
				c-0.6,7.598-6.943,13.58-14.695,13.58c-7.572,0-13.803-5.706-14.648-13.052l-0.222-1.186c-1.082-0.456-1.606-0.831-1.747-1.319
				l-0.278-0.962l0.724,0.031c-0.402-0.223-0.842-0.473-1.284-0.747c-0.114,0.81-0.177,1.638-0.177,2.481
				C26.198,56.106,34.093,64,43.831,64s17.633-7.894,17.633-17.633c0-0.763-0.054-1.514-0.148-2.251
				C60.889,44.402,60.466,44.665,60.08,44.901z"/>
			<g>
				<path class="st3" d="M24.948,46.367c0-0.194,0.015-0.392,0.021-0.588h-3.03L15.72,26.641L32,14.814l16.28,11.828l-0.417,1.282
					c3.101,0.671,5.969,2.118,8.388,4.244l2.948-9.075L32,3.331L4.8,23.093l10.39,31.976h11.9
					C25.729,52.462,24.948,49.506,24.948,46.367z"/>
			</g>
		</g>
	</g>
</g>
</svg>
