<?xml version="1.0" encoding="utf-8"?>
<!-- Generator: Adobe Illustrator 21.0.1, SVG Export Plug-In . SVG Version: 6.00 Build 0)  -->
<svg version="1.1" id="Layer_1" xmlns="http://www.w3.org/2000/svg" xmlns:xlink="http://www.w3.org/1999/xlink" x="0px" y="0px"
	 viewBox="0 0 64 64" style="enable-background:new 0 0 64 64;" xml:space="preserve">
<style type="text/css">
	.st0{fill:#3A508E;}
	.st1{fill:#C8CAC9;}
</style>
<g>
	<circle class="st0" cx="32" cy="32" r="28.9"/>
</g>
<rect x="10.1" y="10.1" class="st1" width="43.8" height="43.8"/>
<path class="st0" d="M45.3,24l-0.5-5.7c-0.1-0.7,0.1-1.3,0.4-1.9l1.2-2c0.4-0.7,0.2-1.6-0.5-2l-2.2-1.3c-0.7-0.4-1.6-0.2-2,0.5
	l-1.2,2c-0.3,0.6-0.8,1-1.4,1.3L34,17.5c-1.1,0.5-2,1.4-2.6,2.4L18,43.2c-1.2,2.1-0.5,4.9,1.6,6.1l5.5,3.2c2.1,1.2,4.9,0.5,6.1-1.6
	l13.4-23.3C45.2,26.4,45.4,25.2,45.3,24z M30.7,47.1c-1.4,2.5-4.6,3.4-7.1,1.9l-0.3-0.2c-2.5-1.4-3.4-4.6-1.9-7.1l4.3-7.4
	c0.3,0,0.5-0.1,0.8-0.1c12-0.4,11.3-2.4,14.1-4.3c0.1,0,0.1-0.1,0.2-0.1L30.7,47.1z"/>
</svg>
