<?xml version="1.0" encoding="utf-8"?>
<!-- Generator: Adobe Illustrator 21.0.1, SVG Export Plug-In . SVG Version: 6.00 Build 0)  -->
<svg version="1.1" id="Layer_1" xmlns="http://www.w3.org/2000/svg" xmlns:xlink="http://www.w3.org/1999/xlink" x="0px" y="0px"
	 viewBox="0 0 64 64" style="enable-background:new 0 0 64 64;" xml:space="preserve">
<style type="text/css">
	.st0{fill:#4E5468;}
	.st1{fill:#C7CBD7;}
</style>
<g>
	<circle class="st0" cx="32" cy="32" r="28.9"/>
</g>
<g>
	
		<rect x="26.3" y="16.8" transform="matrix(0.7071 -0.7071 0.7071 0.7071 -6.539 29.2693)" class="st1" width="11.4" height="11.4"/>
	<path class="st1" d="M54,34.7h-7.3l-5.3-5.3l6.8-6.8l-16-16l-16,16l6.7,6.7l-5.6,5.6h-7l-2.7,8.3l7,5.1l7-5.1l-2.2-6.8l5.3-5.3
		l6.3,6.3v4.2c-2.7,0.6-4.8,3-4.8,5.9c0,3.4,2.7,6.1,6.1,6.1s6.1-2.7,6.1-6.1c0-2.9-2.1-5.3-4.8-5.9v-4.2l6.1-6.1l5.2,5.2l-2.1,6.6
		l7,5.1l7-5.1L54,34.7z M32.1,12l10.5,10.5L32.1,33L21.6,22.5L32.1,12z"/>
</g>
</svg>
