<svg xmlns="http://www.w3.org/2000/svg" viewBox="0 0 64 64" enable-background="new 0 0 64 64"><style type="text/css">.st0{fill:#6F4512;} .st1{fill:#CE8508;}</style><circle class="st0" cx="32" cy="32" r="28.9"/><path class="st1" d="M47.1 26.6l10.7-4.3-1.3-3.3-6.8 2.7 3.6-6.6-3.1-1.7-5.7 10.3-12.7 5.1-13.4-4.5-5.2-9-3.1 1.7 3.2 5.6-6.2-2.1-1.1 3.3 10 3.4 3.7 6.4-10.8 4.4 1.3 3.3 11.4-4.5 10.2 17.7 10.1-18.5 11.2 3.8 1.1-3.3-10.7-3.6 3.6-6.3zm-5.1 2l-1.7 3.1-3.3-1.1 5-2zm-20.8.4l5.7 1.9-3.7 1.5-2-3.4zm10.5 18.3l-6.8-11.9 7.1-2.8 6.6 2.2-6.9 12.5z"/></svg>