<?xml version="1.0" encoding="utf-8"?>
<!-- Generator: Adobe Illustrator 21.0.1, SVG Export Plug-In . SVG Version: 6.00 Build 0)  -->
<svg version="1.1" id="Layer_1" xmlns="http://www.w3.org/2000/svg" xmlns:xlink="http://www.w3.org/1999/xlink" x="0px" y="0px"
	 viewBox="0 0 64 64" style="enable-background:new 0 0 64 64;" xml:space="preserve">
<style type="text/css">
	.st0{fill:#682323;}
	.st1{fill:#C8CAC9;}
</style>
<g>
	<circle class="st0" cx="32" cy="32.8" r="28.9"/>
</g>
<rect x="10.1" y="10.1" class="st1" width="43.8" height="43.8"/>
<g>
	<polygon class="st0" points="48.6,18.5 38.1,10.9 37.3,12.2 40.7,14.8 36.4,20.8 39.9,23.4 44.2,17.2 47.7,19.8 	"/>
	<path class="st0" d="M30.3,17.9l-1.2,1.7l2.3,1.6L19.1,38.6l1.1,3.8l-2.4,3.2l0.9,2.7L15.4,53l1.9-0.1l2.6-3.8l2.8-0.1l2.4-3.2
		l4-0.2l12.2-17.4l2.3,1.6l1.2-1.7L30.3,17.9z M26.4,37.3c-0.4,0.6-1.3,0.8-1.9,0.3s-0.8-1.3-0.3-1.9l4.9-7.1
		c0.4-0.6,1.3-0.8,1.9-0.3c0.6,0.4,0.8,1.3,0.3,1.9L26.4,37.3z"/>
</g>
</svg>
