<?xml version="1.0" encoding="utf-8"?>
<!-- Generator: Adobe Illustrator 21.0.1, SVG Export Plug-In . SVG Version: 6.00 Build 0)  -->
<svg version="1.1" id="Layer_1" xmlns="http://www.w3.org/2000/svg" xmlns:xlink="http://www.w3.org/1999/xlink" x="0px" y="0px"
	 viewBox="0 0 64 64" style="enable-background:new 0 0 64 64;" xml:space="preserve">
<style type="text/css">
	.st0{fill:#93581C;}
	.st1{fill:#C4BC2C;}
</style>
<g>
	<circle class="st0" cx="32" cy="32" r="28.9"/>
</g>
<g>
	<rect x="6.2" y="34.39" class="st1" width="51.6" height="5.54"/>
	<rect x="6.2" y="45.96" class="st1" width="51.6" height="5.54"/>
	<path class="st1" d="M6.2,12.5v15.86h51.6V12.5H6.2z M19.36,26.93l-4.22-3.07l-4.22,3.07l1.61-4.97L8.3,18.9h5.22l1.61-4.97
		l1.61,4.97h5.22l-4.22,3.07L19.36,26.93z M36.22,26.93L32,23.86l-4.22,3.07l1.61-4.97l-4.22-3.07h5.22L32,13.93l1.61,4.97h5.22
		l-4.22,3.07L36.22,26.93z M53.09,26.93l-4.22-3.07l-4.22,3.07l1.61-4.97l-4.22-3.07h5.22l1.61-4.97l1.61,4.97h5.22l-4.22,3.07
		L53.09,26.93z"/>
</g>
</svg>
