<svg xmlns="http://www.w3.org/2000/svg" viewBox="0 0 64 64" enable-background="new 0 0 64 64"><style type="text/css">.st0{fill:#555556;} .st1{fill:#C8CAC9;}</style><path class="st0" d="M54.3 19.1v25.8l-22.3 12.9-22.3-12.9v-25.8l22.3-12.9z"/><path class="st1" d="M32 60.9l-25-14.4v-28.9l25-14.5 25 14.4v28.9l-25 14.5zm-19.6-17.5l19.6 11.3 19.6-11.4v-22.7l-19.6-11.3-19.6 11.4v22.7zM37.8 46.5h-15.8v-29h15.1l3.9 3.8v8.9l-1.1 1 2.1 2v9.2l-4.2 4.1zm-10.8-4.8h8.7l1.3-1.3v-5.2l-1.3-1.2h-8.7v7.7zm0-12.6h7.9l1-1v-4.8l-.9-1h-8v6.8z"/></svg>