<?xml version="1.0" encoding="utf-8"?>
<!-- Generator: Adobe Illustrator 21.0.1, SVG Export Plug-In . SVG Version: 6.00 Build 0)  -->
<svg version="1.1" id="Layer_1" xmlns="http://www.w3.org/2000/svg" xmlns:xlink="http://www.w3.org/1999/xlink" x="0px" y="0px"
	 viewBox="0 0 64 64" style="enable-background:new 0 0 64 64;" xml:space="preserve">
<style type="text/css">
	.st0{fill:#3A508E;}
	.st1{fill:#C8CAC9;}
</style>
<g>
	<circle class="st0" cx="32" cy="32" r="28.9"/>
</g>
<g>
	<polygon class="st1" points="10.45,50.2 11.55,51.3 12.45,11.8 10.45,13.8 	"/>
	<polygon class="st1" points="51.55,11.8 52.45,51.3 53.55,50.2 53.55,13.8 	"/>
	<polygon class="st1" points="47.65,10.5 47.65,14.1 45.35,11.8 31.95,11.8 18.65,11.8 16.35,14.1 16.35,10.5 13.75,10.5 
		13.75,10.5 14.95,53.5 16.35,53.5 16.35,49.9 18.65,52.2 31.95,52.2 45.35,52.2 47.65,49.9 47.65,53.5 49.05,53.5 50.25,10.5 
		50.25,10.5 	"/>
</g>
<g>
	<path class="st0" d="M26.36,24.03c1.44-0.31,2.71-0.82,3.68-1.4l0.72,2.23l2.12-1.28l-1-3.56c-0.4-1.39-3.34-1.92-6.67-1.2
		c-3.38,0.74-5.87,2.5-5.55,3.94C19.98,24.2,22.98,24.77,26.36,24.03z"/>
	<path class="st0" d="M47.38,40.21l-2.08-13.68c-0.45-2.08-3.99-3.07-7.89-2.22c-3.9,0.85-6.7,3.23-6.25,5.3
		c0.45,2.08,3.99,3.07,7.89,2.22c1.58-0.35,2.98-0.94,4.05-1.67l2.47,12.27L47.38,40.21z"/>
	<path class="st0" d="M31.34,33.25c-0.06-0.22-0.14-0.43-0.25-0.63c-0.8,0.34-1.7,0.63-2.67,0.84c-3.72,0.81-7.01,0.19-7.36-1.39
		c-0.07-0.32-0.01-0.66,0.16-0.99c-3.04,1.19-4.99,3.43-4.54,5.49c0.54,2.46,4.26,3.73,8.32,2.84c1.64-0.36,3.08-1.02,4.18-1.83
		l2.54,7.92l2.27-1.81L31.34,33.25z"/>
</g>
</svg>
