<?xml version="1.0" encoding="utf-8"?>
<!-- Generator: Adobe Illustrator 21.0.1, SVG Export Plug-In . SVG Version: 6.00 Build 0)  -->
<svg version="1.1" id="Layer_1" xmlns="http://www.w3.org/2000/svg" xmlns:xlink="http://www.w3.org/1999/xlink" x="0px" y="0px"
	 viewBox="0 0 64 64" style="enable-background:new 0 0 64 64;" xml:space="preserve">
<style type="text/css">
	.st0{fill:#4E5468;}
	.st1{fill:#C7CBD7;}
</style>
<circle class="st0" cx="32" cy="32" r="28.9"/>
<rect x="10.1" y="10.1" class="st1" width="43.8" height="43.8"/>
<g>
	<path class="st0" d="M26.34,23.075c0.218-2.945,2.69-5.242,5.658-5.242c2.968,0,5.439,2.297,5.658,5.243v5.81h5v-5.894
		l-0.005-0.155c-0.348-5.609-5.027-10.003-10.653-10.003c-5.627,0-10.307,4.395-10.653,10.004l-0.001,6.048h4.996V23.075z"/>
	<path class="st0" d="M20,29.75v21.417h24V29.75H20z M34.708,46.771h-5.417l1.474-7.252c-0.944-0.46-1.599-1.419-1.599-2.539
		c0-1.565,1.269-2.833,2.833-2.833c1.565,0,2.833,1.269,2.833,2.833c0,1.12-0.656,2.08-1.599,2.539L34.708,46.771z"/>
</g>
</svg>
