<svg xmlns="http://www.w3.org/2000/svg" viewBox="0 0 64 64" enable-background="new 0 0 64 64"><style type="text/css">.st0{fill:#4E5468;} .st1{fill:#C8CAC9;}</style><circle class="st0" cx="32" cy="32" r="28.9"/><path class="st1" d="M10.4 50.2l1.2 1.1.8-39.5-2 2zM51.5 11.8l1 39.5 1-1.1v-36.4zM47.7 10.5v3.6l-2.4-2.3h-26.7l-2.2 2.3v-3.6h-2.6l1.1 43h1.5v-3.6l2.2 2.3h26.7l2.4-2.3v3.6h1.3l1.3-43z"/><path class="st0" d="M40.5 16h-17c-1.1 0-2 .9-2 2v9.6h5v-5.6c0-.6.5-1 1-1h9.1c.6 0 1 .5 1 1v5.7h5v-9.6c0-1.1-1-2.1-2.1-2.1zM43.9 28.7h-23.8c-.8 0-1.4.6-1.4 1.4v16.4c0 .8.6 1.4 1.4 1.4h23.7c.8 0 1.4-.6 1.4-1.4v-16.4c.1-.8-.6-1.4-1.3-1.4zm-9.1 14c0 .2-.2.4-.4.4h-4.8c-.2 0-.4-.2-.4-.4v-8.7c0-.2.2-.4.4-.4h4.8c.2 0 .4.2.4.4v8.7z"/></svg>