<?xml version="1.0" encoding="utf-8"?>
<!-- Generator: Adobe Illustrator 21.0.1, SVG Export Plug-In . SVG Version: 6.00 Build 0)  -->
<svg version="1.1" id="Layer_1" xmlns="http://www.w3.org/2000/svg" xmlns:xlink="http://www.w3.org/1999/xlink" x="0px" y="0px"
	 viewBox="0 0 64 64" style="enable-background:new 0 0 64 64;" xml:space="preserve">
<style type="text/css">
	.st0{fill:#4E5468;}
	.st1{fill:#C7CBD7;}
</style>
<circle class="st0" cx="31.6" cy="31.7" r="28.9"/>
<rect x="10.1" y="10.1" class="st1" width="43.8" height="43.8"/>
<g>
	<path class="st0" d="M31.9,37.4l-1.2-0.1c-0.6,0-1.2,0.4-1.3,1l-1,5.7c-0.1,0.6,0.3,1.2,0.9,1.2l1.2,0.1c0.7,0,1.2-0.4,1.3-1.1
		l1-5.8C32.8,37.9,32.4,37.5,31.9,37.4z"/>
	<path class="st0" d="M47.8,31.7l-1.5-0.5c-0.8-0.3-1.6-0.3-2.4-0.3L42.2,31c-0.3,0-0.6,0.3-0.7,0.6l-2.1,13l-0.8-0.1
		c-0.3,0-0.6,0.2-0.6,0.4l-0.3,1.5c-0.1,0.3,0.2,0.5,0.3,0.5l8.4,0.8c0.3,0,0.6-0.2,0.6-0.5l0.3-1.4c0-0.3-0.2-0.5-0.4-0.5l-0.8-0.1
		l2.1-12.7C48.2,32.1,48,31.8,47.8,31.7z"/>
	<path class="st0" d="M48.2,19.3l-0.3-1.1l-3.5-0.4V19l-22.8-2c0,0-0.5-1.3-1.4-1.7s-2.4-0.3-3,0s-1.9,1.9-2.1,3L14.7,21l32.2,2.8
		v0.8l2.6,0.1l0.4-5.2L48.2,19.3z"/>
	<path class="st0" d="M35.8,37.9l-1.2-0.1c-0.6,0-1.2,0.4-1.3,1l-1,5.7c-0.1,0.6,0.3,1.2,0.9,1.2l1.2,0.1c0.7,0,1.2-0.4,1.3-1.1
		l1-5.8C36.6,38.3,36.3,37.9,35.8,37.9z"/>
	<path class="st0" d="M45.6,25.3L17,22.8l-2.5-0.2l-0.5,3.6l2.6,0.3c0.9,0.1,1.7,0.8,1.7,1.8v0.7c0,0.8-0.2,1.4-0.5,2.1L16,34.7
		c-0.8,1.8-1.3,3.8-1.3,5.7V43c0,0.3,0.3,0.7,0.7,0.7l10.1,1c0.3,0,0.6-0.3,0.7-0.6l1.5-9.2l8.7,0.4c0.2,0,0.3,0,0.5-0.1l0.7-0.4
		c0.3-0.2,0.6-0.5,0.6-0.9l0.1-3c0-0.3-0.1-0.7-0.2-0.9l-0.4-1.1l11.6,0.8l0.3-3.4l-3.9-0.1L45.6,25.3z M27.9,33.7l0.8-5.2h0.1
		c0,2,0.9,5.4,0.9,5.4L27.9,33.7z M36.6,33.7c-0.1,0.3-0.3,0.3-0.6,0.3c-0.9-0.1-3.5-0.2-4.5-0.3c-0.2-0.8-0.3-1.9-0.3-3
		c0-0.9,0.1-1.5,0.3-2.3c0.9,0.1,3.5,0.3,4.5,0.3c0.3,0.5,0.5,1,0.7,1.7C36.9,31.9,36.7,33,36.6,33.7z"/>
</g>
</svg>
