<svg xmlns="http://www.w3.org/2000/svg" viewBox="0 0 64 64" enable-background="new 0 0 64 64"><style type="text/css">.st0{fill:#93581C;} .st1{fill:#C4BC2C;}</style><circle class="st0" cx="32" cy="32" r="28.9"/><path class="st1" d="M53.3 24.1c0-10.6-9.5-19.1-21.3-19.1s-21.3 8.5-21.3 19.1c0 .8.1 1.7.2 2.5l14.8 14.1c-3.6.4-8.2 3-8.2 6.5v8.7c0 1.8 1.4 3.2 3.2 3.2h22.6c1.8 0 3.2-1.4 3.2-3.2v-8.7c0-3-3.6-5.8-7.4-6.4l13.8-12.9c.2-1.3.4-2.6.4-3.8zm-15.9.7l-.5 4.8c0 1.3-.3 2.4-.7 3.4l-2.4 7.5h-2.9l-2.8-7.4c-.1-.2-.2-.4-.2-.6-.1-.3-.2-.5-.2-.8-.2-.7-.3-1.5-.3-2.2l-.4-4.7h10.4zm-22.4 4.1c-1-.9-1.5-2-1.5-3.3 0-2.5 2-4.5 4.5-4.5 1.6 0 3 .8 3.8 2 .2.2.3.5.4.8l5.7 14.9-12.2-9.4c-.3-.2-.5-.3-.7-.5zm34.2-.1c-.3.2-.5.4-.7.5l-12.2 9.4 5.7-14.9c.1-.3.2-.5.4-.8.8-1.2 2.2-2 3.8-2 2.5 0 4.5 2 4.5 4.5-.1 1.4-.6 2.5-1.5 3.3z"/></svg>