<?xml version="1.0" encoding="utf-8"?>
<!-- Generator: Adobe Illustrator 21.0.1, SVG Export Plug-In . SVG Version: 6.00 Build 0)  -->
<svg version="1.1" id="Layer_1" xmlns="http://www.w3.org/2000/svg" xmlns:xlink="http://www.w3.org/1999/xlink" x="0px" y="0px"
	 viewBox="0 0 64 64" style="enable-background:new 0 0 64 64;" xml:space="preserve">
<style type="text/css">
	.st0{fill:#4E5468;}
	.st1{fill:#C7CBD7;}
</style>
<g>
	<g>
		<g>
			<g>
				<circle class="st0" cx="32.033" cy="32" r="28.9"/>
			</g>
		</g>
	</g>
</g>
<g>
	<polygon class="st1" points="40.649,18.652 44.706,16.202 23.177,12.226 25.225,15.6 	"/>
	<path class="st1" d="M54.121,35.338l-7.005-18.654l-10.703,6.754c-0.474,0.299-0.53,0.969-0.113,1.343L50.45,37.45l-1.134,9.566
		c-0.082,0.688-0.735,1.16-1.414,1.02l-25.926-5.327c-0.441-0.091-0.747-0.492-0.719-0.941l-0.008-3.64l-5.505-0.116l2.855,5.782
		c0.304,0.537,0.825,0.918,1.43,1.043l29.452,6.126c0.91,0.189,1.799-0.398,1.982-1.309l2.72-13.529
		C54.238,35.863,54.216,35.59,54.121,35.338z"/>
	<path class="st1" d="M18.188,23.224c2.525,0.842,5.254-0.523,6.095-3.048c0.842-2.525-0.523-5.254-3.048-6.095
		c-2.525-0.842-5.254,0.523-6.095,3.048C14.299,19.653,15.663,22.382,18.188,23.224z M18.764,18.337
		c0.174-0.523,0.74-0.806,1.263-0.632c0.523,0.174,0.806,0.74,0.632,1.263c-0.174,0.523-0.74,0.806-1.263,0.632
		C18.872,19.425,18.59,18.86,18.764,18.337z"/>
	<path class="st1" d="M21.54,13.167c0.043,0.014,0.079,0.04,0.122,0.055V9h-3.901v4.235C18.941,12.809,20.258,12.739,21.54,13.167z"
		/>
	<path class="st1" d="M23.956,22.564c-0.914,0.99-2.149,1.62-3.482,1.799l5.384,13.405l3.244,4.243l0.298-4.513l-2.685-0.032
		l2.764-1.151L23.956,22.564z"/>
	<path class="st1" d="M22.966,33.996l-1.304-3.672h-2.768c-0.762,0-1.504-0.084-2.223-0.228l2.295-5.714
		c-0.362-0.047-0.724-0.124-1.083-0.244c-0.956-0.319-1.753-0.88-2.392-1.571l-2.456,6.114c-0.938-0.568-1.792-1.261-2.528-2.067
		L7.787,29.1c1.113,1.218,2.423,2.233,3.864,3.026l-1.743,4.339l2.764,1.151l-2.685,0.032l0.298,4.513l3.244-4.243l1.759-4.38
		c1.178,0.291,2.386,0.457,3.606,0.457H22.966z"/>
</g>
</svg>
