<svg version="1.1" id="Layer_1" xmlns="http://www.w3.org/2000/svg" x="0" y="0" viewBox="0 0 64 64" xml:space="preserve"><style type="text/css">.st1{fill:#c4bc2c}</style><circle cx="32" cy="32" r="28.9" fill="#93581c"/><path class="st1" d="M47.2 13.6L19.6 6.4c-2.1-.6-4.1-.5-5.7.6-6.2 4.3-5.8 12.8-1.1 16.9l1.6.1c-3.4-6.3-3.2-12.9.6-15.2 3.9-2.3 10.2.9 13.9 7.2.9 1.5 1.6 3.1 2 4.6.7 2.3 2.6 3.9 5 4l14.2.5c1.6.1 3-1.7 3-3.7v-1.9c0-2.4-2.3-4.9-5.9-5.9z"/><path class="st1" d="M22 21.9c0-2.6 1.1-4.9 2.8-6.2-1.3-1.6-2.7-2.8-4.1-3.6-2.2 1.9-3.7 5.1-3.7 8.8 0 5.9 3.7 10.6 8.3 10.6 2 0 3.7-.9 5.1-2.4h-2.7c-3.1.1-5.7-3.2-5.7-7.2z"/><path class="st1" d="M33.2 25.7c-1.4 3.8-4.4 6.5-7.8 6.5-4.8 0-8.8-5-8.8-11.3 0-3.8 1.4-7.1 3.6-9.1-.8-.4-1.6-.6-2.3-.6h-.2c-1.9 2.5-3.1 5.9-3.1 9.7 0 7.6 4.8 13.8 10.7 13.8h15.9c4.2 0 7.7-3.4 7.7-7.7v-1.3H33.2zM37.2 39.1c0-.4-.2-.7-.4-.9.6-1.2 1.3-2.1 2-2.9h-7c-.8 1-1.8 2.5-2.5 4.8v.2h5.2c-.9 1.3-1.2 2.7-1.2 5.3h-3c0-1.8.2-3.3.6-4.7h-1.7c-.4 1.8-.6 4.5-.6 6.2v.8h.6c3.5 0 13.6-.1 19.7 3.2v-8.3c-3.9-1.4-8.1-2-11.8-2.3.1-.5.1-1 .1-1.4z"/><path class="st1" d="M39.5 37.7V40c3.6.4 6.8 1.1 9.6 2.1l.4.1v9.6h-9.6l6.9 6.2 7.4-6.5V37.7H39.5zM48.8 30.1c.1 0 .2.1.3.1 1.3.3 3.6.9 3.5 1.9 0 .7-.1.8-1.7.9-.9 0-1.9.1-2.8.6-1.5 1-1.9 2.4-2.1 3.7h2.2c.1-.8.3-1.4 1.1-1.9.4-.2 1-.3 1.7-.3 1.2 0 3.6-.1 3.8-2.9.2-2.7-3-3.5-5.1-4.1-.1 0-.2-.1-.4-.1 0 .7-.2 1.4-.5 2.1z"/></svg>