<svg xmlns="http://www.w3.org/2000/svg" viewBox="0 0 64 64" enable-background="new 0 0 64 64"><style type="text/css">.st0{fill:#6F4512;} .st1{fill:#CE8508;}</style><circle class="st0" cx="32" cy="32" r="28.9"/><path class="st1" d="M18.6 50.2h29.2v3.3h-29.2zM19.3 26.9h4.1v22.1h-4.1zM27.2 26.9h4.1v22.1h-4.1zM43.1 26.9h4.1v22.1h-4.1zM35.2 26.9h4.1v22.1h-4.1zM18.6 22.4h29.2v3.3h-29.2zM47.2 21.2l-13.2-7v-3.4h6.7v-4.3h-8.2v7.7l-13.2 7zM20.6 19.3v-4.1h7.3zM46.1 15.2v4.1l-7.3-4.1zM2.9 30.3v17.1h14.1v-17.1h-14.1zm5.7 14.7h-2.4v-6h2.4v6zm0-8.9h-2.4v-3.8h2.4v3.8zm6.2 8.9h-2.4v-6h2.4v6zm0-8.9h-2.4v-3.8h2.4v3.8zM2 48.6h15v3.3h-15zM14.2 26.5v-2.2h-5.1v2.2h-7.1v2.4h15v-2.4zM51.6 32.3v3.8h-2.1v2.9h2.1v6h-2.1v2.4h11.6v-17.1h-11.6v2h2.1zm3.8 0h2.4v3.8h-2.4v-3.8zm0 6.7h2.4v6h-2.4v-6zM49.5 48.6h12.5v3.3h-12.5zM62 28.9v-2.4h-7.1v-2.2h-5.1v2.2h-.3v2.4z"/></svg>