<?xml version="1.0" encoding="utf-8"?>
<!-- Generator: Adobe Illustrator 21.0.1, SVG Export Plug-In . SVG Version: 6.00 Build 0)  -->
<svg version="1.1" id="Layer_1" xmlns="http://www.w3.org/2000/svg" xmlns:xlink="http://www.w3.org/1999/xlink" x="0px" y="0px"
	 viewBox="0 0 64 64" style="enable-background:new 0 0 64 64;" xml:space="preserve">
<style type="text/css">
	.st0{fill:#207E70;}
	.st1{fill:#C8CAC9;}
</style>
<g>
	<circle class="st0" cx="32" cy="32" r="28.9"/>
</g>
<rect x="10.1" y="10.1" class="st1" width="43.8" height="43.8"/>
<path class="st0" d="M13.726,48.966c-0.046,0.542,0.348,1.025,0.889,1.084l4.005,0.445c0.037,0.003,0.074,0.005,0.11,0.005
	c0.251,0,0.49-0.094,0.681-0.267c0.207-0.198,0.329-0.477,0.314-0.766l-0.087-2.613l2.612,0.089c0.314,0.01,0.546-0.096,0.745-0.292
	c0.193-0.196,0.299-0.465,0.291-0.742l-0.094-2.612l2.618,0.089c0.275,0.011,0.545-0.096,0.738-0.292
	c0.2-0.196,0.3-0.465,0.291-0.741l-0.085-2.615l2.609,0.092c0.283,0.009,0.546-0.095,0.745-0.292l4.787-4.791
	c1.354,0.574,2.813,0.879,4.325,0.879c2.956,0,5.729-1.152,7.821-3.244c4.316-4.313,4.315-11.329-0.001-15.642
	c-2.092-2.088-4.864-3.239-7.821-3.239c-2.956,0-5.733,1.151-7.821,3.237c-2.085,2.091-3.238,4.87-3.238,7.824
	c0,1.512,0.303,2.974,0.876,4.325L14.464,43.458c-0.169,0.165-0.271,0.386-0.289,0.616L13.726,48.966z M40.555,18.779
	c1.231-1.229,3.219-1.228,4.447,0c1.229,1.228,1.229,3.217,0,4.446c-1.228,1.229-3.217,1.229-4.447,0
	C39.328,21.997,39.327,20.007,40.555,18.779z M17.594,43.346L30.112,30.83c0.285,0.412,0.599,0.804,0.944,1.176L18.658,44.408
	c-0.146,0.146-0.342,0.219-0.532,0.219c-0.19,0-0.386-0.073-0.532-0.219C17.301,44.116,17.301,43.639,17.594,43.346z"/>
</svg>
