<?xml version="1.0" encoding="utf-8"?>
<!-- Generator: Adobe Illustrator 21.0.1, SVG Export Plug-In . SVG Version: 6.00 Build 0)  -->
<svg version="1.1" id="Layer_1" xmlns="http://www.w3.org/2000/svg" xmlns:xlink="http://www.w3.org/1999/xlink" x="0px" y="0px"
	 viewBox="0 0 64 64" style="enable-background:new 0 0 64 64;" xml:space="preserve">
<style type="text/css">
	.st0{fill:#93581C;}
	.st1{fill:#C4BC2C;}
</style>
<circle class="st0" cx="32" cy="32.8" r="28.9"/>
<g>
	<path class="st1" d="M50.892,27.045c0.021-0.685,9.643-6.633,7.557-9.217c0,0-1.059,1.931-2.491,1.079
		c-0.841-0.612,7.411-11.2,2.491-13.95c0,0,0.062,2.284-0.581,3.073L34.573,34.06c-0.122-0.137-0.569-0.942-0.694-1.408
		c-0.125-0.467-0.094-1.246,0-1.745c0.086-0.46,0.935-0.779,0.935-0.779s-1.059-1.307-1.526-1.681
		c-0.467-0.374-1.495-0.156-1.806-0.249c-0.311-0.094-0.405-0.779-1.307-0.902s-1.526,0.872-1.526,0.872s1.017-0.062,1.422,0.186
		c0.405,0.249,0.789,1.007,0.851,1.411c0.062,0.405-0.186,1.298-0.53,2.014c-0.343,0.716-0.125,1.962-0.125,1.962l-0.395,0.02
		L6.34,7.116C5.697,6.327,5.551,4.5,5.551,4.5c-4.92,2.751,3.332,13.712,2.491,14.324c-1.432,0.851-2.657-0.996-2.657-0.996
		c-2.086,2.585,6.789,7.827,6.81,8.512c-0.956,0.28-6.083-0.82-7.515-2.906c-1.526,3.488,7.37,6.747,7.307,7.349
		c0.219,0.695-1.37,0.654-2.117,0.622c0.342,1.184,8.19,3.155,8.76,3.862c-0.789,0.447-4.764,0.551-5.979-0.167
		c1.215,6.478,11.267,4.941,11.833,4.983c0.025,0.831-1.889,1.391-2.325,1.827c1.215,0.81,4.234,0.207,4.691-1.411l0.007-0.017
		c0.454-0.022,1.446,0.017,1.508,0.142c0.254,0.507,0.186,8.428-2.346,2.927c0,0-0.221,1.366-0.207,1.806
		c0.021,0.685,0.747,3.551-0.539,2.781c-0.228,0.436,0.021,2.553,2.762,2.428c0,0-0.436-1.275-0.415-1.63
		c0.021-0.363,0.642-1.218,1.142-1.255c0.539-0.042,0.789,0.935,0.664,1.754c0.518-0.238,0.747-0.654,0.872-0.902
		c0.125-0.249-0.308-1.453-0.581-1.639c-0.394-0.27-0.52-0.842-0.478-1.184c0.042-0.332,0.75-0.521,1.121-0.478
		c0.893,0.104,0.758,1.796,0.706,3.259c0.82-0.737,0.768-2.896,0.581-3.301c-0.186-0.405-0.789-0.779-0.851-1.246
		c-0.062-0.467,0.436-0.996,0.467-1.609c0.029-0.568,0.15-0.809,0.467-0.986c0.332-0.186,0.478-0.167,0.622,0.083
		c0.154,0.265-0.249,2.47,0,2.72c0.467,0.467,1.01,0.535,1.215,0.956c0.716,1.474,0.363,2.201,0.177,2.865
		c1.37-0.083,0.935-1.702,1.163-1.992c0.374,0.27,0.706,2.512,0.29,3.944c0,0,1.157-0.815,1.438-0.799
		c0.353,0.021,0.202,0.499-0.015,1.106c0.42,0.015,1.276,0.046,1.215-0.622c1.447,0.219,1.495-1.386,1.495-1.386
		s-1.55,0.395-1.599-0.332c-0.021-0.311,1.1-1.288,1.059-2.138c-0.049-1.016-1.288-2.263-1.288-2.263s-0.198,1.276-0.478,1.588
		c-0.28,0.311-0.841,0.125-1.09-0.156c-0.249-0.28-0.062-1.121-0.094-1.744c-0.025-0.492,0.164-1.467,0.245-1.857
		c1.005,0.514,3.58,1.382,4.737,0.611c-0.436-0.436-1.931-1.184-1.906-2.013c0.566-0.042,11.123,1.764,12.337-4.712
		c-1.215,0.716-5.138,0.841-5.927,0.395c0.57-0.706,8.449-2.637,8.792-3.82c-0.747,0.031-2.242,0.198-2.025-0.499
		c-0.062-0.603,9-4.453,7.474-7.941C58.136,25.427,51.846,27.325,50.892,27.045z"/>
	<path class="st1" d="M32,12.3c5.886,0,11.177,2.494,14.916,6.467l2.685-3C45.147,11.165,38.91,8.3,32,8.3
		c-6.663,0-12.7,2.663-17.117,6.979l2.65,3C21.24,14.585,26.353,12.3,32,12.3z"/>
	<path class="st1" d="M54.578,30.763l0.89-0.037l-0.388,1.335c-0.202,0.699-0.971,1.227-2.57,1.879l-0.092,0.491
		C51.584,44.988,42.771,53.3,32,53.3c-10.521,0-19.179-7.929-20.353-18.135l-0.309-1.648c-1.503-0.634-2.231-1.154-2.428-1.833
		l-0.386-1.336l1.006,0.043c-0.558-0.31-1.17-0.657-1.784-1.038C7.587,30.479,7.5,31.629,7.5,32.8c0,13.531,10.969,24.5,24.5,24.5
		s24.5-10.969,24.5-24.5c0-1.06-0.075-2.103-0.206-3.128C55.702,30.069,55.114,30.435,54.578,30.763z"/>
</g>
</svg>
