<?xml version="1.0" encoding="utf-8"?>
<!-- Generator: Adobe Illustrator 21.0.1, SVG Export Plug-In . SVG Version: 6.00 Build 0)  -->
<svg version="1.1" id="Layer_1" xmlns="http://www.w3.org/2000/svg" xmlns:xlink="http://www.w3.org/1999/xlink" x="0px" y="0px"
	 viewBox="0 0 64 64" style="enable-background:new 0 0 64 64;" xml:space="preserve">
<style type="text/css">
	.st0{fill:#341D51;}
	.st1{fill:#714EB7;}
</style>
<circle class="st0" cx="32" cy="32" r="28.9"/>
<g>
	<path class="st1" d="M7.5,42.6c0.8-1.9,6.7-6,7.9-7.9c-0.7-2.4-1.4-7.2,0.3-12.7c0.3-1,3-8.7,9.7-11.4c1.9-0.8,3.2-0.8,4.2-0.6
		c2.4,0.4,5,2.6,5.1,5.1c0,0.2,0.1,2.1-1.2,3.3c-1.7,1.4-3.3,0.9-4.6,0.6c-1-0.2-1.8-0.8-2.1-1.2c0.1,1.7,0.2,3.2,0.3,4.9
		c1.8,0.8,2.7,1.7,3,2.4c2.2,4.3,0.6,9.1-4.2,13.9c1,0.4,2.4,1.1,4.2,1.6c2.1,0.6,5,0.6,6.7,0.7c2.4,0,4.9,0,9.3-0.3
		c-0.9,1.7-3.8,6.2-9.3,8.1c-1.9,0.7-3.8,0.9-5.1,0.9c-0.4,1.3-5.9,8-7.2,8.1C20.3,58.6,6.4,45.4,7.5,42.6z"/>
	<path class="st1" d="M34.6,9.4c0,1.8,1.4,3.4,3.8,3.9c0.7,0,5-3,5.1-3.4c0.3-1-0.2-1.9-0.3-2c-0.8-1.4-2.3-1.8-3-2
		c-0.6,0-2.8-0.1-3.7,0.6C36.3,6.5,34.6,8.7,34.6,9.4z"/>
	<path class="st1" d="M36,20.3c0.4-1,7.4-7.8,8.8-7.7c0.8,0,2-0.2,3,0.6c1,0.8,1.3,2.2,1.1,3.3c-0.2,1-0.2,1.4-1.1,2.2
		c-0.8,0.8-5.6,5.9-6.2,6.2c-0.8,0.3-2.1,1.1-3.7,0.6c-1.2-0.4-2.2-1.6-2.4-2.9C35.4,21.8,35.8,21,36,20.3z"/>
	<path class="st1" d="M42.6,27.8c0.6-0.6,5.9-6.1,6.4-6.4c1.4-0.8,2.1-0.8,2.7-0.6c1.1,0.2,2.2,1.2,2.2,2.2c0,0.8,0,0.8-1,1.8
		c-0.4,0.4-5.9,5.7-6.4,6c-1.2,0.7-1.7,0.8-2.3,0.8c-0.9-0.1-2-0.6-2.1-1.4C41.9,29.3,42,28.2,42.6,27.8z"/>
	<path class="st1" d="M47.5,33.2c0.4-0.8,4.2-3.6,4.9-3.8c1-0.3,1.8-0.6,2.6-0.1c0.8,0.3,1.4,1.1,1.6,2c0.1,0.8-0.3,1.4-0.9,2.2
		c-0.3,0.4-3.4,2.8-3.8,2.9c-0.6,0.2-1.2,0.4-2.6,0.1c-0.3-0.1-1.7-0.2-2-1.2C47.1,35.1,46.8,34.2,47.5,33.2z"/>
</g>
</svg>
