<?xml version="1.0" encoding="utf-8"?>
<!-- Generator: Adobe Illustrator 21.0.1, SVG Export Plug-In . SVG Version: 6.00 Build 0)  -->
<svg version="1.1" id="Layer_1" xmlns="http://www.w3.org/2000/svg" xmlns:xlink="http://www.w3.org/1999/xlink" x="0px" y="0px"
	 viewBox="0 0 64 64" style="enable-background:new 0 0 64 64;" xml:space="preserve">
<style type="text/css">
	.st0{fill:#4E5468;}
	.st1{fill:#C7CBD7;}
</style>
<circle class="st0" cx="32" cy="32" r="28.9"/>
<rect x="10.1" y="10.1" class="st1" width="43.8" height="43.8"/>
<g>
	<path class="st0" d="M24.428,16.824h-8.496l-4.248,7.326l4.248,7.326h8.496l4.248-7.326L24.428,16.824z M20.18,28.706
		c-2.463,0-4.494-1.97-4.494-4.494c0-2.463,1.97-4.494,4.494-4.494c2.463,0,4.494,1.97,4.494,4.494
		C24.674,26.675,22.704,28.706,20.18,28.706z"/>
	<polygon class="st0" points="46.221,20.149 43.882,23.535 39.634,20.826 41.973,17.502 35.817,13.5 31.692,19.225 48.314,30.122 
		52.316,24.027 	"/>
	<polygon class="st0" points="35.201,24.397 32.431,28.583 42.097,30.369 42.774,29.322 	"/>
	<polygon class="st0" points="31.261,30.369 29.23,33.324 39.08,34.986 40.804,32.4 	"/>
	<polygon class="st0" points="28.245,35.171 26.151,38.126 36.063,39.788 37.787,37.141 	"/>
	<polygon class="st0" points="25.043,40.096 23.012,43.112 32.923,44.775 34.586,42.127 	"/>
	<polygon class="st0" points="29.106,50.5 31.877,46.314 22.211,44.528 21.534,45.575 	"/>
</g>
</svg>
