<?xml version="1.0" encoding="utf-8"?>
<!-- Generator: Adobe Illustrator 21.0.1, SVG Export Plug-In . SVG Version: 6.00 Build 0)  -->
<svg version="1.1" id="Layer_1" xmlns="http://www.w3.org/2000/svg" xmlns:xlink="http://www.w3.org/1999/xlink" x="0px" y="0px"
	 viewBox="0 0 64 64" style="enable-background:new 0 0 64 64;" xml:space="preserve">
<style type="text/css">
	.st0{fill:#326629;}
	.st1{fill:#EAEAEA;}
	.st2{fill:#EAEAEA;stroke:#326629;stroke-miterlimit:10;}
</style>
<g>
	<circle class="st0" cx="32" cy="32.8" r="28.9"/>
</g>
<g>
	<g>
		<path class="st1" d="M36.7,7.1C36.8,8,36.8,8.5,37,9.4c-4,0-6,0-9.9,0c0.1-0.9,0.2-1.4,0.3-2.4c-0.5,0-0.8,0-1.3,0
			c-0.2,0.9-0.2,1.4-0.4,2.4c-0.1,0.9-0.2,1.3-0.4,2.2c-0.4,2.5-0.6,3.8-1,6.4c-0.1,0.9-0.2,1.3-0.4,2.2c-0.4,2.5-0.6,3.8-1,6.4
			c-0.1,0.9-0.2,1.3-0.4,2.2c-0.4,2.5-0.6,3.8-1,6.4c-0.1,0.9-0.2,1.3-0.4,2.2c-0.4,2.5-0.6,3.8-1,6.4c-0.1,0.9-0.2,1.3-0.4,2.2
			c-0.4,2.5-0.6,3.8-1,6.4c-0.1,0.9-0.2,1.3-0.4,2.2c-0.2,0.9-0.2,1.4-0.4,2.4c1.2,0,1.9,0,3.1,0c0.1-0.9,0.2-1.4,0.3-2.4
			c8.5,0,12.7,0,21.2,0c0.1,0.9,0.2,1.4,0.3,2.4c1.2,0,1.9,0,3.1,0c-0.2-0.9-0.2-1.4-0.4-2.4c-0.1-0.9-0.2-1.3-0.4-2.2
			c-0.4-2.5-0.6-3.8-1-6.4c-0.1-0.9-0.2-1.3-0.4-2.2c-0.4-2.5-0.6-3.8-1-6.4c-0.1-0.9-0.2-1.3-0.4-2.2c-0.4-2.5-0.6-3.8-1-6.4
			c-0.1-0.9-0.2-1.3-0.4-2.2c-0.4-2.5-0.6-3.8-1-6.4c-0.1-0.9-0.2-1.3-0.4-2.2c-0.4-2.5-0.6-3.8-1-6.4c-0.1-0.9-0.2-1.3-0.4-2.2
			C38.2,8.5,38.2,8,38,7.1C37.5,7.1,37.2,7.1,36.7,7.1z M42.3,52.4c-8.3,0-12.4,0-20.7,0c0.3-2.5,0.5-3.8,0.8-6.4
			c7.6,0,11.4,0,19.1,0C41.8,48.5,42,49.8,42.3,52.4z M41.3,43.8c-7.4,0-11.1,0-18.5,0c0.3-2.5,0.5-3.8,0.8-6.4c6.8,0,10.2,0,16.9,0
			C40.8,40,40.9,41.2,41.3,43.8z M40.2,35.2c-6.5,0-9.8,0-16.4,0c0.3-2.5,0.5-3.8,0.8-6.4c5.9,0,8.9,0,14.8,0
			C39.7,31.4,39.9,32.6,40.2,35.2z M39.1,26.6c-5.7,0-8.5,0-14.2,0c0.3-2.5,0.5-3.8,0.8-6.4c5.1,0,7.6,0,12.6,0
			C38.6,22.8,38.8,24,39.1,26.6z M38,18c-4.8,0-7.2,0-12.1,0c0.3-2.5,0.5-3.8,0.8-6.4c4.2,0,6.3,0,10.5,0C37.6,14.2,37.7,15.5,38,18
			z"/>
		<path class="st2" d="M32,13.8c-1.7,4.6-2.8,7-5.5,11.6c1.1,0,1.6,0,2.7,0c-0.5,10.1-0.8,15.2-1.3,25.3c3.2,0,4.7,0,7.9,0
			c-0.5-10.1-0.7-15.2-1.2-25.3c1.2,0,1.7,0,2.9,0C34.8,20.7,33.7,18.4,32,13.8z"/>
	</g>
</g>
</svg>
