<svg xmlns="http://www.w3.org/2000/svg" viewBox="0 0 64 64" enable-background="new 0 0 64 64"><style type="text/css">.st0{fill:#682323;} .st1{fill:#C8CAC9;} .st2{fill:none;} .st3{fill:#C14848;}</style><circle class="st0" cx="32" cy="32" r="28.9"/><path class="st1" d="M63.73 37.02l-.08-.2c-.18-.31-.57-.41-.86-.23-.21.13-.32.36-.3.6.37 2.95-.98 5.97-3.69 7.58-3.65 2.17-8.39.96-10.57-2.71s-.99-8.41 2.66-10.58c2.71-1.61 6-1.35 8.42.38.2.13.45.15.67.03.3-.18.39-.57.21-.87l-.14-.17c-3.29-2.88-7.95-3.58-11.63-1.39-1.22.73-2.26 1.73-3.02 2.94-.24.38-.75.5-1.13.26-.09-.06-.17-.13-.23-.21-.82-1.1-1.88-2.01-3.11-2.64-3.81-1.97-8.41-1-11.53 2.07l-.13.18c-.16.31-.05.7.26.86.22.11.47.08.66-.07 2.31-1.87 5.58-2.32 8.38-.87 3.77 1.96 5.24 6.61 3.28 10.4-1.96 3.79-6.62 5.28-10.39 3.33-2.8-1.45-4.32-4.38-4.13-7.35.01-.24-.12-.47-.33-.58-.31-.16-.69-.03-.85.28l-.07.21c-.7 4.32 1.16 8.64 4.97 10.61.91.47 1.88.78 2.9.93.44.06.75.47.69.92l-.05.18c-.43 1.1-.65 2.28-.65 3.46 0 4.43 2.98 8.18 7.14 9.58.34.11.7-.08.81-.42.1-.3-.04-.62-.31-.77-2.72-1.23-4.63-4.02-4.63-7.27 0-2.73 1.35-5.15 3.39-6.57v5.92c.02.55.48.98 1.04.96.52-.02.94-.44.96-.96v-6.91c.41-.13.84-.23 1.27-.29v7.74c0 .63.51 1.14 1.14 1.14.63 0 1.14-.51 1.14-1.14v-7.73c.44.07.86.17 1.27.32v6.42c0 .55.45 1 1 1s1-.45 1-1v-5.39c1.97 1.44 3.26 3.8 3.26 6.47 0 3.25-1.9 6.04-4.63 7.27-.34.11-.53.47-.42.81.11.34.47.53.81.42l.1-.04c4.16-1.4 7.14-5.16 7.14-9.58 0-1.42-.31-2.77-.87-4-.19-.41-.02-.9.39-1.09.1-.05.2-.07.31-.08 1.47-.08 2.89-.52 4.15-1.27 3.68-2.2 5.29-6.62 4.33-10.89zm-17.44 8.82h-2.9c-.4 0-.73-.33-.72-.73 0-.12.03-.25.09-.36l1.45-2.56c.2-.35.64-.47.99-.27.11.06.21.16.27.27l1.45 2.56c.2.35.07.79-.27.99-.11.07-.23.1-.36.1zm-14.74-1.75l3.33-3.49 3.17 3.07 1.59-1.64-3.18-3.08 3.39-3.56-1.65-1.57-3.38 3.55-3.29-3.19-1.59 1.64 3.31 3.2-3.34 3.5 1.64 1.57zm26.63-10.98l-3.38 3.55-3.29-3.19-1.59 1.64 3.31 3.2-3.34 3.51 1.65 1.57 3.33-3.49 3.17 3.07 1.59-1.64-3.18-3.08 3.39-3.56-1.66-1.58z"/><path class="st2" d="M32 12l-17.3 10v20l17.3 9.9.83-.47.08-.31c-.89-.2-1.74-.51-2.55-.93-2.73-1.41-4.66-3.93-5.48-6.88l-6.28-3.61v-15.4l13.4-7.7 13.4 7.7v5.66c.67-.7 1.42-1.31 2.25-1.8.53-.32 1.08-.58 1.65-.79v-5.37l-17.3-10zM32 21.2l-9.3 5.4v10.8l1.84 1.07.06-.46c.03-.22.1-.44.21-.65.55-1.06 1.85-1.48 2.88-.94.73.38 1.18 1.16 1.13 1.99-.06.92.08 1.82.39 2.65l1.91-2.01-3.31-3.21 1.42-1.46c-.13-.04-.27-.09-.39-.15-.51-.26-.88-.7-1.05-1.24-.17-.55-.12-1.13.14-1.64.11-.21.25-.4.43-.57 3.56-3.5 8.73-4.47 12.95-2.46v-1.72l-9.31-5.4z"/><path class="st3" d="M24.54 38.47l-1.84-1.07v-10.8l9.3-5.4 9.3 5.4v1.71l.31.15c1.14.59 2.18 1.4 3.04 2.37.23-.3.48-.59.75-.86v-5.67l-13.4-7.7-13.4 7.7v15.4l6.28 3.61c-.43-1.53-.55-3.17-.34-4.84zM32.83 51.43l-.83.47-17.3-9.9v-20l17.3-10 17.3 10v5.36c1.94-.74 4.05-.88 6.1-.47v-8.39l-23.4-13.5-23.4 13.5v27l23.4 13.5 1.18-.68c-.48-1.25-.75-2.59-.75-3.98 0-.99.14-1.96.4-2.91z"/></svg>