<svg xmlns="http://www.w3.org/2000/svg" viewBox="0 0 64 64" enable-background="new 0 0 64 64"><style type="text/css">.st0{fill:#93581C;} .st1{fill:#C8CAC9;}</style><circle class="st0" cx="32" cy="32" r="28.9"/><path class="st1" d="M10.3 50.2l1.1 1.1.9-39.5-2 2zM51.4 11.8l.9 39.5 1.1-1.1v-36.4zM47.5 10.5v3.6l-2.3-2.3h-26.700000000000003l-2.3 2.3v-3.6h-2.6l1.2 43h1.4v-3.6l2.3 2.3h26.700000000000003l2.3-2.3v3.6h1.4l1.2-43z"/><path class="st0" d="M37.8 33h-11.6c-.5 0-.8.4-.8.8v9.2c0 .5.4.8.8.8h11.6c.5 0 .8-.4.8-.8v-9.1c0-.5-.3-.9-.8-.9zM23.8 19.8l-2.2-3.8c-.1-.1 0-.2.1-.2l2.2-1.3c.1-.1.2 0 .2.1l2.2 3.8c.1.1 0 .2-.1.2l-2.2 1.3c-.1.1-.2 0-.2-.1zM40.4 19.8l2.2-3.8c.1-.1 0-.2-.1-.2l-2.2-1.4c-.1-.1-.2 0-.2.1l-2.2 3.8c-.1.1 0 .2.1.2l2.2 1.3c0 .2.2.1.2 0zM43.6 38.9v-1.1h-3.6v1.1h3.6zM24 38.9v-1.1h-3.6v1.1h3.6zM40.2 43.4l-.1.6c0 .5-.4.8-.8.8h-14.6c-.5 0-.8-.4-.8-.8v-.6h-3.4c.2 2.5.3 4.3.3 4.3 0 .9.7 1.7 1.7 1.7h19c.9 0 1.7-.7 1.7-1.7 0 0 .2-1.8.3-4.3h-3.3zM20.8 31c-.2.3-.4 1.1-.5 2.2h3.5v-.6c0-.5.4-.8.8-.8h14.5c.5 0 .8.4.8.8v.6h3.5c-.1-1.1-.2-2-.5-2.3-3.8-4.9.6-10.7.6-12.3 0-.5-.3-1.1-.8-1.8l-2.1 3.7c-.1.2-.3.2-.5.1l-3-1.8c-.2-.1-.2-.3-.1-.5l2-3.6c-.7-.1-1.6-.1-2.5.2-.4.1-.6.5-.6.8-.2 2.5-2.1 3.5-4.1 3.5s-3.8-1-4.1-3.4c0-.4-.2-.7-.6-.8-.8-.2-1.6-.3-2.3-.2l2 3.6c.1.2 0 .3-.1.5l-3 1.8c-.2.1-.3 0-.5-.1l-2.2-3.8c-.6.6-.9 1.5-.9 1.9.2 1.7 4.5 7.5.7 12.3zm6.4-1.7h9.6c.4 0 .6.3.6.6 0 .4-.3.6-.6.6h-9.6c-.4 0-.6-.3-.6-.6-.1-.3.2-.6.6-.6zM24 37.4h-5c-.2 0-.4-.2-.4-.4v-3c0-.2.2-.4.4-.4h5c.2 0 .4.2.4.4v3c-.1.3-.2.4-.4.4zM24 43.1h-5c-.2 0-.4-.2-.4-.4v-3c0-.2.2-.4.4-.4h5c.2 0 .4.2.4.4v3c-.1.2-.2.4-.4.4zM45 37.5h-5c-.2 0-.4-.2-.4-.4v-3c0-.2.2-.4.4-.4h5c.2 0 .4.2.4.4v3c0 .2-.2.4-.4.4zM45 43.1h-5c-.2 0-.4-.2-.4-.4v-3c0-.2.2-.4.4-.4h5c.2 0 .4.2.4.4v3c0 .2-.2.4-.4.4z"/></svg>