<?xml version="1.0" encoding="utf-8"?>
<!-- Generator: Adobe Illustrator 21.0.1, SVG Export Plug-In . SVG Version: 6.00 Build 0)  -->
<svg version="1.1" id="Layer_1" xmlns="http://www.w3.org/2000/svg" xmlns:xlink="http://www.w3.org/1999/xlink" x="0px" y="0px"
	 viewBox="0 0 64 64" style="enable-background:new 0 0 64 64;" xml:space="preserve">
<style type="text/css">
	.st0{fill:#385E2F;}
	.st1{fill:#53A55D;}
</style>
<circle class="st0" cx="32" cy="32" r="28.9"/>
<g>
	<path class="st1" d="M41.333,30.674V8.5H22.359v22.174H11.147v21.397h11.213V53.5h18.973v-1.429h11.213V30.674H41.333z
		 M19.667,49.571h-5.171v-3.036h5.171V49.571z M19.667,43.366h-5.171v-9.701h5.171V43.366z M37.711,51.482H26.416v-4.598h11.295
		V51.482z M37.711,43.712H26.416v-9.866h11.295V43.712z M37.711,30.674H26.416v-3.96h11.295V30.674z M37.711,23.542H26.416v-3.96
		h11.295V23.542z M37.711,16.411H26.416v-3.96h11.295V16.411z M49.217,49.571h-5.171v-3.036h5.171V49.571z M49.217,43.366h-5.171
		v-9.701h5.171V43.366z"/>
	<polygon class="st1" points="21.012,26.981 21.012,24.259 12.954,24.259 12.954,28.054 20.052,28.054 	"/>
	<polygon class="st1" points="51.185,28.054 51.185,24.259 43.127,24.259 43.127,26.981 44.087,28.054 	"/>
	<polygon class="st1" points="1.9,27.652 5.739,27.652 8.194,30.107 6.498,52.071 1.9,52.071 	"/>
	<polygon class="st1" points="62.1,27.652 58.261,27.652 55.806,30.107 57.502,52.071 62.1,52.071 	"/>
</g>
</svg>
