<?xml version="1.0" encoding="utf-8"?>
<!-- Generator: Adobe Illustrator 21.0.1, SVG Export Plug-In . SVG Version: 6.00 Build 0)  -->
<svg version="1.1" id="Layer_1" xmlns="http://www.w3.org/2000/svg" xmlns:xlink="http://www.w3.org/1999/xlink" x="0px" y="0px"
	 viewBox="0 0 64 64" style="enable-background:new 0 0 64 64;" xml:space="preserve">
<style type="text/css">
	.st0{fill:#C8CAC9;}
	.st1{fill:#682323;}
</style>
<g>
	<path class="st0" d="M31.956,60.9L6.994,46.488l0.052-28.895L32.044,3.1l24.962,14.412l-0.054,28.894L31.956,60.9z M12.373,43.389
		L31.95,54.69l19.634-11.383l0.041-22.696L32.05,9.309L12.415,20.692L12.373,43.389z"/>
	<polygon class="st1" points="54.316,19.061 54.269,44.857 31.953,57.795 9.684,44.938 9.73,19.143 32.047,6.204 	"/>
</g>
<g>
	<path class="st0" d="M43.497,41.056c-1.235-1.194-2.897-2.115-4.559-2.214c-1.211-0.787-2.541-1.766-2.589-2.786
		c-0.027-0.605-0.001-0.962,0.713-2.09c1.353-2.139,1.14-8.533,0.593-10.72c-0.394-1.578-3.182-3.31-5.651-3.31
		s-5.257,1.732-5.651,3.31c-0.545,2.189-0.76,8.581,0.593,10.72c0.714,1.128,0.741,1.485,0.713,2.09
		c-0.048,1.019-1.377,1.999-2.589,2.786c-1.663,0.099-3.324,1.019-4.559,2.214c-2.102,2.031-2.375,5.846-2.375,5.846
		c2.565,1.791,13.869,1.592,13.869,1.592s11.304,0.199,13.869-1.592C45.872,46.901,45.597,43.087,43.497,41.056z"/>
	<polygon class="st0" points="30.184,11.5 33.817,11.5 32.806,17.457 31.196,17.457 	"/>
	<polygon class="st0" points="15.556,23.845 14.944,27.426 20.987,27.43 21.258,25.844 	"/>
	<polygon class="st0" points="16.441,35.561 18.287,38.69 22.904,34.792 22.086,33.405 	"/>
	<polygon class="st0" points="44.346,16.677 41.57,14.334 38.503,19.539 39.732,20.577 	"/>
	<polygon class="st0" points="49.05,27.309 48.414,23.732 42.726,25.77 43.007,27.354 	"/>
	<polygon class="st0" points="45.879,38.467 47.673,35.309 41.994,33.245 41.198,34.645 	"/>
	<polygon class="st0" points="22.476,14.304 19.692,16.638 24.294,20.553 25.527,19.518 	"/>
</g>
</svg>
