<?xml version="1.0" encoding="utf-8"?>
<!-- Generator: Adobe Illustrator 21.0.1, SVG Export Plug-In . SVG Version: 6.00 Build 0)  -->
<svg version="1.1" id="Layer_1" xmlns="http://www.w3.org/2000/svg" xmlns:xlink="http://www.w3.org/1999/xlink" x="0px" y="0px"
	 viewBox="0 0 64 64" style="enable-background:new 0 0 64 64;" xml:space="preserve">
<style type="text/css">
	.st0{fill:#4E5468;}
	.st1{fill:#C7CBD7;}
</style>
<g>
	<g>
		<g>
			<g>
				<circle class="st0" cx="32.033" cy="32" r="28.9"/>
			</g>
		</g>
	</g>
</g>
<path class="st1" d="M53.479,21.437l-0.317-0.182c0.628-1.551,0.046-3.364-1.446-4.222l-4.251-2.444
	c-0.281-0.162-0.485-0.478-0.414-0.795c0.242-1.091-0.588-2.494-2.062-3.341c-1.474-0.847-3.103-0.86-3.924-0.101
	c-0.238,0.22-0.614,0.204-0.895,0.042L35.92,7.95c-1.492-0.858-3.351-0.449-4.376,0.874l-1.124-0.646
	c-1.63-0.937-3.711-0.376-4.648,1.254L9.266,38.139c-0.937,1.63-0.376,3.711,1.254,4.648l23.059,13.259
	c1.63,0.937,3.711,0.376,4.648-1.254l16.506-28.706C55.671,24.456,55.109,22.374,53.479,21.437z M18.021,37.628
	c-0.651-0.374-0.875-1.205-0.501-1.856c0.374-0.651,1.205-0.875,1.856-0.501c0.651,0.374,0.875,1.205,0.501,1.856
	C19.503,37.778,18.672,38.002,18.021,37.628z M21.261,31.993c-0.651-0.374-0.875-1.205-0.501-1.856
	c0.374-0.651,1.205-0.875,1.856-0.501c0.651,0.374,0.875,1.205,0.501,1.856C22.743,32.143,21.912,32.367,21.261,31.993z
	 M24.502,26.357c-0.651-0.374-0.875-1.205-0.501-1.856c0.374-0.651,1.205-0.875,1.856-0.501c0.651,0.374,0.875,1.205,0.501,1.856
	C25.983,26.507,25.152,26.732,24.502,26.357z M27.742,20.722c-0.651-0.374-0.875-1.205-0.501-1.856
	c0.374-0.651,1.205-0.875,1.856-0.501c0.651,0.374,0.875,1.205,0.501,1.856C29.224,20.872,28.393,21.096,27.742,20.722z
	 M35.188,47.499L21.206,39.46l1.355-2.357l13.982,8.039L35.188,47.499z M38.428,41.864l-13.982-8.039l1.355-2.357l13.982,8.039
	L38.428,41.864z M41.668,36.228l-13.982-8.039l1.355-2.357l13.982,8.039L41.668,36.228z M44.908,30.593l-13.982-8.039l1.355-2.357
	l13.982,8.039L44.908,30.593z M50.818,21.89c-0.451,0.784-1.456,1.056-2.241,0.605L32.78,13.411
	c-0.784-0.451-1.056-1.456-0.605-2.241l0.625-1.087c0.451-0.785,1.456-1.056,2.241-0.605l4.251,2.444
	c0.985,0.567,2.179,0.456,2.968-0.273c0.155-0.12,0.932-0.197,1.852,0.332c0.92,0.529,1.244,1.24,1.219,1.43
	c-0.234,1.052,0.271,2.139,1.257,2.706l4.251,2.444c0.785,0.451,1.056,1.456,0.605,2.241L50.818,21.89z"/>
</svg>
