<svg xmlns="http://www.w3.org/2000/svg" viewBox="0 0 64 64" enable-background="new 0 0 64 64"><style type="text/css">.st0{fill:#714282;} .st1{fill:#C58FFF;}</style><circle class="st0" cx="32" cy="32" r="28.9"/><path class="st1" d="M17.4 49.7v-36.8c7.2-4.1 22.7-3.8 29.2 0v36.6l2.3 2.6v-41.6c-7.5-4.4-25.5-4.8-33.8 0v41.5l2.3-2.3zM22.9 55s-1.1-12.2-.2-15.8c1.2-4.7 5.7-8.9 5.7-8.9s-3.5-2.8-3.9-6c-.4-2.6.9-5.9 2.6-7.4 2.5-2 6.5-2.1 9.3 0 2.2 1.7 3.1 5.3 2.6 7.4-.6 3.3-3.3 6-3.3 6s4.9 4.3 5.7 8.9c.6 5.4-.5 15.8-.5 15.8h-18z"/></svg>