<svg xmlns="http://www.w3.org/2000/svg" viewBox="0 0 64 64" enable-background="new 0 0 64 64"><style type="text/css">.st0{fill:#93581C;} .st1{fill:#C8CAC9;}</style><circle class="st0" cx="32" cy="32" r="28.9"/><path class="st1" d="M10.5 50.2l1 1.1.9-39.5-1.9 2zM51.6 11.8l.9 39.5 1-1.1v-36.4zM47.6 10.5v3.6l-2.3-2.3h-26.6l-2.3 2.3v-3.6h-2.7l1.2 43h1.5v-3.6l2.3 2.3h26.6l2.3-2.3v3.6h1.5l1.2-43z"/><path class="st0" d="M40.9 43.1l-.9.5.4.7c-.1.1-3.4 2-3.6 2.1-.1-.2-.2-.3-.3-.6l-.2.1c-.6.3-1.1.6-1.7 1-.1.2-.3.2-.6.2s-.6-.1-.9-.3l-.5-.5c-.5-.7-.9-1.4-1.1-2.2-.4-1.2-.7-2.5-1-3.6 0-.2-.1-.2-.2-.3l-1.3-2.8-.5-1.1-.1-.2h-.2l-7.8.3c-.1 0-.2 0-.3.1l-1.5.9-.2.1c-.1-.1-.1-.1-.1-.2l-2.3-3.9c-.2-.5-.6-1-.8-1.4-.1-.1-.1-.2 0-.2.2-.5.3-.9.5-1.3 0-.1.1-.2.2-.2.5-.2 1-.6 1.4-.8.2-.1.3-.2.5-.2.3-.1.6 0 .8.2l.6.7s.2.3.4.5c.1 0 .1 0 .1-.1l.8-.5c.5-.1.6-.1.5-.2 0-.2.1-.2.2-.3.2-.1.5-.2.7-.4.1-.1.2-.1.2-.2.1-.2.2-.3.4-.5 3.9-2.2 7.8-4.4 11.7-6.7.2-.1.2-.2.2-.3v-1c0-.2-.1-.5-.1-.6 0-.2 0-.2.2-.3.2-.1.2-.2.4-.2.3.6.6 1.1 1 1.7.1-.1.2-.1.2-.1.2-.1.2-.2.4-.1h.4c.1 0 .2 0 .2-.1l.9-.5.2-.2c.1-.2.1-.5 0-.7-.1-.3-.2-.6-.2-1v-.6c0-.2.1-.3.2-.4s.3-.2.5-.2c.1 0 .2-.1.2-.1.3-.2.6-.1.9.1.3.2.4.5.6.8l.4.7c.1 0 .2-.1.2-.1.3.6.7 1.3 1 1.8l1.2-.7.6.4.2-.1 1.1-.6c.1-.1.2-.1.2-.1.2.1.4 0 .6-.1l1.9-1.1.2-.1.9 1.6-.2.1c-.7.4-1.3.8-2.1 1.2l-.2.2c0 .2-.1.3-.3.4l-.9.5c-.2.2-.2.2-.2.3v.5s0 .2-.2.2c-.3.2-.6.4-1 .6-.1.1-.2.1-.2.2l-.3.6c-.2.2-.4.2-.6.3-.6.3-1.2.7-1.7 1l-.2.2c-.2.6-.3 1-.4 1.6v.3l1.9 3.3.1.2s0 .1-.1.1l-.7 1.1-.2.2-2.9 1.7c-.1.1-.2.1-.2.1h-2.3000000000000003c1.6 2.8 3.3 5.7 4.9 8.6zm-5.3-12.1c-.3.2-.6.3-1 .6l-.1.1c0 .1 0 .1-.1.2v.2c.3.6.7 1.2 1 1.7 0 .1.1.1.2.1h2.5c.1 0 .2 0 .2-.1l2.6-1.5c.1 0 .1-.1.1-.1l.6-.9c-.6-1-1.1-2-1.7-2.9-1.2.7-2.4 1.3-3.6 2.1l.1.3c.1.2.2.5.2.7.2.4.6.8.9 1.1l.2.2c.1.1.1.2.1.3s-.1.1-.2.1-.2-.1-.2-.1c-.4-.2-.7-.4-1-.7l-.2-.2c0-.4-.4-.8-.6-1.2z"/></svg>