<?xml version="1.0" encoding="utf-8"?>
<!-- Generator: Adobe Illustrator 21.0.1, SVG Export Plug-In . SVG Version: 6.00 Build 0)  -->
<svg version="1.1" id="Layer_1" xmlns="http://www.w3.org/2000/svg" xmlns:xlink="http://www.w3.org/1999/xlink" x="0px" y="0px"
	 viewBox="0 0 64 64" style="enable-background:new 0 0 64 64;" xml:space="preserve">
<style type="text/css">
	.st0{fill:#207E70;}
	.st1{fill:#C8CAC9;}
</style>
<g>
	<circle class="st0" cx="32" cy="32" r="28.9"/>
</g>
<rect x="10.1" y="10.1" class="st1" width="43.8" height="43.8"/>
<path class="st0" d="M45.814,19.931l-13.227-7.766c-0.57-0.335-1.304-0.144-1.639,0.426L23.986,24.45
	c-0.335,0.57-0.144,1.304,0.426,1.639l1.566,0.92l-1.239,2.111c-0.151,0.257-0.065,0.587,0.192,0.738l1.426,0.837l-8.764,14.927
	l0.055,3.188l0.512-0.009l9.785-16.667l0.818,0.48l-10.233,17.43L18.566,52l6.909-3.386c0.158-0.078,0.255-0.242,0.247-0.418
	l-0.113-2.39c-0.008-0.168,0.089-0.323,0.242-0.389l1.997-0.867c0.162-0.07,0.266-0.23,0.266-0.406l-0.007-2.713
	c0-0.154,0.087-0.295,0.226-0.364l1.961-0.963c0.185-0.091,0.282-0.297,0.235-0.498l-0.459-1.95
	c-0.042-0.178,0.041-0.362,0.203-0.448l2.469-1.32l0.631-1.075l0.724,0.425c0.257,0.151,0.587,0.065,0.738-0.192l1.239-2.111
	l1.566,0.92c0.57,0.335,1.304,0.144,1.639-0.426l6.962-11.858C46.576,20.999,46.385,20.265,45.814,19.931z M34.858,23.445
	c-1.099-0.645-1.467-2.059-0.822-3.158s2.059-1.467,3.158-0.822c1.099,0.645,1.467,2.059,0.822,3.158S35.957,24.09,34.858,23.445z"
	/>
</svg>
