<svg xmlns="http://www.w3.org/2000/svg" viewBox="0 0 64 64" enable-background="new 0 0 64 64"><style type="text/css">.st0{fill:#555556;} .st1{fill:#C4BC2C;} .st2{fill:#93581C;} .st3{fill:#C8CAC9;}</style><circle class="st0" cx="32" cy="32" r="28.9"/><path class="st1" d="M45.4 29.4l-16.2 28h32.3l-16.1-28zm-8.4 23.6l8.4-14.6 8.4 14.6h-16.8z"/><path class="st2" d="M45.4 38.4l-8.4 14.6h16.8z"/><path class="st3" d="M33.9 46.3l4-7-5.9 3.5-9.3-5.4v-10.8l9.3-5.4 9.3 5.4v6.9l4.1-7.1v-2.1l-13.4-7.7-13.4 7.7v15.4l13.4 7.7zM31 51.3l-16.3-9.3v-20l17.3-10 17.3 10v11.2l6.1 10.6v-25.3l-23.4-13.5-23.4 13.5v27l19.3 11.2z"/></svg>