<svg version="1.1" id="Layer_1" xmlns="http://www.w3.org/2000/svg" x="0" y="0" viewBox="0 0 64 64" xml:space="preserve"><style type="text/css">.st0{fill:#555556}</style><circle class="st0" cx="32" cy="32.8" r="28.9"/><path fill="#c8cac9" d="M10.1 10.1h43.8v43.8H10.1z"/><g><path class="st0" d="M35.3 49h-6.7c-.2 0-.3.2-.3.3v.8c0 .2.2.3.3.3h6.7c.2 0 .3-.2.3-.3v-.8c.1-.2-.1-.3-.3-.3zM35 25.4c0-.2-.2-.4-.4-.4h-5.2c-.2 0-.4.2-.4.4 0 3.8-.7 3.9-.7 6.1V47c0 .5.4.8.8.8h5.7c.5 0 .8-.4.8-.8V31.5c.1-2.2-.5-2.3-.6-6.1zM29.3 23.6h5.4c.2 0 .3-.1.3-.3V19c0-1.8-1.4-5.5-3-5.5s-3 3.7-3 5.5v4.3c0 .2.1.3.3.3zM25 49h-6.7c-.2 0-.3.2-.3.3v.8c0 .2.2.3.3.3H25c.2 0 .3-.2.3-.3v-.8c.1-.2-.1-.3-.3-.3zM24.7 25.4c0-.2-.2-.4-.4-.4h-5.2c-.2 0-.4.2-.4.4 0 3.8-.7 3.9-.7 6.1V47c0 .5.4.8.8.8h5.7c.5 0 .8-.4.8-.8V31.5c.1-2.2-.6-2.3-.6-6.1zM19 23.6h5.4c.2 0 .3-.1.3-.3V19c0-1.8-1.4-5.5-3-5.5s-3 3.7-3 5.5v4.3c0 .2.1.3.3.3zM45.7 49H39c-.2 0-.3.2-.3.3v.8c0 .2.2.3.3.3h6.7c.2 0 .3-.2.3-.3v-.8c0-.2-.1-.3-.3-.3zM45.3 25.4c0-.2-.2-.4-.4-.4h-5.2c-.2 0-.4.2-.4.4 0 3.8-.7 3.9-.7 6.1V47c0 .5.4.8.8.8h5.7c.5 0 .8-.4.8-.8V31.5c.1-2.2-.5-2.3-.6-6.1zM39.7 23.6H45c.2 0 .3-.1.3-.3V19c0-1.8-1.4-5.5-3-5.5s-3 3.7-3 5.5v4.3c0 .2.2.3.4.3z"/></g></svg>