<?xml version="1.0" encoding="utf-8"?>
<!-- Generator: Adobe Illustrator 21.0.1, SVG Export Plug-In . SVG Version: 6.00 Build 0)  -->
<svg version="1.1" id="Layer_1" xmlns="http://www.w3.org/2000/svg" xmlns:xlink="http://www.w3.org/1999/xlink" x="0px" y="0px"
	 viewBox="0 0 64 64" style="enable-background:new 0 0 64 64;" xml:space="preserve">
<style type="text/css">
	.st0{fill:#909319;}
	.st1{fill:#C8CAC9;}
</style>
<g>
	<circle class="st0" cx="32" cy="32" r="28.9"/>
</g>
<rect x="10.1" y="10.1" class="st1" width="43.8" height="43.8"/>
<g>
	<path class="st0" d="M45.483,29.249c0.015-0.489,6.882-4.734,5.393-6.578c0,0-0.756,1.378-1.778,0.77
		c-0.6-0.437,5.289-7.993,1.778-9.956c0,0,0.044,1.63-0.415,2.193L33.836,34.255c-0.087-0.098-0.406-0.672-0.495-1.005
		s-0.067-0.889,0-1.245c0.061-0.328,0.667-0.556,0.667-0.556s-0.756-0.933-1.089-1.2s-1.067-0.111-1.289-0.178
		s-0.289-0.556-0.933-0.644c-0.644-0.088-1.089,0.622-1.089,0.622s0.726-0.044,1.015,0.133c0.289,0.178,0.563,0.719,0.607,1.007
		c0.044,0.289-0.133,0.926-0.378,1.437c-0.245,0.511-0.089,1.4-0.089,1.4l-0.282,0.014L13.687,15.026
		c-0.459-0.563-0.563-1.867-0.563-1.867c-3.511,1.963,2.378,9.786,1.778,10.223c-1.022,0.607-1.896-0.711-1.896-0.711
		c-1.489,1.845,4.845,5.586,4.86,6.075c-0.682,0.2-4.341-0.585-5.363-2.074c-1.089,2.489,5.26,4.815,5.215,5.245
		c0.156,0.496-0.978,0.467-1.511,0.444c0.244,0.845,5.845,2.252,6.252,2.756c-0.563,0.319-3.4,0.393-4.267-0.119
		c0.867,4.623,8.041,3.526,8.445,3.556c0.018,0.593-1.348,0.993-1.659,1.304c0.867,0.578,3.022,0.148,3.348-1.007l0.005-0.012
		c0.324-0.016,1.032,0.012,1.076,0.101c0.181,0.362,0.133,6.015-1.674,2.089c0,0-0.158,0.975-0.148,1.289
		c0.015,0.489,0.533,2.534-0.385,1.985c-0.163,0.311,0.015,1.822,1.971,1.733c0,0-0.311-0.91-0.296-1.163
		c0.015-0.259,0.458-0.869,0.815-0.896c0.385-0.03,0.563,0.667,0.474,1.252c0.37-0.17,0.533-0.467,0.622-0.644
		c0.089-0.178-0.22-1.037-0.415-1.17C30.09,43.222,30,42.813,30.03,42.569c0.03-0.237,0.535-0.372,0.8-0.341
		c0.637,0.074,0.541,1.282,0.504,2.326c0.585-0.526,0.548-2.067,0.415-2.356c-0.133-0.289-0.563-0.556-0.607-0.889
		s0.311-0.711,0.333-1.148c0.021-0.405,0.107-0.577,0.333-0.704c0.237-0.133,0.341-0.119,0.444,0.059
		c0.11,0.189-0.178,1.763,0,1.941c0.333,0.333,0.721,0.382,0.867,0.682c0.511,1.052,0.259,1.571,0.126,2.045
		c0.978-0.059,0.667-1.215,0.83-1.422c0.267,0.193,0.504,1.793,0.207,2.815c0,0,0.826-0.582,1.026-0.57
		c0.252,0.015,0.144,0.356-0.011,0.789c0.3,0.011,0.911,0.033,0.867-0.444c1.033,0.156,1.067-0.989,1.067-0.989
		s-1.106,0.282-1.141-0.237c-0.015-0.222,0.785-0.919,0.756-1.526c-0.035-0.725-0.919-1.615-0.919-1.615s-0.141,0.911-0.341,1.133
		s-0.6,0.089-0.778-0.111s-0.044-0.8-0.067-1.245c-0.018-0.351,0.117-1.047,0.175-1.325c0.717,0.367,2.555,0.986,3.381,0.436
		c-0.311-0.311-1.378-0.845-1.36-1.437c0.404-0.03,7.938,1.259,8.804-3.363c-0.867,0.511-3.667,0.6-4.23,0.282
		c0.407-0.504,6.03-1.882,6.275-2.726c-0.533,0.022-1.6,0.141-1.445-0.356c-0.044-0.43,6.423-3.178,5.334-5.667
		C50.652,28.094,46.163,29.449,45.483,29.249z"/>
	<path class="st0" d="M32,18.726c4.201,0,7.977,1.78,10.645,4.615l1.916-2.141c-3.179-3.284-7.63-5.329-12.561-5.329
		c-4.755,0-9.064,1.9-12.216,4.981l1.891,2.141C24.321,20.357,27.97,18.726,32,18.726z"/>
	<path class="st0" d="M48.113,31.902l0.635-0.026l-0.277,0.953c-0.144,0.499-0.693,0.876-1.834,1.341l-0.066,0.35
		C45.976,42.054,39.687,47.986,32,47.986c-7.508,0-13.687-5.659-14.525-12.942l-0.221-1.176c-1.073-0.452-1.592-0.824-1.733-1.308
		l-0.275-0.953l0.718,0.031c-0.398-0.221-0.835-0.469-1.273-0.741c-0.113,0.804-0.176,1.624-0.176,2.46
		c0,9.657,7.828,17.485,17.485,17.485s17.485-7.828,17.485-17.485c0-0.756-0.054-1.501-0.147-2.232
		C48.915,31.407,48.496,31.668,48.113,31.902z"/>
</g>
</svg>
