<svg xmlns="http://www.w3.org/2000/svg" viewBox="0 0 64 64" enable-background="new 0 0 64 64"><style type="text/css">.st0{fill:#555556;} .st1{fill:#93581C;} .st2{fill:#C4BC2C;} .st3{fill:none;} .st4{fill:#C8CAC9;}</style><circle class="st0" cx="32" cy="32" r="28.9"/><circle class="st1" cx="43.8" cy="46.4" r="16.2"/><path class="st2" d="M57.4 42.2c0-.5 6.9-4.8 5.4-6.6 0 0-.8 1.4-1.8.8-.6-.4 5.3-8.1 1.8-10 0 0 0 1.6-.4 2.2l-16.7 18.7c-.1-.1-.4-.7-.5-1-.1-.3-.1-.9 0-1.3.1-.3.7-.6.7-.6s-.8-.9-1.1-1.2-1.1-.1-1.3-.2c-.2-.1-.3-.6-.9-.6l-1.2.6s.7 0 1 .1c.3.2.6.7.6 1 0 .3-.1.9-.4 1.4v1.5h-.3l-16.9-19.1c-.5-.6-.6-1.9-.6-1.9-3.5 2 2.4 9.9 1.8 10.3-1 .6-1.9-.7-1.9-.7-1.5 1.9 4.9 5.6 4.9 6.1-.7.2-4.4-.6-5.4-2.1-1.1 2.5 5.3 4.9 5.3 5.3.2.5-1 .5-1.5.4.2.9 5.9 2.3 6.3 2.8-.6.3-3.4.4-4.3-.1.9 4.7 8.1 3.6 8.5 3.6 0 .6-1.4 1-1.7 1.3.9.6 3 .1 3.4-1 .3 0 1 0 1.1.1.2.4.1 6.1-1.7 2.1 0 0-.2 1-.1 1.3 0 .5.5 2.6-.4 2-.2.3 0 1.8 2 1.7 0 0-.3-.9-.3-1.2 0-.3.5-.9.8-.9.4 0 .6.7.5 1.3.4-.2.5-.5.6-.6.1-.2-.2-1-.4-1.2-.3-.2-.4-.6-.3-.9 0-.2.5-.4.8-.3.6.1.5 1.3.5 2.3.6-.5.6-2.1.4-2.4-.3-.2-.7-.5-.7-.8 0-.3.3-.7.3-1.2 0-.4.1-.6.3-.7.2-.1.3-.1.4.1.1.2-.2 1.8 0 2 .3.3.7.4.9.7.5 1.1.3 1.6.1 2.1 1-.1.7-1.2.8-1.4.3.2.5 1.8.2 2.8 0 0 .8-.6 1-.6.3 0 .1.4 0 .8.3 0 .9 0 .9-.4 1 .2 1.1-1 1.1-1s-1 .2-1-.4c0-.2.8-.9.8-1.5 0-.7-.9-1.6-.9-1.6s-.1.9-.3 1.1c-.2.2-.6.1-.8-.1s0-.8-.1-1.3c0-.4.1-1.1.2-1.3.7.4 2.6 1 3.4.4-.3-.3-1.4-.9-1.4-1.4.4 0 8 1.3 8.9-3.4-.9.5-3.7.6-4.3.3.4-.5 6.1-1.9 6.3-2.7-.5 0-1.6.1-1.5-.4 0-.4 6.5-3.2 5.4-5.7-1.1 1.5-5.6 2.8-6.3 2.6zM43.8 31.6c4.2 0 8 1.8 10.7 4.7l1.9-2.2c-3.2-3.3-7.7-5.4-12.7-5.4-4.8 0-9.1 1.9-12.3 5l1.9 2.2c2.8-2.6 6.5-4.3 10.5-4.3zM60.1 44.9h.6l-.3 1c-.1.5-.7.9-1.8 1.4l-.1.4c-.6 7.6-6.9 13.6-14.7 13.6-7.6 0-13.8-5.7-14.6-13.1l-.2-1.3c-1.1-.5-1.6-.8-1.7-1.3l-.3-1h.7c-.4-.2-.8-.5-1.3-.7-.1.8-.2 1.6-.2 2.5 0 9.7 7.9 17.6 17.6 17.6s17.6-7.9 17.6-17.6l-.1-2.3c-.4.3-.8.6-1.2.8z"/><path class="st3" d="M45.4 39.7l-2.3 1.3c.4.1.8.4 1 .6.5 0 1.1.1 1.6.5.4.3.9.9 1.2 1.3l.5-.3 1.9-2.1v-6.7c-1.2-.6-2.5-.9-3.9-1.1v6.5zM24.9 43.8c-.5-.4-1-.8-1.4-1.3l-4.8-2.8v-15.4l13.3-7.7 13.4 7.7v3c1.3.1 2.6.3 3.9.7v-6l-17.3-10-17.3 10v20l10.1 5.8-.1-1.4c0-.9.1-1.7.2-2.6zM35 41.1l-9.2-10.5c.5 1.2 1 2.3 1.4 3 .9 1.8 1.5 3 .3 3.9l-.1.1-.2.1c.8.7 1.7 1.4 2.1 1.7 1.3 1 1.8 1.4 1.8 2.2v.6l.9.5 3-1.6zM33.9 46.3c.8.3 1.2.5 1.5.9l1.1 1.4-1.5.8c-.3.2-.8.3-1.4.4.5.2 1 .2 1.6.3l5.2-3-2.6-3-3.9 2.2zM37.7 56.7l.3-.6v-.1c0-.2 0-.4-.1-.5l-2.2 1.2c.5.4 1.1.8 1.7 1.1 0-.3.1-.7.3-1.1zM44.1 58.9l-.8.7h1.1l.2-.8-.5.1zM47.3 50.1l-.8.6.8.4zM52.5 53.2l-1.5 1c-.3.2-.7.3-1 .4l.3 1 .5-.1-.1 2v.2c2.1-1.3 3.8-3.1 5-5.3-1 .4-2 .6-3.2.8zM45.4 51.8l.1-.6-.4.2c.1.2.2.3.3.4zM23 36.5c-.1-.7.1-1.4.5-1.9l.5-.6c-.5-.9-.9-2-1.3-3.1v6.5l.6.4c-.2-.4-.3-.8-.3-1.3zM37.6 39.5l3.7-2.1v-4c-2.3.5-4.5 1.5-6.3 3.2l2.6 2.9zM26.5 27l4.6 5.2c2.9-2.6 6.4-4.2 10.2-4.7v-.8l-9.3-5.5-5.8 3.4.1 1.3c0 .4.1.9.2 1.1zM53.1 46.8c.5-.2 1.2-.5 2.3-.8 0 0 .1 0 .2-.1l1.3-.8c0-.6.4-1 1-1.4-.3 0-.6 0-.8-.1l-1.1-.3v-1.2c0-.8.5-1.2 1.9-2.3.5-.4 1.7-1.3 2.5-2.2h-.1l-.1-.1c-1.2-.9-.6-2.2.3-3.9.2-.4.5-1 .9-1.7l-6 6.7v6.8l-2.3 1.4z"/><path class="st4" d="M22.8 39l.5-1.3-.6-.4v-6.5c-.8-2.4-1-5 1.4-6.3l2-1.1.1 1 5.8-3.4 9.3 5.4v.8c.8-.1 1.7-.2 2.5-.2.5 0 1 0 1.6.1v-3l-13.4-7.5-13.4 7.7v15.4l4.8 2.8c-.8-1-1.2-2.2-.6-3.5zM14.7 42v-20l17.3-10 17.3 10v6c2.2.7 4.3 1.7 6.1 3.1v-12.6l-23.4-13.5-23.4 13.5v27l19 11c-1.6-2.6-2.6-5.6-2.8-8.7l-10.1-5.8z"/></svg>