<svg xmlns="http://www.w3.org/2000/svg" viewBox="0 0 64 64" enable-background="new 0 0 64 64"><style type="text/css">.st0{fill:#4E5468;} .st1{fill:#C7CBD7;}</style><circle class="st0" cx="31.6" cy="31.7" r="28.9"/><path class="st1" d="M22.6 14.1h-10.6l-5.3 9.1 5.3 9.1h10.6l5.3-9.1-5.3-9.1zm-5.3 14.8c-3.1 0-5.6-2.4-5.6-5.6 0-3.1 2.4-5.6 5.6-5.6 3.1 0 5.6 2.4 5.6 5.6 0 3.1-2.5 5.6-5.6 5.6zM49.7 18.3l-2.9 4.2-5.3-3.4 2.9-4.1-7.7-5-5.1 7.1 20.7 13.6 5-7.6zM36 23.5l-3.5 5.3 12.1 2.2.8-1.3zM31.1 31l-2.5 3.6 12.2 2.1 2.1-3.2zM27.3 36.9l-2.6 3.7 12.4 2.1 2.1-3.3zM23.4 43.1l-2.6 3.7 12.3 2.1 2.1-3.3zM28.4 56l3.4-5.2-12-2.2-.8 1.3z"/></svg>