<?xml version="1.0" encoding="utf-8"?>
<!-- Generator: Adobe Illustrator 21.0.1, SVG Export Plug-In . SVG Version: 6.00 Build 0)  -->
<svg version="1.1" id="Layer_1" xmlns="http://www.w3.org/2000/svg" xmlns:xlink="http://www.w3.org/1999/xlink" x="0px" y="0px"
	 viewBox="0 0 128 64" style="enable-background:new 0 0 128 64;" xml:space="preserve">
<style type="text/css">
	.st0{fill:#C7CBD7;}
	.st1{fill:#83868E;}
</style>
<g>
	<polygon class="st0" points="27.175,12 19.533,12 19.533,42.719 14.182,42.719 23.354,52 32.526,42.719 27.175,42.719 	"/>
	<polygon class="st0" points="42.494,16.554 42.494,19.092 28.425,19.092 28.425,19.892 43.294,19.892 43.294,15.754 28.425,15.754 
		28.425,16.554 	"/>
	<polygon class="st0" points="40.098,23.854 40.098,21.35 40.097,21.35 28.425,21.35 28.425,23.854 	"/>
	<rect x="28.425" y="26.131" class="st0" width="9.009" height="2.503"/>
	<polygon class="st0" points="45.104,33.414 45.104,30.91 45.104,30.91 28.425,30.91 28.425,33.414 	"/>
	<polygon class="st0" points="49.018,35.673 49.018,38.211 28.425,38.211 28.425,39.011 49.818,39.011 49.818,34.873 28.425,34.873 
		28.425,35.673 	"/>
	<polygon class="st0" points="35.518,41.469 34.032,42.973 48.568,42.973 48.568,40.47 28.425,40.47 28.425,41.469 	"/>
	<polygon class="st0" points="42.45,47.754 42.45,45.25 31.781,45.25 29.308,47.754 	"/>
</g>
<g>
	<polygon class="st1" points="91.175,12 83.533,12 83.533,42.719 78.182,42.719 87.354,52 96.526,42.719 91.175,42.719 	"/>
	<polygon class="st1" points="106.494,16.554 106.494,19.092 92.425,19.092 92.425,19.892 107.294,19.892 107.294,15.754 
		92.425,15.754 92.425,16.554 	"/>
	<polygon class="st1" points="104.098,23.854 104.098,21.35 104.097,21.35 92.425,21.35 92.425,23.854 	"/>
	<rect x="92.425" y="26.131" class="st1" width="9.009" height="2.503"/>
	<polygon class="st1" points="109.104,33.414 109.104,30.91 109.104,30.91 92.425,30.91 92.425,33.414 	"/>
	<polygon class="st1" points="113.018,35.673 113.018,38.211 92.425,38.211 92.425,39.011 113.818,39.011 113.818,34.873 
		92.425,34.873 92.425,35.673 	"/>
	<polygon class="st1" points="99.518,41.469 98.032,42.973 112.568,42.973 112.568,40.47 92.425,40.47 92.425,41.469 	"/>
	<polygon class="st1" points="106.45,47.754 106.45,45.25 95.781,45.25 93.308,47.754 	"/>
</g>
</svg>
