<svg xmlns="http://www.w3.org/2000/svg" viewBox="0 0 64 64" enable-background="new 0 0 64 64"><style type="text/css">.st0{fill:#C7CBD7;}</style><path class="st0" d="M27 27.1l17.8-7.8-7.7 17.6-17.8 7.9zM21.3 34.3c-.2-.7-.3-1.5-.3-2.3 0-6.1 4.9-11 11-11 .8 0 1.6.1 2.3.2l1.7-.7c-1.3-.4-2.6-.7-4-.7-6.8 0-12.2 5.4-12.2 12.2 0 1.4.2 2.8.7 4l.8-1.7zM42.8 29.8c.2.8.2 1.5.2 2.3 0 6.1-4.9 11-11 11-.8 0-1.6-.1-2.3-.3l-1.7.8c1.3.4 2.6.7 3.9.7 6.7 0 12.2-5.4 12.2-12.2 0-1.3-.3-2.7-.7-3.9l-.6 1.6zM48.6 29.2c-.4-2.4-1.3-4.7-2.7-6.6l-1.6 3.7c.5 1 .8 2 1 3.2l3.2 2.7-3.2 2.7c-1.1 5.4-5.3 9.7-10.8 10.7l-2.5 3-2.7-3.2c-1.1-.3-2.2-.6-3.2-1.1l-3.6 1.6c1.9 1.3 4.2 2.3 6.6 2.7l2.9 3.4 2.8-3.4c7-1.2 12.6-6.8 13.8-13.8l3.4-2.8-3.4-2.8zM18.1 41.4l1.6-3.6c-.5-1-.8-2.1-1.1-3.2l-3.2-2.6 3.2-2.7c1.1-5.4 5.3-9.7 10.8-10.7l2.7-3.2 2.7 3.2c1.2.2 2.2.6 3.3 1.1l3.6-1.6c-1.9-1.3-4.2-2.2-6.6-2.7l-3.1-3.4-2.8 3.4c-7 1.2-12.6 6.8-13.8 13.8l-3.4 2.8 3.4 2.8c.4 2.5 1.4 4.7 2.7 6.6z"/></svg>