<?xml version="1.0" encoding="utf-8"?>
<!-- Generator: Adobe Illustrator 21.0.1, SVG Export Plug-In . SVG Version: 6.00 Build 0)  -->
<svg version="1.1" id="Layer_1" xmlns="http://www.w3.org/2000/svg" xmlns:xlink="http://www.w3.org/1999/xlink" x="0px" y="0px"
	 viewBox="0 0 64 64" style="enable-background:new 0 0 64 64;" xml:space="preserve">
<style type="text/css">
	.st0{fill:#C7CBD7;}
</style>
<g>
	<path class="st0" d="M19.849,32.418c-0.438,0.319-1.155,0.12-2.032-0.797c0.199,4.183,3.107,9.004,4.064,10.677
		c1.941,0.509,3.953,1.212,5.363,2.035c0.413,0.893,1.011,2.028,1.171,2.905h7.171c0.159-0.876,0.757-2.012,1.171-2.905
		c1.41-0.824,3.422-1.526,5.363-2.035c0.956-1.673,3.864-6.494,4.064-10.677c-0.876,0.916-1.594,1.115-2.032,0.797
		c-0.372-0.538-1.912-2.51-2.951-3.211c0.043-1.052,2.354-12.007,2.354-12.007c-5.338-6.812-17.948-7.052-23.107,0
		c0,0,2.311,10.956,2.354,12.007C21.761,29.908,20.221,31.88,19.849,32.418z M43.974,33.912c0.157,3.745-4.663,5.876-5.659,5.876
		c-1.096,0-3.506-0.936-3.765-1.235c-0.598-0.677-1.074-1.637-1.235-2.609C35.406,35.984,42.039,33.912,43.974,33.912z
		 M31.993,39.002c1.115,0,2.729,2.725,3.008,3.468c-0.186,0.757-0.611,1.115-0.85,1.394h-4.329c-0.239-0.279-0.664-0.637-0.85-1.394
		C29.251,41.727,30.878,39.002,31.993,39.002z M29.396,38.553c-0.259,0.299-2.669,1.235-3.765,1.235
		c-0.996,0-5.817-2.131-5.659-5.876c1.934,0,8.568,2.072,10.659,2.032C30.471,36.916,29.994,37.876,29.396,38.553z"/>
	<path class="st0" d="M44.333,20.689l-1.039,2.909c2.485,2.721,4.013,6.331,4.013,10.306c0,8.454-6.853,15.307-15.307,15.307
		s-15.307-6.853-15.307-15.307c0-3.823,1.411-7.31,3.728-9.992l-0.779-3.2c-3.523,3.302-5.736,7.983-5.736,13.192
		C13.905,43.898,22.006,52,32,52s18.095-8.102,18.095-18.095C50.095,28.683,47.871,23.992,44.333,20.689z"/>
</g>
</svg>
