<?xml version="1.0" encoding="utf-8"?>
<!-- Generator: Adobe Illustrator 21.0.1, SVG Export Plug-In . SVG Version: 6.00 Build 0)  -->
<svg version="1.1" id="Layer_1" xmlns="http://www.w3.org/2000/svg" xmlns:xlink="http://www.w3.org/1999/xlink" x="0px" y="0px"
	 viewBox="0 0 128 64" style="enable-background:new 0 0 128 64;" xml:space="preserve">
<style type="text/css">
	.st0{fill:#C7CBD7;}
	.st1{fill:#83868E;}
</style>
<g>
	<path class="st0" d="M39.5,27.5c-0.4,0-0.8,0.1-1.1,0.4c-0.3,0.3-0.4,0.6-0.4,1.1c0,0.4,0.1,0.8,0.4,1.1c0.3,0.3,0.7,0.5,1.1,0.5
		h6.7c0.4,0,0.8-0.2,1.1-0.4s0.4-0.7,0.4-1.1v-4.3c0-0.4-0.2-0.8-0.4-1.1c-0.6-0.6-1.6-0.6-2.1,0c-0.3,0.3-0.4,0.7-0.4,1.1v2.8h-0.3
		V16h-4.8c-0.4,0-0.8,0.2-1.1,0.4c-0.3,0.3-0.4,0.7-0.4,1.1c0,0.4,0.2,0.8,0.4,1.1s0.7,0.4,1.1,0.4h1.8v8.4L39.5,27.5L39.5,27.5z"/>
	<path class="st0" d="M39.4,36.5h5.3v2.7h-4.4c-0.6,0-1.2,0.2-1.6,0.7c-0.5,0.5-0.7,1-0.7,1.7V48h8.2c0.4,0,0.8-0.1,1.1-0.4
		c0.3-0.3,0.4-0.7,0.4-1.1c0-0.4-0.2-0.8-0.4-1.1C47,45.1,46.6,45,46.2,45H41v-2.7h4.4c0.6,0,1.2-0.2,1.7-0.7c0.5-0.5,0.7-1,0.7-1.7
		v-4c0-0.6-0.2-1.2-0.7-1.6c-0.5-0.5-1-0.7-1.7-0.7h-5.9c-0.4,0-0.8,0.2-1.1,0.4c-0.3,0.3-0.4,0.7-0.4,1.1c0,0.4,0.1,0.8,0.4,1.1
		C38.6,36.4,39,36.5,39.4,36.5z"/>
	<polygon class="st0" points="21.6,52 29.3,52 29.3,21.3 34.6,21.3 25.5,12 16.3,21.3 21.6,21.3 	"/>
</g>
<g>
	<path class="st1" d="M103.5,27.5c-0.4,0-0.8,0.1-1.1,0.4c-0.3,0.3-0.4,0.6-0.4,1.1c0,0.4,0.1,0.8,0.4,1.1c0.3,0.3,0.7,0.5,1.1,0.5
		h6.7c0.4,0,0.8-0.2,1.1-0.4c0.3-0.3,0.4-0.7,0.4-1.1v-4.3c0-0.4-0.2-0.8-0.4-1.1c-0.6-0.6-1.6-0.6-2.1,0c-0.3,0.3-0.4,0.7-0.4,1.1
		v2.8h-0.3V16h-4.8c-0.4,0-0.8,0.2-1.1,0.4c-0.3,0.3-0.4,0.7-0.4,1.1c0,0.4,0.2,0.8,0.4,1.1s0.7,0.4,1.1,0.4h1.8v8.4L103.5,27.5
		L103.5,27.5z"/>
	<path class="st1" d="M103.4,36.5h5.3v2.7h-4.4c-0.6,0-1.2,0.2-1.6,0.7c-0.5,0.5-0.7,1-0.7,1.7V48h8.2c0.4,0,0.8-0.1,1.1-0.4
		c0.3-0.3,0.4-0.7,0.4-1.1c0-0.4-0.2-0.8-0.4-1.1c-0.3-0.3-0.7-0.4-1.1-0.4H105v-2.7h4.4c0.6,0,1.2-0.2,1.7-0.7
		c0.5-0.5,0.7-1,0.7-1.7v-4c0-0.6-0.2-1.2-0.7-1.6c-0.5-0.5-1-0.7-1.7-0.7h-5.9c-0.4,0-0.8,0.2-1.1,0.4c-0.3,0.3-0.4,0.7-0.4,1.1
		c0,0.4,0.1,0.8,0.4,1.1C102.6,36.4,103,36.5,103.4,36.5z"/>
	<polygon class="st1" points="85.6,52 93.3,52 93.3,21.3 98.6,21.3 89.5,12 80.3,21.3 85.6,21.3 	"/>
</g>
</svg>
