<svg xmlns="http://www.w3.org/2000/svg" viewBox="0 0 128 64" enable-background="new 0 0 128 64"><style type="text/css">.st0{fill:#C7CBD7;} .st1{fill:#83868E;}</style><path class="st0" d="M14 33.7h17.2v1.8c.1 1 .7 1.7 1.7 1.7h10.4c1 0 1.7-.7 1.7-1.8v-1.7h5.199999999999999c.9 0 1.6-.6 1.8-1.5.1-.7-.3-1.5-1-1.8-.3-.1-.7-.2-1.1-.2h-4.8v-1.6c0-1.2-.7-1.9-1.8-1.9h-10.2c-1.1 0-1.8.6-1.8 1.8v1.7h-17.1c-.8 0-1.5.2-1.9.9-.7 1.3.2 2.6 1.7 2.6zm20.7-3.4h6.9v3.4h-6.9v-3.4zM14 19.8h5v1.6c0 1.2.7 1.9 1.8 1.9h10.2c1.1 0 1.8-.6 1.8-1.8v-1.7h17.1c.8 0 1.5-.3 1.9-1 .6-1.2-.3-2.5-1.9-2.5h-17.1v-1.7c-.1-1.1-.6-1.8-1.7-1.8h-10.4c-1.1 0-1.7.7-1.7 1.8v1.7h-4.9c-.8 0-1.5.2-1.9.9-.6 1.3.3 2.6 1.8 2.6zm8.5-3.5h6.9v3.4h-6.9v-3.4zM50 44.2h-17.1v-1.8c-.1-1-.7-1.7-1.7-1.7h-10.4c-1 0-1.7.7-1.7 1.8v1.7h-4.9c-.8 0-1.5.2-1.9.9-.7 1.2.2 2.5 1.8 2.5h5c.1 1.3-.4 2.9 1.4 3.5h11.2c1.6-.7 1.2-2.2 1.3-3.5h17c.8 0 1.5-.2 1.9-.9.5-1.2-.4-2.5-1.9-2.5zm-20.6 3.4h-6.9v-3.4h6.9v3.4z"/><path class="st1" d="M79 33.7h17.2v1.8c.1 1 .7 1.7 1.7 1.7h10.4c1 0 1.7-.7 1.7-1.8v-1.7h5.199999999999999c.9 0 1.6-.6 1.8-1.5.1-.7-.3-1.5-1-1.8-.3-.1-.7-.2-1.1-.2h-4.8v-1.6c0-1.2-.7-1.9-1.8-1.9h-10.2c-1.1 0-1.8.6-1.8 1.8v1.7h-17.1c-.8 0-1.5.2-1.9.9-.7 1.3.2 2.6 1.7 2.6zm20.7-3.4h6.9v3.4h-6.9v-3.4zM79 19.8h5v1.6c0 1.2.7 1.9 1.8 1.9h10.2c1.1 0 1.8-.6 1.8-1.8v-1.7h17.1c.8 0 1.5-.3 1.9-1 .6-1.2-.3-2.5-1.9-2.5h-17.1v-1.7c-.1-1.1-.6-1.8-1.7-1.8h-10.4c-1.1 0-1.7.7-1.7 1.8v1.7h-4.9c-.8 0-1.5.2-1.9.9-.6 1.3.3 2.6 1.8 2.6zm8.5-3.5h6.9v3.4h-6.9v-3.4zM115 44.2h-17.1v-1.8c-.1-1-.7-1.7-1.7-1.7h-10.4c-1 0-1.7.7-1.7 1.8v1.7h-4.9c-.8 0-1.5.2-1.9.9-.7 1.2.2 2.5 1.8 2.5h5c.1 1.3-.4 2.9 1.4 3.5h11.2c1.6-.7 1.2-2.2 1.3-3.5h17c.8 0 1.5-.2 1.9-.9.5-1.2-.4-2.5-1.9-2.5zm-20.6 3.4h-6.9v-3.4h6.9v3.4z"/></svg>