<?xml version="1.0" encoding="utf-8"?>
<!-- Generator: Adobe Illustrator 21.0.1, SVG Export Plug-In . SVG Version: 6.00 Build 0)  -->
<svg version="1.1" id="Layer_1" xmlns="http://www.w3.org/2000/svg" xmlns:xlink="http://www.w3.org/1999/xlink" x="0px" y="0px"
	 viewBox="0 0 128 64" style="enable-background:new 0 0 128 64;" xml:space="preserve">
<style type="text/css">
	.st0{fill:#C7CBD7;}
	.st1{fill:#83868E;}
</style>
<path class="st0" d="M44.6,33.4c0,7.4-6.4,13.3-14,12.5c-5.7-0.6-10.3-5.1-11-10.8c-0.7-5.2,1.8-9.9,5.9-12.4
	c1.2-0.8,1.8-2.3,1.3-3.6l0-0.1c-0.6-1.8-2.8-2.5-4.4-1.5c-6.5,3.9-10.2,11.6-8.6,19.5c1.6,8,8.4,14.2,16.5,14.9
	c11,1,20.3-7.7,20.3-18.5c0-6.6-3.5-12.6-9-15.9c-1.6-1-3.7-0.2-4.3,1.5l0,0.1c-0.5,1.4,0.1,2.9,1.3,3.6
	C42.2,24.9,44.6,28.9,44.6,33.4z"/>
<path class="st0" d="M32.1,30.8h-0.2c-1.7,0-3.1-1.4-3.1-3.1V15.1c0-1.7,1.4-3.1,3.1-3.1h0.2c1.7,0,3.1,1.4,3.1,3.1v12.6
	C35.2,29.4,33.8,30.8,32.1,30.8z"/>
<path class="st1" d="M108.6,33.4c0,7.4-6.4,13.3-14,12.5c-5.7-0.6-10.3-5.1-11-10.8c-0.7-5.2,1.8-9.9,5.9-12.4
	c1.2-0.8,1.8-2.3,1.3-3.6l0-0.1c-0.6-1.8-2.8-2.5-4.4-1.5c-6.5,3.9-10.2,11.6-8.6,19.5c1.6,8,8.4,14.2,16.5,14.9
	c11,1,20.3-7.7,20.3-18.5c0-6.6-3.5-12.6-9-15.9c-1.6-1-3.7-0.2-4.3,1.5l0,0.1c-0.5,1.4,0.1,2.9,1.3,3.6
	C106.2,24.9,108.6,28.9,108.6,33.4z"/>
<path class="st1" d="M96.1,30.8h-0.2c-1.7,0-3.1-1.4-3.1-3.1V15.1c0-1.7,1.4-3.1,3.1-3.1h0.2c1.7,0,3.1,1.4,3.1,3.1v12.6
	C99.2,29.4,97.8,30.8,96.1,30.8z"/>
</svg>
