<svg xmlns="http://www.w3.org/2000/svg" viewBox="0 0 64 64" enable-background="new 0 0 64 64"><style type="text/css">.st0{fill:#C7CBD7;}</style><path class="st0" d="M38.6 33.2h-13.2c-.5 0-.9.4-.9.9v10.4c0 .5.4.9.9.9h13.3c.5 0 .9-.4.9-.9v-10.4c0-.5-.4-.9-1-.9zM22.6 18.1l-2.5-4.3c-.1-.1 0-.2.1-.2l2.5-1.5c.1-.1.2 0 .2.1l2.5 4.3c.1.1 0 .2-.1.2l-2.5 1.5c-.1.1-.2 0-.2-.1zM41.6 18.1l2.5-4.3c.1-.1 0-.2-.1-.2l-2.5-1.6c-.1-.1-.2 0-.2.1l-2.5 4.3c-.1.1 0 .2.1.2l2.5 1.5c0 .2.2.1.2 0zM45.3 39.9v-1.3h-4.1v1.3h4.1zM22.8 39.9v-1.3h-4.1v1.3h4.1zM41.4 45.1l-.1.7c0 .5-.4.9-.9.9h-16.7c-.5 0-.9-.4-.9-.9v-.7h-3.9c.2 2.8.3 5 .3 5 0 1.1.8 1.9 1.9 1.9h21.6c1.1 0 1.9-.8 1.9-1.9 0 0 .2-2.1.3-5h-3.5zM19.2 30.8c-.2.3-.4 1.3-.5 2.5h4v-.7c0-.5.4-.9.9-.9h16.6c.5 0 .9.4.9.9v.7h4c-.1-1.3-.2-2.3-.5-2.6-4.3-5.6.6-12.2.6-14 0-.5-.3-1.3-.9-2l-2.4 4.2c-.1.2-.3.2-.5.1l-3.5-2c-.2-.1-.2-.3-.1-.5l2.3-4.1c-.8-.1-1.8-.1-2.8.2-.4.1-.7.5-.7.9-.2 2.8-2.4 4-4.6 4-2.3 0-4.3-1.2-4.6-3.9 0-.4-.2-.8-.7-.9-.9-.2-1.8-.3-2.6-.2l2.3 4.1c.1.2 0 .3-.1.5l-3.5 2c-.2.1-.3 0-.5-.1l-2.5-4.3c-.7.7-1.1 1.7-1.1 2.2-.1 1.8 4.9 8.5.5 13.9zm7.3-1.9h11c.4 0 .7.3.7.7 0 .4-.3.7-.7.7h-11c-.4 0-.7-.3-.7-.7-.1-.3.3-.7.7-.7zM22.8 38.2h-5.7c-.2 0-.4-.2-.4-.4v-3.5c0-.2.2-.4.4-.4h5.7c.2 0 .4.2.4.4v3.5c0 .2-.2.4-.4.4zM22.8 44.7h-5.7c-.2 0-.4-.2-.4-.4v-3.5c0-.2.2-.4.4-.4h5.7c.2 0 .4.2.4.4v3.5c0 .1-.2.4-.4.4zM46.9 38.3h-5.7c-.2 0-.4-.2-.4-.4v-3.5c0-.2.2-.4.4-.4h5.7c.2 0 .4.2.4.4v3.5c0 .1-.2.4-.4.4zM46.9 44.7h-5.7c-.2 0-.4-.2-.4-.4v-3.5c0-.2.2-.4.4-.4h5.7c.2 0 .4.2.4.4v3.5c0 .1-.2.4-.4.4z"/></svg>