<?xml version="1.0" encoding="utf-8"?>
<!-- Generator: Adobe Illustrator 21.0.1, SVG Export Plug-In . SVG Version: 6.00 Build 0)  -->
<svg version="1.1" id="Layer_1" xmlns="http://www.w3.org/2000/svg" xmlns:xlink="http://www.w3.org/1999/xlink" x="0px" y="0px"
	 viewBox="0 0 64 64" style="enable-background:new 0 0 64 64;" xml:space="preserve">
<style type="text/css">
	.st0{fill:#C7CBD7;}
</style>
<g>
	<polygon class="st0" points="25.186,12 17.543,12 17.543,42.719 12.192,42.719 21.364,52 30.536,42.719 25.186,42.719 	"/>
	<g>
		<path class="st0" d="M42.42,22.448h5.447v1.786H42.42V22.448z"/>
		<polygon class="st0" points="51.808,17.994 45.021,17.994 45.021,16 43.592,16 43.592,17.994 36.783,17.994 36.783,16 35.354,16 
			35.354,17.994 28.544,17.994 28.544,16 27.116,16 27.116,17.994 26.436,17.994 26.436,19.423 27.116,19.423 27.116,21.135 
			28.544,21.135 28.544,19.423 35.354,19.423 35.354,21.135 36.783,21.135 36.783,19.423 43.592,19.423 43.592,21.135 
			45.021,21.135 45.021,19.423 50.38,19.423 50.38,46.571 28.486,46.571 27.075,48 51.808,48 		"/>
		<path class="st0" d="M33.911,45.17h1.072h3.643h1.072h3.644h1.072h4.715v-4.568V39.53v-3.496v-1.072v-3.496v-1.072v-4.568h-4.715
			h-1.072h-3.644h-1.072h-3.643h-1.072h-3.644h-1.072h-2.759v1.071h2.762v3.497h-2.762v1.071h2.762v3.496h-2.762v1.072h2.762v3.496
			h-2.762V40.6h2.761v0.868h1.071V40.6h3.644v3.496h-2.98l-1.061,1.074h0.396C30.267,45.17,33.911,45.17,33.911,45.17z
			 M44.413,26.898h3.644v3.497h-3.644V26.898z M44.413,31.466h3.644v3.496h-3.644V31.466z M44.413,36.034h3.644v3.496h-3.644V36.034
			z M44.413,40.601h3.644v3.496h-3.644V40.601z M39.699,26.898h3.644v3.497h-3.644V26.898z M39.698,31.466h3.644v3.496h-3.644
			V31.466z M39.698,36.034h3.644v3.496h-3.644V36.034z M39.698,40.601h3.644v3.496h-3.644V40.601z M34.984,26.898h3.643v3.497
			h-3.643V26.898z M34.984,31.466h3.643v3.496h-3.643V31.466z M34.984,36.034h3.643v3.496h-3.643V36.034z M34.984,40.601h3.643
			v3.496h-3.643V40.601z M30.268,26.898h3.644v3.497h-3.644C30.268,30.395,30.268,26.898,30.268,26.898z M30.268,31.466h3.644v3.496
			h-3.644C30.268,34.962,30.268,31.466,30.268,31.466z M30.268,39.53v-3.496h3.644v3.496H30.268z"/>
		<polygon class="st0" points="42.289,36.407 41.52,37.176 40.752,36.407 40.146,37.013 40.915,37.782 40.146,38.55 40.752,39.156 
			41.52,38.388 42.289,39.156 42.896,38.55 42.126,37.782 42.896,37.013 		"/>
		<rect x="26.436" y="22.448" class="st0" width="11.262" height="1.786"/>
		<rect x="42.42" y="22.448" class="st0" width="5.447" height="1.786"/>
	</g>
</g>
</svg>
