<svg xmlns="http://www.w3.org/2000/svg" viewBox="0 0 128 64" enable-background="new 0 0 128 64"><style type="text/css">.st0{fill:#C7CBD7;} .st1{fill:#83868E;}</style><path class="st0" d="M12 32c0 11 9 20 20 20s20-9 20-20-9-20-20-20-20 9-20 20zm20 16c-8.8 0-16-7.2-16-16 0-3.7 1.3-7.1 3.4-9.8l22.4 22.4c-2.7 2.1-6.1 3.4-9.8 3.4zm16-16c0 3.7-1.3 7.1-3.4 9.8l-22.4-22.4c2.7-2.1 6.1-3.4 9.8-3.4 8.8 0 16 7.2 16 16zM30 17.1l-4.2 4.2h3.4v3.7l9.4 9.4h4v3.4l4.3-4.2c.1-.5.1-1 .1-1.6 0-.5 0-1-.1-1.6l-4.3-4.2v3.4h-8.6v-8.3h3.5l-4.3-4.3c-.4 0-.8-.1-1.1-.1-.8.1-1.5.2-2.1.2zM34 42.6v-4.4l-8.6-8.6h-4v-3.4l-4.3 4.2c-.1.5-.1 1.1-.1 1.6s0 1 .1 1.6l4.3 4.2v-3.4h7.8v8.3h-3.4l4.2 4.1c.7.1 1.3.2 2 .2h1.1l4.3-4.3h-3.4v-.1z"/><path class="st1" d="M76 32c0 11 9 20 20 20s20-9 20-20-9-20-20-20-20 9-20 20zm20 16c-8.8 0-16-7.2-16-16 0-3.7 1.3-7.1 3.4-9.8l22.4 22.4c-2.7 2.1-6.1 3.4-9.8 3.4zm16-16c0 3.7-1.3 7.1-3.4 9.8l-22.4-22.4c2.7-2.1 6.1-3.4 9.8-3.4 8.8 0 16 7.2 16 16zM94 17.1l-4.2 4.2h3.4v3.7l9.4 9.4h4v3.4l4.3-4.2c.1-.5.1-1 .1-1.6 0-.5 0-1-.1-1.6l-4.3-4.2v3.4h-8.6v-8.3h3.5l-4.3-4.3c-.4 0-.8-.1-1.1-.1-.8.1-1.5.2-2.1.2zM98 42.6v-4.4l-8.6-8.6h-4v-3.4l-4.3 4.2c-.1.5-.1 1.1-.1 1.6s0 1 .1 1.6l4.3 4.2v-3.4h7.8v8.3h-3.4l4.2 4.1c.7.1 1.3.2 2 .2h1.1l4.3-4.3-3.4-.1z"/></svg>