<?xml version="1.0" encoding="utf-8"?>
<!-- Generator: Adobe Illustrator 21.0.1, SVG Export Plug-In . SVG Version: 6.00 Build 0)  -->
<svg version="1.1" id="Layer_1" xmlns="http://www.w3.org/2000/svg" xmlns:xlink="http://www.w3.org/1999/xlink" x="0px" y="0px"
	 viewBox="0 0 128 64" style="enable-background:new 0 0 128 64;" xml:space="preserve">
<style type="text/css">
	.st0{fill:#C7CBD7;}
	.st1{fill:#83868E;}
</style>
<g>
	<path class="st0" d="M32,11c-11.579,0-21,9.421-21,21s9.421,21,21,21s21-9.421,21-21S43.579,11,32,11z M32,48
		c-8.822,0-16-7.178-16-16s7.178-16,16-16s16,7.178,16,16S40.822,48,32,48z"/>
	<path class="st0" d="M39,27.233c0-0.597-0.232-1.157-0.654-1.579C37.924,25.232,37.364,25,36.767,25s-1.158,0.232-1.579,0.654
		L32,28.842l-3.188-3.188C28.391,25.232,27.83,25,27.233,25s-1.158,0.232-1.579,0.654C25.232,26.076,25,26.637,25,27.233
		c0,0.597,0.232,1.157,0.654,1.579L28.842,32l-3.188,3.188C25.232,35.609,25,36.17,25,36.767s0.232,1.157,0.654,1.579
		C26.076,38.768,26.636,39,27.233,39s1.158-0.232,1.579-0.654L32,35.158l3.188,3.188C35.609,38.768,36.17,39,36.767,39
		s1.158-0.232,1.579-0.654C38.768,37.924,39,37.363,39,36.767s-0.232-1.157-0.654-1.579L35.158,32l3.188-3.188
		C38.768,28.391,39,27.83,39,27.233z"/>
</g>
<g>
	<path class="st1" d="M96,11c-11.579,0-21,9.421-21,21s9.421,21,21,21s21-9.421,21-21S107.579,11,96,11z M96,48
		c-8.822,0-16-7.178-16-16s7.178-16,16-16s16,7.178,16,16S104.822,48,96,48z"/>
	<path class="st1" d="M103,27.233c0-0.597-0.232-1.157-0.654-1.579c-0.421-0.422-0.982-0.654-1.579-0.654s-1.158,0.232-1.579,0.654
		L96,28.842l-3.188-3.188C92.391,25.232,91.83,25,91.233,25s-1.158,0.232-1.579,0.654C89.232,26.076,89,26.637,89,27.233
		c0,0.597,0.232,1.157,0.654,1.579L92.842,32l-3.188,3.188C89.232,35.609,89,36.17,89,36.767s0.232,1.157,0.654,1.579
		C90.076,38.768,90.636,39,91.233,39s1.158-0.232,1.579-0.654L96,35.158l3.188,3.188C99.609,38.768,100.17,39,100.767,39
		s1.158-0.232,1.579-0.654c0.422-0.422,0.654-0.982,0.654-1.579s-0.232-1.157-0.654-1.579L99.158,32l3.188-3.188
		C102.768,28.391,103,27.83,103,27.233z"/>
</g>
</svg>
