<?xml version="1.0" encoding="utf-8"?>
<!-- Generator: Adobe Illustrator 21.0.1, SVG Export Plug-In . SVG Version: 6.00 Build 0)  -->
<svg version="1.1" id="Layer_1" xmlns="http://www.w3.org/2000/svg" xmlns:xlink="http://www.w3.org/1999/xlink" x="0px" y="0px"
	 viewBox="0 0 64 64" style="enable-background:new 0 0 64 64;" xml:space="preserve">
<style type="text/css">
	.st0{fill:#C7CBD7;}
</style>
<g>
	<path class="st0" d="M45.533,28.09c0.015-0.489,6.882-4.734,5.393-6.578c0,0-0.756,1.378-1.778,0.77
		c-0.6-0.437,5.289-7.993,1.778-9.956c0,0,0.044,1.63-0.415,2.193L33.886,33.096c-0.087-0.098-0.406-0.672-0.495-1.005
		c-0.089-0.333-0.067-0.889,0-1.245c0.061-0.328,0.667-0.556,0.667-0.556s-0.756-0.933-1.089-1.2
		c-0.333-0.267-1.067-0.111-1.289-0.178c-0.222-0.067-0.289-0.556-0.933-0.644s-1.089,0.622-1.089,0.622s0.726-0.044,1.015,0.133
		c0.289,0.178,0.563,0.719,0.607,1.007c0.044,0.289-0.133,0.926-0.378,1.437s-0.089,1.4-0.089,1.4l-0.282,0.014L13.737,13.867
		C13.278,13.304,13.174,12,13.174,12c-3.511,1.963,2.378,9.786,1.778,10.223c-1.022,0.607-1.896-0.711-1.896-0.711
		c-1.489,1.845,4.845,5.586,4.86,6.075c-0.682,0.2-4.341-0.585-5.363-2.074c-1.089,2.489,5.26,4.815,5.215,5.245
		c0.156,0.496-0.978,0.467-1.511,0.444c0.244,0.845,5.845,2.252,6.252,2.756c-0.563,0.319-3.4,0.393-4.267-0.119
		c0.867,4.623,8.041,3.526,8.445,3.556c0.018,0.593-1.348,0.993-1.659,1.304c0.867,0.578,3.022,0.148,3.348-1.007l0.005-0.012
		c0.324-0.016,1.032,0.012,1.076,0.101c0.181,0.362,0.133,6.015-1.674,2.089c0,0-0.158,0.975-0.148,1.289
		c0.015,0.489,0.533,2.534-0.385,1.985c-0.163,0.311,0.015,1.822,1.971,1.733c0,0-0.311-0.91-0.296-1.163
		c0.015-0.259,0.458-0.869,0.815-0.896c0.385-0.03,0.563,0.667,0.474,1.252c0.37-0.17,0.533-0.467,0.622-0.644
		c0.089-0.178-0.22-1.037-0.415-1.17c-0.281-0.193-0.371-0.601-0.341-0.845c0.03-0.237,0.535-0.372,0.8-0.341
		c0.637,0.074,0.541,1.282,0.504,2.326c0.585-0.526,0.548-2.067,0.415-2.356s-0.563-0.556-0.607-0.889
		c-0.044-0.333,0.311-0.711,0.333-1.148c0.021-0.405,0.107-0.577,0.333-0.704c0.237-0.133,0.341-0.119,0.444,0.059
		c0.11,0.189-0.178,1.763,0,1.941c0.333,0.333,0.721,0.382,0.867,0.682c0.511,1.052,0.259,1.571,0.126,2.045
		c0.978-0.059,0.667-1.215,0.83-1.422c0.267,0.193,0.504,1.793,0.207,2.815c0,0,0.826-0.582,1.026-0.57
		c0.252,0.015,0.144,0.356-0.011,0.789c0.3,0.011,0.911,0.033,0.867-0.444c1.033,0.156,1.067-0.989,1.067-0.989
		s-1.106,0.282-1.141-0.237c-0.015-0.222,0.785-0.919,0.756-1.526c-0.035-0.725-0.919-1.615-0.919-1.615s-0.141,0.911-0.341,1.133
		c-0.2,0.222-0.6,0.089-0.778-0.111s-0.044-0.8-0.067-1.245c-0.018-0.351,0.117-1.047,0.175-1.325
		c0.717,0.367,2.555,0.986,3.381,0.436c-0.311-0.311-1.378-0.845-1.36-1.437c0.404-0.03,7.938,1.259,8.805-3.363
		c-0.867,0.511-3.667,0.6-4.23,0.282c0.407-0.504,6.03-1.882,6.275-2.726c-0.533,0.022-1.6,0.141-1.445-0.356
		c-0.044-0.43,6.423-3.178,5.334-5.667C50.703,26.935,46.214,28.29,45.533,28.09z"/>
	<path class="st0" d="M32.154,17.378c4.144,0,7.89,1.696,10.588,4.43l1.762-2.051c-3.174-3.137-7.535-5.075-12.35-5.075
		c-4.61,0-8.802,1.777-11.937,4.681l1.742,2.064C24.622,18.918,28.207,17.378,32.154,17.378z"/>
	<path class="st0" d="M32.154,47.129c-7.696,0-14.027-5.845-14.796-13.339l-2.767-1.193c0.184,9.545,7.974,17.228,17.563,17.228
		c9.615,0,17.422-7.724,17.565-17.305l-2.754,1.088C46.28,41.188,39.912,47.129,32.154,47.129z"/>
</g>
</svg>
