<?xml version="1.0" encoding="utf-8"?>
<!-- Generator: Adobe Illustrator 21.0.1, SVG Export Plug-In . SVG Version: 6.00 Build 0)  -->
<svg version="1.1" id="Layer_1" xmlns="http://www.w3.org/2000/svg" xmlns:xlink="http://www.w3.org/1999/xlink" x="0px" y="0px"
	 viewBox="0 0 64 64" style="enable-background:new 0 0 64 64;" xml:space="preserve">
<style type="text/css">
	.st0{fill:#C7CBD7;}
</style>
<g>
	<path class="st0" d="M14.4,30.7c1.4,0.1,2.6,0.4,3.6,0.8c2.3,0.8,4.4,1.9,6.6,3c0.3,0.1,0.4,0.1,0.6-0.1c4.2-4.9,8.6-9.7,13.3-14.3
		c2.2-2.1,4.4-4.1,6.9-5.8c1-0.7,2.1-1.4,3.2-1.7c0.7-0.2,1.4-0.3,2.1-0.1c1.2,0.4,1.7,1.5,1,2.6c-0.3,0.5-0.8,1-1.2,1.4
		c-1.9,1.9-3.7,3.6-5.6,5.5c-5.1,5.5-9.3,11.6-12.8,18.2c-1.9,3.5-3.5,7.1-4.9,10.7c-0.3,0.6-0.6,0.9-1.3,0.8
		c-0.5-0.1-0.7-0.3-0.9-0.7C24,49.1,23,47.3,22,45.5c-2.4-3.8-5.1-7.5-8.3-10.5c-0.4-0.3-0.7-0.7-1.1-1C12,33.5,12,33,12,32.4
		c0.2-1,0.9-1.5,1.9-1.7C13.9,30.7,14.2,30.7,14.4,30.7z"/>
</g>
</svg>
