<?xml version="1.0" encoding="utf-8"?>
<!-- Generator: Adobe Illustrator 21.0.1, SVG Export Plug-In . SVG Version: 6.00 Build 0)  -->
<svg version="1.1" id="Layer_1" xmlns="http://www.w3.org/2000/svg" xmlns:xlink="http://www.w3.org/1999/xlink" x="0px" y="0px"
	 viewBox="0 0 128 64" style="enable-background:new 0 0 128 64;" xml:space="preserve">
<style type="text/css">
	.st0{fill:#C7CBD7;}
	.st1{fill:#83868E;}
</style>
<path class="st0" d="M26.808,17.492l-3.856-3.856l-3.856,3.856h-2.543c-2.515,0-4.555,2.039-4.555,4.555v28.317h35.445
	c2.515,0,4.555-2.039,4.555-4.555V17.492H26.808z M16.17,21.708h22.56v5.021H16.17V21.708z M34.103,30.387v3.73h-6.492v-3.73H34.103
	z M16.17,30.387h9.038v3.73H16.17V30.387z M16.17,36.196h12.123v3.73H16.17V36.196z M21.37,45.734H16.17v-3.73h5.201V45.734z
	 M36.65,45.734H23.773v-3.73H36.65V45.734z M38.73,39.926h-8.034v-3.73h8.034V39.926z M44.038,39.926h-2.905v-3.73h2.905V39.926z
	 M48.952,34.118H36.506v-3.73h12.446V34.118z"/>
<path class="st1" d="M90.808,17.492l-3.856-3.856l-3.856,3.856h-2.543c-2.515,0-4.555,2.039-4.555,4.555v28.317h35.445
	c2.515,0,4.555-2.039,4.555-4.555V17.492H90.808z M80.17,21.708h22.56v5.021H80.17V21.708z M98.103,30.387v3.73h-6.492v-3.73H98.103
	z M80.17,30.387h9.038v3.73H80.17V30.387z M80.17,36.196h12.123v3.73H80.17V36.196z M85.37,45.734H80.17v-3.73h5.201V45.734z
	 M100.65,45.734H87.773v-3.73h12.876V45.734z M102.73,39.926h-8.034v-3.73h8.034V39.926z M108.038,39.926h-2.905v-3.73h2.905V39.926
	z M112.952,34.118h-12.446v-3.73h12.446V34.118z"/>
</svg>
