<?xml version="1.0" encoding="utf-8"?>
<!-- Generator: Adobe Illustrator 21.0.1, SVG Export Plug-In . SVG Version: 6.00 Build 0)  -->
<svg version="1.1" id="Layer_1" xmlns="http://www.w3.org/2000/svg" xmlns:xlink="http://www.w3.org/1999/xlink" x="0px" y="0px"
	 viewBox="0 0 64 64" style="enable-background:new 0 0 64 64;" xml:space="preserve">
<style type="text/css">
	.st0{fill:#C7CBD7;}
</style>
<path class="st0" d="M22.5,40.3L22.5,40.3c0.9-0.9,0.9-2.4,0-3.3l-2.1-2.1h12.5c1.3,0,2.3-1.1,2.3-2.3v0c0-1.3-1.1-2.3-2.3-2.3
	l-12.5,0l2.1-2.1c0.9-0.9,0.9-2.4,0-3.3l0,0c-0.9-0.9-2.4-0.9-3.3,0L12.8,31c-0.8,0.8-0.8,2.1,0,2.9l6.4,6.4
	C20.1,41.2,21.6,41.2,22.5,40.3z"/>
<path class="st0" d="M22.4,20.2c2.9-2.2,6.5-3.5,10.5-3.2c7.8,0.5,14.1,6.9,14.4,14.7C47.8,40.6,40.7,48,31.9,48
	c-3.5,0-6.8-1.2-9.4-3.2c-0.9-0.7-2.1-0.6-2.9,0.1L19.5,45c-0.9,0.9-0.8,2.5,0.2,3.3c3.3,2.6,7.5,4.1,12,4.1
	c10.6,0.1,19.5-8.4,20.1-18.9c0.6-11.5-8.6-21.1-20-21.1c-4.6,0-8.8,1.5-12.2,4.1c-1,0.8-1.2,2.3-0.2,3.3l0.1,0.1
	C20.3,20.7,21.6,20.9,22.4,20.2z"/>
</svg>
