<?xml version="1.0" encoding="utf-8"?>
<!-- Generator: Adobe Illustrator 21.0.1, SVG Export Plug-In . SVG Version: 6.00 Build 0)  -->
<svg version="1.1" id="Layer_1" xmlns="http://www.w3.org/2000/svg" xmlns:xlink="http://www.w3.org/1999/xlink" x="0px" y="0px"
	 viewBox="0 0 64 64" style="enable-background:new 0 0 64 64;" xml:space="preserve">
<style type="text/css">
	.st0{fill:#C7CBD7;}
</style>
<g>
	<g>
		<path class="st0" d="M38.6,33.2H25.4c-0.5,0-0.9,0.4-0.9,0.9v10.4c0,0.5,0.4,0.9,0.9,0.9h13.3c0.5,0,0.9-0.4,0.9-0.9V34.1
			C39.6,33.6,39.2,33.2,38.6,33.2z"/>
		<path class="st0" d="M22.6,18.1l-2.5-4.3c-0.1-0.1,0-0.2,0.1-0.2l2.5-1.5c0.1-0.1,0.2,0,0.2,0.1l2.5,4.3c0.1,0.1,0,0.2-0.1,0.2
			l-2.5,1.5C22.7,18.3,22.6,18.2,22.6,18.1z"/>
		<path class="st0" d="M41.6,18.1l2.5-4.3c0.1-0.1,0-0.2-0.1-0.2L41.5,12c-0.1-0.1-0.2,0-0.2,0.1l-2.5,4.3c-0.1,0.1,0,0.2,0.1,0.2
			l2.5,1.5C41.4,18.3,41.6,18.2,41.6,18.1z"/>
	</g>
	<g>
		<path class="st0" d="M45.3,39.9c0-0.4,0-0.8,0-1.3h-4c-0.1,0-0.1,0-0.1,0v1.3c0.1,0,0.1,0,0.1,0H45.3z"/>
		<path class="st0" d="M22.8,39.9v-1.3c-0.1,0-0.1,0-0.1,0h-4c0,0.4,0,0.8,0,1.3h3.9C22.7,39.9,22.7,39.9,22.8,39.9z"/>
		<path class="st0" d="M41.4,45.1C41.3,45.1,41.3,45.1,41.4,45.1l-0.1,0.7c0,0.5-0.4,0.9-0.9,0.9H23.7c-0.5,0-0.9-0.4-0.9-0.9v-0.7
			c-0.1,0-0.1,0-0.1,0h-3.8c0.2,2.8,0.3,5,0.3,5c0,1.1,0.8,1.9,1.9,1.9h10h1.6h10c1.1,0,1.9-0.8,1.9-1.9c0,0,0.2-2.1,0.3-5H41.4z"/>
		<path class="st0" d="M19.2,30.8c-0.2,0.3-0.4,1.3-0.5,2.5h3.9c0.1,0,0.1,0,0.1,0v-0.7c0-0.5,0.4-0.9,0.9-0.9h16.6
			c0.5,0,0.9,0.4,0.9,0.9v0.7c0.1,0,0.1,0,0.1,0h3.9c-0.1-1.3-0.2-2.3-0.5-2.6c-4.3-5.6,0.6-12.2,0.6-14c0-0.5-0.3-1.3-0.9-2
			l-2.4,4.2c-0.1,0.2-0.3,0.2-0.5,0.1l-3.5-2c-0.2-0.1-0.2-0.3-0.1-0.5l2.3-4.1c-0.8-0.1-1.8-0.1-2.8,0.2c-0.4,0.1-0.7,0.5-0.7,0.9
			c-0.2,2.8-2.4,4-4.6,4c-2.3,0-4.3-1.2-4.6-3.9c0-0.4-0.2-0.8-0.7-0.9c-0.9-0.2-1.8-0.3-2.6-0.2l2.3,4.1c0.1,0.2,0,0.3-0.1,0.5
			l-3.5,2c-0.2,0.1-0.3,0-0.5-0.1l-2.5-4.3c-0.7,0.7-1.1,1.7-1.1,2.2C18.6,18.7,23.6,25.4,19.2,30.8z M26.5,28.9h11
			c0.4,0,0.7,0.3,0.7,0.7c0,0.4-0.3,0.7-0.7,0.7h-11c-0.4,0-0.7-0.3-0.7-0.7C25.7,29.3,26.1,28.9,26.5,28.9z"/>
	</g>
	<g>
		<path class="st0" d="M22.8,38.2h-5.7c-0.2,0-0.4-0.2-0.4-0.4v-3.5c0-0.2,0.2-0.4,0.4-0.4h5.7c0.2,0,0.4,0.2,0.4,0.4v3.5
			C23.2,38,23,38.2,22.8,38.2z"/>
		<path class="st0" d="M22.8,44.7h-5.7c-0.2,0-0.4-0.2-0.4-0.4v-3.5c0-0.2,0.2-0.4,0.4-0.4h5.7c0.2,0,0.4,0.2,0.4,0.4v3.5
			C23.2,44.4,23,44.7,22.8,44.7z"/>
		<path class="st0" d="M46.9,38.3h-5.7c-0.2,0-0.4-0.2-0.4-0.4v-3.5c0-0.2,0.2-0.4,0.4-0.4h5.7c0.2,0,0.4,0.2,0.4,0.4v3.5
			C47.3,38,47.1,38.3,46.9,38.3z"/>
		<path class="st0" d="M46.9,44.7h-5.7c-0.2,0-0.4-0.2-0.4-0.4v-3.5c0-0.2,0.2-0.4,0.4-0.4h5.7c0.2,0,0.4,0.2,0.4,0.4v3.5
			C47.3,44.4,47.1,44.7,46.9,44.7z"/>
	</g>
</g>
</svg>
