<?xml version="1.0" encoding="utf-8"?>
<!-- Generator: Adobe Illustrator 21.0.1, SVG Export Plug-In . SVG Version: 6.00 Build 0)  -->
<svg version="1.1" id="Layer_1" xmlns="http://www.w3.org/2000/svg" xmlns:xlink="http://www.w3.org/1999/xlink" x="0px" y="0px"
	 viewBox="0 0 64 64" style="enable-background:new 0 0 64 64;" xml:space="preserve">
<style type="text/css">
	.st0{fill:#C7CBD7;}
	.st1{display:none;fill:#CD8A37;}
	.st2{display:none;fill:#AF652C;}
</style>
<path class="st0" d="M41.45,23.342c1.748,1.385,4.172,1.815,6.377,0.909c3.245-1.334,4.801-5.06,3.467-8.306
	s-5.06-4.801-8.305-3.467c-2.141,0.88-3.54,2.802-3.865,4.94l-13.193,5.371c-3.018-2.768-7.71-2.9-10.88-0.156
	c-3.411,2.953-3.784,8.131-0.831,11.542c2.682,3.098,7.195,3.681,10.558,1.551l10.717,8.916c-0.34,2.165,0.439,4.449,2.257,5.931
	c2.72,2.217,6.737,1.808,8.954-0.912c2.217-2.72,1.808-6.737-0.912-8.954c-1.824-1.487-4.231-1.787-6.288-1.006l-11.096-9.232
	c0.127-0.621,0.189-1.253,0.171-1.886L41.45,23.342z M37.814,40.658l0.97,0.807c0.266,0.221,0.643,0.289,0.95,0.132
	c0.471-0.241,0.975-0.4,1.495-0.462c1.183-0.142,2.419,0.17,3.414,0.98c1.943,1.584,2.235,4.453,0.651,6.396
	c-1.584,1.943-4.453,2.235-6.396,0.651c-0.97-0.791-1.528-1.902-1.647-3.058c-0.055-0.532-0.005-1.071,0.135-1.594
	c0.091-0.341-0.053-0.702-0.324-0.928l-0.971-0.808l-9.869-8.211c0.661-0.669,1.187-1.427,1.571-2.241L37.814,40.658z M28.307,26.73
	l-1.026,0.418c-0.368,0.15-0.605,0.523-0.56,0.918c0.039,0.341,0.05,0.685,0.035,1.027c-0.003,0.079-0.004,0.158-0.011,0.236
	c-0.049,0.608-0.184,1.209-0.405,1.783c-0.324,0.842-0.836,1.622-1.521,2.282c-0.082,0.079-0.16,0.161-0.247,0.237
	c-0.399,0.346-0.833,0.626-1.284,0.855c-2.545,1.293-5.742,0.752-7.693-1.501c-2.297-2.653-2.006-6.681,0.647-8.977
	c2.231-1.931,5.43-2.027,7.758-0.432c0.278,0.19,0.73,0.602,1.058,0.934c0.257,0.26,0.645,0.336,0.984,0.198l1.141-0.465
	l11.948-4.865l1.164-0.474c0.328-0.134,0.576-0.435,0.594-0.788c0.026-0.542,0.145-1.07,0.36-1.563
	c0.455-1.046,1.296-1.927,2.432-2.393c2.318-0.953,4.98,0.158,5.932,2.477c0.953,2.318-0.158,4.98-2.477,5.933
	c-1.205,0.495-2.497,0.423-3.599-0.076c-0.479-0.217-0.915-0.52-1.293-0.893c-0.245-0.242-0.624-0.289-0.943-0.16l-1.173,0.477
	L28.307,26.73z"/>
<path class="st1" d="M38.02,44.321l1.213,1.009c0.332,0.277,0.803,0.362,1.188,0.165c0.589-0.302,1.219-0.5,1.869-0.578
	c1.479-0.178,3.024,0.212,4.267,1.226c2.428,1.979,2.794,5.566,0.814,7.995c-1.979,2.428-5.566,2.794-7.995,0.814
	c-1.213-0.988-1.91-2.377-2.059-3.823c-0.069-0.666-0.006-1.339,0.169-1.993c0.114-0.426-0.066-0.878-0.405-1.16l-1.214-1.01
	L23.532,36.702c0.827-0.836,1.484-1.784,1.964-2.801L38.02,44.321z"/>
<path class="st2" d="M26.136,26.911l-1.283,0.522c-0.461,0.187-0.756,0.654-0.7,1.148c0.049,0.427,0.062,0.856,0.044,1.284
	c-0.004,0.099-0.006,0.197-0.013,0.295c-0.061,0.76-0.23,1.511-0.506,2.229c-0.405,1.053-1.044,2.027-1.902,2.853
	c-0.103,0.099-0.2,0.202-0.309,0.296c-0.499,0.432-1.041,0.782-1.605,1.069c-3.182,1.617-7.178,0.94-9.617-1.877
	c-2.871-3.317-2.508-8.351,0.808-11.221c2.789-2.414,6.788-2.533,9.698-0.54c0.348,0.238,0.912,0.752,1.323,1.167
	c0.322,0.325,0.806,0.42,1.23,0.248l1.426-0.581l14.935-6.081l1.455-0.592c0.41-0.167,0.72-0.544,0.742-0.986
	c0.033-0.677,0.182-1.338,0.449-1.954c0.569-1.308,1.62-2.408,3.041-2.992c2.898-1.191,6.225,0.198,7.416,3.096
	c1.191,2.898-0.198,6.225-3.096,7.416c-1.506,0.619-3.121,0.529-4.499-0.095c-0.598-0.271-1.143-0.649-1.617-1.116
	c-0.307-0.303-0.78-0.362-1.179-0.199l-1.466,0.597L26.136,26.911z"/>
</svg>
