<svg xmlns="http://www.w3.org/2000/svg" viewBox="0 0 128 64" enable-background="new 0 0 128 64"><style type="text/css">.st0{fill:#C7CBD7;} .st1{fill:#83868E;}</style><path class="st0" d="M44.6 33.4c0 7.4-6.4 13.3-14 12.5-5.7-.6-10.3-5.1-11-10.8-.7-5.2 1.8-9.9 5.9-12.4 1.2-.8 1.8-2.3 1.3-3.6v-.1c-.6-1.8-2.8-2.5-4.4-1.5-6.5 3.9-10.2 11.6-8.6 19.5 1.6 8 8.4 14.2 16.5 14.9 11 1 20.3-7.7 20.3-18.5 0-6.6-3.5-12.6-9-15.9-1.6-1-3.7-.2-4.3 1.5v.1c-.5 1.4.1 2.9 1.3 3.6 3.6 2.2 6 6.2 6 10.7zM32.1 30.8h-.2c-1.7 0-3.1-1.4-3.1-3.1v-12.6c0-1.7 1.4-3.1 3.1-3.1h.2c1.7 0 3.1 1.4 3.1 3.1v12.6c0 1.7-1.4 3.1-3.1 3.1z"/><path class="st1" d="M108.6 33.4c0 7.4-6.4 13.3-14 12.5-5.7-.6-10.3-5.1-11-10.8-.7-5.2 1.8-9.9 5.9-12.4 1.2-.8 1.8-2.3 1.3-3.6v-.1c-.6-1.8-2.8-2.5-4.4-1.5-6.5 3.9-10.2 11.6-8.6 19.5 1.6 8 8.4 14.2 16.5 14.9 11 1 20.3-7.7 20.3-18.5 0-6.6-3.5-12.6-9-15.9-1.6-1-3.7-.2-4.3 1.5v.1c-.5 1.4.1 2.9 1.3 3.6 3.6 2.2 6 6.2 6 10.7zM96.1 30.8h-.2c-1.7 0-3.1-1.4-3.1-3.1v-12.6c0-1.7 1.4-3.1 3.1-3.1h.2c1.7 0 3.1 1.4 3.1 3.1v12.6c0 1.7-1.4 3.1-3.1 3.1z"/></svg>