<?xml version="1.0" encoding="utf-8"?>
<!-- Generator: Adobe Illustrator 21.0.1, SVG Export Plug-In . SVG Version: 6.00 Build 0)  -->
<svg version="1.1" id="Layer_1" xmlns="http://www.w3.org/2000/svg" xmlns:xlink="http://www.w3.org/1999/xlink" x="0px" y="0px"
	 viewBox="0 0 128 64" style="enable-background:new 0 0 128 64;" xml:space="preserve">
<style type="text/css">
	.st0{fill:#C7CBD7;}
	.st1{fill:#83868E;}
</style>
<g>
	<path class="st0" d="M14,33.7c0.6,0,11.4,0,16.2,0c0.3,0,0.6,0,1,0c0,0.7,0,1.2,0,1.8c0.1,1,0.7,1.7,1.7,1.7c3.5,0,6.9,0,10.4,0
		c1,0,1.7-0.7,1.7-1.8c0-0.5,0-1.1,0-1.7c0.4,0,0.7,0,1.1,0c1.4,0,2.7,0,4.1,0c0.9,0,1.6-0.6,1.8-1.5c0.1-0.7-0.3-1.5-1-1.8
		c-0.3-0.1-0.7-0.2-1.1-0.2c-1.6,0-3.2,0-4.8,0c0-0.6,0-1.1,0-1.6c0-1.2-0.7-1.9-1.8-1.9c-3.4,0-6.8,0-10.2,0
		c-1.1,0-1.8,0.6-1.8,1.8c0,0.5,0,1.1,0,1.7c-0.4,0-0.8,0-1.1,0c-4.8,0-15.4,0-16,0c-0.8,0-1.5,0.2-1.9,0.9
		C11.6,32.4,12.5,33.7,14,33.7z M34.7,30.3c2.3,0,4.5,0,6.9,0c0,1.1,0,2.2,0,3.4c-2.3,0-4.5,0-6.9,0C34.7,32.6,34.7,31.5,34.7,30.3z
		"/>
	<path class="st0" d="M14,19.8c0.6,0,3.9,0,5,0c0,0.6,0,1.1,0,1.6c0,1.2,0.7,1.9,1.8,1.9c3.4,0,6.8,0,10.2,0c1.1,0,1.8-0.6,1.8-1.8
		c0-0.5,0-1.1,0-1.7c0.4,0,0.8,0,1.1,0c5.3,0,10.7,0,16,0c0.8,0,1.5-0.3,1.9-1c0.6-1.2-0.3-2.5-1.9-2.5c-5.3,0-10.7,0-16,0
		c-0.3,0-0.7,0-1.1,0c0-0.7,0-1.2,0-1.7c-0.1-1.1-0.6-1.8-1.7-1.8c-3.5,0-6.9,0-10.4,0c-1.1,0-1.7,0.7-1.7,1.8c0,0.5,0,1.1,0,1.7
		c-1,0-4.2,0-4.9,0c-0.8,0-1.5,0.2-1.9,0.9C11.6,18.5,12.5,19.8,14,19.8z M22.5,16.3c2.3,0,4.5,0,6.9,0c0,1.2,0,2.2,0,3.4
		c-2.3,0-4.5,0-6.9,0C22.5,18.6,22.5,17.5,22.5,16.3z"/>
	<path class="st0" d="M50,44.2c-5.4,0-10.8,0-16.1,0c-0.3,0-0.6,0-1,0c0-0.7,0-1.2,0-1.8c-0.1-1-0.7-1.7-1.7-1.7
		c-3.5,0-6.9,0-10.4,0c-1,0-1.7,0.7-1.7,1.8c0,0.5,0,1.1,0,1.7c-1,0-4.2,0-4.9,0c-0.8,0-1.5,0.2-1.9,0.9c-0.7,1.2,0.2,2.5,1.8,2.5
		c0.7,0,4,0,5,0c0.1,1.3-0.4,2.9,1.4,3.5c3.7,0,7.4,0,11.2,0c1.6-0.7,1.2-2.2,1.3-3.5c0.4,0,0.7,0,1,0c5.3,0,10.6,0,16,0
		c0.8,0,1.5-0.2,1.9-0.9C52.4,45.5,51.5,44.2,50,44.2z M29.4,47.6c-2.3,0-4.5,0-6.9,0c0-1.1,0-2.2,0-3.4c2.3,0,4.5,0,6.9,0
		C29.4,45.4,29.4,46.5,29.4,47.6z"/>
</g>
<g>
	<path class="st1" d="M79,33.7c0.6,0,11.4,0,16.2,0c0.3,0,0.6,0,1,0c0,0.7,0,1.2,0,1.8c0.1,1,0.7,1.7,1.7,1.7c3.5,0,6.9,0,10.4,0
		c1,0,1.7-0.7,1.7-1.8c0-0.5,0-1.1,0-1.7c0.4,0,0.7,0,1.1,0c1.4,0,2.7,0,4.1,0c0.9,0,1.6-0.6,1.8-1.5c0.1-0.7-0.3-1.5-1-1.8
		c-0.3-0.1-0.7-0.2-1.1-0.2c-1.6,0-3.2,0-4.8,0c0-0.6,0-1.1,0-1.6c0-1.2-0.7-1.9-1.8-1.9c-3.4,0-6.8,0-10.2,0
		c-1.1,0-1.8,0.6-1.8,1.8c0,0.5,0,1.1,0,1.7c-0.4,0-0.8,0-1.1,0c-4.8,0-15.4,0-16,0c-0.8,0-1.5,0.2-1.9,0.9
		C76.6,32.4,77.5,33.7,79,33.7z M99.7,30.3c2.3,0,4.5,0,6.9,0c0,1.1,0,2.2,0,3.4c-2.3,0-4.5,0-6.9,0C99.7,32.6,99.7,31.5,99.7,30.3z
		"/>
	<path class="st1" d="M79,19.8c0.6,0,3.9,0,5,0c0,0.6,0,1.1,0,1.6c0,1.2,0.7,1.9,1.8,1.9c3.4,0,6.8,0,10.2,0c1.1,0,1.8-0.6,1.8-1.8
		c0-0.5,0-1.1,0-1.7c0.4,0,0.8,0,1.1,0c5.3,0,10.7,0,16,0c0.8,0,1.5-0.3,1.9-1c0.6-1.2-0.3-2.5-1.9-2.5c-5.3,0-10.7,0-16,0
		c-0.3,0-0.7,0-1.1,0c0-0.7,0-1.2,0-1.7c-0.1-1.1-0.6-1.8-1.7-1.8c-3.5,0-6.9,0-10.4,0c-1.1,0-1.7,0.7-1.7,1.8c0,0.5,0,1.1,0,1.7
		c-1,0-4.2,0-4.9,0c-0.8,0-1.5,0.2-1.9,0.9C76.6,18.5,77.5,19.8,79,19.8z M87.5,16.3c2.3,0,4.5,0,6.9,0c0,1.2,0,2.2,0,3.4
		c-2.3,0-4.5,0-6.9,0C87.5,18.6,87.5,17.5,87.5,16.3z"/>
	<path class="st1" d="M115,44.2c-5.4,0-10.8,0-16.1,0c-0.3,0-0.6,0-1,0c0-0.7,0-1.2,0-1.8c-0.1-1-0.7-1.7-1.7-1.7
		c-3.5,0-6.9,0-10.4,0c-1,0-1.7,0.7-1.7,1.8c0,0.5,0,1.1,0,1.7c-1,0-4.2,0-4.9,0c-0.8,0-1.5,0.2-1.9,0.9c-0.7,1.2,0.2,2.5,1.8,2.5
		c0.7,0,4,0,5,0c0.1,1.3-0.4,2.9,1.4,3.5c3.7,0,7.4,0,11.2,0c1.6-0.7,1.2-2.2,1.3-3.5c0.4,0,0.7,0,1,0c5.3,0,10.6,0,16,0
		c0.8,0,1.5-0.2,1.9-0.9C117.4,45.5,116.5,44.2,115,44.2z M94.4,47.6c-2.3,0-4.5,0-6.9,0c0-1.1,0-2.2,0-3.4c2.3,0,4.5,0,6.9,0
		C94.4,45.3,94.4,46.5,94.4,47.6z"/>
</g>
</svg>
