<svg xmlns="http://www.w3.org/2000/svg" viewBox="0 0 490 490" enable-background="new 0 0 490 490"><style type="text/css">.st0{fill:#C7CBD7;}</style><path class="st0" d="M448.6 235.4c-62.5-76.9-130-115.9-200.8-115.9-28 0-56.4 6.3-84.5 18.5-22.1 9.7-43.9 23.1-65 40-35.6 28.5-56.5 56.9-57.4 58-4.1 5.6-3.9 13.2.4 18.6 62.4 77 130 115.9 200.8 115.9 28 0 56.4-6.3 84.5-18.5 22.1-9.7 43.9-23.1 65-40 35.6-28.5 56.5-56.9 57.4-58 4.1-5.6 3.9-13.2-.4-18.6zm-76.6 53.4c-29.4 23.4-75.7 51.3-129.8 51.3-58.4 0-115.3-32-169.4-95.2 8.6-10.1 24.2-26.9 45.2-43.6 29.4-23.4 75.7-51.3 129.8-51.3 58.4 0 115.3 32 169.4 95.2-8.6 10.1-24.3 27-45.2 43.6zM301 229.9c-8.4 0-15.2 6.8-15.2 15.2 0 22.6-18.3 40.9-40.9 40.9s-40.9-18.4-40.9-40.9 18.3-40.9 40.9-40.9c8.4 0 15.2-6.8 15.2-15.2s-6.8-15.2-15.2-15.2c-39.4 0-71.3 32-71.3 71.3s31.9 71.3 71.3 71.3 71.3-32 71.3-71.3c0-8.4-6.8-15.2-15.2-15.2z"/></svg>