<?xml version="1.0" encoding="utf-8"?>
<!-- Generator: Adobe Illustrator 21.0.1, SVG Export Plug-In . SVG Version: 6.00 Build 0)  -->
<svg version="1.1" id="Layer_1" xmlns="http://www.w3.org/2000/svg" xmlns:xlink="http://www.w3.org/1999/xlink" x="0px" y="0px"
	 viewBox="0 0 128 64" style="enable-background:new 0 0 128 64;" xml:space="preserve">
<style type="text/css">
	.st0{fill:#C7CBD7;}
	.st1{fill:#83868E;}
</style>
<g>
	<path class="st0" d="M42.27,14.493V12h-1.786v2.493h-8.512V12h-1.786v2.493h-8.512V12h-1.786v2.493h-6.642V52h37.507V14.493H42.27z
		 M48.968,50.214H15.032V16.279h4.856v2.14h1.786v-2.14h8.512v2.14h1.786v-2.14h8.512v2.14h1.786v-2.14h6.698V50.214z"/>
	<path class="st0" d="M40.171,24.283h-4.555h-1.34h-4.554h-1.34h-4.555h-1.34h-5.894v5.71v1.34v4.37v1.34v4.37v1.34v5.71h5.894h1.34
		h4.555h1.34h4.554h1.34h4.555h1.34h5.894v-5.71v-1.34v-4.37v-1.34v-4.37v-1.34v-5.71h-5.894H40.171z M35.617,25.622h4.555v4.371
		h-4.555V25.622z M40.171,35.702h-4.555v-4.37h4.555V35.702z M40.171,41.412h-4.555v-4.37h4.555V41.412z M23.829,37.042h4.555v4.37
		h-4.555V37.042z M23.829,31.332h4.555v4.37h-4.555V31.332z M34.277,35.702h-4.554v-4.37h4.554V35.702z M29.723,37.042h4.554v4.37
		h-4.554V37.042z M29.723,25.622h4.554v4.371h-4.554V25.622z M23.829,25.622h4.555v4.371h-4.555V25.622z M17.935,25.622h4.555v4.371
		h-4.555V25.622z M17.935,31.332h4.555v4.37h-4.555V31.332z M17.935,37.042h4.555v4.37h-4.555V37.042z M22.489,47.121h-4.555v-4.37
		h4.555V47.121z M28.383,47.121h-4.555v-4.37h4.555V47.121z M34.277,47.121h-4.554v-4.37h4.554V47.121z M40.171,47.121h-4.555v-4.37
		h4.555V47.121z M46.065,47.121h-4.555v-4.37h4.555V47.121z M46.065,41.412h-4.555v-4.37h4.555V41.412z M46.065,35.702h-4.555v-4.37
		h4.555V35.702z M46.065,25.622v4.371h-4.555v-4.371H46.065z"/>
	<polygon class="st0" points="36.933,40.945 37.894,39.985 38.855,40.945 39.613,40.188 38.651,39.227 39.613,38.266 38.855,37.509 
		37.894,38.47 36.933,37.509 36.176,38.266 37.137,39.227 36.176,40.188 	"/>
	<rect x="18.2" y="20.06" class="st0" width="14.916" height="2.233"/>
	<rect x="39.019" y="20.06" class="st0" width="6.809" height="2.233"/>
</g>
<g>
	<path class="st1" d="M106.27,14.493V12h-1.786v2.493h-8.512V12h-1.786v2.493h-8.512V12h-1.786v2.493h-6.642V52h37.507V14.493
		H106.27z M112.968,50.214H79.032V16.279h4.856v2.14h1.786v-2.14h8.512v2.14h1.786v-2.14h8.512v2.14h1.786v-2.14h6.698V50.214z"/>
	<path class="st1" d="M104.171,24.283h-4.555h-1.34h-4.554h-1.34h-4.555h-1.34h-5.894v5.71v1.34v4.37v1.34v4.37v1.34v5.71h5.894
		h1.34h4.555h1.34h4.554h1.34h4.555h1.34h5.894v-5.71v-1.34v-4.37v-1.34v-4.37v-1.34v-5.71h-5.894H104.171z M99.617,25.622h4.555
		v4.371h-4.555V25.622z M104.171,35.702h-4.555v-4.37h4.555V35.702z M104.171,41.412h-4.555v-4.37h4.555V41.412z M87.829,37.042
		h4.555v4.37h-4.555V37.042z M87.829,31.332h4.555v4.37h-4.555V31.332z M98.277,35.702h-4.554v-4.37h4.554V35.702z M93.723,37.042
		h4.554v4.37h-4.554V37.042z M93.723,25.622h4.554v4.371h-4.554V25.622z M87.829,25.622h4.555v4.371h-4.555V25.622z M81.935,25.622
		h4.555v4.371h-4.555V25.622z M81.935,31.332h4.555v4.37h-4.555V31.332z M81.935,37.042h4.555v4.37h-4.555V37.042z M86.489,47.121
		h-4.555v-4.37h4.555V47.121z M92.383,47.121h-4.555v-4.37h4.555V47.121z M98.277,47.121h-4.554v-4.37h4.554V47.121z
		 M104.171,47.121h-4.555v-4.37h4.555V47.121z M110.065,47.121h-4.555v-4.37h4.555V47.121z M110.065,41.412h-4.555v-4.37h4.555
		V41.412z M110.065,35.702h-4.555v-4.37h4.555V35.702z M110.065,25.622v4.371h-4.555v-4.371H110.065z"/>
	<polygon class="st1" points="100.933,40.945 101.894,39.985 102.855,40.945 103.613,40.188 102.651,39.227 103.613,38.266 
		102.855,37.509 101.894,38.47 100.933,37.509 100.176,38.266 101.137,39.227 100.176,40.188 	"/>
	<rect x="82.2" y="20.06" class="st1" width="14.916" height="2.233"/>
	<rect x="103.019" y="20.06" class="st1" width="6.809" height="2.233"/>
</g>
</svg>
