<svg xmlns="http://www.w3.org/2000/svg" viewBox="0 0 128 64" enable-background="new 0 0 128 64"><style type="text/css">.st0{display:none;} .st1{display:inline;fill:#C7CBD7;} .st2{fill:#C7CBD7;} .st3{fill:#83868E;}</style><g class="st0"><path class="st1" d="M52 22.9l-20-10.9-20 11.3 20 10.4 20-10.8zm-20-8.5l15.7 8.5-15.7 8.5-15.7-8.2 15.7-8.8zM42.9 29.4l4.8 2.6-15.7 8.5-15.7-8.2 4.8-2.6-2.2-1.2-6.9 3.9 20 10.5 20-10.9-6.9-3.7zM42.9 38.6l4.8 2.5-15.7 8.5-15.7-8.1 4.8-2.7-2.2-1.1-6.9 3.9 20 10.4 20-10.9-6.9-3.7z"/></g><path class="st2" d="M48.9 12h-36.900000000000006v40h39.900000000000006v-40h-3zm-12.3 3v9.3h-9.3v-9.3h9.3zm-9.3 12.3h9.3v9.3h-9.3v-9.3zm-3 9.4h-9.3v-9.3h9.3v9.3zm0-21.7v9.3h-9.3v-9.3h9.3zm-9.4 34v-9.3h9.3v9.3h-9.3zm12.4 0v-9.3h9.3v9.3h-9.3zm21.6 0h-9.3v-9.3h9.3v9.3zm0-12.3h-9.3v-9.3h9.3v9.3zm0-12.4h-9.3v-9.3h9.3v9.3z"/><path class="st3" d="M114 12h-37v40h39.900000000000006v-40h-2.9zm-12.3 3v9.3h-9.3v-9.3h9.3zm-9.4 12.3h9.3v9.3h-9.3v-9.3zm-3 9.4h-9.3v-9.3h9.3v9.3zm0-21.7v9.3h-9.3v-9.3h9.3zm-9.3 34v-9.3h9.3v9.3h-9.3zm12.3 0v-9.3h9.3v9.3h-9.3zm21.7 0h-9.3v-9.3h9.3v9.3zm0-12.3h-9.3v-9.3h9.3v9.3zm0-12.4h-9.3v-9.3h9.3v9.3z"/></svg>