<?xml version="1.0" encoding="utf-8"?>
<!-- Generator: Adobe Illustrator 21.0.1, SVG Export Plug-In . SVG Version: 6.00 Build 0)  -->
<svg version="1.1" id="Layer_1" xmlns="http://www.w3.org/2000/svg" xmlns:xlink="http://www.w3.org/1999/xlink" x="0px" y="0px"
	 viewBox="0 0 128 64" style="enable-background:new 0 0 128 64;" xml:space="preserve">
<style type="text/css">
	.st0{fill:#C7CBD7;}
	.st1{fill:#83868E;}
</style>
<g>
	<path class="st0" d="M32.628,20.675l-2.939-2.939l-0.465,0.465l4.279,4.33H26.41v1.358h15.307v3.828H26.41v2.789h4.998v2.844H26.41
		v1.584h7.35v2.844h-7.35v1.584h2.072v2.844H26.41v3.53h21.951c1.918,0,3.472-1.555,3.472-3.472V20.675H32.628z M33.24,33.35v-2.844
		h4.949v2.844H33.24z M40.131,42.206h-9.816v-2.844h9.816V42.206z M41.717,37.778h-6.125v-2.844h6.125V37.778z M45.764,37.778
		h-2.215v-2.844h2.215V37.778z M49.51,33.35h-9.488v-2.844h9.488V33.35z"/>
	<polygon class="st0" points="17.517,52 25.16,52 25.16,21.281 30.51,21.281 21.338,12 12.166,21.281 17.517,21.281 	"/>
</g>
<g>
	<path class="st1" d="M96.628,20.675l-2.939-2.939l-0.465,0.465l4.279,4.33H90.41v1.358h15.307v3.828H90.41v2.789h4.998v2.844H90.41
		v1.584h7.35v2.844h-7.35v1.584h2.072v2.844H90.41v3.53h21.951c1.918,0,3.472-1.555,3.472-3.472V20.675H96.628z M97.24,33.35v-2.844
		h4.949v2.844H97.24z M104.131,42.206h-9.816v-2.844h9.816V42.206z M105.717,37.778h-6.125v-2.844h6.125V37.778z M109.764,37.778
		h-2.215v-2.844h2.215V37.778z M113.51,33.35h-9.488v-2.844h9.488V33.35z"/>
	<polygon class="st1" points="81.517,52 89.16,52 89.16,21.281 94.51,21.281 85.338,12 76.166,21.281 81.517,21.281 	"/>
</g>
</svg>
