<?xml version="1.0" encoding="utf-8"?>
<!-- Generator: Adobe Illustrator 21.0.1, SVG Export Plug-In . SVG Version: 6.00 Build 0)  -->
<svg version="1.1" id="Layer_1" xmlns="http://www.w3.org/2000/svg" xmlns:xlink="http://www.w3.org/1999/xlink" x="0px" y="0px"
	 viewBox="0 0 128 64" style="enable-background:new 0 0 128 64;" xml:space="preserve">
<style type="text/css">
	.st0{fill:#C7CBD7;}
	.st1{fill:#83868E;}
</style>
<g>
	<path class="st0" d="M38.4,25.6V12H12v26.4h13.6V52H52V25.6H38.4z M49.3,49.3H28.4V37.6l1.2-1.2l-1.9-1.9l-1.2,1.2H14.7V14.7h20.9
		v11.7l-1.2,1.2l1.9,1.9l1.2-1.2h11.7V49.3z"/>
	
		<rect x="29.8" y="30.6" transform="matrix(0.7071 -0.7071 0.7071 0.7071 -13.2546 32.0001)" class="st0" width="4.4" height="2.7"/>
	<polygon class="st0" points="26.1,24.1 19.5,17.5 17.5,19.6 24,26.2 20.7,26.2 20.7,29.1 29.1,29.1 29.1,20.7 26.1,20.7 	"/>
	<polygon class="st0" points="43.3,34.9 34.9,34.9 34.9,43.3 37.9,43.3 37.9,39.9 44.5,46.5 46.5,44.4 40,37.8 43.3,37.8 	"/>
</g>
<g>
	<path class="st1" d="M102.4,25.6V12H76v26.4h13.6V52H116V25.6H102.4z M113.3,49.3H92.4V37.6l1.2-1.2l-1.9-1.9l-1.2,1.2H78.7V14.7
		h20.9v11.7l-1.2,1.2l1.9,1.9l1.2-1.2h11.7V49.3z"/>
	<rect x="93.8" y="30.6" transform="matrix(0.7071 -0.7071 0.7071 0.7071 5.4906 77.2549)" class="st1" width="4.4" height="2.7"/>
	<polygon class="st1" points="90.1,24.1 83.5,17.5 81.5,19.6 88,26.2 84.7,26.2 84.7,29.1 93.1,29.1 93.1,20.7 90.1,20.7 	"/>
	<polygon class="st1" points="107.3,34.9 98.9,34.9 98.9,43.3 101.9,43.3 101.9,39.9 108.5,46.5 110.5,44.4 104,37.8 107.3,37.8 	
		"/>
</g>
</svg>
