<?xml version="1.0" encoding="utf-8"?>
<!-- Generator: Adobe Illustrator 21.0.1, SVG Export Plug-In . SVG Version: 6.00 Build 0)  -->
<svg version="1.1" id="Layer_1" xmlns="http://www.w3.org/2000/svg" xmlns:xlink="http://www.w3.org/1999/xlink" x="0px" y="0px"
	 viewBox="0 0 64 64" style="enable-background:new 0 0 64 64;" xml:space="preserve">
<style type="text/css">
	.st0{fill:#C7CBD7;}
</style>
<path class="st0" d="M50.972,13.67L50.972,13.67c-1.371-1.372-3.595-1.372-4.966,0L32.789,26.886v-4.499
	c0-1.939-1.572-3.512-3.512-3.512h-0.025c-1.939,0-3.512,1.572-3.512,3.512V35.39c0,1.938,1.572,3.511,3.512,3.511h13.002
	c1.939,0,3.511-1.572,3.511-3.511v-0.026c0-1.939-1.571-3.511-3.511-3.511h-4.499l13.217-13.216
	C52.343,17.265,52.343,15.041,50.972,13.67z"/>
<path class="st0" d="M49.496,51.97H14.443c-1.349,0-2.443-1.094-2.443-2.443V14.473c0-1.349,1.094-2.442,2.443-2.442h15.938
	c1.349,0,2.443,1.093,2.443,2.442c0,1.35-1.094,2.443-2.443,2.443H16.885v30.168h30.168v-12.58c0-1.35,1.093-2.442,2.442-2.442
	s2.442,1.093,2.442,2.442v15.022C51.938,50.876,50.846,51.97,49.496,51.97z"/>
</svg>
