<svg xmlns="http://www.w3.org/2000/svg" viewBox="0 0 128 64" enable-background="new 0 0 128 64"><style type="text/css">.st0{fill:#C7CBD7;} .st1{fill:#83868E;}</style><path class="st0" d="M25.6 25.6v26.4h26.4v-26.4h-26.4zm23.6 23.6h-20.8v-20.8h20.8v20.8zM14.8 14.8h20.8v9.9h2.8v-12.7h-26.4v26.4h12.7v-2.8h-9.9zM22.6 20.9l-5.1-5.1-1.6 1.6 5.1 5.1h-2.6v2.3h6.5v-6.5h-2.3z"/><path class="st1" d="M89.6 25.6v26.4h26.4v-26.4h-26.4zm23.6 23.6h-20.8v-20.8h20.8v20.8zM78.8 14.8h20.8v9.9h2.8v-12.7h-26.4v26.4h12.7v-2.8h-9.9zM86.6 20.9l-5.1-5.1-1.6 1.6 5.1 5.1h-2.6v2.3h6.5v-6.5h-2.3z"/></svg>