<?xml version="1.0" encoding="utf-8"?>
<!-- Generator: Adobe Illustrator 21.0.1, SVG Export Plug-In . SVG Version: 6.00 Build 0)  -->
<svg version="1.1" id="Layer_1" xmlns="http://www.w3.org/2000/svg" xmlns:xlink="http://www.w3.org/1999/xlink" x="0px" y="0px"
	 viewBox="0 0 64 64" style="enable-background:new 0 0 64 64;" xml:space="preserve">
<style type="text/css">
	.st0{fill:#C7CBD7;}
</style>
<g>
	<polygon class="st0" points="39.5,12 39.5,16.4 44.5,16.4 34.7,26.2 37.8,29.3 47.6,19.5 47.6,24.5 52,24.5 52,12 	"/>
	<polygon class="st0" points="29.3,37.8 26.2,34.7 16.4,44.5 16.4,39.5 12,39.5 12,52 24.5,52 24.5,47.6 19.5,47.6 	"/>
	<polygon class="st0" points="29.3,26.2 19.5,16.4 24.5,16.4 24.5,12 12,12 12,24.5 16.4,24.5 16.4,19.5 26.2,29.3 	"/>
	<polygon class="st0" points="47.6,39.5 47.6,44.5 37.8,34.7 34.7,37.8 44.5,47.6 39.5,47.6 39.5,52 52,52 52,39.5 	"/>
</g>
</svg>
