<?xml version="1.0" encoding="utf-8"?>
<!-- Generator: Adobe Illustrator 21.0.1, SVG Export Plug-In . SVG Version: 6.00 Build 0)  -->
<svg version="1.1" id="Layer_1" xmlns="http://www.w3.org/2000/svg" xmlns:xlink="http://www.w3.org/1999/xlink" x="0px" y="0px"
	 viewBox="0 0 128 64" style="enable-background:new 0 0 128 64;" xml:space="preserve">
<style type="text/css">
	.st0{fill:#C7CBD7;}
	.st1{fill:#83868E;}
</style>
<path class="st0" d="M31.9,21.9h0.2c1.8,0,3.3,1.5,3.3,3.3v13.6c0,1.8-1.5,3.3-3.3,3.3h-0.2c-1.8,0-3.3-1.5-3.3-3.3V25.2
	C28.6,23.4,30.1,21.9,31.9,21.9z"/>
<path class="st0" d="M50.8,38.8c0.1-0.2,0.1-0.3,0.2-0.5c0.1-0.4,0.2-0.8,0.4-1.1c0.1-0.2,0.1-0.4,0.1-0.6c0.1-0.3,0.1-0.5,0.2-0.8
	c0-0.2,0.1-0.4,0.1-0.6c0.1-0.4,0.1-0.9,0.2-1.3c0,0,0-0.1,0-0.1c0-0.1,0-0.2,0-0.3c0-0.2,0-0.4,0-0.6c0-0.2,0-0.3,0-0.5
	c0-0.1,0-0.3,0-0.4c0-0.1,0-0.1,0-0.2c0-0.3,0-0.7,0-1c0-0.1,0-0.1,0-0.2c0-0.4-0.1-0.9-0.1-1.3c0,0,0,0,0,0
	c-0.1-0.4-0.1-0.8-0.2-1.2c0,0,0-0.1,0-0.1c-0.1-0.4-0.2-0.7-0.3-1.1c0,0,0-0.1,0-0.1c-0.3-1.2-0.8-2.4-1.3-3.5c0,0,0,0,0,0
	c-0.2-0.4-0.4-0.7-0.6-1.1c0,0,0-0.1,0-0.1C48.7,21,48,20,47.2,19c0,0,0,0,0,0c-0.3-0.3-0.5-0.6-0.8-0.9c0,0,0,0,0,0
	C42.7,14.3,37.6,12,32,12c-3.7,0-7.2,1-10.3,2.9c0,0-0.1,0-0.1,0c-0.1,0.1-0.2,0.1-0.3,0.2c-0.2,0.1-0.4,0.2-0.6,0.4
	c-0.2,0.2-0.5,0.3-0.7,0.5c-0.1,0-0.1,0.1-0.2,0.1c-5.9,4.5-9.1,12-7.5,19.8c0.4,2.2,1.2,4.3,2.3,6.1c0.1,0.1,0.1,0.2,0.2,0.3
	c2.4,4,6.2,7,10.5,8.5c0,0,0.1,0,0.1,0c0.4,0.1,0.9,0.3,1.3,0.4c0.2,0,0.3,0.1,0.5,0.1c0.3,0.1,0.7,0.2,1,0.2c0.2,0,0.4,0.1,0.5,0.1
	c0.4,0.1,0.7,0.1,1.1,0.1c0.1,0,0.1,0,0.2,0c0.2,0,0.4,0,0.6,0c0.2,0,0.3,0,0.5,0c0.5,0,0.9,0,1.4,0c0,0,0.1,0,0.1,0
	c7.8-0.3,14.5-5.1,17.5-11.9c0,0,0-0.1,0.1-0.1C50.5,39.6,50.6,39.2,50.8,38.8z M38.8,20.3c0.1,0.1,0.2,0.1,0.3,0.2
	c1.9,1.2,3.5,2.8,4.7,4.8c0,0,0,0.1,0.1,0.1c0.2,0.4,0.4,0.8,0.6,1.2c0.1,0.2,0.1,0.4,0.2,0.5c0.1,0.3,0.2,0.6,0.3,0.9
	c0.1,0.2,0.1,0.5,0.2,0.7c0.1,0.3,0.1,0.6,0.2,0.8c0,0.3,0.1,0.5,0.1,0.8c0,0.3,0.1,0.7,0.1,1c0,0.7,0,1.4,0,2.1
	c-0.1,0.5-0.1,0.9-0.2,1.4c0,0,0,0,0,0.1c-0.1,0.5-0.2,0.9-0.4,1.3c0,0,0,0,0,0c-1,3.1-3.2,5.7-5.9,7.3c-0.1,0.1-0.2,0.1-0.3,0.2
	c-0.2,0.1-0.5,0.2-0.7,0.4c-0.2,0.1-0.4,0.2-0.7,0.3c-0.1,0-0.2,0.1-0.2,0.1c-1,0.4-2.1,0.7-3.2,0.8c-5.6,0.8-10.7-1.9-13.3-6.3
	c-0.1-0.1-0.2-0.2-0.2-0.3c-0.8-1.5-1.4-3.1-1.6-4.9c-0.8-5.6,1.9-10.7,6.3-13.3c0.1-0.1,0.2-0.2,0.3-0.3c2-1.1,4.3-1.8,6.7-1.8
	C34.5,18.5,36.8,19.1,38.8,20.3z"/>
<path class="st1" d="M95.9,21.9h0.2c1.8,0,3.3,1.5,3.3,3.3v13.6c0,1.8-1.5,3.3-3.3,3.3h-0.2c-1.8,0-3.3-1.5-3.3-3.3V25.2
	C92.6,23.4,94.1,21.9,95.9,21.9z"/>
<path class="st1" d="M114.8,38.8c0.1-0.2,0.1-0.3,0.2-0.5c0.1-0.4,0.2-0.8,0.4-1.1c0.1-0.2,0.1-0.4,0.1-0.6c0.1-0.3,0.1-0.5,0.2-0.8
	c0-0.2,0.1-0.4,0.1-0.6c0.1-0.4,0.1-0.9,0.2-1.3c0,0,0-0.1,0-0.1c0-0.1,0-0.2,0-0.3c0-0.2,0-0.4,0-0.6c0-0.2,0-0.3,0-0.5
	c0-0.1,0-0.3,0-0.4c0-0.1,0-0.1,0-0.2c0-0.3,0-0.7,0-1c0-0.1,0-0.1,0-0.2c0-0.4-0.1-0.9-0.1-1.3c0,0,0,0,0,0
	c-0.1-0.4-0.1-0.8-0.2-1.2c0,0,0-0.1,0-0.1c-0.1-0.4-0.2-0.7-0.3-1.1c0,0,0-0.1,0-0.1c-0.3-1.2-0.8-2.4-1.3-3.5c0,0,0,0,0,0
	c-0.2-0.4-0.4-0.7-0.6-1.1c0,0,0-0.1,0-0.1c-0.6-1.1-1.3-2.1-2.2-3.1c0,0,0,0,0,0c-0.3-0.3-0.5-0.6-0.8-0.9c0,0,0,0,0,0
	c-3.6-3.7-8.7-6.1-14.3-6.1c-3.7,0-7.2,1-10.3,2.9c0,0-0.1,0-0.1,0c-0.1,0.1-0.2,0.1-0.3,0.2c-0.2,0.1-0.4,0.2-0.6,0.4
	c-0.2,0.2-0.5,0.3-0.7,0.5c-0.1,0-0.1,0.1-0.2,0.1c-5.9,4.5-9.1,12-7.5,19.8c0.4,2.2,1.2,4.3,2.3,6.1c0.1,0.1,0.1,0.2,0.2,0.3
	c2.4,4,6.2,7,10.5,8.5c0,0,0.1,0,0.1,0c0.4,0.1,0.9,0.3,1.3,0.4c0.2,0,0.3,0.1,0.5,0.1c0.3,0.1,0.7,0.2,1,0.2c0.2,0,0.4,0.1,0.5,0.1
	c0.4,0.1,0.7,0.1,1.1,0.1c0.1,0,0.1,0,0.2,0c0.2,0,0.4,0,0.6,0c0.2,0,0.3,0,0.5,0c0.5,0,0.9,0,1.4,0c0,0,0.1,0,0.1,0
	c7.8-0.3,14.5-5.1,17.5-11.9c0,0,0-0.1,0.1-0.1C114.5,39.6,114.6,39.2,114.8,38.8z M102.8,20.3c0.1,0.1,0.2,0.1,0.3,0.2
	c1.9,1.2,3.5,2.8,4.7,4.8c0,0,0,0.1,0.1,0.1c0.2,0.4,0.4,0.8,0.6,1.2c0.1,0.2,0.1,0.4,0.2,0.5c0.1,0.3,0.2,0.6,0.3,0.9
	c0.1,0.2,0.1,0.5,0.2,0.7c0.1,0.3,0.1,0.6,0.2,0.8c0,0.3,0.1,0.5,0.1,0.8c0,0.3,0.1,0.7,0.1,1c0,0.7,0,1.4,0,2.1
	c-0.1,0.5-0.1,0.9-0.2,1.4c0,0,0,0,0,0.1c-0.1,0.5-0.2,0.9-0.4,1.3c0,0,0,0,0,0c-1,3.1-3.2,5.7-5.9,7.3c-0.1,0.1-0.2,0.1-0.3,0.2
	c-0.2,0.1-0.5,0.2-0.7,0.4c-0.2,0.1-0.4,0.2-0.7,0.3c-0.1,0-0.2,0.1-0.2,0.1c-1,0.4-2.1,0.7-3.2,0.8c-5.6,0.8-10.7-1.9-13.3-6.3
	c-0.1-0.1-0.2-0.2-0.2-0.3c-0.8-1.5-1.4-3.1-1.6-4.9c-0.8-5.6,1.9-10.7,6.3-13.3c0.1-0.1,0.2-0.2,0.3-0.3c2-1.1,4.3-1.8,6.7-1.8
	C98.5,18.5,100.8,19.1,102.8,20.3z"/>
</svg>
