<?xml version="1.0" encoding="utf-8"?>
<!-- Generator: Adobe Illustrator 21.0.1, SVG Export Plug-In . SVG Version: 6.00 Build 0)  -->
<svg version="1.1" id="Layer_1" xmlns="http://www.w3.org/2000/svg" xmlns:xlink="http://www.w3.org/1999/xlink" x="0px" y="0px"
	 viewBox="0 0 64 64" style="enable-background:new 0 0 64 64;" xml:space="preserve">
<style type="text/css">
	.st0{display:none;}
	.st1{display:inline;fill:#C7CBD7;}
	.st2{fill:#C7CBD7;}
</style>
<g class="st0">
	<path class="st1" d="M47.4,39.6c-6.9,4-11.9,4.1-18.8,0.1c-0.5-0.3-0.7-0.8-0.4-1.3l2.5-4.6c0.1-0.2-0.1-0.5-0.3-0.5l-15.3,3.2
		c-0.2,0-0.3,0.2-0.2,0.4l5.5,15c0.1,0.3,0.5,0.3,0.6,0l2.5-4.6c0.3-0.5,0.8-0.7,1.3-0.4c8.2,3.9,17.3,1.5,22.8-6.9
		C47.7,39.7,47.6,39.6,47.4,39.6z"/>
	<path class="st1" d="M16.5,24.9c6.8-4.2,11.8-4.4,18.8-0.5c0.5,0.3,0.7,0.8,0.4,1.3l-2.4,4.7c-0.1,0.2,0.1,0.5,0.4,0.5l15.2-3.5
		c0.2,0,0.3-0.2,0.2-0.4l-5.9-14.9c-0.1-0.3-0.5-0.3-0.6,0l-2.4,4.7c-0.3,0.5-0.8,0.7-1.3,0.5c-8.3-3.7-17.3-1.1-22.7,7.3
		C16.2,24.8,16.3,25,16.5,24.9z"/>
</g>
<path class="st2" d="M52.3,24.3c0.4-1,0.6-2,0.6-3.1c0-5.7-5.9-10.4-13.2-10.4c-0.7,0-1.4,0.1-2.1,0.1c-1.8-0.5-3.6-0.7-5.5-0.7
	C20,10.2,10.3,20,10.3,32S20,53.8,32,53.8c12,0,21.7-9.8,21.7-21.8C53.7,29.3,53.2,26.7,52.3,24.3z M51,30.2l-4.9,0.1
	c1.7-0.8,3.2-1.8,4.4-3.1C50.7,28.1,50.9,29.1,51,30.2z M50.4,21.1c0,4.4-4.8,7.9-10.8,7.9c-1.1,0-2.1-0.1-3.2-0.4l-0.6-0.1
	l-5.2,4.2l0.5-6.7l-0.4-0.4c-1.3-1.3-2-2.9-2-4.6c0-4.4,4.8-7.9,10.8-7.9C45.6,13.2,50.4,16.8,50.4,21.1z M26.4,13.6
	c1.4-0.4,2.8-0.7,4.3-0.8v0.7c-2.2,1.6-3.7,3.8-4.1,6.3h-2.2C24.9,17.4,25.6,15.3,26.4,13.6z M23.8,22.4h2.7c0.2,1.7,1,3.2,2.2,4.6
	l-0.3,3.5l-5.4,0.1C23.2,27.6,23.4,24.9,23.8,22.4z M23.1,15c-0.5,1.5-1,3.1-1.3,4.8h-4.5C18.8,17.8,20.8,16.2,23.1,15z M15.5,22.4
	h5.8c-0.4,2.6-0.7,5.3-0.7,8.2l-7.6,0.1C13.1,27.7,14,24.8,15.5,22.4z M15.2,41.1c-1.3-2.4-2-5-2.2-7.8l7.6-0.1
	c0.1,2.8,0.3,5.4,0.7,7.9H15.2z M16.8,43.7h4.9c0.4,2,0.9,3.8,1.6,5.4C20.7,47.8,18.5,45.9,16.8,43.7z M30.7,51.2
	c-1.4-0.1-2.8-0.3-4.1-0.7c-0.9-1.8-1.7-4.1-2.3-6.8h6.4L30.7,51.2L30.7,51.2z M23.8,41.1c-0.4-2.4-0.7-5.1-0.7-7.9l5.2-0.1
	l-0.4,5.3l2.8-2.3v5.1L23.8,41.1L23.8,41.1z M37.1,50.5c-1.2,0.3-2.5,0.6-3.8,0.7v-7.5h6.2C38.8,46.4,38,48.7,37.1,50.5z M33.3,41.1
	v-7.2l1.2-0.9l6.3-0.1c0,2.9-0.3,5.7-0.7,8.2C40,41.1,33.3,41.1,33.3,41.1z M40.5,49.2c0.6-1.7,1.2-3.5,1.6-5.6h5.1
	C45.4,46,43.1,47.9,40.5,49.2z M42.6,41.1c0.4-2.6,0.7-5.3,0.7-8.2l7.8-0.1c-0.1,3-0.9,5.8-2.2,8.3L42.6,41.1L42.6,41.1z"/>
</svg>
