<?xml version="1.0" encoding="utf-8"?>
<!-- Generator: Adobe Illustrator 21.0.1, SVG Export Plug-In . SVG Version: 6.00 Build 0)  -->
<svg version="1.1" id="Layer_1" xmlns="http://www.w3.org/2000/svg" xmlns:xlink="http://www.w3.org/1999/xlink" x="0px" y="0px"
	 viewBox="0 0 128 64" style="enable-background:new 0 0 128 64;" xml:space="preserve">
<style type="text/css">
	.st0{fill:#C7CBD7;}
	.st1{fill:#83868E;}
</style>
<g>
	<path class="st0" d="M12,50c0.1-0.2,0.2-0.4,0.3-0.6c1.1-3.7,2.2-7.5,3.3-11.2c0.1-0.4,0.4-0.7,0.6-1c4.3-4.3,8.6-8.6,12.9-12.9
		c1.4-1.3,2.8-2.7,4.1-4c0.6,0.6,1.2,1.3,2,2.1c-0.1,0.1-0.2,0.3-0.4,0.5c-5.2,5.2-10.4,10.4-15.6,15.6c-0.4,0.4-0.8,1-1,1.6
		c-0.6,1.9-1.1,3.8-1.7,5.7c-0.2,0.5,0.1,0.7,0.4,1c0.4,0.3,0.6,1,1.4,0.8c2-0.6,3.9-1.2,5.9-1.8c0.4-0.1,0.8-0.3,1-0.6
		c2.3-2.3,4.7-4.6,7-7c1.6-1.6,3.2-3.3,4.8-5c1.5-1.5,3.2-3,4.7-4.5c0.7,0.8,1.5,1.5,2.3,2.3c-0.4,0.3-0.9,0.7-1.3,1.2
		c-4.8,4.8-9.6,9.5-14.3,14.3c-1.3,1.3-2.7,2.1-4.4,2.5c-3.3,0.9-6.6,1.8-9.8,2.7c0,0-0.1,0.1-0.1,0.2c-0.7,0-1.4,0-2,0
		C12,51.3,12,50.6,12,50z"/>
	<path class="st0" d="M52,21.7c-0.7,1-1.5,2-2.2,2.9c-0.1,0.1-0.3,0.2-0.3,0.3c-3.5-3.5-6.9-6.9-10.4-10.4c0.8-0.8,1.6-1.9,2.9-2.3
		c0.1,0,0.2-0.1,0.3-0.2c0.5,0,1,0,1.6,0c0.5,0.3,1.1,0.5,1.5,0.8c1.5,1.3,2.9,2.7,4.2,4.1c0.9,0.9,2,1.8,2.2,3.2c0,0,0.1,0,0.1,0
		C52,20.6,52,21.2,52,21.7z"/>
	<path class="st0" d="M22.7,43.6c-0.1-0.5-0.2-1-0.3-1.5c-0.1-0.3-0.4-0.5-0.6-0.6c-0.6-0.2-1.2-0.3-1.9-0.5
		c0.2-0.2,0.3-0.4,0.5-0.6c2.6-2.6,5.2-5.2,7.8-7.8c1.3-1.2,2.6-2.4,3.8-3.7c1.5-1.5,3-3,4.4-4.6c0.5-0.5,0.8-0.5,1.3,0
		c0.7,0.8,1.5,1.5,2,2C34.1,32.2,28.6,38,23.1,43.8C23,43.7,22.9,43.6,22.7,43.6z"/>
	<path class="st0" d="M37.1,16c0.3,0.3,0.5,0.5,0.7,0.6c3.2,3.2,6.5,6.5,9.7,9.7c0.5,0.5,0.5,0.8,0,1.2c-0.5,0.4-1,0.9-1.5,1.3
		c-0.4,0.4-0.7,0.2-1-0.1c-2.4-2.5-4.9-4.9-7.3-7.3c-0.8-0.8-1.6-1.7-2.5-2.5c-0.3-0.3-0.4-0.5,0-0.9C35.9,17.4,36.5,16.7,37.1,16z"
		/>
</g>
<g>
	<path class="st1" d="M76,50c0.1-0.2,0.2-0.4,0.3-0.6c1.1-3.7,2.2-7.5,3.3-11.2c0.1-0.4,0.4-0.7,0.6-1c4.3-4.3,8.6-8.6,12.9-12.9
		c1.4-1.3,2.8-2.7,4.1-4c0.6,0.6,1.2,1.3,2,2.1c-0.1,0.1-0.2,0.3-0.4,0.5c-5.2,5.2-10.4,10.4-15.6,15.6c-0.4,0.4-0.8,1-1,1.6
		c-0.6,1.9-1.1,3.8-1.7,5.7c-0.2,0.5,0.1,0.7,0.4,1c0.4,0.3,0.6,1,1.4,0.8c2-0.6,3.9-1.2,5.9-1.8c0.4-0.1,0.8-0.3,1-0.6
		c2.3-2.3,4.7-4.6,7-7c1.6-1.6,3.2-3.3,4.8-5c1.5-1.5,3.2-3,4.7-4.5c0.7,0.8,1.5,1.5,2.3,2.3c-0.4,0.3-0.9,0.7-1.3,1.2
		c-4.8,4.8-9.6,9.5-14.3,14.3c-1.3,1.3-2.7,2.1-4.4,2.5c-3.3,0.9-6.6,1.8-9.8,2.7c0,0-0.1,0.1-0.1,0.2c-0.7,0-1.4,0-2,0
		C76,51.3,76,50.6,76,50z"/>
	<path class="st1" d="M116,21.7c-0.7,1-1.5,2-2.2,2.9c-0.1,0.1-0.3,0.2-0.3,0.3c-3.5-3.5-6.9-6.9-10.4-10.4c0.8-0.8,1.6-1.9,2.9-2.3
		c0.1,0,0.2-0.1,0.3-0.2c0.5,0,1,0,1.6,0c0.5,0.3,1.1,0.5,1.5,0.8c1.5,1.3,2.9,2.7,4.2,4.1c0.9,0.9,2,1.8,2.2,3.2c0,0,0.1,0,0.1,0
		C116,20.6,116,21.2,116,21.7z"/>
	<path class="st1" d="M86.7,43.6c-0.1-0.5-0.2-1-0.3-1.5c-0.1-0.3-0.4-0.5-0.6-0.6c-0.6-0.2-1.2-0.3-1.9-0.5
		c0.2-0.2,0.3-0.4,0.5-0.6c2.6-2.6,5.2-5.2,7.8-7.8c1.3-1.2,2.6-2.4,3.8-3.7c1.5-1.5,3-3,4.4-4.6c0.5-0.5,0.8-0.5,1.3,0
		c0.7,0.8,1.5,1.5,2,2C98.1,32.2,92.6,38,87.1,43.8C87,43.7,86.9,43.6,86.7,43.6z"/>
	<path class="st1" d="M101.1,16c0.3,0.3,0.5,0.5,0.7,0.6c3.2,3.2,6.5,6.5,9.7,9.7c0.5,0.5,0.5,0.8,0,1.2c-0.5,0.4-1,0.9-1.5,1.3
		c-0.4,0.4-0.7,0.2-1-0.1c-2.4-2.5-4.9-4.9-7.3-7.3c-0.8-0.8-1.6-1.7-2.5-2.5c-0.3-0.3-0.4-0.5,0-0.9C99.9,17.4,100.5,16.7,101.1,16
		z"/>
</g>
</svg>
