<?xml version="1.0" encoding="utf-8"?>
<!-- Generator: Adobe Illustrator 21.0.1, SVG Export Plug-In . SVG Version: 6.00 Build 0)  -->
<svg version="1.1" id="Layer_1" xmlns="http://www.w3.org/2000/svg" xmlns:xlink="http://www.w3.org/1999/xlink" x="0px" y="0px"
	 viewBox="0 0 64 64" style="enable-background:new 0 0 64 64;" xml:space="preserve">
<style type="text/css">
	.st0{fill:#C7CBD7;}
</style>
<path class="st0" d="M37.9,34.5c0.9-2.3,3.3-3.5,5.8-3.2v-6.3c-2.4,0.3-4.8-0.9-5.8-3.1c-1-2.3-0.2-4.8,1.8-6.4l-4.5-4.5
	c-1.5,1.9-4,2.8-6.3,1.9c-2.3-0.9-3.5-3.3-3.2-5.8h-6.3c0.3,2.4-0.9,4.8-3.1,5.8c-2.3,1-4.8,0.2-6.4-1.8l-4.5,4.5
	c1.9,1.5,2.8,4,1.9,6.3C6.3,24,3.9,25.3,1.4,25v6.3c2.4-0.3,4.8,0.9,5.8,3.1c1,2.3,0.2,4.8-1.8,6.4l4.5,4.5c1.5-1.9,4-2.8,6.3-1.9
	c2.3,0.9,3.5,3.3,3.2,5.8h6.3c-0.3-2.4,0.9-4.8,3.1-5.8c2.3-1,4.8-0.2,6.4,1.8l4.5-4.5C37.8,39.3,37,36.8,37.9,34.5z M29.9,31.1
	c-1.6,4.1-6.2,6-10.3,4.4c-4.1-1.6-6-6.2-4.4-10.3c1.6-4.1,6.2-6,10.3-4.4C29.5,22.4,31.5,27,29.9,31.1z"/>
<path class="st0" d="M59.6,49.4c0.5-1.2,1.7-1.8,3-1.7v-3.3c-1.3,0.2-2.5-0.5-3-1.6c-0.5-1.2-0.1-2.5,0.9-3.3l-2.3-2.3
	c-0.8,1-2.1,1.4-3.2,1c-1.2-0.5-1.8-1.7-1.7-3H50c0.2,1.3-0.5,2.5-1.6,3c-1.2,0.5-2.5,0.1-3.3-0.9l-2.3,2.3c1,0.8,1.4,2.1,1,3.2
	c-0.5,1.2-1.7,1.8-3,1.7v3.3c1.3-0.2,2.5,0.5,3,1.6c0.5,1.2,0.1,2.5-0.9,3.3l2.3,2.3c0.8-1,2.1-1.4,3.2-1c1.2,0.5,1.8,1.7,1.7,3h3.3
	c-0.2-1.3,0.5-2.5,1.6-3c1.2-0.5,2.5-0.1,3.3,0.9l2.3-2.3C59.5,51.9,59.1,50.6,59.6,49.4z M55.4,47.6c-0.8,2.1-3.2,3.1-5.3,2.3
	C48,49,47,46.7,47.9,44.6c0.8-2.1,3.2-3.1,5.3-2.3C55.3,43.1,56.3,45.5,55.4,47.6z"/>
</svg>
