<?xml version="1.0" encoding="utf-8"?>
<!-- Generator: Adobe Illustrator 21.0.1, SVG Export Plug-In . SVG Version: 6.00 Build 0)  -->
<svg version="1.1" id="Layer_1" xmlns="http://www.w3.org/2000/svg" xmlns:xlink="http://www.w3.org/1999/xlink" x="0px" y="0px"
	 viewBox="0 0 64 64" style="enable-background:new 0 0 64 64;" xml:space="preserve">
<style type="text/css">
	.st0{fill:#C7CBD7;}
</style>
<path class="st0" d="M46.737,52c-1.347,0-2.694-0.514-3.721-1.542L13.542,20.985c-2.055-2.055-2.055-5.388,0-7.443
	c2.056-2.055,5.388-2.055,7.443,0l29.473,29.474c2.056,2.055,2.056,5.388,0,7.442C49.431,51.486,48.083,52,46.737,52z"/>
<path class="st0" d="M17.263,52c-1.347,0-2.694-0.514-3.722-1.542c-2.055-2.055-2.055-5.388,0-7.442l29.474-29.474
	c2.054-2.055,5.389-2.055,7.442,0c2.056,2.055,2.056,5.388,0,7.443L20.985,50.458C19.957,51.486,18.61,52,17.263,52z"/>
</svg>
