<svg xmlns="http://www.w3.org/2000/svg" viewBox="0 0 64 64" enable-background="new 0 0 64 64"><style type="text/css">.st0{display:none;} .st1{display:inline;fill:#C7CBD7;} .st2{fill:#C7CBD7;}</style><g class="st0"><path class="st1" d="M47.4 39.6c-6.9 4-11.9 4.1-18.8.1-.5-.3-.7-.8-.4-1.3l2.5-4.6c.1-.2-.1-.5-.3-.5l-15.3 3.2c-.2 0-.3.2-.2.4l5.5 15c.1.3.5.3.6 0l2.5-4.6c.3-.5.8-.7 1.3-.4 8.2 3.9 17.3 1.5 22.8-6.9.1-.3 0-.4-.2-.4zM16.5 24.9c6.8-4.2 11.8-4.4 18.8-.5.5.3.7.8.4 1.3l-2.4 4.7c-.1.2.1.5.4.5l15.2-3.5c.2 0 .3-.2.2-.4l-5.9-14.9c-.1-.3-.5-.3-.6 0l-2.4 4.7c-.3.5-.8.7-1.3.5-8.3-3.7-17.3-1.1-22.7 7.3 0 .2.1.4.3.3z"/></g><path class="st2" d="M52.3 24.3c.4-1 .6-2 .6-3.1 0-5.7-5.9-10.4-13.2-10.4l-2.1.1c-1.8-.5-3.6-.7-5.5-.7-12.1 0-21.8 9.8-21.8 21.8s9.7 21.8 21.7 21.8 21.7-9.8 21.7-21.8c0-2.7-.5-5.3-1.4-7.7zm-1.3 5.9l-4.9.1c1.7-.8 3.2-1.8 4.4-3.1.2.9.4 1.9.5 3zm-.6-9.1c0 4.4-4.8 7.9-10.8 7.9-1.1 0-2.1-.1-3.2-.4l-.6-.1-5.2 4.2.5-6.7-.4-.4c-1.3-1.3-2-2.9-2-4.6 0-4.4 4.8-7.9 10.8-7.9 6.1.1 10.9 3.7 10.9 8zm-24-7.5c1.4-.4 2.8-.7 4.3-.8v.7c-2.2 1.6-3.7 3.8-4.1 6.3h-2.2c.5-2.4 1.2-4.5 2-6.2zm-2.6 8.8h2.7c.2 1.7 1 3.2 2.2 4.6l-.3 3.5-5.4.1c.2-3 .4-5.7.8-8.2zm-.7-7.4c-.5 1.5-1 3.1-1.3 4.8h-4.5c1.5-2 3.5-3.6 5.8-4.8zm-7.6 7.4h5.8c-.4 2.6-.7 5.3-.7 8.2l-7.6.1c.1-3 1-5.9 2.5-8.3zm-.3 18.7c-1.3-2.4-2-5-2.2-7.8l7.6-.1c.1 2.8.3 5.4.7 7.9h-6.1zm1.6 2.6h4.9c.4 2 .9 3.8 1.6 5.4-2.6-1.3-4.8-3.2-6.5-5.4zm13.9 7.5c-1.4-.1-2.8-.3-4.1-.7-.9-1.8-1.7-4.1-2.3-6.8h6.4v7.5zm-6.9-10.1c-.4-2.4-.7-5.1-.7-7.9l5.2-.1-.4 5.3 2.8-2.3v5.1l-6.9-.1zm13.3 9.4c-1.2.3-2.5.6-3.8.7v-7.5h6.2c-.7 2.7-1.5 5-2.4 6.8zm-3.8-9.4v-7.2l1.2-.9 6.3-.1c0 2.9-.3 5.7-.7 8.2h-6.8zm7.2 8.1c.6-1.7 1.2-3.5 1.6-5.6h5.1c-1.8 2.4-4.1 4.3-6.7 5.6zm2.1-8.1c.4-2.6.7-5.3.7-8.2l7.8-.1c-.1 3-.9 5.8-2.2 8.3h-6.3z"/></svg>