<svg xmlns="http://www.w3.org/2000/svg" viewBox="0 0 128 64" enable-background="new 0 0 128 64"><style type="text/css">.st0{fill:#C7CBD7;} .st1{fill:#83868E;}</style><path class="st0" d="M50.08 20.44c-.57-.33-1.21-.49-1.85-.49-.64 0-1.27.16-1.85.49l-12.55 7.24v-4.05c0-1.32-.7-2.54-1.85-3.2-.57-.33-1.21-.49-1.85-.49-.64 0-1.27.16-1.85.49l-14.39 8.31c-1.14.66-1.85 1.88-1.85 3.2 0 1.32.7 2.54 1.85 3.2l14.39 8.31c.57.33 1.21.49 1.85.49.64 0 1.27-.16 1.85-.49 1.14-.66 1.85-1.88 1.85-3.2v-4.05l12.55 7.24c.57.33 1.21.49 1.85.49.64 0 1.27-.16 1.85-.49 1.14-.66 1.85-1.88 1.85-3.2v-16.6c0-1.32-.71-2.54-1.85-3.2zm-19.93 19.82l-14.39-8.31 14.39-8.31v16.62zm18.09 0l-14.39-8.31 14.39-8.31v16.62z"/><path class="st1" d="M114.08 20.49c-.57-.33-1.21-.49-1.85-.49-.64 0-1.27.16-1.85.49l-12.55 7.24v-4.05c0-1.32-.7-2.54-1.85-3.2-.55-.32-1.19-.48-1.83-.48s-1.27.16-1.85.49l-14.38 8.31c-1.14.66-1.85 1.88-1.85 3.2 0 1.32.7 2.54 1.85 3.2l14.39 8.31c.57.33 1.21.49 1.85.49s1.27-.16 1.85-.49c1.14-.66 1.85-1.88 1.85-3.2v-4.05l12.55 7.24c.57.33 1.21.49 1.85.49.64 0 1.27-.16 1.85-.49 1.14-.66 1.85-1.88 1.85-3.2v-16.61c-.03-1.32-.74-2.54-1.88-3.2zm-19.93 19.82l-14.39-8.31 14.39-8.31v16.62zm18.09 0l-14.39-8.31 14.39-8.31v16.62z"/></svg>