<svg xmlns="http://www.w3.org/2000/svg" viewBox="0 0 64 64" enable-background="new 0 0 64 64"><style type="text/css">.st0{fill:#C7CBD7;}</style><path class="st0" d="M47.4 39.6c-6.9 4-11.9 4.1-18.8.1-.5-.3-.7-.8-.4-1.3l2.5-4.6c.1-.2-.1-.5-.3-.5l-15.3 3.2c-.2 0-.3.2-.2.4l5.5 15c.1.3.5.3.6 0l2.5-4.6c.3-.5.8-.7 1.3-.4 8.2 3.9 17.3 1.5 22.8-6.9.1-.3 0-.4-.2-.4zM16.5 24.9c6.8-4.2 11.8-4.4 18.8-.5.5.3.7.8.4 1.3l-2.4 4.7c-.1.2.1.5.4.5l15.2-3.5c.2 0 .3-.2.2-.4l-5.9-14.9c-.1-.3-.5-.3-.6 0l-2.4 4.7c-.3.5-.8.7-1.3.5-8.3-3.7-17.3-1.1-22.7 7.3 0 .2.1.4.3.3z"/></svg>