<svg xmlns="http://www.w3.org/2000/svg" viewBox="0 0 128 64" enable-background="new 0 0 128 64"><style type="text/css">.st0{fill:#C7CBD7;} .st1{fill:#83868E;}</style><path class="st0" d="M32 12c-11 0-20 9-20 20s9 20 20 20 20-9 20-20-9-20-20-20zm0 36c-8.8 0-16-7.2-16-16 0-3.7 1.3-7.1 3.4-9.8l22.4 22.4c-2.7 2.1-6.1 3.4-9.8 3.4zm12.6-6.2l-22.4-22.4c2.7-2.1 6.1-3.4 9.8-3.4 8.8 0 16 7.2 16 16 0 3.7-1.3 7.1-3.4 9.8zM51 23.1l1-1.4c0-.5 0-1.1-.1-1.6h-.1c-.2-1.4-1.3-2.3-2.2-3.2-1.3-1.4-2.7-2.8-4.2-4.1-.4-.3-1-.5-1.5-.8h-1.6c-.1.1-.2.2-.3.2-.5.2-.9.4-1.3.7 4.5 2.1 8.2 5.7 10.3 10.2zM42.6 21.4c-1.9-1.9-4.2-3.2-6.8-3.9-.2.2-.3.4-.5.5-.4.4-.3.6 0 .9.9.8 1.7 1.7 2.5 2.5 2.4 2.4 4.9 4.8 7.3 7.3.3.3.6.5 1 .1.2-.1.4-.3.5-.5-.7-2.6-2.1-5-4-6.9zM37.7 24.3c-.5-.5-.8-.5-1.3 0-1.2 1.4-2.5 2.7-3.8 4l2.7 2.7 4.5-4.7c-.6-.5-1.4-1.2-2.1-2zM20 40.9l.1.1c.6.2 1.2.3 1.7.5.2.1.5.3.6.6l.3 1.5c.2 0 .3.1.4.2l8-8.4-2.8-2.8-.1.1-7.8 7.8c-.2.1-.3.2-.4.4zM35.2 22.4c-.8-.8-1.4-1.5-2-2.1-1.3 1.3-2.7 2.7-4.1 4l-.3.3 2.2 2.1 3.8-3.8c.2-.2.3-.4.4-.5zM18.8 39c.1-.2.3-.4.4-.5l7.5-7.5-2.2-2.1-7.1 7.1c.4 1 .8 2 1.4 3zM41.7 28.7c-1.4 1.4-3 2.9-4.5 4.3l2.3 2.3 3.1-3.1c.4-.5.9-.9 1.3-1.2l-2.2-2.3zM25.2 45.2l-.1.1c1 .5 2.1.9 3.3 1.2l6.9-6.9-2.2-2.2-.9.9-7 6.9zM16.9 46.8c-.2-.2-.5-.4-.5-.7-.8-.9-1.6-1.9-2.3-3-.6 2.1-1.2 4.3-1.9 6.4l-.3.6c0 .6 0 1.3.1 1.9h2c0-.1.1-.2.1-.2 2.2-.6 4.5-1.2 6.8-1.9-1-.6-2-1.4-2.9-2.2-.6-.1-.7-.6-1.1-.9z"/><path class="st1" d="M96 12c-11 0-20 9-20 20s9 20 20 20 20-9 20-20-9-20-20-20zm0 36c-8.8 0-16-7.2-16-16 0-3.7 1.3-7.1 3.4-9.8l22.4 22.4c-2.7 2.1-6.1 3.4-9.8 3.4zm12.6-6.2l-22.4-22.4c2.7-2.1 6.1-3.4 9.8-3.4 8.8 0 16 7.2 16 16 0 3.7-1.3 7.1-3.4 9.8zM115 23.1l1-1.4c0-.5 0-1.1-.1-1.6h-.1c-.2-1.4-1.3-2.3-2.2-3.2-1.3-1.4-2.7-2.8-4.2-4.1-.4-.3-1-.5-1.5-.8h-1.6c-.1.1-.2.2-.3.2-.5.2-.9.4-1.3.7 4.5 2.1 8.2 5.7 10.3 10.2zM106.6 21.4c-1.9-1.9-4.2-3.2-6.8-3.9-.2.2-.3.4-.5.5-.4.4-.3.6 0 .9.9.8 1.7 1.7 2.5 2.5 2.4 2.4 4.9 4.8 7.3 7.3.3.3.6.5 1 .1.2-.1.4-.3.5-.5-.7-2.6-2.1-5-4-6.9zM101.7 24.3c-.5-.5-.8-.5-1.3 0-1.2 1.4-2.5 2.7-3.8 4l2.7 2.7 4.5-4.7c-.6-.5-1.4-1.2-2.1-2zM84 40.9c.7.3 1.3.4 1.8.6.2.1.5.3.6.6l.3 1.5c.2 0 .3.1.4.2l8-8.4-2.8-2.8-.1.1-7.8 7.8c-.2.1-.3.2-.4.4zM99.2 22.4c-.8-.8-1.4-1.5-2-2.1-1.3 1.3-2.7 2.7-4.1 4l-.3.3 2.2 2.1 3.8-3.8c.2-.2.3-.4.4-.5zM82.8 39c.1-.2.3-.4.4-.5l7.5-7.5-2.2-2.1-7.1 7.1c.4 1 .8 2 1.4 3zM105.7 28.7c-1.4 1.4-3 2.9-4.5 4.3l2.3 2.3 3.1-3.1c.4-.5.9-.9 1.3-1.2l-2.2-2.3zM89.2 45.2c.9.6 2 1 3.2 1.3l6.9-6.9-2.2-2.2-.9.9-7 6.9zM80.9 46.8c-.2-.2-.5-.4-.5-.7-.8-.9-1.6-1.9-2.3-3-.6 2.1-1.2 4.3-1.9 6.4l-.3.6c0 .6 0 1.3.1 1.9h2c0-.1.1-.2.1-.2 2.2-.6 4.5-1.2 6.8-1.9-1-.6-2-1.4-2.9-2.2-.6-.1-.7-.6-1.1-.9z"/></svg>