<svg xmlns="http://www.w3.org/2000/svg" viewBox="0 0 128 64" enable-background="new 0 0 128 64"><style type="text/css">.st0{fill:#C7CBD7;} .st1{fill:#83868E;}</style><path class="st0" d="M42.5 24h-13v28h20.5v-20.5l-7.5-7.5zm.5 4.1l2.4 2.4h-2.4v-2.4zm4.4 21.4h-15.5v-23h8.5v6.5h6.9l.1 16.5zM32.1 13.3h-2.8v-1.3h-3.3v1.3h-2.9v4.3h9zM38.2 16.3v6.699999999999999h3v-9.7h-8.3v3h3zM17.1 21.9v-5.6h5.2v-3h-8.2v35.8h14v-3h-11z"/><path class="st1" d="M106.5 24h-13v28h20.5v-20.5l-7.5-7.5zm.5 4.1l2.4 2.4h-2.4v-2.4zm4.4 21.4h-15.5v-23h8.5v6.5h6.9l.1 16.5zM96.1 13.3h-2.8v-1.3h-3.3v1.3h-2.9v4.3h9zM102.2 16.3v6.699999999999999h3v-9.7h-8.3v3h3zM81.1 21.9v-5.6h5.2v-3h-8.2v35.8h14v-3h-11z"/></svg>