<?xml version="1.0" encoding="utf-8"?>
<!-- Generator: Adobe Illustrator 21.0.1, SVG Export Plug-In . SVG Version: 6.00 Build 0)  -->
<svg version="1.1" id="Layer_1" xmlns="http://www.w3.org/2000/svg" xmlns:xlink="http://www.w3.org/1999/xlink" x="0px" y="0px"
	 viewBox="0 0 128 64" style="enable-background:new 0 0 128 64;" xml:space="preserve">
<style type="text/css">
	.st0{fill:#C7CBD7;}
	.st1{fill:#83868E;}
</style>
<g>
	<polygon class="st0" points="17.543,52 25.186,52 25.186,21.281 30.536,21.281 21.364,12 12.192,21.281 17.543,21.281 	"/>
	<g>
		<polygon class="st0" points="51.808,18.166 45.021,18.166 45.021,16.172 43.593,16.172 43.593,18.166 36.783,18.166 
			36.783,16.172 35.354,16.172 35.354,18.166 29.215,18.166 30.627,19.595 35.354,19.595 35.354,21.307 36.783,21.307 
			36.783,19.595 43.593,19.595 43.593,21.307 45.021,21.307 45.021,19.595 50.38,19.595 50.38,46.743 26.436,46.743 26.436,48.172 
			51.808,48.172 		"/>
		<polygon class="st0" points="28.545,16.172 27.244,16.172 28.545,17.487 		"/>
		<path class="st0" d="M30.267,45.342h3.644h1.072h3.643h1.072h3.644h1.072h4.715v-4.568v-1.072v-3.496v-1.072v-3.496v-1.072v-4.568
			h-4.715h-1.072h-3.644h-1.072h-3.643h-1.072h-3.644h-1.072h-2.759v1.071h2.762v3.497h-2.762v1.071h2.762v3.496h-2.762v1.072h2.762
			v3.496h-2.762v1.071h2.761v3.496h-2.761v1.074h2.759H30.267z M44.413,27.069h3.644v3.497h-3.644V27.069z M44.413,31.637h3.644
			v3.496h-3.644V31.637z M44.413,36.205h3.644v3.496h-3.644V36.205z M44.413,40.772h3.644v3.496h-3.644V40.772z M39.699,27.069
			h3.644v3.497h-3.644V27.069z M39.698,31.637h3.644v3.496h-3.644V31.637z M39.698,36.205h3.644v3.496h-3.644V36.205z
			 M39.698,40.772h3.644v3.496h-3.644V40.772z M34.984,27.069h3.643v3.497h-3.643V27.069z M34.984,31.637h3.643v3.496h-3.643V31.637
			z M34.984,36.205h3.643v3.496h-3.643V36.205z M34.984,40.772h3.643v3.496h-3.643V40.772z M30.269,27.069h3.644v3.497h-3.644
			V27.069z M30.269,31.637h3.644v3.496h-3.644V31.637z M30.269,36.205h3.644v3.496h-3.644V36.205z M30.268,40.772h3.644v3.496
			h-3.644V40.772z"/>
		<polygon class="st0" points="42.289,36.579 41.52,37.348 40.752,36.579 40.146,37.185 40.915,37.953 40.146,38.722 40.752,39.328 
			41.52,38.56 42.289,39.328 42.896,38.722 42.126,37.953 42.896,37.185 		"/>
		<rect x="26.436" y="22.62" class="st0" width="11.262" height="1.786"/>
		<rect x="42.421" y="22.62" class="st0" width="5.447" height="1.786"/>
	</g>
</g>
<g>
	<polygon class="st1" points="81.543,52 89.186,52 89.186,21.281 94.536,21.281 85.364,12 76.192,21.281 81.543,21.281 	"/>
	<g>
		<polygon class="st1" points="115.808,18.166 109.021,18.166 109.021,16.172 107.593,16.172 107.593,18.166 100.783,18.166 
			100.783,16.172 99.354,16.172 99.354,18.166 93.215,18.166 94.627,19.595 99.354,19.595 99.354,21.307 100.783,21.307 
			100.783,19.595 107.593,19.595 107.593,21.307 109.021,21.307 109.021,19.595 114.38,19.595 114.38,46.743 90.436,46.743 
			90.436,48.172 115.808,48.172 		"/>
		<polygon class="st1" points="92.545,16.172 91.244,16.172 92.545,17.487 		"/>
		<path class="st1" d="M94.267,45.342h3.644h1.072h3.643h1.072h3.644h1.072h4.715v-4.568v-1.072v-3.496v-1.072v-3.496v-1.072v-4.568
			h-4.715h-1.072h-3.644h-1.072h-3.643h-1.072h-3.644h-1.072h-2.759v1.071h2.762v3.497h-2.762v1.071h2.762v3.496h-2.762v1.072h2.762
			v3.496h-2.762v1.071h2.761v3.496h-2.761v1.074h2.759H94.267z M108.413,27.069h3.644v3.497h-3.644V27.069z M108.413,31.637h3.644
			v3.496h-3.644V31.637z M108.413,36.205h3.644v3.496h-3.644V36.205z M108.413,40.772h3.644v3.496h-3.644V40.772z M103.699,27.069
			h3.644v3.497h-3.644V27.069z M103.698,31.637h3.644v3.496h-3.644V31.637z M103.698,36.205h3.644v3.496h-3.644V36.205z
			 M103.698,40.772h3.644v3.496h-3.644V40.772z M98.984,27.069h3.643v3.497h-3.643V27.069z M98.984,31.637h3.643v3.496h-3.643
			V31.637z M98.984,36.205h3.643v3.496h-3.643V36.205z M98.984,40.772h3.643v3.496h-3.643V40.772z M94.269,27.069h3.644v3.497
			h-3.644V27.069z M94.269,31.637h3.644v3.496h-3.644V31.637z M94.269,36.205h3.644v3.496h-3.644V36.205z M94.268,40.772h3.644
			v3.496h-3.644V40.772z"/>
		<polygon class="st1" points="106.289,36.579 105.52,37.348 104.752,36.579 104.146,37.185 104.915,37.953 104.146,38.722 
			104.752,39.328 105.52,38.56 106.289,39.328 106.896,38.722 106.126,37.953 106.896,37.185 		"/>
		<rect x="90.436" y="22.62" class="st1" width="11.262" height="1.786"/>
		<rect x="106.421" y="22.62" class="st1" width="5.447" height="1.786"/>
	</g>
</g>
</svg>
