<?xml version="1.0" encoding="utf-8"?>
<!-- Generator: Adobe Illustrator 21.0.1, SVG Export Plug-In . SVG Version: 6.00 Build 0)  -->
<svg version="1.1" id="Layer_1" xmlns="http://www.w3.org/2000/svg" xmlns:xlink="http://www.w3.org/1999/xlink" x="0px" y="0px"
	 viewBox="0 0 128 64" style="enable-background:new 0 0 128 64;" xml:space="preserve">
<style type="text/css">
	.st0{fill:#C7CBD7;}
	.st1{fill:#83868E;}
</style>
<g>
	<polygon class="st0" points="19.532,52 27.175,52 27.175,21.281 32.526,21.281 23.354,12 14.182,21.281 19.532,21.281 	"/>
	<g>
		<polygon class="st0" points="42.494,16.025 42.494,18.564 31.598,18.564 32.388,19.364 43.294,19.364 43.294,15.225 
			28.299,15.225 29.089,16.025 		"/>
		<polygon class="st0" points="28.425,22.531 28.425,23.325 40.098,23.325 40.098,20.822 40.097,20.822 33.83,20.822 35.519,22.531 
					"/>
		<rect x="28.425" y="25.603" class="st0" width="9.009" height="2.503"/>
		<polygon class="st0" points="45.104,32.885 45.104,30.382 45.104,30.382 28.425,30.382 28.425,32.885 		"/>
		<polygon class="st0" points="49.018,35.145 49.018,37.683 28.425,37.683 28.425,38.483 49.818,38.483 49.818,34.345 
			28.425,34.345 28.425,35.145 		"/>
		<rect x="28.425" y="39.941" class="st0" width="20.143" height="2.503"/>
		<rect x="28.425" y="44.722" class="st0" width="14.025" height="2.503"/>
	</g>
</g>
<g>
	<polygon class="st1" points="83.533,52 91.175,52 91.175,21.281 96.526,21.281 87.354,12 78.182,21.281 83.533,21.281 	"/>
	<g>
		<polygon class="st1" points="106.494,16.025 106.494,18.564 95.598,18.564 96.388,19.364 107.294,19.364 107.294,15.225 
			92.299,15.225 93.089,16.025 		"/>
		<polygon class="st1" points="92.425,22.531 92.425,23.325 104.098,23.325 104.098,20.822 104.097,20.822 97.83,20.822 
			99.519,22.531 		"/>
		<rect x="92.425" y="25.603" class="st1" width="9.009" height="2.503"/>
		<polygon class="st1" points="109.104,32.885 109.104,30.382 109.104,30.382 92.425,30.382 92.425,32.885 		"/>
		<polygon class="st1" points="113.018,35.145 113.018,37.683 92.425,37.683 92.425,38.483 113.818,38.483 113.818,34.345 
			92.425,34.345 92.425,35.145 		"/>
		<rect x="92.425" y="39.941" class="st1" width="20.143" height="2.503"/>
		<rect x="92.425" y="44.722" class="st1" width="14.025" height="2.503"/>
	</g>
</g>
</svg>
