<?xml version="1.0" encoding="utf-8"?>
<!-- Generator: Adobe Illustrator 21.0.1, SVG Export Plug-In . SVG Version: 6.00 Build 0)  -->
<svg version="1.1" id="Layer_1" xmlns="http://www.w3.org/2000/svg" xmlns:xlink="http://www.w3.org/1999/xlink" x="0px" y="0px"
	 viewBox="0 0 490 490" style="enable-background:new 0 0 490 490;" xml:space="preserve">
<style type="text/css">
	.st0{fill:#C7CBD7;}
</style>
<g>
	<path class="st0" d="M448.6,235.4c-62.5-76.9-130-115.9-200.8-115.9c-28,0-56.4,6.3-84.5,18.5c-22.1,9.7-43.9,23.1-65,40
		c-35.6,28.5-56.5,56.9-57.4,58c-4.1,5.6-3.9,13.2,0.4,18.6c62.4,77,130,115.9,200.8,115.9c28,0,56.4-6.3,84.5-18.5
		c22.1-9.7,43.9-23.1,65-40c35.6-28.5,56.5-56.9,57.4-58C453.1,248.4,452.9,240.8,448.6,235.4z M372,288.8
		c-29.4,23.4-75.7,51.3-129.8,51.3c-58.4,0-115.3-32-169.4-95.2C81.4,234.8,97,218,118,201.3c29.4-23.4,75.7-51.3,129.8-51.3
		c58.4,0,115.3,32,169.4,95.2C408.6,255.3,392.9,272.2,372,288.8z"/>
	<path class="st0" d="M301,229.9c-8.4,0-15.2,6.8-15.2,15.2c0,22.6-18.3,40.9-40.9,40.9S204,267.6,204,245.1s18.3-40.9,40.9-40.9
		c8.4,0,15.2-6.8,15.2-15.2s-6.8-15.2-15.2-15.2c-39.4,0-71.3,32-71.3,71.3s31.9,71.3,71.3,71.3s71.3-32,71.3-71.3
		C316.2,236.7,309.4,229.9,301,229.9z"/>
</g>
</svg>
