<?xml version="1.0" encoding="utf-8"?>
<!-- Generator: Adobe Illustrator 21.0.1, SVG Export Plug-In . SVG Version: 6.00 Build 0)  -->
<svg version="1.1" id="Layer_1" xmlns="http://www.w3.org/2000/svg" xmlns:xlink="http://www.w3.org/1999/xlink" x="0px" y="0px"
	 viewBox="0 0 128 64" style="enable-background:new 0 0 128 64;" xml:space="preserve">
<style type="text/css">
	.st0{fill:#C7CBD7;}
	.st1{fill:#83868E;}
</style>
<g>
	<path class="st0" d="M32,12c-11,0-20,9-20,20s9,20,20,20s20-9,20-20S43,12,32,12z M32,48c-8.8,0-16-7.2-16-16
		c0-3.7,1.3-7.1,3.4-9.8l22.4,22.4C39.1,46.7,35.7,48,32,48z M44.6,41.8L22.2,19.4c2.7-2.1,6.1-3.4,9.8-3.4c8.8,0,16,7.2,16,16
		C48,35.7,46.7,39.1,44.6,41.8z"/>
	<path class="st0" d="M45.597,28.532l0.781-0.781c-1.438-4.858-5.271-8.691-10.129-10.129l-0.781,0.781L45.597,28.532z"/>
	<path class="st0" d="M51.002,23.117c1.34-1.396,1.329-3.611-0.046-4.986l-5.088-5.088c-1.375-1.375-3.59-1.386-4.986-0.046
		C45.326,15.084,48.916,18.674,51.002,23.117z"/>
	<path class="st0" d="M20.056,41.037c0.832,1.098,1.81,2.075,2.907,2.907l8.383-8.383l-2.907-2.907L20.056,41.037z"/>
	
		<rect x="33.144" y="25.512" transform="matrix(0.7071 -0.7071 0.7071 0.7071 -8.8226 33.8359)" class="st0" width="6.576" height="4.111"/>
	<path class="st0" d="M25.135,45.322c0.831,0.43,1.704,0.786,2.616,1.056l7.206-7.206l-1.836-1.836L25.135,45.322z"/>
	
		<rect x="37.291" y="30.416" transform="matrix(0.7071 -0.7071 0.7071 0.7071 -10.5401 37.9824)" class="st0" width="6.576" height="2.597"/>
	
		<rect x="28.998" y="22.123" transform="matrix(0.7071 -0.7071 0.7071 0.7071 -7.105 29.6894)" class="st0" width="6.576" height="2.597"/>
	<path class="st0" d="M26.664,30.879l-1.836-1.836l-7.206,7.206c0.27,0.912,0.626,1.785,1.056,2.616L26.664,30.879z"/>
	<path class="st0" d="M17.583,48.422c-0.313,0.078-0.644-0.014-0.872-0.242l-0.891-0.891c-0.228-0.228-0.32-0.559-0.242-0.872
		l0.256-1.031c-0.736-0.887-1.384-1.845-1.968-2.846l-1.81,7.28c-0.029,0.119-0.045,0.24-0.046,0.362L12,51.541
		c-0.002,0.254,0.205,0.461,0.459,0.459l1.358-0.01c0.122-0.001,0.244-0.016,0.362-0.046l7.28-1.81
		c-1.001-0.584-1.959-1.232-2.846-1.968L17.583,48.422z"/>
</g>
<g>
	<path class="st1" d="M96,12c-11,0-20,9-20,20s9,20,20,20s20-9,20-20S107,12,96,12z M96,48c-8.8,0-16-7.2-16-16
		c0-3.7,1.3-7.1,3.4-9.8l22.4,22.4C103.1,46.7,99.7,48,96,48z M108.6,41.8L86.2,19.4c2.7-2.1,6.1-3.4,9.8-3.4c8.8,0,16,7.2,16,16
		C112,35.7,110.7,39.1,108.6,41.8z"/>
	<path class="st1" d="M109.597,28.532l0.781-0.781c-1.438-4.858-5.271-8.691-10.129-10.129l-0.781,0.781L109.597,28.532z"/>
	<path class="st1" d="M115.002,23.117c1.34-1.396,1.329-3.611-0.046-4.986l-5.088-5.088c-1.375-1.375-3.59-1.386-4.986-0.046
		C109.326,15.084,112.916,18.674,115.002,23.117z"/>
	<path class="st1" d="M84.056,41.037c0.832,1.098,1.81,2.075,2.907,2.907l8.383-8.383l-2.907-2.907L84.056,41.037z"/>
	
		<rect x="97.144" y="25.512" transform="matrix(0.7071 -0.7071 0.7071 0.7071 9.9226 79.0908)" class="st1" width="6.576" height="4.111"/>
	<path class="st1" d="M89.135,45.322c0.831,0.43,1.704,0.786,2.616,1.056l7.206-7.206l-1.836-1.836L89.135,45.322z"/>
	
		<rect x="101.291" y="30.416" transform="matrix(0.7071 -0.7071 0.7071 0.7071 8.2051 83.2372)" class="st1" width="6.576" height="2.597"/>
	
		<rect x="92.998" y="22.123" transform="matrix(0.7071 -0.7071 0.7071 0.7071 11.6401 74.9443)" class="st1" width="6.576" height="2.597"/>
	<path class="st1" d="M90.664,30.879l-1.836-1.836l-7.206,7.206c0.27,0.912,0.626,1.785,1.056,2.616L90.664,30.879z"/>
	<path class="st1" d="M81.583,48.422c-0.313,0.078-0.644-0.014-0.872-0.242l-0.891-0.891c-0.228-0.228-0.32-0.559-0.242-0.872
		l0.256-1.031c-0.736-0.887-1.384-1.845-1.968-2.846l-1.81,7.28c-0.029,0.119-0.045,0.24-0.046,0.362L76,51.541
		c-0.002,0.254,0.205,0.461,0.459,0.459l1.358-0.01c0.122-0.001,0.244-0.016,0.362-0.046l7.28-1.81
		c-1.001-0.584-1.959-1.232-2.846-1.968L81.583,48.422z"/>
</g>
</svg>
