<?xml version="1.0" encoding="utf-8"?>
<!-- Generator: Adobe Illustrator 21.0.1, SVG Export Plug-In . SVG Version: 6.00 Build 0)  -->
<svg version="1.1" id="Layer_1" xmlns="http://www.w3.org/2000/svg" xmlns:xlink="http://www.w3.org/1999/xlink" x="0px" y="0px"
	 viewBox="0 0 490 490" style="enable-background:new 0 0 490 490;" xml:space="preserve">
<style type="text/css">
	.st0{fill:#C7CBD7;}
	.st1{fill:#081B21;}
	.st2{fill:#B8B12E;}
</style>
<g>
	<path class="st0" d="M387,357.9L273,244L386.9,130c7.9-7.9,7.9-20.8,0-29c-7.8-8-20.8-8-29-0.1L244,214.9L130.1,101
		c-7.9-7.9-20.8-7.9-28.9-0.1l-0.1,0.1c-3.9,3.9-6.1,9.1-6.1,14.5c0,5.4,2.2,10.7,6.1,14.5l114,114l-114,113.9
		c-7.9,7.9-7.9,20.8-0.1,28.9l0.1,0.1c3.9,3.9,9.1,6.1,14.5,6.1c5.4,0,10.7-2.2,14.5-6.1l114-114l113.9,114
		c7.9,7.9,20.8,7.9,28.9,0.1l0.1-0.1C394.9,379,395,366,387,357.9z"/>
	<g>
		<polygon class="st1" points="129.4,319 72.4,262 123.5,211.7 180.1,268.3 187.3,261.1 123.5,196.7 58.1,262 122.2,326.2 		"/>
		<path class="st1" d="M398.3,126c-1.3,3.2-3.2,6.3-5.7,8.9l22.3,22.3L306,266.4l7.3,7.3l116.5-116.5L398.3,126z"/>
		<polygon class="st1" points="266.5,306 191.6,381.2 169,358.6 161.8,365.7 191.6,395.5 273.8,313.3 		"/>
	</g>
	<g>
		<polygon class="st2" points="244,283.5 169,358.6 191.6,381.2 266.6,306.1 		"/>
		<path class="st2" d="M392.8,134.7c-0.2,0.2-0.4,0.4-0.6,0.6L283.6,244l22.6,22.6l109.4-109.4L392.8,134.7z"/>
		<polygon class="st2" points="180.1,268.3 123.5,211.7 72.4,262 129.4,319 		"/>
	</g>
</g>
</svg>
