<svg xmlns="http://www.w3.org/2000/svg" viewBox="0 0 64 64" enable-background="new 0 0 64 64"><style type="text/css">.st0{fill:#C7CBD7;}</style><path class="st0" d="M37.9 34.5c.9-2.3 3.3-3.5 5.8-3.2v-6.3c-2.4.3-4.8-.9-5.8-3.1-1-2.3-.2-4.8 1.8-6.4l-4.5-4.5c-1.5 1.9-4 2.8-6.3 1.9-2.3-.9-3.5-3.3-3.2-5.8h-6.3c.3 2.4-.9 4.8-3.1 5.8-2.3 1-4.8.2-6.4-1.8l-4.5 4.5c1.9 1.5 2.8 4 1.9 6.3-1 2.1-3.4 3.4-5.9 3.1v6.3c2.4-.3 4.8.9 5.8 3.1 1 2.3.2 4.8-1.8 6.4l4.5 4.5c1.5-1.9 4-2.8 6.3-1.9 2.3.9 3.5 3.3 3.2 5.8h6.3c-.3-2.4.9-4.8 3.1-5.8 2.3-1 4.8-.2 6.4 1.8l4.5-4.5c-1.9-1.4-2.7-3.9-1.8-6.2zm-8-3.4c-1.6 4.1-6.2 6-10.3 4.4-4.1-1.6-6-6.2-4.4-10.3 1.6-4.1 6.2-6 10.3-4.4 4 1.6 6 6.2 4.4 10.3zM59.6 49.4c.5-1.2 1.7-1.8 3-1.7v-3.3c-1.3.2-2.5-.5-3-1.6-.5-1.2-.1-2.5.9-3.3l-2.3-2.3c-.8 1-2.1 1.4-3.2 1-1.2-.5-1.8-1.7-1.7-3h-3.3c.2 1.3-.5 2.5-1.6 3-1.2.5-2.5.1-3.3-.9l-2.3 2.3c1 .8 1.4 2.1 1 3.2-.5 1.2-1.7 1.8-3 1.7v3.3c1.3-.2 2.5.5 3 1.6.5 1.2.1 2.5-.9 3.3l2.3 2.3c.8-1 2.1-1.4 3.2-1 1.2.5 1.8 1.7 1.7 3h3.3c-.2-1.3.5-2.5 1.6-3 1.2-.5 2.5-.1 3.3.9l2.3-2.3c-1.1-.7-1.5-2-1-3.2zm-4.2-1.8c-.8 2.1-3.2 3.1-5.3 2.3-2.1-.9-3.1-3.2-2.2-5.3.8-2.1 3.2-3.1 5.3-2.3 2.1.8 3.1 3.2 2.2 5.3z"/></svg>