<?xml version="1.0" encoding="utf-8"?>
<!-- Generator: Adobe Illustrator 21.0.1, SVG Export Plug-In . SVG Version: 6.00 Build 0)  -->
<svg version="1.1" id="Layer_1" xmlns="http://www.w3.org/2000/svg" xmlns:xlink="http://www.w3.org/1999/xlink" x="0px" y="0px"
	 viewBox="0 0 64 64" style="enable-background:new 0 0 64 64;" xml:space="preserve">
<style type="text/css">
	.st0{fill:#D32929;}
</style>
<g>
	<path class="st0" d="M36.2,22.5c2.6-1.5,5.3-2.9,8.1-4c1.1-0.4,2.4-0.9,3.5-0.9c0.7,0,1.4,0,2.1,0.4c1.1,0.7,1.3,1.9,0.3,2.8
		c-0.4,0.4-1,0.8-1.5,1.1c-2.3,1.4-4.5,2.6-6.8,4c-6.3,4.1-11.8,9-16.8,14.6c-2.7,2.9-5.1,6-7.3,9.2c-0.4,0.5-0.8,0.7-1.5,0.5
		c-0.5-0.2-0.6-0.5-0.7-0.9C15.1,47.1,24.1,30.1,36.2,22.5z"/>
</g>
<g>
	<path class="st0" d="M19,15.9c0.2-0.4,0.3-0.6,0.8-0.7c0.6-0.1,0.9,0.1,1.2,0.7c1.4,3.4,3,6.7,4.9,9.9c3.5,6.1,7.5,11.7,12.4,16.7
		c1.8,1.7,3.5,3.2,5.3,5c0.4,0.4,0.9,0.8,1.1,1.3c0.7,1,0.3,2.1-0.8,2.5c-0.6,0.2-1.2,0.2-1.9,0c-1-0.2-2-0.8-3-1.5
		c-2.3-1.5-4.4-3.3-6.5-5.2C23.3,35.3,18.2,17.7,19,15.9z"/>
</g>
</svg>
