<svg xmlns="http://www.w3.org/2000/svg" viewBox="0 0 128 64" enable-background="new 0 0 128 64"><style type="text/css">.st0{fill:#C7CBD7;} .st1{fill:#83868E;}</style><path class="st0" d="M13.92 43.46c.57.33 1.21.49 1.85.49.64 0 1.27-.16 1.85-.49l12.55-7.24v4.05c0 1.32.7 2.54 1.85 3.2.57.33 1.21.49 1.85.49s1.27-.16 1.85-.49l14.39-8.31c1.14-.66 1.85-1.88 1.85-3.2 0-1.32-.7-2.54-1.85-3.2l-14.39-8.31c-.57-.33-1.21-.49-1.85-.49s-1.27.16-1.85.49c-1.14.66-1.85 1.88-1.85 3.2v4.05l-12.55-7.24c-.57-.33-1.21-.49-1.85-.49-.64 0-1.27.16-1.85.49-1.14.66-1.85 1.88-1.85 3.2v16.62c0 1.3.71 2.52 1.85 3.18zm19.93-19.82l14.39 8.31-14.39 8.31v-16.62zm-18.09 0l14.39 8.31-14.39 8.31v-16.62z"/><path class="st1" d="M77.92 43.51c.57.33 1.21.49 1.85.49.64 0 1.27-.16 1.85-.49l12.55-7.24v4.05c0 1.32.7 2.54 1.85 3.2.57.33 1.21.49 1.85.49s1.27-.16 1.85-.49l14.39-8.31c1.14-.66 1.85-1.88 1.85-3.2 0-1.32-.7-2.54-1.85-3.2l-14.39-8.31c-.6-.34-1.24-.5-1.87-.5s-1.27.16-1.85.49c-1.14.66-1.85 1.88-1.85 3.2v4.05l-12.55-7.24c-.56-.34-1.2-.5-1.84-.5-.64 0-1.27.16-1.85.49-1.14.66-1.85 1.88-1.85 3.2v16.62c.01 1.32.72 2.54 1.86 3.2zm19.93-19.82l14.39 8.31-14.39 8.31v-16.62zm-18.09 0l14.39 8.31-14.39 8.31v-16.62z"/></svg>