<?xml version="1.0" encoding="utf-8"?>
<!-- Generator: Adobe Illustrator 21.0.1, SVG Export Plug-In . SVG Version: 6.00 Build 0)  -->
<svg version="1.1" id="Layer_1" xmlns="http://www.w3.org/2000/svg" xmlns:xlink="http://www.w3.org/1999/xlink" x="0px" y="0px"
	 viewBox="0 0 64 64" style="enable-background:new 0 0 64 64;" xml:space="preserve">
<style type="text/css">
	.st0{fill:#C7CBD7;}
</style>
<g>
	<path class="st0" d="M47.4,39.6c-6.9,4-11.9,4.1-18.8,0.1c-0.5-0.3-0.7-0.8-0.4-1.3l2.5-4.6c0.1-0.2-0.1-0.5-0.3-0.5l-15.3,3.2
		c-0.2,0-0.3,0.2-0.2,0.4l5.5,15c0.1,0.3,0.5,0.3,0.6,0l2.5-4.6c0.3-0.5,0.8-0.7,1.3-0.4c8.2,3.9,17.3,1.5,22.8-6.9
		C47.7,39.7,47.6,39.6,47.4,39.6z"/>
	<path class="st0" d="M16.5,24.9c6.8-4.2,11.8-4.4,18.8-0.5c0.5,0.3,0.7,0.8,0.4,1.3l-2.4,4.7c-0.1,0.2,0.1,0.5,0.4,0.5l15.2-3.5
		c0.2,0,0.3-0.2,0.2-0.4l-5.9-14.9c-0.1-0.3-0.5-0.3-0.6,0l-2.4,4.7c-0.3,0.5-0.8,0.7-1.3,0.5c-8.3-3.7-17.3-1.1-22.7,7.3
		C16.2,24.8,16.3,25,16.5,24.9z"/>
</g>
</svg>
