<?xml version="1.0" encoding="utf-8"?>
<!-- Generator: Adobe Illustrator 21.0.1, SVG Export Plug-In . SVG Version: 6.00 Build 0)  -->
<svg version="1.1" id="Layer_1" xmlns="http://www.w3.org/2000/svg" xmlns:xlink="http://www.w3.org/1999/xlink" x="0px" y="0px"
	 viewBox="0 0 64 64" style="enable-background:new 0 0 64 64;" xml:space="preserve">
<style type="text/css">
	.st0{fill:#C7CBD7;}
</style>
<path class="st0" d="M38.712,16.576c-6.102-6.102-16.033-6.102-22.135,0c-6.101,6.103-6.101,16.033,0,22.137
	c5.434,5.433,13.897,6.015,19.995,1.773c0.128,0.607,0.422,1.187,0.894,1.659l8.886,8.886c1.295,1.292,3.388,1.292,4.676,0
	c1.294-1.294,1.294-3.386,0-4.676l-8.886-8.889c-0.47-0.468-1.05-0.763-1.657-0.892C44.729,30.475,44.147,22.013,38.712,16.576z
	 M35.906,35.907c-4.556,4.556-11.97,4.556-16.524,0c-4.553-4.556-4.553-11.968,0-16.524c4.554-4.554,11.968-4.554,16.524,0
	C40.462,23.939,40.462,31.352,35.906,35.907z"/>
<path class="st0" d="M19.04,25.752c-0.073,0-0.146-0.01-0.219-0.033c-0.396-0.121-0.62-0.54-0.499-0.936
	c0.462-1.515,1.301-2.91,2.425-4.035c1.277-1.277,2.873-2.171,4.614-2.585c0.407-0.096,0.807,0.153,0.903,0.556
	c0.096,0.403-0.153,0.808-0.556,0.903c-1.472,0.35-2.821,1.106-3.901,2.187c-0.951,0.952-1.66,2.131-2.051,3.412
	C19.658,25.544,19.361,25.752,19.04,25.752z M29.434,19.572c-0.049,0-0.098-0.004-0.148-0.015c-0.536-0.107-1.088-0.161-1.641-0.161
	c-0.414,0-0.75-0.336-0.75-0.75s0.336-0.75,0.75-0.75c0.651,0,1.302,0.064,1.935,0.19c0.406,0.081,0.669,0.476,0.588,0.882
	C30.097,19.325,29.784,19.572,29.434,19.572z"/>
</svg>
