<svg xmlns="http://www.w3.org/2000/svg" viewBox="0 0 64 64" enable-background="new 0 0 64 64"><style type="text/css">.st0{fill:#C7CBD7;}</style><path class="st0" d="M39 40.3c.9-.9.9-2.4 0-3.3l-2.1-2.1h12.5c1.3 0 2.3-1.1 2.3-2.3 0-1.3-1.1-2.3-2.3-2.3h-12.5l2.1-2.3c.9-.9.9-2.4 0-3.3-.9-.9-2.4-.9-3.3 0l-6.4 6.3c-.8.8-.8 2.1 0 2.9l6.4 6.4c.9.9 2.4.9 3.3 0zM41.6 44.7c-2.9 2.2-6.5 3.5-10.5 3.2-7.8-.5-14.1-6.9-14.4-14.7-.4-8.9 6.7-16.2 15.5-16.2 3.5 0 6.8 1.2 9.4 3.2.9.7 2.1.6 2.9-.1l.1-.1c.9-.9.8-2.5-.2-3.3-3.3-2.6-7.5-4.1-12-4.1-10.6-.1-19.5 8.4-20.1 18.9-.6 11.5 8.6 21.1 20 21.1 4.6 0 8.8-1.5 12.2-4.1 1-.8 1.2-2.3.2-3.3l-.1-.1c-.9-.9-2.1-1-3-.4z"/></svg>