<?xml version="1.0" encoding="utf-8"?>
<!-- Generator: Adobe Illustrator 21.0.1, SVG Export Plug-In . SVG Version: 6.00 Build 0)  -->
<svg version="1.1" id="Layer_1" xmlns="http://www.w3.org/2000/svg" xmlns:xlink="http://www.w3.org/1999/xlink" x="0px" y="0px"
	 viewBox="0 0 128 64" style="enable-background:new 0 0 128 64;" xml:space="preserve">
<style type="text/css">
	.st0{fill:#C7CBD7;}
	.st1{fill:#83868E;}
</style>
<polygon class="st0" points="52,31.5 44.9,24.5 44.9,28.6 34.9,28.6 34.9,19.1 39,19.1 32,12 25,19.1 29.1,19.1 29.1,28.6 
	19.1,28.6 19.1,24.5 12,31.5 19.1,38.6 19.1,34.4 29.1,34.4 29.1,44.9 25,44.9 32,52 39,44.9 34.9,44.9 34.9,34.4 44.9,34.4 
	44.9,38.6 "/>
<polygon class="st1" points="117,31.5 109.9,24.5 109.9,28.6 99.9,28.6 99.9,19.1 104,19.1 97,12 90,19.1 94.1,19.1 94.1,28.6 
	84.1,28.6 84.1,24.5 77,31.5 84.1,38.6 84.1,34.4 94.1,34.4 94.1,44.9 90,44.9 97,52 104,44.9 99.9,44.9 99.9,34.4 109.9,34.4 
	109.9,38.6 "/>
</svg>
