<?xml version="1.0" encoding="utf-8"?>
<!-- Generator: Adobe Illustrator 21.0.1, SVG Export Plug-In . SVG Version: 6.00 Build 0)  -->
<svg version="1.1" id="Layer_1" xmlns="http://www.w3.org/2000/svg" xmlns:xlink="http://www.w3.org/1999/xlink" x="0px" y="0px"
	 viewBox="0 0 128 64" style="enable-background:new 0 0 128 64;" xml:space="preserve">
<style type="text/css">
	.st0{fill:#C7CBD7;}
	.st1{fill:#83868E;}
</style>
<g>
	<polygon class="st0" points="19.623,52 27.266,52 27.266,21.281 32.617,21.281 23.445,12 14.273,21.281 19.623,21.281 	"/>
	<g>
		<polygon class="st0" points="43.203,19.61 43.203,15.472 28.633,15.472 32.723,19.61 		"/>
		<polygon class="st0" points="39.339,21.736 39.339,22.904 28.516,22.904 28.516,23.572 40.007,23.572 40.007,21.068 
			40.007,21.068 34.164,21.068 34.823,21.736 		"/>
		<polygon class="st0" points="36.676,26.516 36.676,27.685 28.516,27.685 28.516,28.352 37.343,28.352 37.343,25.849 
			28.516,25.849 28.516,26.516 		"/>
		<polygon class="st0" points="44.346,31.297 44.346,32.464 28.516,32.464 28.516,33.132 45.014,33.132 45.014,30.628 
			45.013,30.628 28.516,30.628 28.516,31.297 		"/>
		<rect x="28.516" y="34.591" class="st0" width="21.211" height="4.138"/>
		<polygon class="st0" points="47.81,40.856 47.81,42.024 28.516,42.024 28.516,42.691 48.478,42.691 48.478,40.188 28.516,40.188 
			28.516,40.856 		"/>
		<polygon class="st0" points="41.691,45.636 41.691,46.804 28.516,46.804 28.516,47.472 42.359,47.472 42.359,44.969 
			28.516,44.969 28.516,45.636 		"/>
	</g>
</g>
<g>
	<polygon class="st1" points="83.623,52 91.266,52 91.266,21.281 96.617,21.281 87.445,12 78.273,21.281 83.623,21.281 	"/>
	<g>
		<polygon class="st1" points="107.203,19.61 107.203,15.472 92.633,15.472 96.723,19.61 		"/>
		<polygon class="st1" points="103.339,21.736 103.339,22.904 92.516,22.904 92.516,23.572 104.007,23.572 104.007,21.068 
			104.007,21.068 98.164,21.068 98.823,21.736 		"/>
		<polygon class="st1" points="100.676,26.516 100.676,27.685 92.516,27.685 92.516,28.352 101.343,28.352 101.343,25.849 
			92.516,25.849 92.516,26.516 		"/>
		<polygon class="st1" points="108.346,31.297 108.346,32.464 92.516,32.464 92.516,33.132 109.014,33.132 109.014,30.628 
			109.013,30.628 92.516,30.628 92.516,31.297 		"/>
		<rect x="92.516" y="34.591" class="st1" width="21.211" height="4.138"/>
		<polygon class="st1" points="111.81,40.856 111.81,42.024 92.516,42.024 92.516,42.691 112.478,42.691 112.478,40.188 
			92.516,40.188 92.516,40.856 		"/>
		<polygon class="st1" points="105.691,45.636 105.691,46.804 92.516,46.804 92.516,47.472 106.359,47.472 106.359,44.969 
			92.516,44.969 92.516,45.636 		"/>
	</g>
</g>
</svg>
