<svg xmlns="http://www.w3.org/2000/svg" viewBox="0 0 128 64" enable-background="new 0 0 128 64"><style type="text/css">.st0{fill:#C7CBD7;} .st1{fill:#83868E;}</style><path class="st0" d="M38.4 25.6v-13.6h-26.4v26.4h13.6v13.6h26.4v-26.4h-13.6zm-12 10h-11.7v-20.9h20.9v11.7l-1.2 1.2-6.8 6.8-1.2 1.2zm22.9 13.7h-20.9v-11.7l1.2-1.2 6.8-6.8 1.2-1.2h11.7v20.9zM25.8 20.5v-3h-8.3v8.4h2.9v-3.3l6.6 6.5 2.1-2.1-6.6-6.5zM34.9 37l6.6 6.5h-3.3v3h8.3v-8.4h-2.9v3.3l-6.6-6.5z"/><path class="st1" d="M102.4 25.6v-13.6h-26.4v26.4h13.6v13.6h26.4v-26.4h-13.6zm-12 10h-11.7v-20.9h20.9v11.7l-1.2 1.2-6.8 6.8-1.2 1.2zm22.9 13.7h-20.9v-11.7l1.2-1.2 6.8-6.8 1.2-1.2h11.7v20.9zM89.8 20.5v-3h-8.3v8.4h2.9v-3.3l6.6 6.5 2.1-2.1-6.6-6.5zM98.9 37l6.6 6.5h-3.3v3h8.3v-8.4h-2.9v3.3l-6.6-6.5z"/></svg>