<svg xmlns="http://www.w3.org/2000/svg" viewBox="0 0 128 64" enable-background="new 0 0 128 64"><style type="text/css">.st0{fill:#C7CBD7;} .st1{fill:#83868E;}</style><path class="st0" d="M52 22.9l-20-10.9-20 11.3 20 10.4 20-10.8zm-20-8.5l15.7 8.5-15.7 8.5-15.7-8.2 15.7-8.8zM42.9 29.4l4.8 2.6-15.7 8.5-15.7-8.2 4.8-2.6-2.2-1.2-6.9 3.9 20 10.5 20-10.9-6.9-3.7zM42.9 38.6l4.8 2.5-15.7 8.5-15.7-8.1 4.8-2.7-2.2-1.1-6.9 3.9 20 10.4 20-10.9-6.9-3.7z"/><path class="st1" d="M117 22.9l-20-10.9-20 11.3 20 10.4 20-10.8zm-20-8.5l15.7 8.5-15.7 8.5-15.7-8.2 15.7-8.8zM107.9 29.4l4.8 2.6-15.7 8.5-15.7-8.2 4.8-2.6-2.2-1.2-6.9 3.9 20 10.5 20-10.9-6.9-3.7zM107.9 38.6l4.8 2.5-15.7 8.5-15.7-8.1 4.8-2.7-2.2-1.1-6.9 3.9 20 10.4 20-10.9-6.9-3.7z"/></svg>