<svg xmlns="http://www.w3.org/2000/svg" viewBox="0 0 64 64" enable-background="new 0 0 64 64"><style type="text/css">.st0{fill:#C7CBD7;}</style><path class="st0" d="M45.533 28.09c.015-.489 6.882-4.734 5.393-6.578 0 0-.756 1.378-1.778.77-.6-.437 5.289-7.993 1.778-9.956 0 0 .044 1.63-.415 2.193l-16.625 18.577c-.087-.098-.406-.672-.495-1.005-.089-.333-.067-.889 0-1.245.061-.328.667-.556.667-.556s-.756-.933-1.089-1.2c-.333-.267-1.067-.111-1.289-.178-.222-.067-.289-.556-.933-.644l-1.089.622s.726-.044 1.015.133c.289.178.563.719.607 1.007.044.289-.133.926-.378 1.437l-.089 1.4-.282.014-16.794-19.014c-.459-.563-.563-1.867-.563-1.867-3.511 1.963 2.378 9.786 1.778 10.223-1.022.607-1.896-.711-1.896-.711-1.489 1.845 4.845 5.586 4.86 6.075-.682.2-4.341-.585-5.363-2.074-1.089 2.489 5.26 4.815 5.215 5.245.156.496-.978.467-1.511.444.244.845 5.845 2.252 6.252 2.756-.563.319-3.4.393-4.267-.119.867 4.623 8.041 3.526 8.445 3.556.018.593-1.348.993-1.659 1.304.867.578 3.022.148 3.348-1.007l.005-.012c.324-.016 1.032.012 1.076.101.181.362.133 6.015-1.674 2.089 0 0-.158.975-.148 1.289.015.489.533 2.534-.385 1.985-.163.311.015 1.822 1.971 1.733 0 0-.311-.91-.296-1.163.015-.259.458-.869.815-.896.385-.03.563.667.474 1.252.37-.17.533-.467.622-.644.089-.178-.22-1.037-.415-1.17-.281-.193-.371-.601-.341-.845.03-.237.535-.372.8-.341.637.074.541 1.282.504 2.326.585-.526.548-2.067.415-2.356s-.563-.556-.607-.889c-.044-.333.311-.711.333-1.148.021-.405.107-.577.333-.704.237-.133.341-.119.444.059.11.189-.178 1.763 0 1.941.333.333.721.382.867.682.511 1.052.259 1.571.126 2.045.978-.059.667-1.215.83-1.422.267.193.504 1.793.207 2.815 0 0 .826-.582 1.026-.57.252.015.144.356-.011.789.3.011.911.033.867-.444 1.033.156 1.067-.989 1.067-.989s-1.106.282-1.141-.237c-.015-.222.785-.919.756-1.526-.035-.725-.919-1.615-.919-1.615s-.141.911-.341 1.133c-.2.222-.6.089-.778-.111l-.067-1.245c-.018-.351.117-1.047.175-1.325.717.367 2.555.986 3.381.436-.311-.311-1.378-.845-1.36-1.437.404-.03 7.938 1.259 8.805-3.363-.867.511-3.667.6-4.23.282.407-.504 6.03-1.882 6.275-2.726-.533.022-1.6.141-1.445-.356-.044-.43 6.423-3.178 5.334-5.667-1.023 1.487-5.512 2.842-6.193 2.642zM32.154 17.378c4.144 0 7.89 1.696 10.588 4.43l1.762-2.051c-3.174-3.137-7.535-5.075-12.35-5.075-4.61 0-8.802 1.777-11.937 4.681l1.742 2.064c2.663-2.509 6.248-4.049 10.195-4.049zM32.154 47.129c-7.696 0-14.027-5.845-14.796-13.339l-2.767-1.193c.184 9.545 7.974 17.228 17.563 17.228 9.615 0 17.422-7.724 17.565-17.305l-2.754 1.088c-.685 7.58-7.053 13.521-14.811 13.521z"/></svg>