<svg xmlns="http://www.w3.org/2000/svg" viewBox="0 0 128 64" enable-background="new 0 0 128 64"><style type="text/css">.st0{fill:#C7CBD7;} .st1{fill:#83868E;}</style><path class="st0" d="M28.6 18.5h-15.6v33.5h24.5v-24.5l-8.9-9zm3.5 7.8h-2.8v-2.8l2.8 2.8zm2.4 22.7h-18.5v-27.4h10.2v7.7h8.3v19.7zM42.1 12h-15.6v5.7h3v-2.7h10.2v7.7h8.3v19.7h-9.8v3h12.8v-24.5l-8.9-8.9zm.6 7.7v-2.8l2.8 2.8h-2.8z"/><path class="st1" d="M92.6 18.5h-15.6v33.5h24.5v-24.5l-8.9-9zm3.5 7.8h-2.8v-2.8l2.8 2.8zm2.4 22.7h-18.5v-27.4h10.2v7.7h8.3v19.7zM106.1 12h-15.6v5.7h3v-2.7h10.2v7.7h8.3v19.7h-9.8v3h12.8v-24.5l-8.9-8.9zm.6 7.7v-2.8l2.8 2.8h-2.8z"/></svg>