<svg xmlns="http://www.w3.org/2000/svg" viewBox="0 0 128 64" enable-background="new 0 0 128 64"><style type="text/css">.st0{fill:#C7CBD7;} .st1{fill:#83868E;}</style><path class="st0" d="M38.4 25.6v-13.6h-26.4v26.4h13.6v13.6h26.4v-26.4h-13.6zm10.9 23.7h-20.9v-11.7l1.2-1.2-1.9-1.9-1.2 1.2h-11.8v-21h20.9v11.7l-1.2 1.2 1.9 1.9 1.2-1.2h11.7v21zM29.454 32.566l3.111-3.111 1.909 1.909-3.111 3.111zM26.1 24.1l-6.6-6.6-2 2.1 6.5 6.6h-3.3v2.9h8.4v-8.4h-3zM43.3 34.9h-8.4v8.4h3v-3.4l6.6 6.6 2-2.1-6.5-6.6h3.3z"/><path class="st1" d="M102.4 25.6v-13.6h-26.4v26.4h13.6v13.6h26.4v-26.4h-13.6zm10.9 23.7h-20.9v-11.7l1.2-1.2-1.9-1.9-1.2 1.2h-11.8v-21h20.9v11.7l-1.2 1.2 1.9 1.9 1.2-1.2h11.7v21zM93.454 32.566l3.111-3.111 1.909 1.909-3.111 3.111zM90.1 24.1l-6.6-6.6-2 2.1 6.5 6.6h-3.3v2.9h8.4v-8.4h-3zM107.3 34.9h-8.4v8.4h3v-3.4l6.6 6.6 2-2.1-6.5-6.6h3.3z"/></svg>