<svg xmlns="http://www.w3.org/2000/svg" viewBox="0 0 128 64" enable-background="new 0 0 128 64"><style type="text/css">.st0{fill:#83868E;} .st1{fill:#C7CBD7;}</style><path class="st0" d="M109.434 18.154c-1.275 0-2.308 1.033-2.308 2.308v10c0 .425-.345.769-.769.769-.425 0-.769-.345-.769-.769v-14.616c0-1.275-1.033-2.308-2.308-2.308s-2.308 1.033-2.308 2.308v13.077c0 .425-.345.769-.769.769-.425 0-.769-.345-.769-.769v-14.615c0-1.275-1.033-2.308-2.308-2.308s-2.308 1.033-2.308 2.308v14.615c0 .425-.345.769-.769.769-.425 0-.769-.345-.769-.769v-11.538c0-1.275-1.033-2.308-2.308-2.308s-2.308 1.033-2.308 2.308v19.231l-3.115-4.263c-.923-1.423-2.725-1.9-4.045-1.085-1.315.834-1.642 2.652-.731 4.071 0 0 5.025 7.605 7.166 10.86 2.143 3.255 5.612 5.801 12.1 5.801 10.742 0 11.703-8.295 11.703-10.769v-20.769c0-1.275-1.033-2.308-2.308-2.308z"/><path class="st1" d="M45.399 18.119c-1.275 0-2.308 1.033-2.308 2.308v10c0 .425-.345.769-.769.769-.425 0-.769-.345-.769-.769v-14.616c0-1.275-1.033-2.308-2.308-2.308s-2.308 1.033-2.308 2.308v13.077c0 .425-.345.769-.769.769-.425 0-.769-.345-.769-.769v-14.616c0-1.275-1.033-2.308-2.308-2.308s-2.308 1.033-2.308 2.308v14.615c0 .425-.345.769-.769.769-.425 0-.769-.345-.769-.769v-11.538c0-1.275-1.033-2.308-2.308-2.308s-2.308 1.033-2.308 2.308v19.231l-3.115-4.263c-.923-1.423-2.725-1.9-4.045-1.085-1.315.834-1.642 2.652-.731 4.071 0 0 5.025 7.605 7.166 10.86 2.142 3.255 5.611 5.802 12.098 5.802 10.742 0 11.703-8.295 11.703-10.769v-20.769c.001-1.275-1.032-2.308-2.306-2.308z"/></svg>