<svg xmlns="http://www.w3.org/2000/svg" viewBox="0 0 128 64" enable-background="new 0 0 128 64"><style type="text/css">.st0{fill:#83868E;} .st1{fill:#C7CBD7;}</style><path class="st0" d="M79.145 12h25.555v5.173h-25.555zM100.704 18.996h-18.69v3.129h18.691v-3.129zm-.834 2.294h-17.022v-1.46h17.022v1.46zM97.375 24.972h-15.361v3.129h15.361v-3.129zm-.834 2.294h-13.693v-1.46h13.693v1.46zM106.962 30.946h-24.948v3.129h24.949v-3.129zm-.834 2.295h-23.28v-1.46h23.28v1.46zM79.145 35.899h33.71v5.173h-33.71zM82.014 42.895v3.129h29.279v-3.129h-29.279zm28.444 2.295h-27.61v-1.46h27.61v1.46zM82.014 52h21.631v-3.129h-21.631v3.129zm.834-2.295h19.962v1.46h-19.962v-1.46z"/><path class="st1" d="M15.145 12h25.555v5.173h-25.555zM36.704 18.996h-18.69v3.129h18.691v-3.129zm-.834 2.294h-17.022v-1.46h17.022v1.46zM33.375 24.972h-15.361v3.129h15.361v-3.129zm-.834 2.294h-13.693v-1.46h13.693v1.46zM42.962 30.946h-24.948v3.129h24.949v-3.129zm-.834 2.295h-23.28v-1.46h23.28v1.46zM15.145 35.899h33.71v5.173h-33.71zM18.014 42.895v3.129h29.279v-3.129h-29.279zm28.444 2.295h-27.61v-1.46h27.61v1.46zM18.014 52h21.631v-3.129h-21.631v3.129zm.834-2.295h19.962v1.46h-19.962v-1.46z"/></svg>