<?xml version="1.0" encoding="utf-8"?>
<!-- Generator: Adobe Illustrator 21.0.1, SVG Export Plug-In . SVG Version: 6.00 Build 0)  -->
<svg version="1.1" id="Layer_1" xmlns="http://www.w3.org/2000/svg" xmlns:xlink="http://www.w3.org/1999/xlink" x="0px" y="0px"
	 viewBox="0 0 64 64" style="enable-background:new 0 0 64 64;" xml:space="preserve">
<style type="text/css">
	.st0{fill:#C7CBD7;}
</style>
<g>
	<polygon class="st0" points="27,27.1 44.8,19.3 37.1,36.9 19.3,44.8 	"/>
	<g>
		<path class="st0" d="M21.3,34.3C21.1,33.6,21,32.8,21,32c0-6.1,4.9-11,11-11c0.8,0,1.6,0.1,2.3,0.2l1.7-0.7
			c-1.3-0.4-2.6-0.7-4-0.7c-6.8,0-12.2,5.4-12.2,12.2c0,1.4,0.2,2.8,0.7,4L21.3,34.3z"/>
		<path class="st0" d="M42.8,29.8c0.2,0.8,0.2,1.5,0.2,2.3c0,6.1-4.9,11-11,11c-0.8,0-1.6-0.1-2.3-0.3l-1.7,0.8
			c1.3,0.4,2.6,0.7,3.9,0.7c6.7,0,12.2-5.4,12.2-12.2c0-1.3-0.3-2.7-0.7-3.9L42.8,29.8z"/>
	</g>
	<g>
		<path class="st0" d="M48.6,29.2c-0.4-2.4-1.3-4.7-2.7-6.6l-1.6,3.7c0.5,1,0.8,2,1,3.2l0,0l3.2,2.7l-3.2,2.7l0,0
			c-1.1,5.4-5.3,9.7-10.8,10.7l0,0L32,48.6l-2.7-3.2l0,0c-1.1-0.3-2.2-0.6-3.2-1.1l-3.6,1.6c1.9,1.3,4.2,2.3,6.6,2.7L32,52l2.8-3.4
			c7-1.2,12.6-6.8,13.8-13.8L52,32L48.6,29.2z"/>
		<path class="st0" d="M18.1,41.4l1.6-3.6c-0.5-1-0.8-2.1-1.1-3.2l0,0L15.4,32l3.2-2.7l0,0c1.1-5.4,5.3-9.7,10.8-10.7l0,0l2.7-3.2
			l2.7,3.2l0,0c1.2,0.2,2.2,0.6,3.3,1.1l3.6-1.6c-1.9-1.3-4.2-2.2-6.6-2.7L32,12l-2.8,3.4c-7,1.2-12.6,6.8-13.8,13.8L12,32l3.4,2.8
			C15.8,37.3,16.8,39.5,18.1,41.4z"/>
	</g>
</g>
</svg>
