<?xml version="1.0" encoding="utf-8"?>
<!-- Generator: Adobe Illustrator 21.0.1, SVG Export Plug-In . SVG Version: 6.00 Build 0)  -->
<svg version="1.1" id="Layer_1" xmlns="http://www.w3.org/2000/svg" xmlns:xlink="http://www.w3.org/1999/xlink" x="0px" y="0px"
	 viewBox="0 0 490 490" style="enable-background:new 0 0 490 490;" xml:space="preserve">
<style type="text/css">
	.st0{fill:#C7CBD7;}
</style>
<g>
	<path class="st0" d="M406,84c-5.9-6-15.5-5.9-21.5,0l-54,54c-67-30.4-138.4-23-206.5,21.5c-50.7,33.1-81.6,74.7-82.8,76.5
		c-4.1,5.6-3.9,13.2,0.4,18.6c28.9,35.5,59.1,63.1,90,82.3l-47.5,47.5c-5.9,5.9-5.9,15.5,0,21.5c3,3,6.8,4.5,10.7,4.5
		c3.9,0,7.8-1.5,10.7-4.5L406,105.5C411.9,99.6,411.9,90,406,84z M207.4,261.1c-2.2-5-3.3-10.4-3.3-16c0-10.9,4.2-21.2,12-29
		c12.2-12.2,30.1-15,45-8.7L207.4,261.1z M283.6,185c-27.6-17.7-64.9-14.5-88.9,9.5c-13.5,13.5-20.9,31.4-20.9,50.4
		c0,13.8,4,27.1,11.3,38.5l-31.3,31.3c-27.4-15.9-54.5-39.3-80.7-70c11.2-13.2,35-38.6,67.5-59.8c56.2-36.6,112.2-44.6,166.8-23.7
		L283.6,185z"/>
	<path class="st0" d="M448.6,235.4c-20.9-25.7-42.5-47.3-64.4-64.4c-6.7-5.2-16.2-4-21.4,2.6c-5.2,6.6-4,16.1,2.6,21.4
		c17.4,13.6,34.8,30.5,51.7,50.2c-10,11.7-29.4,32.6-55.7,51.8c-50.7,36.9-102,50.2-152.2,39.6c-8.2-1.8-16.3,3.5-18,11.7
		c-1.8,8.2,3.5,16.3,11.7,18c13.1,2.8,26.3,4.1,39.5,4.1c19.9,0,40-3.1,60-9.4c26.3-8.2,52.4-21.7,77.6-40.1
		c42.6-31.2,68-65.5,69.1-67C453,248.4,452.9,240.8,448.6,235.4z"/>
</g>
</svg>
