<?xml version="1.0" encoding="utf-8"?>
<!-- Generator: Adobe Illustrator 21.0.1, SVG Export Plug-In . SVG Version: 6.00 Build 0)  -->
<svg version="1.1" id="Layer_1" xmlns="http://www.w3.org/2000/svg" xmlns:xlink="http://www.w3.org/1999/xlink" x="0px" y="0px"
	 viewBox="0 0 128 64" style="enable-background:new 0 0 128 64;" xml:space="preserve">
<style type="text/css">
	.st0{fill:#83868E;}
	.st1{fill:#C7CBD7;}
</style>
<path class="st0" d="M109.434,18.154c-1.275,0-2.308,1.033-2.308,2.308v10c0,0.425-0.345,0.769-0.769,0.769
	c-0.425,0-0.769-0.345-0.769-0.769V15.846c0-1.275-1.033-2.308-2.308-2.308c-1.275,0-2.308,1.033-2.308,2.308v13.077
	c0,0.425-0.345,0.769-0.769,0.769c-0.425,0-0.769-0.345-0.769-0.769V14.308c0-1.275-1.033-2.308-2.308-2.308
	c-1.275,0-2.308,1.033-2.308,2.308v14.615c0,0.425-0.345,0.769-0.769,0.769c-0.425,0-0.769-0.345-0.769-0.769V17.385
	c0-1.275-1.033-2.308-2.308-2.308c-1.275,0-2.308,1.033-2.308,2.308v19.231l-3.115-4.263c-0.923-1.423-2.725-1.9-4.045-1.085
	c-1.315,0.834-1.642,2.652-0.731,4.071c0,0,5.025,7.605,7.166,10.86C90.082,49.454,93.551,52,100.039,52
	c10.742,0,11.703-8.295,11.703-10.769c0-2.474,0-20.769,0-20.769C111.742,19.187,110.709,18.154,109.434,18.154z"/>
<path class="st1" d="M45.399,18.119c-1.275,0-2.308,1.033-2.308,2.308v10c0,0.425-0.345,0.769-0.769,0.769
	c-0.425,0-0.769-0.345-0.769-0.769V15.811c0-1.275-1.033-2.308-2.308-2.308c-1.275,0-2.308,1.033-2.308,2.308v13.077
	c0,0.425-0.345,0.769-0.769,0.769c-0.425,0-0.769-0.345-0.769-0.769V14.272c0-1.275-1.033-2.308-2.308-2.308
	c-1.275,0-2.308,1.033-2.308,2.308v14.615c0,0.425-0.345,0.769-0.769,0.769c-0.425,0-0.769-0.345-0.769-0.769V17.349
	c0-1.275-1.033-2.308-2.308-2.308s-2.308,1.033-2.308,2.308V36.58l-3.115-4.263c-0.923-1.423-2.725-1.9-4.045-1.085
	c-1.315,0.834-1.642,2.652-0.731,4.071c0,0,5.025,7.605,7.166,10.86c2.142,3.255,5.611,5.802,12.098,5.802
	c10.742,0,11.703-8.295,11.703-10.769c0-2.474,0-20.769,0-20.769C47.706,19.152,46.673,18.119,45.399,18.119z"/>
</svg>
