<?xml version="1.0" encoding="utf-8"?>
<!-- Generator: Adobe Illustrator 21.0.1, SVG Export Plug-In . SVG Version: 6.00 Build 0)  -->
<svg version="1.1" id="Layer_1" xmlns="http://www.w3.org/2000/svg" xmlns:xlink="http://www.w3.org/1999/xlink" x="0px" y="0px"
	 viewBox="0 0 64 64" style="enable-background:new 0 0 64 64;" xml:space="preserve">
<style type="text/css">
	.st0{fill:#C7CBD7;}
</style>
<g>
	<g>
		<path class="st0" d="M49.7,22.7H14.3c-1.3,0-2.3-1-2.3-2.3l0,0c0-1.3,1-2.3,2.3-2.3h35.4c1.3,0,2.3,1,2.3,2.3l0,0
			C52,21.7,51,22.7,49.7,22.7z"/>
	</g>
	<g>
		<path class="st0" d="M49.7,34.3H14.3c-1.3,0-2.3-1-2.3-2.3l0,0c0-1.3,1-2.3,2.3-2.3h35.4c1.3,0,2.3,1,2.3,2.3l0,0
			C52,33.3,51,34.3,49.7,34.3z"/>
	</g>
	<g>
		<path class="st0" d="M49.7,45.8H14.3c-1.3,0-2.3-1-2.3-2.3l0,0c0-1.3,1-2.3,2.3-2.3h35.4c1.3,0,2.3,1,2.3,2.3l0,0
			C52,44.8,51,45.8,49.7,45.8z"/>
	</g>
</g>
</svg>
