<svg xmlns="http://www.w3.org/2000/svg" viewBox="0 0 128 64" enable-background="new 0 0 128 64"><style type="text/css">.st0{fill:#83868E;} .st1{fill:#C7CBD7;}</style><path class="st0" d="M103.7 13v3.173h-23.555v-3.173h23.555m1-1h-25.555v5.173h25.555v-5.173zM100.704 18.996h-18.69v3.129h18.691v-3.129zM97.375 24.972h-15.361v3.129h15.361v-3.129zM106.962 30.946h-24.948v3.129h24.949v-3.129zM111.855 36.899v3.173h-31.71v-3.173h31.71m1-1h-33.71v5.173h33.71v-5.173zM82.014 42.895v3.129h29.279v-3.129h-29.279zM82.014 52h21.631v-3.129h-21.631v3.129z"/><path class="st1" d="M39.7 13v3.173h-23.555v-3.173h23.555m1-1h-25.555v5.173h25.555v-5.173zM36.704 18.996h-18.69v3.129h18.691v-3.129zM33.375 24.972h-15.361v3.129h15.361v-3.129zM42.962 30.946h-24.948v3.129h24.949v-3.129zM47.855 36.899v3.173h-31.71v-3.173h31.71m1-1h-33.71v5.173h33.71v-5.173zM18.014 42.895v3.129h29.279v-3.129h-29.279zM18.014 52h21.631v-3.129h-21.631v3.129z"/></svg>