<?xml version="1.0" encoding="utf-8"?>
<!-- Generator: Adobe Illustrator 21.0.1, SVG Export Plug-In . SVG Version: 6.00 Build 0)  -->
<svg version="1.1" id="Layer_1" xmlns="http://www.w3.org/2000/svg" xmlns:xlink="http://www.w3.org/1999/xlink" x="0px" y="0px"
	 viewBox="0 0 128 64" style="enable-background:new 0 0 128 64;" xml:space="preserve">
<style type="text/css">
	.st0{fill:#C7CBD7;}
	.st1{fill:#83868E;}
</style>
<g>
	<polygon class="st0" points="27.266,12 19.623,12 19.623,42.719 14.273,42.719 23.445,52 32.617,42.719 27.266,42.719 	"/>
	<g>
		<rect x="28.516" y="16" class="st0" width="14.687" height="4.138"/>
		<polygon class="st0" points="39.339,22.264 39.339,23.432 28.516,23.432 28.516,24.1 40.007,24.1 40.007,21.597 40.006,21.597 
			28.516,21.597 28.516,22.264 		"/>
		<polygon class="st0" points="36.676,27.045 36.676,28.213 28.516,28.213 28.516,28.881 37.343,28.881 37.343,26.378 
			28.516,26.378 28.516,27.045 		"/>
		<polygon class="st0" points="44.346,31.825 44.346,32.993 28.516,32.993 28.516,33.66 45.014,33.66 45.014,31.157 45.013,31.157 
			28.516,31.157 28.516,31.825 		"/>
		<rect x="28.516" y="35.119" class="st0" width="21.211" height="4.138"/>
		<polygon class="st0" points="47.81,41.384 47.81,42.552 34.539,42.552 33.879,43.219 48.478,43.219 48.478,40.716 28.516,40.716 
			28.516,41.384 		"/>
		<polygon class="st0" points="41.691,46.164 41.691,47.332 29.815,47.332 29.155,48 42.359,48 42.359,45.497 31.629,45.497 
			30.969,46.164 		"/>
	</g>
</g>
<g>
	<polygon class="st1" points="91.266,12 83.623,12 83.623,42.719 78.273,42.719 87.445,52 96.617,42.719 91.266,42.719 	"/>
	<g>
		<rect x="92.516" y="16" class="st1" width="14.687" height="4.138"/>
		<polygon class="st1" points="103.339,22.264 103.339,23.432 92.516,23.432 92.516,24.1 104.007,24.1 104.007,21.597 
			104.006,21.597 92.516,21.597 92.516,22.264 		"/>
		<polygon class="st1" points="100.676,27.045 100.676,28.213 92.516,28.213 92.516,28.881 101.343,28.881 101.343,26.378 
			92.516,26.378 92.516,27.045 		"/>
		<polygon class="st1" points="108.346,31.825 108.346,32.993 92.516,32.993 92.516,33.66 109.014,33.66 109.014,31.157 
			109.013,31.157 92.516,31.157 92.516,31.825 		"/>
		<rect x="92.516" y="35.119" class="st1" width="21.211" height="4.138"/>
		<polygon class="st1" points="111.81,41.384 111.81,42.552 98.539,42.552 97.879,43.219 112.478,43.219 112.478,40.716 
			92.516,40.716 92.516,41.384 		"/>
		<polygon class="st1" points="105.691,46.164 105.691,47.332 93.815,47.332 93.155,48 106.359,48 106.359,45.497 95.629,45.497 
			94.969,46.164 		"/>
	</g>
</g>
</svg>
