<svg xmlns="http://www.w3.org/2000/svg" viewBox="0 0 64 64" enable-background="new 0 0 64 64"><style type="text/css">.st0{fill:#D32929;}</style><path class="st0" d="M36.2 22.5c2.6-1.5 5.3-2.9 8.1-4 1.1-.4 2.4-.9 3.5-.9.7 0 1.4 0 2.1.4 1.1.7 1.3 1.9.3 2.8-.4.4-1 .8-1.5 1.1l-6.8 4c-6.3 4.1-11.8 9-16.8 14.6-2.7 2.9-5.1 6-7.3 9.2-.4.5-.8.7-1.5.5-.5-.2-.6-.5-.7-.9-.5-2.2 8.5-19.2 20.6-26.8zM19 15.9c.2-.4.3-.6.8-.7.6-.1.9.1 1.2.7 1.4 3.4 3 6.7 4.9 9.9 3.5 6.1 7.5 11.7 12.4 16.7 1.8 1.7 3.5 3.2 5.3 5 .4.4.9.8 1.1 1.3.7 1 .3 2.1-.8 2.5-.6.2-1.2.2-1.9 0-1-.2-2-.8-3-1.5-2.3-1.5-4.4-3.3-6.5-5.2-9.2-9.3-14.3-26.9-13.5-28.7z"/></svg>