<?xml version="1.0" encoding="utf-8"?>
<!-- Generator: Adobe Illustrator 21.0.1, SVG Export Plug-In . SVG Version: 6.00 Build 0)  -->
<svg version="1.1" id="Layer_1" xmlns="http://www.w3.org/2000/svg" xmlns:xlink="http://www.w3.org/1999/xlink" x="0px" y="0px"
	 viewBox="0 0 128 64" style="enable-background:new 0 0 128 64;" xml:space="preserve">
<style type="text/css">
	.st0{fill:#C7CBD7;}
	.st1{fill:#83868E;}
</style>
<g>
	<path class="st0" d="M32,12c-11,0-20,9-20,20s9,20,20,20s20-9,20-20S43,12,32,12z M32,48c-8.8,0-16-7.2-16-16
		c0-3.7,1.3-7.1,3.4-9.8l22.4,22.4C39.1,46.7,35.7,48,32,48z M44.6,41.8L22.2,19.4c2.7-2.1,6.1-3.4,9.8-3.4c8.8,0,16,7.2,16,16
		C48,35.7,46.7,39.1,44.6,41.8z"/>
	<path class="st0" d="M51,23.1c0.3-0.5,0.7-0.9,1-1.4c0-0.5,0-1.1-0.1-1.6h-0.1c-0.2-1.4-1.3-2.3-2.2-3.2c-1.3-1.4-2.7-2.8-4.2-4.1
		c-0.4-0.3-1-0.5-1.5-0.8c-0.6,0-1.1,0-1.6,0c-0.1,0.1-0.2,0.2-0.3,0.2c-0.5,0.2-0.9,0.4-1.3,0.7C45.2,15,48.9,18.6,51,23.1z"/>
	<path class="st0" d="M42.6,21.4c-1.9-1.9-4.2-3.2-6.8-3.9c-0.2,0.2-0.3,0.4-0.5,0.5c-0.4,0.4-0.3,0.6,0,0.9
		c0.9,0.8,1.7,1.7,2.5,2.5c2.4,2.4,4.9,4.8,7.3,7.3c0.3,0.3,0.6,0.5,1,0.1c0.2-0.1,0.4-0.3,0.5-0.5C45.9,25.7,44.5,23.3,42.6,21.4
		L42.6,21.4z"/>
	<path class="st0" d="M37.7,24.3c-0.5-0.5-0.8-0.5-1.3,0c-1.2,1.4-2.5,2.7-3.8,4l2.7,2.7c1.5-1.6,3-3.1,4.5-4.7
		C39.2,25.8,38.4,25.1,37.7,24.3z"/>
	<path class="st0" d="M20,40.9l0.1,0.1c0.6,0.2,1.2,0.3,1.7,0.5c0.2,0.1,0.5,0.3,0.6,0.6c0.1,0.5,0.2,1,0.3,1.5
		c0.2,0,0.3,0.1,0.4,0.2c2.7-2.8,5.3-5.6,8-8.4l-2.8-2.8l-0.1,0.1c-2.6,2.6-5.2,5.2-7.8,7.8C20.2,40.6,20.1,40.7,20,40.9z"/>
	<path class="st0" d="M35.2,22.4c-0.8-0.8-1.4-1.5-2-2.1c-1.3,1.3-2.7,2.7-4.1,4c-0.1,0.1-0.2,0.2-0.3,0.3l2.2,2.1
		c1.3-1.3,2.6-2.6,3.8-3.8C35,22.7,35.1,22.5,35.2,22.4z"/>
	<path class="st0" d="M18.8,39c0.1-0.2,0.3-0.4,0.4-0.5c2.5-2.5,5-5,7.5-7.5l-2.2-2.1c-2.4,2.4-4.7,4.7-7.1,7.1
		C17.8,37,18.2,38,18.8,39z"/>
	<path class="st0" d="M41.7,28.7c-1.4,1.4-3,2.9-4.5,4.3l2.3,2.3c1-1,2.1-2.1,3.1-3.1c0.4-0.5,0.9-0.9,1.3-1.2
		C43.2,30.2,42.4,29.5,41.7,28.7z"/>
	<path class="st0" d="M25.2,45.2l-0.1,0.1c1,0.5,2.1,0.9,3.3,1.2l0,0c2.3-2.3,4.6-4.6,6.9-6.9l-2.2-2.2c-0.3,0.3-0.6,0.6-0.9,0.9
		C29.9,40.6,27.5,42.9,25.2,45.2z"/>
	<path class="st0" d="M16.9,46.8c-0.2-0.2-0.5-0.4-0.5-0.7c-0.8-0.9-1.6-1.9-2.3-3c-0.6,2.1-1.2,4.3-1.9,6.4
		c-0.1,0.2-0.2,0.4-0.3,0.6c0,0.6,0,1.3,0.1,1.9c0.6,0,1.3,0,2,0c0-0.1,0.1-0.2,0.1-0.2c2.2-0.6,4.5-1.2,6.8-1.9
		c-1-0.6-2-1.4-2.9-2.2C17.4,47.6,17.3,47.1,16.9,46.8z"/>
</g>
<g>
	<path class="st1" d="M96,12c-11,0-20,9-20,20s9,20,20,20s20-9,20-20S107,12,96,12z M96,48c-8.8,0-16-7.2-16-16
		c0-3.7,1.3-7.1,3.4-9.8l22.4,22.4C103.1,46.7,99.7,48,96,48z M108.6,41.8L86.2,19.4c2.7-2.1,6.1-3.4,9.8-3.4c8.8,0,16,7.2,16,16
		C112,35.7,110.7,39.1,108.6,41.8z"/>
	<path class="st1" d="M115,23.1c0.3-0.5,0.7-0.9,1-1.4c0-0.5,0-1.1-0.1-1.6h-0.1c-0.2-1.4-1.3-2.3-2.2-3.2c-1.3-1.4-2.7-2.8-4.2-4.1
		c-0.4-0.3-1-0.5-1.5-0.8c-0.6,0-1.1,0-1.6,0c-0.1,0.1-0.2,0.2-0.3,0.2c-0.5,0.2-0.9,0.4-1.3,0.7C109.2,15,112.9,18.6,115,23.1z"/>
	<path class="st1" d="M106.6,21.4c-1.9-1.9-4.2-3.2-6.8-3.9c-0.2,0.2-0.3,0.4-0.5,0.5c-0.4,0.4-0.3,0.6,0,0.9
		c0.9,0.8,1.7,1.7,2.5,2.5c2.4,2.4,4.9,4.8,7.3,7.3c0.3,0.3,0.6,0.5,1,0.1c0.2-0.1,0.4-0.3,0.5-0.5
		C109.9,25.7,108.5,23.3,106.6,21.4L106.6,21.4z"/>
	<path class="st1" d="M101.7,24.3c-0.5-0.5-0.8-0.5-1.3,0c-1.2,1.4-2.5,2.7-3.8,4l2.7,2.7c1.5-1.6,3-3.1,4.5-4.7
		C103.2,25.8,102.4,25.1,101.7,24.3z"/>
	<path class="st1" d="M84,40.9L84,40.9c0.7,0.3,1.3,0.4,1.8,0.6c0.2,0.1,0.5,0.3,0.6,0.6c0.1,0.5,0.2,1,0.3,1.5
		c0.2,0,0.3,0.1,0.4,0.2c2.7-2.8,5.3-5.6,8-8.4l-2.8-2.8l-0.1,0.1c-2.6,2.6-5.2,5.2-7.8,7.8C84.2,40.6,84.1,40.7,84,40.9z"/>
	<path class="st1" d="M99.2,22.4c-0.8-0.8-1.4-1.5-2-2.1c-1.3,1.3-2.7,2.7-4.1,4c-0.1,0.1-0.2,0.2-0.3,0.3l2.2,2.1
		c1.3-1.3,2.6-2.6,3.8-3.8C99,22.7,99.1,22.5,99.2,22.4z"/>
	<path class="st1" d="M82.8,39c0.1-0.2,0.3-0.4,0.4-0.5c2.5-2.5,5-5,7.5-7.5l-2.2-2.1c-2.4,2.4-4.7,4.7-7.1,7.1
		C81.8,37,82.2,38,82.8,39z"/>
	<path class="st1" d="M105.7,28.7c-1.4,1.4-3,2.9-4.5,4.3l2.3,2.3c1-1,2.1-2.1,3.1-3.1c0.4-0.5,0.9-0.9,1.3-1.2
		C107.2,30.2,106.4,29.5,105.7,28.7z"/>
	<path class="st1" d="M89.2,45.2L89.2,45.2c0.9,0.6,2,1,3.2,1.3l0,0c2.3-2.3,4.6-4.6,6.9-6.9l-2.2-2.2c-0.3,0.3-0.6,0.6-0.9,0.9
		C93.9,40.6,91.5,42.9,89.2,45.2z"/>
	<path class="st1" d="M80.9,46.8c-0.2-0.2-0.5-0.4-0.5-0.7c-0.8-0.9-1.6-1.9-2.3-3c-0.6,2.1-1.2,4.3-1.9,6.4
		c-0.1,0.2-0.2,0.4-0.3,0.6c0,0.6,0,1.3,0.1,1.9c0.6,0,1.3,0,2,0c0-0.1,0.1-0.2,0.1-0.2c2.2-0.6,4.5-1.2,6.8-1.9
		c-1-0.6-2-1.4-2.9-2.2C81.4,47.6,81.3,47.1,80.9,46.8z"/>
</g>
</svg>
