<?xml version="1.0" encoding="utf-8"?>
<!-- Generator: Adobe Illustrator 21.0.1, SVG Export Plug-In . SVG Version: 6.00 Build 0)  -->
<svg version="1.1" id="Layer_1" xmlns="http://www.w3.org/2000/svg" xmlns:xlink="http://www.w3.org/1999/xlink" x="0px" y="0px"
	 viewBox="0 0 64 64" style="enable-background:new 0 0 64 64;" xml:space="preserve">
<style type="text/css">
	.st0{display:none;fill:#CD8A37;}
	.st1{display:none;fill:#AF652C;}
	.st2{fill:#C7CBD7;}
</style>
<path class="st0" d="M38.02,44.321l1.213,1.009c0.332,0.277,0.803,0.362,1.188,0.165c0.589-0.302,1.219-0.5,1.869-0.578
	c1.479-0.178,3.024,0.212,4.267,1.226c2.428,1.979,2.794,5.566,0.814,7.995c-1.979,2.428-5.566,2.794-7.995,0.814
	c-1.213-0.988-1.91-2.377-2.059-3.823c-0.069-0.666-0.006-1.339,0.169-1.993c0.114-0.426-0.066-0.878-0.405-1.16l-1.214-1.01
	L23.532,36.702c0.827-0.836,1.484-1.784,1.964-2.801L38.02,44.321z"/>
<path class="st1" d="M26.136,26.911l-1.283,0.522c-0.461,0.187-0.756,0.654-0.7,1.148c0.049,0.427,0.062,0.856,0.044,1.284
	c-0.004,0.099-0.006,0.197-0.013,0.295c-0.061,0.76-0.23,1.511-0.506,2.229c-0.405,1.053-1.044,2.027-1.902,2.853
	c-0.103,0.099-0.2,0.202-0.309,0.296c-0.499,0.432-1.041,0.782-1.605,1.069c-3.182,1.617-7.178,0.94-9.617-1.877
	c-2.871-3.317-2.508-8.351,0.808-11.221c2.789-2.414,6.788-2.533,9.698-0.54c0.348,0.238,0.912,0.752,1.323,1.167
	c0.322,0.325,0.806,0.42,1.23,0.248l1.426-0.581l14.935-6.081l1.455-0.592c0.41-0.167,0.72-0.544,0.742-0.986
	c0.033-0.677,0.182-1.338,0.449-1.954c0.569-1.308,1.62-2.408,3.041-2.992c2.898-1.191,6.225,0.198,7.416,3.096
	s-0.198,6.225-3.096,7.416c-1.506,0.619-3.121,0.529-4.499-0.095c-0.598-0.271-1.143-0.649-1.617-1.116
	c-0.307-0.303-0.78-0.362-1.179-0.199l-1.466,0.597L26.136,26.911z"/>
<g>
	<path class="st2" d="M32,12c-11,0-20,9-20,20s9,20,20,20s20-9,20-20S43,12,32,12z M32,48c-8.8,0-16-7.2-16-16
		c0-3.7,1.3-7.1,3.4-9.8l22.4,22.4C39.1,46.7,35.7,48,32,48z M44.6,41.8L22.2,19.4c2.7-2.1,6.1-3.4,9.8-3.4c8.8,0,16,7.2,16,16
		C48,35.7,46.7,39.1,44.6,41.8z"/>
	<path class="st2" d="M45.597,28.532l0.781-0.781c-1.438-4.858-5.271-8.691-10.129-10.129l-0.781,0.781L45.597,28.532z"/>
	<path class="st2" d="M51.002,23.117c1.34-1.396,1.329-3.611-0.046-4.986l-5.088-5.088c-1.375-1.375-3.59-1.386-4.986-0.046
		C45.326,15.084,48.916,18.674,51.002,23.117z"/>
	<path class="st2" d="M20.056,41.037c0.832,1.098,1.81,2.075,2.907,2.907l8.383-8.383l-2.907-2.907L20.056,41.037z"/>
	
		<rect x="33.143" y="25.512" transform="matrix(0.7071 -0.7071 0.7071 0.7071 -8.8229 33.8354)" class="st2" width="6.576" height="4.111"/>
	<path class="st2" d="M25.135,45.322c0.831,0.43,1.704,0.786,2.616,1.056l7.206-7.206l-1.836-1.836L25.135,45.322z"/>
	
		<rect x="37.291" y="30.416" transform="matrix(0.7071 -0.7071 0.7071 0.7071 -10.5402 37.9823)" class="st2" width="6.576" height="2.597"/>
	
		<rect x="28.998" y="22.123" transform="matrix(0.7071 -0.7071 0.7071 0.7071 -7.1051 29.6894)" class="st2" width="6.576" height="2.597"/>
	<path class="st2" d="M26.664,30.879l-1.836-1.836l-7.206,7.206c0.27,0.912,0.626,1.785,1.056,2.616L26.664,30.879z"/>
	<path class="st2" d="M17.583,48.422c-0.313,0.078-0.644-0.014-0.872-0.242l-0.891-0.891c-0.228-0.228-0.32-0.559-0.242-0.872
		l0.256-1.031c-0.736-0.887-1.384-1.845-1.968-2.846l-1.81,7.28c-0.029,0.119-0.045,0.24-0.046,0.362L12,51.541
		c-0.002,0.254,0.205,0.461,0.459,0.459l1.358-0.01c0.122-0.001,0.244-0.016,0.362-0.046l7.28-1.81
		c-1.001-0.584-1.959-1.232-2.846-1.968L17.583,48.422z"/>
</g>
</svg>
