<?xml version="1.0" encoding="utf-8"?>
<!-- Generator: Adobe Illustrator 21.0.1, SVG Export Plug-In . SVG Version: 6.00 Build 0)  -->
<svg version="1.1" id="Layer_1" xmlns="http://www.w3.org/2000/svg" xmlns:xlink="http://www.w3.org/1999/xlink" x="0px" y="0px"
	 viewBox="0 0 128 64" style="enable-background:new 0 0 128 64;" xml:space="preserve">
<style type="text/css">
	.st0{fill:#C7CBD7;}
	.st1{fill:#83868E;}
</style>
<g>
	
		<rect x="40.082" y="15.219" transform="matrix(0.7071 -0.7071 0.7071 0.7071 -3.6362 35.9842)" class="st0" width="3.073" height="14.325"/>
	<path class="st0" d="M40.827,13.044l-1.411,1.411l10.129,10.129l1.411-1.411c1.392-1.392,1.392-3.649,0-5.042l-5.088-5.088
		C44.476,11.652,42.219,11.652,40.827,13.044z"/>
	<path class="st0" d="M37.304,23.789L18.582,42.511l1.57,0.359c0.487,0.111,0.867,0.491,0.978,0.978l0.359,1.57l18.722-18.722
		L37.304,23.789z"/>
	<path class="st0" d="M16.882,41.171c0.11-0.444,0.339-0.849,0.663-1.172l17.984-17.984l-1.836-1.836l-17.93,17.93
		c-0.692,0.692-1.183,1.56-1.419,2.51l-2.288,9.202c-0.029,0.119-0.045,0.24-0.046,0.362L12,51.541
		c-0.002,0.254,0.205,0.461,0.459,0.459l1.358-0.01c0.122-0.001,0.244-0.016,0.362-0.046l9.202-2.288
		c0.95-0.236,1.818-0.727,2.51-1.419l17.93-17.93l-1.836-1.836L24.002,46.455c-0.323,0.323-0.729,0.553-1.173,0.663l-5.247,1.304
		c-0.313,0.078-0.644-0.014-0.872-0.242l-0.891-0.891c-0.228-0.228-0.32-0.559-0.242-0.872L16.882,41.171z"/>
</g>
<g>
	
		<rect x="104.082" y="15.219" transform="matrix(0.7071 -0.7071 0.7071 0.7071 15.1089 81.239)" class="st1" width="3.073" height="14.325"/>
	<path class="st1" d="M104.827,13.044l-1.411,1.411l10.129,10.129l1.411-1.411c1.392-1.392,1.392-3.649,0-5.042l-5.088-5.088
		C108.476,11.652,106.219,11.652,104.827,13.044z"/>
	<path class="st1" d="M101.304,23.789L82.582,42.511l1.57,0.359c0.487,0.111,0.867,0.491,0.978,0.978l0.359,1.57l18.722-18.722
		L101.304,23.789z"/>
	<path class="st1" d="M80.882,41.171c0.11-0.444,0.339-0.849,0.663-1.172l17.984-17.984l-1.836-1.836l-17.93,17.93
		c-0.692,0.692-1.183,1.56-1.419,2.51l-2.288,9.202c-0.029,0.119-0.045,0.24-0.046,0.362L76,51.541
		c-0.002,0.254,0.205,0.461,0.459,0.459l1.358-0.01c0.122-0.001,0.244-0.016,0.362-0.046l9.202-2.288
		c0.95-0.236,1.818-0.727,2.51-1.419l17.93-17.93l-1.836-1.836L88.002,46.455c-0.323,0.323-0.729,0.553-1.173,0.663l-5.247,1.304
		c-0.313,0.078-0.644-0.014-0.872-0.242l-0.891-0.891c-0.228-0.228-0.32-0.559-0.242-0.872L80.882,41.171z"/>
</g>
</svg>
