<svg xmlns="http://www.w3.org/2000/svg" viewBox="0 0 128 64" enable-background="new 0 0 128 64"><style type="text/css">.st0{fill:#C7CBD7;} .st1{fill:#83868E;}</style><path class="st0" d="M12 50l.3-.6 3.3-11.2c.1-.4.4-.7.6-1l12.9-12.9c1.4-1.3 2.8-2.7 4.1-4 .6.6 1.2 1.3 2 2.1-.1.1-.2.3-.4.5l-15.6 15.6c-.4.4-.8 1-1 1.6l-1.7 5.7c-.2.5.1.7.4 1 .4.3.6 1 1.4.8l5.9-1.8c.4-.1.8-.3 1-.6 2.3-2.3 4.7-4.6 7-7 1.6-1.6 3.2-3.3 4.8-5l4.7-4.5c.7.8 1.5 1.5 2.3 2.3-.4.3-.9.7-1.3 1.2-4.8 4.8-9.6 9.5-14.3 14.3-1.3 1.3-2.7 2.1-4.4 2.5-3.3.9-6.6 1.8-9.8 2.7 0 0-.1.1-.1.2h-2c-.1-.6-.1-1.3-.1-1.9zM52 21.7c-.7 1-1.5 2-2.2 2.9-.1.1-.3.2-.3.3l-10.4-10.4c.8-.8 1.6-1.9 2.9-2.3.1 0 .2-.1.3-.2h1.6c.5.3 1.1.5 1.5.8 1.5 1.3 2.9 2.7 4.2 4.1.9.9 2 1.8 2.2 3.2h.1c.1.5.1 1.1.1 1.6zM22.7 43.6l-.3-1.5c-.1-.3-.4-.5-.6-.6-.6-.2-1.2-.3-1.9-.5l.5-.6 7.8-7.8c1.3-1.2 2.6-2.4 3.8-3.7 1.5-1.5 3-3 4.4-4.6.5-.5.8-.5 1.3 0 .7.8 1.5 1.5 2 2-5.6 5.9-11.1 11.7-16.6 17.5-.1-.1-.2-.2-.4-.2zM37.1 16c.3.3.5.5.7.6l9.7 9.7c.5.5.5.8 0 1.2l-1.5 1.3c-.4.4-.7.2-1-.1-2.4-2.5-4.9-4.9-7.3-7.3-.8-.8-1.6-1.7-2.5-2.5-.3-.3-.4-.5 0-.9.7-.6 1.3-1.3 1.9-2z"/><path class="st1" d="M76 50l.3-.6 3.3-11.2c.1-.4.4-.7.6-1l12.9-12.9c1.4-1.3 2.8-2.7 4.1-4 .6.6 1.2 1.3 2 2.1-.1.1-.2.3-.4.5l-15.6 15.6c-.4.4-.8 1-1 1.6l-1.7 5.7c-.2.5.1.7.4 1 .4.3.6 1 1.4.8l5.9-1.8c.4-.1.8-.3 1-.6 2.3-2.3 4.7-4.6 7-7 1.6-1.6 3.2-3.3 4.8-5l4.7-4.5c.7.8 1.5 1.5 2.3 2.3-.4.3-.9.7-1.3 1.2-4.8 4.8-9.6 9.5-14.3 14.3-1.3 1.3-2.7 2.1-4.4 2.5-3.3.9-6.6 1.8-9.8 2.7 0 0-.1.1-.1.2h-2c-.1-.6-.1-1.3-.1-1.9zM116 21.7c-.7 1-1.5 2-2.2 2.9-.1.1-.3.2-.3.3l-10.4-10.4c.8-.8 1.6-1.9 2.9-2.3.1 0 .2-.1.3-.2h1.6c.5.3 1.1.5 1.5.8 1.5 1.3 2.9 2.7 4.2 4.1.9.9 2 1.8 2.2 3.2h.1c.1.5.1 1.1.1 1.6zM86.7 43.6l-.3-1.5c-.1-.3-.4-.5-.6-.6-.6-.2-1.2-.3-1.9-.5l.5-.6 7.8-7.8c1.3-1.2 2.6-2.4 3.8-3.7 1.5-1.5 3-3 4.4-4.6.5-.5.8-.5 1.3 0 .7.8 1.5 1.5 2 2-5.6 5.9-11.1 11.7-16.6 17.5-.1-.1-.2-.2-.4-.2zM101.1 16c.3.3.5.5.7.6l9.7 9.7c.5.5.5.8 0 1.2l-1.5 1.3c-.4.4-.7.2-1-.1-2.4-2.5-4.9-4.9-7.3-7.3-.8-.8-1.6-1.7-2.5-2.5-.3-.3-.4-.5 0-.9.7-.6 1.3-1.3 1.9-2z"/></svg>