<?xml version="1.0" encoding="utf-8"?>
<!-- Generator: Adobe Illustrator 21.0.1, SVG Export Plug-In . SVG Version: 6.00 Build 0)  -->
<svg version="1.1" id="Layer_1" xmlns="http://www.w3.org/2000/svg" xmlns:xlink="http://www.w3.org/1999/xlink" x="0px" y="0px"
	 viewBox="0 0 128 64" style="enable-background:new 0 0 128 64;" xml:space="preserve">
<style type="text/css">
	.st0{fill:#C7CBD7;}
	.st1{fill:#83868E;}
</style>
<g>
	<path class="st0" d="M32.628,21.203l-2.939-2.939l-2.939,2.939h-0.34v3.214h15.307v3.828H26.41v2.789h4.998v2.844H26.41v1.584h7.35
		v2.844h-7.35v1.584h2.072v1.578h1.832v-1.578h9.816v2.844h-7.878l-3.488,3.53h19.597c1.918,0,3.472-1.555,3.472-3.472V21.203
		H32.628z M33.24,33.879v-2.844h4.949v2.844H33.24z M41.717,38.306h-6.125v-2.844h6.125V38.306z M45.763,38.306h-2.215v-2.844h2.215
		V38.306z M49.51,33.879h-9.488v-2.844h9.488V33.879z"/>
	<polygon class="st0" points="25.16,12 17.517,12 17.517,42.719 12.167,42.719 21.339,52 30.511,42.719 25.16,42.719 	"/>
</g>
<g>
	<path class="st1" d="M96.628,21.203l-2.939-2.939l-2.939,2.939h-0.34v3.214h15.307v3.828H90.41v2.789h4.998v2.844H90.41v1.584h7.35
		v2.844h-7.35v1.584h2.072v1.578h1.832v-1.578h9.816v2.844h-7.878l-3.488,3.53h19.597c1.918,0,3.472-1.555,3.472-3.472V21.203
		H96.628z M97.24,33.879v-2.844h4.949v2.844H97.24z M105.717,38.306h-6.125v-2.844h6.125V38.306z M109.763,38.306h-2.215v-2.844
		h2.215V38.306z M113.51,33.879h-9.488v-2.844h9.488V33.879z"/>
	<polygon class="st1" points="89.16,12 81.517,12 81.517,42.719 76.167,42.719 85.339,52 94.511,42.719 89.16,42.719 	"/>
</g>
</svg>
