<?xml version="1.0" encoding="utf-8"?>
<!-- Generator: Adobe Illustrator 21.0.1, SVG Export Plug-In . SVG Version: 6.00 Build 0)  -->
<svg version="1.1" id="Layer_1" xmlns="http://www.w3.org/2000/svg" xmlns:xlink="http://www.w3.org/1999/xlink" x="0px" y="0px"
	 viewBox="0 0 128 64" style="enable-background:new 0 0 128 64;" xml:space="preserve">
<style type="text/css">
	.st0{fill:#C7CBD7;}
	.st1{fill:#83868E;}
</style>
<polygon class="st0" points="35.5,11.8 28.5,11.8 28.5,32.8 23.6,32.8 32,41.3 40.4,32.8 35.5,32.8 "/>
<polygon class="st0" points="47.4,38.5 47.4,47.7 16.6,47.7 16.6,38.5 12,38.5 12,47.7 12,52.2 16.6,52.2 47.4,52.2 52,52.2 
	52,47.7 52,38.5 "/>
<polygon class="st1" points="100.5,11.8 93.5,11.8 93.5,32.8 88.6,32.8 97,41.3 105.4,32.8 100.5,32.8 "/>
<polygon class="st1" points="112.4,38.5 112.4,47.7 81.6,47.7 81.6,38.5 77,38.5 77,47.7 77,52.2 81.6,52.2 112.4,52.2 117,52.2 
	117,47.7 117,38.5 "/>
</svg>
