<svg xmlns="http://www.w3.org/2000/svg" viewBox="0 0 128 64" enable-background="new 0 0 128 64"><style type="text/css">.st0{fill:#C7CBD7;} .st1{fill:#83868E;}</style><g id="remove"><path class="st0" d="M18.2 52h27.7v-27.7h-27.7v27.7zm21.5-24.6h3.1v21.5h-3.1v-21.5zm-6.2 0h3.1v21.5h-3.1v-21.5zm-6.1 0h3.1v21.5h-3.1v-21.5zm-6.2 0h3.1v21.5h-3.1v-21.5zM39.7 18.2v-6.2h-15.4v6.2h-9.2v3.1h33.8v-3.1h-9.2zm-3.1 0h-9.2v-3.1h9.2v3.1z"/></g><g id="remove_1_"><path class="st1" d="M82.2 52h27.7v-27.7h-27.7v27.7zm21.5-24.6h3.1v21.5h-3.1v-21.5zm-6.2 0h3.1v21.5h-3.1v-21.5zm-6.1 0h3.1v21.5h-3.1v-21.5zm-6.2 0h3.1v21.5h-3.1v-21.5zM103.7 18.2v-6.2h-15.4v6.2h-9.2v3.1h33.8v-3.1h-9.2zm-3.1 0h-9.2v-3.1h9.2v3.1z"/></g></svg>