<svg xmlns="http://www.w3.org/2000/svg" viewBox="0 0 64 64" enable-background="new 0 0 64 64"><style type="text/css">.st0{fill:#C7CBD7;}</style><path class="st0" d="M19.849 32.418c-.438.319-1.155.12-2.032-.797.199 4.183 3.107 9.004 4.064 10.677 1.941.509 3.953 1.212 5.363 2.035.413.893 1.011 2.028 1.171 2.905h7.171c.159-.876.757-2.012 1.171-2.905 1.41-.824 3.422-1.526 5.363-2.035.956-1.673 3.864-6.494 4.064-10.677-.876.916-1.594 1.115-2.032.797-.372-.538-1.912-2.51-2.951-3.211.043-1.052 2.354-12.007 2.354-12.007-5.338-6.812-17.948-7.052-23.107 0 0 0 2.311 10.956 2.354 12.007-1.041.701-2.581 2.673-2.953 3.211zm24.125 1.494c.157 3.745-4.663 5.876-5.659 5.876-1.096 0-3.506-.936-3.765-1.235-.598-.677-1.074-1.637-1.235-2.609 2.091.04 8.724-2.032 10.659-2.032zm-11.981 5.09c1.115 0 2.729 2.725 3.008 3.468-.186.757-.611 1.115-.85 1.394h-4.329c-.239-.279-.664-.637-.85-1.394.279-.743 1.906-3.468 3.021-3.468zm-2.597-.449c-.259.299-2.669 1.235-3.765 1.235-.996 0-5.817-2.131-5.659-5.876 1.934 0 8.568 2.072 10.659 2.032-.16.972-.637 1.932-1.235 2.609zM44.333 20.689l-1.039 2.909c2.485 2.721 4.013 6.331 4.013 10.306 0 8.454-6.853 15.307-15.307 15.307s-15.307-6.853-15.307-15.307c0-3.823 1.411-7.31 3.728-9.992l-.779-3.2c-3.523 3.302-5.736 7.983-5.736 13.192-.001 9.994 8.1 18.096 18.094 18.096s18.095-8.102 18.095-18.095c0-5.222-2.224-9.913-5.762-13.216z"/></svg>