<svg xmlns="http://www.w3.org/2000/svg" viewBox="0 0 64 64" enable-background="new 0 0 64 64"><style type="text/css">.st0{fill:#C7CBD7;}</style><path class="st0" d="M50.972 13.67c-1.371-1.372-3.595-1.372-4.966 0l-13.217 13.216v-4.499c0-1.939-1.572-3.512-3.512-3.512h-.025c-1.939 0-3.512 1.572-3.512 3.512v13.003c0 1.938 1.572 3.511 3.512 3.511h13.002c1.939 0 3.511-1.572 3.511-3.511v-.026c0-1.939-1.571-3.511-3.511-3.511h-4.499l13.217-13.216c1.371-1.372 1.371-3.596 0-4.967zM49.496 51.97h-35.053c-1.349 0-2.443-1.094-2.443-2.443v-35.054c0-1.349 1.094-2.442 2.443-2.442h15.938c1.349 0 2.443 1.093 2.443 2.442 0 1.35-1.094 2.443-2.443 2.443h-13.496v30.168h30.168v-12.58c0-1.35 1.093-2.442 2.442-2.442s2.442 1.093 2.442 2.442v15.022c.001 1.35-1.091 2.444-2.441 2.444z"/></svg>