<?xml version="1.0" encoding="utf-8"?>
<!-- Generator: Adobe Illustrator 21.0.1, SVG Export Plug-In . SVG Version: 6.00 Build 0)  -->
<svg version="1.1" id="Layer_1" xmlns="http://www.w3.org/2000/svg" xmlns:xlink="http://www.w3.org/1999/xlink" x="0px" y="0px"
	 viewBox="0 0 128 64" style="enable-background:new 0 0 128 64;" xml:space="preserve">
<style type="text/css">
	.st0{fill:#83868E;}
	.st1{fill:#C7CBD7;}
</style>
<g>
	<path class="st0" d="M103.7,13v3.173H80.145V13H103.7 M104.7,12H79.145v5.173H104.7V12L104.7,12z"/>
	<path class="st0" d="M100.704,18.996H82.014v3.129h18.691V18.996z"/>
	<path class="st0" d="M97.375,24.972H82.014v3.129h15.361V24.972z"/>
	<path class="st0" d="M106.962,30.946H82.014v3.129h24.949V30.946z"/>
	<path class="st0" d="M111.855,36.899v3.173h-31.71v-3.173H111.855 M112.855,35.899h-33.71v5.173h33.71V35.899L112.855,35.899z"/>
	<path class="st0" d="M82.014,42.895v3.129h29.279v-3.129H82.014z"/>
	<path class="st0" d="M82.014,52h21.631v-3.129H82.014V52z"/>
</g>
<g>
	<path class="st1" d="M39.7,13v3.173H16.145V13H39.7 M40.7,12H15.145v5.173H40.7V12L40.7,12z"/>
	<path class="st1" d="M36.704,18.996H18.014v3.129h18.691V18.996z"/>
	<path class="st1" d="M33.375,24.972H18.014v3.129h15.361V24.972z"/>
	<path class="st1" d="M42.962,30.946H18.014v3.129h24.949V30.946z"/>
	<path class="st1" d="M47.855,36.899v3.173h-31.71v-3.173H47.855 M48.855,35.899h-33.71v5.173h33.71V35.899L48.855,35.899z"/>
	<path class="st1" d="M18.014,42.895v3.129h29.279v-3.129H18.014z"/>
	<path class="st1" d="M18.014,52h21.631v-3.129H18.014V52z"/>
</g>
</svg>
