<?xml version="1.0" encoding="utf-8"?>
<!-- Generator: Adobe Illustrator 21.0.1, SVG Export Plug-In . SVG Version: 6.00 Build 0)  -->
<svg version="1.1" id="Layer_1" xmlns="http://www.w3.org/2000/svg" xmlns:xlink="http://www.w3.org/1999/xlink" x="0px" y="0px"
	 viewBox="0 0 128 64" style="enable-background:new 0 0 128 64;" xml:space="preserve">
<style type="text/css">
	.st0{display:none;}
	.st1{display:inline;fill:#C7CBD7;}
	.st2{fill:#C7CBD7;}
	.st3{fill:#83868E;}
</style>
<g class="st0">
	<path class="st1" d="M52,22.9L32,12L12,23.3l20,10.4L52,22.9z M32,14.4l15.7,8.5L32,31.4l-15.7-8.2L32,14.4z"/>
	<polygon class="st1" points="42.9,29.4 47.7,32 32,40.5 16.3,32.3 21.1,29.7 18.9,28.5 12,32.4 32,42.9 52,32 45.1,28.3 	"/>
	<polygon class="st1" points="42.9,38.6 47.7,41.1 32,49.6 16.3,41.5 21.1,38.8 18.9,37.7 12,41.6 32,52 52,41.1 45.1,37.4 	"/>
</g>
<path class="st2" d="M48.9,12h-9.3h-3h-9.3h-3h-9.3h-2.9h-0.1v40h0.1h2.9h9.3h3h9.3h3h9.3h3v-3v-9.3v-3v-9.3v-3V15v-3H48.9z
	 M36.6,15v9.3h-9.3V15H36.6z M27.3,27.3h9.3v9.3h-9.3V27.3z M24.3,36.7h-9.3v-9.3h9.3V36.7z M24.3,15v9.3h-9.3V15H24.3z M14.9,49
	v-9.3h9.3V49H14.9z M27.3,49v-9.3h9.3V49H27.3z M48.9,49h-9.3v-9.3h9.3V49z M48.9,36.7h-9.3v-9.3h9.3V36.7z M48.9,24.3h-9.3V15h9.3
	V24.3z"/>
<path class="st3" d="M114,12h-9.3h-3h-9.3h-3H80h-2.9H77v40h0.1H80h9.3h3h9.3h3h9.3h3v-3v-9.3v-3v-9.3v-3V15v-3H114z M101.7,15v9.3
	h-9.3V15H101.7z M92.3,27.3h9.3v9.3h-9.3V27.3z M89.3,36.7H80v-9.3h9.3V36.7z M89.3,15v9.3H80V15H89.3z M80,49v-9.3h9.3V49H80z
	 M92.3,49v-9.3h9.3V49H92.3z M114,49h-9.3v-9.3h9.3V49z M114,36.7h-9.3v-9.3h9.3V36.7z M114,24.3h-9.3V15h9.3V24.3z"/>
</svg>
