<?xml version="1.0" encoding="utf-8"?>
<!-- Generator: Adobe Illustrator 21.0.1, SVG Export Plug-In . SVG Version: 6.00 Build 0)  -->
<svg version="1.1" id="Layer_1" xmlns="http://www.w3.org/2000/svg" xmlns:xlink="http://www.w3.org/1999/xlink" x="0px" y="0px"
	 viewBox="0 0 128 64" style="enable-background:new 0 0 128 64;" xml:space="preserve">
<style type="text/css">
	.st0{fill:#C7CBD7;}
	.st1{fill:#83868E;}
</style>
<g>
	<path class="st0" d="M25.6,25.6V52H52V25.6H25.6z M49.2,49.2H28.4V28.4h20.8V49.2z"/>
	<polygon class="st0" points="14.8,14.8 35.6,14.8 35.6,24.7 38.4,24.7 38.4,12 12,12 12,38.4 24.7,38.4 24.7,35.6 14.8,35.6 	"/>
	<polygon class="st0" points="22.6,20.9 17.5,15.8 15.9,17.4 21,22.5 18.4,22.5 18.4,24.8 24.9,24.8 24.9,18.3 22.6,18.3 	"/>
</g>
<g>
	<path class="st1" d="M89.6,25.6V52H116V25.6H89.6z M113.2,49.2H92.4V28.4h20.8V49.2z"/>
	<polygon class="st1" points="78.8,14.8 99.6,14.8 99.6,24.7 102.4,24.7 102.4,12 76,12 76,38.4 88.7,38.4 88.7,35.6 78.8,35.6 	"/>
	<polygon class="st1" points="86.6,20.9 81.5,15.8 79.9,17.4 85,22.5 82.4,22.5 82.4,24.8 88.9,24.8 88.9,18.3 86.6,18.3 	"/>
</g>
</svg>
