<?xml version="1.0" encoding="utf-8"?>
<!-- Generator: Adobe Illustrator 21.0.1, SVG Export Plug-In . SVG Version: 6.00 Build 0)  -->
<svg version="1.1" id="Layer_1" xmlns="http://www.w3.org/2000/svg" xmlns:xlink="http://www.w3.org/1999/xlink" x="0px" y="0px"
	 viewBox="0 0 64 64" style="enable-background:new 0 0 64 64;" xml:space="preserve">
<style type="text/css">
	.st0{fill:#555556;}
	.st1{fill:#C8CAC9;}
</style>
<g>
	<g>
		<g>
			<g>
				<g>
					<path class="st0" d="M32,3.1C16,3.1,3.1,16,3.1,32S16,60.9,32,60.9S60.9,48,60.9,32C60.9,16.1,47.9,3.1,32,3.1z"/>
				</g>
			</g>
		</g>
	</g>
</g>
<g>
	<path class="st1" d="M32.016,20.013c2.129,0.081,2.403-1.308,2.536-2.852c0.142-1.64,0.196-3.288,0.313-5.371
		c-0.062-1.207-0.115-2.854-0.238-4.496c-0.139-1.856-0.957-3.282-3.012-3.16c-1.997,0.119-2.708,1.509-2.674,3.426
		c0.056,3.131,0.005,6.263,0.044,9.394C29.009,18.911,29.946,19.935,32.016,20.013z"/>
	<path class="st1" d="M40.497,20.029c1.488-0.034,2.027-0.96,2.16-2.224c0.138-1.32,0.169-2.652,0.242-3.982
		c-0.07-1.33-0.049-2.668-0.224-3.981c-0.18-1.349-0.592-2.77-2.29-2.778c-1.96-0.01-2.418,1.469-2.442,3.081
		c-0.036,2.492-0.034,4.986,0.041,7.476C38.03,19.169,38.819,20.067,40.497,20.029z"/>
	<path class="st1" d="M22.405,11.989c1.55-0.185,3.966,0.923,3.641-2.277c-0.242-2.381,0.154-5.44-3.296-5.571
		c-3.055-0.117-2.711,2.617-2.91,5.223C19.085,11.191,19.919,12.285,22.405,11.989z"/>
	<path class="st1" d="M48.184,11.98c-2.617-0.322-2.228,1.913-2.273,3.44c-0.051,1.741-0.461,4.082,1.985,4.412
		c2.539,0.343,2.058-1.931,2.224-3.541C49.817,14.717,50.933,12.318,48.184,11.98z"/>
	<path class="st1" d="M39.167,36.305c-1.033,1.164-2.346,1.93-3.99,1.532c-1.933-0.468-1.122-2.135-1.301-3.317
		c-0.847-5.605-4.834-7.987-9.663-9.5c-1.117-0.35-2.915,0.596-3.007-1.577c-0.066-1.561,0.208-2.867,2.077-3.484
		c2.175-0.717,2.885-2.35,1.253-4.198c-1.653-1.872-8.171-0.862-9.473,1.308c-2.643,4.404-0.603,16.014,3.628,19.23
		c3.879,2.948,6.099,6.404,5.453,11.479c-0.292,2.295,0.109,4.673-0.096,6.987c-0.198,2.231,0.581,3.399,2.771,3.812
		c5.059,0.954,10.026,2.073,15.26,0.548c3.105-0.905,4.232-2.335,4.126-5.566c-0.206-6.251-0.694-12.542,2.335-18.495
		c1.27-2.496,0.658-5.441-0.017-9.52C44.817,29.817,42.022,33.087,39.167,36.305z M39.31,51.28l1.034,6.029l-5.414-2.846
		l-5.414,2.846l1.034-6.029l-4.38-4.27l6.053-0.88l2.707-5.485l2.707,5.485l6.053,0.88L39.31,51.28z"/>
</g>
</svg>
