<?xml version="1.0" encoding="utf-8"?>
<!-- Generator: Adobe Illustrator 21.0.1, SVG Export Plug-In . SVG Version: 6.00 Build 0)  -->
<svg version="1.1" id="Layer_1" xmlns="http://www.w3.org/2000/svg" xmlns:xlink="http://www.w3.org/1999/xlink" x="0px" y="0px"
	 viewBox="0 0 64 64" style="enable-background:new 0 0 64 64;" xml:space="preserve">
<style type="text/css">
	.st0{fill:#555556;}
	.st1{fill:#C8CAC9;}
</style>
<g>
	<g>
		<g>
			<g>
				<g>
					<circle class="st0" cx="32" cy="32" r="28.9"/>
				</g>
			</g>
		</g>
	</g>
</g>
<path class="st1" d="M12.1,9.3l19.6-4.6c0.3-0.1,0.8-0.1,1.1,0l19.1,4.6c1.1,0.2,1.9,1.2,1.9,2.3v29.9c0,0.6-0.2,1.1-0.6,1.6
	c-2.1,2.4-9.3,10.4-17.7,15.2c-2,1.3-3.1,1.1-5.3,0c-9.1-4.6-17-12.8-19.2-15.2c-0.4-0.4-0.7-1-0.7-1.7V11.8
	C10.2,10.7,11,9.7,12.1,9.3z"/>
</svg>
