<?xml version="1.0" encoding="utf-8"?>
<!-- Generator: Adobe Illustrator 21.0.1, SVG Export Plug-In . SVG Version: 6.00 Build 0)  -->
<svg version="1.1" id="Layer_1" xmlns="http://www.w3.org/2000/svg" xmlns:xlink="http://www.w3.org/1999/xlink" x="0px" y="0px"
	 viewBox="0 0 64 64" style="enable-background:new 0 0 64 64;" xml:space="preserve">
<style type="text/css">
	.st0{fill:#555556;}
	.st1{fill:#C8CAC9;}
</style>
<g>
	<g>
		<g>
			<g>
				<g>
					<path class="st0" d="M32,3.1C16,3.1,3.1,16,3.1,32S16,60.9,32,60.9S60.9,48,60.9,32C60.9,16.1,47.9,3.1,32,3.1z"/>
				</g>
			</g>
		</g>
	</g>
</g>
<g>
	<path class="st1" d="M32.4,21.9L32.4,21.9l-21.3-12v36.5l21.2,12.1l21.1-12.6V9.4L32.4,21.9z M49.5,42.4l-16.8,10L16,43V18.8
		l16.7,9.4l0,0l16.8-9.9V42.4z"/>
	<path class="st1" d="M32.4,40l-13-7.3c0,2.1,0,4.1,0,6.2l13.2,7.4l0,0l12.9-7.8c0-1.9-0.1-4.3-0.1-6.3L32.4,40L32.4,40z"/>
</g>
</svg>
