<?xml version="1.0" encoding="utf-8"?>
<!-- Generator: Adobe Illustrator 21.0.1, SVG Export Plug-In . SVG Version: 6.00 Build 0)  -->
<svg version="1.1" id="Layer_1" xmlns="http://www.w3.org/2000/svg" xmlns:xlink="http://www.w3.org/1999/xlink" x="0px" y="0px"
	 viewBox="0 0 64 64" style="enable-background:new 0 0 64 64;" xml:space="preserve">
<style type="text/css">
	.st0{fill:#555556;}
	.st1{fill:#C8CAC9;}
</style>
<g>
	<circle class="st0" cx="32" cy="32" r="28.9"/>
</g>
<g>
	<circle class="st1" cx="32" cy="32" r="8.4"/>
	<path class="st1" d="M32,15.5c6.7,0,12.4,4,15,9.7h7.2C51.3,15.7,42.5,8.8,32,8.8S12.7,15.7,9.8,25.2H17
		C19.6,19.5,25.3,15.5,32,15.5z"/>
	<path class="st1" d="M32,48.5c-6.7,0-12.4-4-15-9.7H9.8c2.9,9.5,11.7,16.4,22.2,16.4s19.3-6.9,22.2-16.4H47
		C44.4,44.5,38.7,48.5,32,48.5z"/>
</g>
</svg>
