<?xml version="1.0" encoding="utf-8"?>
<!-- Generator: Adobe Illustrator 21.0.1, SVG Export Plug-In . SVG Version: 6.00 Build 0)  -->
<svg version="1.1" id="Layer_1" xmlns="http://www.w3.org/2000/svg" xmlns:xlink="http://www.w3.org/1999/xlink" x="0px" y="0px"
	 viewBox="0 0 64 64" style="enable-background:new 0 0 64 64;" xml:space="preserve">
<style type="text/css">
	.st0{opacity:0.6;}
	.st1{fill:#B4B8BF;}
	.st2{fill:#909499;}
	.st3{fill:url(#SVGID_1_);}
	.st4{fill:url(#SVGID_2_);}
	.st5{fill:url(#SVGID_3_);}
	.st6{fill:url(#SVGID_4_);}
	.st7{fill:url(#SVGID_5_);}
	.st8{fill:url(#SVGID_6_);}
	.st9{fill:#C7CBD7;}
	.st10{opacity:0.8;}
</style>
<g class="st0">
	<path class="st1" d="M52.6,24.9c-1.5-4.2-3.8-8.3-6.7-11.7c-1.4,0.5-3.1,0.8-5,1c1.2,3.8,2.1,8.1,2.6,12.4
		C47.3,26.3,50.3,25.7,52.6,24.9z"/>
	<path class="st2" d="M42.3,42.2c0.5-4.4,0.4-9.1,0-14.1c-1.1,0.1-2.2,0.1-3.2,0.1c-3,0-6.1-0.1-8.9-0.5c-0.8,4.9-1.4,10.2-1.8,13.9
		C32.9,42.3,37.7,42.5,42.3,42.2z"/>
	<linearGradient id="SVGID_1_" gradientUnits="userSpaceOnUse" x1="3.57" y1="9.0497" x2="60.45" y2="9.0497">
		<stop  offset="0" style="stop-color:#C7CBD7"/>
		<stop  offset="0.5" style="stop-color:#C7CBD7"/>
		<stop  offset="1" style="stop-color:#C7CBD7"/>
	</linearGradient>
	<path class="st3" d="M26.4,11.2c1.4,0.5,3.1,0.9,5,1.2c0.6-2.6,1.2-4.9,1.8-6.7C31,6.8,28.7,8.7,26.4,11.2z"/>
	<path class="st1" d="M42,26.7c-0.5-4.5-1.5-8.7-2.7-12.3c-2.4,0.2-4.6-0.1-6.8-0.3c-0.7,3.5-1.5,7.6-2.2,12.1
		C34.3,26.7,38.3,26.8,42,26.7z"/>
	<linearGradient id="SVGID_2_" gradientUnits="userSpaceOnUse" x1="3.57" y1="9.2997" x2="60.45" y2="9.2997">
		<stop  offset="0" style="stop-color:#C7CBD7"/>
		<stop  offset="0.5" style="stop-color:#C7CBD7"/>
		<stop  offset="1" style="stop-color:#C7CBD7"/>
	</linearGradient>
	<path class="st4" d="M38.8,12.9c-1.1-3-2.4-5.4-3.9-7.2c-0.6,1.7-1.2,4.1-1.9,6.9C34.9,12.9,36.9,12.9,38.8,12.9z"/>
	<linearGradient id="SVGID_3_" gradientUnits="userSpaceOnUse" x1="3.57" y1="9.4497" x2="60.45" y2="9.4497">
		<stop  offset="0" style="stop-color:#C7CBD7"/>
		<stop  offset="0.5" style="stop-color:#C7CBD7"/>
		<stop  offset="1" style="stop-color:#C7CBD7"/>
	</linearGradient>
	<path class="st5" d="M44.8,12c-2.2-2.4-4.7-4.3-7.4-5.8c1.2,1.8,2.2,4,3.1,6.5C42,12.6,43.4,12.4,44.8,12z"/>
	<linearGradient id="SVGID_4_" gradientUnits="userSpaceOnUse" x1="3.57" y1="8.9497" x2="60.45" y2="8.9497">
		<stop  offset="0" style="stop-color:#C7CBD7"/>
		<stop  offset="0.5" style="stop-color:#C7CBD7"/>
		<stop  offset="1" style="stop-color:#C7CBD7"/>
	</linearGradient>
	<path class="st6" d="M46.3,11.4c0.8-0.4,1.4-0.8,1.8-1.2c-2.4-1.6-4.9-2.8-7.4-3.7C42.6,7.8,44.5,9.4,46.3,11.4z"/>
	<path class="st2" d="M54.8,40c0.3-4.4-0.2-9-1.7-13.7c-2.6,0.9-5.8,1.5-9.4,1.8c0.5,4.7,0.5,9.5,0.2,14C48.5,41.7,52.1,41,54.8,40z
		"/>
	<path class="st1" d="M54.1,24.4c1.9-0.8,3.2-1.8,3.8-2.9c-1.9-4-4.9-7.5-8.5-10.3c-0.5,0.6-1.2,1.1-2,1.5
		C50.3,16.1,52.6,20.2,54.1,24.4z"/>
	<path class="st1" d="M31.1,13.9c-2.4-0.4-4.2-0.9-5.8-1.4c-2.6,3.1-4.9,6.9-6.7,11.1c2.9,1,6.4,1.8,10.3,2.4
		C29.7,21,30.4,17.1,31.1,13.9z"/>
	<linearGradient id="SVGID_5_" gradientUnits="userSpaceOnUse" x1="3.57" y1="8.1997" x2="60.45" y2="8.1997">
		<stop  offset="0" style="stop-color:#C7CBD7"/>
		<stop  offset="0.5" style="stop-color:#C7CBD7"/>
		<stop  offset="1" style="stop-color:#C7CBD7"/>
	</linearGradient>
	<path class="st7" d="M24.8,10.7c1.8-2.1,3.7-3.8,5.6-5c-3,0.6-6,1.8-8.8,3.4C22.4,9.6,23.4,10.1,24.8,10.7z"/>
	<path class="st1" d="M23.7,11.9c-1.5-0.6-2.6-1.3-3.5-2c-3.8,2.4-7.2,5.7-9.8,9.4c1.5,1.3,3.7,2.5,6.7,3.7
		C18.9,18.9,21.2,15.1,23.7,11.9z"/>
	<path class="st2" d="M5.1,33.5c1.7,1.6,4.5,3.2,7.9,4.5c0.5-4.5,1.7-9.1,3.5-13.5c-2.9-1.1-5.2-2.4-6.9-3.8
		C7.1,24.7,5.6,29.1,5.1,33.5z"/>
	<path class="st2" d="M60.1,27.55c-0.36-1.5-0.86-2.99-1.5-4.45c-0.9,1-2.3,2-4.1,2.7c1.4,4.5,2.1,9.2,1.8,13.6
		c1.74-0.73,2.94-1.56,3.71-2.45c0.28-1.61,0.44-3.26,0.44-4.95C60.45,30.49,60.33,29,60.1,27.55z"/>
	<path class="st1" d="M38.8,59.62c3.62-0.89,6.96-2.48,9.89-4.6l0.11-0.12c-2.3,0.6-4.9,1.1-7.9,1.3
		C40.25,57.56,39.56,58.68,38.8,59.62z"/>
	<linearGradient id="SVGID_6_" gradientUnits="userSpaceOnUse" x1="3.57" y1="6.3997" x2="60.45" y2="6.3997">
		<stop  offset="0" style="stop-color:#C7CBD7"/>
		<stop  offset="0.5" style="stop-color:#C7CBD7"/>
		<stop  offset="1" style="stop-color:#C7CBD7"/>
	</linearGradient>
	<path class="st8" d="M27,4.9c-2.4,0.3-4.7,0.8-7,1.7c-0.1,0.3,0,0.7,0.5,1.3C22.6,6.6,24.8,5.6,27,4.9z"/>
	<path class="st2" d="M39.7,54.7c1.2-3.1,2.1-6.8,2.4-11c-4.6,0.2-9.4,0-13.9-0.6c-0.4,4.4-0.6,8.1-0.6,11.1
		C32.3,54.8,36.3,54.9,39.7,54.7z"/>
	<path class="st2" d="M53.84,50.21c2.59-3.11,4.53-6.77,5.62-10.78C58.6,40,57.6,40.52,56.4,41C56.06,44.33,55.2,47.44,53.84,50.21z
		"/>
	<path class="st2" d="M43.8,43.6c-0.5,4.3-1.3,8-2.4,11c3.6-0.3,6.7-0.9,9.1-1.8c2.1-3.2,3.6-7,4.2-11.1
		C51.6,42.6,47.9,43.3,43.8,43.6z"/>
	<path class="st2" d="M17.8,25c-1.7,4.3-2.9,9-3.4,13.5c3.7,1.2,8,2.3,12.4,3c0.5-4.6,1.2-9.4,1.8-13.9C24.5,27,21,26.1,17.8,25z"/>
	<path class="st1" d="M36.4,56.2c-2.9,0-5.9-0.1-8.7-0.5c0,2.04,0.19,3.51,0.37,4.47c1.28,0.18,2.59,0.28,3.93,0.27
		c1.41,0,2.79-0.1,4.14-0.3c1.01-0.99,2.01-2.31,2.86-3.94H36.4z"/>
	<path class="st2" d="M15.5,51.5c2.9,1,6.6,1.9,10.6,2.5c0-3.8,0.4-8,0.6-10.5V43c-4.5-0.6-8.7-1.6-12.4-2.9
		C14.1,44.2,14.5,48.2,15.5,51.5z"/>
	<path class="st2" d="M12.9,39.5C9.7,38.3,7,36.8,5,35.3c-0.14,2.93,0.28,5.86,1.16,8.57c0.64,1.39,1.38,2.72,2.23,3.98
		c1.29,0.99,3.05,1.94,5.31,2.95C12.9,47.4,12.6,43.6,12.9,39.5z"/>
	<path class="st1" d="M19.3,8.7c-0.4-0.5-0.6-1-0.7-1.5c-1,0.46-1.93,0.93-2.81,1.44c-2.9,2.02-5.41,4.56-7.39,7.49
		c0.21,0.77,0.5,1.52,1,2.17C12,14.6,15.4,11.3,19.3,8.7z"/>
	<path class="st2" d="M7.43,17.69c-2.37,4.05-3.76,8.73-3.86,13.73L3.9,32c0.7-4.5,2.3-8.8,4.7-12.5C8.08,18.92,7.7,18.3,7.43,17.69
		z"/>
	<path class="st1" d="M11.1,51.28c1.3,1.4,2.73,2.67,4.28,3.79c-0.43-0.78-0.79-1.6-1.08-2.47C13.15,52.2,12.07,51.75,11.1,51.28z"
		/>
	<path class="st1" d="M16.3,53.2c0.69,1.62,1.57,3,2.62,4.05c2.36,1.23,4.92,2.14,7.61,2.66c-0.22-1.14-0.33-2.64-0.33-4.41
		C22.5,54.9,19.2,54.2,16.3,53.2z"/>
</g>
<path class="st9" d="M46.51,23.01c-1.43,0.7-1.83,1.65-2.37,4.34c-1.46,7.2-4.25,14.4-8.31,21.4c-0.27-0.01-0.54-0.02-0.82-0.02
	c-3.89-11.87-4.95-15.4-6.27-21.01c-0.89-3.91-1.2-4.67-3-5.42l0.2-0.7c1.13,0.2,2.3,0.38,3.51,0.54c2.08,0.27,4.16,0.44,6.17,0.54
	l-0.01,0.72c-1.06,0.21-2.17,0.59-1.87,2.48c0.81,5.08,3.07,9.7,4.57,14.55c2.43-5.82,3.22-8.39,4.24-12.73
	c0.63-3.3-0.88-3.92-2.35-4.24l-0.08-0.72c2.2-0.04,4.28-0.19,6.18-0.43C46.38,22.53,46.45,22.77,46.51,23.01z"/>
<path class="st10" d="M25.94,21.6c1.13,0.2,2.3,0.38,3.51,0.54c2.08,0.27,4.16,0.44,6.17,0.54l-0.01,0.72
	c-1.06,0.21-2.17,0.59-1.87,2.48c0.81,5.08,3.07,9.7,4.57,14.55c2.43-5.82,3.22-8.39,4.24-12.73c0.63-3.3-0.88-3.92-2.35-4.24
	l-0.08-0.72c2.2-0.04,4.28-0.19,6.18-0.43c0.08,0.22,0.15,0.46,0.21,0.7c-1.43,0.7-1.83,1.65-2.37,4.34
	c-1.46,7.2-4.25,14.4-8.31,21.4c-0.27-0.01-0.54-0.02-0.82-0.02c-3.89-11.87-4.95-15.4-6.27-21.01c-0.89-3.91-1.2-4.67-3-5.42
	L25.94,21.6 M25.23,20.46l-0.25,0.87l-0.2,0.7l-0.24,0.86l0.82,0.34c1.27,0.53,1.5,0.73,2.41,4.72c1.31,5.58,2.37,9.13,6.29,21.1
	l0.23,0.69h0.72c0.27,0,0.53,0.01,0.78,0.02l0.6,0.02l0.3-0.52c4.11-7.08,6.94-14.38,8.43-21.7c0.54-2.67,0.87-3.17,1.83-3.64
	l0.73-0.36l-0.2-0.78c-0.07-0.29-0.15-0.56-0.24-0.8l-0.27-0.75l-0.79,0.1c-1.91,0.24-3.96,0.38-6.07,0.42L39,21.76l0.12,1.09
	l0.08,0.72l0.08,0.71l0.7,0.15c1.12,0.24,2.08,0.45,1.58,3.08c-0.84,3.58-1.53,5.95-3.16,10.05c-0.29-0.81-0.59-1.62-0.88-2.41
	c-1.12-3.04-2.28-6.19-2.8-9.43c-0.16-0.99,0.08-1.14,1.08-1.34l0.79-0.16l0.01-0.81l0.01-0.72l0.01-0.96l-0.96-0.05
	c-2.14-0.11-4.19-0.29-6.09-0.53c-1.19-0.16-2.35-0.34-3.46-0.53L25.23,20.46L25.23,20.46z"/>
</svg>
