<svg xmlns="http://www.w3.org/2000/svg" viewBox="0 0 64 64" enable-background="new 0 0 64 64"><style type="text/css">.st0{fill:#9DBAA0;} .st1{enable-background:new ;} .st2{fill:#081B21;}</style><path class="st0" d="M42.3 42.2c.5-4.4.4-9.1 0-14.1-1.1.1-2.2.1-3.2.1-3 0-6.1-.1-8.9-.5-.8 4.9-1.4 10.2-1.8 13.9 4.5.7 9.3.9 13.9.6zM31.1 13.9c-2.4-.4-4.2-.9-5.8-1.4-2.6 3.1-4.9 6.9-6.7 11.1 2.9 1 6.4 1.8 10.3 2.4.8-5 1.5-8.9 2.2-12.1zM42 26.7c-.5-4.5-1.5-8.7-2.7-12.3-2.4.2-4.6-.1-6.8-.3-.7 3.5-1.5 7.6-2.2 12.1 4 .5 8 .6 11.7.5zM40.5 12.7c1.5-.1 2.9-.3 4.3-.7-2.2-2.4-4.7-4.3-7.4-5.8 1.2 1.8 2.2 4 3.1 6.5zM57.9 21.5c-1.9-4-4.9-7.5-8.5-10.3-.5.6-1.2 1.1-2 1.5 2.9 3.4 5.2 7.5 6.7 11.7 1.9-.8 3.2-1.8 3.8-2.9zM33 12.6c1.9.3 3.9.3 5.8.3-1.1-3-2.4-5.4-3.9-7.2-.6 1.7-1.2 4.1-1.9 6.9zM46.3 11.4c.8-.4 1.4-.8 1.8-1.2-2.4-1.6-4.9-2.8-7.4-3.7 1.9 1.3 3.8 2.9 5.6 4.9zM18.92 57.25c2.36 1.23 4.92 2.14 7.61 2.66-.22-1.14-.33-2.64-.33-4.41-3.7-.6-7-1.3-9.9-2.3.69 1.62 1.57 3 2.62 4.05zM54.8 40c.3-4.4-.2-9-1.7-13.7-2.6.9-5.8 1.5-9.4 1.8.5 4.7.5 9.5.2 14 4.6-.4 8.2-1.1 10.9-2.1zM26.7 43c-4.5-.6-8.7-1.6-12.4-2.9-.2 4.1.2 8.1 1.2 11.4 2.9 1 6.6 1.9 10.6 2.5 0-3.8.4-8 .6-10.5v-.5zM5.1 33.5c1.7 1.6 4.5 3.2 7.9 4.5.5-4.5 1.7-9.1 3.5-13.5-2.9-1.1-5.2-2.4-6.9-3.8-2.5 4-4 8.4-4.5 12.8zM23.7 11.9c-1.5-.6-2.6-1.3-3.5-2-3.8 2.4-7.2 5.7-9.8 9.4 1.5 1.3 3.7 2.5 6.7 3.7 1.8-4.1 4.1-7.9 6.6-11.1zM27 4.9c-2.4.3-4.7.8-7 1.7-.1.3 0 .7.5 1.3 2.1-1.3 4.3-2.3 6.5-3zM52.6 24.9c-1.5-4.2-3.8-8.3-6.7-11.7-1.4.5-3.1.8-5 1 1.2 3.8 2.1 8.1 2.6 12.4 3.8-.3 6.8-.9 9.1-1.7zM26.4 11.2c1.4.5 3.1.9 5 1.2.6-2.6 1.2-4.9 1.8-6.7-2.2 1.1-4.5 3-6.8 5.5zM32 60.44c1.41 0 2.79-.1 4.14-.3 1.01-.99 2.01-2.31 2.86-3.94h-2.6c-2.9 0-5.9-.1-8.7-.5 0 2.04.19 3.51.37 4.47 1.28.18 2.59.28 3.93.27zM48.69 55.02l.11-.12c-2.3.6-4.9 1.1-7.9 1.3-.65 1.36-1.34 2.48-2.1 3.42 3.62-.89 6.96-2.48 9.89-4.6zM56.4 41c-.34 3.33-1.2 6.44-2.56 9.21 2.59-3.11 4.53-6.77 5.62-10.78-.86.57-1.86 1.09-3.06 1.57zM39.7 54.7c1.2-3.1 2.1-6.8 2.4-11-4.6.2-9.4 0-13.9-.6-.4 4.4-.6 8.1-.6 11.1 4.7.6 8.7.7 12.1.5zM60.45 32c0-1.51-.12-3-.35-4.45-.36-1.5-.86-2.99-1.5-4.45-.9 1-2.3 2-4.1 2.7 1.4 4.5 2.1 9.2 1.8 13.6 1.74-.73 2.94-1.56 3.71-2.45.28-1.61.44-3.26.44-4.95zM43.8 43.6c-.5 4.3-1.3 8-2.4 11 3.6-.3 6.7-.9 9.1-1.8 2.1-3.2 3.6-7 4.2-11.1-3.1.9-6.8 1.6-10.9 1.9zM3.57 31.42l.33.58c.7-4.5 2.3-8.8 4.7-12.5-.52-.58-.9-1.2-1.17-1.81-2.37 4.05-3.76 8.73-3.86 13.73zM28.6 27.6c-4.1-.6-7.6-1.5-10.8-2.6-1.7 4.3-2.9 9-3.4 13.5 3.7 1.2 8 2.3 12.4 3 .5-4.6 1.2-9.4 1.8-13.9zM24.8 10.7c1.8-2.1 3.7-3.8 5.6-5-3 .6-6 1.8-8.8 3.4.8.5 1.8 1 3.2 1.6zM9.4 18.3c2.6-3.7 6-7 9.9-9.6-.4-.5-.6-1-.7-1.5-1 .46-1.93.93-2.81 1.44-2.9 2.02-5.41 4.56-7.39 7.49.21.77.5 1.52 1 2.17zM15.38 55.07c-.43-.78-.79-1.6-1.08-2.47-1.15-.4-2.23-.85-3.2-1.32 1.3 1.4 2.73 2.67 4.28 3.79zM8.39 47.85c1.29.99 3.05 1.94 5.31 2.95-.8-3.4-1.1-7.2-.8-11.3-3.2-1.2-5.9-2.7-7.9-4.2-.14 2.93.28 5.86 1.16 8.57.64 1.39 1.38 2.72 2.23 3.98z"/><g class="st1"><path class="st2" d="M27.16 22.68c-2.47.29-2.95.75-3.65 3.49-1.01 4.32-1.74 8.92-2.09 13.47-.08 1.08-.14 2.13-.18 3.15-.02 2.23.47 2.84 3.11 3.85l-.01.66c-4.03-.58-7.67-1.4-10.74-2.36l-.07-.68c2.45.03 2.47-.77 2.54-3.15.02-.85.07-1.73.13-2.62.36-4.72 1.37-9.45 2.83-13.82.71-2.25.59-2.77-.96-3.98l.32-.67c2.55.8 5.56 1.48 8.91 1.96l-.14.7M40.5 23.41c-2.1.73-2.39 1.23-2.32 4.08.16 4.43.09 9.08-.26 13.63-.08 1.08-.18 2.13-.29 3.14-.18 2.08.05 2.67 2.61 3.24l-.12.65c-3.7.14-7.71.02-11.81-.38l.04-.66c3.34-.4 3.42-1.33 3.63-3.57.07-.84.14-1.71.21-2.61.36-4.72.68-9.55.92-14.12.07-2.32-.29-2.84-2.59-3.73l.09-.71c3.4.34 6.73.43 9.8.32l.09.72M51.06 21.86c-1.31 1.17-1.22 1.66-.51 4.4 1.15 4.33 1.64 8.93 1.29 13.48-.08 1.08-.21 2.13-.38 3.15-.32 2.03-.34 2.62 1.36 2.76l-.21.67c-2.47.77-5.55 1.32-9.03 1.62l.15-.65c2.97-.98 3.13-2.04 3.44-4.14.12-.85.21-1.72.28-2.61.36-4.72.02-9.53-.9-14.07-.53-2.35-1.1-2.78-3.12-3.23l-.16-.72c2.88-.25 5.44-.71 7.49-1.34l.3.68"/></g></svg>