<?xml version="1.0" encoding="utf-8"?>
<!-- Generator: Adobe Illustrator 21.0.1, SVG Export Plug-In . SVG Version: 6.00 Build 0)  -->
<svg version="1.1" id="Layer_1" xmlns="http://www.w3.org/2000/svg" xmlns:xlink="http://www.w3.org/1999/xlink" x="0px" y="0px"
	 viewBox="0 0 64 64" style="enable-background:new 0 0 64 64;" xml:space="preserve">
<style type="text/css">
	.st0{fill:#C7CBD7;}
</style>
<g>
	<path class="st0" d="M52.22,31.47c0.02-0.73,10.32-7.1,8.09-9.87c0,0-1.13,2.07-2.67,1.16c-0.9-0.66,7.93-11.99,2.67-14.93
		c0,0,0.07,2.45-0.62,3.29L34.75,38.98c-0.13-0.15-0.61-1.01-0.74-1.51c-0.13-0.5-0.1-1.33,0-1.87c0.09-0.49,1-0.83,1-0.83
		s-1.13-1.4-1.63-1.8c-0.5-0.4-1.6-0.17-1.93-0.27c-0.33-0.1-0.43-0.83-1.4-0.97c-0.97-0.13-1.63,0.93-1.63,0.93s1.09-0.07,1.52,0.2
		c0.43,0.27,0.84,1.08,0.91,1.51c0.07,0.43-0.2,1.39-0.57,2.16c-0.37,0.77-0.13,2.1-0.13,2.1l-0.42,0.02L4.53,10.14
		c-0.69-0.84-0.84-2.8-0.84-2.8c-5.27,2.94,3.57,14.68,2.67,15.33c-1.53,0.91-2.84-1.07-2.84-1.07c-2.23,2.77,7.27,8.38,7.29,9.11
		c-1.02,0.3-6.51-0.88-8.04-3.11c-1.63,3.73,7.89,7.22,7.82,7.87c0.23,0.74-1.47,0.7-2.27,0.67c0.37,1.27,8.77,3.38,9.38,4.13
		c-0.84,0.48-5.1,0.59-6.4-0.18c1.3,6.93,12.06,5.29,12.67,5.33c0.03,0.89-2.02,1.49-2.49,1.96c1.3,0.87,4.53,0.22,5.02-1.51
		l0.01-0.02c0.49-0.02,1.55,0.02,1.61,0.15c0.27,0.54,0.2,9.02-2.51,3.13c0,0-0.24,1.46-0.22,1.93c0.02,0.73,0.8,3.8-0.58,2.98
		c-0.24,0.47,0.02,2.73,2.96,2.6c0,0-0.47-1.36-0.44-1.74c0.02-0.39,0.69-1.3,1.22-1.34c0.58-0.04,0.84,1,0.71,1.88
		c0.55-0.25,0.8-0.7,0.93-0.97c0.13-0.27-0.33-1.56-0.62-1.75c-0.42-0.29-0.56-0.9-0.51-1.27c0.04-0.36,0.8-0.56,1.2-0.51
		c0.96,0.11,0.81,1.92,0.76,3.49c0.88-0.79,0.82-3.1,0.62-3.53c-0.2-0.43-0.84-0.83-0.91-1.33c-0.07-0.5,0.47-1.07,0.5-1.72
		c0.03-0.61,0.16-0.87,0.5-1.06c0.36-0.2,0.51-0.18,0.67,0.09c0.16,0.28-0.27,2.64,0,2.91c0.5,0.5,1.08,0.57,1.3,1.02
		c0.77,1.58,0.39,2.36,0.19,3.07c1.47-0.09,1-1.82,1.24-2.13c0.4,0.29,0.76,2.69,0.31,4.22c0,0,1.24-0.87,1.54-0.86
		c0.38,0.02,0.22,0.53-0.02,1.18c0.45,0.02,1.37,0.05,1.3-0.67c1.55,0.23,1.6-1.48,1.6-1.48s-1.66,0.42-1.71-0.36
		c-0.02-0.33,1.18-1.38,1.13-2.29c-0.05-1.09-1.38-2.42-1.38-2.42s-0.21,1.37-0.51,1.7c-0.3,0.33-0.9,0.13-1.17-0.17
		c-0.27-0.3-0.07-1.2-0.1-1.87c-0.03-0.53,0.18-1.57,0.26-1.99c1.08,0.55,3.83,1.48,5.07,0.65c-0.47-0.47-2.07-1.27-2.04-2.15
		c0.61-0.04,11.91,1.89,13.21-5.04c-1.3,0.77-5.5,0.9-6.34,0.42c0.61-0.76,9.04-2.82,9.41-4.09c-0.8,0.03-2.4,0.21-2.17-0.53
		c-0.07-0.65,9.63-4.77,8-8.5C59.98,29.74,53.25,31.77,52.22,31.47z"/>
</g>
</svg>
