<?xml version="1.0" encoding="utf-8"?>
<!-- Generator: Adobe Illustrator 21.0.1, SVG Export Plug-In . SVG Version: 6.00 Build 0)  -->
<svg version="1.1" id="Layer_1" xmlns="http://www.w3.org/2000/svg" xmlns:xlink="http://www.w3.org/1999/xlink" x="0px" y="0px"
	 viewBox="0 0 64 64" style="enable-background:new 0 0 64 64;" xml:space="preserve">
<style type="text/css">
	.st0{fill:#C7CBD7;}
</style>
<g>
	<path class="st0" d="M45.5,31.7c0-0.5,6.9-4.7,5.4-6.6c0,0-0.8,1.4-1.8,0.8c-0.6-0.4,5.3-8,1.8-10c0,0,0,1.6-0.4,2.2L33.8,36.7
		c-0.1-0.1-0.4-0.7-0.5-1c-0.1-0.3-0.1-0.9,0-1.2c0.1-0.3,0.7-0.6,0.7-0.6s-0.8-0.9-1.1-1.2s-1.1-0.1-1.3-0.2s-0.3-0.6-0.9-0.6
		c-0.6-0.1-1.1,0.6-1.1,0.6s0.7,0,1,0.1c0.3,0.2,0.6,0.7,0.6,1c0,0.3-0.1,0.9-0.4,1.4c-0.2,0.5-0.1,1.4-0.1,1.4l-0.3,0l-16.8-19
		c-0.5-0.6-0.6-1.9-0.6-1.9c-3.5,2,2.4,9.8,1.8,10.2c-1,0.6-1.9-0.7-1.9-0.7c-1.5,1.8,4.8,5.6,4.9,6.1c-0.7,0.2-4.3-0.6-5.4-2.1
		c-1.1,2.5,5.3,4.8,5.2,5.2c0.2,0.5-1,0.5-1.5,0.4c0.2,0.8,5.8,2.3,6.3,2.8c-0.6,0.3-3.4,0.4-4.3-0.1c0.9,4.6,8,3.5,8.4,3.6
		c0,0.6-1.3,1-1.7,1.3c0.9,0.6,3,0.1,3.3-1l0,0c0.3,0,1,0,1.1,0.1c0.2,0.4,0.1,6-1.7,2.1c0,0-0.2,1-0.1,1.3c0,0.5,0.5,2.5-0.4,2
		c-0.2,0.3,0,1.8,2,1.7c0,0-0.3-0.9-0.3-1.2c0-0.3,0.5-0.9,0.8-0.9c0.4,0,0.6,0.7,0.5,1.3c0.4-0.2,0.5-0.5,0.6-0.6
		c0.1-0.2-0.2-1-0.4-1.2C30.1,45.6,30,45.2,30,45c0-0.2,0.5-0.4,0.8-0.3c0.6,0.1,0.5,1.3,0.5,2.3c0.6-0.5,0.5-2.1,0.4-2.4
		c-0.1-0.3-0.6-0.6-0.6-0.9c0-0.3,0.3-0.7,0.3-1.1c0-0.4,0.1-0.6,0.3-0.7c0.2-0.1,0.3-0.1,0.4,0.1c0.1,0.2-0.2,1.8,0,1.9
		c0.3,0.3,0.7,0.4,0.9,0.7c0.5,1.1,0.3,1.6,0.1,2c1-0.1,0.7-1.2,0.8-1.4c0.3,0.2,0.5,1.8,0.2,2.8c0,0,0.8-0.6,1-0.6
		c0.3,0,0.1,0.4,0,0.8c0.3,0,0.9,0,0.9-0.4c1,0.2,1.1-1,1.1-1s-1.1,0.3-1.1-0.2c0-0.2,0.8-0.9,0.8-1.5c0-0.7-0.9-1.6-0.9-1.6
		s-0.1,0.9-0.3,1.1c-0.2,0.2-0.6,0.1-0.8-0.1c-0.2-0.2,0-0.8-0.1-1.2c0-0.4,0.1-1,0.2-1.3c0.7,0.4,2.6,1,3.4,0.4
		c-0.3-0.3-1.4-0.8-1.4-1.4c0.4,0,7.9,1.3,8.8-3.4c-0.9,0.5-3.7,0.6-4.2,0.3c0.4-0.5,6-1.9,6.3-2.7c-0.5,0-1.6,0.1-1.4-0.4
		c0-0.4,6.4-3.2,5.3-5.7C50.7,30.5,46.2,31.9,45.5,31.7z"/>
</g>
</svg>
