<?xml version="1.0" encoding="utf-8"?>
<!-- Generator: Adobe Illustrator 21.0.1, SVG Export Plug-In . SVG Version: 6.00 Build 0)  -->
<svg version="1.1" id="Layer_1" xmlns="http://www.w3.org/2000/svg" xmlns:xlink="http://www.w3.org/1999/xlink" x="0px" y="0px"
	 viewBox="0 0 64 64" style="enable-background:new 0 0 64 64;" xml:space="preserve">
<style type="text/css">
	.st0{fill:#DEDEDE;}
	.st1{fill:#081B21;}
</style>
<circle class="st0" cx="32" cy="32" r="29.5"/>
<path class="st1" d="M34,2.6c-0.7,0-1.4-0.1-2-0.1c-2.7,0-5.3,0.4-7.8,1c0.5,0,1,0,1.5,0c-1.4,0.2-2.7,0.5-4,0.9
	c0,0,0.1-0.1,0.1-0.1C15.6,6.6,10.4,10.9,7,16.4c0.2,1,0.7,2.1,1.6,3.1c-2.4,3.7-4,8-4.7,12.5c-0.5-0.8-1-1.9-1.2-2.6
	c-0.1,0.9-0.1,1.8-0.1,2.7c0,0.2,0,0.4,0,0.6C2.8,33,3.1,33.5,3.6,34c-0.2,2.2-0.2,4.5,0.2,6.6c1,3.4,2.6,6.5,4.7,9.2
	c1.5,1,3.5,2,5.8,2.8c0.6,1.8,1.5,3.4,2.7,4.8c1.7,1,3.6,1.9,5.5,2.5c-0.7-0.4-1.7-1.1-2.6-1.8c-1.5-1.1-2.7-2.8-3.6-4.9
	c2.9,1,6.2,1.7,9.9,2.3c0,2.4,0.2,4.3,0.6,5.5c0.5,0.1,1,0.2,1.5,0.2c-0.2-0.7-0.6-2.5-0.6-5.5c2.8,0.4,5.8,0.5,8.7,0.5
	c0.9,0,1.7,0,2.6,0c-1.2,2.3-2.7,4-4.1,5l-0.3,0.2c1-0.1,1.9-0.2,2.9-0.4c1.3-1.1,2.4-2.7,3.4-4.8c3-0.2,5.6-0.7,7.9-1.3
	c-1.2,1.3-2.6,2.7-3.7,3.6c2.1-1,4.1-2.3,5.9-3.9c0.2-0.2,0.4-0.5,0.6-0.7c0.2-0.1,0.3-0.1,0.5-0.2c1.2-1.1,2.3-2.3,3.3-3.6
	c-0.7,0.5-1.5,1.1-2.3,1.5c1.8-3.1,2.9-6.7,3.3-10.6c2-0.8,3.5-1.7,4.6-2.8c0.4-2,0.7-4.1,0.7-6.2c0-4.8-1.1-9.3-3.2-13.3
	c0,0.1,0,0.2,0,0.3c-2.1-3.6-4.9-6.6-8.2-9.1c0.1-0.3,0-0.7,0-1.1c-3.9-3-8.5-5.1-13.6-5.9c0,0-0.9-0.1-1.3-0.2
	C34.9,2.6,34,2.6,34,2.6z M26.7,43.5c-0.2,2.5-0.6,6.7-0.6,10.5c-4-0.6-7.7-1.5-10.6-2.5c-1-3.3-1.4-7.3-1.2-11.4
	c3.7,1.3,7.9,2.3,12.4,2.9L26.7,43.5z M14.4,38.5c0.5-4.5,1.7-9.2,3.4-13.5c3.2,1.1,6.7,2,10.8,2.6c-0.6,4.5-1.3,9.3-1.8,13.9
	C22.4,40.8,18.1,39.7,14.4,38.5z M40.9,14.2c1.9-0.2,3.6-0.5,5-1c2.9,3.4,5.2,7.5,6.7,11.7c-2.3,0.8-5.3,1.4-9.1,1.7
	C43,22.3,42.1,18,40.9,14.2z M42.3,42.2c-4.6,0.3-9.4,0.1-13.9-0.6c0.4-3.7,1-9,1.8-13.9c2.8,0.4,5.9,0.5,8.9,0.5c1,0,2.1,0,3.2-0.1
	C42.7,33.1,42.8,37.8,42.3,42.2z M42,26.7c-3.7,0.1-7.7,0-11.7-0.5c0.7-4.5,1.5-8.6,2.2-12.1c2.2,0.2,4.4,0.5,6.8,0.3
	C40.5,18,41.5,22.2,42,26.7z M28.9,26c-3.9-0.6-7.4-1.4-10.3-2.4c1.8-4.2,4.1-8,6.7-11.1c1.6,0.5,3.4,1,5.8,1.4
	C30.4,17.1,29.7,21,28.9,26z M17.1,23c-3-1.2-5.2-2.4-6.7-3.7c2.6-3.7,6-7,9.8-9.4c0.9,0.7,2,1.4,3.5,2C21.2,15.1,18.9,18.9,17.1,23
	z M39.7,54.7c-3.4,0.2-7.4,0.1-12.1-0.5c0-3,0.2-6.7,0.6-11.1c4.5,0.6,9.3,0.8,13.9,0.6C41.8,47.9,40.9,51.6,39.7,54.7z M50.5,52.8
	c-2.4,0.9-5.5,1.5-9.1,1.8c1.1-3,1.9-6.7,2.4-11c4.1-0.3,7.8-1,10.9-1.9C54.1,45.8,52.6,49.6,50.5,52.8z M54.8,40
	c-2.7,1-6.3,1.7-10.9,2.1c0.3-4.5,0.3-9.3-0.2-14c3.6-0.3,6.8-0.9,9.4-1.8C54.6,31,55.1,35.6,54.8,40z M58.6,23.1
	c1.8,4.1,2.5,8.4,2.1,12.8c-0.6,1.3-2,2.5-4.4,3.5c0.3-4.4-0.4-9.1-1.8-13.6C56.3,25.1,57.7,24.1,58.6,23.1z M49.4,11.2
	C53,14,56,17.5,57.9,21.5c-0.6,1.1-1.9,2.1-3.8,2.9c-1.5-4.2-3.8-8.3-6.7-11.7C48.2,12.3,48.9,11.8,49.4,11.2z M47.8,7.8
	c0.3,0.3,0.5,0.6,0.6,0.8c-1.4-0.9-2.9-1.8-4.5-2.5C45.3,6.6,46.6,7.1,47.8,7.8z M48.1,10.2c-0.4,0.4-1,0.8-1.8,1.2
	c-1.8-2-3.7-3.6-5.6-4.9C43.2,7.4,45.7,8.6,48.1,10.2z M44.8,12c-1.4,0.4-2.8,0.6-4.3,0.7c-0.9-2.5-1.9-4.7-3.1-6.5
	C40.1,7.7,42.6,9.6,44.8,12z M34.9,5.7c1.5,1.8,2.8,4.2,3.9,7.2c-1.9,0-3.9,0-5.8-0.3C33.7,9.8,34.3,7.4,34.9,5.7z M33.2,5.7
	c-0.6,1.8-1.2,4.1-1.8,6.7c-1.9-0.3-3.6-0.7-5-1.2C28.7,8.7,31,6.8,33.2,5.7z M24.8,10.7c-1.4-0.6-2.4-1.1-3.2-1.6
	c2.8-1.6,5.8-2.8,8.8-3.4C28.5,6.9,26.6,8.6,24.8,10.7z M20,6.6c2.3-0.9,4.6-1.4,7-1.7c-2.2,0.7-4.4,1.7-6.5,3
	C20,7.3,19.9,6.9,20,6.6z M8.2,15.2c1.3-1.5,3.3-3.5,4.7-4.6c1.6-1.3,3.5-2.4,5.7-3.4c0.1,0.5,0.3,1,0.7,1.5
	c-3.9,2.6-7.3,5.9-9.9,9.6C8.7,17.4,8.4,16.3,8.2,15.2z M9.6,20.7c1.7,1.4,4,2.7,6.9,3.8c-1.8,4.4-3,9-3.5,13.5
	c-3.4-1.3-6.2-2.9-7.9-4.5C5.6,29.1,7.1,24.7,9.6,20.7z M5,35.3c2,1.5,4.7,3,7.9,4.2c-0.3,4.1,0,7.9,0.8,11.3
	c-2.9-1.3-5-2.5-6.3-3.8C5.7,43.5,4.8,39.4,5,35.3z"/>
</svg>
