<?xml version="1.0" encoding="utf-8"?>
<!-- Generator: Adobe Illustrator 21.0.1, SVG Export Plug-In . SVG Version: 6.00 Build 0)  -->
<svg version="1.1" id="Layer_1" xmlns="http://www.w3.org/2000/svg" xmlns:xlink="http://www.w3.org/1999/xlink" x="0px" y="0px"
	 viewBox="0 0 64 64" style="enable-background:new 0 0 64 64;" xml:space="preserve">
<style type="text/css">
	.st0{opacity:0.6;}
	.st1{fill:#B4B8BF;}
	.st2{fill:#909499;}
	.st3{fill:url(#SVGID_1_);}
	.st4{fill:url(#SVGID_2_);}
	.st5{fill:url(#SVGID_3_);}
	.st6{fill:url(#SVGID_4_);}
	.st7{fill:url(#SVGID_5_);}
	.st8{fill:url(#SVGID_6_);}
	.st9{fill:#C7CBD7;}
	.st10{opacity:0.8;}
</style>
<g class="st0">
	<path class="st1" d="M52.6,24.9c-1.5-4.2-3.8-8.3-6.7-11.7c-1.4,0.5-3.1,0.8-5,1c1.2,3.8,2.1,8.1,2.6,12.4
		C47.3,26.3,50.3,25.7,52.6,24.9z"/>
	<path class="st2" d="M42.3,42.2c0.5-4.4,0.4-9.1,0-14.1c-1.1,0.1-2.2,0.1-3.2,0.1c-3,0-6.1-0.1-8.9-0.5c-0.8,4.9-1.4,10.2-1.8,13.9
		C32.9,42.3,37.7,42.5,42.3,42.2z"/>
	<linearGradient id="SVGID_1_" gradientUnits="userSpaceOnUse" x1="3.57" y1="9.0497" x2="60.45" y2="9.0497">
		<stop  offset="0" style="stop-color:#C7CBD7"/>
		<stop  offset="0.5" style="stop-color:#C7CBD7"/>
		<stop  offset="1" style="stop-color:#C7CBD7"/>
	</linearGradient>
	<path class="st3" d="M26.4,11.2c1.4,0.5,3.1,0.9,5,1.2c0.6-2.6,1.2-4.9,1.8-6.7C31,6.8,28.7,8.7,26.4,11.2z"/>
	<path class="st1" d="M42,26.7c-0.5-4.5-1.5-8.7-2.7-12.3c-2.4,0.2-4.6-0.1-6.8-0.3c-0.7,3.5-1.5,7.6-2.2,12.1
		C34.3,26.7,38.3,26.8,42,26.7z"/>
	<linearGradient id="SVGID_2_" gradientUnits="userSpaceOnUse" x1="3.57" y1="9.2997" x2="60.45" y2="9.2997">
		<stop  offset="0" style="stop-color:#C7CBD7"/>
		<stop  offset="0.5" style="stop-color:#C7CBD7"/>
		<stop  offset="1" style="stop-color:#C7CBD7"/>
	</linearGradient>
	<path class="st4" d="M38.8,12.9c-1.1-3-2.4-5.4-3.9-7.2c-0.6,1.7-1.2,4.1-1.9,6.9C34.9,12.9,36.9,12.9,38.8,12.9z"/>
	<linearGradient id="SVGID_3_" gradientUnits="userSpaceOnUse" x1="3.57" y1="9.4497" x2="60.45" y2="9.4497">
		<stop  offset="0" style="stop-color:#C7CBD7"/>
		<stop  offset="0.5" style="stop-color:#C7CBD7"/>
		<stop  offset="1" style="stop-color:#C7CBD7"/>
	</linearGradient>
	<path class="st5" d="M44.8,12c-2.2-2.4-4.7-4.3-7.4-5.8c1.2,1.8,2.2,4,3.1,6.5C42,12.6,43.4,12.4,44.8,12z"/>
	<linearGradient id="SVGID_4_" gradientUnits="userSpaceOnUse" x1="3.57" y1="8.9497" x2="60.45" y2="8.9497">
		<stop  offset="0" style="stop-color:#C7CBD7"/>
		<stop  offset="0.5" style="stop-color:#C7CBD7"/>
		<stop  offset="1" style="stop-color:#C7CBD7"/>
	</linearGradient>
	<path class="st6" d="M46.3,11.4c0.8-0.4,1.4-0.8,1.8-1.2c-2.4-1.6-4.9-2.8-7.4-3.7C42.6,7.8,44.5,9.4,46.3,11.4z"/>
	<path class="st2" d="M54.8,40c0.3-4.4-0.2-9-1.7-13.7c-2.6,0.9-5.8,1.5-9.4,1.8c0.5,4.7,0.5,9.5,0.2,14C48.5,41.7,52.1,41,54.8,40z
		"/>
	<path class="st1" d="M54.1,24.4c1.9-0.8,3.2-1.8,3.8-2.9c-1.9-4-4.9-7.5-8.5-10.3c-0.5,0.6-1.2,1.1-2,1.5
		C50.3,16.1,52.6,20.2,54.1,24.4z"/>
	<path class="st1" d="M31.1,13.9c-2.4-0.4-4.2-0.9-5.8-1.4c-2.6,3.1-4.9,6.9-6.7,11.1c2.9,1,6.4,1.8,10.3,2.4
		C29.7,21,30.4,17.1,31.1,13.9z"/>
	<linearGradient id="SVGID_5_" gradientUnits="userSpaceOnUse" x1="3.57" y1="8.1997" x2="60.45" y2="8.1997">
		<stop  offset="0" style="stop-color:#C7CBD7"/>
		<stop  offset="0.5" style="stop-color:#C7CBD7"/>
		<stop  offset="1" style="stop-color:#C7CBD7"/>
	</linearGradient>
	<path class="st7" d="M24.8,10.7c1.8-2.1,3.7-3.8,5.6-5c-3,0.6-6,1.8-8.8,3.4C22.4,9.6,23.4,10.1,24.8,10.7z"/>
	<path class="st1" d="M23.7,11.9c-1.5-0.6-2.6-1.3-3.5-2c-3.8,2.4-7.2,5.7-9.8,9.4c1.5,1.3,3.7,2.5,6.7,3.7
		C18.9,18.9,21.2,15.1,23.7,11.9z"/>
	<path class="st2" d="M5.1,33.5c1.7,1.6,4.5,3.2,7.9,4.5c0.5-4.5,1.7-9.1,3.5-13.5c-2.9-1.1-5.2-2.4-6.9-3.8
		C7.1,24.7,5.6,29.1,5.1,33.5z"/>
	<path class="st2" d="M60.1,27.55c-0.36-1.5-0.86-2.99-1.5-4.45c-0.9,1-2.3,2-4.1,2.7c1.4,4.5,2.1,9.2,1.8,13.6
		c1.74-0.73,2.94-1.56,3.71-2.45c0.28-1.61,0.44-3.26,0.44-4.95C60.45,30.49,60.33,29,60.1,27.55z"/>
	<path class="st1" d="M38.8,59.62c3.62-0.89,6.96-2.48,9.89-4.6l0.11-0.12c-2.3,0.6-4.9,1.1-7.9,1.3
		C40.25,57.56,39.56,58.68,38.8,59.62z"/>
	<linearGradient id="SVGID_6_" gradientUnits="userSpaceOnUse" x1="3.57" y1="6.3997" x2="60.45" y2="6.3997">
		<stop  offset="0" style="stop-color:#C7CBD7"/>
		<stop  offset="0.5" style="stop-color:#C7CBD7"/>
		<stop  offset="1" style="stop-color:#C7CBD7"/>
	</linearGradient>
	<path class="st8" d="M27,4.9c-2.4,0.3-4.7,0.8-7,1.7c-0.1,0.3,0,0.7,0.5,1.3C22.6,6.6,24.8,5.6,27,4.9z"/>
	<path class="st2" d="M39.7,54.7c1.2-3.1,2.1-6.8,2.4-11c-4.6,0.2-9.4,0-13.9-0.6c-0.4,4.4-0.6,8.1-0.6,11.1
		C32.3,54.8,36.3,54.9,39.7,54.7z"/>
	<path class="st2" d="M53.84,50.21c2.59-3.11,4.53-6.77,5.62-10.78C58.6,40,57.6,40.52,56.4,41C56.06,44.33,55.2,47.44,53.84,50.21z
		"/>
	<path class="st2" d="M43.8,43.6c-0.5,4.3-1.3,8-2.4,11c3.6-0.3,6.7-0.9,9.1-1.8c2.1-3.2,3.6-7,4.2-11.1
		C51.6,42.6,47.9,43.3,43.8,43.6z"/>
	<path class="st2" d="M17.8,25c-1.7,4.3-2.9,9-3.4,13.5c3.7,1.2,8,2.3,12.4,3c0.5-4.6,1.2-9.4,1.8-13.9C24.5,27,21,26.1,17.8,25z"/>
	<path class="st1" d="M36.4,56.2c-2.9,0-5.9-0.1-8.7-0.5c0,2.04,0.19,3.51,0.37,4.47c1.28,0.18,2.59,0.28,3.93,0.27
		c1.41,0,2.79-0.1,4.14-0.3c1.01-0.99,2.01-2.31,2.86-3.94H36.4z"/>
	<path class="st2" d="M15.5,51.5c2.9,1,6.6,1.9,10.6,2.5c0-3.8,0.4-8,0.6-10.5V43c-4.5-0.6-8.7-1.6-12.4-2.9
		C14.1,44.2,14.5,48.2,15.5,51.5z"/>
	<path class="st2" d="M12.9,39.5C9.7,38.3,7,36.8,5,35.3c-0.14,2.93,0.28,5.86,1.16,8.57c0.64,1.39,1.38,2.72,2.23,3.98
		c1.29,0.99,3.05,1.94,5.31,2.95C12.9,47.4,12.6,43.6,12.9,39.5z"/>
	<path class="st1" d="M19.3,8.7c-0.4-0.5-0.6-1-0.7-1.5c-1,0.46-1.93,0.93-2.81,1.44c-2.9,2.02-5.41,4.56-7.39,7.49
		c0.21,0.77,0.5,1.52,1,2.17C12,14.6,15.4,11.3,19.3,8.7z"/>
	<path class="st2" d="M7.43,17.69c-2.37,4.05-3.76,8.73-3.86,13.73L3.9,32c0.7-4.5,2.3-8.8,4.7-12.5C8.08,18.92,7.7,18.3,7.43,17.69
		z"/>
	<path class="st1" d="M11.1,51.28c1.3,1.4,2.73,2.67,4.28,3.79c-0.43-0.78-0.79-1.6-1.08-2.47C13.15,52.2,12.07,51.75,11.1,51.28z"
		/>
	<path class="st1" d="M16.3,53.2c0.69,1.62,1.57,3,2.62,4.05c2.36,1.23,4.92,2.14,7.61,2.66c-0.22-1.14-0.33-2.64-0.33-4.41
		C22.5,54.9,19.2,54.2,16.3,53.2z"/>
</g>
<path class="st9" d="M30.34,22.96c-2.52,0.36-2.99,0.83-3.57,3.58c-0.83,4.35-1.46,8.97-1.81,13.51c-0.08,1.08-0.15,2.13-0.2,3.15
	c-0.04,2.22,0.46,2.82,3.18,3.76l-0.03,0.66l-1.19-0.14c-3.73-0.48-7.14-1.15-10.12-1.97l-0.05-0.67c2.65-0.02,2.68-0.82,2.77-3.19
	c0.03-0.85,0.08-1.72,0.14-2.62c0.36-4.72,1.27-9.47,2.56-13.89c0.62-2.27,0.46-2.78-1.26-3.96l0.29-0.68
	c2.47,0.67,5.31,1.24,8.4,1.63l0.99,0.12C30.44,22.25,30.34,22.96,30.34,22.96z M51.45,22.04c-1.14,0.91-1.19,2.05-1.31,4.55
	c-0.44,9.54-3.99,17.23-6.9,22l-0.74,0.05c-1.24-5.75-2-7.97-6.21-20.33c-1.34-3.85-1.87-4.57-3.77-5.14l0.07-0.72
	c3.26,0.28,6.44,0.34,9.36,0.2l0.11,0.72c-1.12,0.36-1.74,0.89-1.39,2.43c0.02,0.07,0.12,0.48,0.42,1.22
	c1.61,3.91,3.44,8.34,4.81,13.09c1.9-5.43,2.5-8.11,2.93-13.04c0.14-3.63-1.68-3.89-2.66-4.03l-0.19-0.71
	c1.92-0.23,3.67-0.57,5.17-0.99L51.45,22.04z"/>
<path class="st10" d="M21.05,20.5c2.47,0.67,5.31,1.24,8.4,1.63l0.99,0.12l-0.1,0.71c-2.52,0.36-2.99,0.83-3.57,3.58
	c-0.83,4.35-1.46,8.97-1.81,13.51c-0.08,1.08-0.15,2.13-0.2,3.15c-0.04,2.22,0.46,2.82,3.18,3.76l-0.03,0.66l-1.19-0.14
	c-3.73-0.48-7.14-1.15-10.12-1.97l-0.05-0.67c2.65-0.02,2.68-0.82,2.77-3.19c0.03-0.85,0.08-1.72,0.14-2.62
	c0.36-4.72,1.27-9.47,2.56-13.89c0.62-2.27,0.46-2.78-1.26-3.96L21.05,20.5 M51.15,21.34l0.3,0.7c-1.14,0.91-1.19,2.05-1.31,4.55
	c-0.44,9.54-3.99,17.23-6.9,22l-0.74,0.05c-1.24-5.75-2-7.97-6.21-20.33c-1.34-3.85-1.87-4.57-3.77-5.14l0.07-0.72
	c2.14,0.18,4.24,0.27,6.26,0.27c1.06,0,2.09-0.02,3.1-0.07l0.11,0.72c-1.12,0.36-1.74,0.89-1.39,2.43c0.02,0.07,0.12,0.48,0.42,1.22
	c1.61,3.91,3.44,8.34,4.81,13.09c1.9-5.43,2.5-8.11,2.93-13.04c0.14-3.63-1.68-3.89-2.66-4.03l-0.19-0.71
	C47.9,22.1,49.65,21.76,51.15,21.34 M20.47,19.31l-0.34,0.8l-0.29,0.68l-0.32,0.75L20.19,22c1.31,0.9,1.39,0.95,0.86,2.87
	c-1.34,4.6-2.24,9.48-2.59,14.08c-0.07,1.05-0.12,1.9-0.14,2.66c-0.08,2.21-0.08,2.21-1.78,2.23l-1.07,0.01l0.08,1.07l0.05,0.67
	l0.05,0.7l0.68,0.19c3.07,0.84,6.52,1.52,10.26,2l1.2,0.14l1.07,0.13l0.05-1.07l0.03-0.66l0.03-0.75l-0.71-0.24
	c-2.47-0.85-2.54-1.15-2.51-2.8c0.04-0.87,0.11-1.86,0.2-3.09c0.34-4.38,0.96-9.01,1.8-13.4c0.5-2.39,0.71-2.49,2.73-2.78l0.74-0.11
	l0.1-0.74l0.1-0.71l0.14-1.01l-1.01-0.12l-0.99-0.12c-2.92-0.37-5.7-0.91-8.26-1.6L20.47,19.31L20.47,19.31z M51.72,20.14
	l-0.84,0.24c-1.49,0.42-3.17,0.74-5.02,0.96l-1.15,0.14l0.3,1.11l0.19,0.71l0.17,0.64l0.65,0.09c0.89,0.13,1.91,0.27,1.8,3
	c-0.33,3.83-0.78,6.28-1.9,9.82c-1.21-3.63-2.61-7.03-3.87-10.1l-0.05-0.12c-0.16-0.4-0.29-0.76-0.37-1.07
	c-0.21-0.91-0.02-1.01,0.72-1.25l0.81-0.26l-0.13-0.84l-0.11-0.72l-0.14-0.89l-0.9,0.04c-0.99,0.05-2.02,0.07-3.05,0.07
	c-2.02,0-4.1-0.09-6.18-0.27l-0.99-0.08l-0.1,0.98l-0.07,0.72l-0.08,0.82l0.79,0.24c1.39,0.42,1.77,0.66,3.11,4.51l0.06,0.19
	C39.55,41,40.3,43.19,41.52,48.85l0.18,0.85l0.86-0.06l0.74-0.05l0.52-0.03l0.27-0.44c2.97-4.86,6.59-12.71,7.05-22.47
	c0.12-2.48,0.19-3.22,0.93-3.81l0.6-0.48l-0.3-0.7l-0.3-0.7L51.72,20.14L51.72,20.14z"/>
</svg>
