<?xml version="1.0" encoding="utf-8"?>
<!-- Generator: Adobe Illustrator 21.0.1, SVG Export Plug-In . SVG Version: 6.00 Build 0)  -->
<svg version="1.1" id="Layer_1" xmlns="http://www.w3.org/2000/svg" xmlns:xlink="http://www.w3.org/1999/xlink" x="0px" y="0px"
	 viewBox="0 0 64 64" style="enable-background:new 0 0 64 64;" xml:space="preserve">
<style type="text/css">
	.st0{opacity:0.6;}
	.st1{fill:#B4B8BF;}
	.st2{fill:#909499;}
	.st3{fill:url(#SVGID_1_);}
	.st4{fill:url(#SVGID_2_);}
	.st5{fill:url(#SVGID_3_);}
	.st6{fill:url(#SVGID_4_);}
	.st7{fill:url(#SVGID_5_);}
	.st8{fill:url(#SVGID_6_);}
	.st9{fill:#C7CBD7;}
	.st10{opacity:0.8;enable-background:new    ;}
</style>
<g>
	<g class="st0">
		<path class="st1" d="M46.5,26.5c-1.1-3-2.7-5.8-4.7-8.2c-1,0.4-2.2,0.6-3.5,0.7c0.8,2.7,1.5,5.7,1.8,8.7
			C42.8,27.5,44.9,27.1,46.5,26.5z"/>
		<path class="st2" d="M39.2,38.7c0.4-3.1,0.3-6.4,0-9.9c-0.8,0.1-1.5,0.1-2.3,0.1c-2.1,0-4.3-0.1-6.3-0.4c-0.6,3.4-1,7.2-1.3,9.8
			C32.6,38.8,36,38.9,39.2,38.7z"/>
		
			<linearGradient id="SVGID_1_" gradientUnits="userSpaceOnUse" x1="12" y1="48.6106" x2="52" y2="48.6106" gradientTransform="matrix(1 0 0 -1 0 64)">
			<stop  offset="0" style="stop-color:#C7CBD7"/>
			<stop  offset="0.5" style="stop-color:#C7CBD7"/>
			<stop  offset="1" style="stop-color:#C7CBD7"/>
		</linearGradient>
		<path class="st3" d="M28.1,16.9c1,0.4,2.2,0.6,3.5,0.8c0.4-1.8,0.8-3.4,1.3-4.7C31.3,13.8,29.7,15.1,28.1,16.9z"/>
		<path class="st1" d="M39,27.8c-0.4-3.2-1.1-6.1-1.9-8.6c-1.7,0.1-3.2-0.1-4.8-0.2c-0.5,2.5-1.1,5.3-1.5,8.5
			C33.6,27.8,36.4,27.9,39,27.8z"/>
		
			<linearGradient id="SVGID_2_" gradientUnits="userSpaceOnUse" x1="12" y1="48.4348" x2="52" y2="48.4348" gradientTransform="matrix(1 0 0 -1 0 64)">
			<stop  offset="0" style="stop-color:#C7CBD7"/>
			<stop  offset="0.5" style="stop-color:#C7CBD7"/>
			<stop  offset="1" style="stop-color:#C7CBD7"/>
		</linearGradient>
		<path class="st4" d="M36.8,18.1C36,16,35.1,14.3,34,13c-0.4,1.2-0.8,2.9-1.3,4.9C34,18.1,35.4,18.1,36.8,18.1z"/>
		
			<linearGradient id="SVGID_3_" gradientUnits="userSpaceOnUse" x1="12" y1="48.3294" x2="52" y2="48.3294" gradientTransform="matrix(1 0 0 -1 0 64)">
			<stop  offset="0" style="stop-color:#C7CBD7"/>
			<stop  offset="0.5" style="stop-color:#C7CBD7"/>
			<stop  offset="1" style="stop-color:#C7CBD7"/>
		</linearGradient>
		<path class="st5" d="M41,17.5c-1.5-1.7-3.3-3-5.2-4.1c0.8,1.3,1.5,2.8,2.2,4.6C39,17.9,40,17.7,41,17.5z"/>
		
			<linearGradient id="SVGID_4_" gradientUnits="userSpaceOnUse" x1="12" y1="48.681" x2="52" y2="48.681" gradientTransform="matrix(1 0 0 -1 0 64)">
			<stop  offset="0" style="stop-color:#C7CBD7"/>
			<stop  offset="0.5" style="stop-color:#C7CBD7"/>
			<stop  offset="1" style="stop-color:#C7CBD7"/>
		</linearGradient>
		<path class="st6" d="M42,17c0.6-0.3,1-0.6,1.3-0.8c-1.7-1.1-3.4-2-5.2-2.6C39.4,14.5,40.8,15.6,42,17z"/>
		<path class="st2" d="M48,37.2c0.2-3.1-0.1-6.3-1.2-9.6c-1.8,0.6-4.1,1.1-6.6,1.3c0.4,3.3,0.4,6.7,0.1,9.8
			C43.6,38.3,46.1,37.9,48,37.2z"/>
		<path class="st1" d="M47.5,26.2c1.3-0.6,2.3-1.3,2.7-2c-1.3-2.8-3.4-5.3-6-7.2c-0.4,0.4-0.8,0.8-1.4,1.1
			C44.9,20.3,46.5,23.2,47.5,26.2z"/>
		<path class="st1" d="M31.4,18.8c-1.7-0.3-3-0.6-4.1-1c-1.8,2.2-3.4,4.9-4.7,7.8c2,0.7,4.5,1.3,7.2,1.7
			C30.4,23.8,30.9,21.1,31.4,18.8z"/>
		
			<linearGradient id="SVGID_5_" gradientUnits="userSpaceOnUse" x1="12" y1="49.2084" x2="52" y2="49.2084" gradientTransform="matrix(1 0 0 -1 0 64)">
			<stop  offset="0" style="stop-color:#C7CBD7"/>
			<stop  offset="0.5" style="stop-color:#C7CBD7"/>
			<stop  offset="1" style="stop-color:#C7CBD7"/>
		</linearGradient>
		<path class="st7" d="M26.9,16.5c1.3-1.5,2.6-2.7,3.9-3.5c-2.1,0.4-4.2,1.3-6.2,2.4C25.2,15.8,25.9,16.1,26.9,16.5z"/>
		<path class="st1" d="M26.2,17.4c-1.1-0.4-1.8-0.9-2.5-1.4c-2.7,1.7-5.1,4-6.9,6.6c1.1,0.9,2.6,1.8,4.7,2.6
			C22.8,22.3,24.4,19.6,26.2,17.4z"/>
		<path class="st2" d="M13.1,32.6c1.2,1.1,3.2,2.3,5.6,3.2c0.4-3.2,1.2-6.4,2.5-9.5c-2-0.8-3.7-1.7-4.9-2.7
			C14.5,26.4,13.4,29.5,13.1,32.6z"/>
		<path class="st2" d="M51.8,28.4c-0.3-1.1-0.6-2.1-1.1-3.1c-0.6,0.7-1.6,1.4-2.9,1.9c1,3.2,1.5,6.5,1.3,9.6
			c1.2-0.5,2.1-1.1,2.6-1.7c0.2-1.1,0.3-2.3,0.3-3.5C52,30.5,51.9,29.4,51.8,28.4z"/>
		<path class="st1" d="M36.8,51c2.5-0.6,4.9-1.7,7-3.2l0.1-0.1c-1.6,0.4-3.4,0.8-5.6,0.9C37.8,49.5,37.3,50.3,36.8,51z"/>
		
			<linearGradient id="SVGID_6_" gradientUnits="userSpaceOnUse" x1="12" y1="50.4742" x2="52" y2="50.4742" gradientTransform="matrix(1 0 0 -1 0 64)">
			<stop  offset="0" style="stop-color:#C7CBD7"/>
			<stop  offset="0.5" style="stop-color:#C7CBD7"/>
			<stop  offset="1" style="stop-color:#C7CBD7"/>
		</linearGradient>
		<path class="st8" d="M28.5,12.5c-1.7,0.2-3.3,0.6-4.9,1.2c-0.1,0.2,0,0.5,0.4,0.9C25.4,13.7,26.9,13,28.5,12.5z"/>
		<path class="st2" d="M37.4,47.5c0.8-2.2,1.5-4.8,1.7-7.7c-3.2,0.1-6.6,0-9.8-0.4c-0.3,3.1-0.4,5.7-0.4,7.8
			C32.2,47.6,35,47.6,37.4,47.5z"/>
		<path class="st2" d="M47.4,44.3c1.8-2.2,3.2-4.8,4-7.6c-0.6,0.4-1.3,0.8-2.2,1.1C48.9,40.2,48.3,42.4,47.4,44.3z"/>
		<path class="st2" d="M40.3,39.7c-0.4,3-0.9,5.6-1.7,7.7c2.5-0.2,4.7-0.6,6.4-1.3c1.5-2.3,2.5-4.9,3-7.8
			C45.8,39,43.2,39.5,40.3,39.7z"/>
		<path class="st2" d="M22,26.6c-1.2,3-2,6.3-2.4,9.5c2.6,0.8,5.6,1.6,8.7,2.1c0.4-3.2,0.8-6.6,1.3-9.8C26.7,28,24.3,27.4,22,26.6z"
			/>
		<path class="st1" d="M35.1,48.5c-2,0-4.1-0.1-6.1-0.4c0,1.4,0.1,2.5,0.3,3.1c0.9,0.1,1.8,0.2,2.8,0.2c1,0,2-0.1,2.9-0.2
			c0.7-0.7,1.4-1.6,2-2.8C36.9,48.5,35.1,48.5,35.1,48.5z"/>
		<path class="st2" d="M20.4,45.2c2,0.7,4.6,1.3,7.5,1.8c0-2.7,0.3-5.6,0.4-7.4v-0.4c-3.2-0.4-6.1-1.1-8.7-2
			C19.4,40.1,19.7,42.9,20.4,45.2z"/>
		<path class="st2" d="M18.6,36.8c-2.3-0.8-4.1-1.9-5.6-3c-0.1,2.1,0.2,4.1,0.8,6c0.5,1,1,1.9,1.6,2.8c0.9,0.7,2.1,1.4,3.7,2.1
			C18.6,42.4,18.4,39.7,18.6,36.8z"/>
		<path class="st1" d="M23.1,15.1c-0.3-0.4-0.4-0.7-0.5-1.1c-0.7,0.3-1.4,0.7-2,1c-2,1.4-3.8,3.2-5.2,5.3c0.1,0.5,0.4,1.1,0.7,1.5
			C17.9,19.3,20.3,17,23.1,15.1z"/>
		<path class="st2" d="M14.7,21.5c-1.7,2.8-2.6,6.1-2.7,9.7l0.2,0.4c0.5-3.2,1.6-6.2,3.3-8.8C15.2,22.3,14.9,21.9,14.7,21.5z"/>
		<path class="st1" d="M17.3,45.1c0.9,1,1.9,1.9,3,2.7c-0.3-0.5-0.6-1.1-0.8-1.7C18.7,45.7,18,45.4,17.3,45.1z"/>
		<path class="st1" d="M21,46.4c0.5,1.1,1.1,2.1,1.8,2.8c1.7,0.9,3.5,1.5,5.4,1.9c-0.2-0.8-0.2-1.9-0.2-3.1
			C25.3,47.6,23,47.1,21,46.4z"/>
	</g>
	<path class="st9" d="M42.2,25.2c-1,0.5-1.3,1.2-1.7,3.1c-1,5.1-3,10.1-5.8,15c-0.2,0-0.4,0-0.6,0c-2.7-8.3-3.5-10.8-4.4-14.8
		c-0.6-2.7-0.8-3.3-2.1-3.8l0.1-0.5c0.8,0.1,1.6,0.3,2.5,0.4c1.5,0.2,2.9,0.3,4.3,0.4l0,0.5c-0.7,0.1-1.5,0.4-1.3,1.7
		c0.6,3.6,2.2,6.8,3.2,10.2c1.7-4.1,2.3-5.9,3-9c0.4-2.3-0.6-2.8-1.7-3L37.7,25c1.5,0,3-0.1,4.3-0.3C42.1,24.9,42.2,25,42.2,25.2z"
		/>
	<path class="st10" d="M27.7,24.2c0.8,0.1,1.6,0.3,2.5,0.4c1.5,0.2,2.9,0.3,4.3,0.4l0,0.5c-0.7,0.1-1.5,0.4-1.3,1.7
		c0.6,3.6,2.2,6.8,3.2,10.2c1.7-4.1,2.3-5.9,3-9c0.4-2.3-0.6-2.8-1.7-3L37.7,25c1.5,0,3-0.1,4.3-0.3c0.1,0.2,0.1,0.3,0.1,0.5
		c-1,0.5-1.3,1.2-1.7,3.1c-1,5.1-3,10.1-5.8,15c-0.2,0-0.4,0-0.6,0c-2.7-8.3-3.5-10.8-4.4-14.8c-0.6-2.7-0.8-3.3-2.1-3.8L27.7,24.2
		 M27.2,23.4L27.1,24l-0.1,0.5l-0.2,0.6l0.6,0.2c0.9,0.4,1.1,0.5,1.7,3.3c0.9,3.9,1.7,6.4,4.4,14.8l0.2,0.5h0.5c0.2,0,0.4,0,0.5,0
		l0.4,0l0.2-0.4c2.9-5,4.9-10.1,5.9-15.3c0.4-1.9,0.6-2.2,1.3-2.6l0.5-0.3L42.9,25c0-0.2-0.1-0.4-0.2-0.6L42.5,24L42,24
		c-1.3,0.2-2.8,0.3-4.3,0.3l-0.8,0l0.1,0.8l0.1,0.5l0.1,0.5l0.5,0.1c0.8,0.2,1.5,0.3,1.1,2.2c-0.6,2.5-1.1,4.2-2.2,7.1
		c-0.2-0.6-0.4-1.1-0.6-1.7c-0.8-2.1-1.6-4.4-2-6.6c-0.1-0.7,0.1-0.8,0.8-0.9l0.6-0.1l0-0.6l0-0.5l0-0.7l-0.7,0
		c-1.5-0.1-2.9-0.2-4.3-0.4c-0.8-0.1-1.7-0.2-2.4-0.4L27.2,23.4L27.2,23.4z"/>
</g>
</svg>
