<?xml version="1.0" encoding="utf-8"?>
<!-- Generator: Adobe Illustrator 21.0.1, SVG Export Plug-In . SVG Version: 6.00 Build 0)  -->
<svg version="1.1" id="Layer_1" xmlns="http://www.w3.org/2000/svg" xmlns:xlink="http://www.w3.org/1999/xlink" x="0px" y="0px"
	 viewBox="0 0 64 64" style="enable-background:new 0 0 64 64;" xml:space="preserve">
<style type="text/css">
	.st0{opacity:0.6;}
	.st1{fill:#B4B8BF;}
	.st2{fill:#909499;}
	.st3{fill:url(#SVGID_1_);}
	.st4{fill:url(#SVGID_2_);}
	.st5{fill:url(#SVGID_3_);}
	.st6{fill:url(#SVGID_4_);}
	.st7{fill:url(#SVGID_5_);}
	.st8{fill:url(#SVGID_6_);}
	.st9{fill:#C7CBD7;}
	.st10{opacity:0.8;}
</style>
<g class="st0">
	<path class="st1" d="M52.6,24.9c-1.5-4.2-3.8-8.3-6.7-11.7c-1.4,0.5-3.1,0.8-5,1c1.2,3.8,2.1,8.1,2.6,12.4
		C47.3,26.3,50.3,25.7,52.6,24.9z"/>
	<path class="st2" d="M42.3,42.2c0.5-4.4,0.4-9.1,0-14.1c-1.1,0.1-2.2,0.1-3.2,0.1c-3,0-6.1-0.1-8.9-0.5c-0.8,4.9-1.4,10.2-1.8,13.9
		C32.9,42.3,37.7,42.5,42.3,42.2z"/>
	<linearGradient id="SVGID_1_" gradientUnits="userSpaceOnUse" x1="3.57" y1="9.0497" x2="60.45" y2="9.0497">
		<stop  offset="0" style="stop-color:#C7CBD7"/>
		<stop  offset="0.5" style="stop-color:#C7CBD7"/>
		<stop  offset="1" style="stop-color:#C7CBD7"/>
	</linearGradient>
	<path class="st3" d="M26.4,11.2c1.4,0.5,3.1,0.9,5,1.2c0.6-2.6,1.2-4.9,1.8-6.7C31,6.8,28.7,8.7,26.4,11.2z"/>
	<path class="st1" d="M42,26.7c-0.5-4.5-1.5-8.7-2.7-12.3c-2.4,0.2-4.6-0.1-6.8-0.3c-0.7,3.5-1.5,7.6-2.2,12.1
		C34.3,26.7,38.3,26.8,42,26.7z"/>
	<linearGradient id="SVGID_2_" gradientUnits="userSpaceOnUse" x1="3.57" y1="9.2997" x2="60.45" y2="9.2997">
		<stop  offset="0" style="stop-color:#C7CBD7"/>
		<stop  offset="0.5" style="stop-color:#C7CBD7"/>
		<stop  offset="1" style="stop-color:#C7CBD7"/>
	</linearGradient>
	<path class="st4" d="M38.8,12.9c-1.1-3-2.4-5.4-3.9-7.2c-0.6,1.7-1.2,4.1-1.9,6.9C34.9,12.9,36.9,12.9,38.8,12.9z"/>
	<linearGradient id="SVGID_3_" gradientUnits="userSpaceOnUse" x1="3.57" y1="9.4497" x2="60.45" y2="9.4497">
		<stop  offset="0" style="stop-color:#C7CBD7"/>
		<stop  offset="0.5" style="stop-color:#C7CBD7"/>
		<stop  offset="1" style="stop-color:#C7CBD7"/>
	</linearGradient>
	<path class="st5" d="M44.8,12c-2.2-2.4-4.7-4.3-7.4-5.8c1.2,1.8,2.2,4,3.1,6.5C42,12.6,43.4,12.4,44.8,12z"/>
	<linearGradient id="SVGID_4_" gradientUnits="userSpaceOnUse" x1="3.57" y1="8.9497" x2="60.45" y2="8.9497">
		<stop  offset="0" style="stop-color:#C7CBD7"/>
		<stop  offset="0.5" style="stop-color:#C7CBD7"/>
		<stop  offset="1" style="stop-color:#C7CBD7"/>
	</linearGradient>
	<path class="st6" d="M46.3,11.4c0.8-0.4,1.4-0.8,1.8-1.2c-2.4-1.6-4.9-2.8-7.4-3.7C42.6,7.8,44.5,9.4,46.3,11.4z"/>
	<path class="st2" d="M54.8,40c0.3-4.4-0.2-9-1.7-13.7c-2.6,0.9-5.8,1.5-9.4,1.8c0.5,4.7,0.5,9.5,0.2,14C48.5,41.7,52.1,41,54.8,40z
		"/>
	<path class="st1" d="M54.1,24.4c1.9-0.8,3.2-1.8,3.8-2.9c-1.9-4-4.9-7.5-8.5-10.3c-0.5,0.6-1.2,1.1-2,1.5
		C50.3,16.1,52.6,20.2,54.1,24.4z"/>
	<path class="st1" d="M31.1,13.9c-2.4-0.4-4.2-0.9-5.8-1.4c-2.6,3.1-4.9,6.9-6.7,11.1c2.9,1,6.4,1.8,10.3,2.4
		C29.7,21,30.4,17.1,31.1,13.9z"/>
	<linearGradient id="SVGID_5_" gradientUnits="userSpaceOnUse" x1="3.57" y1="8.1997" x2="60.45" y2="8.1997">
		<stop  offset="0" style="stop-color:#C7CBD7"/>
		<stop  offset="0.5" style="stop-color:#C7CBD7"/>
		<stop  offset="1" style="stop-color:#C7CBD7"/>
	</linearGradient>
	<path class="st7" d="M24.8,10.7c1.8-2.1,3.7-3.8,5.6-5c-3,0.6-6,1.8-8.8,3.4C22.4,9.6,23.4,10.1,24.8,10.7z"/>
	<path class="st1" d="M23.7,11.9c-1.5-0.6-2.6-1.3-3.5-2c-3.8,2.4-7.2,5.7-9.8,9.4c1.5,1.3,3.7,2.5,6.7,3.7
		C18.9,18.9,21.2,15.1,23.7,11.9z"/>
	<path class="st2" d="M5.1,33.5c1.7,1.6,4.5,3.2,7.9,4.5c0.5-4.5,1.7-9.1,3.5-13.5c-2.9-1.1-5.2-2.4-6.9-3.8
		C7.1,24.7,5.6,29.1,5.1,33.5z"/>
	<path class="st2" d="M60.1,27.55c-0.36-1.5-0.86-2.99-1.5-4.45c-0.9,1-2.3,2-4.1,2.7c1.4,4.5,2.1,9.2,1.8,13.6
		c1.74-0.73,2.94-1.56,3.71-2.45c0.28-1.61,0.44-3.26,0.44-4.95C60.45,30.49,60.33,29,60.1,27.55z"/>
	<path class="st1" d="M38.8,59.62c3.62-0.89,6.96-2.48,9.89-4.6l0.11-0.12c-2.3,0.6-4.9,1.1-7.9,1.3
		C40.25,57.56,39.56,58.68,38.8,59.62z"/>
	<linearGradient id="SVGID_6_" gradientUnits="userSpaceOnUse" x1="3.57" y1="6.3997" x2="60.45" y2="6.3997">
		<stop  offset="0" style="stop-color:#C7CBD7"/>
		<stop  offset="0.5" style="stop-color:#C7CBD7"/>
		<stop  offset="1" style="stop-color:#C7CBD7"/>
	</linearGradient>
	<path class="st8" d="M27,4.9c-2.4,0.3-4.7,0.8-7,1.7c-0.1,0.3,0,0.7,0.5,1.3C22.6,6.6,24.8,5.6,27,4.9z"/>
	<path class="st2" d="M39.7,54.7c1.2-3.1,2.1-6.8,2.4-11c-4.6,0.2-9.4,0-13.9-0.6c-0.4,4.4-0.6,8.1-0.6,11.1
		C32.3,54.8,36.3,54.9,39.7,54.7z"/>
	<path class="st2" d="M53.84,50.21c2.59-3.11,4.53-6.77,5.62-10.78C58.6,40,57.6,40.52,56.4,41C56.06,44.33,55.2,47.44,53.84,50.21z
		"/>
	<path class="st2" d="M43.8,43.6c-0.5,4.3-1.3,8-2.4,11c3.6-0.3,6.7-0.9,9.1-1.8c2.1-3.2,3.6-7,4.2-11.1
		C51.6,42.6,47.9,43.3,43.8,43.6z"/>
	<path class="st2" d="M17.8,25c-1.7,4.3-2.9,9-3.4,13.5c3.7,1.2,8,2.3,12.4,3c0.5-4.6,1.2-9.4,1.8-13.9C24.5,27,21,26.1,17.8,25z"/>
	<path class="st1" d="M36.4,56.2c-2.9,0-5.9-0.1-8.7-0.5c0,2.04,0.19,3.51,0.37,4.47c1.28,0.18,2.59,0.28,3.93,0.27
		c1.41,0,2.79-0.1,4.14-0.3c1.01-0.99,2.01-2.31,2.86-3.94H36.4z"/>
	<path class="st2" d="M15.5,51.5c2.9,1,6.6,1.9,10.6,2.5c0-3.8,0.4-8,0.6-10.5V43c-4.5-0.6-8.7-1.6-12.4-2.9
		C14.1,44.2,14.5,48.2,15.5,51.5z"/>
	<path class="st2" d="M12.9,39.5C9.7,38.3,7,36.8,5,35.3c-0.14,2.93,0.28,5.86,1.16,8.57c0.64,1.39,1.38,2.72,2.23,3.98
		c1.29,0.99,3.05,1.94,5.31,2.95C12.9,47.4,12.6,43.6,12.9,39.5z"/>
	<path class="st1" d="M19.3,8.7c-0.4-0.5-0.6-1-0.7-1.5c-1,0.46-1.93,0.93-2.81,1.44c-2.9,2.02-5.41,4.56-7.39,7.49
		c0.21,0.77,0.5,1.52,1,2.17C12,14.6,15.4,11.3,19.3,8.7z"/>
	<path class="st2" d="M7.43,17.69c-2.37,4.05-3.76,8.73-3.86,13.73L3.9,32c0.7-4.5,2.3-8.8,4.7-12.5C8.08,18.92,7.7,18.3,7.43,17.69
		z"/>
	<path class="st1" d="M11.1,51.28c1.3,1.4,2.73,2.67,4.28,3.79c-0.43-0.78-0.79-1.6-1.08-2.47C13.15,52.2,12.07,51.75,11.1,51.28z"
		/>
	<path class="st1" d="M16.3,53.2c0.69,1.62,1.57,3,2.62,4.05c2.36,1.23,4.92,2.14,7.61,2.66c-0.22-1.14-0.33-2.64-0.33-4.41
		C22.5,54.9,19.2,54.2,16.3,53.2z"/>
</g>
<path class="st9" d="M27.16,22.68c-2.47,0.29-2.95,0.75-3.65,3.49c-1.01,4.32-1.74,8.92-2.09,13.47c-0.08,1.08-0.14,2.13-0.18,3.15
	c-0.02,2.23,0.47,2.84,3.11,3.85l-0.01,0.66c-4.03-0.58-7.67-1.4-10.74-2.36l-0.07-0.68c2.45,0.03,2.47-0.77,2.54-3.15
	c0.02-0.85,0.07-1.73,0.13-2.62c0.36-4.72,1.37-9.45,2.83-13.82c0.71-2.25,0.59-2.77-0.96-3.98l0.32-0.67
	c2.55,0.8,5.56,1.48,8.91,1.96L27.16,22.68z M40.5,23.41c-2.1,0.73-2.39,1.23-2.32,4.08c0.16,4.43,0.09,9.08-0.26,13.63
	c-0.08,1.08-0.18,2.13-0.29,3.14c-0.18,2.08,0.05,2.67,2.61,3.24l-0.12,0.65c-3.7,0.14-7.71,0.02-11.81-0.38l0.04-0.66
	c3.34-0.4,3.42-1.33,3.63-3.57c0.07-0.84,0.14-1.71,0.21-2.61c0.36-4.72,0.68-9.55,0.92-14.12c0.07-2.32-0.29-2.84-2.59-3.73
	l0.09-0.71c3.4,0.34,6.73,0.43,9.8,0.32C40.41,22.69,40.5,23.41,40.5,23.41z M51.06,21.86c-1.31,1.17-1.22,1.66-0.51,4.4
	c1.15,4.33,1.64,8.93,1.29,13.48c-0.08,1.08-0.21,2.13-0.38,3.15c-0.32,2.03-0.34,2.62,1.36,2.76l-0.21,0.67
	c-2.47,0.77-5.55,1.32-9.03,1.62l0.15-0.65c2.97-0.98,3.13-2.04,3.44-4.14c0.12-0.85,0.21-1.72,0.28-2.61
	c0.36-4.72,0.02-9.53-0.9-14.07c-0.53-2.35-1.1-2.78-3.12-3.23l-0.16-0.72c2.88-0.25,5.44-0.71,7.49-1.34
	C50.76,21.18,51.06,21.86,51.06,21.86z"/>
<path class="st10" d="M18.39,20.02c2.55,0.8,5.56,1.48,8.91,1.96l-0.14,0.7c-2.47,0.29-2.95,0.75-3.65,3.49
	c-1.01,4.32-1.74,8.92-2.09,13.47c-0.08,1.08-0.14,2.13-0.18,3.15c-0.02,2.23,0.47,2.84,3.11,3.85l-0.01,0.66
	c-4.03-0.58-7.67-1.4-10.74-2.36l-0.07-0.68c0.04,0,0.09,0,0.13,0c2.32,0,2.34-0.81,2.41-3.15c0.02-0.85,0.07-1.73,0.13-2.62
	c0.36-4.72,1.37-9.45,2.83-13.82c0.71-2.25,0.59-2.77-0.96-3.98L18.39,20.02 M50.76,21.18c0,0,0.3,0.68,0.3,0.68
	c-1.31,1.17-1.22,1.66-0.51,4.4c1.15,4.33,1.64,8.93,1.29,13.48c-0.08,1.08-0.21,2.13-0.38,3.15c-0.32,2.03-0.34,2.62,1.36,2.76
	l-0.21,0.67c-2.47,0.77-5.55,1.32-9.03,1.62l0.15-0.65c2.97-0.98,3.13-2.04,3.44-4.14c0.12-0.85,0.21-1.72,0.28-2.61
	c0.36-4.72,0.02-9.53-0.9-14.07c-0.53-2.35-1.1-2.78-3.12-3.23l-0.16-0.72C46.15,22.27,48.71,21.81,50.76,21.18 M30.61,22.37
	c2.5,0.25,4.95,0.36,7.3,0.36c0.85,0,1.69-0.02,2.5-0.04l0.09,0.72c-2.1,0.73-2.39,1.23-2.32,4.08c0.16,4.43,0.09,9.08-0.26,13.63
	c-0.08,1.08-0.18,2.13-0.29,3.14c-0.18,2.08,0.05,2.67,2.61,3.24l-0.12,0.65c-0.99,0.04-1.99,0.06-3.02,0.06
	c-2.82,0-5.78-0.14-8.79-0.44l0.04-0.66c3.34-0.4,3.42-1.33,3.63-3.57c0.07-0.84,0.14-1.71,0.21-2.61
	c0.36-4.72,0.68-9.55,0.92-14.12c0.07-2.32-0.29-2.84-2.59-3.73L30.61,22.37 M17.86,18.81l-0.37,0.78l-0.32,0.67l-0.35,0.72
	l0.63,0.49c1.16,0.91,1.23,0.96,0.62,2.89c-1.53,4.57-2.52,9.43-2.87,14.04c-0.07,1.1-0.11,1.92-0.13,2.67
	c-0.06,2.17-0.06,2.17-1.41,2.17l-0.12,0l-1.12-0.01l0.11,1.12l0.07,0.68l0.07,0.66l0.63,0.2c3.25,1.02,6.92,1.82,10.9,2.4
	l1.13,0.16l0.02-1.14l0.01-0.66l0.01-0.7l-0.65-0.25c-2.41-0.92-2.48-1.26-2.47-2.91c0.04-0.97,0.1-2.02,0.18-3.09
	c0.34-4.36,1.05-8.97,2.07-13.32c0.61-2.4,0.81-2.49,2.79-2.72L28,23.59l0.14-0.71l0.14-0.7l0.21-1.04l-1.05-0.15
	c-3.2-0.46-6.14-1.11-8.75-1.92L17.86,18.81L17.86,18.81z M51.32,19.96l-0.85,0.26c-1.98,0.61-4.5,1.06-7.28,1.3l-1.14,0.1
	l0.25,1.11l0.16,0.72l0.14,0.62l0.62,0.14c1.63,0.36,1.91,0.48,2.36,2.47c0.92,4.52,1.22,9.29,0.88,13.77
	c-0.07,0.93-0.16,1.76-0.27,2.55c-0.3,2-0.38,2.54-2.76,3.33l-0.53,0.18l-0.13,0.55l-0.15,0.65l-0.31,1.34l1.37-0.12
	c3.59-0.31,6.7-0.87,9.24-1.66l0.5-0.16l0.16-0.5l0.21-0.67l0.37-1.19l-1.25-0.1c-0.36-0.03-0.53-0.07-0.6-0.1
	c-0.04-0.28,0.08-1.07,0.15-1.51c0.18-1.07,0.31-2.16,0.39-3.23c0.35-4.55-0.09-9.19-1.32-13.81c-0.68-2.61-0.66-2.62,0.21-3.4
	l0.58-0.38c0,0-0.25-0.57-0.63-1.45L51.32,19.96L51.32,19.96z M29.74,21.28l-0.12,0.97l-0.09,0.71l-0.1,0.78l0.73,0.28
	c1.96,0.76,2.01,0.92,1.95,2.77c-0.23,4.35-0.54,9.1-0.92,14.07c-0.07,0.9-0.14,1.76-0.21,2.6c-0.2,2.13-0.22,2.36-2.75,2.66
	l-0.83,0.1l-0.05,0.83l-0.04,0.66l-0.06,0.96l0.96,0.09c3,0.29,5.99,0.44,8.89,0.44c1.03,0,2.06-0.02,3.06-0.06l0.8-0.03l0.15-0.79
	l0.12-0.65l0.18-0.95l-0.94-0.21c-1.98-0.44-1.98-0.51-1.83-2.18c0.12-1.1,0.22-2.14,0.29-3.15c0.34-4.45,0.43-9.07,0.26-13.74
	c-0.06-2.5,0.07-2.55,1.65-3.1l0.76-0.27l-0.1-0.8l-0.09-0.72l-0.11-0.91l-0.91,0.03c-0.81,0.03-1.64,0.04-2.47,0.04
	c-2.39,0-4.81-0.12-7.2-0.36L29.74,21.28L29.74,21.28z"/>
</svg>
