<?xml version="1.0" encoding="utf-8"?>
<!-- Generator: Adobe Illustrator 21.0.1, SVG Export Plug-In . SVG Version: 6.00 Build 0)  -->
<svg version="1.1" id="Layer_1" xmlns="http://www.w3.org/2000/svg" xmlns:xlink="http://www.w3.org/1999/xlink" x="0px" y="0px"
	 viewBox="0 0 64 64" style="enable-background:new 0 0 64 64;" xml:space="preserve">
<style type="text/css">
	.st0{opacity:0.6;}
	.st1{fill:#B4B8BF;}
	.st2{fill:#909499;}
	.st3{fill:url(#SVGID_1_);}
	.st4{fill:url(#SVGID_2_);}
	.st5{fill:url(#SVGID_3_);}
	.st6{fill:url(#SVGID_4_);}
	.st7{fill:url(#SVGID_5_);}
	.st8{fill:url(#SVGID_6_);}
	.st9{fill:#C7CBD7;}
	.st10{opacity:0.8;enable-background:new    ;}
</style>
<g class="st0">
	<path class="st1" d="M46.5,27.2c-1.1-3-2.7-5.8-4.7-8.2c-1,0.4-2.2,0.6-3.5,0.7c0.8,2.7,1.5,5.7,1.8,8.7
		C42.8,28.2,44.9,27.8,46.5,27.2z"/>
	<path class="st2" d="M39.2,39.4c0.4-3.1,0.3-6.4,0-9.9c-0.8,0.1-1.5,0.1-2.3,0.1c-2.1,0-4.3-0.1-6.3-0.4c-0.6,3.4-1,7.2-1.3,9.8
		C32.6,39.4,36,39.6,39.2,39.4z"/>
	<linearGradient id="SVGID_1_" gradientUnits="userSpaceOnUse" x1="12.01" y1="16.0597" x2="52.01" y2="16.0597">
		<stop  offset="0" style="stop-color:#C7CBD7"/>
		<stop  offset="0.5" style="stop-color:#C7CBD7"/>
		<stop  offset="1" style="stop-color:#C7CBD7"/>
	</linearGradient>
	<path class="st3" d="M28.1,17.6c1,0.4,2.2,0.6,3.5,0.8c0.4-1.8,0.8-3.4,1.3-4.7C31.3,14.5,29.7,15.8,28.1,17.6z"/>
	<path class="st1" d="M39,28.5c-0.4-3.2-1.1-6.1-1.9-8.6c-1.7,0.1-3.2-0.1-4.8-0.2c-0.5,2.5-1.1,5.3-1.5,8.5
		C33.6,28.5,36.4,28.5,39,28.5z"/>
	<linearGradient id="SVGID_2_" gradientUnits="userSpaceOnUse" x1="12.01" y1="16.2355" x2="52.01" y2="16.2355">
		<stop  offset="0" style="stop-color:#C7CBD7"/>
		<stop  offset="0.5" style="stop-color:#C7CBD7"/>
		<stop  offset="1" style="stop-color:#C7CBD7"/>
	</linearGradient>
	<path class="st4" d="M36.8,18.8C36,16.7,35.1,15,34,13.7c-0.4,1.2-0.8,2.9-1.3,4.9C34,18.8,35.4,18.8,36.8,18.8z"/>
	<linearGradient id="SVGID_3_" gradientUnits="userSpaceOnUse" x1="12.01" y1="16.341" x2="52.01" y2="16.341">
		<stop  offset="0" style="stop-color:#C7CBD7"/>
		<stop  offset="0.5" style="stop-color:#C7CBD7"/>
		<stop  offset="1" style="stop-color:#C7CBD7"/>
	</linearGradient>
	<path class="st5" d="M41,18.1c-1.5-1.7-3.3-3-5.2-4.1c0.8,1.3,1.5,2.8,2.2,4.6C39,18.6,40,18.4,41,18.1z"/>
	<linearGradient id="SVGID_4_" gradientUnits="userSpaceOnUse" x1="12.01" y1="15.9894" x2="52.01" y2="15.9894">
		<stop  offset="0" style="stop-color:#C7CBD7"/>
		<stop  offset="0.5" style="stop-color:#C7CBD7"/>
		<stop  offset="1" style="stop-color:#C7CBD7"/>
	</linearGradient>
	<path class="st6" d="M42.1,17.7c0.6-0.3,1-0.6,1.3-0.8c-1.7-1.1-3.4-2-5.2-2.6C39.5,15.2,40.8,16.3,42.1,17.7z"/>
	<path class="st2" d="M48,37.8c0.2-3.1-0.1-6.3-1.2-9.6c-1.8,0.6-4.1,1.1-6.6,1.3c0.4,3.3,0.4,6.7,0.1,9.8
		C43.6,39,46.1,38.5,48,37.8z"/>
	<path class="st1" d="M47.5,26.9c1.3-0.6,2.3-1.3,2.7-2c-1.3-2.8-3.4-5.3-6-7.2c-0.4,0.4-0.8,0.8-1.4,1.1
		C44.9,21,46.5,23.9,47.5,26.9z"/>
	<path class="st1" d="M31.4,19.5c-1.7-0.3-3-0.6-4.1-1c-1.8,2.2-3.4,4.9-4.7,7.8c2,0.7,4.5,1.3,7.2,1.7
		C30.4,24.5,30.9,21.7,31.4,19.5z"/>
	<linearGradient id="SVGID_5_" gradientUnits="userSpaceOnUse" x1="12.01" y1="15.4619" x2="52.01" y2="15.4619">
		<stop  offset="0" style="stop-color:#C7CBD7"/>
		<stop  offset="0.5" style="stop-color:#C7CBD7"/>
		<stop  offset="1" style="stop-color:#C7CBD7"/>
	</linearGradient>
	<path class="st7" d="M26.9,17.2c1.3-1.5,2.6-2.7,3.9-3.5c-2.1,0.4-4.2,1.3-6.2,2.4C25.3,16.4,26,16.8,26.9,17.2z"/>
	<path class="st1" d="M26.2,18.1c-1.1-0.4-1.8-0.9-2.5-1.4c-2.7,1.7-5.1,4-6.9,6.6c1.1,0.9,2.6,1.8,4.7,2.6
		C22.8,23,24.4,20.3,26.2,18.1z"/>
	<path class="st2" d="M13.1,33.3c1.2,1.1,3.2,2.3,5.6,3.2c0.4-3.2,1.2-6.4,2.5-9.5c-2-0.8-3.7-1.7-4.9-2.7
		C14.5,27.1,13.4,30.2,13.1,33.3z"/>
	<path class="st2" d="M51.8,29.1c-0.3-1.1-0.6-2.1-1.1-3.1c-0.6,0.7-1.6,1.4-2.9,1.9c1,3.2,1.5,6.5,1.3,9.6c1.2-0.5,2.1-1.1,2.6-1.7
		c0.2-1.1,0.3-2.3,0.3-3.5C52,31.1,51.9,30.1,51.8,29.1z"/>
	<path class="st1" d="M36.8,51.6c2.5-0.6,4.9-1.7,7-3.2l0.1-0.1c-1.6,0.4-3.4,0.8-5.6,0.9C37.8,50.2,37.3,51,36.8,51.6z"/>
	<linearGradient id="SVGID_6_" gradientUnits="userSpaceOnUse" x1="12.01" y1="14.1961" x2="52.01" y2="14.1961">
		<stop  offset="0" style="stop-color:#C7CBD7"/>
		<stop  offset="0.5" style="stop-color:#C7CBD7"/>
		<stop  offset="1" style="stop-color:#C7CBD7"/>
	</linearGradient>
	<path class="st8" d="M28.5,13.1c-1.7,0.2-3.3,0.6-4.9,1.2c-0.1,0.2,0,0.5,0.4,0.9C25.4,14.3,26.9,13.6,28.5,13.1z"/>
	<path class="st2" d="M37.4,48.2c0.8-2.2,1.5-4.8,1.7-7.7c-3.2,0.1-6.6,0-9.8-0.4c-0.3,3.1-0.4,5.7-0.4,7.8
		C32.2,48.2,35,48.3,37.4,48.2z"/>
	<path class="st2" d="M47.4,45c1.8-2.2,3.2-4.8,4-7.6c-0.6,0.4-1.3,0.8-2.2,1.1C48.9,40.9,48.3,43.1,47.4,45z"/>
	<path class="st2" d="M40.3,40.4c-0.4,3-0.9,5.6-1.7,7.7c2.5-0.2,4.7-0.6,6.4-1.3c1.5-2.3,2.5-4.9,3-7.8
		C45.8,39.7,43.2,40.1,40.3,40.4z"/>
	<path class="st2" d="M22,27.3c-1.2,3-2,6.3-2.4,9.5c2.6,0.8,5.6,1.6,8.7,2.1c0.4-3.2,0.8-6.6,1.3-9.8C26.7,28.7,24.3,28,22,27.3z"
		/>
	<path class="st1" d="M35.1,49.2c-2,0-4.1-0.1-6.1-0.4c0,1.4,0.1,2.5,0.3,3.1c0.9,0.1,1.8,0.2,2.8,0.2c1,0,2-0.1,2.9-0.2
		c0.7-0.7,1.4-1.6,2-2.8C36.9,49.2,35.1,49.2,35.1,49.2z"/>
	<path class="st2" d="M20.4,45.9c2,0.7,4.6,1.3,7.5,1.8c0-2.7,0.3-5.6,0.4-7.4v-0.4c-3.2-0.4-6.1-1.1-8.7-2
		C19.4,40.8,19.7,43.6,20.4,45.9z"/>
	<path class="st2" d="M18.6,37.5c-2.3-0.8-4.1-1.9-5.6-3c-0.1,2.1,0.2,4.1,0.8,6c0.5,1,1,1.9,1.6,2.8c0.9,0.7,2.1,1.4,3.7,2.1
		C18.6,43,18.4,40.4,18.6,37.5z"/>
	<path class="st1" d="M23.1,15.8c-0.3-0.4-0.4-0.7-0.5-1.1c-0.7,0.3-1.4,0.7-2,1c-2,1.4-3.8,3.2-5.2,5.3c0.1,0.5,0.4,1.1,0.7,1.5
		C17.9,20,20.3,17.6,23.1,15.8z"/>
	<path class="st2" d="M14.7,22.1c-1.7,2.8-2.6,6.1-2.7,9.7l0.2,0.4c0.5-3.2,1.6-6.2,3.3-8.8C15.2,23,14.9,22.6,14.7,22.1z"/>
	<path class="st1" d="M17.3,45.8c0.9,1,1.9,1.9,3,2.7c-0.3-0.5-0.6-1.1-0.8-1.7C18.7,46.4,18,46.1,17.3,45.8z"/>
	<path class="st1" d="M21,47.1c0.5,1.1,1.1,2.1,1.8,2.8c1.7,0.9,3.5,1.5,5.4,1.9C28,51,27.9,50,27.9,48.7C25.3,48.3,23,47.8,21,47.1
		z"/>
</g>
<path class="st9" d="M38.3,26.2c-1.5,0.5-1.7,0.9-1.6,2.9c0.1,3.1,0.1,6.4-0.2,9.6c-0.1,0.8-0.1,1.5-0.2,2.2c-0.1,1.5,0,1.9,1.8,2.3
	l-0.1,0.5c-2.6,0.1-5.4,0-8.3-0.3l0-0.5c2.3-0.3,2.4-0.9,2.6-2.5c0-0.6,0.1-1.2,0.1-1.8c0.3-3.3,0.5-6.7,0.6-9.9
	c0-1.6-0.2-2-1.8-2.6l0.1-0.5c2.4,0.2,4.7,0.3,6.9,0.2C38.3,25.8,38.3,26,38.3,26.2z"/>
<path class="st10" d="M31.4,25.4c1.8,0.2,3.5,0.3,5.1,0.3c0.6,0,1.2,0,1.8,0c0,0.2,0,0.3,0.1,0.5c-1.5,0.5-1.7,0.9-1.6,2.9
	c0.1,3.1,0.1,6.4-0.2,9.6c-0.1,0.8-0.1,1.5-0.2,2.2c-0.1,1.5,0,1.9,1.8,2.3l-0.1,0.5c-0.7,0-1.4,0-2.1,0c-2,0-4.1-0.1-6.2-0.3l0-0.5
	c2.3-0.3,2.4-0.9,2.6-2.5c0-0.6,0.1-1.2,0.1-1.8c0.3-3.3,0.5-6.7,0.6-9.9c0-1.6-0.2-2-1.8-2.6L31.4,25.4 M30.8,24.7l-0.1,0.7
	l-0.1,0.5l-0.1,0.5l0.5,0.2c1.4,0.5,1.4,0.6,1.4,1.9c-0.2,3.1-0.4,6.4-0.6,9.9c0,0.6-0.1,1.2-0.1,1.8c-0.1,1.5-0.2,1.7-1.9,1.9
	l-0.6,0.1l0,0.6l0,0.5l0,0.7l0.7,0.1c2.1,0.2,4.2,0.3,6.3,0.3c0.7,0,1.4,0,2.2,0l0.6,0l0.1-0.6l0.1-0.5l0.1-0.7l-0.7-0.1
	c-1.4-0.3-1.4-0.4-1.3-1.5c0.1-0.8,0.2-1.5,0.2-2.2c0.2-3.1,0.3-6.4,0.2-9.7c0-1.8,0-1.8,1.2-2.2l0.6-0.2L39,26c0-0.1,0-0.3-0.1-0.5
	l-0.1-0.7l-0.7,0c-0.6,0-1.2,0-1.7,0c-1.7,0-3.4-0.1-5.1-0.3L30.8,24.7L30.8,24.7z"/>
</svg>
