<svg id="Layer_1" data-name="Layer 1" xmlns="http://www.w3.org/2000/svg" viewBox="0 0 57.8 57.8"><defs><style>.cls-1{fill:#6f4512;}.cls-2{fill:#ce8508;}</style></defs><title>npc-lmb</title><circle class="cls-1" cx="28.9" cy="28.9" r="28.9"/><path class="cls-2" d="M50.9,20.4c0-2.1-1.9-3.4-3.1-4.1a2.264,2.264,0,0,1-1.1-1.7c-.1-.7-.3-1.5-.5-2.3C45.7,10.6,37.7,4,32,4.1h-.2c-5.7-.1-13.7,6.4-14.2,8.2-.2.8-.4,1.6-.5,2.3A2.173,2.173,0,0,1,16,16.3c-1.2.7-3.1,2-3.1,4.1,0,1,3.2,7.8,3.3,8.4,0,.6-3.3,3.4-3.3,4.3,0,.6,3.1,4.8,5.3,4.8,1.8,0,.5,2.1,2.6,2.1V33.7c-.5-2.3-2.5-4.2-2.8-5.5a27.97,27.97,0,0,0-2.6-7.4c3.7,0,7,1.4,8,6.4.7-1.3,1.8-2.9,3.3-3.3-.5,4.1-3.6,8.7-3.6,9.7V39c0,2.2-1.2,1.8-1,4.3.1,2,1,2.8,1.8,3.9a3.157,3.157,0,0,1,.7,1.9V53c.2,3,3.3,6.3,5.7,6.8.2.1.4-.2.3-.4-3.1-3.8-2.7-11.9-2.6-14.3a1.743,1.743,0,0,1,.6-1.2A10.043,10.043,0,0,0,31,41.8a3.04,3.04,0,0,0,0-2.3c-.3-.4-1.1-.6-1-1.9.1-1.2,1.4-1.3,1.8-1.3H32c.4,0,1.8.1,1.8,1.3.1,1.3-.7,1.5-1,1.9a3.048,3.048,0,0,0,0,2.3,10.043,10.043,0,0,0,2.4,2.1,1.425,1.425,0,0,1,.6,1.2c.2,2.4.5,10.5-2.6,14.3-.2.2,0,.5.3.4,2.4-.6,5.5-3.8,5.7-6.8V49.1a2.64,2.64,0,0,1,.7-1.9,5.735,5.735,0,0,0,1.8-3.9c.2-2.6-1-2.2-1-4.3V33.7c0-1-3.2-5.6-3.6-9.7,1.4.4,2.6,2,3.3,3.3,1-5,4.3-6.4,8-6.4a32.486,32.486,0,0,0-2.6,7.4c-.3,1.3-2.3,3.2-2.8,5.5V40c2,0,.8-2.1,2.6-2.1,2.1,0,5.3-4.2,5.3-4.8,0-.9-3.3-3.7-3.3-4.3C47.7,28.2,50.9,21.4,50.9,20.4Z" transform="translate(-3.1 -3.1)"/></svg>