<svg id="Layer_1" data-name="Layer 1" xmlns="http://www.w3.org/2000/svg" viewBox="0 0 57.8 57.8"><defs><style>.cls-1{fill:#6f4512;}.cls-2{fill:#ce8508;}</style></defs><title>npc-cleaner</title><circle class="cls-1" cx="28.9" cy="28.9" r="28.9"/><polygon class="cls-2" points="33.5 18.9 54.7 18.9 48.4 9.8 33.7 9.8 33.7 5.6 24.5 14.8 33.5 23.6 33.5 18.9"/><polygon class="cls-2" points="47.2 32.8 54.7 20.9 45.4 23.6 47.2 32.8"/><polygon class="cls-2" points="22.7 9.9 10.4 9.9 17.2 16 22.7 9.9"/><polygon class="cls-2" points="20 37.4 22.2 24.6 18.7 26.9 8.5 11.9 3.2 20.2 10.7 32.8 7.5 35 20 37.4"/><polygon class="cls-2" points="29.4 34.5 33.2 37.1 23.3 52.2 34.9 52.2 41.1 42.5 44.8 44.9 42.1 31.8 29.4 34.5"/><polygon class="cls-2" points="17.2 42.4 22.7 50.3 23.7 42.9 17.2 42.4"/></svg>