<svg id="Layer_1" data-name="Layer 1" xmlns="http://www.w3.org/2000/svg" viewBox="0 0 57.8 57.8"><defs><style>.cls-1{fill:#6f4512;}.cls-2{fill:#ce8508;}</style></defs><title>npc-group</title><circle class="cls-1" cx="28.9" cy="28.9" r="28.9"/><path class="cls-2" d="M10.606,33.113c-.659.48-1.739.181-3.059-1.2.3,6.3,4.678,13.556,6.118,16.074a34.31,34.31,0,0,1,8.074,3.064A21.579,21.579,0,0,1,23.5,55.425H34.3a21.441,21.441,0,0,1,1.763-4.373,34.244,34.244,0,0,1,8.074-3.064c1.439-2.519,5.817-9.777,6.118-16.074-1.319,1.379-2.4,1.679-3.059,1.2a24.931,24.931,0,0,0-4.443-4.834C42.816,26.7,46.3,10.2,46.3,10.2,38.259-.053,19.275-.414,11.508,10.2c0,0,3.479,16.494,3.544,18.077A24.863,24.863,0,0,0,10.606,33.113Zm36.32,2.249c.236,5.638-7.02,8.846-8.52,8.846a14.361,14.361,0,0,1-5.668-1.859,8.166,8.166,0,0,1-1.859-3.928C34.027,38.482,44.013,35.363,46.926,35.363ZM28.889,43.026c1.679,0,4.109,4.1,4.529,5.221a4.5,4.5,0,0,1-1.28,2.1H25.62a4.5,4.5,0,0,1-1.28-2.1C24.761,47.128,27.21,43.026,28.889,43.026Zm-3.91-.676a14.361,14.361,0,0,1-5.668,1.859c-1.5,0-8.758-3.208-8.52-8.846,2.912,0,12.9,3.119,16.047,3.059A8.153,8.153,0,0,1,24.979,42.35Z"/></svg>