<svg id="Layer_1" data-name="Layer 1" xmlns="http://www.w3.org/2000/svg" viewBox="0 0 57.8 57.8"><defs><style>.cls-1{fill:#6f4512;}.cls-2{fill:#ce8508;}</style></defs><title>npc-rioter</title><circle class="cls-1" cx="28.9" cy="28.9" r="28.9"/><path class="cls-2" d="M55.7,20.7a7.827,7.827,0,0,0-7.3-.6,1.834,1.834,0,0,1-2.4-.9c-2.1-3.8-6.2-5.8-10.5-3.8a6.228,6.228,0,0,0-1.8,1.4,2.478,2.478,0,0,1-3.4,0,7.945,7.945,0,0,0-1.8-1.4c-4.3-2.1-8.4,0-10.5,3.8a1.867,1.867,0,0,1-2.4.9,8.124,8.124,0,0,0-7.3.6c-3.8,2.6-4.4,8.4-1.3,13a10.409,10.409,0,0,0,7.7,4.8h3.9c1.7,0,2.2,3.7,0,3.7-1.4,0-3.4,1.2-3.4,2.5a2.653,2.653,0,0,0,1.3,2.5c4.3,1.6,9.7,2.2,15.5,2.2,5.7,0,11-.6,15.3-2.2a2.52,2.52,0,0,0,1.4-2.6c0-1.3-1.9-2.5-3.4-2.5-2.2,0-1.7-3.7,0-3.7h4a10.584,10.584,0,0,0,7.8-4.8C60.2,29.1,59.6,23.3,55.7,20.7ZM45.5,28.2c.7-3.1,3.3-5.2,5.8-4.6s4,3.5,3.3,6.6-3.3,5.2-5.8,4.6C46.3,34.3,44.9,31.3,45.5,28.2ZM33.8,24c.5-3.1,3-5.3,5.5-4.9s4.1,3.3,3.6,6.4-3,5.3-5.5,4.9C35,30,33.3,27.2,33.8,24Zm-9.1-4.9c2.5-.4,5,1.8,5.5,4.9s-1.1,6-3.6,6.4-5-1.8-5.5-4.9S22.2,19.5,24.7,19.1Zm-12,4.5c2.5-.6,5.1,1.5,5.8,4.6s-.8,6.1-3.3,6.6c-2.5.6-5.1-1.5-5.8-4.6S10.2,24.1,12.7,23.6ZM32,43.6c-5.1,0-9.3-2.6-9.3-5.9V34.5H25a7.211,7.211,0,0,0,4-1.2,5.285,5.285,0,0,1,5.9,0,7.211,7.211,0,0,0,4,1.2h2.2v3.2C41.2,41,37.1,43.6,32,43.6Z" transform="translate(-3.1 -3.1)"/></svg>