<svg xmlns="http://www.w3.org/2000/svg" viewBox="0 0 64 64"><path d="M59.109 18.941a.986.986 0 0 0-.114-.296c-.262-.441-.821-.592-1.248-.338a.898.898 0 0 0-.427.864c.53 4.26-1.419 8.621-5.331 10.947-5.279 3.139-12.115 1.385-15.267-3.917-3.152-5.302-1.428-12.145 3.85-15.284 3.912-2.326 8.675-1.955 12.163.546.284.192.657.22.963.037.428-.254.562-.817.299-1.258a1 1 0 0 0-.205-.242c-4.76-4.16-11.48-5.174-16.808-2.007a13.165 13.165 0 0 0-4.37 4.242 1.186 1.186 0 0 1-1.967.07 13.16 13.16 0 0 0-4.489-3.817c-5.503-2.851-12.153-1.444-16.661 2.987a.982.982 0 0 0-.19.253c-.235.455-.07 1.01.372 1.238a.895.895 0 0 0 .959-.094c3.337-2.701 8.069-3.349 12.111-1.256 5.454 2.825 7.575 9.556 4.738 15.033s-9.559 7.629-15.013 4.804c-4.041-2.094-6.242-6.333-5.962-10.617a.893.893 0 0 0-.477-.837c-.441-.229-.99-.044-1.227.411a.999.999 0 0 0-.097.301c-1.018 6.238 1.67 12.481 7.174 15.332a13.108 13.108 0 0 0 4.183 1.337 1.17 1.17 0 0 1 .921 1.587 13.862 13.862 0 0 0-.934 4.999c0 6.394 4.306 11.819 10.315 13.847a.93.93 0 0 0 .718-1.708c-3.933-1.776-6.685-5.803-6.685-10.499 0-3.951 1.945-7.435 4.903-9.499v8.551a1.443 1.443 0 0 0 2.884 0v-9.989a10.9 10.9 0 0 1 1.83-.415v11.189a1.647 1.647 0 1 0 3.294 0V34.282c.629.101 1.241.252 1.83.456v9.272a1.442 1.442 0 1 0 2.884 0v-7.76c2.849 2.08 4.714 5.489 4.714 9.353 0 4.696-2.752 8.724-6.685 10.499a.93.93 0 1 0 .718 1.708c6.007-2.028 10.315-7.454 10.315-13.847 0-2.053-.452-4.003-1.256-5.777a1.185 1.185 0 0 1 1.016-1.691 13.214 13.214 0 0 0 5.998-1.83c5.323-3.166 7.642-9.555 6.261-15.724zM33.916 31.684H29.72a1.048 1.048 0 0 1-.911-1.564l2.098-3.705a1.048 1.048 0 0 1 1.823 0l2.098 3.705a1.048 1.048 0 0 1-.912 1.564z"/><path d="M12.618 29.146l4.804-5.045 4.58 4.434 2.291-2.366-4.6-4.453 4.904-5.15-2.384-2.273-4.886 5.131-4.756-4.606-2.291 2.366 4.776 4.626-4.822 5.063zM51.091 13.293l-4.887 5.131-4.756-4.606-2.291 2.366 4.776 4.625-4.822 5.064 2.384 2.272L46.3 23.1l4.58 4.435 2.291-2.366-4.6-4.454 4.904-5.149z"/></svg>