<?xml version="1.0" encoding="utf-8"?>
<!-- Generator: Adobe Illustrator 21.0.1, SVG Export Plug-In . SVG Version: 6.00 Build 0)  -->
<svg version="1.1" id="Layer_1" xmlns="http://www.w3.org/2000/svg" xmlns:xlink="http://www.w3.org/1999/xlink" x="0px" y="0px"
	 viewBox="0 0 64 64" style="enable-background:new 0 0 64 64;" xml:space="preserve">
<style type="text/css">
	.st0{fill:#682323;}
	.st1{fill:#D32929;}
</style>
<g>
	<g>
		<g>
			<g>
				<circle class="st0" cx="32" cy="32" r="28.9"/>
			</g>
		</g>
	</g>
</g>
<g>
	<path class="st1" d="M52.2,24.4c-1.3-0.8-2.7-1.3-4.1-1.7c0.3-1.3,0.5-2.7,0.5-4.1C48.7,10,42,2.8,33.4,2.1c5,0.8,8.8,5.6,8.8,11.4
		c0,6.4-4.6,11.5-10.4,11.5s-10.4-5.2-10.4-11.5c0-5.5,3.5-10.1,8.2-11.3c-8.1,1.1-14.4,8.1-14.4,16.5c0,1.4,0.2,2.8,0.5,4.1
		c-1.4,0.4-2.8,0.9-4.1,1.7C4.2,28.8,1.4,38.1,5,45.9c-1.7-4.7,0.5-10.4,5.4-13.3c5.5-3.2,12.3-1.7,15.1,3.2
		c2.9,5,0.7,11.5-4.8,14.7c-4.8,2.8-10.5,2-13.8-1.5c5,6.5,14.2,8.4,21.4,4.2c1.3-0.8,2.5-1.7,3.5-2.8c1,1,2.2,2,3.5,2.8
		c7.5,4.4,17.1,2.1,22-4.9c-3.2,3.9-9.2,4.8-14.2,1.9c-5.5-3.2-7.6-9.8-4.8-14.7c2.9-5,9.6-6.4,15.1-3.2c4.8,2.8,7,8.1,5.6,12.7
		C62.4,37.5,59.5,28.6,52.2,24.4z"/>
	<circle class="st0" cx="32" cy="32.3" r="7.8"/>
</g>
</svg>
