<?xml version="1.0" encoding="utf-8"?>
<!-- Generator: Adobe Illustrator 21.0.1, SVG Export Plug-In . SVG Version: 6.00 Build 0)  -->
<svg version="1.1" id="Layer_1" xmlns="http://www.w3.org/2000/svg" xmlns:xlink="http://www.w3.org/1999/xlink" x="0px" y="0px"
	 viewBox="0 0 64 64" style="enable-background:new 0 0 64 64;" xml:space="preserve">
<style type="text/css">
	.st0{fill:#511620;}
	.st1{display:none;}
	.st2{display:inline;fill:#FEF200;}
	.st3{fill:#EAEAEA;stroke:#56040E;stroke-width:0.5;stroke-miterlimit:10;}
</style>
<g>
	<circle class="st0" cx="32" cy="32.2" r="28.9"/>
</g>
<g class="st1">
	<path class="st2" d="M13.4,42.5l-4.9,1.6c3.7,7.9,11.3,13.6,20.3,14.7v-5.2C22.1,52.6,16.4,48.4,13.4,42.5z"/>
	<path class="st2" d="M11.1,32.9c0-5.8,2.3-11.1,6.1-14.9l-2.9-4C9.2,18.8,6,25.5,6,33c0,1.7,0.2,3.3,0.5,4.9l4.8-1.6
		C11.2,35.2,11.1,34.1,11.1,32.9z"/>
	<path class="st2" d="M44.6,10.2c-3.7-2-8-3.2-12.5-3.2c-4.6,0-8.8,1.2-12.6,3.2l2.9,4c2.9-1.5,6.2-2.4,9.6-2.4
		c3.5,0,6.7,0.9,9.6,2.3L44.6,10.2z"/>
	<path class="st2" d="M49.9,14L47,18c3.8,3.8,6.2,9.1,6.2,14.9c0,1.2-0.1,2.3-0.3,3.4l4.8,1.6c0.3-1.6,0.5-3.2,0.5-4.9
		C58.2,25.5,55,18.8,49.9,14z"/>
	<path class="st2" d="M35.4,53.7v5.2c9-1.1,16.6-6.8,20.3-14.7l-4.9-1.6C47.8,48.4,42.1,52.6,35.4,53.7z"/>
</g>
<g>
	<path class="st3" d="M27.2,55.6c0,0-0.7-1.4-1-1.3c-0.3,0.1-0.6,1.3-0.4,1.9s0.1,1,0.3,1.1C26.4,57.4,27,57,27,57s0-0.4,0-0.7
		C27.2,56,27.2,55.6,27.2,55.6z"/>
	<path class="st3" d="M24.8,54.4c-0.2,0.1-0.2,1-0.1,1.4c0.1,0.3,0.1,0.8,0.3,0.9c0.2,0.1,0.4,0,0.4,0s-0.1-0.4-0.1-0.7
		c0-0.3,0.1-0.8,0.1-0.8C25.6,55.3,25,54.3,24.8,54.4z"/>
	<path class="st3" d="M39.8,54.4c-0.1,0-0.2,0.8-0.3,1.2c0,0-0.2,0.8-0.1,0.9c0,0,0.3,0,0.4,0c0.2-0.1,0.2-0.2,0.2-0.6
		C40.1,55.5,40,54.4,39.8,54.4z"/>
	<path class="st3" d="M24.1,54.4C24,54.4,24,55.5,24,56c0,0.3,0,0.4,0.2,0.6c0.2,0.1,0.4,0.1,0.4,0l-0.1-0.9
		C24.3,55.2,24.1,54.4,24.1,54.4z"/>
	<path class="st3" d="M31.8,56.3c-0.1-1.1-0.6-1.7-1.1-1.7c-0.6,0-0.9,0.3-1.2,1c-0.2,0.7-0.2,1.9,0,2.2s1.8,0.2,2.1,0.1
		C32,57.9,31.9,57.4,31.8,56.3z"/>
	<path class="st3" d="M23.6,56.1c0.1,0,0.2-0.7,0.2-1s-0.2-0.7-0.2-0.7c-0.1,0-0.3,0.7-0.3,1C23.3,55.9,23.5,56.1,23.6,56.1z"/>
	<path class="st3" d="M29.3,56c0,0-0.7-1.2-1.1-1.1c-0.4,0.1-0.9,1.7-0.8,2c0.1,0.3,0.3,0.7,0.7,0.8c0.3,0.1,1.1,0.1,1.1,0.1
		s-0.1-0.4,0-0.9C29.1,56.4,29.3,56,29.3,56z"/>
	<path class="st3" d="M39.1,54.5c-0.2-0.1-0.8,0.9-0.8,0.9s0.1,0.4,0.1,0.8s-0.1,0.7-0.1,0.7s0.2,0,0.4,0c0.2-0.1,0.2-0.4,0.3-0.9
		C39.3,55.5,39.3,54.7,39.1,54.5z"/>
	<path class="st3" d="M33.3,54.8c-0.6,0-1,0.4-1.1,1.7c-0.1,1.1-0.2,1.5,0.1,1.7c0.3,0.1,1.9,0.2,2.1-0.1c0.2-0.3,0.2-1.5,0-2.2
		C34.2,55.1,33.9,54.8,33.3,54.8z"/>
	<path class="st3" d="M35.9,54.9c-0.4-0.1-1.1,1.1-1.1,1.1s0.2,0.4,0.2,0.8c0,0.4,0,0.9,0,0.9s0.8,0,1.1-0.1
		c0.3-0.1,0.6-0.4,0.7-0.8C36.7,56.5,36.3,55,35.9,54.9z"/>
	<path class="st3" d="M50.6,37.5c0,0.2,0,0.3,0,0.6c0,0.1,0,0.2,0,0.2v0.1v0.1l0,0l0,0l0,0l0,0c0,0,0.1,0,0.1,0.1l0,0
		c0.3-0.1,1-0.6,1.1-1.1c0.2-0.7,0.2-3.4,0.3-4.2c0.2-0.9,1.2-3.1,1.4-7c0.2-3.8-0.9-9.5-3.8-12.2C47,11.5,40.9,5.9,32,5.9
		c-8.6,0.1-14.7,5.8-17.5,8.4s-3.9,8.3-3.8,12.2c0.2,3.8,1.2,6.1,1.4,7c0.2,0.9,0.2,3.5,0.3,4.2c0.1,0.6,0.9,0.9,1.1,1.1l0,0
		c0,0,0.1,0,0.1-0.1l0,0l0,0l0,0l0,0v-0.1v-0.1c0-0.1,0-0.1,0-0.2c0-0.2,0-0.3,0-0.6c0-0.3,0-0.8,0-1.2s0-0.9,0-1.3
		c0-0.4,0.1-0.9,0.3-1.3c0.2-0.4,0.4-0.8,0.6-1.2c0.1-0.2,0.2-0.4,0.2-0.6c0.1-0.2,0.1-0.3,0.1-0.6v-0.1v-0.1l0,0l0,0v-0.1v-0.1
		c-0.1-0.2-0.1-0.3-0.2-0.6c-0.1-0.3-0.3-0.7-0.4-1c-0.3-0.6-0.6-1.1-0.7-1.4c-0.1-0.2-0.1-0.3-0.1-0.4v-0.1l0,0l0,0v0.1
		c0,0.1,0.1,0.2,0.1,0.4c0.1,0.3,0.4,0.9,0.8,1.4c0.1,0.3,0.3,0.6,0.6,1c0.1,0.2,0.2,0.3,0.2,0.6c0,0,0,0.1,0.1,0.1v0.1
		c0,0.1,0,0.2,0,0.3c0,0.2,0,0.4-0.1,0.7C15,32.5,15,32.7,14.9,33c-0.2,0.4-0.4,0.8-0.6,1.2c-0.2,0.3-0.2,0.8-0.3,1.2
		c0,0.4-0.1,0.9-0.1,1.2c0,0.4,0,0.8,0,1.2c0,0.2,0,0.3,0,0.6c0,0.1,0,0.2-0.1,0.2c0,0.1-0.1,0.2-0.1,0.2s0,0,0,0.1l0,0l0,0l0,0l0,0
		l0,0c0,0-0.1,0-0.1,0.1c0,0-0.1,0-0.1,0.1h-0.1l0,0c-0.3,0.3-0.9,0.8-1.4,1.1c-0.7,0.3-1.1,2.3-0.6,2.8c0.6,0.4,0.7,3.5,2.8,5.4
		c2.1,1.9,5.4,1.2,6.4,1.2c1-0.1,2,0.2,2.3,0.9c0.4,0.6-0.7,3,0.2,4.1l0.1,0.1c0.1-0.2,0.1-0.4,0.3-0.4c0.1,0,0.3,0.3,0.3,0.3
		c0-0.2,0.1-0.3,0.2-0.3l0,0c0.2,0,0.2,0.2,0.3,0.8c0-0.3,0.1-0.7,0.3-0.8c0,0,0,0,0.1,0s0.3,0.1,0.8,0.9c0.1-0.4,0.2-1,0.6-1
		c0,0,0,0,0.1,0c0.2,0,0.4,0.1,1.1,1.3l0,0c0.2-0.4,0.4-0.9,0.7-0.9h0.1c0.2,0,0.6,0.1,1.1,1.1v-0.1c0.2-0.7,0.8-1.1,1.3-1.1
		c0.7,0,1.2,0.7,1.3,1.8c0,0.1,0,0.2,0,0.3c0-0.1,0-0.2,0-0.3c0.1-1.1,0.6-1.8,1.3-1.8c0.6,0,1.1,0.3,1.3,1.1v0.1
		c0.7-1,1-1.1,1.1-1.1h0.1c0.2,0.1,0.4,0.4,0.7,0.9l0,0c0.7-1.2,0.9-1.3,1.1-1.3c0,0,0,0,0.1,0c0.3,0.1,0.4,0.6,0.6,1
		c0.4-0.7,0.7-0.9,0.8-0.9h0.1c0.2,0.1,0.2,0.4,0.3,0.8c0.1-0.6,0.2-0.8,0.3-0.8l0,0c0.1,0,0.1,0.1,0.2,0.3c0-0.1,0.2-0.4,0.3-0.3
		c0.1,0,0.2,0.2,0.3,0.4l0.1-0.1c0.9-1.1-0.2-3.4,0.2-4.1c0.4-0.6,1.3-0.9,2.3-0.9c1,0.1,4.3,0.7,6.4-1.2c2.1-1.9,2.2-5,2.8-5.4
		c0.6-0.4,0.2-2.4-0.6-2.8c-0.4-0.2-1.1-0.8-1.4-1.1l0,0h-0.1c0,0-0.1,0-0.1-0.1c0,0-0.1,0-0.1-0.1l0,0l0,0l0,0l0,0l0,0
		c0,0,0,0,0-0.1c-0.1-0.1-0.1-0.2-0.1-0.2c0-0.1,0-0.2-0.1-0.2c0-0.2,0-0.3,0-0.6c0-0.3,0-0.8,0-1.2c0-0.4,0-0.9-0.1-1.2
		c0-0.4-0.1-0.9-0.3-1.2c-0.2-0.4-0.4-0.8-0.6-1.2c-0.1-0.2-0.2-0.4-0.2-0.7c-0.1-0.2-0.1-0.4-0.1-0.7c0-0.1,0-0.2,0-0.3v-0.1
		c0,0,0-0.1,0.1-0.1c0.1-0.2,0.2-0.3,0.2-0.6c0.2-0.3,0.3-0.7,0.6-1c0.3-0.6,0.6-1.1,0.8-1.4c0.1-0.2,0.1-0.3,0.1-0.4v-0.1l0,0l0,0
		v0.1c0,0.1,0,0.2-0.1,0.4c-0.1,0.3-0.3,0.9-0.7,1.4c-0.1,0.3-0.3,0.7-0.4,1c-0.1,0.2-0.1,0.3-0.2,0.6v0.1v0.1l0,0l0,0v0.1v0.1
		c0,0.2,0,0.3,0.1,0.6c0.1,0.2,0.1,0.3,0.2,0.6c0.2,0.4,0.4,0.8,0.6,1.2c0.2,0.4,0.3,0.9,0.3,1.3c0,0.4,0,0.9,0,1.3
		C50.6,36.7,50.6,37.2,50.6,37.5z M27.1,41.3c-1.4,1.2-6.4,1.1-7.7,0.7S17,38.5,17,37.1c0-1.4,2.1-4.5,3.7-4.5c1.7,0,4,1,6.8,2.1
		c1.7,0.7,1.8,1.2,2.1,2.5C30,38.6,28.6,40,27.1,41.3z M33.4,49.9c-0.7-0.3-1-1.5-1.1-1.8c0,0.2-0.3,1.4-1.1,1.8s-2-0.3-2-1.2
		c0-0.9,0.2-1,0.4-2.3c0.2-1.3,0.9-2.8,1-3.7c0.1-0.7,0.4-1.3,0.9-1.3c0.4,0,0.8,0.8,0.8,0.9c0-0.1,0.4-0.9,0.8-0.9
		c0.4,0,0.8,0.8,0.9,1.3c0.3,1.3,0.8,2.5,1,3.7c0.2,1.4,0.4,1.4,0.4,2.3C35.4,49.4,34.2,50.2,33.4,49.9z M45.3,41.9
		c-1.3,0.4-6.3,0.4-7.7-0.7c-1.4-1.2-2.9-2.7-2.5-4c0.2-0.9,0-1.5,3-2.4c2-0.7,5.4-2.3,6.8-2.1c1.5,0.3,2.8,3,2.8,4.3
		C47.5,38.5,46.6,41.5,45.3,41.9z"/>
	<path class="st3" d="M40.3,56.1c0.1,0,0.3-0.2,0.3-0.7c0-0.4-0.1-1-0.3-1c0,0-0.2,0.3-0.2,0.7C40.2,55.4,40.2,56.1,40.3,56.1z"/>
	<path class="st3" d="M37.7,54.4c-0.3-0.1-1,1.3-1,1.3s0.1,0.3,0.1,0.7s0,0.7,0,0.7s0.7,0.4,0.9,0.3c0.3-0.1,0.3-0.6,0.3-1.1
		C38.2,55.8,38.1,54.5,37.7,54.4z"/>
</g>
</svg>
