<?xml version="1.0" encoding="utf-8"?>
<!-- Generator: Adobe Illustrator 21.0.1, SVG Export Plug-In . SVG Version: 6.00 Build 0)  -->
<svg version="1.1" id="Layer_1" xmlns="http://www.w3.org/2000/svg" xmlns:xlink="http://www.w3.org/1999/xlink" x="0px" y="0px"
	 viewBox="0 0 64 64" style="enable-background:new 0 0 64 64;" xml:space="preserve">
<style type="text/css">
	.st0{fill:#4E5468;}
	.st1{fill:#C7CBD7;}
</style>
<circle class="st0" cx="31.6" cy="31.7" r="28.9"/>
<g>
	<path class="st1" d="M31.9,38.5l-1.4-0.1c-0.7,0-1.4,0.5-1.6,1.2l-1.2,6.8c-0.1,0.7,0.4,1.4,1.1,1.4l1.4,0.1c0.8,0,1.4-0.5,1.5-1.3
		l1.2-6.9C32.9,39.1,32.5,38.6,31.9,38.5z"/>
	<path class="st1" d="M50.7,31.8l-1.8-0.6C48,30.9,47,30.8,46,30.8l-1.9,0.1c-0.4,0-0.7,0.3-0.8,0.7L40.8,47l-1-0.1
		c-0.4,0-0.7,0.2-0.7,0.5l-0.3,1.8c-0.1,0.3,0.2,0.6,0.4,0.6l10,0.9c0.4,0,0.7-0.2,0.7-0.6l0.3-1.7c0-0.3-0.2-0.6-0.5-0.6l-0.9-0.1
		l2.5-15.1C51.2,32.2,51,31.9,50.7,31.8z"/>
	<path class="st1" d="M51.2,17.1l-0.3-1.3l-4.2-0.5v1.4l-27-2.4c0,0-0.6-1.5-1.7-2s-2.8-0.4-3.5,0s-2.3,2.2-2.5,3.5l-0.5,3.3
		l38.2,3.3v0.9l3.1,0.1l0.5-6.2L51.2,17.1z"/>
	<path class="st1" d="M36.5,39.1L35.1,39c-0.7,0-1.4,0.5-1.6,1.2L32.3,47c-0.1,0.7,0.4,1.4,1.1,1.4l1.4,0.1c0.8,0,1.4-0.5,1.5-1.3
		l1.2-6.9C37.5,39.6,37.1,39.1,36.5,39.1z"/>
	<path class="st1" d="M48.1,24.2l-33.9-3l-3-0.2l-0.6,4.3l3.1,0.3c1.1,0.1,2,1,2,2.1v0.8c0,0.9-0.2,1.7-0.6,2.5L13,35.3
		c-1,2.1-1.6,4.5-1.6,6.8v3.1c0,0.4,0.3,0.8,0.8,0.8l12,1.2c0.4,0,0.7-0.3,0.8-0.7l1.8-10.9l10.3,0.5c0.2,0,0.4,0,0.6-0.1l0.8-0.5
		c0.4-0.2,0.7-0.6,0.7-1.1l0.1-3.5c0-0.3-0.1-0.8-0.2-1.1l-0.5-1.3l13.7,1l0.3-4L48,25.4L48.1,24.2z M27.2,34.1l1-6.2h0.1
		c0,2.4,1.1,6.4,1.1,6.4L27.2,34.1z M37.5,34.2c-0.1,0.3-0.3,0.4-0.7,0.4c-1.1-0.1-4.2-0.2-5.3-0.3c-0.2-1-0.4-2.2-0.4-3.6
		c0-1.1,0.1-1.8,0.3-2.7c1.1,0.1,4.2,0.3,5.3,0.4c0.3,0.6,0.6,1.2,0.8,2C37.8,32,37.6,33.3,37.5,34.2z"/>
</g>
</svg>
