<?xml version="1.0" encoding="utf-8"?>
<!-- Generator: Adobe Illustrator 21.0.1, SVG Export Plug-In . SVG Version: 6.00 Build 0)  -->
<svg version="1.1" id="Layer_1" xmlns="http://www.w3.org/2000/svg" xmlns:xlink="http://www.w3.org/1999/xlink" x="0px" y="0px"
	 viewBox="0 0 64 64" style="enable-background:new 0 0 64 64;" xml:space="preserve">
<style type="text/css">
	.st0{fill:#4E5468;}
	.st1{fill:#C7CBD7;}
</style>
<circle class="st0" cx="31.6" cy="31.7" r="28.9"/>
<g>
	<path class="st1" d="M15.9,13.2l-2.3,6.3c-1.3,3.7-1.9,7.6-1.8,11.4l0.1,3l5.9-3.2L15.9,13.2z"/>
	<path class="st1" d="M32.2,52.7l3-0.2c3.9-0.2,7.7-1.1,11.3-2.7l6.1-2.8L35,46.5L32.2,52.7z"/>
	<circle class="st1" cx="40.7" cy="23.3" r="3.8"/>
	<path class="st1" d="M37.6,26.3c-0.7-0.8-1.2-1.8-1.2-3c0-2.4,1.9-4.3,4.3-4.3c0.4,0,0.8,0.1,1.1,0.2c-0.3-1-0.5-2.1-0.1-2.8
		c0.8-1.2,4.6-4.9,4.6-4.9l-0.6-0.9c0,0-5.1,2.1-7.3,4.9s-1.9,7.2-1.9,7.2l-18.6,8.8l-6,3.3l0.2,6.8c0,1.2,0.9,2.3,2.1,2.5l0.7,0.1
		c0.6,0.1,1.3,0,1.7-0.4L37,26.9L37.6,26.3z M15.1,42.2c-0.6,0-1.1-0.4-1.1-1s0.4-1.1,1-1.1s1.1,0.4,1.1,1
		C16.2,41.7,15.7,42.2,15.1,42.2z"/>
	<path class="st1" d="M44.7,21.7c0.2,0.5,0.3,1,0.3,1.6c0,1.9-1.2,3.4-2.8,4c1.2-0.1,4.4-0.5,6.5-2.5c2.6-2.4,4.3-7.7,4.3-7.7
		l-1-0.6c0,0-3.4,4.1-4.6,5C46.7,22,45.6,21.9,44.7,21.7z"/>
	<path class="st1" d="M41.5,27.5c-0.3,0.1-0.6,0.1-0.9,0.1c-1.1,0-2.1-0.4-2.9-1.1l-0.6,0.7l-15,21.6c-0.4,0.5-0.5,1.2-0.3,1.8
		l0.2,0.7c0.3,1.2,1.4,2,2.6,1.9l6.8-0.4l2.8-6.2L41.5,27.5z M24.8,51.1c-0.6,0-1.1-0.4-1.1-1s0.4-1.1,1-1.1s1.1,0.4,1.1,1
		S25.4,51.1,24.8,51.1z"/>
</g>
</svg>
