<?xml version="1.0" encoding="utf-8"?>
<!-- Generator: Adobe Illustrator 21.0.1, SVG Export Plug-In . SVG Version: 6.00 Build 0)  -->
<svg version="1.1" id="Layer_1" xmlns="http://www.w3.org/2000/svg" xmlns:xlink="http://www.w3.org/1999/xlink" x="0px" y="0px"
	 viewBox="0 0 64 64" style="enable-background:new 0 0 64 64;" xml:space="preserve">
<style type="text/css">
	.st0{fill:#6F4512;}
	.st1{fill:#CE8508;}
</style>
<g>
	<circle class="st0" cx="32" cy="32.8" r="28.9"/>
</g>
<g>
	<path class="st1" d="M22.9,56c-3.2-6.7-1.5-10.5,1-14.1c2.7-3.9,3.4-7.8,3.4-7.8s2.1,2.8,1.3,7.1c3.7-4.2,4.4-10.8,3.9-13.3
		c8.5,5.9,12.1,18.7,7.2,28.2c25.9-14.7,6.4-36.6,3.1-39.1c1.1,2.5,1.3,6.7-0.9,8.7C37.9,11,28.3,8,28.3,8c1.1,7.6-4.1,15.8-9.1,22
		c-0.2-3-0.4-5.1-1.9-8c-0.4,5.5-4.5,9.9-5.7,15.4C10,44.8,12.7,50.3,22.9,56z"/>
</g>
</svg>
