<?xml version="1.0" encoding="utf-8"?>
<!-- Generator: Adobe Illustrator 21.0.1, SVG Export Plug-In . SVG Version: 6.00 Build 0)  -->
<svg version="1.1" id="Layer_1" xmlns="http://www.w3.org/2000/svg" xmlns:xlink="http://www.w3.org/1999/xlink" x="0px" y="0px"
	 viewBox="0 0 64 64" style="enable-background:new 0 0 64 64;" xml:space="preserve">
<style type="text/css">
	.st0{fill:#4E5468;}
	.st1{fill:#C7CBD7;}
</style>
<circle class="st0" cx="31.6" cy="31.7" r="28.9"/>
<path class="st1" d="M53.1,18.7l-12.8,29c-0.1,0.3-0.4,0.4-0.7,0.4H14.4c0,0-1.1-0.3-1.1-1.5c0-1.6,0.9-1.8,0.9-1.8S33,44.9,37.7,45
	c0.3,0,0.3,1.1,0,1.1C33.6,46,15.1,46,15.1,46s-0.7,0-0.6,0.6c0,0.4,0.6,0.5,0.6,0.5h23.4c0.3,0,0.5-0.1,0.6-0.4l13.5-29.1l-0.5-1.2
	c-0.4-0.9-1.2-1.4-2.2-1.4l-22.8-0.3c-0.8,0-1.5,0.4-1.9,1.1L10.5,43.7c-0.5,0.9-0.4,1.9,0.1,2.7l1.7,2.6c0.4,0.6,1.1,1,1.9,1h25.3
	c1,0,1.8-0.6,2.2-1.4l11.8-27c0.3-0.7,0.3-1.4,0-2.1L53.1,18.7z"/>
</svg>
