<?xml version="1.0" encoding="utf-8"?>
<!-- Generator: Adobe Illustrator 21.0.1, SVG Export Plug-In . SVG Version: 6.00 Build 0)  -->
<svg version="1.1" id="Layer_1" xmlns="http://www.w3.org/2000/svg" xmlns:xlink="http://www.w3.org/1999/xlink" x="0px" y="0px"
	 viewBox="0 0 64 64" style="enable-background:new 0 0 64 64;" xml:space="preserve">
<style type="text/css">
	.st0{fill:#4E5468;}
	.st1{fill:#C7CBD7;}
</style>
<circle class="st0" cx="32" cy="32" r="28.9"/>
<g>
	<path class="st1" d="M38.6,24.1H26.2c-1.1,0-1.9,0.9-1.9,1.9v12.4c0,1.1,0.9,1.9,1.9,1.9h12.4c1.1,0,1.9-0.9,1.9-1.9V26
		C40.5,24.9,39.7,24.1,38.6,24.1z"/>
	<path class="st1" d="M50.1,32.2l4.8-2.1l-4.8-2.1l0,0l0,0l4.8-2.1l-4.6-2l-9.4-9.4l-2-4.6l-2.1,4.8l0,0l0,0l-2.1-4.8l-2.1,4.8l0,0
		l0,0l-2.1-4.8l-2.1,4.8l0,0l0,0l-2.1-4.8l-2,4.6l-9.4,9.4L10,25.9l4.2,1.8l0,0l0.6,0.3l0,0l0,0L10,30.2l4.2,1.8l0,0l0.6,0.3l0,0
		l0,0L10,34.4l4.2,1.8l0,0l0.5,0.3l0,0l0,0l-4.8,2.1l4.7,2.1l9.4,9.4l2,4.6l2.1-4.8l0,0l0,0l2.1,4.8l2.1-4.8l0,0l0,0l2.1,4.8
		l2.1-4.8l0,0l0,0l2.1,4.8l2-4.6l9.4-9.4l4.6-2L50,36.7l0,0l0,0l4.8-2.1L50.1,32.2L50.1,32.2L50.1,32.2z M43.1,41.1
		c0,1.1-0.9,1.9-1.9,1.9H23.5c-1.1,0-1.9-0.9-1.9-1.9V23.4c0-1.1,0.9-1.9,1.9-1.9h17.6c1.1,0,1.9,0.9,1.9,1.9V41.1z"/>
</g>
</svg>
