<?xml version="1.0" encoding="utf-8"?>
<!-- Generator: Adobe Illustrator 21.0.1, SVG Export Plug-In . SVG Version: 6.00 Build 0)  -->
<svg version="1.1" id="Layer_1" xmlns="http://www.w3.org/2000/svg" xmlns:xlink="http://www.w3.org/1999/xlink" x="0px" y="0px"
	 viewBox="0 0 64 64" style="enable-background:new 0 0 64 64;" xml:space="preserve">
<style type="text/css">
	.st0{fill:#714282;}
	.st1{fill:#C58FFF;}
</style>
<g>
	<g>
		<g>
			<g>
				<g>
					<circle class="st0" cx="32" cy="32" r="28.9"/>
				</g>
			</g>
		</g>
	</g>
</g>
<g>
	<circle class="st1" cx="31.8" cy="32" r="8.2"/>
	<path class="st1" d="M58,28.3h-7.4c-1.4-7.6-7.3-13.4-14.9-15V5.9h-7.3v7.3c-7.7,1.4-13.7,7.4-15.1,15H6v7.3h7.1
		c1.4,7.7,7.6,13.7,15.2,15v7.3h7.3v-7.4c7.4-1.6,13.3-7.4,14.8-15h7.4v-7.1H58z M31.8,45.1c-7.2,0-13.1-5.9-13.1-13.1
		s5.9-13.1,13.1-13.1S44.9,24.8,44.9,32S39,45.1,31.8,45.1z"/>
</g>
</svg>
