<?xml version="1.0" encoding="utf-8"?>
<!-- Generator: Adobe Illustrator 21.0.1, SVG Export Plug-In . SVG Version: 6.00 Build 0)  -->
<svg version="1.1" id="Layer_1" xmlns="http://www.w3.org/2000/svg" xmlns:xlink="http://www.w3.org/1999/xlink" x="0px" y="0px"
	 viewBox="0 0 64 64" style="enable-background:new 0 0 64 64;" xml:space="preserve">
<style type="text/css">
	.st0{fill:#6F4512;}
	.st1{fill:#CE8508;}
</style>
<g>
	<g>
		<g>
			<g>
				<g>
					<circle class="st0" cx="32" cy="32" r="28.9"/>
				</g>
			</g>
		</g>
	</g>
</g>
<g>
	<path class="st1" d="M14.3,28.8c0.2-0.7,1.7-1.4,2.9-0.7c1.9,1.2,10,3.6,11.6,5.4c0.8,2.3,0.7,12.4,0.7,13.7c0.1,1.6-1.1,2.3-2.7,2
		c-1.8-0.9-5.6-7-6.6-7.1c-0.2,4.7-6.8,7.8-8,7.3c-2.1-0.7-4.6-4-4.4-6.4c0.6-1.6,2.2-5.6,9.6-5.6C17.2,35.9,13.5,31,14.3,28.8z"/>
	<path class="st1" d="M37.1,48.8c-0.7,0.1-2-0.9-1.9-2.3c0.2-2.2-1.1-10.6,0-12.8c1.7-1.8,10.9-5.9,12-6.4c1.3-0.8,2.7,0,2.9,1.6
		c-0.1,2-4,8.1-3.7,9c4.3-1.8,10,2.8,10.1,4.1c0.3,2.2-1.6,5.9-3.9,6.8c-1.7,0.1-6,0.3-9.1-6.2C42.3,43,39.4,48.5,37.1,48.8z"/>
	<path class="st1" d="M43.9,19.2c0.4,0.6,0.2,2.2-1.1,2.8c-2,1-8.6,6.3-11,6.6c-2.3-0.6-10.7-6.3-11.8-7c-1.3-0.8-1.3-2.2-0.2-3.2
		c1.8-1,9-0.8,9.6-1.4c-3.8-2.8-2.8-10-1.7-10.8c1.7-1.4,5.9-1.7,7.8-0.1c1,1.3,3.3,5-0.7,11C36.2,17.8,42.4,17.4,43.9,19.2z"/>
</g>
</svg>
