<?xml version="1.0" encoding="utf-8"?>
<!-- Generator: Adobe Illustrator 21.0.1, SVG Export Plug-In . SVG Version: 6.00 Build 0)  -->
<svg version="1.1" id="Layer_1" xmlns="http://www.w3.org/2000/svg" xmlns:xlink="http://www.w3.org/1999/xlink" x="0px" y="0px"
	 viewBox="0 0 128 64" style="enable-background:new 0 0 128 64;" xml:space="preserve">
<style type="text/css">
	.st0{fill:#C7CBD7;}
</style>
<g>
	<path class="st0" d="M79.4,29.4c1.4,0.1,2.6,0.4,3.6,0.8c2.3,0.8,4.4,1.9,6.6,3c0.3,0.1,0.4,0.1,0.6-0.1c4.2-4.9,8.6-9.7,13.3-14.3
		c2.2-2.1,4.4-4.1,6.9-5.8c1-0.7,2.1-1.4,3.2-1.7c0.7-0.2,1.4-0.3,2.1-0.1c1.2,0.4,1.7,1.5,1,2.6c-0.3,0.5-0.8,1-1.2,1.4
		c-1.9,1.9-3.7,3.6-5.6,5.5c-5.1,5.5-9.3,11.6-12.8,18.2c-1.9,3.5-3.5,7.1-4.9,10.7c-0.3,0.6-0.6,0.9-1.3,0.8
		c-0.5-0.1-0.7-0.3-0.9-0.7c-1-1.9-2-3.7-3-5.5c-2.4-3.8-5.1-7.5-8.3-10.5c-0.4-0.3-0.7-0.7-1.1-1c-0.6-0.5-0.6-1-0.6-1.6
		c0.2-1,0.9-1.5,1.9-1.7C78.9,29.4,79.2,29.4,79.4,29.4z"/>
</g>
<path class="st0" d="M101.1,34v14.9h-7.5c-0.1,0.4-0.3,0.7-0.4,1.1c-0.2,0.5-0.7,1.5-2,1.5c-0.1,0-0.2,0-0.4,0
	c-0.8-0.2-1.3-0.5-1.7-1.2c-0.2-0.4-0.5-0.9-0.7-1.3H79V35.4c-0.3-0.3-0.6-0.6-1-0.9c-0.2-0.2-0.4-0.4-0.6-0.6
	c-0.1-0.1-0.3-0.3-0.4-0.4c-1-0.8-1-1.7-1-2.4l0-0.2c0.2-0.9,0.8-2.1,2.7-2.5l0.2,0l0.1,0v-1.6h15.4c1.2-1.4,2.5-2.7,3.7-4H75v30.1
	h30.1V28.1C103.7,30,102.3,31.9,101.1,34z"/>
<path class="st0" d="M41.1,52.9H11V22.8h30.1V52.9z M15,48.9h22.1V26.8H15V48.9z"/>
</svg>
