<svg xmlns="http://www.w3.org/2000/svg" viewBox="0 0 128 64" enable-background="new 0 0 128 64"><style type="text/css">.st0{fill:#C7CBD7;}</style><path class="st0" d="M79.4 29.4c1.4.1 2.6.4 3.6.8 2.3.8 4.4 1.9 6.6 3 .3.1.4.1.6-.1 4.2-4.9 8.6-9.7 13.3-14.3 2.2-2.1 4.4-4.1 6.9-5.8 1-.7 2.1-1.4 3.2-1.7.7-.2 1.4-.3 2.1-.1 1.2.4 1.7 1.5 1 2.6-.3.5-.8 1-1.2 1.4l-5.6 5.5c-5.1 5.5-9.3 11.6-12.8 18.2-1.9 3.5-3.5 7.1-4.9 10.7-.3.6-.6.9-1.3.8-.5-.1-.7-.3-.9-.7-1-1.9-2-3.7-3-5.5-2.4-3.8-5.1-7.5-8.3-10.5l-1.1-1c-.6-.5-.6-1-.6-1.6.2-1 .9-1.5 1.9-1.7h.5zM101.1 34v14.9h-7.5l-.4 1.1c-.2.5-.7 1.5-2 1.5h-.4c-.8-.2-1.3-.5-1.7-1.2l-.7-1.3h-9.4v-13.6c-.3-.3-.6-.6-1-.9l-.6-.6-.4-.4c-1-.8-1-1.7-1-2.4v-.2c.2-.9.8-2.1 2.7-2.5h.30000000000000004v-1.6h15.4c1.2-1.4 2.5-2.7 3.7-4h-23.1v30.1h30.1v-24.8c-1.4 1.9-2.8 3.8-4 5.9zM41.1 52.9h-30.1v-30.1h30.1v30.1zm-26.1-4h22.1v-22.1h-22.1v22.1z"/></svg>