<?xml version="1.0" encoding="utf-8"?>
<!-- Generator: Adobe Illustrator 21.0.1, SVG Export Plug-In . SVG Version: 6.00 Build 0)  -->
<svg version="1.1" id="Layer_1" xmlns="http://www.w3.org/2000/svg" xmlns:xlink="http://www.w3.org/1999/xlink" x="0px" y="0px"
	 viewBox="0 0 840 60" style="enable-background:new 0 0 840 60;" xml:space="preserve">
<style type="text/css">
	.st0{fill:#C7CBD7;}
	.st1{fill:#83868E;}
</style>
<g id="polyline">
	<path class="st0" d="M18,36v6h6v-6H18z M22,40h-2v-2h2V40z"/>
	<path class="st0" d="M36,18v6h6v-6H36z M40,22h-2v-2h2V22z"/>
	<path class="st0" d="M23.1,39.1l-2.3-2.3l16-16l2.3,2.3L23.1,39.1z"/>
</g>
<path id="polygon" class="st0" d="M102,24.6l-2.1,14.8L85.1,42L78,28.8L88.5,18L102,24.6z"/>
<path id="rectangle" class="st0" d="M140,20h20v20h-20V20z"/>
<g>
	<path id="circle" class="st0" d="M221,30c0,6.1-4.9,11-11,11s-11-4.9-11-11s4.9-11,11-11S221,23.9,221,30z"/>
</g>
<g>
	<path id="marker" class="st0" d="M270,18.5c-5,0-9,4-9,9s5,12,9,14c4-2,9-9,9-14S275,18.5,270,18.5z M270,31c-2.5,0-4.5-2-4.5-4.5
		s2-4.5,4.5-4.5s4.5,2,4.5,4.5S272.5,31,270,31z"/>
</g>
<g id="edit">
	<path class="st0" d="M336.3,30.7v0.4v5.6c0,1.7-1.3,3-3,3h-10c-1.7,0-3-1.3-3-3v-10c0-1.7,1.3-3,3-3h6.3l3.2-3.2h-9.5
		c-3.3,0-6,2.7-6,6v10c0,3.3,2.7,6,6,6h10c3.3,0,6-2.7,6-6v-8.8L336.3,30.7"/>
	<path class="st0" d="M338,25.1l-8.9,8.9h-2.8v-2.8l8.9-8.9L338,25.1z"/>
	<path class="st0" d="M340,23.1l-2.8-2.8l2.8-2.8l2.8,2.8L340,23.1z"/>
</g>
<g id="remove">
	<path class="st0" d="M381,43h18V25h-18V43z M395,27h2v14h-2V27z M391,27h2v14h-2V27z M387,27h2v14h-2V27z M383,27h2v14h-2V27z"/>
	<path class="st0" d="M395,21v-4h-10v4h-6v2h22v-2H395z M393,21h-6v-2h6V21z"/>
</g>
<g id="edit-disabled">
	<g id="edit_1_">
		<path class="st1" d="M756.3,30.7v0.4v5.6c0,1.7-1.3,3-3,3h-10c-1.7,0-3-1.3-3-3v-10c0-1.7,1.3-3,3-3h6.3l3.2-3.2h-9.5
			c-3.3,0-6,2.7-6,6v10c0,3.3,2.7,6,6,6h10c3.3,0,6-2.7,6-6v-8.8L756.3,30.7"/>
		<path class="st1" d="M758,25.1l-8.9,8.9h-2.8v-2.8l8.9-8.9L758,25.1z"/>
		<path class="st1" d="M760,23.1l-2.8-2.8l2.8-2.8l2.8,2.8L760,23.1z"/>
	</g>
</g>
<g id="remove-disabled">
	<g id="remove_1_">
		<path class="st1" d="M801,43h18V25h-18V43z M815,27h2v14h-2V27z M811,27h2v14h-2V27z M807,27h2v14h-2V27z M803,27h2v14h-2V27z"/>
		<path class="st1" d="M815,21v-4h-10v4h-6v2h22v-2H815z M813,21h-6v-2h6V21z"/>
	</g>
</g>
<g id="polyline_1_">
	<path class="st1" d="M438,36v6h6v-6H438z M442,40h-2v-2h2V40z"/>
	<path class="st1" d="M456,18v6h6v-6H456z M460,22h-2v-2h2V22z"/>
	<path class="st1" d="M443.1,39.1l-2.3-2.3l16-16l2.3,2.3L443.1,39.1z"/>
</g>
<path id="polygon_1_" class="st1" d="M522,24.6l-2.1,14.8L505.1,42L498,28.8L508.5,18L522,24.6z"/>
<path id="rectangle_1_" class="st1" d="M560,20h20v20h-20V20z"/>
<path id="circle_1_" class="st1" d="M641,30c0,6.1-4.9,11-11,11s-11-4.9-11-11s4.9-11,11-11S641,23.9,641,30z"/>
<path id="marker_1_" class="st1" d="M690,18.5c-5,0-9,4-9,9s5,12,9,14c4-2,9-9,9-14S695,18.5,690,18.5z M690,31
	c-2.5,0-4.5-2-4.5-4.5s2-4.5,4.5-4.5s4.5,2,4.5,4.5S692.5,31,690,31z"/>
</svg>
