<svg xmlns="http://www.w3.org/2000/svg" viewBox="0 0 64 64" enable-background="new 0 0 64 64"><style type="text/css">.st0{display:none;} .st1{display:inline;fill:#326629;} .st2{fill:#EAEAEA;}</style><circle class="st1" cx="32" cy="32.8" r="28.9"/><path class="st2" d="M26 26.1l21.3-9.4-9.2 21.2-21.4 9.4zM19.1 34.8c-.2-.9-.3-1.8-.3-2.8 0-7.3 5.9-13.2 13.2-13.2 1 0 1.9.1 2.8.3l2-.9c-1.5-.5-3.1-.8-4.8-.8-8.1 0-14.6 6.5-14.6 14.6 0 1.7.3 3.3.8 4.8l.9-2zM44.9 29.3c.2.9.3 1.8.3 2.7 0 7.3-5.9 13.2-13.2 13.2-.9 0-1.9-.1-2.7-.3l-2 .9c1.5.5 3.1.8 4.7.8 8.1 0 14.6-6.5 14.6-14.6 0-1.6-.3-3.2-.8-4.7l-.9 2zM51.9 28.6c-.5-2.9-1.6-5.6-3.2-7.9l-1.9 4.4c.6 1.2 1 2.4 1.2 3.8l3.8 3.2-3.8 3.2c-1.3 6.5-6.4 11.6-12.9 12.9l-3.1 3.7-3.2-3.8c-1.3-.3-2.6-.7-3.8-1.3l-4.3 1.9c2.3 1.6 5 2.7 7.9 3.2l3.4 4.1 3.4-4.1c8.4-1.4 15.1-8.1 16.5-16.5l4.1-3.4-4.1-3.4zM15.3 43.3l1.9-4.3c-.6-1.2-1-2.5-1.3-3.8l-3.8-3.2 3.8-3.2c1.3-6.5 6.4-11.6 12.9-12.9l3.2-3.8 3.2 3.8c1.4.3 2.6.7 3.9 1.3l4.3-1.9c-2.3-1.6-5-2.7-7.9-3.2l-3.5-4.1-3.4 4.1c-8.4 1.4-15.1 8.1-16.5 16.5l-4.1 3.4 4.1 3.4c.5 2.9 1.6 5.6 3.2 7.9z"/></svg>