<?xml version="1.0" encoding="utf-8"?>
<!-- Generator: Adobe Illustrator 21.0.1, SVG Export Plug-In . SVG Version: 6.00 Build 0)  -->
<svg version="1.1" id="Layer_1" xmlns="http://www.w3.org/2000/svg" xmlns:xlink="http://www.w3.org/1999/xlink" x="0px" y="0px"
	 viewBox="0 0 64 64" style="enable-background:new 0 0 64 64;" xml:space="preserve">
<style type="text/css">
	.st0{fill:#8E5B1E;}
</style>
<g>
	<path class="st0" d="M29.9,15.6c0.6-0.1,1.2-0.1,1.9-0.1v-1.3c-0.7,0-1.4,0.1-2.1,0.2L29.9,15.6z"/>
	<path class="st0" d="M25.3,16.9c0.6-0.3,1.2-0.5,1.8-0.7l-0.4-1.2c-0.7,0.2-1.3,0.5-2,0.8L25.3,16.9z"/>
	<path class="st0" d="M23.2,18.1c0.5-0.3,1.1-0.7,1.7-0.9l-0.6-1.1c-0.7,0.3-1.3,0.7-1.9,1.1L23.2,18.1z"/>
	<path class="st0" d="M27.6,16.1c0.6-0.2,1.2-0.3,1.8-0.4l-0.2-1.2c-0.7,0.1-1.4,0.3-2,0.4L27.6,16.1z"/>
	<path class="st0" d="M19.4,21.4c0.4-0.5,0.9-1,1.4-1.5l-1-0.8c-0.6,0.5-1.1,1.1-1.6,1.7L19.4,21.4z"/>
	<path class="st0" d="M21.2,19.6c0.5-0.4,1-0.9,1.6-1.2l-0.8-1c-0.6,0.4-1.2,0.9-1.7,1.4L21.2,19.6z"/>
</g>
</svg>
