<?xml version="1.0" encoding="utf-8"?>
<!-- Generator: Adobe Illustrator 21.0.1, SVG Export Plug-In . SVG Version: 6.00 Build 0)  -->
<svg version="1.1" id="Layer_1" xmlns="http://www.w3.org/2000/svg" xmlns:xlink="http://www.w3.org/1999/xlink" x="0px" y="0px"
	 viewBox="0 0 64 64" style="enable-background:new 0 0 64 64;" xml:space="preserve">
<style type="text/css">
	.st0{display:none;fill:#24373D;}
	.st1{fill:#8E5B1E;}
	.st2{fill:#B57724;}
	.st3{display:none;fill:#B57724;}
</style>
<g id="Layer_1_1_">
	<rect class="st0" width="64.3" height="64.3"/>
	<g>
		<path class="st1" d="M51.7,10.8l-3.6,4.3c3.2,3,5.5,6.9,6.6,11.4l5.5-1C58.9,19.8,55.9,14.7,51.7,10.8z"/>
		<path class="st2" d="M49.4,8.9c-4.5-3.4-10-5.5-15.9-5.8v5.6c4.6,0.3,8.8,1.9,12.3,4.5L49.4,8.9z"/>
		<path class="st1" d="M3.8,25.5l5.5,1c1.1-4.4,3.4-8.3,6.6-11.4l-3.6-4.3C8.1,14.7,5.1,19.8,3.8,25.5z"/>
		<path class="st1" d="M30.5,3.1c-6,0.3-11.5,2.4-15.9,5.8l3.6,4.3c3.5-2.6,7.7-4.2,12.3-4.5V3.1z"/>
		<path class="st1" d="M38.6,54.4c-2.1,0.6-4.3,0.9-6.6,0.9s-4.5-0.3-6.6-0.9l-1.9,5.3C26.2,60.5,29,61,32,61s5.8-0.4,8.5-1.3
			L38.6,54.4z"/>
		<path class="st1" d="M55.2,29.4c0.1,0.8,0.1,1.7,0.1,2.6c0,3.7-0.9,7.2-2.4,10.4l4.9,2.8c2-4,3.2-8.4,3.2-13.2
			c0-1.2-0.1-2.4-0.2-3.5L55.2,29.4z"/>
		<path class="st1" d="M11.1,42.4C9.5,39.2,8.6,35.7,8.6,32c0-0.9,0.1-1.7,0.1-2.6l-5.5-1C3.1,29.6,3,30.8,3,32
			c0,4.7,1.1,9.2,3.2,13.2L11.1,42.4z"/>
		<path class="st1" d="M51.4,44.9c-2.5,3.7-5.9,6.6-10.1,8.4l1.9,5.3c5.3-2.3,9.9-6.1,13-10.9L51.4,44.9z"/>
		<path class="st1" d="M22.6,53.4c-4.1-1.8-7.6-4.7-10.1-8.4l-4.9,2.8c3.1,4.8,7.6,8.6,13,10.9L22.6,53.4z"/>
	</g>
	<path class="st3" d="M12.7,24l1.8,0.6c3.9-9,14.1-13.7,23.5-10.5c10,3.3,15.3,14,12,24S35.8,53.4,25.9,50
		c-9.5-3.2-14.7-13.1-12.4-22.6l-1.8-0.6c-2.7,10.5,3.1,21.5,13.6,25c10.9,3.7,22.8-2.2,26.5-13.1s-2.2-22.8-13.1-26.5
		C28.2,8.7,16.9,13.9,12.7,24z"/>
</g>
</svg>
