<?xml version="1.0" encoding="utf-8"?>
<!-- Generator: Adobe Illustrator 21.0.1, SVG Export Plug-In . SVG Version: 6.00 Build 0)  -->
<svg version="1.1" id="Layer_1" xmlns="http://www.w3.org/2000/svg" xmlns:xlink="http://www.w3.org/1999/xlink" x="0px" y="0px"
	 viewBox="0 0 64 64" style="enable-background:new 0 0 64 64;" xml:space="preserve">
<style type="text/css">
	.st0{fill:#EAEAEA;}
</style>
<g id="Layer_2">
	<g>
		<polygon class="st0" points="28.3,28.3 41.5,22.5 35.8,35.7 22.5,41.5 		"/>
		<g>
			<path class="st0" d="M24,33.8c-0.1-0.5-0.2-1.1-0.2-1.8c0-4.6,3.7-8.3,8.2-8.3c0.6,0,1.1,0.1,1.8,0.2l1.2-0.5
				c-1-0.4-1.9-0.5-3-0.5c-5,0-9.1,4.1-9.1,9.1c0,1.1,0.2,2,0.5,3L24,33.8z"/>
			<path class="st0" d="M40,30.3c0.1,0.5,0.2,1.1,0.2,1.7c0,4.6-3.7,8.3-8.3,8.3c-0.5,0-1.1-0.1-1.7-0.2L29,40.6
				c1,0.4,1.9,0.5,2.9,0.5c5,0,9.1-4.1,9.1-9.1c0-1-0.2-2-0.5-2.9L40,30.3z"/>
		</g>
		<g>
			<path class="st0" d="M44.4,29.9c-0.4-1.9-1-3.5-2-4.9l-1.1,2.7c0.4,0.8,0.6,1.5,0.7,2.4l0,0l2.4,2l-2.4,2l0,0c-0.8,4.1-4,7.2-8,8
				l0,0l-2,2.3L30,42l0,0c-0.8-0.2-1.6-0.4-2.4-0.8L25,42.3c1.4,1,3.1,1.7,4.9,2L32,47l2.1-2.6c5.3-0.9,9.4-5,10.3-10.3L47,32
				L44.4,29.9z"/>
			<path class="st0" d="M21.6,39.1l1.1-2.6c-0.4-0.7-0.6-1.6-0.8-2.4l0,0l-2.4-2l2.4-2l0,0c0.8-4.1,4-7.2,8-8l0,0l2-2.4l2,2.4l0,0
				c0.9,0.2,1.6,0.4,2.5,0.8l2.6-1.1c-1.4-1-3.1-1.7-4.9-2L32,17l-2.1,2.6c-5.3,0.9-9.4,5-10.3,10.3L17,32l2.6,2.1
				C19.9,36,20.5,37.6,21.6,39.1z"/>
		</g>
	</g>
</g>
</svg>
