<?xml version="1.0" encoding="utf-8"?>
<!-- Generator: Adobe Illustrator 21.0.1, SVG Export Plug-In . SVG Version: 6.00 Build 0)  -->
<svg version="1.1" id="Layer_1" xmlns="http://www.w3.org/2000/svg" xmlns:xlink="http://www.w3.org/1999/xlink" x="0px" y="0px"
	 viewBox="0 0 64 64" style="enable-background:new 0 0 64 64;" xml:space="preserve">
<style type="text/css">
	.st0{display:none;}
	.st1{display:inline;fill:#326629;}
	.st2{fill:#EAEAEA;}
</style>
<g class="st0">
	<circle class="st1" cx="32" cy="32.8" r="28.9"/>
</g>
<g>
	<polygon class="st2" points="26,26.1 47.3,16.7 38.1,37.9 16.7,47.3 	"/>
	<g>
		<path class="st2" d="M19.1,34.8c-0.2-0.9-0.3-1.8-0.3-2.8c0-7.3,5.9-13.2,13.2-13.2c1,0,1.9,0.1,2.8,0.3l2-0.9
			c-1.5-0.5-3.1-0.8-4.8-0.8c-8.1,0-14.6,6.5-14.6,14.6c0,1.7,0.3,3.3,0.8,4.8L19.1,34.8z"/>
		<path class="st2" d="M44.9,29.3c0.2,0.9,0.3,1.8,0.3,2.7c0,7.3-5.9,13.2-13.2,13.2c-0.9,0-1.9-0.1-2.7-0.3l-2,0.9
			c1.5,0.5,3.1,0.8,4.7,0.8c8.1,0,14.6-6.5,14.6-14.6c0-1.6-0.3-3.2-0.8-4.7L44.9,29.3z"/>
	</g>
	<g>
		<path class="st2" d="M51.9,28.6c-0.5-2.9-1.6-5.6-3.2-7.9l-1.9,4.4c0.6,1.2,1,2.4,1.2,3.8l0,0l3.8,3.2L48,35.3l0,0
			c-1.3,6.5-6.4,11.6-12.9,12.9l0,0L32,51.9l-3.2-3.8l0,0c-1.3-0.3-2.6-0.7-3.8-1.3l-4.3,1.9c2.3,1.6,5,2.7,7.9,3.2L32,56l3.4-4.1
			c8.4-1.4,15.1-8.1,16.5-16.5L56,32L51.9,28.6z"/>
		<path class="st2" d="M15.3,43.3l1.9-4.3c-0.6-1.2-1-2.5-1.3-3.8l0,0L12.1,32l3.8-3.2l0,0c1.3-6.5,6.4-11.6,12.9-12.9l0,0l3.2-3.8
			l3.2,3.8l0,0c1.4,0.3,2.6,0.7,3.9,1.3l4.3-1.9c-2.3-1.6-5-2.7-7.9-3.2L32,8l-3.4,4.1c-8.4,1.4-15.1,8.1-16.5,16.5L8,32l4.1,3.4
			C12.6,38.3,13.7,41,15.3,43.3z"/>
	</g>
</g>
</svg>
