<?xml version="1.0" encoding="utf-8"?>
<!-- Generator: Adobe Illustrator 21.0.1, SVG Export Plug-In . SVG Version: 6.00 Build 0)  -->
<svg version="1.1" id="Layer_1" xmlns="http://www.w3.org/2000/svg" xmlns:xlink="http://www.w3.org/1999/xlink" x="0px" y="0px"
	 viewBox="0 0 64 64" style="enable-background:new 0 0 64 64;" xml:space="preserve">
<style type="text/css">
	.st0{opacity:0.25;}
	.st1{filter:url(#Adobe_OpacityMaskFilter);}
	.st2{mask:url(#SVGID_1_);}
	.st3{fill:#4C4C4C;}
</style>
<g class="st0">
	<defs>
		<filter id="Adobe_OpacityMaskFilter" filterUnits="userSpaceOnUse" x="1.8" y="1.9" width="60.4" height="60.4">
			<feFlood  style="flood-color:white;flood-opacity:1" result="back"/>
			<feBlend  in="SourceGraphic" in2="back" mode="normal"/>
		</filter>
	</defs>
	<mask maskUnits="userSpaceOnUse" x="1.8" y="1.9" width="60.4" height="60.4" id="SVGID_1_">
		<g class="st1">
			<image style="overflow:visible;" width="66" height="66" xlink:href="CADD4660.jpg"  transform="matrix(1 0 0 1 -1 -1)">
			</image>
		</g>
	</mask>
	<g class="st2">
		<g>
			<path class="st3" d="M12.5,42.7c-1.7-3.2-2.7-6.8-2.7-10.6c0-12.1,9.7-21.9,21.7-22.1V1.9C15,2.1,1.8,15.5,1.8,32
				c0,5.3,1.4,10.3,3.8,14.6L12.5,42.7z"/>
			<path class="st3" d="M32.5,9.9C44.5,10.2,54.1,20,54.1,32c0,3.8-1,7.4-2.7,10.6l7,4c2.4-4.3,3.8-9.3,3.8-14.6
				c0-16.5-13.2-29.9-29.7-30.2V9.9z"/>
			<path class="st3" d="M50.9,43.5C47,49.9,40,54.2,32,54.2c-8,0-15.1-4.3-18.9-10.7l-7,4c5.3,8.8,14.9,14.7,25.9,14.7
				c11,0,20.7-5.9,25.9-14.7L50.9,43.5z"/>
		</g>
	</g>
</g>
</svg>
