<?xml version="1.0" encoding="utf-8"?>
<!-- Generator: Adobe Illustrator 21.0.1, SVG Export Plug-In . SVG Version: 6.00 Build 0)  -->
<svg version="1.1" id="Layer_1" xmlns="http://www.w3.org/2000/svg" xmlns:xlink="http://www.w3.org/1999/xlink" x="0px" y="0px"
	 viewBox="0 0 64 64" style="enable-background:new 0 0 64 64;" xml:space="preserve">
<style type="text/css">
	.st0{fill:#081B21;}
	.st1{opacity:0.25;}
	.st2{fill:#4C4C4C;}
	.st3{display:none;fill:#24373D;}
	.st4{fill:#8E5B1E;}
	.st5{fill:#B57724;}
	.st6{display:none;fill:#B57724;}
	.st7{opacity:0.3;fill:#EAEAEA;}
	.st8{fill:#EAEAEA;}
</style>
<rect x="0" class="st0" width="64" height="64"/>
<g>
	
		<image style="overflow:visible;enable-background:new    ;" width="66" height="66" xlink:href="CADD4660.jpg"  transform="matrix(1 0 0 1 -1 -1)">
	</image>
</g>
<g class="st1">
	<g>
		<g>
			<path class="st2" d="M12.5,42.7c-1.7-3.2-2.7-6.8-2.7-10.6C9.8,20,19.5,10.2,31.5,10V1.9C15,2.1,1.8,15.5,1.8,32
				c0,5.3,1.4,10.3,3.8,14.6L12.5,42.7z"/>
			<path class="st2" d="M32.5,9.9C44.5,10.2,54.1,20,54.1,32c0,3.8-1,7.4-2.7,10.6l7,4c2.4-4.3,3.8-9.3,3.8-14.6
				C62.2,15.5,49,2.1,32.5,1.8C32.5,1.8,32.5,9.9,32.5,9.9z"/>
			<path class="st2" d="M50.9,43.5C47,49.9,40,54.2,32,54.2s-15.1-4.3-18.9-10.7l-7,4C11.4,56.3,21,62.2,32,62.2s20.7-5.9,25.9-14.7
				L50.9,43.5z"/>
		</g>
	</g>
</g>
<g id="Layer_1_1_">
	<rect class="st3" width="64.3" height="64.3"/>
	<g>
		<path class="st4" d="M51.7,10.8l-3.6,4.3c3.2,3,5.5,6.9,6.6,11.4l5.5-1C58.9,19.8,55.9,14.7,51.7,10.8z"/>
		<path class="st5" d="M49.4,8.9c-4.5-3.4-10-5.5-15.9-5.8v5.6c4.6,0.3,8.8,1.9,12.3,4.5L49.4,8.9z"/>
		<path class="st4" d="M3.8,25.5l5.5,1c1.1-4.4,3.4-8.3,6.6-11.4l-3.6-4.3C8.1,14.7,5.1,19.8,3.8,25.5z"/>
		<path class="st4" d="M30.5,3.1c-6,0.3-11.5,2.4-15.9,5.8l3.6,4.3c3.5-2.6,7.7-4.2,12.3-4.5V3.1z"/>
		<path class="st4" d="M38.6,54.4c-2.1,0.6-4.3,0.9-6.6,0.9s-4.5-0.3-6.6-0.9l-1.9,5.3C26.2,60.5,29,61,32,61s5.8-0.4,8.5-1.3
			L38.6,54.4z"/>
		<path class="st4" d="M55.2,29.4c0.1,0.8,0.1,1.7,0.1,2.6c0,3.7-0.9,7.2-2.4,10.4l4.9,2.8c2-4,3.2-8.4,3.2-13.2
			c0-1.2-0.1-2.4-0.2-3.5L55.2,29.4z"/>
		<path class="st4" d="M11.1,42.4C9.5,39.2,8.6,35.7,8.6,32c0-0.9,0.1-1.7,0.1-2.6l-5.5-1C3.1,29.6,3,30.8,3,32
			c0,4.7,1.1,9.2,3.2,13.2L11.1,42.4z"/>
		<path class="st4" d="M51.4,44.9c-2.5,3.7-5.9,6.6-10.1,8.4l1.9,5.3c5.3-2.3,9.9-6.1,13-10.9L51.4,44.9z"/>
		<path class="st4" d="M22.6,53.4c-4.1-1.8-7.6-4.7-10.1-8.4l-4.9,2.8c3.1,4.8,7.6,8.6,13,10.9L22.6,53.4z"/>
	</g>
	<path class="st6" d="M12.7,24l1.8,0.6c3.9-9,14.1-13.7,23.5-10.5c10,3.3,15.3,14,12,24S35.8,53.4,25.9,50
		c-9.5-3.2-14.7-13.1-12.4-22.6l-1.8-0.6c-2.7,10.5,3.1,21.5,13.6,25c10.9,3.7,22.8-2.2,26.5-13.1s-2.2-22.8-13.1-26.5
		C28.2,8.7,16.9,13.9,12.7,24z"/>
</g>
<path class="st7" d="M31.9,11.1C20.4,11.1,11,20.5,11,32s9.4,20.9,20.9,20.9S52.8,43.5,52.8,32S43.5,11.1,31.9,11.1z M31.9,52.4
	c-11.2,0-20.4-9.2-20.4-20.4s9.2-20.4,20.4-20.4c11.3,0,20.4,9.2,20.4,20.4S43.1,52.4,31.9,52.4z"/>
<path class="st5" d="M31.9,11.1C20.4,11.1,11,20.5,11,32s9.4,20.9,20.9,20.9S52.8,43.5,52.8,32S43.5,11.1,31.9,11.1z M31.9,51
	c-10.5,0-19-8.5-19-19s8.5-19,19-19s19,8.5,19,19S42.4,51,31.9,51z"/>
<g id="Layer_2">
	<g>
		<polygon class="st8" points="28.3,28.3 41.5,22.5 35.8,35.7 22.5,41.5 		"/>
		<g>
			<path class="st8" d="M24,33.8c-0.1-0.5-0.2-1.1-0.2-1.8c0-4.6,3.7-8.3,8.2-8.3c0.6,0,1.1,0.1,1.8,0.2l1.2-0.5
				c-1-0.4-1.9-0.5-3-0.5c-5,0-9.1,4.1-9.1,9.1c0,1.1,0.2,2,0.5,3L24,33.8z"/>
			<path class="st8" d="M40,30.3c0.1,0.5,0.2,1.1,0.2,1.7c0,4.6-3.7,8.3-8.3,8.3c-0.5,0-1.1-0.1-1.7-0.2L29,40.6
				c1,0.4,1.9,0.5,2.9,0.5c5,0,9.1-4.1,9.1-9.1c0-1-0.2-2-0.5-2.9L40,30.3z"/>
		</g>
		<g>
			<path class="st8" d="M44.4,29.9c-0.4-1.9-1-3.5-2-4.9l-1.1,2.7c0.4,0.8,0.6,1.5,0.7,2.4l0,0l2.4,2l-2.4,2l0,0c-0.8,4.1-4,7.2-8,8
				l0,0L32,44.4l-2-2.4l0,0c-0.8-0.2-1.6-0.4-2.4-0.8l-2.6,1.1c1.4,1,3.1,1.7,4.9,2L32,47l2.1-2.6c5.3-0.9,9.4-5,10.3-10.3L47,32
				L44.4,29.9z"/>
			<path class="st8" d="M21.6,39.1l1.1-2.6c-0.4-0.7-0.6-1.6-0.8-2.4l0,0l-2.4-2l2.4-2l0,0c0.8-4.1,4-7.2,8-8l0,0l2-2.4l2,2.4l0,0
				c0.9,0.2,1.6,0.4,2.5,0.8l2.6-1.1c-1.4-1-3.1-1.7-4.9-2L32,17l-2.1,2.6c-5.3,0.9-9.4,5-10.3,10.3L17,32l2.6,2.1
				C19.9,36,20.5,37.6,21.6,39.1z"/>
		</g>
	</g>
</g>
<g>
	<path class="st8" d="M29.9,15.6c0.6-0.1,1.2-0.1,1.9-0.1v-1.3c-0.7,0-1.4,0.1-2.1,0.2L29.9,15.6z"/>
	<path class="st4" d="M25.3,16.9c0.6-0.3,1.2-0.5,1.8-0.7l-0.4-1.2c-0.7,0.2-1.3,0.5-2,0.8L25.3,16.9z"/>
	<path class="st4" d="M23.2,18.1c0.5-0.3,1.1-0.7,1.7-0.9l-0.6-1.1c-0.7,0.3-1.3,0.7-1.9,1.1L23.2,18.1z"/>
	<path class="st4" d="M27.6,16.1c0.6-0.2,1.2-0.3,1.8-0.4l-0.2-1.2c-0.7,0.1-1.4,0.3-2,0.4L27.6,16.1z"/>
	<path class="st4" d="M19.4,21.4c0.4-0.5,0.9-1,1.4-1.5l-1-0.8c-0.6,0.5-1.1,1.1-1.6,1.7L19.4,21.4z"/>
	<path class="st4" d="M21.2,19.6c0.5-0.4,1-0.9,1.6-1.2l-0.8-1c-0.6,0.4-1.2,0.9-1.7,1.4L21.2,19.6z"/>
</g>
</svg>
