<?xml version="1.0" encoding="utf-8"?>
<!-- Generator: Adobe Illustrator 21.0.1, SVG Export Plug-In . SVG Version: 6.00 Build 0)  -->
<svg version="1.1" id="Layer_1" xmlns="http://www.w3.org/2000/svg" xmlns:xlink="http://www.w3.org/1999/xlink" x="0px" y="0px"
	 viewBox="0 0 64 64" style="enable-background:new 0 0 64 64;" xml:space="preserve">
<style type="text/css">
	.st0{fill:#682323;}
	.st1{fill:#207E70;}
</style>
<g>
	<circle class="st0" cx="23" cy="41" r="20"/>
</g>
<g>
	<path class="st1" d="M4.4,29.9c2.1,0.1,4,0.6,5.8,1.3c3.6,1.3,7,3,10.4,4.8c0.4,0.2,0.6,0.2,0.9-0.2c6.6-7.8,13.6-15.4,21-22.6
		c3.4-3.3,6.9-6.5,10.8-9.2c1.6-1.1,3.3-2.1,5.1-2.7c1.1-0.3,2.2-0.5,3.3-0.1c1.9,0.6,2.6,2.3,1.5,4C62.7,6,62,6.7,61.3,7.4
		c-2.9,2.9-5.9,5.7-8.8,8.7c-8.1,8.6-14.7,18.2-20.2,28.6c-2.9,5.5-5.5,11.1-7.8,16.9c-0.4,1-1,1.4-2,1.3c-0.7-0.1-1.1-0.5-1.4-1.1
		c-1.7-2.8-3.3-5.7-5-8.5c-3.7-6.1-8-11.7-13.2-16.6c-0.6-0.5-1.1-1.1-1.7-1.6c-0.9-0.7-1-1.5-0.8-2.5c0.3-1.5,1.4-2.4,2.9-2.7
		C3.7,30,4.2,29.9,4.4,29.9z"/>
</g>
</svg>
