<?xml version="1.0" encoding="utf-8"?>
<!-- Generator: Adobe Illustrator 21.0.1, SVG Export Plug-In . SVG Version: 6.00 Build 0)  -->
<svg version="1.1" id="Layer_1" xmlns="http://www.w3.org/2000/svg" xmlns:xlink="http://www.w3.org/1999/xlink" x="0px" y="0px"
	 viewBox="0 0 64 64" style="enable-background:new 0 0 64 64;" xml:space="preserve">
<style type="text/css">
	.st0{fill:#D32929;stroke:#682323;stroke-width:2;stroke-miterlimit:10;}
</style>
<g>
	<path class="st0" d="M23.4,10.3c0.1-3.1,1.7-5.4,4.2-7c6.2-3.8,12.8,1.6,12.9,6.5c0,1.7-0.3,3.4-0.5,5.1
		c-0.9,6.9-1.8,13.7-2.7,20.6c-0.3,2.1-0.5,4.3-0.9,6.4c-0.1,0.8-0.5,1.6-0.9,2.3c-1.7,2.7-5.4,2.7-7.1,0c-0.8-1.3-1-2.8-1.2-4.2
		c-1.2-8.8-2.3-17.6-3.5-26.4C23.7,12.6,23.6,11.4,23.4,10.3z"/>
	<path class="st0" d="M37.9,55.9c0,3.4-2.7,6.1-5.9,6.1c-3.3,0-5.9-2.8-5.9-6.1c0-3.4,2.7-6.1,5.9-6.1
		C35.3,49.8,37.9,52.5,37.9,55.9z"/>
</g>
</svg>
