<?xml version="1.0" encoding="utf-8"?>
<!-- Generator: Adobe Illustrator 21.0.1, SVG Export Plug-In . SVG Version: 6.00 Build 0)  -->
<svg version="1.1" id="Layer_1" xmlns="http://www.w3.org/2000/svg" xmlns:xlink="http://www.w3.org/1999/xlink" x="0px" y="0px"
	 viewBox="0 0 64 64" style="enable-background:new 0 0 64 64;" xml:space="preserve">
<style type="text/css">
	.st0{fill:#DEDEDE;}
	.st1{fill:#081B21;}
</style>
<circle class="st0" cx="32" cy="32" r="29.5"/>
<path class="st1" d="M61.5,32.5c0-0.2,0-0.3,0-0.5c0-1-0.1-2-0.1-2.9c-2.5,1.1-5.2,2.1-8.2,2.9c0-0.1,0-0.1,0-0.2
	c0-4.7-0.6-9.2-1.7-13.3c1.9-0.8,3.6-1.7,5.2-2.7c-0.6-0.9-1.2-1.7-1.8-2.5c-1.4,0.7-2.9,1.4-4.4,2c-1.4-3.8-3.2-7.1-5.3-9.8
	c-1.7-0.8-3.5-1.5-5.4-2c3.2,3.1,5.8,7.6,7.6,12.9c-4.6,1.4-9.8,2.2-15.3,2.2c0,0,0,0,0,0c0.4-7,1.1-12.6,2.1-16
	c-0.7,0-1.3-0.1-2-0.1c-0.5,0-1.1,0.1-1.6,0.1c-0.9,3.4-1.6,9-2,15.9c-4.1-0.3-8.1-1-11.6-2c1.8-5.4,4.4-9.8,7.6-12.9
	c-1.9,0.5-3.7,1.2-5.4,2.1c-2.2,2.6-4,6-5.3,9.8c-1.6-0.6-3-1.3-4.4-2c-0.6,0.8-1.2,1.6-1.8,2.5c1.6,1,3.3,1.9,5.2,2.7
	c-1.1,4.1-1.7,8.6-1.7,13.3c0,0.1,0,0.1,0,0.2c-3-0.8-5.7-1.8-8.2-2.9C2.6,30,2.5,31,2.5,32c0,0.2,0,0.4,0,0.5
	c2.5,1.2,5.4,2.2,8.4,3c0.3,4.5,1.2,8.8,2.5,12.5c-3-0.9-5.7-2.1-8.1-3.4c0.9,1.8,1.9,3.5,3.1,5c2.1,0.9,4.3,1.7,6.7,2.3
	c1.2,2.5,2.7,4.8,4.3,6.6c1.7,0.8,3.6,1.5,5.5,1.9c-2.2-1.9-4.1-4.5-5.7-7.6c3.1,0.6,6.5,1,10,1.2c0.4,3,0.8,5.5,1.3,7.2
	c0.5,0,1,0.1,1.5,0.1c0.7,0,1.4-0.1,2.1-0.1c-0.5-1.8-1-4.2-1.3-7.2c4.2,0,8.3-0.5,12-1.2c-1.6,3.1-3.5,5.6-5.7,7.6
	c1.9-0.5,3.7-1.1,5.4-1.9c1.6-1.9,3.1-4.1,4.3-6.6c2.4-0.7,4.6-1.4,6.7-2.3c1.2-1.6,2.2-3.3,3.1-5c-2.4,1.3-5.1,2.4-8.1,3.4
	c1.3-3.8,2.2-8,2.5-12.5C56.1,34.7,58.9,33.7,61.5,32.5z M32,22.1c5.9,0,11.4-0.9,16.2-2.5c0.9,3.7,1.4,7.8,1.4,12.1
	c0,0.4,0,0.7,0,1.1C44.3,34,38.3,34.7,32,34.7c-0.1,0-0.3,0-0.4,0c0-1,0-1.9,0-2.9c0-3.4,0.1-6.6,0.2-9.6
	C31.9,22.1,31.9,22.1,32,22.1z M14.4,31.8c0-4.3,0.5-8.4,1.4-12.1c3.8,1.2,7.9,2,12.4,2.3C28,25.1,28,28.4,28,31.8
	c0,0.9,0,1.9,0,2.8c-4.8-0.2-9.4-0.8-13.6-1.8C14.4,32.5,14.4,32.1,14.4,31.8z M17.4,49.1C16,45.3,15,41,14.6,36.4
	c4.2,0.9,8.7,1.5,13.5,1.7c0.1,4.6,0.4,8.9,0.7,12.5C24.8,50.5,21,50,17.4,49.1z M46.6,49.1c-4.4,1-9.1,1.6-14.2,1.6
	c-0.4-3.7-0.6-7.9-0.7-12.5c0.1,0,0.2,0,0.3,0c6.2,0,12.1-0.7,17.4-1.8C49,41,48,45.3,46.6,49.1z"/>
</svg>
